<svg width="538" height="33" viewBox="0 0 538 33" fill="none" xmlns="http://www.w3.org/2000/svg">
<rect width="265" height="33" fill="#1D70B8"/>
<path d="M17.7207 21.0322H12.7944L12.043 23.5H9.18555L13.5366 10.1963H17.0713L21.4873 23.5H18.4814L17.7207 21.0322ZM13.5181 18.6572H16.9971L15.2715 13.0352H15.2344L13.5181 18.6572ZM25.3188 26.6357H22.7583V13.564H25.3188V14.4175C25.5972 14.1268 25.9404 13.8794 26.3486 13.6753C26.7568 13.4712 27.2516 13.3691 27.833 13.3691C28.4886 13.3691 29.0824 13.5021 29.6143 13.7681C30.1523 14.0278 30.6131 14.3896 30.9966 14.8535C31.38 15.3112 31.6769 15.8555 31.8872 16.4863C32.0975 17.1172 32.2026 17.8006 32.2026 18.5366C32.2026 19.2726 32.0944 19.9561 31.8779 20.5869C31.6615 21.2178 31.3584 21.762 30.9688 22.2197C30.5791 22.6774 30.1121 23.0361 29.5679 23.2959C29.0236 23.5557 28.4237 23.6855 27.7681 23.6855C27.4774 23.6855 27.2114 23.6577 26.9702 23.6021C26.7352 23.5526 26.5187 23.4814 26.3208 23.3887C26.1229 23.2959 25.9404 23.1877 25.7734 23.064C25.6064 22.9341 25.4549 22.7949 25.3188 22.6465V26.6357ZM25.2446 19.4551C25.2446 19.721 25.291 19.9684 25.3838 20.1973C25.4827 20.4199 25.6219 20.6147 25.8013 20.7817C25.9806 20.9487 26.194 21.0786 26.4414 21.1714C26.695 21.2642 26.9795 21.3105 27.2949 21.3105C27.6598 21.3105 27.9814 21.2456 28.2598 21.1157C28.5443 20.9797 28.7824 20.791 28.9741 20.5498C29.1659 20.3086 29.3112 20.0241 29.4102 19.6963C29.5091 19.3623 29.5586 18.9974 29.5586 18.6016V18.481C29.5586 18.0851 29.5091 17.7202 29.4102 17.3862C29.3112 17.0522 29.1659 16.7646 28.9741 16.5234C28.7824 16.276 28.5443 16.0843 28.2598 15.9482C27.9814 15.8122 27.6598 15.7441 27.2949 15.7441C26.9795 15.7441 26.695 15.7905 26.4414 15.8833C26.194 15.9761 25.9806 16.106 25.8013 16.2729C25.6219 16.4399 25.4827 16.6379 25.3838 16.8667C25.291 17.0955 25.2446 17.3429 25.2446 17.6089V19.4551ZM36.4702 26.6357H33.9097V13.564H36.4702V14.4175C36.7485 14.1268 37.0918 13.8794 37.5 13.6753C37.9082 13.4712 38.403 13.3691 38.9844 13.3691C39.64 13.3691 40.2337 13.5021 40.7656 13.7681C41.3037 14.0278 41.7645 14.3896 42.1479 14.8535C42.5314 15.3112 42.8283 15.8555 43.0386 16.4863C43.2489 17.1172 43.354 17.8006 43.354 18.5366C43.354 19.2726 43.2458 19.9561 43.0293 20.5869C42.8128 21.2178 42.5098 21.762 42.1201 22.2197C41.7305 22.6774 41.2635 23.0361 40.7192 23.2959C40.175 23.5557 39.575 23.6855 38.9194 23.6855C38.6287 23.6855 38.3628 23.6577 38.1216 23.6021C37.8866 23.5526 37.6701 23.4814 37.4722 23.3887C37.2743 23.2959 37.0918 23.1877 36.9248 23.064C36.7578 22.9341 36.6063 22.7949 36.4702 22.6465V26.6357ZM36.396 19.4551C36.396 19.721 36.4424 19.9684 36.5352 20.1973C36.6341 20.4199 36.7733 20.6147 36.9526 20.7817C37.132 20.9487 37.3454 21.0786 37.5928 21.1714C37.8464 21.2642 38.1309 21.3105 38.4463 21.3105C38.8112 21.3105 39.1328 21.2456 39.4111 21.1157C39.6956 20.9797 39.9338 20.791 40.1255 20.5498C40.3172 20.3086 40.4626 20.0241 40.5615 19.6963C40.6605 19.3623 40.71 18.9974 40.71 18.6016V18.481C40.71 18.0851 40.6605 17.7202 40.5615 17.3862C40.4626 17.0522 40.3172 16.7646 40.1255 16.5234C39.9338 16.276 39.6956 16.0843 39.4111 15.9482C39.1328 15.8122 38.8112 15.7441 38.4463 15.7441C38.1309 15.7441 37.8464 15.7905 37.5928 15.8833C37.3454 15.9761 37.132 16.106 36.9526 16.2729C36.7733 16.4399 36.6341 16.6379 36.5352 16.8667C36.4424 17.0955 36.396 17.3429 36.396 17.6089V19.4551ZM47.2041 19.418C47.2474 19.7148 47.3402 19.987 47.4824 20.2344C47.6309 20.4818 47.8164 20.6951 48.0391 20.8745C48.2617 21.0477 48.5184 21.1838 48.8091 21.2827C49.0998 21.3817 49.409 21.4312 49.7368 21.4312C50.1141 21.4312 50.5223 21.36 50.9614 21.2178C51.4006 21.0693 51.8026 20.856 52.1675 20.5776L53.4014 22.3774C52.9375 22.7671 52.3685 23.0825 51.6943 23.3237C51.0202 23.5649 50.3027 23.6855 49.542 23.6855C48.8555 23.6855 48.2091 23.568 47.603 23.333C46.9969 23.098 46.465 22.7578 46.0073 22.3125C45.5558 21.8672 45.1971 21.326 44.9312 20.689C44.6714 20.0519 44.5415 19.3345 44.5415 18.5366C44.5415 17.8068 44.6559 17.1265 44.8848 16.4956C45.1198 15.8647 45.4445 15.3174 45.8589 14.8535C46.2795 14.3896 46.7804 14.0278 47.3618 13.7681C47.9432 13.5021 48.5864 13.3691 49.2915 13.3691C49.9471 13.3691 50.5563 13.4897 51.1191 13.731C51.682 13.966 52.1706 14.3 52.585 14.7329C52.9993 15.1597 53.3241 15.673 53.5591 16.2729C53.7941 16.8729 53.9116 17.5347 53.9116 18.2583V19.418H47.2041ZM49.2822 15.5957C48.7318 15.5957 48.2648 15.7812 47.8813 16.1523C47.5041 16.5173 47.2845 16.9595 47.2227 17.479H51.2305C51.2181 16.9533 51.0264 16.508 50.6553 16.1431C50.2842 15.7782 49.8265 15.5957 49.2822 15.5957ZM55.5073 10.1963H58.0679V20.8003C58.0679 21.0106 58.1266 21.1714 58.2441 21.2827C58.3678 21.394 58.5627 21.4497 58.8286 21.4497C58.9523 21.4497 59.0575 21.4435 59.144 21.4312C59.2368 21.4126 59.3543 21.3879 59.4966 21.3569L59.7007 23.5371C59.5275 23.5618 59.342 23.5866 59.144 23.6113C58.9771 23.6299 58.7822 23.6453 58.5596 23.6577C58.3431 23.6763 58.1174 23.6855 57.8823 23.6855C57.5174 23.6855 57.1896 23.6392 56.8989 23.5464C56.6082 23.4536 56.3577 23.3175 56.1475 23.1382C55.9434 22.9526 55.7856 22.7238 55.6743 22.4517C55.563 22.1795 55.5073 21.8641 55.5073 21.5054V10.1963ZM61.0737 10.1963H63.6343V20.8003C63.6343 21.0106 63.693 21.1714 63.8105 21.2827C63.9342 21.394 64.1291 21.4497 64.395 21.4497C64.5187 21.4497 64.6239 21.4435 64.7104 21.4312C64.8032 21.4126 64.9207 21.3879 65.063 21.3569L65.2671 23.5371C65.0939 23.5618 64.9084 23.5866 64.7104 23.6113C64.5435 23.6299 64.3486 23.6453 64.126 23.6577C63.9095 23.6763 63.6838 23.6855 63.4487 23.6855C63.0838 23.6855 62.756 23.6392 62.4653 23.5464C62.1746 23.4536 61.9242 23.3175 61.7139 23.1382C61.5098 22.9526 61.3521 22.7238 61.2407 22.4517C61.1294 22.1795 61.0737 21.8641 61.0737 21.5054V10.1963ZM69.8872 19.4644C69.5718 19.5138 69.3182 19.6252 69.1265 19.7983C68.9347 19.9653 68.8389 20.1942 68.8389 20.4849C68.8389 20.8065 68.9564 21.0848 69.1914 21.3198C69.4264 21.5487 69.7728 21.6631 70.2305 21.6631C70.7129 21.6631 71.0933 21.5239 71.3716 21.2456C71.6499 20.9673 71.7891 20.5993 71.7891 20.1416V19.1396L69.8872 19.4644ZM72.2065 22.563C72.1014 22.6805 71.9715 22.8073 71.8169 22.9434C71.6685 23.0732 71.4891 23.1938 71.2788 23.3052C71.0747 23.4103 70.8335 23.5 70.5552 23.5742C70.2769 23.6484 69.9645 23.6855 69.6182 23.6855C69.1234 23.6855 68.6657 23.6082 68.2451 23.4536C67.8307 23.2928 67.4658 23.0701 67.1504 22.7856C66.835 22.5011 66.5876 22.1733 66.4082 21.8022C66.2288 21.425 66.1392 21.0168 66.1392 20.5776C66.1392 19.7798 66.3866 19.1273 66.8813 18.6201C67.3761 18.113 68.0596 17.7944 68.9316 17.6646L71.7891 17.2471V17.0615C71.7891 16.6162 71.653 16.2637 71.3809 16.0039C71.1087 15.7441 70.6665 15.6143 70.0542 15.6143C69.8006 15.6143 69.5439 15.6452 69.2842 15.707C69.0244 15.7627 68.7739 15.8276 68.5327 15.9019C68.2977 15.9761 68.0781 16.0627 67.874 16.1616C67.6699 16.2544 67.4906 16.3379 67.3359 16.4121L66.334 14.4546C66.903 14.1392 67.5339 13.8794 68.2266 13.6753C68.9255 13.4712 69.6491 13.3691 70.3975 13.3691C70.8551 13.3691 71.3159 13.4186 71.7798 13.5176C72.2498 13.6104 72.6735 13.7835 73.0508 14.0371C73.4342 14.2907 73.7466 14.637 73.9878 15.0762C74.229 15.5091 74.3496 16.0627 74.3496 16.7368V20.8188C74.3496 21.1095 74.4238 21.326 74.5723 21.4683C74.7269 21.6043 74.9372 21.7311 75.2031 21.8486L74.0435 23.6855C73.5734 23.6361 73.1961 23.5155 72.9116 23.3237C72.6271 23.1258 72.3921 22.8722 72.2065 22.563ZM76.4927 13.564H79.0532V14.4175C79.1893 14.2814 79.3408 14.1515 79.5078 14.0278C79.681 13.8979 79.8696 13.7866 80.0737 13.6938C80.2778 13.5949 80.5036 13.5176 80.751 13.4619C81.0046 13.4001 81.2829 13.3691 81.5859 13.3691C82.124 13.3691 82.6064 13.4588 83.0332 13.6382C83.46 13.8114 83.8187 14.0526 84.1094 14.3618C84.4062 14.6711 84.632 15.0329 84.7866 15.4473C84.9412 15.8617 85.0186 16.3101 85.0186 16.7925V23.5H82.458V17.7202C82.458 17.3677 82.4178 17.0708 82.3374 16.8296C82.257 16.5822 82.1457 16.3843 82.0034 16.2358C81.8674 16.0812 81.7035 15.9699 81.5117 15.9019C81.3262 15.8276 81.1221 15.7905 80.8994 15.7905C80.6396 15.7905 80.3953 15.8369 80.1665 15.9297C79.9438 16.0225 79.749 16.1647 79.582 16.3564C79.415 16.542 79.2852 16.777 79.1924 17.0615C79.0996 17.346 79.0532 17.68 79.0532 18.0635V23.5H76.4927V13.564ZM90.8262 20.5405C90.8262 20.658 90.8416 20.7694 90.8726 20.8745C90.9035 20.9797 90.9561 21.0724 91.0303 21.1528C91.1107 21.2271 91.222 21.2858 91.3643 21.3291C91.5065 21.3724 91.689 21.394 91.9116 21.394C92.0044 21.394 92.1095 21.391 92.2271 21.3848C92.3446 21.3724 92.4621 21.36 92.5796 21.3477C92.6971 21.3353 92.8053 21.3198 92.9043 21.3013C93.0094 21.2827 93.096 21.2673 93.1641 21.2549L93.396 23.5186C93.1548 23.5495 92.9043 23.5773 92.6445 23.6021C92.4219 23.6268 92.1745 23.6453 91.9023 23.6577C91.6302 23.6763 91.355 23.6855 91.0767 23.6855C90.1922 23.6855 89.5026 23.4845 89.0078 23.0825C88.513 22.6805 88.2656 22.0404 88.2656 21.1621V15.7905H86.4751V13.564H88.2656V10.7529L90.8262 10.0664V13.564H93.4331V15.7905H90.8262V20.5405ZM101.041 23.5H98.48V13.564H101.041V23.5ZM98.2109 10.957C98.2109 10.7467 98.2511 10.5488 98.3315 10.3633C98.4119 10.1715 98.5202 10.0076 98.6562 9.87158C98.7985 9.72933 98.9624 9.618 99.1479 9.5376C99.3335 9.45719 99.5345 9.41699 99.751 9.41699C99.9613 9.41699 100.159 9.45719 100.345 9.5376C100.536 9.618 100.7 9.72933 100.836 9.87158C100.979 10.0076 101.09 10.1715 101.17 10.3633C101.251 10.5488 101.291 10.7467 101.291 10.957C101.291 11.1735 101.251 11.3745 101.17 11.5601C101.09 11.7456 100.979 11.9095 100.836 12.0518C100.7 12.1878 100.536 12.2961 100.345 12.3765C100.159 12.4569 99.9613 12.4971 99.751 12.4971C99.5345 12.4971 99.3335 12.4569 99.1479 12.3765C98.9624 12.2961 98.7985 12.1878 98.6562 12.0518C98.5202 11.9095 98.4119 11.7456 98.3315 11.5601C98.2511 11.3745 98.2109 11.1735 98.2109 10.957ZM103.249 13.564H105.809V14.4175C105.945 14.2814 106.097 14.1515 106.264 14.0278C106.437 13.8979 106.625 13.7866 106.83 13.6938C107.034 13.5949 107.259 13.5176 107.507 13.4619C107.76 13.4001 108.039 13.3691 108.342 13.3691C108.88 13.3691 109.362 13.4588 109.789 13.6382C110.216 13.8114 110.575 14.0526 110.865 14.3618C111.162 14.6711 111.388 15.0329 111.542 15.4473C111.697 15.8617 111.774 16.3101 111.774 16.7925V23.5H109.214V17.7202C109.214 17.3677 109.174 17.0708 109.093 16.8296C109.013 16.5822 108.902 16.3843 108.759 16.2358C108.623 16.0812 108.459 15.9699 108.268 15.9019C108.082 15.8276 107.878 15.7905 107.655 15.7905C107.396 15.7905 107.151 15.8369 106.922 15.9297C106.7 16.0225 106.505 16.1647 106.338 16.3564C106.171 16.542 106.041 16.777 105.948 17.0615C105.855 17.346 105.809 17.68 105.809 18.0635V23.5H103.249V13.564ZM119.911 26.6357H117.35V13.564H119.911V14.4175C120.189 14.1268 120.532 13.8794 120.94 13.6753C121.349 13.4712 121.843 13.3691 122.425 13.3691C123.08 13.3691 123.674 13.5021 124.206 13.7681C124.744 14.0278 125.205 14.3896 125.588 14.8535C125.972 15.3112 126.269 15.8555 126.479 16.4863C126.689 17.1172 126.794 17.8006 126.794 18.5366C126.794 19.2726 126.686 19.9561 126.47 20.5869C126.253 21.2178 125.95 21.762 125.561 22.2197C125.171 22.6774 124.704 23.0361 124.16 23.2959C123.615 23.5557 123.015 23.6855 122.36 23.6855C122.069 23.6855 121.803 23.6577 121.562 23.6021C121.327 23.5526 121.111 23.4814 120.913 23.3887C120.715 23.2959 120.532 23.1877 120.365 23.064C120.198 22.9341 120.047 22.7949 119.911 22.6465V26.6357ZM119.836 19.4551C119.836 19.721 119.883 19.9684 119.976 20.1973C120.075 20.4199 120.214 20.6147 120.393 20.7817C120.572 20.9487 120.786 21.0786 121.033 21.1714C121.287 21.2642 121.571 21.3105 121.887 21.3105C122.252 21.3105 122.573 21.2456 122.852 21.1157C123.136 20.9797 123.374 20.791 123.566 20.5498C123.758 20.3086 123.903 20.0241 124.002 19.6963C124.101 19.3623 124.15 18.9974 124.15 18.6016V18.481C124.15 18.0851 124.101 17.7202 124.002 17.3862C123.903 17.0522 123.758 16.7646 123.566 16.5234C123.374 16.276 123.136 16.0843 122.852 15.9482C122.573 15.8122 122.252 15.7441 121.887 15.7441C121.571 15.7441 121.287 15.7905 121.033 15.8833C120.786 15.9761 120.572 16.106 120.393 16.2729C120.214 16.4399 120.075 16.6379 119.976 16.8667C119.883 17.0955 119.836 17.3429 119.836 17.6089V19.4551ZM130.645 19.418C130.688 19.7148 130.781 19.987 130.923 20.2344C131.071 20.4818 131.257 20.6951 131.479 20.8745C131.702 21.0477 131.959 21.1838 132.25 21.2827C132.54 21.3817 132.849 21.4312 133.177 21.4312C133.555 21.4312 133.963 21.36 134.402 21.2178C134.841 21.0693 135.243 20.856 135.608 20.5776L136.842 22.3774C136.378 22.7671 135.809 23.0825 135.135 23.3237C134.461 23.5649 133.743 23.6855 132.982 23.6855C132.296 23.6855 131.65 23.568 131.043 23.333C130.437 23.098 129.905 22.7578 129.448 22.3125C128.996 21.8672 128.638 21.326 128.372 20.689C128.112 20.0519 127.982 19.3345 127.982 18.5366C127.982 17.8068 128.096 17.1265 128.325 16.4956C128.56 15.8647 128.885 15.3174 129.299 14.8535C129.72 14.3896 130.221 14.0278 130.802 13.7681C131.384 13.5021 132.027 13.3691 132.732 13.3691C133.388 13.3691 133.997 13.4897 134.56 13.731C135.122 13.966 135.611 14.3 136.025 14.7329C136.44 15.1597 136.764 15.673 137 16.2729C137.235 16.8729 137.352 17.5347 137.352 18.2583V19.418H130.645ZM132.723 15.5957C132.172 15.5957 131.705 15.7812 131.322 16.1523C130.944 16.5173 130.725 16.9595 130.663 17.479H134.671C134.659 16.9533 134.467 16.508 134.096 16.1431C133.725 15.7782 133.267 15.5957 132.723 15.5957ZM144.57 16.0503H144.301C143.936 16.0503 143.586 16.0874 143.252 16.1616C142.925 16.2358 142.634 16.3719 142.38 16.5698C142.127 16.7616 141.923 17.0275 141.768 17.3677C141.62 17.7078 141.545 18.1439 141.545 18.6758V23.5H138.985V13.564H141.545V14.6865C141.651 14.5195 141.787 14.3587 141.954 14.2041C142.121 14.0495 142.315 13.9134 142.538 13.7959C142.761 13.6722 143.011 13.5732 143.29 13.499C143.568 13.4248 143.868 13.3877 144.189 13.3877H144.57V16.0503ZM146.871 20.3271C147.236 20.6549 147.672 20.9364 148.179 21.1714C148.686 21.4064 149.199 21.5239 149.719 21.5239C150.096 21.5239 150.393 21.4528 150.609 21.3105C150.826 21.1621 150.934 20.9735 150.934 20.7446C150.934 20.355 150.517 20.0519 149.682 19.8354L148.958 19.6406C148.599 19.554 148.237 19.4365 147.873 19.2881C147.508 19.1335 147.171 18.9325 146.861 18.6851C146.558 18.4377 146.311 18.1377 146.119 17.7852C145.934 17.4264 145.841 16.9873 145.841 16.4678C145.841 16.0534 145.931 15.6606 146.11 15.2896C146.295 14.9123 146.555 14.5814 146.889 14.2969C147.229 14.0124 147.641 13.7866 148.123 13.6196C148.605 13.4526 149.144 13.3691 149.737 13.3691C150.585 13.3691 151.339 13.5021 152.001 13.7681C152.669 14.034 153.195 14.334 153.578 14.668L152.242 16.375C151.927 16.1462 151.553 15.9513 151.12 15.7905C150.693 15.6235 150.263 15.54 149.83 15.54C149.428 15.54 149.116 15.6143 148.893 15.7627C148.67 15.9049 148.559 16.0781 148.559 16.2822C148.559 16.4987 148.655 16.675 148.847 16.811C149.045 16.9409 149.329 17.0553 149.7 17.1543L150.776 17.4604C151.803 17.7511 152.539 18.1439 152.984 18.6387C153.43 19.1335 153.652 19.7581 153.652 20.5127C153.652 20.9333 153.566 21.3353 153.393 21.7188C153.219 22.096 152.966 22.4331 152.632 22.73C152.298 23.0269 151.883 23.2619 151.389 23.4351C150.894 23.6021 150.331 23.6855 149.7 23.6855C149.218 23.6855 148.763 23.6423 148.336 23.5557C147.916 23.4691 147.523 23.3516 147.158 23.2031C146.799 23.0485 146.475 22.8753 146.184 22.6836C145.893 22.4919 145.646 22.3001 145.442 22.1084L146.871 20.3271ZM159.683 13.3691C160.419 13.3691 161.087 13.5021 161.687 13.7681C162.286 14.0278 162.8 14.3896 163.227 14.8535C163.653 15.3174 163.981 15.8647 164.21 16.4956C164.445 17.1265 164.562 17.8068 164.562 18.5366C164.562 19.2726 164.445 19.9561 164.21 20.5869C163.975 21.2116 163.644 21.7528 163.217 22.2104C162.791 22.6681 162.277 23.0299 161.677 23.2959C161.077 23.5557 160.412 23.6855 159.683 23.6855C158.947 23.6855 158.279 23.5557 157.679 23.2959C157.079 23.0299 156.565 22.6681 156.139 22.2104C155.712 21.7528 155.381 21.2116 155.146 20.5869C154.911 19.9561 154.793 19.2726 154.793 18.5366C154.793 17.8068 154.908 17.1265 155.137 16.4956C155.372 15.8647 155.703 15.3174 156.129 14.8535C156.556 14.3896 157.069 14.0278 157.669 13.7681C158.276 13.5021 158.947 13.3691 159.683 13.3691ZM159.683 21.3105C160.048 21.3105 160.369 21.2425 160.647 21.1064C160.932 20.9704 161.17 20.7817 161.362 20.5405C161.554 20.2993 161.699 20.0117 161.798 19.6777C161.897 19.3376 161.946 18.9665 161.946 18.5645V18.4995C161.946 18.0975 161.897 17.7295 161.798 17.3955C161.699 17.0553 161.554 16.7646 161.362 16.5234C161.17 16.276 160.932 16.0843 160.647 15.9482C160.369 15.8122 160.048 15.7441 159.683 15.7441C159.318 15.7441 158.993 15.8122 158.708 15.9482C158.43 16.0843 158.195 16.276 158.003 16.5234C157.812 16.7646 157.666 17.0553 157.567 17.3955C157.468 17.7295 157.419 18.0975 157.419 18.4995V18.5645C157.419 18.9665 157.468 19.3376 157.567 19.6777C157.666 20.0117 157.812 20.2993 158.003 20.5405C158.195 20.7817 158.43 20.9704 158.708 21.1064C158.993 21.2425 159.318 21.3105 159.683 21.3105ZM166.26 13.564H168.821V14.4175C168.957 14.2814 169.108 14.1515 169.275 14.0278C169.449 13.8979 169.637 13.7866 169.841 13.6938C170.045 13.5949 170.271 13.5176 170.519 13.4619C170.772 13.4001 171.05 13.3691 171.354 13.3691C171.892 13.3691 172.374 13.4588 172.801 13.6382C173.228 13.8114 173.586 14.0526 173.877 14.3618C174.174 14.6711 174.4 15.0329 174.554 15.4473C174.709 15.8617 174.786 16.3101 174.786 16.7925V23.5H172.226V17.7202C172.226 17.3677 172.185 17.0708 172.105 16.8296C172.025 16.5822 171.913 16.3843 171.771 16.2358C171.635 16.0812 171.471 15.9699 171.279 15.9019C171.094 15.8276 170.89 15.7905 170.667 15.7905C170.407 15.7905 170.163 15.8369 169.934 15.9297C169.711 16.0225 169.517 16.1647 169.35 16.3564C169.183 16.542 169.053 16.777 168.96 17.0615C168.867 17.346 168.821 17.68 168.821 18.0635V23.5H166.26V13.564ZM179.638 16.4121H183.627V18.7129H179.638V16.4121ZM196.922 23.5H194.352V17.7202C194.352 17.3677 194.312 17.0708 194.231 16.8296C194.157 16.5822 194.052 16.3843 193.916 16.2358C193.78 16.0812 193.622 15.973 193.443 15.9111C193.264 15.8431 193.069 15.8091 192.858 15.8091C192.611 15.8091 192.379 15.8524 192.163 15.939C191.952 16.0256 191.767 16.1616 191.606 16.3472C191.451 16.5327 191.328 16.7708 191.235 17.0615C191.148 17.346 191.105 17.6862 191.105 18.082V23.5H188.544V13.564H191.105V14.436C191.433 14.0711 191.813 13.8021 192.246 13.6289C192.685 13.4557 193.155 13.3691 193.656 13.3691C194.17 13.3691 194.649 13.4743 195.094 13.6846C195.546 13.8949 195.92 14.2412 196.217 14.7236C196.39 14.4762 196.588 14.266 196.811 14.0928C197.039 13.9196 197.284 13.7804 197.543 13.6753C197.803 13.5701 198.072 13.4928 198.351 13.4434C198.635 13.3939 198.926 13.3691 199.223 13.3691C199.779 13.3691 200.274 13.4619 200.707 13.6475C201.146 13.8268 201.517 14.0711 201.82 14.3804C202.123 14.6896 202.355 15.0452 202.516 15.4473C202.677 15.8493 202.757 16.2729 202.757 16.7183V23.5H200.169V17.7202C200.169 17.3677 200.129 17.0708 200.048 16.8296C199.974 16.5822 199.869 16.3843 199.733 16.2358C199.597 16.0812 199.436 15.973 199.25 15.9111C199.071 15.8431 198.876 15.8091 198.666 15.8091C198.419 15.8091 198.19 15.8524 197.979 15.939C197.769 16.0256 197.584 16.1616 197.423 16.3472C197.268 16.5327 197.145 16.7708 197.052 17.0615C196.965 17.346 196.922 17.6862 196.922 18.082V23.5ZM208.101 19.4644C207.786 19.5138 207.532 19.6252 207.34 19.7983C207.149 19.9653 207.053 20.1942 207.053 20.4849C207.053 20.8065 207.17 21.0848 207.405 21.3198C207.64 21.5487 207.987 21.6631 208.444 21.6631C208.927 21.6631 209.307 21.5239 209.585 21.2456C209.864 20.9673 210.003 20.5993 210.003 20.1416V19.1396L208.101 19.4644ZM210.42 22.563C210.315 22.6805 210.185 22.8073 210.031 22.9434C209.882 23.0732 209.703 23.1938 209.493 23.3052C209.289 23.4103 209.047 23.5 208.769 23.5742C208.491 23.6484 208.178 23.6855 207.832 23.6855C207.337 23.6855 206.88 23.6082 206.459 23.4536C206.045 23.2928 205.68 23.0701 205.364 22.7856C205.049 22.5011 204.801 22.1733 204.622 21.8022C204.443 21.425 204.353 21.0168 204.353 20.5776C204.353 19.7798 204.6 19.1273 205.095 18.6201C205.59 18.113 206.273 17.7944 207.146 17.6646L210.003 17.2471V17.0615C210.003 16.6162 209.867 16.2637 209.595 16.0039C209.323 15.7441 208.88 15.6143 208.268 15.6143C208.014 15.6143 207.758 15.6452 207.498 15.707C207.238 15.7627 206.988 15.8276 206.747 15.9019C206.512 15.9761 206.292 16.0627 206.088 16.1616C205.884 16.2544 205.704 16.3379 205.55 16.4121L204.548 14.4546C205.117 14.1392 205.748 13.8794 206.44 13.6753C207.139 13.4712 207.863 13.3691 208.611 13.3691C209.069 13.3691 209.53 13.4186 209.994 13.5176C210.464 13.6104 210.887 13.7835 211.265 14.0371C211.648 14.2907 211.96 14.637 212.202 15.0762C212.443 15.5091 212.563 16.0627 212.563 16.7368V20.8188C212.563 21.1095 212.638 21.326 212.786 21.4683C212.941 21.6043 213.151 21.7311 213.417 21.8486L212.257 23.6855C211.787 23.6361 211.41 23.5155 211.125 23.3237C210.841 23.1258 210.606 22.8722 210.42 22.563ZM214.707 13.564H217.267V14.4175C217.403 14.2814 217.555 14.1515 217.722 14.0278C217.895 13.8979 218.083 13.7866 218.288 13.6938C218.492 13.5949 218.717 13.5176 218.965 13.4619C219.218 13.4001 219.497 13.3691 219.8 13.3691C220.338 13.3691 220.82 13.4588 221.247 13.6382C221.674 13.8114 222.033 14.0526 222.323 14.3618C222.62 14.6711 222.846 15.0329 223 15.4473C223.155 15.8617 223.232 16.3101 223.232 16.7925V23.5H220.672V17.7202C220.672 17.3677 220.632 17.0708 220.551 16.8296C220.471 16.5822 220.36 16.3843 220.217 16.2358C220.081 16.0812 219.917 15.9699 219.726 15.9019C219.54 15.8276 219.336 15.7905 219.113 15.7905C218.854 15.7905 218.609 15.8369 218.38 15.9297C218.158 16.0225 217.963 16.1647 217.796 16.3564C217.629 16.542 217.499 16.777 217.406 17.0615C217.313 17.346 217.267 17.68 217.267 18.0635V23.5H214.707V13.564ZM233.827 23.5H231.267V22.6465C231.124 22.7826 230.97 22.9155 230.803 23.0454C230.636 23.1691 230.45 23.2804 230.246 23.3794C230.042 23.4722 229.813 23.5464 229.56 23.6021C229.312 23.6577 229.037 23.6855 228.734 23.6855C228.196 23.6855 227.713 23.599 227.287 23.4258C226.86 23.2464 226.498 23.0052 226.201 22.7021C225.91 22.3929 225.688 22.0311 225.533 21.6167C225.379 21.2023 225.301 20.7539 225.301 20.2715V13.564H227.862V19.3345C227.862 19.687 227.899 19.987 227.973 20.2344C228.054 20.4818 228.162 20.6828 228.298 20.8374C228.44 20.9858 228.607 21.0972 228.799 21.1714C228.991 21.2394 229.198 21.2734 229.42 21.2734C229.68 21.2734 229.921 21.2271 230.144 21.1343C230.373 21.0415 230.571 20.9023 230.738 20.7168C230.905 20.5251 231.035 20.2869 231.127 20.0024C231.22 19.7179 231.267 19.384 231.267 19.0005V13.564H233.827V23.5ZM239.254 19.4644C238.939 19.5138 238.685 19.6252 238.494 19.7983C238.302 19.9653 238.206 20.1942 238.206 20.4849C238.206 20.8065 238.324 21.0848 238.559 21.3198C238.794 21.5487 239.14 21.6631 239.598 21.6631C240.08 21.6631 240.46 21.5239 240.739 21.2456C241.017 20.9673 241.156 20.5993 241.156 20.1416V19.1396L239.254 19.4644ZM241.574 22.563C241.469 22.6805 241.339 22.8073 241.184 22.9434C241.036 23.0732 240.856 23.1938 240.646 23.3052C240.442 23.4103 240.201 23.5 239.922 23.5742C239.644 23.6484 239.332 23.6855 238.985 23.6855C238.491 23.6855 238.033 23.6082 237.612 23.4536C237.198 23.2928 236.833 23.0701 236.518 22.7856C236.202 22.5011 235.955 22.1733 235.775 21.8022C235.596 21.425 235.506 21.0168 235.506 20.5776C235.506 19.7798 235.754 19.1273 236.249 18.6201C236.743 18.113 237.427 17.7944 238.299 17.6646L241.156 17.2471V17.0615C241.156 16.6162 241.02 16.2637 240.748 16.0039C240.476 15.7441 240.034 15.6143 239.421 15.6143C239.168 15.6143 238.911 15.6452 238.651 15.707C238.392 15.7627 238.141 15.8276 237.9 15.9019C237.665 15.9761 237.445 16.0627 237.241 16.1616C237.037 16.2544 236.858 16.3379 236.703 16.4121L235.701 14.4546C236.27 14.1392 236.901 13.8794 237.594 13.6753C238.293 13.4712 239.016 13.3691 239.765 13.3691C240.222 13.3691 240.683 13.4186 241.147 13.5176C241.617 13.6104 242.041 13.7835 242.418 14.0371C242.801 14.2907 243.114 14.637 243.355 15.0762C243.596 15.5091 243.717 16.0627 243.717 16.7368V20.8188C243.717 21.1095 243.791 21.326 243.939 21.4683C244.094 21.6043 244.304 21.7311 244.57 21.8486L243.411 23.6855C242.941 23.6361 242.563 23.5155 242.279 23.3237C241.994 23.1258 241.759 22.8722 241.574 22.563ZM245.823 10.1963H248.383V20.8003C248.383 21.0106 248.442 21.1714 248.56 21.2827C248.683 21.394 248.878 21.4497 249.144 21.4497C249.268 21.4497 249.373 21.4435 249.459 21.4312C249.552 21.4126 249.67 21.3879 249.812 21.3569L250.016 23.5371C249.843 23.5618 249.657 23.5866 249.459 23.6113C249.292 23.6299 249.098 23.6453 248.875 23.6577C248.659 23.6763 248.433 23.6855 248.198 23.6855C247.833 23.6855 247.505 23.6392 247.214 23.5464C246.924 23.4536 246.673 23.3175 246.463 23.1382C246.259 22.9526 246.101 22.7238 245.99 22.4517C245.878 22.1795 245.823 21.8641 245.823 21.5054V10.1963Z" fill="white"/>
<rect width="265" height="33" transform="translate(273)" fill="#EB3223"/>
<path d="M290.721 21.0322H285.794L285.043 23.5H282.186L286.537 10.1963H290.071L294.487 23.5H291.481L290.721 21.0322ZM286.518 18.6572H289.997L288.271 13.0352H288.234L286.518 18.6572ZM297.883 18.583C297.883 18.9046 297.926 19.2293 298.013 19.5571C298.099 19.8787 298.232 20.1694 298.412 20.4292C298.591 20.689 298.82 20.9023 299.098 21.0693C299.383 21.2301 299.72 21.3105 300.109 21.3105C300.363 21.3105 300.592 21.2765 300.796 21.2085C301.006 21.1405 301.192 21.0477 301.353 20.9302C301.52 20.8065 301.665 20.6642 301.789 20.5034C301.918 20.3364 302.03 20.1571 302.123 19.9653L304.368 21.125C304.207 21.5146 303.984 21.8672 303.7 22.1826C303.421 22.498 303.097 22.7671 302.726 22.9897C302.354 23.2124 301.943 23.3825 301.492 23.5C301.04 23.6237 300.561 23.6855 300.054 23.6855C299.355 23.6855 298.712 23.5557 298.124 23.2959C297.536 23.0299 297.029 22.6681 296.603 22.2104C296.176 21.7528 295.842 21.2116 295.601 20.5869C295.359 19.9561 295.239 19.2726 295.239 18.5366C295.239 17.8068 295.359 17.1265 295.601 16.4956C295.842 15.8647 296.176 15.3174 296.603 14.8535C297.029 14.3896 297.536 14.0278 298.124 13.7681C298.712 13.5021 299.355 13.3691 300.054 13.3691C300.561 13.3691 301.04 13.431 301.492 13.5547C301.943 13.6722 302.354 13.8454 302.726 14.0742C303.097 14.2969 303.421 14.5659 303.7 14.8813C303.984 15.1968 304.207 15.5493 304.368 15.939L302.123 17.0986C302.03 16.9069 301.918 16.7306 301.789 16.5698C301.665 16.4028 301.52 16.2606 301.353 16.1431C301.192 16.0194 301.006 15.9235 300.796 15.8555C300.592 15.7812 300.363 15.7441 300.109 15.7441C299.72 15.7441 299.383 15.8276 299.098 15.9946C298.82 16.1554 298.591 16.3688 298.412 16.6348C298.232 16.8945 298.099 17.1883 298.013 17.5161C297.926 17.8439 297.883 18.1717 297.883 18.4995V18.583ZM308.069 18.583C308.069 18.9046 308.113 19.2293 308.199 19.5571C308.286 19.8787 308.419 20.1694 308.598 20.4292C308.778 20.689 309.006 20.9023 309.285 21.0693C309.569 21.2301 309.906 21.3105 310.296 21.3105C310.549 21.3105 310.778 21.2765 310.982 21.2085C311.193 21.1405 311.378 21.0477 311.539 20.9302C311.706 20.8065 311.851 20.6642 311.975 20.5034C312.105 20.3364 312.216 20.1571 312.309 19.9653L314.554 21.125C314.393 21.5146 314.171 21.8672 313.886 22.1826C313.608 22.498 313.283 22.7671 312.912 22.9897C312.541 23.2124 312.13 23.3825 311.678 23.5C311.227 23.6237 310.747 23.6855 310.24 23.6855C309.541 23.6855 308.898 23.5557 308.311 23.2959C307.723 23.0299 307.216 22.6681 306.789 22.2104C306.362 21.7528 306.028 21.2116 305.787 20.5869C305.546 19.9561 305.425 19.2726 305.425 18.5366C305.425 17.8068 305.546 17.1265 305.787 16.4956C306.028 15.8647 306.362 15.3174 306.789 14.8535C307.216 14.3896 307.723 14.0278 308.311 13.7681C308.898 13.5021 309.541 13.3691 310.24 13.3691C310.747 13.3691 311.227 13.431 311.678 13.5547C312.13 13.6722 312.541 13.8454 312.912 14.0742C313.283 14.2969 313.608 14.5659 313.886 14.8813C314.171 15.1968 314.393 15.5493 314.554 15.939L312.309 17.0986C312.216 16.9069 312.105 16.7306 311.975 16.5698C311.851 16.4028 311.706 16.2606 311.539 16.1431C311.378 16.0194 311.193 15.9235 310.982 15.8555C310.778 15.7812 310.549 15.7441 310.296 15.7441C309.906 15.7441 309.569 15.8276 309.285 15.9946C309.006 16.1554 308.778 16.3688 308.598 16.6348C308.419 16.8945 308.286 17.1883 308.199 17.5161C308.113 17.8439 308.069 18.1717 308.069 18.4995V18.583ZM318.274 19.418C318.318 19.7148 318.41 19.987 318.553 20.2344C318.701 20.4818 318.887 20.6951 319.109 20.8745C319.332 21.0477 319.589 21.1838 319.879 21.2827C320.17 21.3817 320.479 21.4312 320.807 21.4312C321.184 21.4312 321.593 21.36 322.032 21.2178C322.471 21.0693 322.873 20.856 323.238 20.5776L324.472 22.3774C324.008 22.7671 323.439 23.0825 322.765 23.3237C322.09 23.5649 321.373 23.6855 320.612 23.6855C319.926 23.6855 319.279 23.568 318.673 23.333C318.067 23.098 317.535 22.7578 317.078 22.3125C316.626 21.8672 316.267 21.326 316.001 20.689C315.742 20.0519 315.612 19.3345 315.612 18.5366C315.612 17.8068 315.726 17.1265 315.955 16.4956C316.19 15.8647 316.515 15.3174 316.929 14.8535C317.35 14.3896 317.851 14.0278 318.432 13.7681C319.014 13.5021 319.657 13.3691 320.362 13.3691C321.017 13.3691 321.627 13.4897 322.189 13.731C322.752 13.966 323.241 14.3 323.655 14.7329C324.07 15.1597 324.394 15.673 324.629 16.2729C324.864 16.8729 324.982 17.5347 324.982 18.2583V19.418H318.274ZM320.353 15.5957C319.802 15.5957 319.335 15.7812 318.952 16.1523C318.574 16.5173 318.355 16.9595 318.293 17.479H322.301C322.288 16.9533 322.097 16.508 321.726 16.1431C321.354 15.7782 320.897 15.5957 320.353 15.5957ZM326.578 10.1963H329.138V20.8003C329.138 21.0106 329.197 21.1714 329.314 21.2827C329.438 21.394 329.633 21.4497 329.899 21.4497C330.023 21.4497 330.128 21.4435 330.214 21.4312C330.307 21.4126 330.425 21.3879 330.567 21.3569L330.771 23.5371C330.598 23.5618 330.412 23.5866 330.214 23.6113C330.047 23.6299 329.853 23.6453 329.63 23.6577C329.413 23.6763 329.188 23.6855 328.953 23.6855C328.588 23.6855 328.26 23.6392 327.969 23.5464C327.679 23.4536 327.428 23.3175 327.218 23.1382C327.014 22.9526 326.856 22.7238 326.745 22.4517C326.633 22.1795 326.578 21.8641 326.578 21.5054V10.1963ZM334.324 19.418C334.368 19.7148 334.46 19.987 334.603 20.2344C334.751 20.4818 334.937 20.6951 335.159 20.8745C335.382 21.0477 335.639 21.1838 335.929 21.2827C336.22 21.3817 336.529 21.4312 336.857 21.4312C337.234 21.4312 337.642 21.36 338.082 21.2178C338.521 21.0693 338.923 20.856 339.288 20.5776L340.521 22.3774C340.058 22.7671 339.489 23.0825 338.814 23.3237C338.14 23.5649 337.423 23.6855 336.662 23.6855C335.976 23.6855 335.329 23.568 334.723 23.333C334.117 23.098 333.585 22.7578 333.127 22.3125C332.676 21.8672 332.317 21.326 332.051 20.689C331.792 20.0519 331.662 19.3345 331.662 18.5366C331.662 17.8068 331.776 17.1265 332.005 16.4956C332.24 15.8647 332.565 15.3174 332.979 14.8535C333.4 14.3896 333.901 14.0278 334.482 13.7681C335.063 13.5021 335.707 13.3691 336.412 13.3691C337.067 13.3691 337.676 13.4897 338.239 13.731C338.802 13.966 339.291 14.3 339.705 14.7329C340.119 15.1597 340.444 15.673 340.679 16.2729C340.914 16.8729 341.032 17.5347 341.032 18.2583V19.418H334.324ZM336.402 15.5957C335.852 15.5957 335.385 15.7812 335.001 16.1523C334.624 16.5173 334.405 16.9595 334.343 17.479H338.351C338.338 16.9533 338.146 16.508 337.775 16.1431C337.404 15.7782 336.947 15.5957 336.402 15.5957ZM348.25 16.0503H347.98C347.616 16.0503 347.266 16.0874 346.932 16.1616C346.604 16.2358 346.314 16.3719 346.06 16.5698C345.806 16.7616 345.602 17.0275 345.448 17.3677C345.299 17.7078 345.225 18.1439 345.225 18.6758V23.5H342.665V13.564H345.225V14.6865C345.33 14.5195 345.466 14.3587 345.633 14.2041C345.8 14.0495 345.995 13.9134 346.218 13.7959C346.44 13.6722 346.691 13.5732 346.969 13.499C347.248 13.4248 347.548 13.3877 347.869 13.3877H348.25V16.0503ZM353.055 19.4644C352.74 19.5138 352.486 19.6252 352.294 19.7983C352.103 19.9653 352.007 20.1942 352.007 20.4849C352.007 20.8065 352.124 21.0848 352.359 21.3198C352.594 21.5487 352.941 21.6631 353.398 21.6631C353.881 21.6631 354.261 21.5239 354.54 21.2456C354.818 20.9673 354.957 20.5993 354.957 20.1416V19.1396L353.055 19.4644ZM355.375 22.563C355.269 22.6805 355.139 22.8073 354.985 22.9434C354.836 23.0732 354.657 23.1938 354.447 23.3052C354.243 23.4103 354.001 23.5 353.723 23.5742C353.445 23.6484 353.132 23.6855 352.786 23.6855C352.291 23.6855 351.834 23.6082 351.413 23.4536C350.999 23.2928 350.634 23.0701 350.318 22.7856C350.003 22.5011 349.756 22.1733 349.576 21.8022C349.397 21.425 349.307 21.0168 349.307 20.5776C349.307 19.7798 349.555 19.1273 350.049 18.6201C350.544 18.113 351.228 17.7944 352.1 17.6646L354.957 17.2471V17.0615C354.957 16.6162 354.821 16.2637 354.549 16.0039C354.277 15.7441 353.834 15.6143 353.222 15.6143C352.969 15.6143 352.712 15.6452 352.452 15.707C352.192 15.7627 351.942 15.8276 351.701 15.9019C351.466 15.9761 351.246 16.0627 351.042 16.1616C350.838 16.2544 350.659 16.3379 350.504 16.4121L349.502 14.4546C350.071 14.1392 350.702 13.8794 351.395 13.6753C352.093 13.4712 352.817 13.3691 353.565 13.3691C354.023 13.3691 354.484 13.4186 354.948 13.5176C355.418 13.6104 355.841 13.7835 356.219 14.0371C356.602 14.2907 356.915 14.637 357.156 15.0762C357.397 15.5091 357.518 16.0627 357.518 16.7368V20.8188C357.518 21.1095 357.592 21.326 357.74 21.4683C357.895 21.6043 358.105 21.7311 358.371 21.8486L357.211 23.6855C356.741 23.6361 356.364 23.5155 356.08 23.3237C355.795 23.1258 355.56 22.8722 355.375 22.563ZM362.936 20.5405C362.936 20.658 362.951 20.7694 362.982 20.8745C363.013 20.9797 363.065 21.0724 363.14 21.1528C363.22 21.2271 363.331 21.2858 363.474 21.3291C363.616 21.3724 363.798 21.394 364.021 21.394C364.114 21.394 364.219 21.391 364.336 21.3848C364.454 21.3724 364.571 21.36 364.689 21.3477C364.806 21.3353 364.915 21.3198 365.014 21.3013C365.119 21.2827 365.205 21.2673 365.273 21.2549L365.505 23.5186C365.264 23.5495 365.014 23.5773 364.754 23.6021C364.531 23.6268 364.284 23.6453 364.012 23.6577C363.74 23.6763 363.464 23.6855 363.186 23.6855C362.302 23.6855 361.612 23.4845 361.117 23.0825C360.622 22.6805 360.375 22.0404 360.375 21.1621V15.7905H358.584V13.564H360.375V10.7529L362.936 10.0664V13.564H365.542V15.7905H362.936V20.5405ZM369.3 19.418C369.343 19.7148 369.436 19.987 369.578 20.2344C369.727 20.4818 369.912 20.6951 370.135 20.8745C370.357 21.0477 370.614 21.1838 370.905 21.2827C371.195 21.3817 371.505 21.4312 371.833 21.4312C372.21 21.4312 372.618 21.36 373.057 21.2178C373.496 21.0693 373.898 20.856 374.263 20.5776L375.497 22.3774C375.033 22.7671 374.464 23.0825 373.79 23.3237C373.116 23.5649 372.398 23.6855 371.638 23.6855C370.951 23.6855 370.305 23.568 369.699 23.333C369.093 23.098 368.561 22.7578 368.103 22.3125C367.652 21.8672 367.293 21.326 367.027 20.689C366.767 20.0519 366.637 19.3345 366.637 18.5366C366.637 17.8068 366.752 17.1265 366.98 16.4956C367.215 15.8647 367.54 15.3174 367.955 14.8535C368.375 14.3896 368.876 14.0278 369.458 13.7681C370.039 13.5021 370.682 13.3691 371.387 13.3691C372.043 13.3691 372.652 13.4897 373.215 13.731C373.778 13.966 374.266 14.3 374.681 14.7329C375.095 15.1597 375.42 15.673 375.655 16.2729C375.89 16.8729 376.007 17.5347 376.007 18.2583V19.418H369.3ZM371.378 15.5957C370.827 15.5957 370.361 15.7812 369.977 16.1523C369.6 16.5173 369.38 16.9595 369.318 17.479H373.326C373.314 16.9533 373.122 16.508 372.751 16.1431C372.38 15.7782 371.922 15.5957 371.378 15.5957ZM384.023 23.5V22.6465C383.887 22.7949 383.735 22.9341 383.568 23.064C383.408 23.1877 383.225 23.2959 383.021 23.3887C382.823 23.4814 382.604 23.5526 382.362 23.6021C382.127 23.6577 381.864 23.6855 381.574 23.6855C380.918 23.6855 380.318 23.5557 379.774 23.2959C379.23 23.0361 378.763 22.6774 378.373 22.2197C377.983 21.762 377.68 21.2178 377.464 20.5869C377.254 19.9561 377.148 19.2726 377.148 18.5366C377.148 17.8006 377.254 17.1172 377.464 16.4863C377.674 15.8555 377.968 15.3112 378.345 14.8535C378.729 14.3896 379.189 14.0278 379.728 13.7681C380.266 13.5021 380.862 13.3691 381.518 13.3691C382.099 13.3691 382.591 13.4712 382.993 13.6753C383.401 13.8732 383.745 14.1206 384.023 14.4175V10.1963H386.583V23.5H384.023ZM384.097 17.6089C384.097 17.3429 384.048 17.0955 383.949 16.8667C383.856 16.6379 383.72 16.4399 383.541 16.2729C383.361 16.106 383.145 15.9761 382.891 15.8833C382.644 15.7905 382.362 15.7441 382.047 15.7441C381.682 15.7441 381.357 15.8122 381.073 15.9482C380.794 16.0843 380.559 16.276 380.368 16.5234C380.176 16.7646 380.031 17.0522 379.932 17.3862C379.833 17.7202 379.783 18.0851 379.783 18.481V18.6016C379.783 18.9974 379.833 19.3623 379.932 19.6963C380.031 20.0241 380.176 20.3086 380.368 20.5498C380.559 20.791 380.794 20.9797 381.073 21.1157C381.357 21.2456 381.682 21.3105 382.047 21.3105C382.362 21.3105 382.644 21.2642 382.891 21.1714C383.145 21.0786 383.361 20.9487 383.541 20.7817C383.72 20.6147 383.856 20.4199 383.949 20.1973C384.048 19.9684 384.097 19.721 384.097 19.4551V17.6089ZM398.607 23.5V22.6465C398.471 22.7949 398.319 22.9341 398.152 23.064C397.992 23.1877 397.809 23.2959 397.605 23.3887C397.407 23.4814 397.188 23.5526 396.946 23.6021C396.711 23.6577 396.448 23.6855 396.158 23.6855C395.502 23.6855 394.902 23.5557 394.358 23.2959C393.814 23.0361 393.347 22.6774 392.957 22.2197C392.567 21.762 392.264 21.2178 392.048 20.5869C391.838 19.9561 391.732 19.2726 391.732 18.5366C391.732 17.8006 391.838 17.1172 392.048 16.4863C392.258 15.8555 392.552 15.3112 392.929 14.8535C393.313 14.3896 393.773 14.0278 394.312 13.7681C394.85 13.5021 395.446 13.3691 396.102 13.3691C396.683 13.3691 397.175 13.4712 397.577 13.6753C397.985 13.8732 398.329 14.1206 398.607 14.4175V10.1963H401.167V23.5H398.607ZM398.681 17.6089C398.681 17.3429 398.632 17.0955 398.533 16.8667C398.44 16.6379 398.304 16.4399 398.125 16.2729C397.945 16.106 397.729 15.9761 397.475 15.8833C397.228 15.7905 396.946 15.7441 396.631 15.7441C396.266 15.7441 395.941 15.8122 395.657 15.9482C395.378 16.0843 395.143 16.276 394.952 16.5234C394.76 16.7646 394.615 17.0522 394.516 17.3862C394.417 17.7202 394.367 18.0851 394.367 18.481V18.6016C394.367 18.9974 394.417 19.3623 394.516 19.6963C394.615 20.0241 394.76 20.3086 394.952 20.5498C395.143 20.791 395.378 20.9797 395.657 21.1157C395.941 21.2456 396.266 21.3105 396.631 21.3105C396.946 21.3105 397.228 21.2642 397.475 21.1714C397.729 21.0786 397.945 20.9487 398.125 20.7817C398.304 20.6147 398.44 20.4199 398.533 20.1973C398.632 19.9684 398.681 19.721 398.681 19.4551V17.6089ZM405.519 19.418C405.562 19.7148 405.655 19.987 405.797 20.2344C405.945 20.4818 406.131 20.6951 406.354 20.8745C406.576 21.0477 406.833 21.1838 407.124 21.2827C407.414 21.3817 407.723 21.4312 408.051 21.4312C408.429 21.4312 408.837 21.36 409.276 21.2178C409.715 21.0693 410.117 20.856 410.482 20.5776L411.716 22.3774C411.252 22.7671 410.683 23.0825 410.009 23.3237C409.335 23.5649 408.617 23.6855 407.856 23.6855C407.17 23.6855 406.524 23.568 405.917 23.333C405.311 23.098 404.779 22.7578 404.322 22.3125C403.87 21.8672 403.512 21.326 403.246 20.689C402.986 20.0519 402.856 19.3345 402.856 18.5366C402.856 17.8068 402.97 17.1265 403.199 16.4956C403.434 15.8647 403.759 15.3174 404.173 14.8535C404.594 14.3896 405.095 14.0278 405.676 13.7681C406.258 13.5021 406.901 13.3691 407.606 13.3691C408.262 13.3691 408.871 13.4897 409.434 13.731C409.996 13.966 410.485 14.3 410.899 14.7329C411.314 15.1597 411.639 15.673 411.874 16.2729C412.109 16.8729 412.226 17.5347 412.226 18.2583V19.418H405.519ZM407.597 15.5957C407.046 15.5957 406.579 15.7812 406.196 16.1523C405.819 16.5173 405.599 16.9595 405.537 17.479H409.545C409.533 16.9533 409.341 16.508 408.97 16.1431C408.599 15.7782 408.141 15.5957 407.597 15.5957ZM417.523 20.5405C417.523 20.658 417.539 20.7694 417.57 20.8745C417.601 20.9797 417.653 21.0724 417.728 21.1528C417.808 21.2271 417.919 21.2858 418.062 21.3291C418.204 21.3724 418.386 21.394 418.609 21.394C418.702 21.394 418.807 21.391 418.924 21.3848C419.042 21.3724 419.159 21.36 419.277 21.3477C419.394 21.3353 419.503 21.3198 419.602 21.3013C419.707 21.2827 419.793 21.2673 419.861 21.2549L420.093 23.5186C419.852 23.5495 419.602 23.5773 419.342 23.6021C419.119 23.6268 418.872 23.6453 418.6 23.6577C418.327 23.6763 418.052 23.6855 417.774 23.6855C416.889 23.6855 416.2 23.4845 415.705 23.0825C415.21 22.6805 414.963 22.0404 414.963 21.1621V15.7905H413.172V13.564H414.963V10.7529L417.523 10.0664V13.564H420.13V15.7905H417.523V20.5405ZM424.955 19.4644C424.639 19.5138 424.386 19.6252 424.194 19.7983C424.002 19.9653 423.906 20.1942 423.906 20.4849C423.906 20.8065 424.024 21.0848 424.259 21.3198C424.494 21.5487 424.84 21.6631 425.298 21.6631C425.78 21.6631 426.161 21.5239 426.439 21.2456C426.717 20.9673 426.856 20.5993 426.856 20.1416V19.1396L424.955 19.4644ZM427.274 22.563C427.169 22.6805 427.039 22.8073 426.884 22.9434C426.736 23.0732 426.556 23.1938 426.346 23.3052C426.142 23.4103 425.901 23.5 425.623 23.5742C425.344 23.6484 425.032 23.6855 424.686 23.6855C424.191 23.6855 423.733 23.6082 423.312 23.4536C422.898 23.2928 422.533 23.0701 422.218 22.7856C421.902 22.5011 421.655 22.1733 421.476 21.8022C421.296 21.425 421.207 21.0168 421.207 20.5776C421.207 19.7798 421.454 19.1273 421.949 18.6201C422.444 18.113 423.127 17.7944 423.999 17.6646L426.856 17.2471V17.0615C426.856 16.6162 426.72 16.2637 426.448 16.0039C426.176 15.7441 425.734 15.6143 425.122 15.6143C424.868 15.6143 424.611 15.6452 424.352 15.707C424.092 15.7627 423.841 15.8276 423.6 15.9019C423.365 15.9761 423.146 16.0627 422.941 16.1616C422.737 16.2544 422.558 16.3379 422.403 16.4121L421.401 14.4546C421.97 14.1392 422.601 13.8794 423.294 13.6753C423.993 13.4712 424.716 13.3691 425.465 13.3691C425.923 13.3691 426.383 13.4186 426.847 13.5176C427.317 13.6104 427.741 13.7835 428.118 14.0371C428.502 14.2907 428.814 14.637 429.055 15.0762C429.296 15.5091 429.417 16.0627 429.417 16.7368V20.8188C429.417 21.1095 429.491 21.326 429.64 21.4683C429.794 21.6043 430.005 21.7311 430.271 21.8486L429.111 23.6855C428.641 23.6361 428.264 23.5155 427.979 23.3237C427.694 23.1258 427.459 22.8722 427.274 22.563ZM434.121 23.5H431.56V13.564H434.121V23.5ZM431.291 10.957C431.291 10.7467 431.331 10.5488 431.412 10.3633C431.492 10.1715 431.6 10.0076 431.736 9.87158C431.879 9.72933 432.042 9.618 432.228 9.5376C432.414 9.45719 432.615 9.41699 432.831 9.41699C433.041 9.41699 433.239 9.45719 433.425 9.5376C433.617 9.618 433.78 9.72933 433.917 9.87158C434.059 10.0076 434.17 10.1715 434.25 10.3633C434.331 10.5488 434.371 10.7467 434.371 10.957C434.371 11.1735 434.331 11.3745 434.25 11.5601C434.17 11.7456 434.059 11.9095 433.917 12.0518C433.78 12.1878 433.617 12.2961 433.425 12.3765C433.239 12.4569 433.041 12.4971 432.831 12.4971C432.615 12.4971 432.414 12.4569 432.228 12.3765C432.042 12.2961 431.879 12.1878 431.736 12.0518C431.6 11.9095 431.492 11.7456 431.412 11.5601C431.331 11.3745 431.291 11.1735 431.291 10.957ZM436.329 13.564H438.889V14.4175C439.025 14.2814 439.177 14.1515 439.344 14.0278C439.517 13.8979 439.706 13.7866 439.91 13.6938C440.114 13.5949 440.34 13.5176 440.587 13.4619C440.84 13.4001 441.119 13.3691 441.422 13.3691C441.96 13.3691 442.442 13.4588 442.869 13.6382C443.296 13.8114 443.655 14.0526 443.945 14.3618C444.242 14.6711 444.468 15.0329 444.623 15.4473C444.777 15.8617 444.854 16.3101 444.854 16.7925V23.5H442.294V17.7202C442.294 17.3677 442.254 17.0708 442.173 16.8296C442.093 16.5822 441.982 16.3843 441.839 16.2358C441.703 16.0812 441.539 15.9699 441.348 15.9019C441.162 15.8276 440.958 15.7905 440.735 15.7905C440.476 15.7905 440.231 15.8369 440.002 15.9297C439.78 16.0225 439.585 16.1647 439.418 16.3564C439.251 16.542 439.121 16.777 439.028 17.0615C438.936 17.346 438.889 17.68 438.889 18.0635V23.5H436.329V13.564ZM449.141 19.418C449.184 19.7148 449.277 19.987 449.419 20.2344C449.567 20.4818 449.753 20.6951 449.976 20.8745C450.198 21.0477 450.455 21.1838 450.746 21.2827C451.036 21.3817 451.346 21.4312 451.673 21.4312C452.051 21.4312 452.459 21.36 452.898 21.2178C453.337 21.0693 453.739 20.856 454.104 20.5776L455.338 22.3774C454.874 22.7671 454.305 23.0825 453.631 23.3237C452.957 23.5649 452.239 23.6855 451.479 23.6855C450.792 23.6855 450.146 23.568 449.54 23.333C448.933 23.098 448.402 22.7578 447.944 22.3125C447.492 21.8672 447.134 21.326 446.868 20.689C446.608 20.0519 446.478 19.3345 446.478 18.5366C446.478 17.8068 446.592 17.1265 446.821 16.4956C447.056 15.8647 447.381 15.3174 447.795 14.8535C448.216 14.3896 448.717 14.0278 449.298 13.7681C449.88 13.5021 450.523 13.3691 451.228 13.3691C451.884 13.3691 452.493 13.4897 453.056 13.731C453.618 13.966 454.107 14.3 454.521 14.7329C454.936 15.1597 455.261 15.673 455.496 16.2729C455.731 16.8729 455.848 17.5347 455.848 18.2583V19.418H449.141ZM451.219 15.5957C450.668 15.5957 450.201 15.7812 449.818 16.1523C449.441 16.5173 449.221 16.9595 449.159 17.479H453.167C453.155 16.9533 452.963 16.508 452.592 16.1431C452.221 15.7782 451.763 15.5957 451.219 15.5957ZM463.864 23.5V22.6465C463.728 22.7949 463.576 22.9341 463.409 23.064C463.248 23.1877 463.066 23.2959 462.862 23.3887C462.664 23.4814 462.444 23.5526 462.203 23.6021C461.968 23.6577 461.705 23.6855 461.415 23.6855C460.759 23.6855 460.159 23.5557 459.615 23.2959C459.07 23.0361 458.604 22.6774 458.214 22.2197C457.824 21.762 457.521 21.2178 457.305 20.5869C457.094 19.9561 456.989 19.2726 456.989 18.5366C456.989 17.8006 457.094 17.1172 457.305 16.4863C457.515 15.8555 457.809 15.3112 458.186 14.8535C458.569 14.3896 459.03 14.0278 459.568 13.7681C460.106 13.5021 460.703 13.3691 461.359 13.3691C461.94 13.3691 462.432 13.4712 462.834 13.6753C463.242 13.8732 463.585 14.1206 463.864 14.4175V10.1963H466.424V23.5H463.864ZM463.938 17.6089C463.938 17.3429 463.889 17.0955 463.79 16.8667C463.697 16.6379 463.561 16.4399 463.381 16.2729C463.202 16.106 462.986 15.9761 462.732 15.8833C462.485 15.7905 462.203 15.7441 461.888 15.7441C461.523 15.7441 461.198 15.8122 460.914 15.9482C460.635 16.0843 460.4 16.276 460.208 16.5234C460.017 16.7646 459.871 17.0522 459.772 17.3862C459.674 17.7202 459.624 18.0851 459.624 18.481V18.6016C459.624 18.9974 459.674 19.3623 459.772 19.6963C459.871 20.0241 460.017 20.3086 460.208 20.5498C460.4 20.791 460.635 20.9797 460.914 21.1157C461.198 21.2456 461.523 21.3105 461.888 21.3105C462.203 21.3105 462.485 21.2642 462.732 21.1714C462.986 21.0786 463.202 20.9487 463.381 20.7817C463.561 20.6147 463.697 20.4199 463.79 20.1973C463.889 19.9684 463.938 19.721 463.938 19.4551V17.6089ZM475.275 19.4644C474.959 19.5138 474.706 19.6252 474.514 19.7983C474.322 19.9653 474.227 20.1942 474.227 20.4849C474.227 20.8065 474.344 21.0848 474.579 21.3198C474.814 21.5487 475.16 21.6631 475.618 21.6631C476.101 21.6631 476.481 21.5239 476.759 21.2456C477.038 20.9673 477.177 20.5993 477.177 20.1416V19.1396L475.275 19.4644ZM477.594 22.563C477.489 22.6805 477.359 22.8073 477.205 22.9434C477.056 23.0732 476.877 23.1938 476.667 23.3052C476.462 23.4103 476.221 23.5 475.943 23.5742C475.665 23.6484 475.352 23.6855 475.006 23.6855C474.511 23.6855 474.053 23.6082 473.633 23.4536C473.218 23.2928 472.854 23.0701 472.538 22.7856C472.223 22.5011 471.975 22.1733 471.796 21.8022C471.617 21.425 471.527 21.0168 471.527 20.5776C471.527 19.7798 471.774 19.1273 472.269 18.6201C472.764 18.113 473.447 17.7944 474.319 17.6646L477.177 17.2471V17.0615C477.177 16.6162 477.041 16.2637 476.769 16.0039C476.496 15.7441 476.054 15.6143 475.442 15.6143C475.188 15.6143 474.932 15.6452 474.672 15.707C474.412 15.7627 474.162 15.8276 473.92 15.9019C473.685 15.9761 473.466 16.0627 473.262 16.1616C473.058 16.2544 472.878 16.3379 472.724 16.4121L471.722 14.4546C472.291 14.1392 472.922 13.8794 473.614 13.6753C474.313 13.4712 475.037 13.3691 475.785 13.3691C476.243 13.3691 476.704 13.4186 477.167 13.5176C477.638 13.6104 478.061 13.7835 478.438 14.0371C478.822 14.2907 479.134 14.637 479.375 15.0762C479.617 15.5091 479.737 16.0627 479.737 16.7368V20.8188C479.737 21.1095 479.812 21.326 479.96 21.4683C480.115 21.6043 480.325 21.7311 480.591 21.8486L479.431 23.6855C478.961 23.6361 478.584 23.5155 478.299 23.3237C478.015 23.1258 477.78 22.8722 477.594 22.563ZM484.441 26.6357H481.88V13.564H484.441V14.4175C484.719 14.1268 485.062 13.8794 485.471 13.6753C485.879 13.4712 486.374 13.3691 486.955 13.3691C487.611 13.3691 488.204 13.5021 488.736 13.7681C489.274 14.0278 489.735 14.3896 490.119 14.8535C490.502 15.3112 490.799 15.8555 491.009 16.4863C491.22 17.1172 491.325 17.8006 491.325 18.5366C491.325 19.2726 491.216 19.9561 491 20.5869C490.784 21.2178 490.48 21.762 490.091 22.2197C489.701 22.6774 489.234 23.0361 488.69 23.2959C488.146 23.5557 487.546 23.6855 486.89 23.6855C486.599 23.6855 486.333 23.6577 486.092 23.6021C485.857 23.5526 485.641 23.4814 485.443 23.3887C485.245 23.2959 485.062 23.1877 484.896 23.064C484.729 22.9341 484.577 22.7949 484.441 22.6465V26.6357ZM484.367 19.4551C484.367 19.721 484.413 19.9684 484.506 20.1973C484.605 20.4199 484.744 20.6147 484.923 20.7817C485.103 20.9487 485.316 21.0786 485.563 21.1714C485.817 21.2642 486.102 21.3105 486.417 21.3105C486.782 21.3105 487.104 21.2456 487.382 21.1157C487.666 20.9797 487.904 20.791 488.096 20.5498C488.288 20.3086 488.433 20.0241 488.532 19.6963C488.631 19.3623 488.681 18.9974 488.681 18.6016V18.481C488.681 18.0851 488.631 17.7202 488.532 17.3862C488.433 17.0522 488.288 16.7646 488.096 16.5234C487.904 16.276 487.666 16.0843 487.382 15.9482C487.104 15.8122 486.782 15.7441 486.417 15.7441C486.102 15.7441 485.817 15.7905 485.563 15.8833C485.316 15.9761 485.103 16.106 484.923 16.2729C484.744 16.4399 484.605 16.6379 484.506 16.8667C484.413 17.0955 484.367 17.3429 484.367 17.6089V19.4551ZM495.592 26.6357H493.032V13.564H495.592V14.4175C495.871 14.1268 496.214 13.8794 496.622 13.6753C497.03 13.4712 497.525 13.3691 498.106 13.3691C498.762 13.3691 499.356 13.5021 499.888 13.7681C500.426 14.0278 500.887 14.3896 501.27 14.8535C501.653 15.3112 501.95 15.8555 502.161 16.4863C502.371 17.1172 502.476 17.8006 502.476 18.5366C502.476 19.2726 502.368 19.9561 502.151 20.5869C501.935 21.2178 501.632 21.762 501.242 22.2197C500.853 22.6774 500.386 23.0361 499.841 23.2959C499.297 23.5557 498.697 23.6855 498.042 23.6855C497.751 23.6855 497.485 23.6577 497.244 23.6021C497.009 23.5526 496.792 23.4814 496.594 23.3887C496.396 23.2959 496.214 23.1877 496.047 23.064C495.88 22.9341 495.728 22.7949 495.592 22.6465V26.6357ZM495.518 19.4551C495.518 19.721 495.564 19.9684 495.657 20.1973C495.756 20.4199 495.895 20.6147 496.075 20.7817C496.254 20.9487 496.467 21.0786 496.715 21.1714C496.968 21.2642 497.253 21.3105 497.568 21.3105C497.933 21.3105 498.255 21.2456 498.533 21.1157C498.818 20.9797 499.056 20.791 499.248 20.5498C499.439 20.3086 499.585 20.0241 499.684 19.6963C499.783 19.3623 499.832 18.9974 499.832 18.6016V18.481C499.832 18.0851 499.783 17.7202 499.684 17.3862C499.585 17.0522 499.439 16.7646 499.248 16.5234C499.056 16.276 498.818 16.0843 498.533 15.9482C498.255 15.8122 497.933 15.7441 497.568 15.7441C497.253 15.7441 496.968 15.7905 496.715 15.8833C496.467 15.9761 496.254 16.106 496.075 16.2729C495.895 16.4399 495.756 16.6379 495.657 16.8667C495.564 17.0955 495.518 17.3429 495.518 17.6089V19.4551ZM506.326 19.418C506.369 19.7148 506.462 19.987 506.604 20.2344C506.753 20.4818 506.938 20.6951 507.161 20.8745C507.384 21.0477 507.64 21.1838 507.931 21.2827C508.222 21.3817 508.531 21.4312 508.859 21.4312C509.236 21.4312 509.644 21.36 510.083 21.2178C510.523 21.0693 510.925 20.856 511.29 20.5776L512.523 22.3774C512.06 22.7671 511.491 23.0825 510.816 23.3237C510.142 23.5649 509.425 23.6855 508.664 23.6855C507.978 23.6855 507.331 23.568 506.725 23.333C506.119 23.098 505.587 22.7578 505.129 22.3125C504.678 21.8672 504.319 21.326 504.053 20.689C503.793 20.0519 503.664 19.3345 503.664 18.5366C503.664 17.8068 503.778 17.1265 504.007 16.4956C504.242 15.8647 504.567 15.3174 504.981 14.8535C505.402 14.3896 505.903 14.0278 506.484 13.7681C507.065 13.5021 507.708 13.3691 508.414 13.3691C509.069 13.3691 509.678 13.4897 510.241 13.731C510.804 13.966 511.293 14.3 511.707 14.7329C512.121 15.1597 512.446 15.673 512.681 16.2729C512.916 16.8729 513.034 17.5347 513.034 18.2583V19.418H506.326ZM508.404 15.5957C507.854 15.5957 507.387 15.7812 507.003 16.1523C506.626 16.5173 506.407 16.9595 506.345 17.479H510.353C510.34 16.9533 510.148 16.508 509.777 16.1431C509.406 15.7782 508.949 15.5957 508.404 15.5957ZM517.876 19.4644C517.561 19.5138 517.307 19.6252 517.116 19.7983C516.924 19.9653 516.828 20.1942 516.828 20.4849C516.828 20.8065 516.946 21.0848 517.181 21.3198C517.416 21.5487 517.762 21.6631 518.22 21.6631C518.702 21.6631 519.083 21.5239 519.361 21.2456C519.639 20.9673 519.778 20.5993 519.778 20.1416V19.1396L517.876 19.4644ZM520.196 22.563C520.091 22.6805 519.961 22.8073 519.806 22.9434C519.658 23.0732 519.478 23.1938 519.268 23.3052C519.064 23.4103 518.823 23.5 518.544 23.5742C518.266 23.6484 517.954 23.6855 517.607 23.6855C517.113 23.6855 516.655 23.6082 516.234 23.4536C515.82 23.2928 515.455 23.0701 515.14 22.7856C514.824 22.5011 514.577 22.1733 514.397 21.8022C514.218 21.425 514.128 21.0168 514.128 20.5776C514.128 19.7798 514.376 19.1273 514.871 18.6201C515.365 18.113 516.049 17.7944 516.921 17.6646L519.778 17.2471V17.0615C519.778 16.6162 519.642 16.2637 519.37 16.0039C519.098 15.7441 518.656 15.6143 518.043 15.6143C517.79 15.6143 517.533 15.6452 517.273 15.707C517.014 15.7627 516.763 15.8276 516.522 15.9019C516.287 15.9761 516.067 16.0627 515.863 16.1616C515.659 16.2544 515.48 16.3379 515.325 16.4121L514.323 14.4546C514.892 14.1392 515.523 13.8794 516.216 13.6753C516.915 13.4712 517.638 13.3691 518.387 13.3691C518.844 13.3691 519.305 13.4186 519.769 13.5176C520.239 13.6104 520.663 13.7835 521.04 14.0371C521.424 14.2907 521.736 14.637 521.977 15.0762C522.218 15.5091 522.339 16.0627 522.339 16.7368V20.8188C522.339 21.1095 522.413 21.326 522.562 21.4683C522.716 21.6043 522.926 21.7311 523.192 21.8486L522.033 23.6855C521.563 23.6361 521.185 23.5155 520.901 23.3237C520.616 23.1258 520.381 22.8722 520.196 22.563ZM524.445 10.1963H527.005V20.8003C527.005 21.0106 527.064 21.1714 527.182 21.2827C527.305 21.394 527.5 21.4497 527.766 21.4497C527.89 21.4497 527.995 21.4435 528.082 21.4312C528.174 21.4126 528.292 21.3879 528.434 21.3569L528.638 23.5371C528.465 23.5618 528.279 23.5866 528.082 23.6113C527.915 23.6299 527.72 23.6453 527.497 23.6577C527.281 23.6763 527.055 23.6855 526.82 23.6855C526.455 23.6855 526.127 23.6392 525.836 23.5464C525.546 23.4536 525.295 23.3175 525.085 23.1382C524.881 22.9526 524.723 22.7238 524.612 22.4517C524.5 22.1795 524.445 21.8641 524.445 21.5054V10.1963Z" fill="white"/>
</svg>
