<svg width="556" height="27" viewBox="0 0 556 27" fill="none" xmlns="http://www.w3.org/2000/svg">
<rect width="256" height="27" fill="#1D70B8"/>
<path d="M15.7207 16.5322H10.7944L10.043 19H7.18555L11.5366 5.69629H15.0713L19.4873 19H16.4814L15.7207 16.5322ZM11.5181 14.1572H14.9971L13.2715 8.53516H13.2344L11.5181 14.1572ZM23.3188 22.1357H20.7583V9.06396H23.3188V9.91748C23.5972 9.62679 23.9404 9.37939 24.3486 9.17529C24.7568 8.97119 25.2516 8.86914 25.833 8.86914C26.4886 8.86914 27.0824 9.00212 27.6143 9.26807C28.1523 9.52783 28.6131 9.88965 28.9966 10.3535C29.38 10.8112 29.6769 11.3555 29.8872 11.9863C30.0975 12.6172 30.2026 13.3006 30.2026 14.0366C30.2026 14.7726 30.0944 15.4561 29.8779 16.0869C29.6615 16.7178 29.3584 17.262 28.9688 17.7197C28.5791 18.1774 28.1121 18.5361 27.5679 18.7959C27.0236 19.0557 26.4237 19.1855 25.7681 19.1855C25.4774 19.1855 25.2114 19.1577 24.9702 19.1021C24.7352 19.0526 24.5187 18.9814 24.3208 18.8887C24.1229 18.7959 23.9404 18.6877 23.7734 18.564C23.6064 18.4341 23.4549 18.2949 23.3188 18.1465V22.1357ZM23.2446 14.9551C23.2446 15.221 23.291 15.4684 23.3838 15.6973C23.4827 15.9199 23.6219 16.1147 23.8013 16.2817C23.9806 16.4487 24.194 16.5786 24.4414 16.6714C24.695 16.7642 24.9795 16.8105 25.2949 16.8105C25.6598 16.8105 25.9814 16.7456 26.2598 16.6157C26.5443 16.4797 26.7824 16.291 26.9741 16.0498C27.1659 15.8086 27.3112 15.5241 27.4102 15.1963C27.5091 14.8623 27.5586 14.4974 27.5586 14.1016V13.981C27.5586 13.5851 27.5091 13.2202 27.4102 12.8862C27.3112 12.5522 27.1659 12.2646 26.9741 12.0234C26.7824 11.776 26.5443 11.5843 26.2598 11.4482C25.9814 11.3122 25.6598 11.2441 25.2949 11.2441C24.9795 11.2441 24.695 11.2905 24.4414 11.3833C24.194 11.4761 23.9806 11.606 23.8013 11.7729C23.6219 11.9399 23.4827 12.1379 23.3838 12.3667C23.291 12.5955 23.2446 12.8429 23.2446 13.1089V14.9551ZM34.4702 22.1357H31.9097V9.06396H34.4702V9.91748C34.7485 9.62679 35.0918 9.37939 35.5 9.17529C35.9082 8.97119 36.403 8.86914 36.9844 8.86914C37.64 8.86914 38.2337 9.00212 38.7656 9.26807C39.3037 9.52783 39.7645 9.88965 40.1479 10.3535C40.5314 10.8112 40.8283 11.3555 41.0386 11.9863C41.2489 12.6172 41.354 13.3006 41.354 14.0366C41.354 14.7726 41.2458 15.4561 41.0293 16.0869C40.8128 16.7178 40.5098 17.262 40.1201 17.7197C39.7305 18.1774 39.2635 18.5361 38.7192 18.7959C38.175 19.0557 37.575 19.1855 36.9194 19.1855C36.6287 19.1855 36.3628 19.1577 36.1216 19.1021C35.8866 19.0526 35.6701 18.9814 35.4722 18.8887C35.2743 18.7959 35.0918 18.6877 34.9248 18.564C34.7578 18.4341 34.6063 18.2949 34.4702 18.1465V22.1357ZM34.396 14.9551C34.396 15.221 34.4424 15.4684 34.5352 15.6973C34.6341 15.9199 34.7733 16.1147 34.9526 16.2817C35.132 16.4487 35.3454 16.5786 35.5928 16.6714C35.8464 16.7642 36.1309 16.8105 36.4463 16.8105C36.8112 16.8105 37.1328 16.7456 37.4111 16.6157C37.6956 16.4797 37.9338 16.291 38.1255 16.0498C38.3172 15.8086 38.4626 15.5241 38.5615 15.1963C38.6605 14.8623 38.71 14.4974 38.71 14.1016V13.981C38.71 13.5851 38.6605 13.2202 38.5615 12.8862C38.4626 12.5522 38.3172 12.2646 38.1255 12.0234C37.9338 11.776 37.6956 11.5843 37.4111 11.4482C37.1328 11.3122 36.8112 11.2441 36.4463 11.2441C36.1309 11.2441 35.8464 11.2905 35.5928 11.3833C35.3454 11.4761 35.132 11.606 34.9526 11.7729C34.7733 11.9399 34.6341 12.1379 34.5352 12.3667C34.4424 12.5955 34.396 12.8429 34.396 13.1089V14.9551ZM45.2041 14.918C45.2474 15.2148 45.3402 15.487 45.4824 15.7344C45.6309 15.9818 45.8164 16.1951 46.0391 16.3745C46.2617 16.5477 46.5184 16.6838 46.8091 16.7827C47.0998 16.8817 47.409 16.9312 47.7368 16.9312C48.1141 16.9312 48.5223 16.86 48.9614 16.7178C49.4006 16.5693 49.8026 16.356 50.1675 16.0776L51.4014 17.8774C50.9375 18.2671 50.3685 18.5825 49.6943 18.8237C49.0202 19.0649 48.3027 19.1855 47.542 19.1855C46.8555 19.1855 46.2091 19.068 45.603 18.833C44.9969 18.598 44.465 18.2578 44.0073 17.8125C43.5558 17.3672 43.1971 16.826 42.9312 16.189C42.6714 15.5519 42.5415 14.8345 42.5415 14.0366C42.5415 13.3068 42.6559 12.6265 42.8848 11.9956C43.1198 11.3647 43.4445 10.8174 43.8589 10.3535C44.2795 9.88965 44.7804 9.52783 45.3618 9.26807C45.9432 9.00212 46.5864 8.86914 47.2915 8.86914C47.9471 8.86914 48.5563 8.98975 49.1191 9.23096C49.682 9.46598 50.1706 9.79997 50.585 10.2329C50.9993 10.6597 51.3241 11.173 51.5591 11.7729C51.7941 12.3729 51.9116 13.0347 51.9116 13.7583V14.918H45.2041ZM47.2822 11.0957C46.7318 11.0957 46.2648 11.2812 45.8813 11.6523C45.5041 12.0173 45.2845 12.4595 45.2227 12.979H49.2305C49.2181 12.4533 49.0264 12.008 48.6553 11.6431C48.2842 11.2782 47.8265 11.0957 47.2822 11.0957ZM53.5073 5.69629H56.0679V16.3003C56.0679 16.5106 56.1266 16.6714 56.2441 16.7827C56.3678 16.894 56.5627 16.9497 56.8286 16.9497C56.9523 16.9497 57.0575 16.9435 57.144 16.9312C57.2368 16.9126 57.3543 16.8879 57.4966 16.8569L57.7007 19.0371C57.5275 19.0618 57.342 19.0866 57.144 19.1113C56.9771 19.1299 56.7822 19.1453 56.5596 19.1577C56.3431 19.1763 56.1174 19.1855 55.8823 19.1855C55.5174 19.1855 55.1896 19.1392 54.8989 19.0464C54.6082 18.9536 54.3577 18.8175 54.1475 18.6382C53.9434 18.4526 53.7856 18.2238 53.6743 17.9517C53.563 17.6795 53.5073 17.3641 53.5073 17.0054V5.69629ZM59.0737 5.69629H61.6343V16.3003C61.6343 16.5106 61.693 16.6714 61.8105 16.7827C61.9342 16.894 62.1291 16.9497 62.395 16.9497C62.5187 16.9497 62.6239 16.9435 62.7104 16.9312C62.8032 16.9126 62.9207 16.8879 63.063 16.8569L63.2671 19.0371C63.0939 19.0618 62.9084 19.0866 62.7104 19.1113C62.5435 19.1299 62.3486 19.1453 62.126 19.1577C61.9095 19.1763 61.6838 19.1855 61.4487 19.1855C61.0838 19.1855 60.756 19.1392 60.4653 19.0464C60.1746 18.9536 59.9242 18.8175 59.7139 18.6382C59.5098 18.4526 59.3521 18.2238 59.2407 17.9517C59.1294 17.6795 59.0737 17.3641 59.0737 17.0054V5.69629ZM67.8872 14.9644C67.5718 15.0138 67.3182 15.1252 67.1265 15.2983C66.9347 15.4653 66.8389 15.6942 66.8389 15.9849C66.8389 16.3065 66.9564 16.5848 67.1914 16.8198C67.4264 17.0487 67.7728 17.1631 68.2305 17.1631C68.7129 17.1631 69.0933 17.0239 69.3716 16.7456C69.6499 16.4673 69.7891 16.0993 69.7891 15.6416V14.6396L67.8872 14.9644ZM70.2065 18.063C70.1014 18.1805 69.9715 18.3073 69.8169 18.4434C69.6685 18.5732 69.4891 18.6938 69.2788 18.8052C69.0747 18.9103 68.8335 19 68.5552 19.0742C68.2769 19.1484 67.9645 19.1855 67.6182 19.1855C67.1234 19.1855 66.6657 19.1082 66.2451 18.9536C65.8307 18.7928 65.4658 18.5701 65.1504 18.2856C64.835 18.0011 64.5876 17.6733 64.4082 17.3022C64.2288 16.925 64.1392 16.5168 64.1392 16.0776C64.1392 15.2798 64.3866 14.6273 64.8813 14.1201C65.3761 13.613 66.0596 13.2944 66.9316 13.1646L69.7891 12.7471V12.5615C69.7891 12.1162 69.653 11.7637 69.3809 11.5039C69.1087 11.2441 68.6665 11.1143 68.0542 11.1143C67.8006 11.1143 67.5439 11.1452 67.2842 11.207C67.0244 11.2627 66.7739 11.3276 66.5327 11.4019C66.2977 11.4761 66.0781 11.5627 65.874 11.6616C65.6699 11.7544 65.4906 11.8379 65.3359 11.9121L64.334 9.95459C64.903 9.63916 65.5339 9.37939 66.2266 9.17529C66.9255 8.97119 67.6491 8.86914 68.3975 8.86914C68.8551 8.86914 69.3159 8.91862 69.7798 9.01758C70.2498 9.11035 70.6735 9.28353 71.0508 9.53711C71.4342 9.79069 71.7466 10.137 71.9878 10.5762C72.229 11.0091 72.3496 11.5627 72.3496 12.2368V16.3188C72.3496 16.6095 72.4238 16.826 72.5723 16.9683C72.7269 17.1043 72.9372 17.2311 73.2031 17.3486L72.0435 19.1855C71.5734 19.1361 71.1961 19.0155 70.9116 18.8237C70.6271 18.6258 70.3921 18.3722 70.2065 18.063ZM74.4927 9.06396H77.0532V9.91748C77.1893 9.78141 77.3408 9.65153 77.5078 9.52783C77.681 9.39795 77.8696 9.28662 78.0737 9.19385C78.2778 9.09489 78.5036 9.01758 78.751 8.96191C79.0046 8.90007 79.2829 8.86914 79.5859 8.86914C80.124 8.86914 80.6064 8.95882 81.0332 9.13818C81.46 9.31136 81.8187 9.55257 82.1094 9.86182C82.4062 10.1711 82.632 10.5329 82.7866 10.9473C82.9412 11.3617 83.0186 11.8101 83.0186 12.2925V19H80.458V13.2202C80.458 12.8677 80.4178 12.5708 80.3374 12.3296C80.257 12.0822 80.1457 11.8843 80.0034 11.7358C79.8674 11.5812 79.7035 11.4699 79.5117 11.4019C79.3262 11.3276 79.1221 11.2905 78.8994 11.2905C78.6396 11.2905 78.3953 11.3369 78.1665 11.4297C77.9438 11.5225 77.749 11.6647 77.582 11.8564C77.415 12.042 77.2852 12.277 77.1924 12.5615C77.0996 12.846 77.0532 13.18 77.0532 13.5635V19H74.4927V9.06396ZM88.8262 16.0405C88.8262 16.158 88.8416 16.2694 88.8726 16.3745C88.9035 16.4797 88.9561 16.5724 89.0303 16.6528C89.1107 16.7271 89.222 16.7858 89.3643 16.8291C89.5065 16.8724 89.689 16.894 89.9116 16.894C90.0044 16.894 90.1095 16.891 90.2271 16.8848C90.3446 16.8724 90.4621 16.86 90.5796 16.8477C90.6971 16.8353 90.8053 16.8198 90.9043 16.8013C91.0094 16.7827 91.096 16.7673 91.1641 16.7549L91.396 19.0186C91.1548 19.0495 90.9043 19.0773 90.6445 19.1021C90.4219 19.1268 90.1745 19.1453 89.9023 19.1577C89.6302 19.1763 89.355 19.1855 89.0767 19.1855C88.1922 19.1855 87.5026 18.9845 87.0078 18.5825C86.513 18.1805 86.2656 17.5404 86.2656 16.6621V11.2905H84.4751V9.06396H86.2656V6.25293L88.8262 5.56641V9.06396H91.4331V11.2905H88.8262V16.0405ZM99.0405 19H96.48V9.06396H99.0405V19ZM96.2109 6.45703C96.2109 6.24674 96.2511 6.04883 96.3315 5.86328C96.4119 5.67155 96.5202 5.50765 96.6562 5.37158C96.7985 5.22933 96.9624 5.118 97.1479 5.0376C97.3335 4.95719 97.5345 4.91699 97.751 4.91699C97.9613 4.91699 98.1592 4.95719 98.3447 5.0376C98.5365 5.118 98.7004 5.22933 98.8364 5.37158C98.9787 5.50765 99.09 5.67155 99.1704 5.86328C99.2508 6.04883 99.291 6.24674 99.291 6.45703C99.291 6.6735 99.2508 6.87451 99.1704 7.06006C99.09 7.24561 98.9787 7.40951 98.8364 7.55176C98.7004 7.68783 98.5365 7.79606 98.3447 7.87646C98.1592 7.95687 97.9613 7.99707 97.751 7.99707C97.5345 7.99707 97.3335 7.95687 97.1479 7.87646C96.9624 7.79606 96.7985 7.68783 96.6562 7.55176C96.5202 7.40951 96.4119 7.24561 96.3315 7.06006C96.2511 6.87451 96.2109 6.6735 96.2109 6.45703ZM101.249 9.06396H103.809V9.91748C103.945 9.78141 104.097 9.65153 104.264 9.52783C104.437 9.39795 104.625 9.28662 104.83 9.19385C105.034 9.09489 105.259 9.01758 105.507 8.96191C105.76 8.90007 106.039 8.86914 106.342 8.86914C106.88 8.86914 107.362 8.95882 107.789 9.13818C108.216 9.31136 108.575 9.55257 108.865 9.86182C109.162 10.1711 109.388 10.5329 109.542 10.9473C109.697 11.3617 109.774 11.8101 109.774 12.2925V19H107.214V13.2202C107.214 12.8677 107.174 12.5708 107.093 12.3296C107.013 12.0822 106.902 11.8843 106.759 11.7358C106.623 11.5812 106.459 11.4699 106.268 11.4019C106.082 11.3276 105.878 11.2905 105.655 11.2905C105.396 11.2905 105.151 11.3369 104.922 11.4297C104.7 11.5225 104.505 11.6647 104.338 11.8564C104.171 12.042 104.041 12.277 103.948 12.5615C103.855 12.846 103.809 13.18 103.809 13.5635V19H101.249V9.06396ZM117.911 22.1357H115.35V9.06396H117.911V9.91748C118.189 9.62679 118.532 9.37939 118.94 9.17529C119.349 8.97119 119.843 8.86914 120.425 8.86914C121.08 8.86914 121.674 9.00212 122.206 9.26807C122.744 9.52783 123.205 9.88965 123.588 10.3535C123.972 10.8112 124.269 11.3555 124.479 11.9863C124.689 12.6172 124.794 13.3006 124.794 14.0366C124.794 14.7726 124.686 15.4561 124.47 16.0869C124.253 16.7178 123.95 17.262 123.561 17.7197C123.171 18.1774 122.704 18.5361 122.16 18.7959C121.615 19.0557 121.015 19.1855 120.36 19.1855C120.069 19.1855 119.803 19.1577 119.562 19.1021C119.327 19.0526 119.111 18.9814 118.913 18.8887C118.715 18.7959 118.532 18.6877 118.365 18.564C118.198 18.4341 118.047 18.2949 117.911 18.1465V22.1357ZM117.836 14.9551C117.836 15.221 117.883 15.4684 117.976 15.6973C118.075 15.9199 118.214 16.1147 118.393 16.2817C118.572 16.4487 118.786 16.5786 119.033 16.6714C119.287 16.7642 119.571 16.8105 119.887 16.8105C120.252 16.8105 120.573 16.7456 120.852 16.6157C121.136 16.4797 121.374 16.291 121.566 16.0498C121.758 15.8086 121.903 15.5241 122.002 15.1963C122.101 14.8623 122.15 14.4974 122.15 14.1016V13.981C122.15 13.5851 122.101 13.2202 122.002 12.8862C121.903 12.5522 121.758 12.2646 121.566 12.0234C121.374 11.776 121.136 11.5843 120.852 11.4482C120.573 11.3122 120.252 11.2441 119.887 11.2441C119.571 11.2441 119.287 11.2905 119.033 11.3833C118.786 11.4761 118.572 11.606 118.393 11.7729C118.214 11.9399 118.075 12.1379 117.976 12.3667C117.883 12.5955 117.836 12.8429 117.836 13.1089V14.9551ZM128.645 14.918C128.688 15.2148 128.781 15.487 128.923 15.7344C129.071 15.9818 129.257 16.1951 129.479 16.3745C129.702 16.5477 129.959 16.6838 130.25 16.7827C130.54 16.8817 130.849 16.9312 131.177 16.9312C131.555 16.9312 131.963 16.86 132.402 16.7178C132.841 16.5693 133.243 16.356 133.608 16.0776L134.842 17.8774C134.378 18.2671 133.809 18.5825 133.135 18.8237C132.461 19.0649 131.743 19.1855 130.982 19.1855C130.296 19.1855 129.65 19.068 129.043 18.833C128.437 18.598 127.905 18.2578 127.448 17.8125C126.996 17.3672 126.638 16.826 126.372 16.189C126.112 15.5519 125.982 14.8345 125.982 14.0366C125.982 13.3068 126.096 12.6265 126.325 11.9956C126.56 11.3647 126.885 10.8174 127.299 10.3535C127.72 9.88965 128.221 9.52783 128.802 9.26807C129.384 9.00212 130.027 8.86914 130.732 8.86914C131.388 8.86914 131.997 8.98975 132.56 9.23096C133.122 9.46598 133.611 9.79997 134.025 10.2329C134.44 10.6597 134.764 11.173 135 11.7729C135.235 12.3729 135.352 13.0347 135.352 13.7583V14.918H128.645ZM130.723 11.0957C130.172 11.0957 129.705 11.2812 129.322 11.6523C128.944 12.0173 128.725 12.4595 128.663 12.979H132.671C132.659 12.4533 132.467 12.008 132.096 11.6431C131.725 11.2782 131.267 11.0957 130.723 11.0957ZM142.57 11.5503H142.301C141.936 11.5503 141.586 11.5874 141.252 11.6616C140.925 11.7358 140.634 11.8719 140.38 12.0698C140.127 12.2616 139.923 12.5275 139.768 12.8677C139.62 13.2078 139.545 13.6439 139.545 14.1758V19H136.985V9.06396H139.545V10.1865C139.651 10.0195 139.787 9.85872 139.954 9.7041C140.121 9.54948 140.315 9.41341 140.538 9.2959C140.761 9.1722 141.011 9.07324 141.29 8.99902C141.568 8.9248 141.868 8.8877 142.189 8.8877H142.57V11.5503ZM144.871 15.8271C145.236 16.1549 145.672 16.4364 146.179 16.6714C146.686 16.9064 147.199 17.0239 147.719 17.0239C148.096 17.0239 148.393 16.9528 148.609 16.8105C148.826 16.6621 148.934 16.4735 148.934 16.2446C148.934 15.855 148.517 15.5519 147.682 15.3354L146.958 15.1406C146.599 15.054 146.237 14.9365 145.873 14.7881C145.508 14.6335 145.171 14.4325 144.861 14.1851C144.558 13.9377 144.311 13.6377 144.119 13.2852C143.934 12.9264 143.841 12.4873 143.841 11.9678C143.841 11.5534 143.931 11.1606 144.11 10.7896C144.295 10.4123 144.555 10.0814 144.889 9.79688C145.229 9.51237 145.641 9.28662 146.123 9.11963C146.605 8.95264 147.144 8.86914 147.737 8.86914C148.585 8.86914 149.339 9.00212 150.001 9.26807C150.669 9.53402 151.195 9.83398 151.578 10.168L150.242 11.875C149.927 11.6462 149.553 11.4513 149.12 11.2905C148.693 11.1235 148.263 11.04 147.83 11.04C147.428 11.04 147.116 11.1143 146.893 11.2627C146.67 11.4049 146.559 11.5781 146.559 11.7822C146.559 11.9987 146.655 12.175 146.847 12.311C147.045 12.4409 147.329 12.5553 147.7 12.6543L148.776 12.9604C149.803 13.2511 150.539 13.6439 150.984 14.1387C151.43 14.6335 151.652 15.2581 151.652 16.0127C151.652 16.4333 151.566 16.8353 151.393 17.2188C151.219 17.596 150.966 17.9331 150.632 18.23C150.298 18.5269 149.883 18.7619 149.389 18.9351C148.894 19.1021 148.331 19.1855 147.7 19.1855C147.218 19.1855 146.763 19.1423 146.336 19.0557C145.916 18.9691 145.523 18.8516 145.158 18.7031C144.799 18.5485 144.475 18.3753 144.184 18.1836C143.893 17.9919 143.646 17.8001 143.442 17.6084L144.871 15.8271ZM157.683 8.86914C158.419 8.86914 159.087 9.00212 159.687 9.26807C160.286 9.52783 160.8 9.88965 161.227 10.3535C161.653 10.8174 161.981 11.3647 162.21 11.9956C162.445 12.6265 162.562 13.3068 162.562 14.0366C162.562 14.7726 162.445 15.4561 162.21 16.0869C161.975 16.7116 161.644 17.2528 161.217 17.7104C160.791 18.1681 160.277 18.5299 159.677 18.7959C159.077 19.0557 158.412 19.1855 157.683 19.1855C156.947 19.1855 156.279 19.0557 155.679 18.7959C155.079 18.5299 154.565 18.1681 154.139 17.7104C153.712 17.2528 153.381 16.7116 153.146 16.0869C152.911 15.4561 152.793 14.7726 152.793 14.0366C152.793 13.3068 152.908 12.6265 153.137 11.9956C153.372 11.3647 153.703 10.8174 154.129 10.3535C154.556 9.88965 155.069 9.52783 155.669 9.26807C156.276 9.00212 156.947 8.86914 157.683 8.86914ZM157.683 16.8105C158.048 16.8105 158.369 16.7425 158.647 16.6064C158.932 16.4704 159.17 16.2817 159.362 16.0405C159.554 15.7993 159.699 15.5117 159.798 15.1777C159.897 14.8376 159.946 14.4665 159.946 14.0645V13.9995C159.946 13.5975 159.897 13.2295 159.798 12.8955C159.699 12.5553 159.554 12.2646 159.362 12.0234C159.17 11.776 158.932 11.5843 158.647 11.4482C158.369 11.3122 158.048 11.2441 157.683 11.2441C157.318 11.2441 156.993 11.3122 156.708 11.4482C156.43 11.5843 156.195 11.776 156.003 12.0234C155.812 12.2646 155.666 12.5553 155.567 12.8955C155.468 13.2295 155.419 13.5975 155.419 13.9995V14.0645C155.419 14.4665 155.468 14.8376 155.567 15.1777C155.666 15.5117 155.812 15.7993 156.003 16.0405C156.195 16.2817 156.43 16.4704 156.708 16.6064C156.993 16.7425 157.318 16.8105 157.683 16.8105ZM164.26 9.06396H166.821V9.91748C166.957 9.78141 167.108 9.65153 167.275 9.52783C167.449 9.39795 167.637 9.28662 167.841 9.19385C168.045 9.09489 168.271 9.01758 168.519 8.96191C168.772 8.90007 169.05 8.86914 169.354 8.86914C169.892 8.86914 170.374 8.95882 170.801 9.13818C171.228 9.31136 171.586 9.55257 171.877 9.86182C172.174 10.1711 172.4 10.5329 172.554 10.9473C172.709 11.3617 172.786 11.8101 172.786 12.2925V19H170.226V13.2202C170.226 12.8677 170.185 12.5708 170.105 12.3296C170.025 12.0822 169.913 11.8843 169.771 11.7358C169.635 11.5812 169.471 11.4699 169.279 11.4019C169.094 11.3276 168.89 11.2905 168.667 11.2905C168.407 11.2905 168.163 11.3369 167.934 11.4297C167.711 11.5225 167.517 11.6647 167.35 11.8564C167.183 12.042 167.053 12.277 166.96 12.5615C166.867 12.846 166.821 13.18 166.821 13.5635V19H164.26V9.06396ZM177.638 11.9121H181.627V14.2129H177.638V11.9121ZM194.922 19H192.352V13.2202C192.352 12.8677 192.312 12.5708 192.231 12.3296C192.157 12.0822 192.052 11.8843 191.916 11.7358C191.78 11.5812 191.622 11.473 191.443 11.4111C191.264 11.3431 191.069 11.3091 190.858 11.3091C190.611 11.3091 190.379 11.3524 190.163 11.439C189.952 11.5256 189.767 11.6616 189.606 11.8472C189.451 12.0327 189.328 12.2708 189.235 12.5615C189.148 12.846 189.105 13.1862 189.105 13.582V19H186.544V9.06396H189.105V9.93604C189.433 9.57113 189.813 9.30208 190.246 9.12891C190.685 8.95573 191.155 8.86914 191.656 8.86914C192.17 8.86914 192.649 8.97428 193.094 9.18457C193.546 9.39486 193.92 9.74121 194.217 10.2236C194.39 9.97624 194.588 9.76595 194.811 9.59277C195.039 9.4196 195.284 9.28044 195.543 9.17529C195.803 9.07015 196.072 8.99284 196.351 8.94336C196.635 8.89388 196.926 8.86914 197.223 8.86914C197.779 8.86914 198.274 8.96191 198.707 9.14746C199.146 9.32682 199.517 9.57113 199.82 9.88037C200.123 10.1896 200.355 10.5452 200.516 10.9473C200.677 11.3493 200.757 11.7729 200.757 12.2183V19H198.169V13.2202C198.169 12.8677 198.129 12.5708 198.048 12.3296C197.974 12.0822 197.869 11.8843 197.733 11.7358C197.597 11.5812 197.436 11.473 197.25 11.4111C197.071 11.3431 196.876 11.3091 196.666 11.3091C196.419 11.3091 196.19 11.3524 195.979 11.439C195.769 11.5256 195.584 11.6616 195.423 11.8472C195.268 12.0327 195.145 12.2708 195.052 12.5615C194.965 12.846 194.922 13.1862 194.922 13.582V19ZM206.101 14.9644C205.786 15.0138 205.532 15.1252 205.34 15.2983C205.149 15.4653 205.053 15.6942 205.053 15.9849C205.053 16.3065 205.17 16.5848 205.405 16.8198C205.64 17.0487 205.987 17.1631 206.444 17.1631C206.927 17.1631 207.307 17.0239 207.585 16.7456C207.864 16.4673 208.003 16.0993 208.003 15.6416V14.6396L206.101 14.9644ZM208.42 18.063C208.315 18.1805 208.185 18.3073 208.031 18.4434C207.882 18.5732 207.703 18.6938 207.493 18.8052C207.289 18.9103 207.047 19 206.769 19.0742C206.491 19.1484 206.178 19.1855 205.832 19.1855C205.337 19.1855 204.88 19.1082 204.459 18.9536C204.045 18.7928 203.68 18.5701 203.364 18.2856C203.049 18.0011 202.801 17.6733 202.622 17.3022C202.443 16.925 202.353 16.5168 202.353 16.0776C202.353 15.2798 202.6 14.6273 203.095 14.1201C203.59 13.613 204.273 13.2944 205.146 13.1646L208.003 12.7471V12.5615C208.003 12.1162 207.867 11.7637 207.595 11.5039C207.323 11.2441 206.88 11.1143 206.268 11.1143C206.014 11.1143 205.758 11.1452 205.498 11.207C205.238 11.2627 204.988 11.3276 204.747 11.4019C204.512 11.4761 204.292 11.5627 204.088 11.6616C203.884 11.7544 203.704 11.8379 203.55 11.9121L202.548 9.95459C203.117 9.63916 203.748 9.37939 204.44 9.17529C205.139 8.97119 205.863 8.86914 206.611 8.86914C207.069 8.86914 207.53 8.91862 207.994 9.01758C208.464 9.11035 208.887 9.28353 209.265 9.53711C209.648 9.79069 209.96 10.137 210.202 10.5762C210.443 11.0091 210.563 11.5627 210.563 12.2368V16.3188C210.563 16.6095 210.638 16.826 210.786 16.9683C210.941 17.1043 211.151 17.2311 211.417 17.3486L210.257 19.1855C209.787 19.1361 209.41 19.0155 209.125 18.8237C208.841 18.6258 208.606 18.3722 208.42 18.063ZM212.707 9.06396H215.267V9.91748C215.403 9.78141 215.555 9.65153 215.722 9.52783C215.895 9.39795 216.083 9.28662 216.288 9.19385C216.492 9.09489 216.717 9.01758 216.965 8.96191C217.218 8.90007 217.497 8.86914 217.8 8.86914C218.338 8.86914 218.82 8.95882 219.247 9.13818C219.674 9.31136 220.033 9.55257 220.323 9.86182C220.62 10.1711 220.846 10.5329 221 10.9473C221.155 11.3617 221.232 11.8101 221.232 12.2925V19H218.672V13.2202C218.672 12.8677 218.632 12.5708 218.551 12.3296C218.471 12.0822 218.36 11.8843 218.217 11.7358C218.081 11.5812 217.917 11.4699 217.726 11.4019C217.54 11.3276 217.336 11.2905 217.113 11.2905C216.854 11.2905 216.609 11.3369 216.38 11.4297C216.158 11.5225 215.963 11.6647 215.796 11.8564C215.629 12.042 215.499 12.277 215.406 12.5615C215.313 12.846 215.267 13.18 215.267 13.5635V19H212.707V9.06396ZM231.827 19H229.267V18.1465C229.124 18.2826 228.97 18.4155 228.803 18.5454C228.636 18.6691 228.45 18.7804 228.246 18.8794C228.042 18.9722 227.813 19.0464 227.56 19.1021C227.312 19.1577 227.037 19.1855 226.734 19.1855C226.196 19.1855 225.713 19.099 225.287 18.9258C224.86 18.7464 224.498 18.5052 224.201 18.2021C223.91 17.8929 223.688 17.5311 223.533 17.1167C223.379 16.7023 223.301 16.2539 223.301 15.7715V9.06396H225.862V14.8345C225.862 15.187 225.899 15.487 225.973 15.7344C226.054 15.9818 226.162 16.1828 226.298 16.3374C226.44 16.4858 226.607 16.5972 226.799 16.6714C226.991 16.7394 227.198 16.7734 227.42 16.7734C227.68 16.7734 227.921 16.7271 228.144 16.6343C228.373 16.5415 228.571 16.4023 228.738 16.2168C228.905 16.0251 229.035 15.7869 229.127 15.5024C229.22 15.2179 229.267 14.884 229.267 14.5005V9.06396H231.827V19ZM237.254 14.9644C236.939 15.0138 236.685 15.1252 236.494 15.2983C236.302 15.4653 236.206 15.6942 236.206 15.9849C236.206 16.3065 236.324 16.5848 236.559 16.8198C236.794 17.0487 237.14 17.1631 237.598 17.1631C238.08 17.1631 238.46 17.0239 238.739 16.7456C239.017 16.4673 239.156 16.0993 239.156 15.6416V14.6396L237.254 14.9644ZM239.574 18.063C239.469 18.1805 239.339 18.3073 239.184 18.4434C239.036 18.5732 238.856 18.6938 238.646 18.8052C238.442 18.9103 238.201 19 237.922 19.0742C237.644 19.1484 237.332 19.1855 236.985 19.1855C236.491 19.1855 236.033 19.1082 235.612 18.9536C235.198 18.7928 234.833 18.5701 234.518 18.2856C234.202 18.0011 233.955 17.6733 233.775 17.3022C233.596 16.925 233.506 16.5168 233.506 16.0776C233.506 15.2798 233.754 14.6273 234.249 14.1201C234.743 13.613 235.427 13.2944 236.299 13.1646L239.156 12.7471V12.5615C239.156 12.1162 239.02 11.7637 238.748 11.5039C238.476 11.2441 238.034 11.1143 237.421 11.1143C237.168 11.1143 236.911 11.1452 236.651 11.207C236.392 11.2627 236.141 11.3276 235.9 11.4019C235.665 11.4761 235.445 11.5627 235.241 11.6616C235.037 11.7544 234.858 11.8379 234.703 11.9121L233.701 9.95459C234.27 9.63916 234.901 9.37939 235.594 9.17529C236.293 8.97119 237.016 8.86914 237.765 8.86914C238.222 8.86914 238.683 8.91862 239.147 9.01758C239.617 9.11035 240.041 9.28353 240.418 9.53711C240.801 9.79069 241.114 10.137 241.355 10.5762C241.596 11.0091 241.717 11.5627 241.717 12.2368V16.3188C241.717 16.6095 241.791 16.826 241.939 16.9683C242.094 17.1043 242.304 17.2311 242.57 17.3486L241.411 19.1855C240.941 19.1361 240.563 19.0155 240.279 18.8237C239.994 18.6258 239.759 18.3722 239.574 18.063ZM243.823 5.69629H246.383V16.3003C246.383 16.5106 246.442 16.6714 246.56 16.7827C246.683 16.894 246.878 16.9497 247.144 16.9497C247.268 16.9497 247.373 16.9435 247.459 16.9312C247.552 16.9126 247.67 16.8879 247.812 16.8569L248.016 19.0371C247.843 19.0618 247.657 19.0866 247.459 19.1113C247.292 19.1299 247.098 19.1453 246.875 19.1577C246.659 19.1763 246.433 19.1855 246.198 19.1855C245.833 19.1855 245.505 19.1392 245.214 19.0464C244.924 18.9536 244.673 18.8175 244.463 18.6382C244.259 18.4526 244.101 18.2238 243.99 17.9517C243.878 17.6795 243.823 17.3641 243.823 17.0054V5.69629Z" fill="white"/>
<rect width="155" height="27" transform="translate(266)" fill="#4C2C92"/>
<path d="M285.729 12.3481C285.729 13.3439 285.592 14.2531 285.32 15.0757C285.054 15.8921 284.652 16.591 284.114 17.1724C283.582 17.7537 282.914 18.2052 282.11 18.5269C281.306 18.8423 280.366 19 279.29 19H274.392V5.69629H279.29C280.366 5.69629 281.306 5.8571 282.11 6.17871C282.914 6.49414 283.582 6.94255 284.114 7.52393C284.652 8.10531 285.054 8.80729 285.32 9.62988C285.592 10.4463 285.729 11.3524 285.729 12.3481ZM282.936 12.0884C282.936 11.5256 282.865 11.0029 282.723 10.5205C282.587 10.0319 282.364 9.60824 282.055 9.24951C281.752 8.89079 281.356 8.60938 280.867 8.40527C280.379 8.19499 279.788 8.08984 279.095 8.08984H277.082V16.6064H279.095C279.782 16.6064 280.369 16.5044 280.858 16.3003C281.347 16.09 281.742 15.8055 282.045 15.4468C282.355 15.0819 282.58 14.6551 282.723 14.1665C282.865 13.6779 282.936 13.1553 282.936 12.5986V12.0884ZM289.755 14.918C289.798 15.2148 289.891 15.487 290.033 15.7344C290.182 15.9818 290.367 16.1951 290.59 16.3745C290.812 16.5477 291.069 16.6838 291.36 16.7827C291.651 16.8817 291.96 16.9312 292.288 16.9312C292.665 16.9312 293.073 16.86 293.512 16.7178C293.951 16.5693 294.353 16.356 294.718 16.0776L295.952 17.8774C295.488 18.2671 294.919 18.5825 294.245 18.8237C293.571 19.0649 292.854 19.1855 292.093 19.1855C291.406 19.1855 290.76 19.068 290.154 18.833C289.548 18.598 289.016 18.2578 288.558 17.8125C288.107 17.3672 287.748 16.826 287.482 16.189C287.222 15.5519 287.092 14.8345 287.092 14.0366C287.092 13.3068 287.207 12.6265 287.436 11.9956C287.671 11.3647 287.995 10.8174 288.41 10.3535C288.83 9.88965 289.331 9.52783 289.913 9.26807C290.494 9.00212 291.137 8.86914 291.842 8.86914C292.498 8.86914 293.107 8.98975 293.67 9.23096C294.233 9.46598 294.721 9.79997 295.136 10.2329C295.55 10.6597 295.875 11.173 296.11 11.7729C296.345 12.3729 296.462 13.0347 296.462 13.7583V14.918H289.755ZM291.833 11.0957C291.283 11.0957 290.816 11.2812 290.432 11.6523C290.055 12.0173 289.835 12.4595 289.773 12.979H293.781C293.769 12.4533 293.577 12.008 293.206 11.6431C292.835 11.2782 292.377 11.0957 291.833 11.0957ZM301.76 16.0405C301.76 16.158 301.775 16.2694 301.806 16.3745C301.837 16.4797 301.89 16.5724 301.964 16.6528C302.044 16.7271 302.156 16.7858 302.298 16.8291C302.44 16.8724 302.623 16.894 302.845 16.894C302.938 16.894 303.043 16.891 303.161 16.8848C303.278 16.8724 303.396 16.86 303.513 16.8477C303.631 16.8353 303.739 16.8198 303.838 16.8013C303.943 16.7827 304.03 16.7673 304.098 16.7549L304.33 19.0186C304.088 19.0495 303.838 19.0773 303.578 19.1021C303.355 19.1268 303.108 19.1453 302.836 19.1577C302.564 19.1763 302.289 19.1855 302.01 19.1855C301.126 19.1855 300.436 18.9845 299.941 18.5825C299.447 18.1805 299.199 17.5404 299.199 16.6621V11.2905H297.409V9.06396H299.199V6.25293L301.76 5.56641V9.06396H304.367V11.2905H301.76V16.0405ZM309.191 14.9644C308.875 15.0138 308.622 15.1252 308.43 15.2983C308.238 15.4653 308.143 15.6942 308.143 15.9849C308.143 16.3065 308.26 16.5848 308.495 16.8198C308.73 17.0487 309.076 17.1631 309.534 17.1631C310.017 17.1631 310.397 17.0239 310.675 16.7456C310.954 16.4673 311.093 16.0993 311.093 15.6416V14.6396L309.191 14.9644ZM311.51 18.063C311.405 18.1805 311.275 18.3073 311.121 18.4434C310.972 18.5732 310.793 18.6938 310.583 18.8052C310.378 18.9103 310.137 19 309.859 19.0742C309.581 19.1484 309.268 19.1855 308.922 19.1855C308.427 19.1855 307.969 19.1082 307.549 18.9536C307.134 18.7928 306.77 18.5701 306.454 18.2856C306.139 18.0011 305.891 17.6733 305.712 17.3022C305.533 16.925 305.443 16.5168 305.443 16.0776C305.443 15.2798 305.69 14.6273 306.185 14.1201C306.68 13.613 307.363 13.2944 308.235 13.1646L311.093 12.7471V12.5615C311.093 12.1162 310.957 11.7637 310.685 11.5039C310.412 11.2441 309.97 11.1143 309.358 11.1143C309.104 11.1143 308.848 11.1452 308.588 11.207C308.328 11.2627 308.078 11.3276 307.836 11.4019C307.601 11.4761 307.382 11.5627 307.178 11.6616C306.974 11.7544 306.794 11.8379 306.64 11.9121L305.638 9.95459C306.207 9.63916 306.838 9.37939 307.53 9.17529C308.229 8.97119 308.953 8.86914 309.701 8.86914C310.159 8.86914 310.62 8.91862 311.083 9.01758C311.554 9.11035 311.977 9.28353 312.354 9.53711C312.738 9.79069 313.05 10.137 313.292 10.5762C313.533 11.0091 313.653 11.5627 313.653 12.2368V16.3188C313.653 16.6095 313.728 16.826 313.876 16.9683C314.031 17.1043 314.241 17.2311 314.507 17.3486L313.347 19.1855C312.877 19.1361 312.5 19.0155 312.215 18.8237C311.931 18.6258 311.696 18.3722 311.51 18.063ZM318.357 19H315.796V9.06396H318.357V19ZM315.527 6.45703C315.527 6.24674 315.568 6.04883 315.648 5.86328C315.728 5.67155 315.837 5.50765 315.973 5.37158C316.115 5.22933 316.279 5.118 316.464 5.0376C316.65 4.95719 316.851 4.91699 317.067 4.91699C317.278 4.91699 317.476 4.95719 317.661 5.0376C317.853 5.118 318.017 5.22933 318.153 5.37158C318.295 5.50765 318.406 5.67155 318.487 5.86328C318.567 6.04883 318.607 6.24674 318.607 6.45703C318.607 6.6735 318.567 6.87451 318.487 7.06006C318.406 7.24561 318.295 7.40951 318.153 7.55176C318.017 7.68783 317.853 7.79606 317.661 7.87646C317.476 7.95687 317.278 7.99707 317.067 7.99707C316.851 7.99707 316.65 7.95687 316.464 7.87646C316.279 7.79606 316.115 7.68783 315.973 7.55176C315.837 7.40951 315.728 7.24561 315.648 7.06006C315.568 6.87451 315.527 6.6735 315.527 6.45703ZM320.565 9.06396H323.125V9.91748C323.262 9.78141 323.413 9.65153 323.58 9.52783C323.753 9.39795 323.942 9.28662 324.146 9.19385C324.35 9.09489 324.576 9.01758 324.823 8.96191C325.077 8.90007 325.355 8.86914 325.658 8.86914C326.196 8.86914 326.679 8.95882 327.105 9.13818C327.532 9.31136 327.891 9.55257 328.182 9.86182C328.479 10.1711 328.704 10.5329 328.859 10.9473C329.014 11.3617 329.091 11.8101 329.091 12.2925V19H326.53V13.2202C326.53 12.8677 326.49 12.5708 326.41 12.3296C326.329 12.0822 326.218 11.8843 326.076 11.7358C325.94 11.5812 325.776 11.4699 325.584 11.4019C325.398 11.3276 325.194 11.2905 324.972 11.2905C324.712 11.2905 324.468 11.3369 324.239 11.4297C324.016 11.5225 323.821 11.6647 323.654 11.8564C323.487 12.042 323.357 12.277 323.265 12.5615C323.172 12.846 323.125 13.18 323.125 13.5635V19H320.565V9.06396ZM333.377 14.918C333.42 15.2148 333.513 15.487 333.655 15.7344C333.804 15.9818 333.989 16.1951 334.212 16.3745C334.435 16.5477 334.691 16.6838 334.982 16.7827C335.273 16.8817 335.582 16.9312 335.91 16.9312C336.287 16.9312 336.695 16.86 337.134 16.7178C337.573 16.5693 337.975 16.356 338.34 16.0776L339.574 17.8774C339.11 18.2671 338.541 18.5825 337.867 18.8237C337.193 19.0649 336.476 19.1855 335.715 19.1855C335.028 19.1855 334.382 19.068 333.776 18.833C333.17 18.598 332.638 18.2578 332.18 17.8125C331.729 17.3672 331.37 16.826 331.104 16.189C330.844 15.5519 330.714 14.8345 330.714 14.0366C330.714 13.3068 330.829 12.6265 331.058 11.9956C331.293 11.3647 331.617 10.8174 332.032 10.3535C332.452 9.88965 332.953 9.52783 333.535 9.26807C334.116 9.00212 334.759 8.86914 335.464 8.86914C336.12 8.86914 336.729 8.98975 337.292 9.23096C337.855 9.46598 338.343 9.79997 338.758 10.2329C339.172 10.6597 339.497 11.173 339.732 11.7729C339.967 12.3729 340.084 13.0347 340.084 13.7583V14.918H333.377ZM335.455 11.0957C334.905 11.0957 334.438 11.2812 334.054 11.6523C333.677 12.0173 333.457 12.4595 333.396 12.979H337.403C337.391 12.4533 337.199 12.008 336.828 11.6431C336.457 11.2782 335.999 11.0957 335.455 11.0957ZM348.1 19V18.1465C347.964 18.2949 347.812 18.4341 347.646 18.564C347.485 18.6877 347.302 18.7959 347.098 18.8887C346.9 18.9814 346.681 19.0526 346.439 19.1021C346.204 19.1577 345.942 19.1855 345.651 19.1855C344.995 19.1855 344.395 19.0557 343.851 18.7959C343.307 18.5361 342.84 18.1774 342.45 17.7197C342.061 17.262 341.757 16.7178 341.541 16.0869C341.331 15.4561 341.226 14.7726 341.226 14.0366C341.226 13.3006 341.331 12.6172 341.541 11.9863C341.751 11.3555 342.045 10.8112 342.422 10.3535C342.806 9.88965 343.267 9.52783 343.805 9.26807C344.343 9.00212 344.94 8.86914 345.595 8.86914C346.177 8.86914 346.668 8.97119 347.07 9.17529C347.479 9.37321 347.822 9.62061 348.1 9.91748V5.69629H350.661V19H348.1ZM348.174 13.1089C348.174 12.8429 348.125 12.5955 348.026 12.3667C347.933 12.1379 347.797 11.9399 347.618 11.7729C347.438 11.606 347.222 11.4761 346.968 11.3833C346.721 11.2905 346.439 11.2441 346.124 11.2441C345.759 11.2441 345.434 11.3122 345.15 11.4482C344.872 11.5843 344.637 11.776 344.445 12.0234C344.253 12.2646 344.108 12.5522 344.009 12.8862C343.91 13.2202 343.86 13.5851 343.86 13.981V14.1016C343.86 14.4974 343.91 14.8623 344.009 15.1963C344.108 15.5241 344.253 15.8086 344.445 16.0498C344.637 16.291 344.872 16.4797 345.15 16.6157C345.434 16.7456 345.759 16.8105 346.124 16.8105C346.439 16.8105 346.721 16.7642 346.968 16.6714C347.222 16.5786 347.438 16.4487 347.618 16.2817C347.797 16.1147 347.933 15.9199 348.026 15.6973C348.125 15.4684 348.174 15.221 348.174 14.9551V13.1089ZM359.511 14.9644C359.196 15.0138 358.942 15.1252 358.75 15.2983C358.559 15.4653 358.463 15.6942 358.463 15.9849C358.463 16.3065 358.58 16.5848 358.815 16.8198C359.05 17.0487 359.397 17.1631 359.854 17.1631C360.337 17.1631 360.717 17.0239 360.996 16.7456C361.274 16.4673 361.413 16.0993 361.413 15.6416V14.6396L359.511 14.9644ZM361.831 18.063C361.725 18.1805 361.596 18.3073 361.441 18.4434C361.292 18.5732 361.113 18.6938 360.903 18.8052C360.699 18.9103 360.458 19 360.179 19.0742C359.901 19.1484 359.589 19.1855 359.242 19.1855C358.747 19.1855 358.29 19.1082 357.869 18.9536C357.455 18.7928 357.09 18.5701 356.774 18.2856C356.459 18.0011 356.212 17.6733 356.032 17.3022C355.853 16.925 355.763 16.5168 355.763 16.0776C355.763 15.2798 356.011 14.6273 356.505 14.1201C357 13.613 357.684 13.2944 358.556 13.1646L361.413 12.7471V12.5615C361.413 12.1162 361.277 11.7637 361.005 11.5039C360.733 11.2441 360.291 11.1143 359.678 11.1143C359.425 11.1143 359.168 11.1452 358.908 11.207C358.648 11.2627 358.398 11.3276 358.157 11.4019C357.922 11.4761 357.702 11.5627 357.498 11.6616C357.294 11.7544 357.115 11.8379 356.96 11.9121L355.958 9.95459C356.527 9.63916 357.158 9.37939 357.851 9.17529C358.549 8.97119 359.273 8.86914 360.021 8.86914C360.479 8.86914 360.94 8.91862 361.404 9.01758C361.874 9.11035 362.298 9.28353 362.675 9.53711C363.058 9.79069 363.371 10.137 363.612 10.5762C363.853 11.0091 363.974 11.5627 363.974 12.2368V16.3188C363.974 16.6095 364.048 16.826 364.196 16.9683C364.351 17.1043 364.561 17.2311 364.827 17.3486L363.667 19.1855C363.197 19.1361 362.82 19.0155 362.536 18.8237C362.251 18.6258 362.016 18.3722 361.831 18.063ZM368.677 22.1357H366.117V9.06396H368.677V9.91748C368.956 9.62679 369.299 9.37939 369.707 9.17529C370.115 8.97119 370.61 8.86914 371.191 8.86914C371.847 8.86914 372.441 9.00212 372.973 9.26807C373.511 9.52783 373.972 9.88965 374.355 10.3535C374.738 10.8112 375.035 11.3555 375.246 11.9863C375.456 12.6172 375.561 13.3006 375.561 14.0366C375.561 14.7726 375.453 15.4561 375.236 16.0869C375.02 16.7178 374.717 17.262 374.327 17.7197C373.938 18.1774 373.471 18.5361 372.926 18.7959C372.382 19.0557 371.782 19.1855 371.126 19.1855C370.836 19.1855 370.57 19.1577 370.329 19.1021C370.094 19.0526 369.877 18.9814 369.679 18.8887C369.481 18.7959 369.299 18.6877 369.132 18.564C368.965 18.4341 368.813 18.2949 368.677 18.1465V22.1357ZM368.603 14.9551C368.603 15.221 368.649 15.4684 368.742 15.6973C368.841 15.9199 368.98 16.1147 369.16 16.2817C369.339 16.4487 369.552 16.5786 369.8 16.6714C370.053 16.7642 370.338 16.8105 370.653 16.8105C371.018 16.8105 371.34 16.7456 371.618 16.6157C371.903 16.4797 372.141 16.291 372.333 16.0498C372.524 15.8086 372.67 15.5241 372.769 15.1963C372.868 14.8623 372.917 14.4974 372.917 14.1016V13.981C372.917 13.5851 372.868 13.2202 372.769 12.8862C372.67 12.5522 372.524 12.2646 372.333 12.0234C372.141 11.776 371.903 11.5843 371.618 11.4482C371.34 11.3122 371.018 11.2441 370.653 11.2441C370.338 11.2441 370.053 11.2905 369.8 11.3833C369.552 11.4761 369.339 11.606 369.16 11.7729C368.98 11.9399 368.841 12.1379 368.742 12.3667C368.649 12.5955 368.603 12.8429 368.603 13.1089V14.9551ZM379.829 22.1357H377.268V9.06396H379.829V9.91748C380.107 9.62679 380.45 9.37939 380.858 9.17529C381.267 8.97119 381.761 8.86914 382.343 8.86914C382.998 8.86914 383.592 9.00212 384.124 9.26807C384.662 9.52783 385.123 9.88965 385.506 10.3535C385.89 10.8112 386.187 11.3555 386.397 11.9863C386.607 12.6172 386.712 13.3006 386.712 14.0366C386.712 14.7726 386.604 15.4561 386.388 16.0869C386.171 16.7178 385.868 17.262 385.479 17.7197C385.089 18.1774 384.622 18.5361 384.078 18.7959C383.533 19.0557 382.933 19.1855 382.278 19.1855C381.987 19.1855 381.721 19.1577 381.48 19.1021C381.245 19.0526 381.028 18.9814 380.831 18.8887C380.633 18.7959 380.45 18.6877 380.283 18.564C380.116 18.4341 379.965 18.2949 379.829 18.1465V22.1357ZM379.754 14.9551C379.754 15.221 379.801 15.4684 379.894 15.6973C379.993 15.9199 380.132 16.1147 380.311 16.2817C380.49 16.4487 380.704 16.5786 380.951 16.6714C381.205 16.7642 381.489 16.8105 381.805 16.8105C382.17 16.8105 382.491 16.7456 382.77 16.6157C383.054 16.4797 383.292 16.291 383.484 16.0498C383.676 15.8086 383.821 15.5241 383.92 15.1963C384.019 14.8623 384.068 14.4974 384.068 14.1016V13.981C384.068 13.5851 384.019 13.2202 383.92 12.8862C383.821 12.5522 383.676 12.2646 383.484 12.0234C383.292 11.776 383.054 11.5843 382.77 11.4482C382.491 11.3122 382.17 11.2441 381.805 11.2441C381.489 11.2441 381.205 11.2905 380.951 11.3833C380.704 11.4761 380.49 11.606 380.311 11.7729C380.132 11.9399 379.993 12.1379 379.894 12.3667C379.801 12.5955 379.754 12.8429 379.754 13.1089V14.9551ZM390.562 14.918C390.606 15.2148 390.699 15.487 390.841 15.7344C390.989 15.9818 391.175 16.1951 391.397 16.3745C391.62 16.5477 391.877 16.6838 392.167 16.7827C392.458 16.8817 392.767 16.9312 393.095 16.9312C393.472 16.9312 393.881 16.86 394.32 16.7178C394.759 16.5693 395.161 16.356 395.526 16.0776L396.76 17.8774C396.296 18.2671 395.727 18.5825 395.053 18.8237C394.379 19.0649 393.661 19.1855 392.9 19.1855C392.214 19.1855 391.568 19.068 390.961 18.833C390.355 18.598 389.823 18.2578 389.366 17.8125C388.914 17.3672 388.556 16.826 388.29 16.189C388.03 15.5519 387.9 14.8345 387.9 14.0366C387.9 13.3068 388.014 12.6265 388.243 11.9956C388.478 11.3647 388.803 10.8174 389.217 10.3535C389.638 9.88965 390.139 9.52783 390.72 9.26807C391.302 9.00212 391.945 8.86914 392.65 8.86914C393.306 8.86914 393.915 8.98975 394.478 9.23096C395.04 9.46598 395.529 9.79997 395.943 10.2329C396.358 10.6597 396.682 11.173 396.917 11.7729C397.153 12.3729 397.27 13.0347 397.27 13.7583V14.918H390.562ZM392.641 11.0957C392.09 11.0957 391.623 11.2812 391.24 11.6523C390.862 12.0173 390.643 12.4595 390.581 12.979H394.589C394.576 12.4533 394.385 12.008 394.014 11.6431C393.643 11.2782 393.185 11.0957 392.641 11.0957ZM402.113 14.9644C401.797 15.0138 401.544 15.1252 401.352 15.2983C401.16 15.4653 401.064 15.6942 401.064 15.9849C401.064 16.3065 401.182 16.5848 401.417 16.8198C401.652 17.0487 401.998 17.1631 402.456 17.1631C402.938 17.1631 403.319 17.0239 403.597 16.7456C403.875 16.4673 404.015 16.0993 404.015 15.6416V14.6396L402.113 14.9644ZM404.432 18.063C404.327 18.1805 404.197 18.3073 404.042 18.4434C403.894 18.5732 403.715 18.6938 403.504 18.8052C403.3 18.9103 403.059 19 402.781 19.0742C402.502 19.1484 402.19 19.1855 401.844 19.1855C401.349 19.1855 400.891 19.1082 400.471 18.9536C400.056 18.7928 399.691 18.5701 399.376 18.2856C399.061 18.0011 398.813 17.6733 398.634 17.3022C398.454 16.925 398.365 16.5168 398.365 16.0776C398.365 15.2798 398.612 14.6273 399.107 14.1201C399.602 13.613 400.285 13.2944 401.157 13.1646L404.015 12.7471V12.5615C404.015 12.1162 403.879 11.7637 403.606 11.5039C403.334 11.2441 402.892 11.1143 402.28 11.1143C402.026 11.1143 401.77 11.1452 401.51 11.207C401.25 11.2627 401 11.3276 400.758 11.4019C400.523 11.4761 400.304 11.5627 400.1 11.6616C399.896 11.7544 399.716 11.8379 399.562 11.9121L398.56 9.95459C399.129 9.63916 399.759 9.37939 400.452 9.17529C401.151 8.97119 401.875 8.86914 402.623 8.86914C403.081 8.86914 403.542 8.91862 404.005 9.01758C404.475 9.11035 404.899 9.28353 405.276 9.53711C405.66 9.79069 405.972 10.137 406.213 10.5762C406.455 11.0091 406.575 11.5627 406.575 12.2368V16.3188C406.575 16.6095 406.649 16.826 406.798 16.9683C406.952 17.1043 407.163 17.2311 407.429 17.3486L406.269 19.1855C405.799 19.1361 405.422 19.0155 405.137 18.8237C404.853 18.6258 404.618 18.3722 404.432 18.063ZM408.681 5.69629H411.242V16.3003C411.242 16.5106 411.3 16.6714 411.418 16.7827C411.542 16.894 411.736 16.9497 412.002 16.9497C412.126 16.9497 412.231 16.9435 412.318 16.9312C412.411 16.9126 412.528 16.8879 412.67 16.8569L412.875 19.0371C412.701 19.0618 412.516 19.0866 412.318 19.1113C412.151 19.1299 411.956 19.1453 411.733 19.1577C411.517 19.1763 411.291 19.1855 411.056 19.1855C410.691 19.1855 410.363 19.1392 410.073 19.0464C409.782 18.9536 409.532 18.8175 409.321 18.6382C409.117 18.4526 408.959 18.2238 408.848 17.9517C408.737 17.6795 408.681 17.3641 408.681 17.0054V5.69629Z" fill="white"/>
<rect width="125" height="27" transform="translate(431)" fill="#EB3223"/>
<path d="M440.282 15.2612C440.455 15.4591 440.666 15.654 440.913 15.8457C441.16 16.0374 441.433 16.2106 441.729 16.3652C442.033 16.5137 442.36 16.6343 442.713 16.7271C443.065 16.8136 443.446 16.8569 443.854 16.8569C444.615 16.8569 445.196 16.6992 445.598 16.3838C446.006 16.0622 446.21 15.6725 446.21 15.2148C446.21 14.7386 446.031 14.3768 445.672 14.1294C445.32 13.882 444.757 13.6872 443.984 13.5449L443.566 13.4707C443.01 13.3717 442.456 13.2419 441.906 13.0811C441.355 12.9202 440.857 12.6883 440.412 12.3853C439.967 12.0822 439.605 11.6956 439.327 11.2256C439.048 10.7493 438.909 10.1494 438.909 9.42578C438.909 9.00521 439.002 8.56608 439.188 8.1084C439.373 7.64453 439.667 7.22087 440.069 6.8374C440.477 6.44775 441 6.12923 441.637 5.88184C442.28 5.63444 443.056 5.51074 443.965 5.51074C445.042 5.51074 446 5.6901 446.841 6.04883C447.689 6.40137 448.372 6.86833 448.892 7.44971L447.101 9.11963C446.736 8.71761 446.266 8.40218 445.691 8.17334C445.122 7.9445 444.534 7.83008 443.928 7.83008C443.229 7.83008 442.682 7.96305 442.286 8.229C441.896 8.49495 441.702 8.84131 441.702 9.26807C441.702 9.54639 441.764 9.77832 441.887 9.96387C442.017 10.1494 442.196 10.304 442.425 10.4277C442.654 10.5452 442.929 10.6442 443.251 10.7246C443.573 10.805 443.931 10.8854 444.327 10.9658L444.541 11.0029C445.072 11.1019 445.601 11.2287 446.127 11.3833C446.653 11.5317 447.129 11.7544 447.556 12.0513C447.989 12.342 448.338 12.7254 448.604 13.2017C448.87 13.6717 449.003 14.2747 449.003 15.0107C449.003 15.6787 448.864 16.2694 448.585 16.7827C448.307 17.2961 447.939 17.7352 447.481 18.1001C447.024 18.4588 446.495 18.731 445.895 18.9165C445.295 19.0959 444.67 19.1855 444.021 19.1855C443.365 19.1855 442.756 19.1299 442.193 19.0186C441.637 18.9072 441.13 18.7495 440.672 18.5454C440.22 18.3413 439.815 18.1125 439.457 17.8589C439.104 17.6053 438.795 17.3332 438.529 17.0425L440.282 15.2612ZM461.063 12.2183C461.063 12.8182 461.017 13.4058 460.924 13.981C460.832 14.5562 460.686 15.1035 460.488 15.623C460.297 16.1364 460.049 16.6126 459.746 17.0518C459.443 17.4847 459.078 17.8589 458.651 18.1743C458.225 18.4897 457.733 18.7371 457.176 18.9165C456.626 19.0959 456.004 19.1855 455.312 19.1855C454.743 19.1855 454.217 19.1175 453.734 18.9814C453.252 18.8392 452.816 18.6475 452.426 18.4062C452.037 18.165 451.7 17.8805 451.415 17.5527C451.131 17.2188 450.908 16.86 450.747 16.4766L453.233 15.5024C453.456 15.923 453.753 16.2415 454.124 16.458C454.501 16.6683 454.928 16.7734 455.404 16.7734C455.868 16.7734 456.276 16.6838 456.629 16.5044C456.981 16.3188 457.272 16.0684 457.501 15.7529C457.736 15.4375 457.912 15.0726 458.03 14.6582C458.147 14.2376 458.203 13.7923 458.197 13.3223C458.042 13.4769 457.86 13.6253 457.649 13.7676C457.439 13.9098 457.204 14.0366 456.944 14.1479C456.691 14.2531 456.412 14.3397 456.109 14.4077C455.812 14.4696 455.5 14.5005 455.172 14.5005C454.523 14.5005 453.917 14.3953 453.354 14.1851C452.797 13.9686 452.312 13.6717 451.897 13.2944C451.489 12.911 451.168 12.4564 450.933 11.9307C450.698 11.4049 450.58 10.8298 450.58 10.2051C450.58 9.53711 450.698 8.91553 450.933 8.34033C451.174 7.76514 451.511 7.27035 451.944 6.85596C452.383 6.43538 452.909 6.10758 453.521 5.87256C454.133 5.63135 454.817 5.51074 455.571 5.51074C456.4 5.51074 457.152 5.65918 457.826 5.95605C458.5 6.24674 459.075 6.66732 459.551 7.21777C460.034 7.76823 460.405 8.43929 460.665 9.23096C460.931 10.0226 461.063 10.9163 461.063 11.9121V12.2183ZM458.067 10.0474C458.067 9.73193 458.011 9.43815 457.9 9.16602C457.789 8.89388 457.628 8.65885 457.417 8.46094C457.213 8.25684 456.966 8.09912 456.675 7.98779C456.385 7.87028 456.063 7.81152 455.71 7.81152C455.346 7.81152 455.018 7.87028 454.727 7.98779C454.436 8.09912 454.189 8.25684 453.985 8.46094C453.781 8.65885 453.623 8.89388 453.512 9.16602C453.407 9.43815 453.354 9.73193 453.354 10.0474C453.354 10.3566 453.407 10.6473 453.512 10.9194C453.623 11.1916 453.781 11.4297 453.985 11.6338C454.189 11.8317 454.436 11.9894 454.727 12.1069C455.018 12.2183 455.346 12.2739 455.71 12.2739C456.063 12.2739 456.385 12.2183 456.675 12.1069C456.966 11.9894 457.213 11.8317 457.417 11.6338C457.628 11.4297 457.789 11.1916 457.9 10.9194C458.011 10.6473 458.067 10.3566 458.067 10.0474ZM468.894 19V15.9941H462.26V13.1274L468.151 5.69629H471.593V13.5635H473.532V15.9941H471.593V19H468.894ZM468.894 13.5635V8.34033L464.756 13.5635H468.894ZM481.362 5.69629C481.919 5.69629 482.435 5.77979 482.912 5.94678C483.388 6.10758 483.802 6.33952 484.155 6.64258C484.507 6.94564 484.783 7.31364 484.98 7.74658C485.178 8.17334 485.277 8.64958 485.277 9.17529C485.277 9.44743 485.237 9.71647 485.157 9.98242C485.083 10.2484 484.971 10.4989 484.823 10.7339C484.674 10.9627 484.495 11.173 484.285 11.3647C484.074 11.5565 483.836 11.7142 483.57 11.8379C483.787 11.9121 484.037 12.0234 484.322 12.1719C484.612 12.3203 484.888 12.5244 485.147 12.7842C485.407 13.0439 485.627 13.3656 485.806 13.749C485.986 14.1263 486.075 14.584 486.075 15.1221C486.075 15.7962 485.945 16.3776 485.686 16.8662C485.432 17.3548 485.086 17.7568 484.646 18.0723C484.214 18.3877 483.703 18.6227 483.116 18.7773C482.534 18.9258 481.919 19 481.27 19H475.443V5.69629H481.362ZM483.32 15.0293C483.32 14.6706 483.255 14.3768 483.125 14.1479C482.995 13.9191 482.822 13.7367 482.605 13.6006C482.395 13.4645 482.154 13.3717 481.882 13.3223C481.61 13.2666 481.331 13.2388 481.047 13.2388H478.134V16.8755H481.047C481.331 16.8755 481.61 16.8477 481.882 16.792C482.154 16.7363 482.395 16.6374 482.605 16.4951C482.822 16.3529 482.995 16.1642 483.125 15.9292C483.255 15.6942 483.32 15.3942 483.32 15.0293ZM482.568 9.44434C482.568 8.93717 482.408 8.54134 482.086 8.25684C481.764 7.97233 481.245 7.83008 480.527 7.83008H478.134V10.9658H480.527C481.232 10.9658 481.749 10.8328 482.077 10.5669C482.404 10.2948 482.568 9.92057 482.568 9.44434ZM494.453 14.9644C494.137 15.0138 493.884 15.1252 493.692 15.2983C493.5 15.4653 493.404 15.6942 493.404 15.9849C493.404 16.3065 493.522 16.5848 493.757 16.8198C493.992 17.0487 494.338 17.1631 494.796 17.1631C495.278 17.1631 495.659 17.0239 495.937 16.7456C496.215 16.4673 496.354 16.0993 496.354 15.6416V14.6396L494.453 14.9644ZM496.772 18.063C496.667 18.1805 496.537 18.3073 496.382 18.4434C496.234 18.5732 496.055 18.6938 495.844 18.8052C495.64 18.9103 495.399 19 495.121 19.0742C494.842 19.1484 494.53 19.1855 494.184 19.1855C493.689 19.1855 493.231 19.1082 492.811 18.9536C492.396 18.7928 492.031 18.5701 491.716 18.2856C491.4 18.0011 491.153 17.6733 490.974 17.3022C490.794 16.925 490.705 16.5168 490.705 16.0776C490.705 15.2798 490.952 14.6273 491.447 14.1201C491.942 13.613 492.625 13.2944 493.497 13.1646L496.354 12.7471V12.5615C496.354 12.1162 496.218 11.7637 495.946 11.5039C495.674 11.2441 495.232 11.1143 494.62 11.1143C494.366 11.1143 494.109 11.1452 493.85 11.207C493.59 11.2627 493.339 11.3276 493.098 11.4019C492.863 11.4761 492.644 11.5627 492.439 11.6616C492.235 11.7544 492.056 11.8379 491.901 11.9121L490.899 9.95459C491.468 9.63916 492.099 9.37939 492.792 9.17529C493.491 8.97119 494.215 8.86914 494.963 8.86914C495.421 8.86914 495.881 8.91862 496.345 9.01758C496.815 9.11035 497.239 9.28353 497.616 9.53711C498 9.79069 498.312 10.137 498.553 10.5762C498.794 11.0091 498.915 11.5627 498.915 12.2368V16.3188C498.915 16.6095 498.989 16.826 499.138 16.9683C499.292 17.1043 499.503 17.2311 499.769 17.3486L498.609 19.1855C498.139 19.1361 497.762 19.0155 497.477 18.8237C497.193 18.6258 496.958 18.3722 496.772 18.063ZM503.619 22.1357H501.058V9.06396H503.619V9.91748C503.897 9.62679 504.24 9.37939 504.648 9.17529C505.057 8.97119 505.551 8.86914 506.133 8.86914C506.788 8.86914 507.382 9.00212 507.914 9.26807C508.452 9.52783 508.913 9.88965 509.296 10.3535C509.68 10.8112 509.977 11.3555 510.187 11.9863C510.397 12.6172 510.502 13.3006 510.502 14.0366C510.502 14.7726 510.394 15.4561 510.178 16.0869C509.961 16.7178 509.658 17.262 509.269 17.7197C508.879 18.1774 508.412 18.5361 507.868 18.7959C507.323 19.0557 506.723 19.1855 506.068 19.1855C505.777 19.1855 505.511 19.1577 505.27 19.1021C505.035 19.0526 504.819 18.9814 504.621 18.8887C504.423 18.7959 504.24 18.6877 504.073 18.564C503.906 18.4341 503.755 18.2949 503.619 18.1465V22.1357ZM503.544 14.9551C503.544 15.221 503.591 15.4684 503.684 15.6973C503.783 15.9199 503.922 16.1147 504.101 16.2817C504.28 16.4487 504.494 16.5786 504.741 16.6714C504.995 16.7642 505.279 16.8105 505.595 16.8105C505.96 16.8105 506.281 16.7456 506.56 16.6157C506.844 16.4797 507.082 16.291 507.274 16.0498C507.466 15.8086 507.611 15.5241 507.71 15.1963C507.809 14.8623 507.858 14.4974 507.858 14.1016V13.981C507.858 13.5851 507.809 13.2202 507.71 12.8862C507.611 12.5522 507.466 12.2646 507.274 12.0234C507.082 11.776 506.844 11.5843 506.56 11.4482C506.281 11.3122 505.96 11.2441 505.595 11.2441C505.279 11.2441 504.995 11.2905 504.741 11.3833C504.494 11.4761 504.28 11.606 504.101 11.7729C503.922 11.9399 503.783 12.1379 503.684 12.3667C503.591 12.5955 503.544 12.8429 503.544 13.1089V14.9551ZM514.77 22.1357H512.209V9.06396H514.77V9.91748C515.048 9.62679 515.392 9.37939 515.8 9.17529C516.208 8.97119 516.703 8.86914 517.284 8.86914C517.94 8.86914 518.534 9.00212 519.065 9.26807C519.604 9.52783 520.064 9.88965 520.448 10.3535C520.831 10.8112 521.128 11.3555 521.338 11.9863C521.549 12.6172 521.654 13.3006 521.654 14.0366C521.654 14.7726 521.546 15.4561 521.329 16.0869C521.113 16.7178 520.81 17.262 520.42 17.7197C520.03 18.1774 519.563 18.5361 519.019 18.7959C518.475 19.0557 517.875 19.1855 517.219 19.1855C516.929 19.1855 516.663 19.1577 516.421 19.1021C516.186 19.0526 515.97 18.9814 515.772 18.8887C515.574 18.7959 515.392 18.6877 515.225 18.564C515.058 18.4341 514.906 18.2949 514.77 18.1465V22.1357ZM514.696 14.9551C514.696 15.221 514.742 15.4684 514.835 15.6973C514.934 15.9199 515.073 16.1147 515.252 16.2817C515.432 16.4487 515.645 16.5786 515.893 16.6714C516.146 16.7642 516.431 16.8105 516.746 16.8105C517.111 16.8105 517.433 16.7456 517.711 16.6157C517.995 16.4797 518.234 16.291 518.425 16.0498C518.617 15.8086 518.762 15.5241 518.861 15.1963C518.96 14.8623 519.01 14.4974 519.01 14.1016V13.981C519.01 13.5851 518.96 13.2202 518.861 12.8862C518.762 12.5522 518.617 12.2646 518.425 12.0234C518.234 11.776 517.995 11.5843 517.711 11.4482C517.433 11.3122 517.111 11.2441 516.746 11.2441C516.431 11.2441 516.146 11.2905 515.893 11.3833C515.645 11.4761 515.432 11.606 515.252 11.7729C515.073 11.9399 514.934 12.1379 514.835 12.3667C514.742 12.5955 514.696 12.8429 514.696 13.1089V14.9551ZM525.504 14.918C525.547 15.2148 525.64 15.487 525.782 15.7344C525.931 15.9818 526.116 16.1951 526.339 16.3745C526.562 16.5477 526.818 16.6838 527.109 16.7827C527.4 16.8817 527.709 16.9312 528.037 16.9312C528.414 16.9312 528.822 16.86 529.261 16.7178C529.7 16.5693 530.102 16.356 530.467 16.0776L531.701 17.8774C531.237 18.2671 530.668 18.5825 529.994 18.8237C529.32 19.0649 528.603 19.1855 527.842 19.1855C527.155 19.1855 526.509 19.068 525.903 18.833C525.297 18.598 524.765 18.2578 524.307 17.8125C523.856 17.3672 523.497 16.826 523.231 16.189C522.971 15.5519 522.841 14.8345 522.841 14.0366C522.841 13.3068 522.956 12.6265 523.185 11.9956C523.42 11.3647 523.744 10.8174 524.159 10.3535C524.579 9.88965 525.08 9.52783 525.662 9.26807C526.243 9.00212 526.886 8.86914 527.591 8.86914C528.247 8.86914 528.856 8.98975 529.419 9.23096C529.982 9.46598 530.47 9.79997 530.885 10.2329C531.299 10.6597 531.624 11.173 531.859 11.7729C532.094 12.3729 532.211 13.0347 532.211 13.7583V14.918H525.504ZM527.582 11.0957C527.032 11.0957 526.565 11.2812 526.181 11.6523C525.804 12.0173 525.584 12.4595 525.522 12.979H529.53C529.518 12.4533 529.326 12.008 528.955 11.6431C528.584 11.2782 528.126 11.0957 527.582 11.0957ZM537.054 14.9644C536.739 15.0138 536.485 15.1252 536.293 15.2983C536.102 15.4653 536.006 15.6942 536.006 15.9849C536.006 16.3065 536.123 16.5848 536.358 16.8198C536.593 17.0487 536.94 17.1631 537.397 17.1631C537.88 17.1631 538.26 17.0239 538.539 16.7456C538.817 16.4673 538.956 16.0993 538.956 15.6416V14.6396L537.054 14.9644ZM539.374 18.063C539.268 18.1805 539.139 18.3073 538.984 18.4434C538.835 18.5732 538.656 18.6938 538.446 18.8052C538.242 18.9103 538 19 537.722 19.0742C537.444 19.1484 537.132 19.1855 536.785 19.1855C536.29 19.1855 535.833 19.1082 535.412 18.9536C534.998 18.7928 534.633 18.5701 534.317 18.2856C534.002 18.0011 533.755 17.6733 533.575 17.3022C533.396 16.925 533.306 16.5168 533.306 16.0776C533.306 15.2798 533.554 14.6273 534.048 14.1201C534.543 13.613 535.227 13.2944 536.099 13.1646L538.956 12.7471V12.5615C538.956 12.1162 538.82 11.7637 538.548 11.5039C538.276 11.2441 537.833 11.1143 537.221 11.1143C536.968 11.1143 536.711 11.1452 536.451 11.207C536.191 11.2627 535.941 11.3276 535.7 11.4019C535.465 11.4761 535.245 11.5627 535.041 11.6616C534.837 11.7544 534.658 11.8379 534.503 11.9121L533.501 9.95459C534.07 9.63916 534.701 9.37939 535.394 9.17529C536.092 8.97119 536.816 8.86914 537.564 8.86914C538.022 8.86914 538.483 8.91862 538.947 9.01758C539.417 9.11035 539.84 9.28353 540.218 9.53711C540.601 9.79069 540.914 10.137 541.155 10.5762C541.396 11.0091 541.517 11.5627 541.517 12.2368V16.3188C541.517 16.6095 541.591 16.826 541.739 16.9683C541.894 17.1043 542.104 17.2311 542.37 17.3486L541.21 19.1855C540.74 19.1361 540.363 19.0155 540.079 18.8237C539.794 18.6258 539.559 18.3722 539.374 18.063ZM543.623 5.69629H546.183V16.3003C546.183 16.5106 546.242 16.6714 546.359 16.7827C546.483 16.894 546.678 16.9497 546.944 16.9497C547.068 16.9497 547.173 16.9435 547.259 16.9312C547.352 16.9126 547.47 16.8879 547.612 16.8569L547.816 19.0371C547.643 19.0618 547.457 19.0866 547.259 19.1113C547.092 19.1299 546.897 19.1453 546.675 19.1577C546.458 19.1763 546.233 19.1855 545.998 19.1855C545.633 19.1855 545.305 19.1392 545.014 19.0464C544.723 18.9536 544.473 18.8175 544.263 18.6382C544.059 18.4526 543.901 18.2238 543.79 17.9517C543.678 17.6795 543.623 17.3641 543.623 17.0054V5.69629Z" fill="white"/>
</svg>
