<svg width="321" height="22" viewBox="0 0 321 22" fill="none" xmlns="http://www.w3.org/2000/svg">
<path d="M0.363281 1.19531H13.1719V4.34766H8.47266V18H5.0625V4.34766H0.363281V1.19531ZM14.9414 1.19531H18.1758V6.52734C18.3477 6.35547 18.5391 6.19141 18.75 6.03516C18.9688 5.87109 19.207 5.73047 19.4648 5.61328C19.7227 5.48828 20.0078 5.39062 20.3203 5.32031C20.6406 5.24219 20.9922 5.20312 21.375 5.20312C22.0547 5.20312 22.6641 5.31641 23.2031 5.54297C23.7422 5.76172 24.1953 6.06641 24.5625 6.45703C24.9375 6.84766 25.2227 7.30469 25.418 7.82812C25.6133 8.35156 25.7109 8.91797 25.7109 9.52734V18H22.4766V10.6992C22.4766 10.2539 22.4258 9.87891 22.3242 9.57422C22.2227 9.26172 22.082 9.01172 21.9023 8.82422C21.7305 8.62891 21.5234 8.48828 21.2812 8.40234C21.0469 8.30859 20.7891 8.26172 20.5078 8.26172C20.1797 8.26172 19.8711 8.32031 19.582 8.4375C19.3008 8.55469 19.0547 8.73438 18.8438 8.97656C18.6328 9.21094 18.4688 9.50781 18.3516 9.86719C18.2344 10.2266 18.1758 10.6484 18.1758 11.1328V18H14.9414V1.19531ZM31.6523 18H28.418V5.44922H31.6523V18ZM28.0781 2.15625C28.0781 1.89062 28.1289 1.64062 28.2305 1.40625C28.332 1.16406 28.4688 0.957031 28.6406 0.785156C28.8203 0.605469 29.0273 0.464844 29.2617 0.363281C29.4961 0.261719 29.75 0.210938 30.0234 0.210938C30.2891 0.210938 30.5391 0.261719 30.7734 0.363281C31.0156 0.464844 31.2227 0.605469 31.3945 0.785156C31.5742 0.957031 31.7148 1.16406 31.8164 1.40625C31.918 1.64062 31.9688 1.89062 31.9688 2.15625C31.9688 2.42969 31.918 2.68359 31.8164 2.91797C31.7148 3.15234 31.5742 3.35938 31.3945 3.53906C31.2227 3.71094 31.0156 3.84766 30.7734 3.94922C30.5391 4.05078 30.2891 4.10156 30.0234 4.10156C29.75 4.10156 29.4961 4.05078 29.2617 3.94922C29.0273 3.84766 28.8203 3.71094 28.6406 3.53906C28.4688 3.35938 28.332 3.15234 28.2305 2.91797C28.1289 2.68359 28.0781 2.42969 28.0781 2.15625ZM35.332 13.9922C35.793 14.4062 36.3438 14.7617 36.9844 15.0586C37.625 15.3555 38.2734 15.5039 38.9297 15.5039C39.4062 15.5039 39.7812 15.4141 40.0547 15.2344C40.3281 15.0469 40.4648 14.8086 40.4648 14.5195C40.4648 14.0273 39.9375 13.6445 38.8828 13.3711L37.9688 13.125C37.5156 13.0156 37.0586 12.8672 36.5977 12.6797C36.1367 12.4844 35.7109 12.2305 35.3203 11.918C34.9375 11.6055 34.625 11.2266 34.3828 10.7812C34.1484 10.3281 34.0312 9.77344 34.0312 9.11719C34.0312 8.59375 34.1445 8.09766 34.3711 7.62891C34.6055 7.15234 34.9336 6.73438 35.3555 6.375C35.7852 6.01562 36.3047 5.73047 36.9141 5.51953C37.5234 5.30859 38.2031 5.20312 38.9531 5.20312C40.0234 5.20312 40.9766 5.37109 41.8125 5.70703C42.6562 6.04297 43.3203 6.42188 43.8047 6.84375L42.1172 9C41.7188 8.71094 41.2461 8.46484 40.6992 8.26172C40.1602 8.05078 39.6172 7.94531 39.0703 7.94531C38.5625 7.94531 38.168 8.03906 37.8867 8.22656C37.6055 8.40625 37.4648 8.625 37.4648 8.88281C37.4648 9.15625 37.5859 9.37891 37.8281 9.55078C38.0781 9.71484 38.4375 9.85938 38.9062 9.98438L40.2656 10.3711C41.5625 10.7383 42.4922 11.2344 43.0547 11.8594C43.6172 12.4844 43.8984 13.2734 43.8984 14.2266C43.8984 14.7578 43.7891 15.2656 43.5703 15.75C43.3516 16.2266 43.0312 16.6523 42.6094 17.0273C42.1875 17.4023 41.6641 17.6992 41.0391 17.918C40.4141 18.1289 39.7031 18.2344 38.9062 18.2344C38.2969 18.2344 37.7227 18.1797 37.1836 18.0703C36.6523 17.9609 36.1562 17.8125 35.6953 17.625C35.2422 17.4297 34.832 17.2109 34.4648 16.9688C34.0977 16.7266 33.7852 16.4844 33.5273 16.2422L35.332 13.9922ZM54.3867 12.9023C53.9883 12.9648 53.668 13.1055 53.4258 13.3242C53.1836 13.5352 53.0625 13.8242 53.0625 14.1914C53.0625 14.5977 53.2109 14.9492 53.5078 15.2461C53.8047 15.5352 54.2422 15.6797 54.8203 15.6797C55.4297 15.6797 55.9102 15.5039 56.2617 15.1523C56.6133 14.8008 56.7891 14.3359 56.7891 13.7578V12.4922L54.3867 12.9023ZM57.3164 16.8164C57.1836 16.9648 57.0195 17.125 56.8242 17.2969C56.6367 17.4609 56.4102 17.6133 56.1445 17.7539C55.8867 17.8867 55.582 18 55.2305 18.0938C54.8789 18.1875 54.4844 18.2344 54.0469 18.2344C53.4219 18.2344 52.8438 18.1367 52.3125 17.9414C51.7891 17.7383 51.3281 17.457 50.9297 17.0977C50.5312 16.7383 50.2188 16.3242 49.9922 15.8555C49.7656 15.3789 49.6523 14.8633 49.6523 14.3086C49.6523 13.3008 49.9648 12.4766 50.5898 11.8359C51.2148 11.1953 52.0781 10.793 53.1797 10.6289L56.7891 10.1016V9.86719C56.7891 9.30469 56.6172 8.85938 56.2734 8.53125C55.9297 8.20312 55.3711 8.03906 54.5977 8.03906C54.2773 8.03906 53.9531 8.07812 53.625 8.15625C53.2969 8.22656 52.9805 8.30859 52.6758 8.40234C52.3789 8.49609 52.1016 8.60547 51.8438 8.73047C51.5859 8.84766 51.3594 8.95312 51.1641 9.04688L49.8984 6.57422C50.6172 6.17578 51.4141 5.84766 52.2891 5.58984C53.1719 5.33203 54.0859 5.20312 55.0312 5.20312C55.6094 5.20312 56.1914 5.26562 56.7773 5.39062C57.3711 5.50781 57.9062 5.72656 58.3828 6.04688C58.8672 6.36719 59.2617 6.80469 59.5664 7.35938C59.8711 7.90625 60.0234 8.60547 60.0234 9.45703V14.6133C60.0234 14.9805 60.1172 15.2539 60.3047 15.4336C60.5 15.6055 60.7656 15.7656 61.1016 15.9141L59.6367 18.2344C59.043 18.1719 58.5664 18.0195 58.207 17.7773C57.8477 17.5273 57.5508 17.207 57.3164 16.8164ZM65.9648 21.9609H62.7305V5.44922H65.9648V6.52734C66.3164 6.16016 66.75 5.84766 67.2656 5.58984C67.7812 5.33203 68.4062 5.20312 69.1406 5.20312C69.9688 5.20312 70.7188 5.37109 71.3906 5.70703C72.0703 6.03516 72.6523 6.49219 73.1367 7.07812C73.6211 7.65625 73.9961 8.34375 74.2617 9.14062C74.5273 9.9375 74.6602 10.8008 74.6602 11.7305C74.6602 12.6602 74.5234 13.5234 74.25 14.3203C73.9766 15.1172 73.5938 15.8047 73.1016 16.3828C72.6094 16.9609 72.0195 17.4141 71.332 17.7422C70.6445 18.0703 69.8867 18.2344 69.0586 18.2344C68.6914 18.2344 68.3555 18.1992 68.0508 18.1289C67.7539 18.0664 67.4805 17.9766 67.2305 17.8594C66.9805 17.7422 66.75 17.6055 66.5391 17.4492C66.3281 17.2852 66.1367 17.1094 65.9648 16.9219V21.9609ZM65.8711 12.8906C65.8711 13.2266 65.9297 13.5391 66.0469 13.8281C66.1719 14.1094 66.3477 14.3555 66.5742 14.5664C66.8008 14.7773 67.0703 14.9414 67.3828 15.0586C67.7031 15.1758 68.0625 15.2344 68.4609 15.2344C68.9219 15.2344 69.3281 15.1523 69.6797 14.9883C70.0391 14.8164 70.3398 14.5781 70.582 14.2734C70.8242 13.9688 71.0078 13.6094 71.1328 13.1953C71.2578 12.7734 71.3203 12.3125 71.3203 11.8125V11.6602C71.3203 11.1602 71.2578 10.6992 71.1328 10.2773C71.0078 9.85547 70.8242 9.49219 70.582 9.1875C70.3398 8.875 70.0391 8.63281 69.6797 8.46094C69.3281 8.28906 68.9219 8.20312 68.4609 8.20312C68.0625 8.20312 67.7031 8.26172 67.3828 8.37891C67.0703 8.49609 66.8008 8.66016 66.5742 8.87109C66.3477 9.08203 66.1719 9.33203 66.0469 9.62109C65.9297 9.91016 65.8711 10.2227 65.8711 10.5586V12.8906ZM80.0508 21.9609H76.8164V5.44922H80.0508V6.52734C80.4023 6.16016 80.8359 5.84766 81.3516 5.58984C81.8672 5.33203 82.4922 5.20312 83.2266 5.20312C84.0547 5.20312 84.8047 5.37109 85.4766 5.70703C86.1562 6.03516 86.7383 6.49219 87.2227 7.07812C87.707 7.65625 88.082 8.34375 88.3477 9.14062C88.6133 9.9375 88.7461 10.8008 88.7461 11.7305C88.7461 12.6602 88.6094 13.5234 88.3359 14.3203C88.0625 15.1172 87.6797 15.8047 87.1875 16.3828C86.6953 16.9609 86.1055 17.4141 85.418 17.7422C84.7305 18.0703 83.9727 18.2344 83.1445 18.2344C82.7773 18.2344 82.4414 18.1992 82.1367 18.1289C81.8398 18.0664 81.5664 17.9766 81.3164 17.8594C81.0664 17.7422 80.8359 17.6055 80.625 17.4492C80.4141 17.2852 80.2227 17.1094 80.0508 16.9219V21.9609ZM79.957 12.8906C79.957 13.2266 80.0156 13.5391 80.1328 13.8281C80.2578 14.1094 80.4336 14.3555 80.6602 14.5664C80.8867 14.7773 81.1562 14.9414 81.4688 15.0586C81.7891 15.1758 82.1484 15.2344 82.5469 15.2344C83.0078 15.2344 83.4141 15.1523 83.7656 14.9883C84.125 14.8164 84.4258 14.5781 84.668 14.2734C84.9102 13.9688 85.0938 13.6094 85.2188 13.1953C85.3438 12.7734 85.4062 12.3125 85.4062 11.8125V11.6602C85.4062 11.1602 85.3438 10.6992 85.2188 10.2773C85.0938 9.85547 84.9102 9.49219 84.668 9.1875C84.4258 8.875 84.125 8.63281 83.7656 8.46094C83.4141 8.28906 83.0078 8.20312 82.5469 8.20312C82.1484 8.20312 81.7891 8.26172 81.4688 8.37891C81.1562 8.49609 80.8867 8.66016 80.6602 8.87109C80.4336 9.08203 80.2578 9.33203 80.1328 9.62109C80.0156 9.91016 79.957 10.2227 79.957 10.5586V12.8906ZM93.6094 12.8438C93.6641 13.2188 93.7812 13.5625 93.9609 13.875C94.1484 14.1875 94.3828 14.457 94.6641 14.6836C94.9453 14.9023 95.2695 15.0742 95.6367 15.1992C96.0039 15.3242 96.3945 15.3867 96.8086 15.3867C97.2852 15.3867 97.8008 15.2969 98.3555 15.1172C98.9102 14.9297 99.418 14.6602 99.8789 14.3086L101.438 16.582C100.852 17.0742 100.133 17.4727 99.2812 17.7773C98.4297 18.082 97.5234 18.2344 96.5625 18.2344C95.6953 18.2344 94.8789 18.0859 94.1133 17.7891C93.3477 17.4922 92.6758 17.0625 92.0977 16.5C91.5273 15.9375 91.0742 15.2539 90.7383 14.4492C90.4102 13.6445 90.2461 12.7383 90.2461 11.7305C90.2461 10.8086 90.3906 9.94922 90.6797 9.15234C90.9766 8.35547 91.3867 7.66406 91.9102 7.07812C92.4414 6.49219 93.0742 6.03516 93.8086 5.70703C94.543 5.37109 95.3555 5.20312 96.2461 5.20312C97.0742 5.20312 97.8438 5.35547 98.5547 5.66016C99.2656 5.95703 99.8828 6.37891 100.406 6.92578C100.93 7.46484 101.34 8.11328 101.637 8.87109C101.934 9.62891 102.082 10.4648 102.082 11.3789V12.8438H93.6094ZM96.2344 8.01562C95.5391 8.01562 94.9492 8.25 94.4648 8.71875C93.9883 9.17969 93.7109 9.73828 93.6328 10.3945H98.6953C98.6797 9.73047 98.4375 9.16797 97.9688 8.70703C97.5 8.24609 96.9219 8.01562 96.2344 8.01562ZM108.199 12.9023C107.801 12.9648 107.48 13.1055 107.238 13.3242C106.996 13.5352 106.875 13.8242 106.875 14.1914C106.875 14.5977 107.023 14.9492 107.32 15.2461C107.617 15.5352 108.055 15.6797 108.633 15.6797C109.242 15.6797 109.723 15.5039 110.074 15.1523C110.426 14.8008 110.602 14.3359 110.602 13.7578V12.4922L108.199 12.9023ZM111.129 16.8164C110.996 16.9648 110.832 17.125 110.637 17.2969C110.449 17.4609 110.223 17.6133 109.957 17.7539C109.699 17.8867 109.395 18 109.043 18.0938C108.691 18.1875 108.297 18.2344 107.859 18.2344C107.234 18.2344 106.656 18.1367 106.125 17.9414C105.602 17.7383 105.141 17.457 104.742 17.0977C104.344 16.7383 104.031 16.3242 103.805 15.8555C103.578 15.3789 103.465 14.8633 103.465 14.3086C103.465 13.3008 103.777 12.4766 104.402 11.8359C105.027 11.1953 105.891 10.793 106.992 10.6289L110.602 10.1016V9.86719C110.602 9.30469 110.43 8.85938 110.086 8.53125C109.742 8.20312 109.184 8.03906 108.41 8.03906C108.09 8.03906 107.766 8.07812 107.438 8.15625C107.109 8.22656 106.793 8.30859 106.488 8.40234C106.191 8.49609 105.914 8.60547 105.656 8.73047C105.398 8.84766 105.172 8.95312 104.977 9.04688L103.711 6.57422C104.43 6.17578 105.227 5.84766 106.102 5.58984C106.984 5.33203 107.898 5.20312 108.844 5.20312C109.422 5.20312 110.004 5.26562 110.59 5.39062C111.184 5.50781 111.719 5.72656 112.195 6.04688C112.68 6.36719 113.074 6.80469 113.379 7.35938C113.684 7.90625 113.836 8.60547 113.836 9.45703V14.6133C113.836 14.9805 113.93 15.2539 114.117 15.4336C114.312 15.6055 114.578 15.7656 114.914 15.9141L113.449 18.2344C112.855 18.1719 112.379 18.0195 112.02 17.7773C111.66 17.5273 111.363 17.207 111.129 16.8164ZM116.496 1.19531H119.73V14.5898C119.73 14.8555 119.805 15.0586 119.953 15.1992C120.109 15.3398 120.355 15.4102 120.691 15.4102C120.848 15.4102 120.98 15.4023 121.09 15.3867C121.207 15.3633 121.355 15.332 121.535 15.293L121.793 18.0469C121.574 18.0781 121.34 18.1094 121.09 18.1406C120.879 18.1641 120.633 18.1836 120.352 18.1992C120.078 18.2227 119.793 18.2344 119.496 18.2344C119.035 18.2344 118.621 18.1758 118.254 18.0586C117.887 17.9414 117.57 17.7695 117.305 17.543C117.047 17.3086 116.848 17.0195 116.707 16.6758C116.566 16.332 116.496 15.9336 116.496 15.4805V1.19531ZM127.324 1.19531H130.559V6.52734C130.73 6.35547 130.922 6.19141 131.133 6.03516C131.352 5.87109 131.59 5.73047 131.848 5.61328C132.105 5.48828 132.391 5.39062 132.703 5.32031C133.023 5.24219 133.375 5.20312 133.758 5.20312C134.438 5.20312 135.047 5.31641 135.586 5.54297C136.125 5.76172 136.578 6.06641 136.945 6.45703C137.32 6.84766 137.605 7.30469 137.801 7.82812C137.996 8.35156 138.094 8.91797 138.094 9.52734V18H134.859V10.6992C134.859 10.2539 134.809 9.87891 134.707 9.57422C134.605 9.26172 134.465 9.01172 134.285 8.82422C134.113 8.62891 133.906 8.48828 133.664 8.40234C133.43 8.30859 133.172 8.26172 132.891 8.26172C132.562 8.26172 132.254 8.32031 131.965 8.4375C131.684 8.55469 131.438 8.73438 131.227 8.97656C131.016 9.21094 130.852 9.50781 130.734 9.86719C130.617 10.2266 130.559 10.6484 130.559 11.1328V18H127.324V1.19531ZM144.855 12.9023C144.457 12.9648 144.137 13.1055 143.895 13.3242C143.652 13.5352 143.531 13.8242 143.531 14.1914C143.531 14.5977 143.68 14.9492 143.977 15.2461C144.273 15.5352 144.711 15.6797 145.289 15.6797C145.898 15.6797 146.379 15.5039 146.73 15.1523C147.082 14.8008 147.258 14.3359 147.258 13.7578V12.4922L144.855 12.9023ZM147.785 16.8164C147.652 16.9648 147.488 17.125 147.293 17.2969C147.105 17.4609 146.879 17.6133 146.613 17.7539C146.355 17.8867 146.051 18 145.699 18.0938C145.348 18.1875 144.953 18.2344 144.516 18.2344C143.891 18.2344 143.312 18.1367 142.781 17.9414C142.258 17.7383 141.797 17.457 141.398 17.0977C141 16.7383 140.688 16.3242 140.461 15.8555C140.234 15.3789 140.121 14.8633 140.121 14.3086C140.121 13.3008 140.434 12.4766 141.059 11.8359C141.684 11.1953 142.547 10.793 143.648 10.6289L147.258 10.1016V9.86719C147.258 9.30469 147.086 8.85938 146.742 8.53125C146.398 8.20312 145.84 8.03906 145.066 8.03906C144.746 8.03906 144.422 8.07812 144.094 8.15625C143.766 8.22656 143.449 8.30859 143.145 8.40234C142.848 8.49609 142.57 8.60547 142.312 8.73047C142.055 8.84766 141.828 8.95312 141.633 9.04688L140.367 6.57422C141.086 6.17578 141.883 5.84766 142.758 5.58984C143.641 5.33203 144.555 5.20312 145.5 5.20312C146.078 5.20312 146.66 5.26562 147.246 5.39062C147.84 5.50781 148.375 5.72656 148.852 6.04688C149.336 6.36719 149.73 6.80469 150.035 7.35938C150.34 7.90625 150.492 8.60547 150.492 9.45703V14.6133C150.492 14.9805 150.586 15.2539 150.773 15.4336C150.969 15.6055 151.234 15.7656 151.57 15.9141L150.105 18.2344C149.512 18.1719 149.035 18.0195 148.676 17.7773C148.316 17.5273 148.02 17.207 147.785 16.8164ZM154.09 13.9922C154.551 14.4062 155.102 14.7617 155.742 15.0586C156.383 15.3555 157.031 15.5039 157.688 15.5039C158.164 15.5039 158.539 15.4141 158.812 15.2344C159.086 15.0469 159.223 14.8086 159.223 14.5195C159.223 14.0273 158.695 13.6445 157.641 13.3711L156.727 13.125C156.273 13.0156 155.816 12.8672 155.355 12.6797C154.895 12.4844 154.469 12.2305 154.078 11.918C153.695 11.6055 153.383 11.2266 153.141 10.7812C152.906 10.3281 152.789 9.77344 152.789 9.11719C152.789 8.59375 152.902 8.09766 153.129 7.62891C153.363 7.15234 153.691 6.73438 154.113 6.375C154.543 6.01562 155.062 5.73047 155.672 5.51953C156.281 5.30859 156.961 5.20312 157.711 5.20312C158.781 5.20312 159.734 5.37109 160.57 5.70703C161.414 6.04297 162.078 6.42188 162.562 6.84375L160.875 9C160.477 8.71094 160.004 8.46484 159.457 8.26172C158.918 8.05078 158.375 7.94531 157.828 7.94531C157.32 7.94531 156.926 8.03906 156.645 8.22656C156.363 8.40625 156.223 8.625 156.223 8.88281C156.223 9.15625 156.344 9.37891 156.586 9.55078C156.836 9.71484 157.195 9.85938 157.664 9.98438L159.023 10.3711C160.32 10.7383 161.25 11.2344 161.812 11.8594C162.375 12.4844 162.656 13.2734 162.656 14.2266C162.656 14.7578 162.547 15.2656 162.328 15.75C162.109 16.2266 161.789 16.6523 161.367 17.0273C160.945 17.4023 160.422 17.6992 159.797 17.918C159.172 18.1289 158.461 18.2344 157.664 18.2344C157.055 18.2344 156.48 18.1797 155.941 18.0703C155.41 17.9609 154.914 17.8125 154.453 17.625C154 17.4297 153.59 17.2109 153.223 16.9688C152.855 16.7266 152.543 16.4844 152.285 16.2422L154.09 13.9922ZM181.02 11.7305C181.02 12.6602 180.883 13.5234 180.609 14.3203C180.336 15.1172 179.953 15.8047 179.461 16.3828C178.969 16.9609 178.379 17.4141 177.691 17.7422C177.004 18.0703 176.246 18.2344 175.418 18.2344C175.051 18.2344 174.715 18.1992 174.41 18.1289C174.113 18.0664 173.84 17.9766 173.59 17.8594C173.34 17.7422 173.109 17.6055 172.898 17.4492C172.688 17.2852 172.496 17.1094 172.324 16.9219V18H169.09V1.19531H172.324V6.52734C172.676 6.16016 173.109 5.84766 173.625 5.58984C174.141 5.33203 174.766 5.20312 175.5 5.20312C176.328 5.20312 177.078 5.37109 177.75 5.70703C178.43 6.03516 179.012 6.49219 179.496 7.07812C179.98 7.65625 180.355 8.34375 180.621 9.14062C180.887 9.9375 181.02 10.8008 181.02 11.7305ZM172.23 12.8906C172.23 13.2266 172.289 13.5391 172.406 13.8281C172.531 14.1094 172.707 14.3555 172.934 14.5664C173.16 14.7773 173.43 14.9414 173.742 15.0586C174.062 15.1758 174.422 15.2344 174.82 15.2344C175.281 15.2344 175.688 15.1523 176.039 14.9883C176.398 14.8164 176.699 14.5781 176.941 14.2734C177.184 13.9688 177.367 13.6094 177.492 13.1953C177.617 12.7734 177.68 12.3125 177.68 11.8125V11.6602C177.68 11.1602 177.617 10.6992 177.492 10.2773C177.367 9.85547 177.184 9.49219 176.941 9.1875C176.699 8.875 176.398 8.63281 176.039 8.46094C175.688 8.28906 175.281 8.20312 174.82 8.20312C174.422 8.20312 174.062 8.26172 173.742 8.37891C173.43 8.49609 173.16 8.66016 172.934 8.87109C172.707 9.08203 172.531 9.33203 172.406 9.62109C172.289 9.91016 172.23 10.2227 172.23 10.5586V12.8906ZM185.883 12.8438C185.938 13.2188 186.055 13.5625 186.234 13.875C186.422 14.1875 186.656 14.457 186.938 14.6836C187.219 14.9023 187.543 15.0742 187.91 15.1992C188.277 15.3242 188.668 15.3867 189.082 15.3867C189.559 15.3867 190.074 15.2969 190.629 15.1172C191.184 14.9297 191.691 14.6602 192.152 14.3086L193.711 16.582C193.125 17.0742 192.406 17.4727 191.555 17.7773C190.703 18.082 189.797 18.2344 188.836 18.2344C187.969 18.2344 187.152 18.0859 186.387 17.7891C185.621 17.4922 184.949 17.0625 184.371 16.5C183.801 15.9375 183.348 15.2539 183.012 14.4492C182.684 13.6445 182.52 12.7383 182.52 11.7305C182.52 10.8086 182.664 9.94922 182.953 9.15234C183.25 8.35547 183.66 7.66406 184.184 7.07812C184.715 6.49219 185.348 6.03516 186.082 5.70703C186.816 5.37109 187.629 5.20312 188.52 5.20312C189.348 5.20312 190.117 5.35547 190.828 5.66016C191.539 5.95703 192.156 6.37891 192.68 6.92578C193.203 7.46484 193.613 8.11328 193.91 8.87109C194.207 9.62891 194.355 10.4648 194.355 11.3789V12.8438H185.883ZM188.508 8.01562C187.812 8.01562 187.223 8.25 186.738 8.71875C186.262 9.17969 185.984 9.73828 185.906 10.3945H190.969C190.953 9.73047 190.711 9.16797 190.242 8.70703C189.773 8.24609 189.195 8.01562 188.508 8.01562ZM199.125 12.8438C199.18 13.2188 199.297 13.5625 199.477 13.875C199.664 14.1875 199.898 14.457 200.18 14.6836C200.461 14.9023 200.785 15.0742 201.152 15.1992C201.52 15.3242 201.91 15.3867 202.324 15.3867C202.801 15.3867 203.316 15.2969 203.871 15.1172C204.426 14.9297 204.934 14.6602 205.395 14.3086L206.953 16.582C206.367 17.0742 205.648 17.4727 204.797 17.7773C203.945 18.082 203.039 18.2344 202.078 18.2344C201.211 18.2344 200.395 18.0859 199.629 17.7891C198.863 17.4922 198.191 17.0625 197.613 16.5C197.043 15.9375 196.59 15.2539 196.254 14.4492C195.926 13.6445 195.762 12.7383 195.762 11.7305C195.762 10.8086 195.906 9.94922 196.195 9.15234C196.492 8.35547 196.902 7.66406 197.426 7.07812C197.957 6.49219 198.59 6.03516 199.324 5.70703C200.059 5.37109 200.871 5.20312 201.762 5.20312C202.59 5.20312 203.359 5.35547 204.07 5.66016C204.781 5.95703 205.398 6.37891 205.922 6.92578C206.445 7.46484 206.855 8.11328 207.152 8.87109C207.449 9.62891 207.598 10.4648 207.598 11.3789V12.8438H199.125ZM201.75 8.01562C201.055 8.01562 200.465 8.25 199.98 8.71875C199.504 9.17969 199.227 9.73828 199.148 10.3945H204.211C204.195 9.73047 203.953 9.16797 203.484 8.70703C203.016 8.24609 202.438 8.01562 201.75 8.01562ZM209.66 5.44922H212.895V6.52734C213.066 6.35547 213.258 6.19141 213.469 6.03516C213.688 5.87109 213.926 5.73047 214.184 5.61328C214.441 5.48828 214.727 5.39062 215.039 5.32031C215.359 5.24219 215.711 5.20312 216.094 5.20312C216.773 5.20312 217.383 5.31641 217.922 5.54297C218.461 5.76172 218.914 6.06641 219.281 6.45703C219.656 6.84766 219.941 7.30469 220.137 7.82812C220.332 8.35156 220.43 8.91797 220.43 9.52734V18H217.195V10.6992C217.195 10.2539 217.145 9.87891 217.043 9.57422C216.941 9.26172 216.801 9.01172 216.621 8.82422C216.449 8.62891 216.242 8.48828 216 8.40234C215.766 8.30859 215.508 8.26172 215.227 8.26172C214.898 8.26172 214.59 8.32031 214.301 8.4375C214.02 8.55469 213.773 8.73438 213.562 8.97656C213.352 9.21094 213.188 9.50781 213.07 9.86719C212.953 10.2266 212.895 10.6484 212.895 11.1328V18H209.66V5.44922ZM234.527 8.58984H234.188C233.727 8.58984 233.285 8.63672 232.863 8.73047C232.449 8.82422 232.082 8.99609 231.762 9.24609C231.441 9.48828 231.184 9.82422 230.988 10.2539C230.801 10.6836 230.707 11.2344 230.707 11.9062V18H227.473V5.44922H230.707V6.86719C230.84 6.65625 231.012 6.45312 231.223 6.25781C231.434 6.0625 231.68 5.89062 231.961 5.74219C232.242 5.58594 232.559 5.46094 232.91 5.36719C233.262 5.27344 233.641 5.22656 234.047 5.22656H234.527V8.58984ZM239.25 12.8438C239.305 13.2188 239.422 13.5625 239.602 13.875C239.789 14.1875 240.023 14.457 240.305 14.6836C240.586 14.9023 240.91 15.0742 241.277 15.1992C241.645 15.3242 242.035 15.3867 242.449 15.3867C242.926 15.3867 243.441 15.2969 243.996 15.1172C244.551 14.9297 245.059 14.6602 245.52 14.3086L247.078 16.582C246.492 17.0742 245.773 17.4727 244.922 17.7773C244.07 18.082 243.164 18.2344 242.203 18.2344C241.336 18.2344 240.52 18.0859 239.754 17.7891C238.988 17.4922 238.316 17.0625 237.738 16.5C237.168 15.9375 236.715 15.2539 236.379 14.4492C236.051 13.6445 235.887 12.7383 235.887 11.7305C235.887 10.8086 236.031 9.94922 236.32 9.15234C236.617 8.35547 237.027 7.66406 237.551 7.07812C238.082 6.49219 238.715 6.03516 239.449 5.70703C240.184 5.37109 240.996 5.20312 241.887 5.20312C242.715 5.20312 243.484 5.35547 244.195 5.66016C244.906 5.95703 245.523 6.37891 246.047 6.92578C246.57 7.46484 246.98 8.11328 247.277 8.87109C247.574 9.62891 247.723 10.4648 247.723 11.3789V12.8438H239.25ZM241.875 8.01562C241.18 8.01562 240.59 8.25 240.105 8.71875C239.629 9.17969 239.352 9.73828 239.273 10.3945H244.336C244.32 9.73047 244.078 9.16797 243.609 8.70703C243.141 8.24609 242.562 8.01562 241.875 8.01562ZM260.367 18H257.121V10.6992C257.121 10.2539 257.07 9.87891 256.969 9.57422C256.875 9.26172 256.742 9.01172 256.57 8.82422C256.398 8.62891 256.199 8.49219 255.973 8.41406C255.746 8.32812 255.5 8.28516 255.234 8.28516C254.922 8.28516 254.629 8.33984 254.355 8.44922C254.09 8.55859 253.855 8.73047 253.652 8.96484C253.457 9.19922 253.301 9.5 253.184 9.86719C253.074 10.2266 253.02 10.6562 253.02 11.1562V18H249.785V5.44922H253.02V6.55078C253.434 6.08984 253.914 5.75 254.461 5.53125C255.016 5.3125 255.609 5.20312 256.242 5.20312C256.891 5.20312 257.496 5.33594 258.059 5.60156C258.629 5.86719 259.102 6.30469 259.477 6.91406C259.695 6.60156 259.945 6.33594 260.227 6.11719C260.516 5.89844 260.824 5.72266 261.152 5.58984C261.48 5.45703 261.82 5.35938 262.172 5.29688C262.531 5.23438 262.898 5.20312 263.273 5.20312C263.977 5.20312 264.602 5.32031 265.148 5.55469C265.703 5.78125 266.172 6.08984 266.555 6.48047C266.938 6.87109 267.23 7.32031 267.434 7.82812C267.637 8.33594 267.738 8.87109 267.738 9.43359V18H264.469V10.6992C264.469 10.2539 264.418 9.87891 264.316 9.57422C264.223 9.26172 264.09 9.01172 263.918 8.82422C263.746 8.62891 263.543 8.49219 263.309 8.41406C263.082 8.32812 262.836 8.28516 262.57 8.28516C262.258 8.28516 261.969 8.33984 261.703 8.44922C261.438 8.55859 261.203 8.73047 261 8.96484C260.805 9.19922 260.648 9.5 260.531 9.86719C260.422 10.2266 260.367 10.6562 260.367 11.1562V18ZM273.668 18H270.434V5.44922H273.668V18ZM270.094 2.15625C270.094 1.89062 270.145 1.64062 270.246 1.40625C270.348 1.16406 270.484 0.957031 270.656 0.785156C270.836 0.605469 271.043 0.464844 271.277 0.363281C271.512 0.261719 271.766 0.210938 272.039 0.210938C272.305 0.210938 272.555 0.261719 272.789 0.363281C273.031 0.464844 273.238 0.605469 273.41 0.785156C273.59 0.957031 273.73 1.16406 273.832 1.40625C273.934 1.64062 273.984 1.89062 273.984 2.15625C273.984 2.42969 273.934 2.68359 273.832 2.91797C273.73 3.15234 273.59 3.35938 273.41 3.53906C273.238 3.71094 273.031 3.84766 272.789 3.94922C272.555 4.05078 272.305 4.10156 272.039 4.10156C271.766 4.10156 271.512 4.05078 271.277 3.94922C271.043 3.84766 270.836 3.71094 270.656 3.53906C270.484 3.35938 270.348 3.15234 270.246 2.91797C270.145 2.68359 270.094 2.42969 270.094 2.15625ZM281.086 14.2617C281.086 14.4102 281.105 14.5508 281.145 14.6836C281.184 14.8164 281.25 14.9336 281.344 15.0352C281.445 15.1289 281.586 15.2031 281.766 15.2578C281.945 15.3125 282.176 15.3398 282.457 15.3398C282.574 15.3398 282.707 15.3359 282.855 15.3281C283.004 15.3125 283.152 15.2969 283.301 15.2812C283.449 15.2656 283.586 15.2461 283.711 15.2227C283.844 15.1992 283.953 15.1797 284.039 15.1641L284.332 18.0234C284.027 18.0625 283.711 18.0977 283.383 18.1289C283.102 18.1602 282.789 18.1836 282.445 18.1992C282.102 18.2227 281.754 18.2344 281.402 18.2344C280.285 18.2344 279.414 17.9805 278.789 17.4727C278.164 16.9648 277.852 16.1562 277.852 15.0469V8.26172H275.59V5.44922H277.852V1.89844L281.086 1.03125V5.44922H284.379V8.26172H281.086V14.2617ZM291.047 14.2617C291.047 14.4102 291.066 14.5508 291.105 14.6836C291.145 14.8164 291.211 14.9336 291.305 15.0352C291.406 15.1289 291.547 15.2031 291.727 15.2578C291.906 15.3125 292.137 15.3398 292.418 15.3398C292.535 15.3398 292.668 15.3359 292.816 15.3281C292.965 15.3125 293.113 15.2969 293.262 15.2812C293.41 15.2656 293.547 15.2461 293.672 15.2227C293.805 15.1992 293.914 15.1797 294 15.1641L294.293 18.0234C293.988 18.0625 293.672 18.0977 293.344 18.1289C293.062 18.1602 292.75 18.1836 292.406 18.1992C292.062 18.2227 291.715 18.2344 291.363 18.2344C290.246 18.2344 289.375 17.9805 288.75 17.4727C288.125 16.9648 287.812 16.1562 287.812 15.0469V8.26172H285.551V5.44922H287.812V1.89844L291.047 1.03125V5.44922H294.34V8.26172H291.047V14.2617ZM299.086 12.8438C299.141 13.2188 299.258 13.5625 299.438 13.875C299.625 14.1875 299.859 14.457 300.141 14.6836C300.422 14.9023 300.746 15.0742 301.113 15.1992C301.48 15.3242 301.871 15.3867 302.285 15.3867C302.762 15.3867 303.277 15.2969 303.832 15.1172C304.387 14.9297 304.895 14.6602 305.355 14.3086L306.914 16.582C306.328 17.0742 305.609 17.4727 304.758 17.7773C303.906 18.082 303 18.2344 302.039 18.2344C301.172 18.2344 300.355 18.0859 299.59 17.7891C298.824 17.4922 298.152 17.0625 297.574 16.5C297.004 15.9375 296.551 15.2539 296.215 14.4492C295.887 13.6445 295.723 12.7383 295.723 11.7305C295.723 10.8086 295.867 9.94922 296.156 9.15234C296.453 8.35547 296.863 7.66406 297.387 7.07812C297.918 6.49219 298.551 6.03516 299.285 5.70703C300.02 5.37109 300.832 5.20312 301.723 5.20312C302.551 5.20312 303.32 5.35547 304.031 5.66016C304.742 5.95703 305.359 6.37891 305.883 6.92578C306.406 7.46484 306.816 8.11328 307.113 8.87109C307.41 9.62891 307.559 10.4648 307.559 11.3789V12.8438H299.086ZM301.711 8.01562C301.016 8.01562 300.426 8.25 299.941 8.71875C299.465 9.17969 299.188 9.73828 299.109 10.3945H304.172C304.156 9.73047 303.914 9.16797 303.445 8.70703C302.977 8.24609 302.398 8.01562 301.711 8.01562ZM317.684 18V16.9219C317.512 17.1094 317.32 17.2852 317.109 17.4492C316.906 17.6055 316.676 17.7422 316.418 17.8594C316.168 17.9766 315.891 18.0664 315.586 18.1289C315.289 18.1992 314.957 18.2344 314.59 18.2344C313.762 18.2344 313.004 18.0703 312.316 17.7422C311.629 17.4141 311.039 16.9609 310.547 16.3828C310.055 15.8047 309.672 15.1172 309.398 14.3203C309.133 13.5234 309 12.6602 309 11.7305C309 10.8008 309.133 9.9375 309.398 9.14062C309.664 8.34375 310.035 7.65625 310.512 7.07812C310.996 6.49219 311.578 6.03516 312.258 5.70703C312.938 5.37109 313.691 5.20312 314.52 5.20312C315.254 5.20312 315.875 5.33203 316.383 5.58984C316.898 5.83984 317.332 6.15234 317.684 6.52734V1.19531H320.918V18H317.684ZM317.777 10.5586C317.777 10.2227 317.715 9.91016 317.59 9.62109C317.473 9.33203 317.301 9.08203 317.074 8.87109C316.848 8.66016 316.574 8.49609 316.254 8.37891C315.941 8.26172 315.586 8.20312 315.188 8.20312C314.727 8.20312 314.316 8.28906 313.957 8.46094C313.605 8.63281 313.309 8.875 313.066 9.1875C312.824 9.49219 312.641 9.85547 312.516 10.2773C312.391 10.6992 312.328 11.1602 312.328 11.6602V11.8125C312.328 12.3125 312.391 12.7734 312.516 13.1953C312.641 13.6094 312.824 13.9688 313.066 14.2734C313.309 14.5781 313.605 14.8164 313.957 14.9883C314.316 15.1523 314.727 15.2344 315.188 15.2344C315.586 15.2344 315.941 15.1758 316.254 15.0586C316.574 14.9414 316.848 14.7773 317.074 14.5664C317.301 14.3555 317.473 14.1094 317.59 13.8281C317.715 13.5391 317.777 13.2266 317.777 12.8906V10.5586Z" fill="black"/>
</svg>
