<svg width="650" height="33" viewBox="0 0 650 33" fill="none" xmlns="http://www.w3.org/2000/svg">
<rect width="265" height="33" fill="#1D70B8"/>
<path d="M17.7207 21.0322H12.7944L12.043 23.5H9.18555L13.5366 10.1963H17.0713L21.4873 23.5H18.4814L17.7207 21.0322ZM13.5181 18.6572H16.9971L15.2715 13.0352H15.2344L13.5181 18.6572ZM25.3188 26.6357H22.7583V13.564H25.3188V14.4175C25.5972 14.1268 25.9404 13.8794 26.3486 13.6753C26.7568 13.4712 27.2516 13.3691 27.833 13.3691C28.4886 13.3691 29.0824 13.5021 29.6143 13.7681C30.1523 14.0278 30.6131 14.3896 30.9966 14.8535C31.38 15.3112 31.6769 15.8555 31.8872 16.4863C32.0975 17.1172 32.2026 17.8006 32.2026 18.5366C32.2026 19.2726 32.0944 19.9561 31.8779 20.5869C31.6615 21.2178 31.3584 21.762 30.9688 22.2197C30.5791 22.6774 30.1121 23.0361 29.5679 23.2959C29.0236 23.5557 28.4237 23.6855 27.7681 23.6855C27.4774 23.6855 27.2114 23.6577 26.9702 23.6021C26.7352 23.5526 26.5187 23.4814 26.3208 23.3887C26.1229 23.2959 25.9404 23.1877 25.7734 23.064C25.6064 22.9341 25.4549 22.7949 25.3188 22.6465V26.6357ZM25.2446 19.4551C25.2446 19.721 25.291 19.9684 25.3838 20.1973C25.4827 20.4199 25.6219 20.6147 25.8013 20.7817C25.9806 20.9487 26.194 21.0786 26.4414 21.1714C26.695 21.2642 26.9795 21.3105 27.2949 21.3105C27.6598 21.3105 27.9814 21.2456 28.2598 21.1157C28.5443 20.9797 28.7824 20.791 28.9741 20.5498C29.1659 20.3086 29.3112 20.0241 29.4102 19.6963C29.5091 19.3623 29.5586 18.9974 29.5586 18.6016V18.481C29.5586 18.0851 29.5091 17.7202 29.4102 17.3862C29.3112 17.0522 29.1659 16.7646 28.9741 16.5234C28.7824 16.276 28.5443 16.0843 28.2598 15.9482C27.9814 15.8122 27.6598 15.7441 27.2949 15.7441C26.9795 15.7441 26.695 15.7905 26.4414 15.8833C26.194 15.9761 25.9806 16.106 25.8013 16.2729C25.6219 16.4399 25.4827 16.6379 25.3838 16.8667C25.291 17.0955 25.2446 17.3429 25.2446 17.6089V19.4551ZM36.4702 26.6357H33.9097V13.564H36.4702V14.4175C36.7485 14.1268 37.0918 13.8794 37.5 13.6753C37.9082 13.4712 38.403 13.3691 38.9844 13.3691C39.64 13.3691 40.2337 13.5021 40.7656 13.7681C41.3037 14.0278 41.7645 14.3896 42.1479 14.8535C42.5314 15.3112 42.8283 15.8555 43.0386 16.4863C43.2489 17.1172 43.354 17.8006 43.354 18.5366C43.354 19.2726 43.2458 19.9561 43.0293 20.5869C42.8128 21.2178 42.5098 21.762 42.1201 22.2197C41.7305 22.6774 41.2635 23.0361 40.7192 23.2959C40.175 23.5557 39.575 23.6855 38.9194 23.6855C38.6287 23.6855 38.3628 23.6577 38.1216 23.6021C37.8866 23.5526 37.6701 23.4814 37.4722 23.3887C37.2743 23.2959 37.0918 23.1877 36.9248 23.064C36.7578 22.9341 36.6063 22.7949 36.4702 22.6465V26.6357ZM36.396 19.4551C36.396 19.721 36.4424 19.9684 36.5352 20.1973C36.6341 20.4199 36.7733 20.6147 36.9526 20.7817C37.132 20.9487 37.3454 21.0786 37.5928 21.1714C37.8464 21.2642 38.1309 21.3105 38.4463 21.3105C38.8112 21.3105 39.1328 21.2456 39.4111 21.1157C39.6956 20.9797 39.9338 20.791 40.1255 20.5498C40.3172 20.3086 40.4626 20.0241 40.5615 19.6963C40.6605 19.3623 40.71 18.9974 40.71 18.6016V18.481C40.71 18.0851 40.6605 17.7202 40.5615 17.3862C40.4626 17.0522 40.3172 16.7646 40.1255 16.5234C39.9338 16.276 39.6956 16.0843 39.4111 15.9482C39.1328 15.8122 38.8112 15.7441 38.4463 15.7441C38.1309 15.7441 37.8464 15.7905 37.5928 15.8833C37.3454 15.9761 37.132 16.106 36.9526 16.2729C36.7733 16.4399 36.6341 16.6379 36.5352 16.8667C36.4424 17.0955 36.396 17.3429 36.396 17.6089V19.4551ZM47.2041 19.418C47.2474 19.7148 47.3402 19.987 47.4824 20.2344C47.6309 20.4818 47.8164 20.6951 48.0391 20.8745C48.2617 21.0477 48.5184 21.1838 48.8091 21.2827C49.0998 21.3817 49.409 21.4312 49.7368 21.4312C50.1141 21.4312 50.5223 21.36 50.9614 21.2178C51.4006 21.0693 51.8026 20.856 52.1675 20.5776L53.4014 22.3774C52.9375 22.7671 52.3685 23.0825 51.6943 23.3237C51.0202 23.5649 50.3027 23.6855 49.542 23.6855C48.8555 23.6855 48.2091 23.568 47.603 23.333C46.9969 23.098 46.465 22.7578 46.0073 22.3125C45.5558 21.8672 45.1971 21.326 44.9312 20.689C44.6714 20.0519 44.5415 19.3345 44.5415 18.5366C44.5415 17.8068 44.6559 17.1265 44.8848 16.4956C45.1198 15.8647 45.4445 15.3174 45.8589 14.8535C46.2795 14.3896 46.7804 14.0278 47.3618 13.7681C47.9432 13.5021 48.5864 13.3691 49.2915 13.3691C49.9471 13.3691 50.5563 13.4897 51.1191 13.731C51.682 13.966 52.1706 14.3 52.585 14.7329C52.9993 15.1597 53.3241 15.673 53.5591 16.2729C53.7941 16.8729 53.9116 17.5347 53.9116 18.2583V19.418H47.2041ZM49.2822 15.5957C48.7318 15.5957 48.2648 15.7812 47.8813 16.1523C47.5041 16.5173 47.2845 16.9595 47.2227 17.479H51.2305C51.2181 16.9533 51.0264 16.508 50.6553 16.1431C50.2842 15.7782 49.8265 15.5957 49.2822 15.5957ZM55.5073 10.1963H58.0679V20.8003C58.0679 21.0106 58.1266 21.1714 58.2441 21.2827C58.3678 21.394 58.5627 21.4497 58.8286 21.4497C58.9523 21.4497 59.0575 21.4435 59.144 21.4312C59.2368 21.4126 59.3543 21.3879 59.4966 21.3569L59.7007 23.5371C59.5275 23.5618 59.342 23.5866 59.144 23.6113C58.9771 23.6299 58.7822 23.6453 58.5596 23.6577C58.3431 23.6763 58.1174 23.6855 57.8823 23.6855C57.5174 23.6855 57.1896 23.6392 56.8989 23.5464C56.6082 23.4536 56.3577 23.3175 56.1475 23.1382C55.9434 22.9526 55.7856 22.7238 55.6743 22.4517C55.563 22.1795 55.5073 21.8641 55.5073 21.5054V10.1963ZM61.0737 10.1963H63.6343V20.8003C63.6343 21.0106 63.693 21.1714 63.8105 21.2827C63.9342 21.394 64.1291 21.4497 64.395 21.4497C64.5187 21.4497 64.6239 21.4435 64.7104 21.4312C64.8032 21.4126 64.9207 21.3879 65.063 21.3569L65.2671 23.5371C65.0939 23.5618 64.9084 23.5866 64.7104 23.6113C64.5435 23.6299 64.3486 23.6453 64.126 23.6577C63.9095 23.6763 63.6838 23.6855 63.4487 23.6855C63.0838 23.6855 62.756 23.6392 62.4653 23.5464C62.1746 23.4536 61.9242 23.3175 61.7139 23.1382C61.5098 22.9526 61.3521 22.7238 61.2407 22.4517C61.1294 22.1795 61.0737 21.8641 61.0737 21.5054V10.1963ZM69.8872 19.4644C69.5718 19.5138 69.3182 19.6252 69.1265 19.7983C68.9347 19.9653 68.8389 20.1942 68.8389 20.4849C68.8389 20.8065 68.9564 21.0848 69.1914 21.3198C69.4264 21.5487 69.7728 21.6631 70.2305 21.6631C70.7129 21.6631 71.0933 21.5239 71.3716 21.2456C71.6499 20.9673 71.7891 20.5993 71.7891 20.1416V19.1396L69.8872 19.4644ZM72.2065 22.563C72.1014 22.6805 71.9715 22.8073 71.8169 22.9434C71.6685 23.0732 71.4891 23.1938 71.2788 23.3052C71.0747 23.4103 70.8335 23.5 70.5552 23.5742C70.2769 23.6484 69.9645 23.6855 69.6182 23.6855C69.1234 23.6855 68.6657 23.6082 68.2451 23.4536C67.8307 23.2928 67.4658 23.0701 67.1504 22.7856C66.835 22.5011 66.5876 22.1733 66.4082 21.8022C66.2288 21.425 66.1392 21.0168 66.1392 20.5776C66.1392 19.7798 66.3866 19.1273 66.8813 18.6201C67.3761 18.113 68.0596 17.7944 68.9316 17.6646L71.7891 17.2471V17.0615C71.7891 16.6162 71.653 16.2637 71.3809 16.0039C71.1087 15.7441 70.6665 15.6143 70.0542 15.6143C69.8006 15.6143 69.5439 15.6452 69.2842 15.707C69.0244 15.7627 68.7739 15.8276 68.5327 15.9019C68.2977 15.9761 68.0781 16.0627 67.874 16.1616C67.6699 16.2544 67.4906 16.3379 67.3359 16.4121L66.334 14.4546C66.903 14.1392 67.5339 13.8794 68.2266 13.6753C68.9255 13.4712 69.6491 13.3691 70.3975 13.3691C70.8551 13.3691 71.3159 13.4186 71.7798 13.5176C72.2498 13.6104 72.6735 13.7835 73.0508 14.0371C73.4342 14.2907 73.7466 14.637 73.9878 15.0762C74.229 15.5091 74.3496 16.0627 74.3496 16.7368V20.8188C74.3496 21.1095 74.4238 21.326 74.5723 21.4683C74.7269 21.6043 74.9372 21.7311 75.2031 21.8486L74.0435 23.6855C73.5734 23.6361 73.1961 23.5155 72.9116 23.3237C72.6271 23.1258 72.3921 22.8722 72.2065 22.563ZM76.4927 13.564H79.0532V14.4175C79.1893 14.2814 79.3408 14.1515 79.5078 14.0278C79.681 13.8979 79.8696 13.7866 80.0737 13.6938C80.2778 13.5949 80.5036 13.5176 80.751 13.4619C81.0046 13.4001 81.2829 13.3691 81.5859 13.3691C82.124 13.3691 82.6064 13.4588 83.0332 13.6382C83.46 13.8114 83.8187 14.0526 84.1094 14.3618C84.4062 14.6711 84.632 15.0329 84.7866 15.4473C84.9412 15.8617 85.0186 16.3101 85.0186 16.7925V23.5H82.458V17.7202C82.458 17.3677 82.4178 17.0708 82.3374 16.8296C82.257 16.5822 82.1457 16.3843 82.0034 16.2358C81.8674 16.0812 81.7035 15.9699 81.5117 15.9019C81.3262 15.8276 81.1221 15.7905 80.8994 15.7905C80.6396 15.7905 80.3953 15.8369 80.1665 15.9297C79.9438 16.0225 79.749 16.1647 79.582 16.3564C79.415 16.542 79.2852 16.777 79.1924 17.0615C79.0996 17.346 79.0532 17.68 79.0532 18.0635V23.5H76.4927V13.564ZM90.8262 20.5405C90.8262 20.658 90.8416 20.7694 90.8726 20.8745C90.9035 20.9797 90.9561 21.0724 91.0303 21.1528C91.1107 21.2271 91.222 21.2858 91.3643 21.3291C91.5065 21.3724 91.689 21.394 91.9116 21.394C92.0044 21.394 92.1095 21.391 92.2271 21.3848C92.3446 21.3724 92.4621 21.36 92.5796 21.3477C92.6971 21.3353 92.8053 21.3198 92.9043 21.3013C93.0094 21.2827 93.096 21.2673 93.1641 21.2549L93.396 23.5186C93.1548 23.5495 92.9043 23.5773 92.6445 23.6021C92.4219 23.6268 92.1745 23.6453 91.9023 23.6577C91.6302 23.6763 91.355 23.6855 91.0767 23.6855C90.1922 23.6855 89.5026 23.4845 89.0078 23.0825C88.513 22.6805 88.2656 22.0404 88.2656 21.1621V15.7905H86.4751V13.564H88.2656V10.7529L90.8262 10.0664V13.564H93.4331V15.7905H90.8262V20.5405ZM101.041 23.5H98.48V13.564H101.041V23.5ZM98.2109 10.957C98.2109 10.7467 98.2511 10.5488 98.3315 10.3633C98.4119 10.1715 98.5202 10.0076 98.6562 9.87158C98.7985 9.72933 98.9624 9.618 99.1479 9.5376C99.3335 9.45719 99.5345 9.41699 99.751 9.41699C99.9613 9.41699 100.159 9.45719 100.345 9.5376C100.536 9.618 100.7 9.72933 100.836 9.87158C100.979 10.0076 101.09 10.1715 101.17 10.3633C101.251 10.5488 101.291 10.7467 101.291 10.957C101.291 11.1735 101.251 11.3745 101.17 11.5601C101.09 11.7456 100.979 11.9095 100.836 12.0518C100.7 12.1878 100.536 12.2961 100.345 12.3765C100.159 12.4569 99.9613 12.4971 99.751 12.4971C99.5345 12.4971 99.3335 12.4569 99.1479 12.3765C98.9624 12.2961 98.7985 12.1878 98.6562 12.0518C98.5202 11.9095 98.4119 11.7456 98.3315 11.5601C98.2511 11.3745 98.2109 11.1735 98.2109 10.957ZM103.249 13.564H105.809V14.4175C105.945 14.2814 106.097 14.1515 106.264 14.0278C106.437 13.8979 106.625 13.7866 106.83 13.6938C107.034 13.5949 107.259 13.5176 107.507 13.4619C107.76 13.4001 108.039 13.3691 108.342 13.3691C108.88 13.3691 109.362 13.4588 109.789 13.6382C110.216 13.8114 110.575 14.0526 110.865 14.3618C111.162 14.6711 111.388 15.0329 111.542 15.4473C111.697 15.8617 111.774 16.3101 111.774 16.7925V23.5H109.214V17.7202C109.214 17.3677 109.174 17.0708 109.093 16.8296C109.013 16.5822 108.902 16.3843 108.759 16.2358C108.623 16.0812 108.459 15.9699 108.268 15.9019C108.082 15.8276 107.878 15.7905 107.655 15.7905C107.396 15.7905 107.151 15.8369 106.922 15.9297C106.7 16.0225 106.505 16.1647 106.338 16.3564C106.171 16.542 106.041 16.777 105.948 17.0615C105.855 17.346 105.809 17.68 105.809 18.0635V23.5H103.249V13.564ZM119.911 26.6357H117.35V13.564H119.911V14.4175C120.189 14.1268 120.532 13.8794 120.94 13.6753C121.349 13.4712 121.843 13.3691 122.425 13.3691C123.08 13.3691 123.674 13.5021 124.206 13.7681C124.744 14.0278 125.205 14.3896 125.588 14.8535C125.972 15.3112 126.269 15.8555 126.479 16.4863C126.689 17.1172 126.794 17.8006 126.794 18.5366C126.794 19.2726 126.686 19.9561 126.47 20.5869C126.253 21.2178 125.95 21.762 125.561 22.2197C125.171 22.6774 124.704 23.0361 124.16 23.2959C123.615 23.5557 123.015 23.6855 122.36 23.6855C122.069 23.6855 121.803 23.6577 121.562 23.6021C121.327 23.5526 121.111 23.4814 120.913 23.3887C120.715 23.2959 120.532 23.1877 120.365 23.064C120.198 22.9341 120.047 22.7949 119.911 22.6465V26.6357ZM119.836 19.4551C119.836 19.721 119.883 19.9684 119.976 20.1973C120.075 20.4199 120.214 20.6147 120.393 20.7817C120.572 20.9487 120.786 21.0786 121.033 21.1714C121.287 21.2642 121.571 21.3105 121.887 21.3105C122.252 21.3105 122.573 21.2456 122.852 21.1157C123.136 20.9797 123.374 20.791 123.566 20.5498C123.758 20.3086 123.903 20.0241 124.002 19.6963C124.101 19.3623 124.15 18.9974 124.15 18.6016V18.481C124.15 18.0851 124.101 17.7202 124.002 17.3862C123.903 17.0522 123.758 16.7646 123.566 16.5234C123.374 16.276 123.136 16.0843 122.852 15.9482C122.573 15.8122 122.252 15.7441 121.887 15.7441C121.571 15.7441 121.287 15.7905 121.033 15.8833C120.786 15.9761 120.572 16.106 120.393 16.2729C120.214 16.4399 120.075 16.6379 119.976 16.8667C119.883 17.0955 119.836 17.3429 119.836 17.6089V19.4551ZM130.645 19.418C130.688 19.7148 130.781 19.987 130.923 20.2344C131.071 20.4818 131.257 20.6951 131.479 20.8745C131.702 21.0477 131.959 21.1838 132.25 21.2827C132.54 21.3817 132.849 21.4312 133.177 21.4312C133.555 21.4312 133.963 21.36 134.402 21.2178C134.841 21.0693 135.243 20.856 135.608 20.5776L136.842 22.3774C136.378 22.7671 135.809 23.0825 135.135 23.3237C134.461 23.5649 133.743 23.6855 132.982 23.6855C132.296 23.6855 131.65 23.568 131.043 23.333C130.437 23.098 129.905 22.7578 129.448 22.3125C128.996 21.8672 128.638 21.326 128.372 20.689C128.112 20.0519 127.982 19.3345 127.982 18.5366C127.982 17.8068 128.096 17.1265 128.325 16.4956C128.56 15.8647 128.885 15.3174 129.299 14.8535C129.72 14.3896 130.221 14.0278 130.802 13.7681C131.384 13.5021 132.027 13.3691 132.732 13.3691C133.388 13.3691 133.997 13.4897 134.56 13.731C135.122 13.966 135.611 14.3 136.025 14.7329C136.44 15.1597 136.764 15.673 137 16.2729C137.235 16.8729 137.352 17.5347 137.352 18.2583V19.418H130.645ZM132.723 15.5957C132.172 15.5957 131.705 15.7812 131.322 16.1523C130.944 16.5173 130.725 16.9595 130.663 17.479H134.671C134.659 16.9533 134.467 16.508 134.096 16.1431C133.725 15.7782 133.267 15.5957 132.723 15.5957ZM144.57 16.0503H144.301C143.936 16.0503 143.586 16.0874 143.252 16.1616C142.925 16.2358 142.634 16.3719 142.38 16.5698C142.127 16.7616 141.923 17.0275 141.768 17.3677C141.62 17.7078 141.545 18.1439 141.545 18.6758V23.5H138.985V13.564H141.545V14.6865C141.651 14.5195 141.787 14.3587 141.954 14.2041C142.121 14.0495 142.315 13.9134 142.538 13.7959C142.761 13.6722 143.011 13.5732 143.29 13.499C143.568 13.4248 143.868 13.3877 144.189 13.3877H144.57V16.0503ZM146.871 20.3271C147.236 20.6549 147.672 20.9364 148.179 21.1714C148.686 21.4064 149.199 21.5239 149.719 21.5239C150.096 21.5239 150.393 21.4528 150.609 21.3105C150.826 21.1621 150.934 20.9735 150.934 20.7446C150.934 20.355 150.517 20.0519 149.682 19.8354L148.958 19.6406C148.599 19.554 148.237 19.4365 147.873 19.2881C147.508 19.1335 147.171 18.9325 146.861 18.6851C146.558 18.4377 146.311 18.1377 146.119 17.7852C145.934 17.4264 145.841 16.9873 145.841 16.4678C145.841 16.0534 145.931 15.6606 146.11 15.2896C146.295 14.9123 146.555 14.5814 146.889 14.2969C147.229 14.0124 147.641 13.7866 148.123 13.6196C148.605 13.4526 149.144 13.3691 149.737 13.3691C150.585 13.3691 151.339 13.5021 152.001 13.7681C152.669 14.034 153.195 14.334 153.578 14.668L152.242 16.375C151.927 16.1462 151.553 15.9513 151.12 15.7905C150.693 15.6235 150.263 15.54 149.83 15.54C149.428 15.54 149.116 15.6143 148.893 15.7627C148.67 15.9049 148.559 16.0781 148.559 16.2822C148.559 16.4987 148.655 16.675 148.847 16.811C149.045 16.9409 149.329 17.0553 149.7 17.1543L150.776 17.4604C151.803 17.7511 152.539 18.1439 152.984 18.6387C153.43 19.1335 153.652 19.7581 153.652 20.5127C153.652 20.9333 153.566 21.3353 153.393 21.7188C153.219 22.096 152.966 22.4331 152.632 22.73C152.298 23.0269 151.883 23.2619 151.389 23.4351C150.894 23.6021 150.331 23.6855 149.7 23.6855C149.218 23.6855 148.763 23.6423 148.336 23.5557C147.916 23.4691 147.523 23.3516 147.158 23.2031C146.799 23.0485 146.475 22.8753 146.184 22.6836C145.893 22.4919 145.646 22.3001 145.442 22.1084L146.871 20.3271ZM159.683 13.3691C160.419 13.3691 161.087 13.5021 161.687 13.7681C162.286 14.0278 162.8 14.3896 163.227 14.8535C163.653 15.3174 163.981 15.8647 164.21 16.4956C164.445 17.1265 164.562 17.8068 164.562 18.5366C164.562 19.2726 164.445 19.9561 164.21 20.5869C163.975 21.2116 163.644 21.7528 163.217 22.2104C162.791 22.6681 162.277 23.0299 161.677 23.2959C161.077 23.5557 160.412 23.6855 159.683 23.6855C158.947 23.6855 158.279 23.5557 157.679 23.2959C157.079 23.0299 156.565 22.6681 156.139 22.2104C155.712 21.7528 155.381 21.2116 155.146 20.5869C154.911 19.9561 154.793 19.2726 154.793 18.5366C154.793 17.8068 154.908 17.1265 155.137 16.4956C155.372 15.8647 155.703 15.3174 156.129 14.8535C156.556 14.3896 157.069 14.0278 157.669 13.7681C158.276 13.5021 158.947 13.3691 159.683 13.3691ZM159.683 21.3105C160.048 21.3105 160.369 21.2425 160.647 21.1064C160.932 20.9704 161.17 20.7817 161.362 20.5405C161.554 20.2993 161.699 20.0117 161.798 19.6777C161.897 19.3376 161.946 18.9665 161.946 18.5645V18.4995C161.946 18.0975 161.897 17.7295 161.798 17.3955C161.699 17.0553 161.554 16.7646 161.362 16.5234C161.17 16.276 160.932 16.0843 160.647 15.9482C160.369 15.8122 160.048 15.7441 159.683 15.7441C159.318 15.7441 158.993 15.8122 158.708 15.9482C158.43 16.0843 158.195 16.276 158.003 16.5234C157.812 16.7646 157.666 17.0553 157.567 17.3955C157.468 17.7295 157.419 18.0975 157.419 18.4995V18.5645C157.419 18.9665 157.468 19.3376 157.567 19.6777C157.666 20.0117 157.812 20.2993 158.003 20.5405C158.195 20.7817 158.43 20.9704 158.708 21.1064C158.993 21.2425 159.318 21.3105 159.683 21.3105ZM166.26 13.564H168.821V14.4175C168.957 14.2814 169.108 14.1515 169.275 14.0278C169.449 13.8979 169.637 13.7866 169.841 13.6938C170.045 13.5949 170.271 13.5176 170.519 13.4619C170.772 13.4001 171.05 13.3691 171.354 13.3691C171.892 13.3691 172.374 13.4588 172.801 13.6382C173.228 13.8114 173.586 14.0526 173.877 14.3618C174.174 14.6711 174.4 15.0329 174.554 15.4473C174.709 15.8617 174.786 16.3101 174.786 16.7925V23.5H172.226V17.7202C172.226 17.3677 172.185 17.0708 172.105 16.8296C172.025 16.5822 171.913 16.3843 171.771 16.2358C171.635 16.0812 171.471 15.9699 171.279 15.9019C171.094 15.8276 170.89 15.7905 170.667 15.7905C170.407 15.7905 170.163 15.8369 169.934 15.9297C169.711 16.0225 169.517 16.1647 169.35 16.3564C169.183 16.542 169.053 16.777 168.96 17.0615C168.867 17.346 168.821 17.68 168.821 18.0635V23.5H166.26V13.564ZM179.638 16.4121H183.627V18.7129H179.638V16.4121ZM196.922 23.5H194.352V17.7202C194.352 17.3677 194.312 17.0708 194.231 16.8296C194.157 16.5822 194.052 16.3843 193.916 16.2358C193.78 16.0812 193.622 15.973 193.443 15.9111C193.264 15.8431 193.069 15.8091 192.858 15.8091C192.611 15.8091 192.379 15.8524 192.163 15.939C191.952 16.0256 191.767 16.1616 191.606 16.3472C191.451 16.5327 191.328 16.7708 191.235 17.0615C191.148 17.346 191.105 17.6862 191.105 18.082V23.5H188.544V13.564H191.105V14.436C191.433 14.0711 191.813 13.8021 192.246 13.6289C192.685 13.4557 193.155 13.3691 193.656 13.3691C194.17 13.3691 194.649 13.4743 195.094 13.6846C195.546 13.8949 195.92 14.2412 196.217 14.7236C196.39 14.4762 196.588 14.266 196.811 14.0928C197.039 13.9196 197.284 13.7804 197.543 13.6753C197.803 13.5701 198.072 13.4928 198.351 13.4434C198.635 13.3939 198.926 13.3691 199.223 13.3691C199.779 13.3691 200.274 13.4619 200.707 13.6475C201.146 13.8268 201.517 14.0711 201.82 14.3804C202.123 14.6896 202.355 15.0452 202.516 15.4473C202.677 15.8493 202.757 16.2729 202.757 16.7183V23.5H200.169V17.7202C200.169 17.3677 200.129 17.0708 200.048 16.8296C199.974 16.5822 199.869 16.3843 199.733 16.2358C199.597 16.0812 199.436 15.973 199.25 15.9111C199.071 15.8431 198.876 15.8091 198.666 15.8091C198.419 15.8091 198.19 15.8524 197.979 15.939C197.769 16.0256 197.584 16.1616 197.423 16.3472C197.268 16.5327 197.145 16.7708 197.052 17.0615C196.965 17.346 196.922 17.6862 196.922 18.082V23.5ZM208.101 19.4644C207.786 19.5138 207.532 19.6252 207.34 19.7983C207.149 19.9653 207.053 20.1942 207.053 20.4849C207.053 20.8065 207.17 21.0848 207.405 21.3198C207.64 21.5487 207.987 21.6631 208.444 21.6631C208.927 21.6631 209.307 21.5239 209.585 21.2456C209.864 20.9673 210.003 20.5993 210.003 20.1416V19.1396L208.101 19.4644ZM210.42 22.563C210.315 22.6805 210.185 22.8073 210.031 22.9434C209.882 23.0732 209.703 23.1938 209.493 23.3052C209.289 23.4103 209.047 23.5 208.769 23.5742C208.491 23.6484 208.178 23.6855 207.832 23.6855C207.337 23.6855 206.88 23.6082 206.459 23.4536C206.045 23.2928 205.68 23.0701 205.364 22.7856C205.049 22.5011 204.801 22.1733 204.622 21.8022C204.443 21.425 204.353 21.0168 204.353 20.5776C204.353 19.7798 204.6 19.1273 205.095 18.6201C205.59 18.113 206.273 17.7944 207.146 17.6646L210.003 17.2471V17.0615C210.003 16.6162 209.867 16.2637 209.595 16.0039C209.323 15.7441 208.88 15.6143 208.268 15.6143C208.014 15.6143 207.758 15.6452 207.498 15.707C207.238 15.7627 206.988 15.8276 206.747 15.9019C206.512 15.9761 206.292 16.0627 206.088 16.1616C205.884 16.2544 205.704 16.3379 205.55 16.4121L204.548 14.4546C205.117 14.1392 205.748 13.8794 206.44 13.6753C207.139 13.4712 207.863 13.3691 208.611 13.3691C209.069 13.3691 209.53 13.4186 209.994 13.5176C210.464 13.6104 210.887 13.7835 211.265 14.0371C211.648 14.2907 211.96 14.637 212.202 15.0762C212.443 15.5091 212.563 16.0627 212.563 16.7368V20.8188C212.563 21.1095 212.638 21.326 212.786 21.4683C212.941 21.6043 213.151 21.7311 213.417 21.8486L212.257 23.6855C211.787 23.6361 211.41 23.5155 211.125 23.3237C210.841 23.1258 210.606 22.8722 210.42 22.563ZM214.707 13.564H217.267V14.4175C217.403 14.2814 217.555 14.1515 217.722 14.0278C217.895 13.8979 218.083 13.7866 218.288 13.6938C218.492 13.5949 218.717 13.5176 218.965 13.4619C219.218 13.4001 219.497 13.3691 219.8 13.3691C220.338 13.3691 220.82 13.4588 221.247 13.6382C221.674 13.8114 222.033 14.0526 222.323 14.3618C222.62 14.6711 222.846 15.0329 223 15.4473C223.155 15.8617 223.232 16.3101 223.232 16.7925V23.5H220.672V17.7202C220.672 17.3677 220.632 17.0708 220.551 16.8296C220.471 16.5822 220.36 16.3843 220.217 16.2358C220.081 16.0812 219.917 15.9699 219.726 15.9019C219.54 15.8276 219.336 15.7905 219.113 15.7905C218.854 15.7905 218.609 15.8369 218.38 15.9297C218.158 16.0225 217.963 16.1647 217.796 16.3564C217.629 16.542 217.499 16.777 217.406 17.0615C217.313 17.346 217.267 17.68 217.267 18.0635V23.5H214.707V13.564ZM233.827 23.5H231.267V22.6465C231.124 22.7826 230.97 22.9155 230.803 23.0454C230.636 23.1691 230.45 23.2804 230.246 23.3794C230.042 23.4722 229.813 23.5464 229.56 23.6021C229.312 23.6577 229.037 23.6855 228.734 23.6855C228.196 23.6855 227.713 23.599 227.287 23.4258C226.86 23.2464 226.498 23.0052 226.201 22.7021C225.91 22.3929 225.688 22.0311 225.533 21.6167C225.379 21.2023 225.301 20.7539 225.301 20.2715V13.564H227.862V19.3345C227.862 19.687 227.899 19.987 227.973 20.2344C228.054 20.4818 228.162 20.6828 228.298 20.8374C228.44 20.9858 228.607 21.0972 228.799 21.1714C228.991 21.2394 229.198 21.2734 229.42 21.2734C229.68 21.2734 229.921 21.2271 230.144 21.1343C230.373 21.0415 230.571 20.9023 230.738 20.7168C230.905 20.5251 231.035 20.2869 231.127 20.0024C231.22 19.7179 231.267 19.384 231.267 19.0005V13.564H233.827V23.5ZM239.254 19.4644C238.939 19.5138 238.685 19.6252 238.494 19.7983C238.302 19.9653 238.206 20.1942 238.206 20.4849C238.206 20.8065 238.324 21.0848 238.559 21.3198C238.794 21.5487 239.14 21.6631 239.598 21.6631C240.08 21.6631 240.46 21.5239 240.739 21.2456C241.017 20.9673 241.156 20.5993 241.156 20.1416V19.1396L239.254 19.4644ZM241.574 22.563C241.469 22.6805 241.339 22.8073 241.184 22.9434C241.036 23.0732 240.856 23.1938 240.646 23.3052C240.442 23.4103 240.201 23.5 239.922 23.5742C239.644 23.6484 239.332 23.6855 238.985 23.6855C238.491 23.6855 238.033 23.6082 237.612 23.4536C237.198 23.2928 236.833 23.0701 236.518 22.7856C236.202 22.5011 235.955 22.1733 235.775 21.8022C235.596 21.425 235.506 21.0168 235.506 20.5776C235.506 19.7798 235.754 19.1273 236.249 18.6201C236.743 18.113 237.427 17.7944 238.299 17.6646L241.156 17.2471V17.0615C241.156 16.6162 241.02 16.2637 240.748 16.0039C240.476 15.7441 240.034 15.6143 239.421 15.6143C239.168 15.6143 238.911 15.6452 238.651 15.707C238.392 15.7627 238.141 15.8276 237.9 15.9019C237.665 15.9761 237.445 16.0627 237.241 16.1616C237.037 16.2544 236.858 16.3379 236.703 16.4121L235.701 14.4546C236.27 14.1392 236.901 13.8794 237.594 13.6753C238.293 13.4712 239.016 13.3691 239.765 13.3691C240.222 13.3691 240.683 13.4186 241.147 13.5176C241.617 13.6104 242.041 13.7835 242.418 14.0371C242.801 14.2907 243.114 14.637 243.355 15.0762C243.596 15.5091 243.717 16.0627 243.717 16.7368V20.8188C243.717 21.1095 243.791 21.326 243.939 21.4683C244.094 21.6043 244.304 21.7311 244.57 21.8486L243.411 23.6855C242.941 23.6361 242.563 23.5155 242.279 23.3237C241.994 23.1258 241.759 22.8722 241.574 22.563ZM245.823 10.1963H248.383V20.8003C248.383 21.0106 248.442 21.1714 248.56 21.2827C248.683 21.394 248.878 21.4497 249.144 21.4497C249.268 21.4497 249.373 21.4435 249.459 21.4312C249.552 21.4126 249.67 21.3879 249.812 21.3569L250.016 23.5371C249.843 23.5618 249.657 23.5866 249.459 23.6113C249.292 23.6299 249.098 23.6453 248.875 23.6577C248.659 23.6763 248.433 23.6855 248.198 23.6855C247.833 23.6855 247.505 23.6392 247.214 23.5464C246.924 23.4536 246.673 23.3175 246.463 23.1382C246.259 22.9526 246.101 22.7238 245.99 22.4517C245.878 22.1795 245.823 21.8641 245.823 21.5054V10.1963Z" fill="white"/>
<rect width="377" height="33" transform="translate(273)" fill="#4C2C92"/>
<path d="M282.288 10.6963H292.428V13.1919H288.708V24H286.008V13.1919H282.288V10.6963ZM298.356 16.5503H298.087C297.722 16.5503 297.373 16.5874 297.039 16.6616C296.711 16.7358 296.42 16.8719 296.167 17.0698C295.913 17.2616 295.709 17.5275 295.554 17.8677C295.406 18.2078 295.332 18.6439 295.332 19.1758V24H292.771V14.064H295.332V15.1865C295.437 15.0195 295.573 14.8587 295.74 14.7041C295.907 14.5495 296.102 14.4134 296.324 14.2959C296.547 14.1722 296.797 14.0732 297.076 13.999C297.354 13.9248 297.654 13.8877 297.976 13.8877H298.356V16.5503ZM303.162 19.9644C302.846 20.0138 302.593 20.1252 302.401 20.2983C302.209 20.4653 302.113 20.6942 302.113 20.9849C302.113 21.3065 302.231 21.5848 302.466 21.8198C302.701 22.0487 303.047 22.1631 303.505 22.1631C303.987 22.1631 304.368 22.0239 304.646 21.7456C304.924 21.4673 305.063 21.0993 305.063 20.6416V19.6396L303.162 19.9644ZM305.481 23.063C305.376 23.1805 305.246 23.3073 305.091 23.4434C304.943 23.5732 304.764 23.6938 304.553 23.8052C304.349 23.9103 304.108 24 303.83 24.0742C303.551 24.1484 303.239 24.1855 302.893 24.1855C302.398 24.1855 301.94 24.1082 301.52 23.9536C301.105 23.7928 300.74 23.5701 300.425 23.2856C300.109 23.0011 299.862 22.6733 299.683 22.3022C299.503 21.925 299.414 21.5168 299.414 21.0776C299.414 20.2798 299.661 19.6273 300.156 19.1201C300.651 18.613 301.334 18.2944 302.206 18.1646L305.063 17.7471V17.5615C305.063 17.1162 304.927 16.7637 304.655 16.5039C304.383 16.2441 303.941 16.1143 303.329 16.1143C303.075 16.1143 302.818 16.1452 302.559 16.207C302.299 16.2627 302.048 16.3276 301.807 16.4019C301.572 16.4761 301.353 16.5627 301.148 16.6616C300.944 16.7544 300.765 16.8379 300.61 16.9121L299.608 14.9546C300.177 14.6392 300.808 14.3794 301.501 14.1753C302.2 13.9712 302.924 13.8691 303.672 13.8691C304.13 13.8691 304.59 13.9186 305.054 14.0176C305.524 14.1104 305.948 14.2835 306.325 14.5371C306.709 14.7907 307.021 15.137 307.262 15.5762C307.503 16.0091 307.624 16.5627 307.624 17.2368V21.3188C307.624 21.6095 307.698 21.826 307.847 21.9683C308.001 22.1043 308.212 22.2311 308.478 22.3486L307.318 24.1855C306.848 24.1361 306.471 24.0155 306.186 23.8237C305.902 23.6258 305.667 23.3722 305.481 23.063ZM309.767 14.064H312.328V14.9175C312.464 14.7814 312.615 14.6515 312.782 14.5278C312.955 14.3979 313.144 14.2866 313.348 14.1938C313.552 14.0949 313.778 14.0176 314.025 13.9619C314.279 13.9001 314.557 13.8691 314.86 13.8691C315.398 13.8691 315.881 13.9588 316.308 14.1382C316.734 14.3114 317.093 14.5526 317.384 14.8618C317.681 15.1711 317.906 15.5329 318.061 15.9473C318.216 16.3617 318.293 16.8101 318.293 17.2925V24H315.732V18.2202C315.732 17.8677 315.692 17.5708 315.612 17.3296C315.531 17.0822 315.42 16.8843 315.278 16.7358C315.142 16.5812 314.978 16.4699 314.786 16.4019C314.601 16.3276 314.396 16.2905 314.174 16.2905C313.914 16.2905 313.67 16.3369 313.441 16.4297C313.218 16.5225 313.023 16.6647 312.856 16.8564C312.689 17.042 312.56 17.277 312.467 17.5615C312.374 17.846 312.328 18.18 312.328 18.5635V24H309.767V14.064ZM321.141 20.8271C321.506 21.1549 321.942 21.4364 322.449 21.6714C322.956 21.9064 323.47 22.0239 323.989 22.0239C324.367 22.0239 324.663 21.9528 324.88 21.8105C325.096 21.6621 325.205 21.4735 325.205 21.2446C325.205 20.855 324.787 20.5519 323.952 20.3354L323.229 20.1406C322.87 20.054 322.508 19.9365 322.143 19.7881C321.778 19.6335 321.441 19.4325 321.132 19.1851C320.829 18.9377 320.581 18.6377 320.39 18.2852C320.204 17.9264 320.111 17.4873 320.111 16.9678C320.111 16.5534 320.201 16.1606 320.38 15.7896C320.566 15.4123 320.826 15.0814 321.16 14.7969C321.5 14.5124 321.911 14.2866 322.394 14.1196C322.876 13.9526 323.414 13.8691 324.008 13.8691C324.855 13.8691 325.61 14.0021 326.271 14.2681C326.939 14.534 327.465 14.834 327.849 15.168L326.513 16.875C326.197 16.6462 325.823 16.4513 325.39 16.2905C324.963 16.1235 324.534 16.04 324.101 16.04C323.699 16.04 323.386 16.1143 323.164 16.2627C322.941 16.4049 322.83 16.5781 322.83 16.7822C322.83 16.9987 322.925 17.175 323.117 17.311C323.315 17.4409 323.6 17.5553 323.971 17.6543L325.047 17.9604C326.074 18.2511 326.81 18.6439 327.255 19.1387C327.7 19.6335 327.923 20.2581 327.923 21.0127C327.923 21.4333 327.836 21.8353 327.663 22.2188C327.49 22.596 327.236 22.9331 326.902 23.23C326.568 23.5269 326.154 23.7619 325.659 23.9351C325.164 24.1021 324.602 24.1855 323.971 24.1855C323.488 24.1855 323.034 24.1423 322.607 24.0557C322.186 23.9691 321.794 23.8516 321.429 23.7031C321.07 23.5485 320.745 23.3753 320.455 23.1836C320.164 22.9919 319.917 22.8001 319.712 22.6084L321.141 20.8271ZM333.016 14.064H334.918V16.2905H333.016V24H330.456V16.2905H328.878V14.064H330.456V12.8486C330.456 12.4157 330.53 12.0415 330.678 11.7261C330.827 11.4045 331.031 11.1416 331.291 10.9375C331.556 10.7272 331.872 10.5726 332.237 10.4736C332.608 10.3685 333.016 10.3159 333.461 10.3159C333.684 10.3159 333.901 10.3221 334.111 10.3345C334.321 10.3468 334.516 10.3592 334.695 10.3716C334.875 10.384 335.032 10.3994 335.168 10.418C335.311 10.4365 335.419 10.4489 335.493 10.4551L335.28 12.6353C335.206 12.6229 335.113 12.6105 335.001 12.5981C334.896 12.5858 334.785 12.5765 334.667 12.5703C334.55 12.5579 334.436 12.5518 334.324 12.5518C334.213 12.5456 334.114 12.5425 334.027 12.5425C333.662 12.5425 333.403 12.6136 333.248 12.7559C333.093 12.8919 333.016 13.0682 333.016 13.2847V14.064ZM338.536 19.918C338.579 20.2148 338.672 20.487 338.814 20.7344C338.963 20.9818 339.148 21.1951 339.371 21.3745C339.594 21.5477 339.85 21.6838 340.141 21.7827C340.432 21.8817 340.741 21.9312 341.069 21.9312C341.446 21.9312 341.854 21.86 342.293 21.7178C342.733 21.5693 343.135 21.356 343.5 21.0776L344.733 22.8774C344.27 23.2671 343.701 23.5825 343.026 23.8237C342.352 24.0649 341.635 24.1855 340.874 24.1855C340.188 24.1855 339.541 24.068 338.935 23.833C338.329 23.598 337.797 23.2578 337.339 22.8125C336.888 22.3672 336.529 21.826 336.263 21.189C336.003 20.5519 335.874 19.8345 335.874 19.0366C335.874 18.3068 335.988 17.6265 336.217 16.9956C336.452 16.3647 336.777 15.8174 337.191 15.3535C337.611 14.8896 338.112 14.5278 338.694 14.2681C339.275 14.0021 339.918 13.8691 340.624 13.8691C341.279 13.8691 341.888 13.9897 342.451 14.231C343.014 14.466 343.503 14.8 343.917 15.2329C344.331 15.6597 344.656 16.173 344.891 16.7729C345.126 17.3729 345.244 18.0347 345.244 18.7583V19.918H338.536ZM340.614 16.0957C340.064 16.0957 339.597 16.2812 339.213 16.6523C338.836 17.0173 338.617 17.4595 338.555 17.979H342.562C342.55 17.4533 342.358 17.008 341.987 16.6431C341.616 16.2782 341.159 16.0957 340.614 16.0957ZM352.461 16.5503H352.192C351.827 16.5503 351.478 16.5874 351.144 16.6616C350.816 16.7358 350.526 16.8719 350.272 17.0698C350.018 17.2616 349.814 17.5275 349.66 17.8677C349.511 18.2078 349.437 18.6439 349.437 19.1758V24H346.876V14.064H349.437V15.1865C349.542 15.0195 349.678 14.8587 349.845 14.7041C350.012 14.5495 350.207 14.4134 350.43 14.2959C350.652 14.1722 350.903 14.0732 351.181 13.999C351.459 13.9248 351.759 13.8877 352.081 13.8877H352.461V16.5503ZM359.642 16.5503H359.373C359.008 16.5503 358.659 16.5874 358.325 16.6616C357.997 16.7358 357.706 16.8719 357.453 17.0698C357.199 17.2616 356.995 17.5275 356.84 17.8677C356.692 18.2078 356.618 18.6439 356.618 19.1758V24H354.057V14.064H356.618V15.1865C356.723 15.0195 356.859 14.8587 357.026 14.7041C357.193 14.5495 357.388 14.4134 357.61 14.2959C357.833 14.1722 358.083 14.0732 358.362 13.999C358.64 13.9248 358.94 13.8877 359.262 13.8877H359.642V16.5503ZM363.381 19.918C363.424 20.2148 363.517 20.487 363.659 20.7344C363.808 20.9818 363.993 21.1951 364.216 21.3745C364.438 21.5477 364.695 21.6838 364.986 21.7827C365.277 21.8817 365.586 21.9312 365.914 21.9312C366.291 21.9312 366.699 21.86 367.138 21.7178C367.577 21.5693 367.979 21.356 368.344 21.0776L369.578 22.8774C369.114 23.2671 368.545 23.5825 367.871 23.8237C367.197 24.0649 366.479 24.1855 365.719 24.1855C365.032 24.1855 364.386 24.068 363.78 23.833C363.174 23.598 362.642 23.2578 362.184 22.8125C361.733 22.3672 361.374 21.826 361.108 21.189C360.848 20.5519 360.718 19.8345 360.718 19.0366C360.718 18.3068 360.833 17.6265 361.062 16.9956C361.297 16.3647 361.621 15.8174 362.036 15.3535C362.456 14.8896 362.957 14.5278 363.539 14.2681C364.12 14.0021 364.763 13.8691 365.468 13.8691C366.124 13.8691 366.733 13.9897 367.296 14.231C367.859 14.466 368.347 14.8 368.762 15.2329C369.176 15.6597 369.501 16.173 369.736 16.7729C369.971 17.3729 370.088 18.0347 370.088 18.7583V19.918H363.381ZM365.459 16.0957C364.909 16.0957 364.442 16.2812 364.058 16.6523C363.681 17.0173 363.461 17.4595 363.399 17.979H367.407C367.395 17.4533 367.203 17.008 366.832 16.6431C366.461 16.2782 366.003 16.0957 365.459 16.0957ZM378.104 24V23.1465C377.968 23.2949 377.816 23.4341 377.649 23.564C377.489 23.6877 377.306 23.7959 377.102 23.8887C376.904 23.9814 376.685 24.0526 376.443 24.1021C376.208 24.1577 375.945 24.1855 375.655 24.1855C374.999 24.1855 374.399 24.0557 373.855 23.7959C373.311 23.5361 372.844 23.1774 372.454 22.7197C372.064 22.262 371.761 21.7178 371.545 21.0869C371.335 20.4561 371.229 19.7726 371.229 19.0366C371.229 18.3006 371.335 17.6172 371.545 16.9863C371.755 16.3555 372.049 15.8112 372.426 15.3535C372.81 14.8896 373.271 14.5278 373.809 14.2681C374.347 14.0021 374.944 13.8691 375.599 13.8691C376.181 13.8691 376.672 13.9712 377.074 14.1753C377.482 14.3732 377.826 14.6206 378.104 14.9175V10.6963H380.665V24H378.104ZM378.178 18.1089C378.178 17.8429 378.129 17.5955 378.03 17.3667C377.937 17.1379 377.801 16.9399 377.622 16.7729C377.442 16.606 377.226 16.4761 376.972 16.3833C376.725 16.2905 376.443 16.2441 376.128 16.2441C375.763 16.2441 375.438 16.3122 375.154 16.4482C374.875 16.5843 374.64 16.776 374.449 17.0234C374.257 17.2646 374.112 17.5522 374.013 17.8862C373.914 18.2202 373.864 18.5851 373.864 18.981V19.1016C373.864 19.4974 373.914 19.8623 374.013 20.1963C374.112 20.5241 374.257 20.8086 374.449 21.0498C374.64 21.291 374.875 21.4797 375.154 21.6157C375.438 21.7456 375.763 21.8105 376.128 21.8105C376.443 21.8105 376.725 21.7642 376.972 21.6714C377.226 21.5786 377.442 21.4487 377.622 21.2817C377.801 21.1147 377.937 20.9199 378.03 20.6973C378.129 20.4684 378.178 20.221 378.178 19.9551V18.1089ZM388.448 19.918C388.492 20.2148 388.584 20.487 388.727 20.7344C388.875 20.9818 389.061 21.1951 389.283 21.3745C389.506 21.5477 389.763 21.6838 390.053 21.7827C390.344 21.8817 390.653 21.9312 390.981 21.9312C391.358 21.9312 391.766 21.86 392.206 21.7178C392.645 21.5693 393.047 21.356 393.412 21.0776L394.646 22.8774C394.182 23.2671 393.613 23.5825 392.938 23.8237C392.264 24.0649 391.547 24.1855 390.786 24.1855C390.1 24.1855 389.453 24.068 388.847 23.833C388.241 23.598 387.709 23.2578 387.251 22.8125C386.8 22.3672 386.441 21.826 386.175 21.189C385.916 20.5519 385.786 19.8345 385.786 19.0366C385.786 18.3068 385.9 17.6265 386.129 16.9956C386.364 16.3647 386.689 15.8174 387.103 15.3535C387.524 14.8896 388.025 14.5278 388.606 14.2681C389.187 14.0021 389.831 13.8691 390.536 13.8691C391.191 13.8691 391.8 13.9897 392.363 14.231C392.926 14.466 393.415 14.8 393.829 15.2329C394.243 15.6597 394.568 16.173 394.803 16.7729C395.038 17.3729 395.156 18.0347 395.156 18.7583V19.918H388.448ZM390.526 16.0957C389.976 16.0957 389.509 16.2812 389.125 16.6523C388.748 17.0173 388.529 17.4595 388.467 17.979H392.475C392.462 17.4533 392.271 17.008 391.899 16.6431C391.528 16.2782 391.071 16.0957 390.526 16.0957ZM399.089 18.7954L396.065 14.064H399.024L400.546 16.7451L402.142 14.064H405.129L402.049 18.814L405.472 24H402.448L400.49 20.957L398.709 24H395.722L399.089 18.7954ZM409.165 27.1357H406.604V14.064H409.165V14.9175C409.443 14.6268 409.786 14.3794 410.194 14.1753C410.603 13.9712 411.097 13.8691 411.679 13.8691C412.334 13.8691 412.928 14.0021 413.46 14.2681C413.998 14.5278 414.459 14.8896 414.842 15.3535C415.226 15.8112 415.523 16.3555 415.733 16.9863C415.943 17.6172 416.048 18.3006 416.048 19.0366C416.048 19.7726 415.94 20.4561 415.724 21.0869C415.507 21.7178 415.204 22.262 414.814 22.7197C414.425 23.1774 413.958 23.5361 413.414 23.7959C412.869 24.0557 412.269 24.1855 411.614 24.1855C411.323 24.1855 411.057 24.1577 410.816 24.1021C410.581 24.0526 410.364 23.9814 410.167 23.8887C409.969 23.7959 409.786 23.6877 409.619 23.564C409.452 23.4341 409.301 23.2949 409.165 23.1465V27.1357ZM409.09 19.9551C409.09 20.221 409.137 20.4684 409.229 20.6973C409.328 20.9199 409.468 21.1147 409.647 21.2817C409.826 21.4487 410.04 21.5786 410.287 21.6714C410.541 21.7642 410.825 21.8105 411.141 21.8105C411.506 21.8105 411.827 21.7456 412.105 21.6157C412.39 21.4797 412.628 21.291 412.82 21.0498C413.012 20.8086 413.157 20.5241 413.256 20.1963C413.355 19.8623 413.404 19.4974 413.404 19.1016V18.981C413.404 18.5851 413.355 18.2202 413.256 17.8862C413.157 17.5522 413.012 17.2646 412.82 17.0234C412.628 16.776 412.39 16.5843 412.105 16.4482C411.827 16.3122 411.506 16.2441 411.141 16.2441C410.825 16.2441 410.541 16.2905 410.287 16.3833C410.04 16.4761 409.826 16.606 409.647 16.7729C409.468 16.9399 409.328 17.1379 409.229 17.3667C409.137 17.5955 409.09 17.8429 409.09 18.1089V19.9551ZM419.898 19.918C419.942 20.2148 420.035 20.487 420.177 20.7344C420.325 20.9818 420.511 21.1951 420.733 21.3745C420.956 21.5477 421.213 21.6838 421.503 21.7827C421.794 21.8817 422.103 21.9312 422.431 21.9312C422.808 21.9312 423.217 21.86 423.656 21.7178C424.095 21.5693 424.497 21.356 424.862 21.0776L426.096 22.8774C425.632 23.2671 425.063 23.5825 424.389 23.8237C423.715 24.0649 422.997 24.1855 422.236 24.1855C421.55 24.1855 420.903 24.068 420.297 23.833C419.691 23.598 419.159 23.2578 418.702 22.8125C418.25 22.3672 417.891 21.826 417.625 21.189C417.366 20.5519 417.236 19.8345 417.236 19.0366C417.236 18.3068 417.35 17.6265 417.579 16.9956C417.814 16.3647 418.139 15.8174 418.553 15.3535C418.974 14.8896 419.475 14.5278 420.056 14.2681C420.638 14.0021 421.281 13.8691 421.986 13.8691C422.641 13.8691 423.251 13.9897 423.813 14.231C424.376 14.466 424.865 14.8 425.279 15.2329C425.694 15.6597 426.018 16.173 426.253 16.7729C426.488 17.3729 426.606 18.0347 426.606 18.7583V19.918H419.898ZM421.977 16.0957C421.426 16.0957 420.959 16.2812 420.576 16.6523C420.198 17.0173 419.979 17.4595 419.917 17.979H423.925C423.912 17.4533 423.721 17.008 423.35 16.6431C422.979 16.2782 422.521 16.0957 421.977 16.0957ZM434.622 24V23.1465C434.486 23.2949 434.334 23.4341 434.167 23.564C434.006 23.6877 433.824 23.7959 433.62 23.8887C433.422 23.9814 433.202 24.0526 432.961 24.1021C432.726 24.1577 432.463 24.1855 432.172 24.1855C431.517 24.1855 430.917 24.0557 430.373 23.7959C429.828 23.5361 429.361 23.1774 428.972 22.7197C428.582 22.262 428.279 21.7178 428.062 21.0869C427.852 20.4561 427.747 19.7726 427.747 19.0366C427.747 18.3006 427.852 17.6172 428.062 16.9863C428.273 16.3555 428.567 15.8112 428.944 15.3535C429.327 14.8896 429.788 14.5278 430.326 14.2681C430.864 14.0021 431.461 13.8691 432.117 13.8691C432.698 13.8691 433.19 13.9712 433.592 14.1753C434 14.3732 434.343 14.6206 434.622 14.9175V10.6963H437.182V24H434.622ZM434.696 18.1089C434.696 17.8429 434.646 17.5955 434.547 17.3667C434.455 17.1379 434.319 16.9399 434.139 16.7729C433.96 16.606 433.743 16.4761 433.49 16.3833C433.242 16.2905 432.961 16.2441 432.646 16.2441C432.281 16.2441 431.956 16.3122 431.671 16.4482C431.393 16.5843 431.158 16.776 430.966 17.0234C430.775 17.2646 430.629 17.5522 430.53 17.8862C430.431 18.2202 430.382 18.5851 430.382 18.981V19.1016C430.382 19.4974 430.431 19.8623 430.53 20.1963C430.629 20.5241 430.775 20.8086 430.966 21.0498C431.158 21.291 431.393 21.4797 431.671 21.6157C431.956 21.7456 432.281 21.8105 432.646 21.8105C432.961 21.8105 433.242 21.7642 433.49 21.6714C433.743 21.5786 433.96 21.4487 434.139 21.2817C434.319 21.1147 434.455 20.9199 434.547 20.6973C434.646 20.4684 434.696 20.221 434.696 19.9551V18.1089ZM441.951 24H439.39V14.064H441.951V24ZM439.121 11.457C439.121 11.2467 439.161 11.0488 439.242 10.8633C439.322 10.6715 439.43 10.5076 439.566 10.3716C439.709 10.2293 439.873 10.118 440.058 10.0376C440.244 9.95719 440.445 9.91699 440.661 9.91699C440.871 9.91699 441.069 9.95719 441.255 10.0376C441.447 10.118 441.611 10.2293 441.747 10.3716C441.889 10.5076 442 10.6715 442.081 10.8633C442.161 11.0488 442.201 11.2467 442.201 11.457C442.201 11.6735 442.161 11.8745 442.081 12.0601C442 12.2456 441.889 12.4095 441.747 12.5518C441.611 12.6878 441.447 12.7961 441.255 12.8765C441.069 12.9569 440.871 12.9971 440.661 12.9971C440.445 12.9971 440.244 12.9569 440.058 12.8765C439.873 12.7961 439.709 12.6878 439.566 12.5518C439.43 12.4095 439.322 12.2456 439.242 12.0601C439.161 11.8745 439.121 11.6735 439.121 11.457ZM447.823 21.0405C447.823 21.158 447.839 21.2694 447.87 21.3745C447.901 21.4797 447.953 21.5724 448.027 21.6528C448.108 21.7271 448.219 21.7858 448.361 21.8291C448.504 21.8724 448.686 21.894 448.909 21.894C449.001 21.894 449.107 21.891 449.224 21.8848C449.342 21.8724 449.459 21.86 449.577 21.8477C449.694 21.8353 449.802 21.8198 449.901 21.8013C450.007 21.7827 450.093 21.7673 450.161 21.7549L450.393 24.0186C450.152 24.0495 449.901 24.0773 449.642 24.1021C449.419 24.1268 449.172 24.1453 448.899 24.1577C448.627 24.1763 448.352 24.1855 448.074 24.1855C447.189 24.1855 446.5 23.9845 446.005 23.5825C445.51 23.1805 445.263 22.5404 445.263 21.6621V16.2905H443.472V14.064H445.263V11.2529L447.823 10.5664V14.064H450.43V16.2905H447.823V21.0405ZM454.188 19.918C454.231 20.2148 454.324 20.487 454.466 20.7344C454.614 20.9818 454.8 21.1951 455.022 21.3745C455.245 21.5477 455.502 21.6838 455.792 21.7827C456.083 21.8817 456.392 21.9312 456.72 21.9312C457.097 21.9312 457.506 21.86 457.945 21.7178C458.384 21.5693 458.786 21.356 459.151 21.0776L460.385 22.8774C459.921 23.2671 459.352 23.5825 458.678 23.8237C458.004 24.0649 457.286 24.1855 456.525 24.1855C455.839 24.1855 455.193 24.068 454.586 23.833C453.98 23.598 453.448 23.2578 452.991 22.8125C452.539 22.3672 452.181 21.826 451.915 21.189C451.655 20.5519 451.525 19.8345 451.525 19.0366C451.525 18.3068 451.639 17.6265 451.868 16.9956C452.103 16.3647 452.428 15.8174 452.842 15.3535C453.263 14.8896 453.764 14.5278 454.345 14.2681C454.927 14.0021 455.57 13.8691 456.275 13.8691C456.931 13.8691 457.54 13.9897 458.103 14.231C458.665 14.466 459.154 14.8 459.568 15.2329C459.983 15.6597 460.307 16.173 460.542 16.7729C460.778 17.3729 460.895 18.0347 460.895 18.7583V19.918H454.188ZM456.266 16.0957C455.715 16.0957 455.248 16.2812 454.865 16.6523C454.487 17.0173 454.268 17.4595 454.206 17.979H458.214C458.201 17.4533 458.01 17.008 457.639 16.6431C457.268 16.2782 456.81 16.0957 456.266 16.0957ZM468.911 24V23.1465C468.775 23.2949 468.623 23.4341 468.456 23.564C468.295 23.6877 468.113 23.7959 467.909 23.8887C467.711 23.9814 467.491 24.0526 467.25 24.1021C467.015 24.1577 466.752 24.1855 466.461 24.1855C465.806 24.1855 465.206 24.0557 464.662 23.7959C464.117 23.5361 463.65 23.1774 463.261 22.7197C462.871 22.262 462.568 21.7178 462.352 21.0869C462.141 20.4561 462.036 19.7726 462.036 19.0366C462.036 18.3006 462.141 17.6172 462.352 16.9863C462.562 16.3555 462.856 15.8112 463.233 15.3535C463.616 14.8896 464.077 14.5278 464.615 14.2681C465.153 14.0021 465.75 13.8691 466.406 13.8691C466.987 13.8691 467.479 13.9712 467.881 14.1753C468.289 14.3732 468.632 14.6206 468.911 14.9175V10.6963H471.471V24H468.911ZM468.985 18.1089C468.985 17.8429 468.935 17.5955 468.836 17.3667C468.744 17.1379 468.608 16.9399 468.428 16.7729C468.249 16.606 468.032 16.4761 467.779 16.3833C467.531 16.2905 467.25 16.2441 466.935 16.2441C466.57 16.2441 466.245 16.3122 465.96 16.4482C465.682 16.5843 465.447 16.776 465.255 17.0234C465.064 17.2646 464.918 17.5522 464.819 17.8862C464.72 18.2202 464.671 18.5851 464.671 18.981V19.1016C464.671 19.4974 464.72 19.8623 464.819 20.1963C464.918 20.5241 465.064 20.8086 465.255 21.0498C465.447 21.291 465.682 21.4797 465.96 21.6157C466.245 21.7456 466.57 21.8105 466.935 21.8105C467.25 21.8105 467.531 21.7642 467.779 21.6714C468.032 21.5786 468.249 21.4487 468.428 21.2817C468.608 21.1147 468.744 20.9199 468.836 20.6973C468.935 20.4684 468.985 20.221 468.985 19.9551V18.1089ZM477.817 20.8271C478.182 21.1549 478.618 21.4364 479.125 21.6714C479.632 21.9064 480.146 22.0239 480.665 22.0239C481.042 22.0239 481.339 21.9528 481.556 21.8105C481.772 21.6621 481.88 21.4735 481.88 21.2446C481.88 20.855 481.463 20.5519 480.628 20.3354L479.904 20.1406C479.546 20.054 479.184 19.9365 478.819 19.7881C478.454 19.6335 478.117 19.4325 477.808 19.1851C477.505 18.9377 477.257 18.6377 477.065 18.2852C476.88 17.9264 476.787 17.4873 476.787 16.9678C476.787 16.5534 476.877 16.1606 477.056 15.7896C477.242 15.4123 477.501 15.0814 477.835 14.7969C478.176 14.5124 478.587 14.2866 479.069 14.1196C479.552 13.9526 480.09 13.8691 480.684 13.8691C481.531 13.8691 482.285 14.0021 482.947 14.2681C483.615 14.534 484.141 14.834 484.524 15.168L483.188 16.875C482.873 16.6462 482.499 16.4513 482.066 16.2905C481.639 16.1235 481.209 16.04 480.776 16.04C480.374 16.04 480.062 16.1143 479.839 16.2627C479.617 16.4049 479.505 16.5781 479.505 16.7822C479.505 16.9987 479.601 17.175 479.793 17.311C479.991 17.4409 480.275 17.5553 480.646 17.6543L481.723 17.9604C482.749 18.2511 483.485 18.6439 483.931 19.1387C484.376 19.6335 484.599 20.2581 484.599 21.0127C484.599 21.4333 484.512 21.8353 484.339 22.2188C484.166 22.596 483.912 22.9331 483.578 23.23C483.244 23.5269 482.83 23.7619 482.335 23.9351C481.84 24.1021 481.277 24.1855 480.646 24.1855C480.164 24.1855 479.709 24.1423 479.283 24.0557C478.862 23.9691 478.469 23.8516 478.104 23.7031C477.746 23.5485 477.421 23.3753 477.13 23.1836C476.84 22.9919 476.592 22.8001 476.388 22.6084L477.817 20.8271ZM488.402 19.918C488.446 20.2148 488.538 20.487 488.681 20.7344C488.829 20.9818 489.015 21.1951 489.237 21.3745C489.46 21.5477 489.717 21.6838 490.007 21.7827C490.298 21.8817 490.607 21.9312 490.935 21.9312C491.312 21.9312 491.721 21.86 492.16 21.7178C492.599 21.5693 493.001 21.356 493.366 21.0776L494.6 22.8774C494.136 23.2671 493.567 23.5825 492.893 23.8237C492.218 24.0649 491.501 24.1855 490.74 24.1855C490.054 24.1855 489.407 24.068 488.801 23.833C488.195 23.598 487.663 23.2578 487.206 22.8125C486.754 22.3672 486.395 21.826 486.129 21.189C485.87 20.5519 485.74 19.8345 485.74 19.0366C485.74 18.3068 485.854 17.6265 486.083 16.9956C486.318 16.3647 486.643 15.8174 487.057 15.3535C487.478 14.8896 487.979 14.5278 488.56 14.2681C489.141 14.0021 489.785 13.8691 490.49 13.8691C491.145 13.8691 491.755 13.9897 492.317 14.231C492.88 14.466 493.369 14.8 493.783 15.2329C494.198 15.6597 494.522 16.173 494.757 16.7729C494.992 17.3729 495.11 18.0347 495.11 18.7583V19.918H488.402ZM490.48 16.0957C489.93 16.0957 489.463 16.2812 489.08 16.6523C488.702 17.0173 488.483 17.4595 488.421 17.979H492.429C492.416 17.4533 492.225 17.008 491.854 16.6431C491.482 16.2782 491.025 16.0957 490.48 16.0957ZM498.867 19.083C498.867 19.4046 498.91 19.7293 498.997 20.0571C499.084 20.3787 499.217 20.6694 499.396 20.9292C499.575 21.189 499.804 21.4023 500.083 21.5693C500.367 21.7301 500.704 21.8105 501.094 21.8105C501.347 21.8105 501.576 21.7765 501.78 21.7085C501.991 21.6405 502.176 21.5477 502.337 21.4302C502.504 21.3065 502.649 21.1642 502.773 21.0034C502.903 20.8364 503.014 20.6571 503.107 20.4653L505.352 21.625C505.191 22.0146 504.969 22.3672 504.684 22.6826C504.406 22.998 504.081 23.2671 503.71 23.4897C503.339 23.7124 502.928 23.8825 502.476 24C502.025 24.1237 501.545 24.1855 501.038 24.1855C500.339 24.1855 499.696 24.0557 499.108 23.7959C498.521 23.5299 498.014 23.1681 497.587 22.7104C497.16 22.2528 496.826 21.7116 496.585 21.0869C496.344 20.4561 496.223 19.7726 496.223 19.0366C496.223 18.3068 496.344 17.6265 496.585 16.9956C496.826 16.3647 497.16 15.8174 497.587 15.3535C498.014 14.8896 498.521 14.5278 499.108 14.2681C499.696 14.0021 500.339 13.8691 501.038 13.8691C501.545 13.8691 502.025 13.931 502.476 14.0547C502.928 14.1722 503.339 14.3454 503.71 14.5742C504.081 14.7969 504.406 15.0659 504.684 15.3813C504.969 15.6968 505.191 16.0493 505.352 16.439L503.107 17.5986C503.014 17.4069 502.903 17.2306 502.773 17.0698C502.649 16.9028 502.504 16.7606 502.337 16.6431C502.176 16.5194 501.991 16.4235 501.78 16.3555C501.576 16.2812 501.347 16.2441 501.094 16.2441C500.704 16.2441 500.367 16.3276 500.083 16.4946C499.804 16.6554 499.575 16.8688 499.396 17.1348C499.217 17.3945 499.084 17.6883 498.997 18.0161C498.91 18.3439 498.867 18.6717 498.867 18.9995V19.083ZM510.594 21.0405C510.594 21.158 510.609 21.2694 510.64 21.3745C510.671 21.4797 510.724 21.5724 510.798 21.6528C510.878 21.7271 510.99 21.7858 511.132 21.8291C511.274 21.8724 511.457 21.894 511.679 21.894C511.772 21.894 511.877 21.891 511.995 21.8848C512.112 21.8724 512.23 21.86 512.347 21.8477C512.465 21.8353 512.573 21.8198 512.672 21.8013C512.777 21.7827 512.864 21.7673 512.932 21.7549L513.164 24.0186C512.922 24.0495 512.672 24.0773 512.412 24.1021C512.189 24.1268 511.942 24.1453 511.67 24.1577C511.398 24.1763 511.123 24.1855 510.844 24.1855C509.96 24.1855 509.27 23.9845 508.775 23.5825C508.281 23.1805 508.033 22.5404 508.033 21.6621V16.2905H506.243V14.064H508.033V11.2529L510.594 10.5664V14.064H513.201V16.2905H510.594V21.0405ZM517.375 24H514.815V14.064H517.375V24ZM514.546 11.457C514.546 11.2467 514.586 11.0488 514.667 10.8633C514.747 10.6715 514.855 10.5076 514.991 10.3716C515.133 10.2293 515.297 10.118 515.483 10.0376C515.668 9.95719 515.869 9.91699 516.086 9.91699C516.296 9.91699 516.494 9.95719 516.68 10.0376C516.871 10.118 517.035 10.2293 517.171 10.3716C517.314 10.5076 517.425 10.6715 517.505 10.8633C517.586 11.0488 517.626 11.2467 517.626 11.457C517.626 11.6735 517.586 11.8745 517.505 12.0601C517.425 12.2456 517.314 12.4095 517.171 12.5518C517.035 12.6878 516.871 12.7961 516.68 12.8765C516.494 12.9569 516.296 12.9971 516.086 12.9971C515.869 12.9971 515.668 12.9569 515.483 12.8765C515.297 12.7961 515.133 12.6878 514.991 12.5518C514.855 12.4095 514.747 12.2456 514.667 12.0601C514.586 11.8745 514.546 11.6735 514.546 11.457ZM523.953 13.8691C524.689 13.8691 525.357 14.0021 525.957 14.2681C526.557 14.5278 527.07 14.8896 527.497 15.3535C527.924 15.8174 528.252 16.3647 528.48 16.9956C528.715 17.6265 528.833 18.3068 528.833 19.0366C528.833 19.7726 528.715 20.4561 528.48 21.0869C528.245 21.7116 527.915 22.2528 527.488 22.7104C527.061 23.1681 526.548 23.5299 525.948 23.7959C525.348 24.0557 524.683 24.1855 523.953 24.1855C523.217 24.1855 522.549 24.0557 521.949 23.7959C521.349 23.5299 520.836 23.1681 520.409 22.7104C519.982 22.2528 519.652 21.7116 519.417 21.0869C519.181 20.4561 519.064 19.7726 519.064 19.0366C519.064 18.3068 519.178 17.6265 519.407 16.9956C519.642 16.3647 519.973 15.8174 520.4 15.3535C520.827 14.8896 521.34 14.5278 521.94 14.2681C522.546 14.0021 523.217 13.8691 523.953 13.8691ZM523.953 21.8105C524.318 21.8105 524.64 21.7425 524.918 21.6064C525.202 21.4704 525.441 21.2817 525.632 21.0405C525.824 20.7993 525.969 20.5117 526.068 20.1777C526.167 19.8376 526.217 19.4665 526.217 19.0645V18.9995C526.217 18.5975 526.167 18.2295 526.068 17.8955C525.969 17.5553 525.824 17.2646 525.632 17.0234C525.441 16.776 525.202 16.5843 524.918 16.4482C524.64 16.3122 524.318 16.2441 523.953 16.2441C523.588 16.2441 523.264 16.3122 522.979 16.4482C522.701 16.5843 522.466 16.776 522.274 17.0234C522.082 17.2646 521.937 17.5553 521.838 17.8955C521.739 18.2295 521.689 18.5975 521.689 18.9995V19.0645C521.689 19.4665 521.739 19.8376 521.838 20.1777C521.937 20.5117 522.082 20.7993 522.274 21.0405C522.466 21.2817 522.701 21.4704 522.979 21.6064C523.264 21.7425 523.588 21.8105 523.953 21.8105ZM530.531 14.064H533.091V14.9175C533.227 14.7814 533.379 14.6515 533.546 14.5278C533.719 14.3979 533.908 14.2866 534.112 14.1938C534.316 14.0949 534.542 14.0176 534.789 13.9619C535.043 13.9001 535.321 13.8691 535.624 13.8691C536.162 13.8691 536.645 13.9588 537.071 14.1382C537.498 14.3114 537.857 14.5526 538.147 14.8618C538.444 15.1711 538.67 15.5329 538.825 15.9473C538.979 16.3617 539.057 16.8101 539.057 17.2925V24H536.496V18.2202C536.496 17.8677 536.456 17.5708 536.375 17.3296C536.295 17.0822 536.184 16.8843 536.042 16.7358C535.905 16.5812 535.742 16.4699 535.55 16.4019C535.364 16.3276 535.16 16.2905 534.938 16.2905C534.678 16.2905 534.433 16.3369 534.205 16.4297C533.982 16.5225 533.787 16.6647 533.62 16.8564C533.453 17.042 533.323 17.277 533.23 17.5615C533.138 17.846 533.091 18.18 533.091 18.5635V24H530.531V14.064ZM549.531 10.5107C549.945 10.5107 550.353 10.5448 550.755 10.6128C551.157 10.6746 551.538 10.7736 551.896 10.9097C552.255 11.0457 552.586 11.2189 552.889 11.4292C553.198 11.6333 553.464 11.8776 553.687 12.1621C553.91 12.4404 554.083 12.759 554.207 13.1177C554.33 13.4764 554.392 13.8753 554.392 14.3145C554.392 14.5495 554.361 14.7969 554.299 15.0566C554.237 15.3102 554.132 15.5607 553.984 15.8081C553.842 16.0555 553.653 16.2905 553.418 16.5132C553.189 16.7297 552.908 16.9121 552.574 17.0605C552.957 17.2152 553.288 17.4069 553.566 17.6357C553.845 17.8584 554.074 18.1089 554.253 18.3872C554.432 18.6593 554.562 18.9469 554.643 19.25C554.729 19.5531 554.772 19.8561 554.772 20.1592C554.772 20.8581 554.624 21.4611 554.327 21.9683C554.036 22.4754 553.647 22.8929 553.158 23.2207C552.67 23.5485 552.11 23.7928 551.479 23.9536C550.848 24.1082 550.199 24.1855 549.531 24.1855C548.863 24.1855 548.213 24.1082 547.583 23.9536C546.958 23.7928 546.401 23.5485 545.913 23.2207C545.424 22.8929 545.031 22.4754 544.734 21.9683C544.438 21.4611 544.289 20.8581 544.289 20.1592C544.289 19.8561 544.332 19.5531 544.419 19.25C544.506 18.9469 544.639 18.6593 544.818 18.3872C545.003 18.1089 545.232 17.8584 545.504 17.6357C545.783 17.4069 546.111 17.2152 546.488 17.0605C546.154 16.9121 545.872 16.7297 545.644 16.5132C545.415 16.2905 545.226 16.0555 545.078 15.8081C544.935 15.5607 544.83 15.3102 544.762 15.0566C544.7 14.7969 544.669 14.5495 544.669 14.3145C544.669 13.6774 544.806 13.1208 545.078 12.6445C545.35 12.1683 545.712 11.7725 546.163 11.457C546.621 11.1416 547.14 10.9066 547.722 10.752C548.303 10.5911 548.906 10.5107 549.531 10.5107ZM549.531 16.04C549.846 16.04 550.131 16.006 550.384 15.938C550.644 15.8638 550.864 15.7586 551.043 15.6226C551.229 15.4803 551.371 15.3102 551.47 15.1123C551.569 14.9082 551.618 14.6732 551.618 14.4072C551.618 14.1536 551.566 13.9279 551.46 13.73C551.361 13.5321 551.219 13.3651 551.034 13.229C550.848 13.0868 550.625 12.9785 550.366 12.9043C550.112 12.8301 549.834 12.793 549.531 12.793C549.228 12.793 548.946 12.8301 548.687 12.9043C548.433 12.9785 548.213 13.0868 548.028 13.229C547.842 13.3651 547.697 13.5321 547.592 13.73C547.493 13.9279 547.443 14.1536 547.443 14.4072C547.443 14.6732 547.493 14.9082 547.592 15.1123C547.691 15.3102 547.83 15.4803 548.009 15.6226C548.195 15.7586 548.414 15.8638 548.668 15.938C548.928 16.006 549.215 16.04 549.531 16.04ZM549.531 21.9126C549.883 21.9126 550.205 21.8693 550.496 21.7827C550.792 21.6961 551.046 21.5724 551.256 21.4116C551.467 21.2508 551.631 21.0591 551.748 20.8364C551.866 20.6138 551.924 20.3633 551.924 20.085C551.924 19.8128 551.866 19.5654 551.748 19.3428C551.631 19.1139 551.467 18.9191 551.256 18.7583C551.046 18.5913 550.792 18.4645 550.496 18.3779C550.205 18.2852 549.883 18.2388 549.531 18.2388C549.178 18.2388 548.857 18.2852 548.566 18.3779C548.275 18.4645 548.022 18.5913 547.805 18.7583C547.595 18.9191 547.431 19.1139 547.313 19.3428C547.196 19.5654 547.137 19.8128 547.137 20.085C547.137 20.3633 547.196 20.6138 547.313 20.8364C547.431 21.0591 547.595 21.2508 547.805 21.4116C548.022 21.5724 548.275 21.6961 548.566 21.7827C548.857 21.8693 549.178 21.9126 549.531 21.9126ZM561.137 12.9971C560.772 12.9971 560.453 13.0558 560.181 13.1733C559.909 13.2909 559.683 13.4548 559.504 13.665C559.325 13.8753 559.192 14.1227 559.105 14.4072C559.018 14.6855 558.975 14.9886 558.975 15.3164L556.22 15.0659C556.226 14.3361 556.356 13.6898 556.609 13.127C556.863 12.5579 557.209 12.0817 557.648 11.6982C558.088 11.3086 558.604 11.0148 559.198 10.8169C559.798 10.6128 560.45 10.5107 561.155 10.5107C561.891 10.5107 562.562 10.6221 563.168 10.8447C563.781 11.0612 564.303 11.3674 564.736 11.7632C565.169 12.159 565.503 12.6353 565.738 13.1919C565.979 13.7424 566.1 14.3485 566.1 15.0103C566.1 15.7339 565.955 16.4111 565.664 17.042C565.38 17.6667 564.999 18.248 564.523 18.7861C564.047 19.318 563.499 19.8066 562.881 20.252C562.262 20.6911 561.625 21.0869 560.97 21.4395L560.719 21.5693H566.267V24H556.563V21.5879C557.064 21.3158 557.574 21.0251 558.094 20.7158C558.619 20.4066 559.127 20.085 559.615 19.751C560.11 19.4108 560.577 19.0583 561.016 18.6934C561.455 18.3285 561.836 17.9512 562.157 17.5615C562.485 17.1657 562.745 16.7606 562.937 16.3462C563.128 15.9256 563.224 15.4927 563.224 15.0474C563.224 14.7938 563.181 14.5433 563.094 14.2959C563.008 14.0485 562.878 13.8289 562.705 13.6372C562.538 13.4455 562.321 13.2909 562.055 13.1733C561.795 13.0558 561.489 12.9971 561.137 12.9971ZM575.943 21.5322H571.017L570.266 24H567.408L571.759 10.6963H575.294L579.71 24H576.704L575.943 21.5322ZM571.741 19.1572H575.22L573.494 13.5352H573.457L571.741 19.1572ZM587.085 19.9644C586.77 20.0138 586.516 20.1252 586.325 20.2983C586.133 20.4653 586.037 20.6942 586.037 20.9849C586.037 21.3065 586.155 21.5848 586.39 21.8198C586.625 22.0487 586.971 22.1631 587.429 22.1631C587.911 22.1631 588.292 22.0239 588.57 21.7456C588.848 21.4673 588.987 21.0993 588.987 20.6416V19.6396L587.085 19.9644ZM589.405 23.063C589.3 23.1805 589.17 23.3073 589.015 23.4434C588.867 23.5732 588.687 23.6938 588.477 23.8052C588.273 23.9103 588.032 24 587.753 24.0742C587.475 24.1484 587.163 24.1855 586.816 24.1855C586.322 24.1855 585.864 24.1082 585.443 23.9536C585.029 23.7928 584.664 23.5701 584.349 23.2856C584.033 23.0011 583.786 22.6733 583.606 22.3022C583.427 21.925 583.337 21.5168 583.337 21.0776C583.337 20.2798 583.585 19.6273 584.08 19.1201C584.574 18.613 585.258 18.2944 586.13 18.1646L588.987 17.7471V17.5615C588.987 17.1162 588.851 16.7637 588.579 16.5039C588.307 16.2441 587.865 16.1143 587.252 16.1143C586.999 16.1143 586.742 16.1452 586.482 16.207C586.223 16.2627 585.972 16.3276 585.731 16.4019C585.496 16.4761 585.276 16.5627 585.072 16.6616C584.868 16.7544 584.689 16.8379 584.534 16.9121L583.532 14.9546C584.101 14.6392 584.732 14.3794 585.425 14.1753C586.124 13.9712 586.847 13.8691 587.596 13.8691C588.053 13.8691 588.514 13.9186 588.978 14.0176C589.448 14.1104 589.872 14.2835 590.249 14.5371C590.632 14.7907 590.945 15.137 591.186 15.5762C591.427 16.0091 591.548 16.5627 591.548 17.2368V21.3188C591.548 21.6095 591.622 21.826 591.771 21.9683C591.925 22.1043 592.135 22.2311 592.401 22.3486L591.242 24.1855C590.772 24.1361 590.394 24.0155 590.11 23.8237C589.825 23.6258 589.59 23.3722 589.405 23.063ZM596.251 27.1357H593.691V14.064H596.251V14.9175C596.53 14.6268 596.873 14.3794 597.281 14.1753C597.689 13.9712 598.184 13.8691 598.766 13.8691C599.421 13.8691 600.015 14.0021 600.547 14.2681C601.085 14.5278 601.546 14.8896 601.929 15.3535C602.313 15.8112 602.61 16.3555 602.82 16.9863C603.03 17.6172 603.135 18.3006 603.135 19.0366C603.135 19.7726 603.027 20.4561 602.811 21.0869C602.594 21.7178 602.291 22.262 601.901 22.7197C601.512 23.1774 601.045 23.5361 600.5 23.7959C599.956 24.0557 599.356 24.1855 598.701 24.1855C598.41 24.1855 598.144 24.1577 597.903 24.1021C597.668 24.0526 597.451 23.9814 597.253 23.8887C597.056 23.7959 596.873 23.6877 596.706 23.564C596.539 23.4341 596.388 23.2949 596.251 23.1465V27.1357ZM596.177 19.9551C596.177 20.221 596.224 20.4684 596.316 20.6973C596.415 20.9199 596.555 21.1147 596.734 21.2817C596.913 21.4487 597.127 21.5786 597.374 21.6714C597.628 21.7642 597.912 21.8105 598.228 21.8105C598.592 21.8105 598.914 21.7456 599.192 21.6157C599.477 21.4797 599.715 21.291 599.907 21.0498C600.098 20.8086 600.244 20.5241 600.343 20.1963C600.442 19.8623 600.491 19.4974 600.491 19.1016V18.981C600.491 18.5851 600.442 18.2202 600.343 17.8862C600.244 17.5522 600.098 17.2646 599.907 17.0234C599.715 16.776 599.477 16.5843 599.192 16.4482C598.914 16.3122 598.592 16.2441 598.228 16.2441C597.912 16.2441 597.628 16.2905 597.374 16.3833C597.127 16.4761 596.913 16.606 596.734 16.7729C596.555 16.9399 596.415 17.1379 596.316 17.3667C596.224 17.5955 596.177 17.8429 596.177 18.1089V19.9551ZM607.403 27.1357H604.842V14.064H607.403V14.9175C607.681 14.6268 608.024 14.3794 608.433 14.1753C608.841 13.9712 609.336 13.8691 609.917 13.8691C610.573 13.8691 611.166 14.0021 611.698 14.2681C612.236 14.5278 612.697 14.8896 613.081 15.3535C613.464 15.8112 613.761 16.3555 613.971 16.9863C614.181 17.6172 614.287 18.3006 614.287 19.0366C614.287 19.7726 614.178 20.4561 613.962 21.0869C613.745 21.7178 613.442 22.262 613.053 22.7197C612.663 23.1774 612.196 23.5361 611.652 23.7959C611.108 24.0557 610.508 24.1855 609.852 24.1855C609.561 24.1855 609.295 24.1577 609.054 24.1021C608.819 24.0526 608.603 23.9814 608.405 23.8887C608.207 23.7959 608.024 23.6877 607.857 23.564C607.69 23.4341 607.539 23.2949 607.403 23.1465V27.1357ZM607.329 19.9551C607.329 20.221 607.375 20.4684 607.468 20.6973C607.567 20.9199 607.706 21.1147 607.885 21.2817C608.065 21.4487 608.278 21.5786 608.525 21.6714C608.779 21.7642 609.063 21.8105 609.379 21.8105C609.744 21.8105 610.065 21.7456 610.344 21.6157C610.628 21.4797 610.866 21.291 611.058 21.0498C611.25 20.8086 611.395 20.5241 611.494 20.1963C611.593 19.8623 611.643 19.4974 611.643 19.1016V18.981C611.643 18.5851 611.593 18.2202 611.494 17.8862C611.395 17.5522 611.25 17.2646 611.058 17.0234C610.866 16.776 610.628 16.5843 610.344 16.4482C610.065 16.3122 609.744 16.2441 609.379 16.2441C609.063 16.2441 608.779 16.2905 608.525 16.3833C608.278 16.4761 608.065 16.606 607.885 16.7729C607.706 16.9399 607.567 17.1379 607.468 17.3667C607.375 17.5955 607.329 17.8429 607.329 18.1089V19.9551ZM618.137 19.918C618.18 20.2148 618.273 20.487 618.415 20.7344C618.563 20.9818 618.749 21.1951 618.972 21.3745C619.194 21.5477 619.451 21.6838 619.742 21.7827C620.032 21.8817 620.342 21.9312 620.669 21.9312C621.047 21.9312 621.455 21.86 621.894 21.7178C622.333 21.5693 622.735 21.356 623.1 21.0776L624.334 22.8774C623.87 23.2671 623.301 23.5825 622.627 23.8237C621.953 24.0649 621.235 24.1855 620.475 24.1855C619.788 24.1855 619.142 24.068 618.536 23.833C617.93 23.598 617.398 23.2578 616.94 22.8125C616.488 22.3672 616.13 21.826 615.864 21.189C615.604 20.5519 615.474 19.8345 615.474 19.0366C615.474 18.3068 615.589 17.6265 615.817 16.9956C616.052 16.3647 616.377 15.8174 616.792 15.3535C617.212 14.8896 617.713 14.5278 618.294 14.2681C618.876 14.0021 619.519 13.8691 620.224 13.8691C620.88 13.8691 621.489 13.9897 622.052 14.231C622.615 14.466 623.103 14.8 623.518 15.2329C623.932 15.6597 624.257 16.173 624.492 16.7729C624.727 17.3729 624.844 18.0347 624.844 18.7583V19.918H618.137ZM620.215 16.0957C619.664 16.0957 619.197 16.2812 618.814 16.6523C618.437 17.0173 618.217 17.4595 618.155 17.979H622.163C622.151 17.4533 621.959 17.008 621.588 16.6431C621.217 16.2782 620.759 16.0957 620.215 16.0957ZM629.687 19.9644C629.372 20.0138 629.118 20.1252 628.926 20.2983C628.735 20.4653 628.639 20.6942 628.639 20.9849C628.639 21.3065 628.756 21.5848 628.991 21.8198C629.226 22.0487 629.573 22.1631 630.03 22.1631C630.513 22.1631 630.893 22.0239 631.171 21.7456C631.45 21.4673 631.589 21.0993 631.589 20.6416V19.6396L629.687 19.9644ZM632.006 23.063C631.901 23.1805 631.771 23.3073 631.617 23.4434C631.468 23.5732 631.289 23.6938 631.079 23.8052C630.875 23.9103 630.633 24 630.355 24.0742C630.077 24.1484 629.764 24.1855 629.418 24.1855C628.923 24.1855 628.465 24.1082 628.045 23.9536C627.631 23.7928 627.266 23.5701 626.95 23.2856C626.635 23.0011 626.387 22.6733 626.208 22.3022C626.029 21.925 625.939 21.5168 625.939 21.0776C625.939 20.2798 626.186 19.6273 626.681 19.1201C627.176 18.613 627.859 18.2944 628.731 18.1646L631.589 17.7471V17.5615C631.589 17.1162 631.453 16.7637 631.181 16.5039C630.909 16.2441 630.466 16.1143 629.854 16.1143C629.6 16.1143 629.344 16.1452 629.084 16.207C628.824 16.2627 628.574 16.3276 628.333 16.4019C628.097 16.4761 627.878 16.5627 627.674 16.6616C627.47 16.7544 627.29 16.8379 627.136 16.9121L626.134 14.9546C626.703 14.6392 627.334 14.3794 628.026 14.1753C628.725 13.9712 629.449 13.8691 630.197 13.8691C630.655 13.8691 631.116 13.9186 631.58 14.0176C632.05 14.1104 632.473 14.2835 632.851 14.5371C633.234 14.7907 633.546 15.137 633.788 15.5762C634.029 16.0091 634.149 16.5627 634.149 17.2368V21.3188C634.149 21.6095 634.224 21.826 634.372 21.9683C634.527 22.1043 634.737 22.2311 635.003 22.3486L633.843 24.1855C633.373 24.1361 632.996 24.0155 632.711 23.8237C632.427 23.6258 632.192 23.3722 632.006 23.063ZM636.255 10.6963H638.816V21.3003C638.816 21.5106 638.875 21.6714 638.992 21.7827C639.116 21.894 639.311 21.9497 639.577 21.9497C639.7 21.9497 639.806 21.9435 639.892 21.9312C639.985 21.9126 640.102 21.8879 640.245 21.8569L640.449 24.0371C640.276 24.0618 640.09 24.0866 639.892 24.1113C639.725 24.1299 639.53 24.1453 639.308 24.1577C639.091 24.1763 638.865 24.1855 638.63 24.1855C638.265 24.1855 637.938 24.1392 637.647 24.0464C637.356 23.9536 637.106 23.8175 636.896 23.6382C636.691 23.4526 636.534 23.2238 636.422 22.9517C636.311 22.6795 636.255 22.3641 636.255 22.0054V10.6963Z" fill="white"/>
</svg>
