<svg width="414" height="96" viewBox="0 0 414 96" fill="none" xmlns="http://www.w3.org/2000/svg">
<rect width="414" height="96" fill="#F3F2F1"/>
<rect width="11" height="96" fill="#0B0C0C"/>
<path d="M31.3633 38.1953H44.1719V41.3477H39.4727V55H36.0625V41.3477H31.3633V38.1953ZM45.9414 38.1953H49.1758V43.5273C49.3477 43.3555 49.5391 43.1914 49.75 43.0352C49.9688 42.8711 50.207 42.7305 50.4648 42.6133C50.7227 42.4883 51.0078 42.3906 51.3203 42.3203C51.6406 42.2422 51.9922 42.2031 52.375 42.2031C53.0547 42.2031 53.6641 42.3164 54.2031 42.543C54.7422 42.7617 55.1953 43.0664 55.5625 43.457C55.9375 43.8477 56.2227 44.3047 56.418 44.8281C56.6133 45.3516 56.7109 45.918 56.7109 46.5273V55H53.4766V47.6992C53.4766 47.2539 53.4258 46.8789 53.3242 46.5742C53.2227 46.2617 53.082 46.0117 52.9023 45.8242C52.7305 45.6289 52.5234 45.4883 52.2812 45.4023C52.0469 45.3086 51.7891 45.2617 51.5078 45.2617C51.1797 45.2617 50.8711 45.3203 50.582 45.4375C50.3008 45.5547 50.0547 45.7344 49.8438 45.9766C49.6328 46.2109 49.4688 46.5078 49.3516 46.8672C49.2344 47.2266 49.1758 47.6484 49.1758 48.1328V55H45.9414V38.1953ZM62.6523 55H59.418V42.4492H62.6523V55ZM59.0781 39.1562C59.0781 38.8906 59.1289 38.6406 59.2305 38.4062C59.332 38.1641 59.4688 37.957 59.6406 37.7852C59.8203 37.6055 60.0273 37.4648 60.2617 37.3633C60.4961 37.2617 60.75 37.2109 61.0234 37.2109C61.2891 37.2109 61.5391 37.2617 61.7734 37.3633C62.0156 37.4648 62.2227 37.6055 62.3945 37.7852C62.5742 37.957 62.7148 38.1641 62.8164 38.4062C62.918 38.6406 62.9688 38.8906 62.9688 39.1562C62.9688 39.4297 62.918 39.6836 62.8164 39.918C62.7148 40.1523 62.5742 40.3594 62.3945 40.5391C62.2227 40.7109 62.0156 40.8477 61.7734 40.9492C61.5391 41.0508 61.2891 41.1016 61.0234 41.1016C60.75 41.1016 60.4961 41.0508 60.2617 40.9492C60.0273 40.8477 59.8203 40.7109 59.6406 40.5391C59.4688 40.3594 59.332 40.1523 59.2305 39.918C59.1289 39.6836 59.0781 39.4297 59.0781 39.1562ZM66.332 50.9922C66.793 51.4062 67.3438 51.7617 67.9844 52.0586C68.625 52.3555 69.2734 52.5039 69.9297 52.5039C70.4062 52.5039 70.7812 52.4141 71.0547 52.2344C71.3281 52.0469 71.4648 51.8086 71.4648 51.5195C71.4648 51.0273 70.9375 50.6445 69.8828 50.3711L68.9688 50.125C68.5156 50.0156 68.0586 49.8672 67.5977 49.6797C67.1367 49.4844 66.7109 49.2305 66.3203 48.918C65.9375 48.6055 65.625 48.2266 65.3828 47.7812C65.1484 47.3281 65.0312 46.7734 65.0312 46.1172C65.0312 45.5938 65.1445 45.0977 65.3711 44.6289C65.6055 44.1523 65.9336 43.7344 66.3555 43.375C66.7852 43.0156 67.3047 42.7305 67.9141 42.5195C68.5234 42.3086 69.2031 42.2031 69.9531 42.2031C71.0234 42.2031 71.9766 42.3711 72.8125 42.707C73.6562 43.043 74.3203 43.4219 74.8047 43.8438L73.1172 46C72.7188 45.7109 72.2461 45.4648 71.6992 45.2617C71.1602 45.0508 70.6172 44.9453 70.0703 44.9453C69.5625 44.9453 69.168 45.0391 68.8867 45.2266C68.6055 45.4062 68.4648 45.625 68.4648 45.8828C68.4648 46.1562 68.5859 46.3789 68.8281 46.5508C69.0781 46.7148 69.4375 46.8594 69.9062 46.9844L71.2656 47.3711C72.5625 47.7383 73.4922 48.2344 74.0547 48.8594C74.6172 49.4844 74.8984 50.2734 74.8984 51.2266C74.8984 51.7578 74.7891 52.2656 74.5703 52.75C74.3516 53.2266 74.0312 53.6523 73.6094 54.0273C73.1875 54.4023 72.6641 54.6992 72.0391 54.918C71.4141 55.1289 70.7031 55.2344 69.9062 55.2344C69.2969 55.2344 68.7227 55.1797 68.1836 55.0703C67.6523 54.9609 67.1562 54.8125 66.6953 54.625C66.2422 54.4297 65.832 54.2109 65.4648 53.9688C65.0977 53.7266 64.7852 53.4844 64.5273 53.2422L66.332 50.9922ZM85.3867 49.9023C84.9883 49.9648 84.668 50.1055 84.4258 50.3242C84.1836 50.5352 84.0625 50.8242 84.0625 51.1914C84.0625 51.5977 84.2109 51.9492 84.5078 52.2461C84.8047 52.5352 85.2422 52.6797 85.8203 52.6797C86.4297 52.6797 86.9102 52.5039 87.2617 52.1523C87.6133 51.8008 87.7891 51.3359 87.7891 50.7578V49.4922L85.3867 49.9023ZM88.3164 53.8164C88.1836 53.9648 88.0195 54.125 87.8242 54.2969C87.6367 54.4609 87.4102 54.6133 87.1445 54.7539C86.8867 54.8867 86.582 55 86.2305 55.0938C85.8789 55.1875 85.4844 55.2344 85.0469 55.2344C84.4219 55.2344 83.8438 55.1367 83.3125 54.9414C82.7891 54.7383 82.3281 54.457 81.9297 54.0977C81.5312 53.7383 81.2188 53.3242 80.9922 52.8555C80.7656 52.3789 80.6523 51.8633 80.6523 51.3086C80.6523 50.3008 80.9648 49.4766 81.5898 48.8359C82.2148 48.1953 83.0781 47.793 84.1797 47.6289L87.7891 47.1016V46.8672C87.7891 46.3047 87.6172 45.8594 87.2734 45.5312C86.9297 45.2031 86.3711 45.0391 85.5977 45.0391C85.2773 45.0391 84.9531 45.0781 84.625 45.1562C84.2969 45.2266 83.9805 45.3086 83.6758 45.4023C83.3789 45.4961 83.1016 45.6055 82.8438 45.7305C82.5859 45.8477 82.3594 45.9531 82.1641 46.0469L80.8984 43.5742C81.6172 43.1758 82.4141 42.8477 83.2891 42.5898C84.1719 42.332 85.0859 42.2031 86.0312 42.2031C86.6094 42.2031 87.1914 42.2656 87.7773 42.3906C88.3711 42.5078 88.9062 42.7266 89.3828 43.0469C89.8672 43.3672 90.2617 43.8047 90.5664 44.3594C90.8711 44.9062 91.0234 45.6055 91.0234 46.457V51.6133C91.0234 51.9805 91.1172 52.2539 91.3047 52.4336C91.5 52.6055 91.7656 52.7656 92.1016 52.9141L90.6367 55.2344C90.043 55.1719 89.5664 55.0195 89.207 54.7773C88.8477 54.5273 88.5508 54.207 88.3164 53.8164ZM96.9648 58.9609H93.7305V42.4492H96.9648V43.5273C97.3164 43.1602 97.75 42.8477 98.2656 42.5898C98.7812 42.332 99.4062 42.2031 100.141 42.2031C100.969 42.2031 101.719 42.3711 102.391 42.707C103.07 43.0352 103.652 43.4922 104.137 44.0781C104.621 44.6562 104.996 45.3438 105.262 46.1406C105.527 46.9375 105.66 47.8008 105.66 48.7305C105.66 49.6602 105.523 50.5234 105.25 51.3203C104.977 52.1172 104.594 52.8047 104.102 53.3828C103.609 53.9609 103.02 54.4141 102.332 54.7422C101.645 55.0703 100.887 55.2344 100.059 55.2344C99.6914 55.2344 99.3555 55.1992 99.0508 55.1289C98.7539 55.0664 98.4805 54.9766 98.2305 54.8594C97.9805 54.7422 97.75 54.6055 97.5391 54.4492C97.3281 54.2852 97.1367 54.1094 96.9648 53.9219V58.9609ZM96.8711 49.8906C96.8711 50.2266 96.9297 50.5391 97.0469 50.8281C97.1719 51.1094 97.3477 51.3555 97.5742 51.5664C97.8008 51.7773 98.0703 51.9414 98.3828 52.0586C98.7031 52.1758 99.0625 52.2344 99.4609 52.2344C99.9219 52.2344 100.328 52.1523 100.68 51.9883C101.039 51.8164 101.34 51.5781 101.582 51.2734C101.824 50.9688 102.008 50.6094 102.133 50.1953C102.258 49.7734 102.32 49.3125 102.32 48.8125V48.6602C102.32 48.1602 102.258 47.6992 102.133 47.2773C102.008 46.8555 101.824 46.4922 101.582 46.1875C101.34 45.875 101.039 45.6328 100.68 45.4609C100.328 45.2891 99.9219 45.2031 99.4609 45.2031C99.0625 45.2031 98.7031 45.2617 98.3828 45.3789C98.0703 45.4961 97.8008 45.6602 97.5742 45.8711C97.3477 46.082 97.1719 46.332 97.0469 46.6211C96.9297 46.9102 96.8711 47.2227 96.8711 47.5586V49.8906ZM111.051 58.9609H107.816V42.4492H111.051V43.5273C111.402 43.1602 111.836 42.8477 112.352 42.5898C112.867 42.332 113.492 42.2031 114.227 42.2031C115.055 42.2031 115.805 42.3711 116.477 42.707C117.156 43.0352 117.738 43.4922 118.223 44.0781C118.707 44.6562 119.082 45.3438 119.348 46.1406C119.613 46.9375 119.746 47.8008 119.746 48.7305C119.746 49.6602 119.609 50.5234 119.336 51.3203C119.062 52.1172 118.68 52.8047 118.188 53.3828C117.695 53.9609 117.105 54.4141 116.418 54.7422C115.73 55.0703 114.973 55.2344 114.145 55.2344C113.777 55.2344 113.441 55.1992 113.137 55.1289C112.84 55.0664 112.566 54.9766 112.316 54.8594C112.066 54.7422 111.836 54.6055 111.625 54.4492C111.414 54.2852 111.223 54.1094 111.051 53.9219V58.9609ZM110.957 49.8906C110.957 50.2266 111.016 50.5391 111.133 50.8281C111.258 51.1094 111.434 51.3555 111.66 51.5664C111.887 51.7773 112.156 51.9414 112.469 52.0586C112.789 52.1758 113.148 52.2344 113.547 52.2344C114.008 52.2344 114.414 52.1523 114.766 51.9883C115.125 51.8164 115.426 51.5781 115.668 51.2734C115.91 50.9688 116.094 50.6094 116.219 50.1953C116.344 49.7734 116.406 49.3125 116.406 48.8125V48.6602C116.406 48.1602 116.344 47.6992 116.219 47.2773C116.094 46.8555 115.91 46.4922 115.668 46.1875C115.426 45.875 115.125 45.6328 114.766 45.4609C114.414 45.2891 114.008 45.2031 113.547 45.2031C113.148 45.2031 112.789 45.2617 112.469 45.3789C112.156 45.4961 111.887 45.6602 111.66 45.8711C111.434 46.082 111.258 46.332 111.133 46.6211C111.016 46.9102 110.957 47.2227 110.957 47.5586V49.8906ZM124.609 49.8438C124.664 50.2188 124.781 50.5625 124.961 50.875C125.148 51.1875 125.383 51.457 125.664 51.6836C125.945 51.9023 126.27 52.0742 126.637 52.1992C127.004 52.3242 127.395 52.3867 127.809 52.3867C128.285 52.3867 128.801 52.2969 129.355 52.1172C129.91 51.9297 130.418 51.6602 130.879 51.3086L132.438 53.582C131.852 54.0742 131.133 54.4727 130.281 54.7773C129.43 55.082 128.523 55.2344 127.562 55.2344C126.695 55.2344 125.879 55.0859 125.113 54.7891C124.348 54.4922 123.676 54.0625 123.098 53.5C122.527 52.9375 122.074 52.2539 121.738 51.4492C121.41 50.6445 121.246 49.7383 121.246 48.7305C121.246 47.8086 121.391 46.9492 121.68 46.1523C121.977 45.3555 122.387 44.6641 122.91 44.0781C123.441 43.4922 124.074 43.0352 124.809 42.707C125.543 42.3711 126.355 42.2031 127.246 42.2031C128.074 42.2031 128.844 42.3555 129.555 42.6602C130.266 42.957 130.883 43.3789 131.406 43.9258C131.93 44.4648 132.34 45.1133 132.637 45.8711C132.934 46.6289 133.082 47.4648 133.082 48.3789V49.8438H124.609ZM127.234 45.0156C126.539 45.0156 125.949 45.25 125.465 45.7188C124.988 46.1797 124.711 46.7383 124.633 47.3945H129.695C129.68 46.7305 129.438 46.168 128.969 45.707C128.5 45.2461 127.922 45.0156 127.234 45.0156ZM139.199 49.9023C138.801 49.9648 138.48 50.1055 138.238 50.3242C137.996 50.5352 137.875 50.8242 137.875 51.1914C137.875 51.5977 138.023 51.9492 138.32 52.2461C138.617 52.5352 139.055 52.6797 139.633 52.6797C140.242 52.6797 140.723 52.5039 141.074 52.1523C141.426 51.8008 141.602 51.3359 141.602 50.7578V49.4922L139.199 49.9023ZM142.129 53.8164C141.996 53.9648 141.832 54.125 141.637 54.2969C141.449 54.4609 141.223 54.6133 140.957 54.7539C140.699 54.8867 140.395 55 140.043 55.0938C139.691 55.1875 139.297 55.2344 138.859 55.2344C138.234 55.2344 137.656 55.1367 137.125 54.9414C136.602 54.7383 136.141 54.457 135.742 54.0977C135.344 53.7383 135.031 53.3242 134.805 52.8555C134.578 52.3789 134.465 51.8633 134.465 51.3086C134.465 50.3008 134.777 49.4766 135.402 48.8359C136.027 48.1953 136.891 47.793 137.992 47.6289L141.602 47.1016V46.8672C141.602 46.3047 141.43 45.8594 141.086 45.5312C140.742 45.2031 140.184 45.0391 139.41 45.0391C139.09 45.0391 138.766 45.0781 138.438 45.1562C138.109 45.2266 137.793 45.3086 137.488 45.4023C137.191 45.4961 136.914 45.6055 136.656 45.7305C136.398 45.8477 136.172 45.9531 135.977 46.0469L134.711 43.5742C135.43 43.1758 136.227 42.8477 137.102 42.5898C137.984 42.332 138.898 42.2031 139.844 42.2031C140.422 42.2031 141.004 42.2656 141.59 42.3906C142.184 42.5078 142.719 42.7266 143.195 43.0469C143.68 43.3672 144.074 43.8047 144.379 44.3594C144.684 44.9062 144.836 45.6055 144.836 46.457V51.6133C144.836 51.9805 144.93 52.2539 145.117 52.4336C145.312 52.6055 145.578 52.7656 145.914 52.9141L144.449 55.2344C143.855 55.1719 143.379 55.0195 143.02 54.7773C142.66 54.5273 142.363 54.207 142.129 53.8164ZM147.496 38.1953H150.73V51.5898C150.73 51.8555 150.805 52.0586 150.953 52.1992C151.109 52.3398 151.355 52.4102 151.691 52.4102C151.848 52.4102 151.98 52.4023 152.09 52.3867C152.207 52.3633 152.355 52.332 152.535 52.293L152.793 55.0469C152.574 55.0781 152.34 55.1094 152.09 55.1406C151.879 55.1641 151.633 55.1836 151.352 55.1992C151.078 55.2227 150.793 55.2344 150.496 55.2344C150.035 55.2344 149.621 55.1758 149.254 55.0586C148.887 54.9414 148.57 54.7695 148.305 54.543C148.047 54.3086 147.848 54.0195 147.707 53.6758C147.566 53.332 147.496 52.9336 147.496 52.4805V38.1953ZM158.324 38.1953H161.559V43.5273C161.73 43.3555 161.922 43.1914 162.133 43.0352C162.352 42.8711 162.59 42.7305 162.848 42.6133C163.105 42.4883 163.391 42.3906 163.703 42.3203C164.023 42.2422 164.375 42.2031 164.758 42.2031C165.438 42.2031 166.047 42.3164 166.586 42.543C167.125 42.7617 167.578 43.0664 167.945 43.457C168.32 43.8477 168.605 44.3047 168.801 44.8281C168.996 45.3516 169.094 45.918 169.094 46.5273V55H165.859V47.6992C165.859 47.2539 165.809 46.8789 165.707 46.5742C165.605 46.2617 165.465 46.0117 165.285 45.8242C165.113 45.6289 164.906 45.4883 164.664 45.4023C164.43 45.3086 164.172 45.2617 163.891 45.2617C163.562 45.2617 163.254 45.3203 162.965 45.4375C162.684 45.5547 162.438 45.7344 162.227 45.9766C162.016 46.2109 161.852 46.5078 161.734 46.8672C161.617 47.2266 161.559 47.6484 161.559 48.1328V55H158.324V38.1953ZM175.855 49.9023C175.457 49.9648 175.137 50.1055 174.895 50.3242C174.652 50.5352 174.531 50.8242 174.531 51.1914C174.531 51.5977 174.68 51.9492 174.977 52.2461C175.273 52.5352 175.711 52.6797 176.289 52.6797C176.898 52.6797 177.379 52.5039 177.73 52.1523C178.082 51.8008 178.258 51.3359 178.258 50.7578V49.4922L175.855 49.9023ZM178.785 53.8164C178.652 53.9648 178.488 54.125 178.293 54.2969C178.105 54.4609 177.879 54.6133 177.613 54.7539C177.355 54.8867 177.051 55 176.699 55.0938C176.348 55.1875 175.953 55.2344 175.516 55.2344C174.891 55.2344 174.312 55.1367 173.781 54.9414C173.258 54.7383 172.797 54.457 172.398 54.0977C172 53.7383 171.688 53.3242 171.461 52.8555C171.234 52.3789 171.121 51.8633 171.121 51.3086C171.121 50.3008 171.434 49.4766 172.059 48.8359C172.684 48.1953 173.547 47.793 174.648 47.6289L178.258 47.1016V46.8672C178.258 46.3047 178.086 45.8594 177.742 45.5312C177.398 45.2031 176.84 45.0391 176.066 45.0391C175.746 45.0391 175.422 45.0781 175.094 45.1562C174.766 45.2266 174.449 45.3086 174.145 45.4023C173.848 45.4961 173.57 45.6055 173.312 45.7305C173.055 45.8477 172.828 45.9531 172.633 46.0469L171.367 43.5742C172.086 43.1758 172.883 42.8477 173.758 42.5898C174.641 42.332 175.555 42.2031 176.5 42.2031C177.078 42.2031 177.66 42.2656 178.246 42.3906C178.84 42.5078 179.375 42.7266 179.852 43.0469C180.336 43.3672 180.73 43.8047 181.035 44.3594C181.34 44.9062 181.492 45.6055 181.492 46.457V51.6133C181.492 51.9805 181.586 52.2539 181.773 52.4336C181.969 52.6055 182.234 52.7656 182.57 52.9141L181.105 55.2344C180.512 55.1719 180.035 55.0195 179.676 54.7773C179.316 54.5273 179.02 54.207 178.785 53.8164ZM185.09 50.9922C185.551 51.4062 186.102 51.7617 186.742 52.0586C187.383 52.3555 188.031 52.5039 188.688 52.5039C189.164 52.5039 189.539 52.4141 189.812 52.2344C190.086 52.0469 190.223 51.8086 190.223 51.5195C190.223 51.0273 189.695 50.6445 188.641 50.3711L187.727 50.125C187.273 50.0156 186.816 49.8672 186.355 49.6797C185.895 49.4844 185.469 49.2305 185.078 48.918C184.695 48.6055 184.383 48.2266 184.141 47.7812C183.906 47.3281 183.789 46.7734 183.789 46.1172C183.789 45.5938 183.902 45.0977 184.129 44.6289C184.363 44.1523 184.691 43.7344 185.113 43.375C185.543 43.0156 186.062 42.7305 186.672 42.5195C187.281 42.3086 187.961 42.2031 188.711 42.2031C189.781 42.2031 190.734 42.3711 191.57 42.707C192.414 43.043 193.078 43.4219 193.562 43.8438L191.875 46C191.477 45.7109 191.004 45.4648 190.457 45.2617C189.918 45.0508 189.375 44.9453 188.828 44.9453C188.32 44.9453 187.926 45.0391 187.645 45.2266C187.363 45.4062 187.223 45.625 187.223 45.8828C187.223 46.1562 187.344 46.3789 187.586 46.5508C187.836 46.7148 188.195 46.8594 188.664 46.9844L190.023 47.3711C191.32 47.7383 192.25 48.2344 192.812 48.8594C193.375 49.4844 193.656 50.2734 193.656 51.2266C193.656 51.7578 193.547 52.2656 193.328 52.75C193.109 53.2266 192.789 53.6523 192.367 54.0273C191.945 54.4023 191.422 54.6992 190.797 54.918C190.172 55.1289 189.461 55.2344 188.664 55.2344C188.055 55.2344 187.48 55.1797 186.941 55.0703C186.41 54.9609 185.914 54.8125 185.453 54.625C185 54.4297 184.59 54.2109 184.223 53.9688C183.855 53.7266 183.543 53.4844 183.285 53.2422L185.09 50.9922ZM212.02 48.7305C212.02 49.6602 211.883 50.5234 211.609 51.3203C211.336 52.1172 210.953 52.8047 210.461 53.3828C209.969 53.9609 209.379 54.4141 208.691 54.7422C208.004 55.0703 207.246 55.2344 206.418 55.2344C206.051 55.2344 205.715 55.1992 205.41 55.1289C205.113 55.0664 204.84 54.9766 204.59 54.8594C204.34 54.7422 204.109 54.6055 203.898 54.4492C203.688 54.2852 203.496 54.1094 203.324 53.9219V55H200.09V38.1953H203.324V43.5273C203.676 43.1602 204.109 42.8477 204.625 42.5898C205.141 42.332 205.766 42.2031 206.5 42.2031C207.328 42.2031 208.078 42.3711 208.75 42.707C209.43 43.0352 210.012 43.4922 210.496 44.0781C210.98 44.6562 211.355 45.3438 211.621 46.1406C211.887 46.9375 212.02 47.8008 212.02 48.7305ZM203.23 49.8906C203.23 50.2266 203.289 50.5391 203.406 50.8281C203.531 51.1094 203.707 51.3555 203.934 51.5664C204.16 51.7773 204.43 51.9414 204.742 52.0586C205.062 52.1758 205.422 52.2344 205.82 52.2344C206.281 52.2344 206.688 52.1523 207.039 51.9883C207.398 51.8164 207.699 51.5781 207.941 51.2734C208.184 50.9688 208.367 50.6094 208.492 50.1953C208.617 49.7734 208.68 49.3125 208.68 48.8125V48.6602C208.68 48.1602 208.617 47.6992 208.492 47.2773C208.367 46.8555 208.184 46.4922 207.941 46.1875C207.699 45.875 207.398 45.6328 207.039 45.4609C206.688 45.2891 206.281 45.2031 205.82 45.2031C205.422 45.2031 205.062 45.2617 204.742 45.3789C204.43 45.4961 204.16 45.6602 203.934 45.8711C203.707 46.082 203.531 46.332 203.406 46.6211C203.289 46.9102 203.23 47.2227 203.23 47.5586V49.8906ZM216.883 49.8438C216.938 50.2188 217.055 50.5625 217.234 50.875C217.422 51.1875 217.656 51.457 217.938 51.6836C218.219 51.9023 218.543 52.0742 218.91 52.1992C219.277 52.3242 219.668 52.3867 220.082 52.3867C220.559 52.3867 221.074 52.2969 221.629 52.1172C222.184 51.9297 222.691 51.6602 223.152 51.3086L224.711 53.582C224.125 54.0742 223.406 54.4727 222.555 54.7773C221.703 55.082 220.797 55.2344 219.836 55.2344C218.969 55.2344 218.152 55.0859 217.387 54.7891C216.621 54.4922 215.949 54.0625 215.371 53.5C214.801 52.9375 214.348 52.2539 214.012 51.4492C213.684 50.6445 213.52 49.7383 213.52 48.7305C213.52 47.8086 213.664 46.9492 213.953 46.1523C214.25 45.3555 214.66 44.6641 215.184 44.0781C215.715 43.4922 216.348 43.0352 217.082 42.707C217.816 42.3711 218.629 42.2031 219.52 42.2031C220.348 42.2031 221.117 42.3555 221.828 42.6602C222.539 42.957 223.156 43.3789 223.68 43.9258C224.203 44.4648 224.613 45.1133 224.91 45.8711C225.207 46.6289 225.355 47.4648 225.355 48.3789V49.8438H216.883ZM219.508 45.0156C218.812 45.0156 218.223 45.25 217.738 45.7188C217.262 46.1797 216.984 46.7383 216.906 47.3945H221.969C221.953 46.7305 221.711 46.168 221.242 45.707C220.773 45.2461 220.195 45.0156 219.508 45.0156ZM230.125 49.8438C230.18 50.2188 230.297 50.5625 230.477 50.875C230.664 51.1875 230.898 51.457 231.18 51.6836C231.461 51.9023 231.785 52.0742 232.152 52.1992C232.52 52.3242 232.91 52.3867 233.324 52.3867C233.801 52.3867 234.316 52.2969 234.871 52.1172C235.426 51.9297 235.934 51.6602 236.395 51.3086L237.953 53.582C237.367 54.0742 236.648 54.4727 235.797 54.7773C234.945 55.082 234.039 55.2344 233.078 55.2344C232.211 55.2344 231.395 55.0859 230.629 54.7891C229.863 54.4922 229.191 54.0625 228.613 53.5C228.043 52.9375 227.59 52.2539 227.254 51.4492C226.926 50.6445 226.762 49.7383 226.762 48.7305C226.762 47.8086 226.906 46.9492 227.195 46.1523C227.492 45.3555 227.902 44.6641 228.426 44.0781C228.957 43.4922 229.59 43.0352 230.324 42.707C231.059 42.3711 231.871 42.2031 232.762 42.2031C233.59 42.2031 234.359 42.3555 235.07 42.6602C235.781 42.957 236.398 43.3789 236.922 43.9258C237.445 44.4648 237.855 45.1133 238.152 45.8711C238.449 46.6289 238.598 47.4648 238.598 48.3789V49.8438H230.125ZM232.75 45.0156C232.055 45.0156 231.465 45.25 230.98 45.7188C230.504 46.1797 230.227 46.7383 230.148 47.3945H235.211C235.195 46.7305 234.953 46.168 234.484 45.707C234.016 45.2461 233.438 45.0156 232.75 45.0156ZM240.66 42.4492H243.895V43.5273C244.066 43.3555 244.258 43.1914 244.469 43.0352C244.688 42.8711 244.926 42.7305 245.184 42.6133C245.441 42.4883 245.727 42.3906 246.039 42.3203C246.359 42.2422 246.711 42.2031 247.094 42.2031C247.773 42.2031 248.383 42.3164 248.922 42.543C249.461 42.7617 249.914 43.0664 250.281 43.457C250.656 43.8477 250.941 44.3047 251.137 44.8281C251.332 45.3516 251.43 45.918 251.43 46.5273V55H248.195V47.6992C248.195 47.2539 248.145 46.8789 248.043 46.5742C247.941 46.2617 247.801 46.0117 247.621 45.8242C247.449 45.6289 247.242 45.4883 247 45.4023C246.766 45.3086 246.508 45.2617 246.227 45.2617C245.898 45.2617 245.59 45.3203 245.301 45.4375C245.02 45.5547 244.773 45.7344 244.562 45.9766C244.352 46.2109 244.188 46.5078 244.07 46.8672C243.953 47.2266 243.895 47.6484 243.895 48.1328V55H240.66V42.4492ZM265.527 45.5898H265.188C264.727 45.5898 264.285 45.6367 263.863 45.7305C263.449 45.8242 263.082 45.9961 262.762 46.2461C262.441 46.4883 262.184 46.8242 261.988 47.2539C261.801 47.6836 261.707 48.2344 261.707 48.9062V55H258.473V42.4492H261.707V43.8672C261.84 43.6562 262.012 43.4531 262.223 43.2578C262.434 43.0625 262.68 42.8906 262.961 42.7422C263.242 42.5859 263.559 42.4609 263.91 42.3672C264.262 42.2734 264.641 42.2266 265.047 42.2266H265.527V45.5898ZM270.25 49.8438C270.305 50.2188 270.422 50.5625 270.602 50.875C270.789 51.1875 271.023 51.457 271.305 51.6836C271.586 51.9023 271.91 52.0742 272.277 52.1992C272.645 52.3242 273.035 52.3867 273.449 52.3867C273.926 52.3867 274.441 52.2969 274.996 52.1172C275.551 51.9297 276.059 51.6602 276.52 51.3086L278.078 53.582C277.492 54.0742 276.773 54.4727 275.922 54.7773C275.07 55.082 274.164 55.2344 273.203 55.2344C272.336 55.2344 271.52 55.0859 270.754 54.7891C269.988 54.4922 269.316 54.0625 268.738 53.5C268.168 52.9375 267.715 52.2539 267.379 51.4492C267.051 50.6445 266.887 49.7383 266.887 48.7305C266.887 47.8086 267.031 46.9492 267.32 46.1523C267.617 45.3555 268.027 44.6641 268.551 44.0781C269.082 43.4922 269.715 43.0352 270.449 42.707C271.184 42.3711 271.996 42.2031 272.887 42.2031C273.715 42.2031 274.484 42.3555 275.195 42.6602C275.906 42.957 276.523 43.3789 277.047 43.9258C277.57 44.4648 277.98 45.1133 278.277 45.8711C278.574 46.6289 278.723 47.4648 278.723 48.3789V49.8438H270.25ZM272.875 45.0156C272.18 45.0156 271.59 45.25 271.105 45.7188C270.629 46.1797 270.352 46.7383 270.273 47.3945H275.336C275.32 46.7305 275.078 46.168 274.609 45.707C274.141 45.2461 273.562 45.0156 272.875 45.0156ZM291.367 55H288.121V47.6992C288.121 47.2539 288.07 46.8789 287.969 46.5742C287.875 46.2617 287.742 46.0117 287.57 45.8242C287.398 45.6289 287.199 45.4922 286.973 45.4141C286.746 45.3281 286.5 45.2852 286.234 45.2852C285.922 45.2852 285.629 45.3398 285.355 45.4492C285.09 45.5586 284.855 45.7305 284.652 45.9648C284.457 46.1992 284.301 46.5 284.184 46.8672C284.074 47.2266 284.02 47.6562 284.02 48.1562V55H280.785V42.4492H284.02V43.5508C284.434 43.0898 284.914 42.75 285.461 42.5312C286.016 42.3125 286.609 42.2031 287.242 42.2031C287.891 42.2031 288.496 42.3359 289.059 42.6016C289.629 42.8672 290.102 43.3047 290.477 43.9141C290.695 43.6016 290.945 43.3359 291.227 43.1172C291.516 42.8984 291.824 42.7227 292.152 42.5898C292.48 42.457 292.82 42.3594 293.172 42.2969C293.531 42.2344 293.898 42.2031 294.273 42.2031C294.977 42.2031 295.602 42.3203 296.148 42.5547C296.703 42.7812 297.172 43.0898 297.555 43.4805C297.938 43.8711 298.23 44.3203 298.434 44.8281C298.637 45.3359 298.738 45.8711 298.738 46.4336V55H295.469V47.6992C295.469 47.2539 295.418 46.8789 295.316 46.5742C295.223 46.2617 295.09 46.0117 294.918 45.8242C294.746 45.6289 294.543 45.4922 294.309 45.4141C294.082 45.3281 293.836 45.2852 293.57 45.2852C293.258 45.2852 292.969 45.3398 292.703 45.4492C292.438 45.5586 292.203 45.7305 292 45.9648C291.805 46.1992 291.648 46.5 291.531 46.8672C291.422 47.2266 291.367 47.6562 291.367 48.1562V55ZM304.668 55H301.434V42.4492H304.668V55ZM301.094 39.1562C301.094 38.8906 301.145 38.6406 301.246 38.4062C301.348 38.1641 301.484 37.957 301.656 37.7852C301.836 37.6055 302.043 37.4648 302.277 37.3633C302.512 37.2617 302.766 37.2109 303.039 37.2109C303.305 37.2109 303.555 37.2617 303.789 37.3633C304.031 37.4648 304.238 37.6055 304.41 37.7852C304.59 37.957 304.73 38.1641 304.832 38.4062C304.934 38.6406 304.984 38.8906 304.984 39.1562C304.984 39.4297 304.934 39.6836 304.832 39.918C304.73 40.1523 304.59 40.3594 304.41 40.5391C304.238 40.7109 304.031 40.8477 303.789 40.9492C303.555 41.0508 303.305 41.1016 303.039 41.1016C302.766 41.1016 302.512 41.0508 302.277 40.9492C302.043 40.8477 301.836 40.7109 301.656 40.5391C301.484 40.3594 301.348 40.1523 301.246 39.918C301.145 39.6836 301.094 39.4297 301.094 39.1562ZM312.086 51.2617C312.086 51.4102 312.105 51.5508 312.145 51.6836C312.184 51.8164 312.25 51.9336 312.344 52.0352C312.445 52.1289 312.586 52.2031 312.766 52.2578C312.945 52.3125 313.176 52.3398 313.457 52.3398C313.574 52.3398 313.707 52.3359 313.855 52.3281C314.004 52.3125 314.152 52.2969 314.301 52.2812C314.449 52.2656 314.586 52.2461 314.711 52.2227C314.844 52.1992 314.953 52.1797 315.039 52.1641L315.332 55.0234C315.027 55.0625 314.711 55.0977 314.383 55.1289C314.102 55.1602 313.789 55.1836 313.445 55.1992C313.102 55.2227 312.754 55.2344 312.402 55.2344C311.285 55.2344 310.414 54.9805 309.789 54.4727C309.164 53.9648 308.852 53.1562 308.852 52.0469V45.2617H306.59V42.4492H308.852V38.8984L312.086 38.0312V42.4492H315.379V45.2617H312.086V51.2617ZM322.047 51.2617C322.047 51.4102 322.066 51.5508 322.105 51.6836C322.145 51.8164 322.211 51.9336 322.305 52.0352C322.406 52.1289 322.547 52.2031 322.727 52.2578C322.906 52.3125 323.137 52.3398 323.418 52.3398C323.535 52.3398 323.668 52.3359 323.816 52.3281C323.965 52.3125 324.113 52.2969 324.262 52.2812C324.41 52.2656 324.547 52.2461 324.672 52.2227C324.805 52.1992 324.914 52.1797 325 52.1641L325.293 55.0234C324.988 55.0625 324.672 55.0977 324.344 55.1289C324.062 55.1602 323.75 55.1836 323.406 55.1992C323.062 55.2227 322.715 55.2344 322.363 55.2344C321.246 55.2344 320.375 54.9805 319.75 54.4727C319.125 53.9648 318.812 53.1562 318.812 52.0469V45.2617H316.551V42.4492H318.812V38.8984L322.047 38.0312V42.4492H325.34V45.2617H322.047V51.2617ZM330.086 49.8438C330.141 50.2188 330.258 50.5625 330.438 50.875C330.625 51.1875 330.859 51.457 331.141 51.6836C331.422 51.9023 331.746 52.0742 332.113 52.1992C332.48 52.3242 332.871 52.3867 333.285 52.3867C333.762 52.3867 334.277 52.2969 334.832 52.1172C335.387 51.9297 335.895 51.6602 336.355 51.3086L337.914 53.582C337.328 54.0742 336.609 54.4727 335.758 54.7773C334.906 55.082 334 55.2344 333.039 55.2344C332.172 55.2344 331.355 55.0859 330.59 54.7891C329.824 54.4922 329.152 54.0625 328.574 53.5C328.004 52.9375 327.551 52.2539 327.215 51.4492C326.887 50.6445 326.723 49.7383 326.723 48.7305C326.723 47.8086 326.867 46.9492 327.156 46.1523C327.453 45.3555 327.863 44.6641 328.387 44.0781C328.918 43.4922 329.551 43.0352 330.285 42.707C331.02 42.3711 331.832 42.2031 332.723 42.2031C333.551 42.2031 334.32 42.3555 335.031 42.6602C335.742 42.957 336.359 43.3789 336.883 43.9258C337.406 44.4648 337.816 45.1133 338.113 45.8711C338.41 46.6289 338.559 47.4648 338.559 48.3789V49.8438H330.086ZM332.711 45.0156C332.016 45.0156 331.426 45.25 330.941 45.7188C330.465 46.1797 330.188 46.7383 330.109 47.3945H335.172C335.156 46.7305 334.914 46.168 334.445 45.707C333.977 45.2461 333.398 45.0156 332.711 45.0156ZM348.684 55V53.9219C348.512 54.1094 348.32 54.2852 348.109 54.4492C347.906 54.6055 347.676 54.7422 347.418 54.8594C347.168 54.9766 346.891 55.0664 346.586 55.1289C346.289 55.1992 345.957 55.2344 345.59 55.2344C344.762 55.2344 344.004 55.0703 343.316 54.7422C342.629 54.4141 342.039 53.9609 341.547 53.3828C341.055 52.8047 340.672 52.1172 340.398 51.3203C340.133 50.5234 340 49.6602 340 48.7305C340 47.8008 340.133 46.9375 340.398 46.1406C340.664 45.3438 341.035 44.6562 341.512 44.0781C341.996 43.4922 342.578 43.0352 343.258 42.707C343.938 42.3711 344.691 42.2031 345.52 42.2031C346.254 42.2031 346.875 42.332 347.383 42.5898C347.898 42.8398 348.332 43.1523 348.684 43.5273V38.1953H351.918V55H348.684ZM348.777 47.5586C348.777 47.2227 348.715 46.9102 348.59 46.6211C348.473 46.332 348.301 46.082 348.074 45.8711C347.848 45.6602 347.574 45.4961 347.254 45.3789C346.941 45.2617 346.586 45.2031 346.188 45.2031C345.727 45.2031 345.316 45.2891 344.957 45.4609C344.605 45.6328 344.309 45.875 344.066 46.1875C343.824 46.4922 343.641 46.8555 343.516 47.2773C343.391 47.6992 343.328 48.1602 343.328 48.6602V48.8125C343.328 49.3125 343.391 49.7734 343.516 50.1953C343.641 50.6094 343.824 50.9688 344.066 51.2734C344.309 51.5781 344.605 51.8164 344.957 51.9883C345.316 52.1523 345.727 52.2344 346.188 52.2344C346.586 52.2344 346.941 52.1758 347.254 52.0586C347.574 51.9414 347.848 51.7773 348.074 51.5664C348.301 51.3555 348.473 51.1094 348.59 50.8281C348.715 50.5391 348.777 50.2266 348.777 49.8906V47.5586Z" fill="black"/>
</svg>
