<svg width="378" height="33" viewBox="0 0 378 33" fill="none" xmlns="http://www.w3.org/2000/svg">
<rect width="378" height="33" fill="#4C2C92"/>
<path d="M9.2876 10.6963H19.4277V13.1919H15.7075V24H13.0078V13.1919H9.2876V10.6963ZM25.356 16.5503H25.0869C24.722 16.5503 24.3726 16.5874 24.0386 16.6616C23.7108 16.7358 23.4201 16.8719 23.1665 17.0698C22.9129 17.2616 22.7088 17.5275 22.5542 17.8677C22.4058 18.2078 22.3315 18.6439 22.3315 19.1758V24H19.771V14.064H22.3315V15.1865C22.4367 15.0195 22.5728 14.8587 22.7397 14.7041C22.9067 14.5495 23.1016 14.4134 23.3242 14.2959C23.5469 14.1722 23.7974 14.0732 24.0757 13.999C24.354 13.9248 24.654 13.8877 24.9756 13.8877H25.356V16.5503ZM30.1616 19.9644C29.8462 20.0138 29.5926 20.1252 29.4009 20.2983C29.2091 20.4653 29.1133 20.6942 29.1133 20.9849C29.1133 21.3065 29.2308 21.5848 29.4658 21.8198C29.7008 22.0487 30.0472 22.1631 30.5049 22.1631C30.9873 22.1631 31.3677 22.0239 31.646 21.7456C31.9243 21.4673 32.0635 21.0993 32.0635 20.6416V19.6396L30.1616 19.9644ZM32.481 23.063C32.3758 23.1805 32.2459 23.3073 32.0913 23.4434C31.9429 23.5732 31.7635 23.6938 31.5532 23.8052C31.3491 23.9103 31.1079 24 30.8296 24.0742C30.5513 24.1484 30.2389 24.1855 29.8926 24.1855C29.3978 24.1855 28.9401 24.1082 28.5195 23.9536C28.1051 23.7928 27.7402 23.5701 27.4248 23.2856C27.1094 23.0011 26.862 22.6733 26.6826 22.3022C26.5033 21.925 26.4136 21.5168 26.4136 21.0776C26.4136 20.2798 26.661 19.6273 27.1558 19.1201C27.6506 18.613 28.334 18.2944 29.2061 18.1646L32.0635 17.7471V17.5615C32.0635 17.1162 31.9274 16.7637 31.6553 16.5039C31.3831 16.2441 30.9409 16.1143 30.3286 16.1143C30.075 16.1143 29.8184 16.1452 29.5586 16.207C29.2988 16.2627 29.0483 16.3276 28.8071 16.4019C28.5721 16.4761 28.3525 16.5627 28.1484 16.6616C27.9443 16.7544 27.765 16.8379 27.6104 16.9121L26.6084 14.9546C27.1774 14.6392 27.8083 14.3794 28.501 14.1753C29.1999 13.9712 29.9235 13.8691 30.6719 13.8691C31.1296 13.8691 31.5903 13.9186 32.0542 14.0176C32.5243 14.1104 32.9479 14.2835 33.3252 14.5371C33.7087 14.7907 34.021 15.137 34.2622 15.5762C34.5034 16.0091 34.624 16.5627 34.624 17.2368V21.3188C34.624 21.6095 34.6982 21.826 34.8467 21.9683C35.0013 22.1043 35.2116 22.2311 35.4775 22.3486L34.3179 24.1855C33.8478 24.1361 33.4705 24.0155 33.186 23.8237C32.9015 23.6258 32.6665 23.3722 32.481 23.063ZM36.7671 14.064H39.3276V14.9175C39.4637 14.7814 39.6152 14.6515 39.7822 14.5278C39.9554 14.3979 40.144 14.2866 40.3481 14.1938C40.5522 14.0949 40.778 14.0176 41.0254 13.9619C41.279 13.9001 41.5573 13.8691 41.8604 13.8691C42.3984 13.8691 42.8809 13.9588 43.3076 14.1382C43.7344 14.3114 44.0931 14.5526 44.3838 14.8618C44.6807 15.1711 44.9064 15.5329 45.061 15.9473C45.2157 16.3617 45.293 16.8101 45.293 17.2925V24H42.7324V18.2202C42.7324 17.8677 42.6922 17.5708 42.6118 17.3296C42.5314 17.0822 42.4201 16.8843 42.2778 16.7358C42.1418 16.5812 41.9779 16.4699 41.7861 16.4019C41.6006 16.3276 41.3965 16.2905 41.1738 16.2905C40.9141 16.2905 40.6698 16.3369 40.4409 16.4297C40.2183 16.5225 40.0234 16.6647 39.8564 16.8564C39.6895 17.042 39.5596 17.277 39.4668 17.5615C39.374 17.846 39.3276 18.18 39.3276 18.5635V24H36.7671V14.064ZM48.1411 20.8271C48.506 21.1549 48.9421 21.4364 49.4492 21.6714C49.9564 21.9064 50.4697 22.0239 50.9893 22.0239C51.3665 22.0239 51.6634 21.9528 51.8799 21.8105C52.0964 21.6621 52.2046 21.4735 52.2046 21.2446C52.2046 20.855 51.7871 20.5519 50.9521 20.3354L50.2285 20.1406C49.8698 20.054 49.508 19.9365 49.1431 19.7881C48.7782 19.6335 48.4411 19.4325 48.1318 19.1851C47.8288 18.9377 47.5814 18.6377 47.3896 18.2852C47.2041 17.9264 47.1113 17.4873 47.1113 16.9678C47.1113 16.5534 47.201 16.1606 47.3804 15.7896C47.5659 15.4123 47.8257 15.0814 48.1597 14.7969C48.4998 14.5124 48.9111 14.2866 49.3936 14.1196C49.876 13.9526 50.4141 13.8691 51.0078 13.8691C51.8551 13.8691 52.6097 14.0021 53.2715 14.2681C53.9395 14.534 54.4652 14.834 54.8486 15.168L53.5127 16.875C53.1973 16.6462 52.8231 16.4513 52.3901 16.2905C51.9634 16.1235 51.5335 16.04 51.1006 16.04C50.6986 16.04 50.3862 16.1143 50.1636 16.2627C49.9409 16.4049 49.8296 16.5781 49.8296 16.7822C49.8296 16.9987 49.9255 17.175 50.1172 17.311C50.3151 17.4409 50.5996 17.5553 50.9707 17.6543L52.0469 17.9604C53.0736 18.2511 53.8096 18.6439 54.2549 19.1387C54.7002 19.6335 54.9229 20.2581 54.9229 21.0127C54.9229 21.4333 54.8363 21.8353 54.6631 22.2188C54.4899 22.596 54.2363 22.9331 53.9023 23.23C53.5684 23.5269 53.154 23.7619 52.6592 23.9351C52.1644 24.1021 51.6016 24.1855 50.9707 24.1855C50.4883 24.1855 50.0337 24.1423 49.6069 24.0557C49.1864 23.9691 48.7936 23.8516 48.4287 23.7031C48.07 23.5485 47.7453 23.3753 47.4546 23.1836C47.1639 22.9919 46.9165 22.8001 46.7124 22.6084L48.1411 20.8271ZM60.0161 14.064H61.918V16.2905H60.0161V24H57.4556V16.2905H55.8784V14.064H57.4556V12.8486C57.4556 12.4157 57.5298 12.0415 57.6782 11.7261C57.8267 11.4045 58.0308 11.1416 58.2905 10.9375C58.5565 10.7272 58.8719 10.5726 59.2368 10.4736C59.6079 10.3685 60.0161 10.3159 60.4614 10.3159C60.6841 10.3159 60.9006 10.3221 61.1108 10.3345C61.3211 10.3468 61.516 10.3592 61.6953 10.3716C61.8747 10.384 62.0324 10.3994 62.1685 10.418C62.3107 10.4365 62.4189 10.4489 62.4932 10.4551L62.2798 12.6353C62.2056 12.6229 62.1128 12.6105 62.0015 12.5981C61.8963 12.5858 61.785 12.5765 61.6675 12.5703C61.55 12.5579 61.4355 12.5518 61.3242 12.5518C61.2129 12.5456 61.1139 12.5425 61.0273 12.5425C60.6624 12.5425 60.4027 12.6136 60.248 12.7559C60.0934 12.8919 60.0161 13.0682 60.0161 13.2847V14.064ZM65.5361 19.918C65.5794 20.2148 65.6722 20.487 65.8145 20.7344C65.9629 20.9818 66.1484 21.1951 66.3711 21.3745C66.5938 21.5477 66.8504 21.6838 67.1411 21.7827C67.4318 21.8817 67.741 21.9312 68.0688 21.9312C68.4461 21.9312 68.8543 21.86 69.2935 21.7178C69.7326 21.5693 70.1346 21.356 70.4995 21.0776L71.7334 22.8774C71.2695 23.2671 70.7005 23.5825 70.0264 23.8237C69.3522 24.0649 68.6348 24.1855 67.874 24.1855C67.1875 24.1855 66.5412 24.068 65.9351 23.833C65.3289 23.598 64.797 23.2578 64.3394 22.8125C63.8879 22.3672 63.5291 21.826 63.2632 21.189C63.0034 20.5519 62.8735 19.8345 62.8735 19.0366C62.8735 18.3068 62.988 17.6265 63.2168 16.9956C63.4518 16.3647 63.7765 15.8174 64.1909 15.3535C64.6115 14.8896 65.1125 14.5278 65.6938 14.2681C66.2752 14.0021 66.9185 13.8691 67.6235 13.8691C68.2791 13.8691 68.8883 13.9897 69.4512 14.231C70.014 14.466 70.5026 14.8 70.917 15.2329C71.3314 15.6597 71.6561 16.173 71.8911 16.7729C72.1261 17.3729 72.2437 18.0347 72.2437 18.7583V19.918H65.5361ZM67.6143 16.0957C67.0638 16.0957 66.5968 16.2812 66.2134 16.6523C65.8361 17.0173 65.6165 17.4595 65.5547 17.979H69.5625C69.5501 17.4533 69.3584 17.008 68.9873 16.6431C68.6162 16.2782 68.1585 16.0957 67.6143 16.0957ZM79.4614 16.5503H79.1924C78.8275 16.5503 78.478 16.5874 78.144 16.6616C77.8162 16.7358 77.5256 16.8719 77.272 17.0698C77.0184 17.2616 76.8143 17.5275 76.6597 17.8677C76.5112 18.2078 76.437 18.6439 76.437 19.1758V24H73.8765V14.064H76.437V15.1865C76.5422 15.0195 76.6782 14.8587 76.8452 14.7041C77.0122 14.5495 77.207 14.4134 77.4297 14.2959C77.6523 14.1722 77.9028 14.0732 78.1812 13.999C78.4595 13.9248 78.7594 13.8877 79.0811 13.8877H79.4614V16.5503ZM86.6421 16.5503H86.373C86.0081 16.5503 85.6587 16.5874 85.3247 16.6616C84.9969 16.7358 84.7062 16.8719 84.4526 17.0698C84.1991 17.2616 83.995 17.5275 83.8403 17.8677C83.6919 18.2078 83.6177 18.6439 83.6177 19.1758V24H81.0571V14.064H83.6177V15.1865C83.7228 15.0195 83.8589 14.8587 84.0259 14.7041C84.1929 14.5495 84.3877 14.4134 84.6104 14.2959C84.833 14.1722 85.0835 14.0732 85.3618 13.999C85.6401 13.9248 85.9401 13.8877 86.2617 13.8877H86.6421V16.5503ZM90.3809 19.918C90.4242 20.2148 90.5169 20.487 90.6592 20.7344C90.8076 20.9818 90.9932 21.1951 91.2158 21.3745C91.4385 21.5477 91.6951 21.6838 91.9858 21.7827C92.2765 21.8817 92.5858 21.9312 92.9136 21.9312C93.2909 21.9312 93.6991 21.86 94.1382 21.7178C94.5773 21.5693 94.9793 21.356 95.3442 21.0776L96.5781 22.8774C96.1143 23.2671 95.5452 23.5825 94.8711 23.8237C94.1969 24.0649 93.4795 24.1855 92.7188 24.1855C92.0322 24.1855 91.3859 24.068 90.7798 23.833C90.1737 23.598 89.6418 23.2578 89.1841 22.8125C88.7326 22.3672 88.3739 21.826 88.1079 21.189C87.8481 20.5519 87.7183 19.8345 87.7183 19.0366C87.7183 18.3068 87.8327 17.6265 88.0615 16.9956C88.2965 16.3647 88.6213 15.8174 89.0356 15.3535C89.4562 14.8896 89.9572 14.5278 90.5386 14.2681C91.12 14.0021 91.7632 13.8691 92.4683 13.8691C93.1239 13.8691 93.7331 13.9897 94.2959 14.231C94.8587 14.466 95.3473 14.8 95.7617 15.2329C96.1761 15.6597 96.5008 16.173 96.7358 16.7729C96.9709 17.3729 97.0884 18.0347 97.0884 18.7583V19.918H90.3809ZM92.459 16.0957C91.9085 16.0957 91.4416 16.2812 91.0581 16.6523C90.6808 17.0173 90.4613 17.4595 90.3994 17.979H94.4072C94.3949 17.4533 94.2031 17.008 93.832 16.6431C93.4609 16.2782 93.0033 16.0957 92.459 16.0957ZM105.104 24V23.1465C104.968 23.2949 104.816 23.4341 104.649 23.564C104.489 23.6877 104.306 23.7959 104.102 23.8887C103.904 23.9814 103.685 24.0526 103.443 24.1021C103.208 24.1577 102.945 24.1855 102.655 24.1855C101.999 24.1855 101.399 24.0557 100.855 23.7959C100.311 23.5361 99.8438 23.1774 99.4541 22.7197C99.0645 22.262 98.7614 21.7178 98.5449 21.0869C98.3346 20.4561 98.2295 19.7726 98.2295 19.0366C98.2295 18.3006 98.3346 17.6172 98.5449 16.9863C98.7552 16.3555 99.049 15.8112 99.4263 15.3535C99.8097 14.8896 100.271 14.5278 100.809 14.2681C101.347 14.0021 101.944 13.8691 102.599 13.8691C103.181 13.8691 103.672 13.9712 104.074 14.1753C104.482 14.3732 104.826 14.6206 105.104 14.9175V10.6963H107.665V24H105.104ZM105.178 18.1089C105.178 17.8429 105.129 17.5955 105.03 17.3667C104.937 17.1379 104.801 16.9399 104.622 16.7729C104.442 16.606 104.226 16.4761 103.972 16.3833C103.725 16.2905 103.443 16.2441 103.128 16.2441C102.763 16.2441 102.438 16.3122 102.154 16.4482C101.875 16.5843 101.64 16.776 101.449 17.0234C101.257 17.2646 101.112 17.5522 101.013 17.8862C100.914 18.2202 100.864 18.5851 100.864 18.981V19.1016C100.864 19.4974 100.914 19.8623 101.013 20.1963C101.112 20.5241 101.257 20.8086 101.449 21.0498C101.64 21.291 101.875 21.4797 102.154 21.6157C102.438 21.7456 102.763 21.8105 103.128 21.8105C103.443 21.8105 103.725 21.7642 103.972 21.6714C104.226 21.5786 104.442 21.4487 104.622 21.2817C104.801 21.1147 104.937 20.9199 105.03 20.6973C105.129 20.4684 105.178 20.221 105.178 19.9551V18.1089ZM115.448 19.918C115.492 20.2148 115.584 20.487 115.727 20.7344C115.875 20.9818 116.061 21.1951 116.283 21.3745C116.506 21.5477 116.763 21.6838 117.053 21.7827C117.344 21.8817 117.653 21.9312 117.981 21.9312C118.358 21.9312 118.766 21.86 119.206 21.7178C119.645 21.5693 120.047 21.356 120.412 21.0776L121.646 22.8774C121.182 23.2671 120.613 23.5825 119.938 23.8237C119.264 24.0649 118.547 24.1855 117.786 24.1855C117.1 24.1855 116.453 24.068 115.847 23.833C115.241 23.598 114.709 23.2578 114.251 22.8125C113.8 22.3672 113.441 21.826 113.175 21.189C112.916 20.5519 112.786 19.8345 112.786 19.0366C112.786 18.3068 112.9 17.6265 113.129 16.9956C113.364 16.3647 113.689 15.8174 114.103 15.3535C114.524 14.8896 115.025 14.5278 115.606 14.2681C116.187 14.0021 116.831 13.8691 117.536 13.8691C118.191 13.8691 118.8 13.9897 119.363 14.231C119.926 14.466 120.415 14.8 120.829 15.2329C121.243 15.6597 121.568 16.173 121.803 16.7729C122.038 17.3729 122.156 18.0347 122.156 18.7583V19.918H115.448ZM117.526 16.0957C116.976 16.0957 116.509 16.2812 116.125 16.6523C115.748 17.0173 115.529 17.4595 115.467 17.979H119.475C119.462 17.4533 119.271 17.008 118.899 16.6431C118.528 16.2782 118.071 16.0957 117.526 16.0957ZM126.089 18.7954L123.065 14.064H126.024L127.546 16.7451L129.142 14.064H132.129L129.049 18.814L132.472 24H129.448L127.49 20.957L125.709 24H122.722L126.089 18.7954ZM136.165 27.1357H133.604V14.064H136.165V14.9175C136.443 14.6268 136.786 14.3794 137.194 14.1753C137.603 13.9712 138.097 13.8691 138.679 13.8691C139.334 13.8691 139.928 14.0021 140.46 14.2681C140.998 14.5278 141.459 14.8896 141.842 15.3535C142.226 15.8112 142.523 16.3555 142.733 16.9863C142.943 17.6172 143.048 18.3006 143.048 19.0366C143.048 19.7726 142.94 20.4561 142.724 21.0869C142.507 21.7178 142.204 22.262 141.814 22.7197C141.425 23.1774 140.958 23.5361 140.414 23.7959C139.869 24.0557 139.269 24.1855 138.614 24.1855C138.323 24.1855 138.057 24.1577 137.816 24.1021C137.581 24.0526 137.364 23.9814 137.167 23.8887C136.969 23.7959 136.786 23.6877 136.619 23.564C136.452 23.4341 136.301 23.2949 136.165 23.1465V27.1357ZM136.09 19.9551C136.09 20.221 136.137 20.4684 136.229 20.6973C136.328 20.9199 136.468 21.1147 136.647 21.2817C136.826 21.4487 137.04 21.5786 137.287 21.6714C137.541 21.7642 137.825 21.8105 138.141 21.8105C138.506 21.8105 138.827 21.7456 139.105 21.6157C139.39 21.4797 139.628 21.291 139.82 21.0498C140.012 20.8086 140.157 20.5241 140.256 20.1963C140.355 19.8623 140.404 19.4974 140.404 19.1016V18.981C140.404 18.5851 140.355 18.2202 140.256 17.8862C140.157 17.5522 140.012 17.2646 139.82 17.0234C139.628 16.776 139.39 16.5843 139.105 16.4482C138.827 16.3122 138.506 16.2441 138.141 16.2441C137.825 16.2441 137.541 16.2905 137.287 16.3833C137.04 16.4761 136.826 16.606 136.647 16.7729C136.468 16.9399 136.328 17.1379 136.229 17.3667C136.137 17.5955 136.09 17.8429 136.09 18.1089V19.9551ZM146.898 19.918C146.942 20.2148 147.035 20.487 147.177 20.7344C147.325 20.9818 147.511 21.1951 147.733 21.3745C147.956 21.5477 148.213 21.6838 148.503 21.7827C148.794 21.8817 149.103 21.9312 149.431 21.9312C149.808 21.9312 150.217 21.86 150.656 21.7178C151.095 21.5693 151.497 21.356 151.862 21.0776L153.096 22.8774C152.632 23.2671 152.063 23.5825 151.389 23.8237C150.715 24.0649 149.997 24.1855 149.236 24.1855C148.55 24.1855 147.903 24.068 147.297 23.833C146.691 23.598 146.159 23.2578 145.702 22.8125C145.25 22.3672 144.891 21.826 144.625 21.189C144.366 20.5519 144.236 19.8345 144.236 19.0366C144.236 18.3068 144.35 17.6265 144.579 16.9956C144.814 16.3647 145.139 15.8174 145.553 15.3535C145.974 14.8896 146.475 14.5278 147.056 14.2681C147.638 14.0021 148.281 13.8691 148.986 13.8691C149.641 13.8691 150.251 13.9897 150.813 14.231C151.376 14.466 151.865 14.8 152.279 15.2329C152.694 15.6597 153.018 16.173 153.253 16.7729C153.488 17.3729 153.606 18.0347 153.606 18.7583V19.918H146.898ZM148.977 16.0957C148.426 16.0957 147.959 16.2812 147.576 16.6523C147.198 17.0173 146.979 17.4595 146.917 17.979H150.925C150.912 17.4533 150.721 17.008 150.35 16.6431C149.979 16.2782 149.521 16.0957 148.977 16.0957ZM161.622 24V23.1465C161.486 23.2949 161.334 23.4341 161.167 23.564C161.006 23.6877 160.824 23.7959 160.62 23.8887C160.422 23.9814 160.202 24.0526 159.961 24.1021C159.726 24.1577 159.463 24.1855 159.172 24.1855C158.517 24.1855 157.917 24.0557 157.373 23.7959C156.828 23.5361 156.361 23.1774 155.972 22.7197C155.582 22.262 155.279 21.7178 155.062 21.0869C154.852 20.4561 154.747 19.7726 154.747 19.0366C154.747 18.3006 154.852 17.6172 155.062 16.9863C155.273 16.3555 155.567 15.8112 155.944 15.3535C156.327 14.8896 156.788 14.5278 157.326 14.2681C157.864 14.0021 158.461 13.8691 159.117 13.8691C159.698 13.8691 160.19 13.9712 160.592 14.1753C161 14.3732 161.343 14.6206 161.622 14.9175V10.6963H164.182V24H161.622ZM161.696 18.1089C161.696 17.8429 161.646 17.5955 161.547 17.3667C161.455 17.1379 161.319 16.9399 161.139 16.7729C160.96 16.606 160.743 16.4761 160.49 16.3833C160.242 16.2905 159.961 16.2441 159.646 16.2441C159.281 16.2441 158.956 16.3122 158.671 16.4482C158.393 16.5843 158.158 16.776 157.966 17.0234C157.775 17.2646 157.629 17.5522 157.53 17.8862C157.431 18.2202 157.382 18.5851 157.382 18.981V19.1016C157.382 19.4974 157.431 19.8623 157.53 20.1963C157.629 20.5241 157.775 20.8086 157.966 21.0498C158.158 21.291 158.393 21.4797 158.671 21.6157C158.956 21.7456 159.281 21.8105 159.646 21.8105C159.961 21.8105 160.242 21.7642 160.49 21.6714C160.743 21.5786 160.96 21.4487 161.139 21.2817C161.319 21.1147 161.455 20.9199 161.547 20.6973C161.646 20.4684 161.696 20.221 161.696 19.9551V18.1089ZM168.951 24H166.39V14.064H168.951V24ZM166.121 11.457C166.121 11.2467 166.161 11.0488 166.242 10.8633C166.322 10.6715 166.43 10.5076 166.566 10.3716C166.709 10.2293 166.873 10.118 167.058 10.0376C167.244 9.95719 167.445 9.91699 167.661 9.91699C167.871 9.91699 168.069 9.95719 168.255 10.0376C168.447 10.118 168.611 10.2293 168.747 10.3716C168.889 10.5076 169 10.6715 169.081 10.8633C169.161 11.0488 169.201 11.2467 169.201 11.457C169.201 11.6735 169.161 11.8745 169.081 12.0601C169 12.2456 168.889 12.4095 168.747 12.5518C168.611 12.6878 168.447 12.7961 168.255 12.8765C168.069 12.9569 167.871 12.9971 167.661 12.9971C167.445 12.9971 167.244 12.9569 167.058 12.8765C166.873 12.7961 166.709 12.6878 166.566 12.5518C166.43 12.4095 166.322 12.2456 166.242 12.0601C166.161 11.8745 166.121 11.6735 166.121 11.457ZM174.823 21.0405C174.823 21.158 174.839 21.2694 174.87 21.3745C174.901 21.4797 174.953 21.5724 175.027 21.6528C175.108 21.7271 175.219 21.7858 175.361 21.8291C175.504 21.8724 175.686 21.894 175.909 21.894C176.001 21.894 176.107 21.891 176.224 21.8848C176.342 21.8724 176.459 21.86 176.577 21.8477C176.694 21.8353 176.802 21.8198 176.901 21.8013C177.007 21.7827 177.093 21.7673 177.161 21.7549L177.393 24.0186C177.152 24.0495 176.901 24.0773 176.642 24.1021C176.419 24.1268 176.172 24.1453 175.899 24.1577C175.627 24.1763 175.352 24.1855 175.074 24.1855C174.189 24.1855 173.5 23.9845 173.005 23.5825C172.51 23.1805 172.263 22.5404 172.263 21.6621V16.2905H170.472V14.064H172.263V11.2529L174.823 10.5664V14.064H177.43V16.2905H174.823V21.0405ZM181.188 19.918C181.231 20.2148 181.324 20.487 181.466 20.7344C181.614 20.9818 181.8 21.1951 182.022 21.3745C182.245 21.5477 182.502 21.6838 182.792 21.7827C183.083 21.8817 183.392 21.9312 183.72 21.9312C184.097 21.9312 184.506 21.86 184.945 21.7178C185.384 21.5693 185.786 21.356 186.151 21.0776L187.385 22.8774C186.921 23.2671 186.352 23.5825 185.678 23.8237C185.004 24.0649 184.286 24.1855 183.525 24.1855C182.839 24.1855 182.193 24.068 181.586 23.833C180.98 23.598 180.448 23.2578 179.991 22.8125C179.539 22.3672 179.181 21.826 178.915 21.189C178.655 20.5519 178.525 19.8345 178.525 19.0366C178.525 18.3068 178.639 17.6265 178.868 16.9956C179.103 16.3647 179.428 15.8174 179.842 15.3535C180.263 14.8896 180.764 14.5278 181.345 14.2681C181.927 14.0021 182.57 13.8691 183.275 13.8691C183.931 13.8691 184.54 13.9897 185.103 14.231C185.665 14.466 186.154 14.8 186.568 15.2329C186.983 15.6597 187.307 16.173 187.542 16.7729C187.778 17.3729 187.895 18.0347 187.895 18.7583V19.918H181.188ZM183.266 16.0957C182.715 16.0957 182.248 16.2812 181.865 16.6523C181.487 17.0173 181.268 17.4595 181.206 17.979H185.214C185.201 17.4533 185.01 17.008 184.639 16.6431C184.268 16.2782 183.81 16.0957 183.266 16.0957ZM195.911 24V23.1465C195.775 23.2949 195.623 23.4341 195.456 23.564C195.295 23.6877 195.113 23.7959 194.909 23.8887C194.711 23.9814 194.491 24.0526 194.25 24.1021C194.015 24.1577 193.752 24.1855 193.461 24.1855C192.806 24.1855 192.206 24.0557 191.662 23.7959C191.117 23.5361 190.65 23.1774 190.261 22.7197C189.871 22.262 189.568 21.7178 189.352 21.0869C189.141 20.4561 189.036 19.7726 189.036 19.0366C189.036 18.3006 189.141 17.6172 189.352 16.9863C189.562 16.3555 189.856 15.8112 190.233 15.3535C190.616 14.8896 191.077 14.5278 191.615 14.2681C192.153 14.0021 192.75 13.8691 193.406 13.8691C193.987 13.8691 194.479 13.9712 194.881 14.1753C195.289 14.3732 195.632 14.6206 195.911 14.9175V10.6963H198.471V24H195.911ZM195.985 18.1089C195.985 17.8429 195.935 17.5955 195.836 17.3667C195.744 17.1379 195.608 16.9399 195.428 16.7729C195.249 16.606 195.032 16.4761 194.779 16.3833C194.531 16.2905 194.25 16.2441 193.935 16.2441C193.57 16.2441 193.245 16.3122 192.96 16.4482C192.682 16.5843 192.447 16.776 192.255 17.0234C192.064 17.2646 191.918 17.5522 191.819 17.8862C191.72 18.2202 191.671 18.5851 191.671 18.981V19.1016C191.671 19.4974 191.72 19.8623 191.819 20.1963C191.918 20.5241 192.064 20.8086 192.255 21.0498C192.447 21.291 192.682 21.4797 192.96 21.6157C193.245 21.7456 193.57 21.8105 193.935 21.8105C194.25 21.8105 194.531 21.7642 194.779 21.6714C195.032 21.5786 195.249 21.4487 195.428 21.2817C195.608 21.1147 195.744 20.9199 195.836 20.6973C195.935 20.4684 195.985 20.221 195.985 19.9551V18.1089ZM204.817 20.8271C205.182 21.1549 205.618 21.4364 206.125 21.6714C206.632 21.9064 207.146 22.0239 207.665 22.0239C208.042 22.0239 208.339 21.9528 208.556 21.8105C208.772 21.6621 208.88 21.4735 208.88 21.2446C208.88 20.855 208.463 20.5519 207.628 20.3354L206.904 20.1406C206.546 20.054 206.184 19.9365 205.819 19.7881C205.454 19.6335 205.117 19.4325 204.808 19.1851C204.505 18.9377 204.257 18.6377 204.065 18.2852C203.88 17.9264 203.787 17.4873 203.787 16.9678C203.787 16.5534 203.877 16.1606 204.056 15.7896C204.242 15.4123 204.501 15.0814 204.835 14.7969C205.176 14.5124 205.587 14.2866 206.069 14.1196C206.552 13.9526 207.09 13.8691 207.684 13.8691C208.531 13.8691 209.285 14.0021 209.947 14.2681C210.615 14.534 211.141 14.834 211.524 15.168L210.188 16.875C209.873 16.6462 209.499 16.4513 209.066 16.2905C208.639 16.1235 208.209 16.04 207.776 16.04C207.374 16.04 207.062 16.1143 206.839 16.2627C206.617 16.4049 206.505 16.5781 206.505 16.7822C206.505 16.9987 206.601 17.175 206.793 17.311C206.991 17.4409 207.275 17.5553 207.646 17.6543L208.723 17.9604C209.749 18.2511 210.485 18.6439 210.931 19.1387C211.376 19.6335 211.599 20.2581 211.599 21.0127C211.599 21.4333 211.512 21.8353 211.339 22.2188C211.166 22.596 210.912 22.9331 210.578 23.23C210.244 23.5269 209.83 23.7619 209.335 23.9351C208.84 24.1021 208.277 24.1855 207.646 24.1855C207.164 24.1855 206.709 24.1423 206.283 24.0557C205.862 23.9691 205.469 23.8516 205.104 23.7031C204.746 23.5485 204.421 23.3753 204.13 23.1836C203.84 22.9919 203.592 22.8001 203.388 22.6084L204.817 20.8271ZM215.402 19.918C215.446 20.2148 215.538 20.487 215.681 20.7344C215.829 20.9818 216.015 21.1951 216.237 21.3745C216.46 21.5477 216.717 21.6838 217.007 21.7827C217.298 21.8817 217.607 21.9312 217.935 21.9312C218.312 21.9312 218.721 21.86 219.16 21.7178C219.599 21.5693 220.001 21.356 220.366 21.0776L221.6 22.8774C221.136 23.2671 220.567 23.5825 219.893 23.8237C219.218 24.0649 218.501 24.1855 217.74 24.1855C217.054 24.1855 216.407 24.068 215.801 23.833C215.195 23.598 214.663 23.2578 214.206 22.8125C213.754 22.3672 213.395 21.826 213.129 21.189C212.87 20.5519 212.74 19.8345 212.74 19.0366C212.74 18.3068 212.854 17.6265 213.083 16.9956C213.318 16.3647 213.643 15.8174 214.057 15.3535C214.478 14.8896 214.979 14.5278 215.56 14.2681C216.141 14.0021 216.785 13.8691 217.49 13.8691C218.145 13.8691 218.755 13.9897 219.317 14.231C219.88 14.466 220.369 14.8 220.783 15.2329C221.198 15.6597 221.522 16.173 221.757 16.7729C221.992 17.3729 222.11 18.0347 222.11 18.7583V19.918H215.402ZM217.48 16.0957C216.93 16.0957 216.463 16.2812 216.08 16.6523C215.702 17.0173 215.483 17.4595 215.421 17.979H219.429C219.416 17.4533 219.225 17.008 218.854 16.6431C218.482 16.2782 218.025 16.0957 217.48 16.0957ZM225.867 19.083C225.867 19.4046 225.91 19.7293 225.997 20.0571C226.084 20.3787 226.217 20.6694 226.396 20.9292C226.575 21.189 226.804 21.4023 227.083 21.5693C227.367 21.7301 227.704 21.8105 228.094 21.8105C228.347 21.8105 228.576 21.7765 228.78 21.7085C228.991 21.6405 229.176 21.5477 229.337 21.4302C229.504 21.3065 229.649 21.1642 229.773 21.0034C229.903 20.8364 230.014 20.6571 230.107 20.4653L232.352 21.625C232.191 22.0146 231.969 22.3672 231.684 22.6826C231.406 22.998 231.081 23.2671 230.71 23.4897C230.339 23.7124 229.928 23.8825 229.476 24C229.025 24.1237 228.545 24.1855 228.038 24.1855C227.339 24.1855 226.696 24.0557 226.108 23.7959C225.521 23.5299 225.014 23.1681 224.587 22.7104C224.16 22.2528 223.826 21.7116 223.585 21.0869C223.344 20.4561 223.223 19.7726 223.223 19.0366C223.223 18.3068 223.344 17.6265 223.585 16.9956C223.826 16.3647 224.16 15.8174 224.587 15.3535C225.014 14.8896 225.521 14.5278 226.108 14.2681C226.696 14.0021 227.339 13.8691 228.038 13.8691C228.545 13.8691 229.025 13.931 229.476 14.0547C229.928 14.1722 230.339 14.3454 230.71 14.5742C231.081 14.7969 231.406 15.0659 231.684 15.3813C231.969 15.6968 232.191 16.0493 232.352 16.439L230.107 17.5986C230.014 17.4069 229.903 17.2306 229.773 17.0698C229.649 16.9028 229.504 16.7606 229.337 16.6431C229.176 16.5194 228.991 16.4235 228.78 16.3555C228.576 16.2812 228.347 16.2441 228.094 16.2441C227.704 16.2441 227.367 16.3276 227.083 16.4946C226.804 16.6554 226.575 16.8688 226.396 17.1348C226.217 17.3945 226.084 17.6883 225.997 18.0161C225.91 18.3439 225.867 18.6717 225.867 18.9995V19.083ZM237.594 21.0405C237.594 21.158 237.609 21.2694 237.64 21.3745C237.671 21.4797 237.724 21.5724 237.798 21.6528C237.878 21.7271 237.99 21.7858 238.132 21.8291C238.274 21.8724 238.457 21.894 238.679 21.894C238.772 21.894 238.877 21.891 238.995 21.8848C239.112 21.8724 239.23 21.86 239.347 21.8477C239.465 21.8353 239.573 21.8198 239.672 21.8013C239.777 21.7827 239.864 21.7673 239.932 21.7549L240.164 24.0186C239.922 24.0495 239.672 24.0773 239.412 24.1021C239.189 24.1268 238.942 24.1453 238.67 24.1577C238.398 24.1763 238.123 24.1855 237.844 24.1855C236.96 24.1855 236.27 23.9845 235.775 23.5825C235.281 23.1805 235.033 22.5404 235.033 21.6621V16.2905H233.243V14.064H235.033V11.2529L237.594 10.5664V14.064H240.201V16.2905H237.594V21.0405ZM244.375 24H241.815V14.064H244.375V24ZM241.546 11.457C241.546 11.2467 241.586 11.0488 241.667 10.8633C241.747 10.6715 241.855 10.5076 241.991 10.3716C242.133 10.2293 242.297 10.118 242.483 10.0376C242.668 9.95719 242.869 9.91699 243.086 9.91699C243.296 9.91699 243.494 9.95719 243.68 10.0376C243.871 10.118 244.035 10.2293 244.171 10.3716C244.314 10.5076 244.425 10.6715 244.505 10.8633C244.586 11.0488 244.626 11.2467 244.626 11.457C244.626 11.6735 244.586 11.8745 244.505 12.0601C244.425 12.2456 244.314 12.4095 244.171 12.5518C244.035 12.6878 243.871 12.7961 243.68 12.8765C243.494 12.9569 243.296 12.9971 243.086 12.9971C242.869 12.9971 242.668 12.9569 242.483 12.8765C242.297 12.7961 242.133 12.6878 241.991 12.5518C241.855 12.4095 241.747 12.2456 241.667 12.0601C241.586 11.8745 241.546 11.6735 241.546 11.457ZM250.953 13.8691C251.689 13.8691 252.357 14.0021 252.957 14.2681C253.557 14.5278 254.07 14.8896 254.497 15.3535C254.924 15.8174 255.252 16.3647 255.48 16.9956C255.715 17.6265 255.833 18.3068 255.833 19.0366C255.833 19.7726 255.715 20.4561 255.48 21.0869C255.245 21.7116 254.915 22.2528 254.488 22.7104C254.061 23.1681 253.548 23.5299 252.948 23.7959C252.348 24.0557 251.683 24.1855 250.953 24.1855C250.217 24.1855 249.549 24.0557 248.949 23.7959C248.349 23.5299 247.836 23.1681 247.409 22.7104C246.982 22.2528 246.652 21.7116 246.417 21.0869C246.181 20.4561 246.064 19.7726 246.064 19.0366C246.064 18.3068 246.178 17.6265 246.407 16.9956C246.642 16.3647 246.973 15.8174 247.4 15.3535C247.827 14.8896 248.34 14.5278 248.94 14.2681C249.546 14.0021 250.217 13.8691 250.953 13.8691ZM250.953 21.8105C251.318 21.8105 251.64 21.7425 251.918 21.6064C252.202 21.4704 252.441 21.2817 252.632 21.0405C252.824 20.7993 252.969 20.5117 253.068 20.1777C253.167 19.8376 253.217 19.4665 253.217 19.0645V18.9995C253.217 18.5975 253.167 18.2295 253.068 17.8955C252.969 17.5553 252.824 17.2646 252.632 17.0234C252.441 16.776 252.202 16.5843 251.918 16.4482C251.64 16.3122 251.318 16.2441 250.953 16.2441C250.588 16.2441 250.264 16.3122 249.979 16.4482C249.701 16.5843 249.466 16.776 249.274 17.0234C249.082 17.2646 248.937 17.5553 248.838 17.8955C248.739 18.2295 248.689 18.5975 248.689 18.9995V19.0645C248.689 19.4665 248.739 19.8376 248.838 20.1777C248.937 20.5117 249.082 20.7993 249.274 21.0405C249.466 21.2817 249.701 21.4704 249.979 21.6064C250.264 21.7425 250.588 21.8105 250.953 21.8105ZM257.531 14.064H260.091V14.9175C260.227 14.7814 260.379 14.6515 260.546 14.5278C260.719 14.3979 260.908 14.2866 261.112 14.1938C261.316 14.0949 261.542 14.0176 261.789 13.9619C262.043 13.9001 262.321 13.8691 262.624 13.8691C263.162 13.8691 263.645 13.9588 264.071 14.1382C264.498 14.3114 264.857 14.5526 265.147 14.8618C265.444 15.1711 265.67 15.5329 265.825 15.9473C265.979 16.3617 266.057 16.8101 266.057 17.2925V24H263.496V18.2202C263.496 17.8677 263.456 17.5708 263.375 17.3296C263.295 17.0822 263.184 16.8843 263.042 16.7358C262.905 16.5812 262.742 16.4699 262.55 16.4019C262.364 16.3276 262.16 16.2905 261.938 16.2905C261.678 16.2905 261.433 16.3369 261.205 16.4297C260.982 16.5225 260.787 16.6647 260.62 16.8564C260.453 17.042 260.323 17.277 260.23 17.5615C260.138 17.846 260.091 18.18 260.091 18.5635V24H257.531V14.064ZM276.531 10.5107C276.945 10.5107 277.353 10.5448 277.755 10.6128C278.157 10.6746 278.538 10.7736 278.896 10.9097C279.255 11.0457 279.586 11.2189 279.889 11.4292C280.198 11.6333 280.464 11.8776 280.687 12.1621C280.91 12.4404 281.083 12.759 281.207 13.1177C281.33 13.4764 281.392 13.8753 281.392 14.3145C281.392 14.5495 281.361 14.7969 281.299 15.0566C281.237 15.3102 281.132 15.5607 280.984 15.8081C280.842 16.0555 280.653 16.2905 280.418 16.5132C280.189 16.7297 279.908 16.9121 279.574 17.0605C279.957 17.2152 280.288 17.4069 280.566 17.6357C280.845 17.8584 281.074 18.1089 281.253 18.3872C281.432 18.6593 281.562 18.9469 281.643 19.25C281.729 19.5531 281.772 19.8561 281.772 20.1592C281.772 20.8581 281.624 21.4611 281.327 21.9683C281.036 22.4754 280.647 22.8929 280.158 23.2207C279.67 23.5485 279.11 23.7928 278.479 23.9536C277.848 24.1082 277.199 24.1855 276.531 24.1855C275.863 24.1855 275.213 24.1082 274.583 23.9536C273.958 23.7928 273.401 23.5485 272.913 23.2207C272.424 22.8929 272.031 22.4754 271.734 21.9683C271.438 21.4611 271.289 20.8581 271.289 20.1592C271.289 19.8561 271.332 19.5531 271.419 19.25C271.506 18.9469 271.639 18.6593 271.818 18.3872C272.003 18.1089 272.232 17.8584 272.504 17.6357C272.783 17.4069 273.111 17.2152 273.488 17.0605C273.154 16.9121 272.872 16.7297 272.644 16.5132C272.415 16.2905 272.226 16.0555 272.078 15.8081C271.935 15.5607 271.83 15.3102 271.762 15.0566C271.7 14.7969 271.669 14.5495 271.669 14.3145C271.669 13.6774 271.806 13.1208 272.078 12.6445C272.35 12.1683 272.712 11.7725 273.163 11.457C273.621 11.1416 274.14 10.9066 274.722 10.752C275.303 10.5911 275.906 10.5107 276.531 10.5107ZM276.531 16.04C276.846 16.04 277.131 16.006 277.384 15.938C277.644 15.8638 277.864 15.7586 278.043 15.6226C278.229 15.4803 278.371 15.3102 278.47 15.1123C278.569 14.9082 278.618 14.6732 278.618 14.4072C278.618 14.1536 278.566 13.9279 278.46 13.73C278.361 13.5321 278.219 13.3651 278.034 13.229C277.848 13.0868 277.625 12.9785 277.366 12.9043C277.112 12.8301 276.834 12.793 276.531 12.793C276.228 12.793 275.946 12.8301 275.687 12.9043C275.433 12.9785 275.213 13.0868 275.028 13.229C274.842 13.3651 274.697 13.5321 274.592 13.73C274.493 13.9279 274.443 14.1536 274.443 14.4072C274.443 14.6732 274.493 14.9082 274.592 15.1123C274.691 15.3102 274.83 15.4803 275.009 15.6226C275.195 15.7586 275.414 15.8638 275.668 15.938C275.928 16.006 276.215 16.04 276.531 16.04ZM276.531 21.9126C276.883 21.9126 277.205 21.8693 277.496 21.7827C277.792 21.6961 278.046 21.5724 278.256 21.4116C278.467 21.2508 278.631 21.0591 278.748 20.8364C278.866 20.6138 278.924 20.3633 278.924 20.085C278.924 19.8128 278.866 19.5654 278.748 19.3428C278.631 19.1139 278.467 18.9191 278.256 18.7583C278.046 18.5913 277.792 18.4645 277.496 18.3779C277.205 18.2852 276.883 18.2388 276.531 18.2388C276.178 18.2388 275.857 18.2852 275.566 18.3779C275.275 18.4645 275.022 18.5913 274.805 18.7583C274.595 18.9191 274.431 19.1139 274.313 19.3428C274.196 19.5654 274.137 19.8128 274.137 20.085C274.137 20.3633 274.196 20.6138 274.313 20.8364C274.431 21.0591 274.595 21.2508 274.805 21.4116C275.022 21.5724 275.275 21.6961 275.566 21.7827C275.857 21.8693 276.178 21.9126 276.531 21.9126ZM288.137 12.9971C287.772 12.9971 287.453 13.0558 287.181 13.1733C286.909 13.2909 286.683 13.4548 286.504 13.665C286.325 13.8753 286.192 14.1227 286.105 14.4072C286.018 14.6855 285.975 14.9886 285.975 15.3164L283.22 15.0659C283.226 14.3361 283.356 13.6898 283.609 13.127C283.863 12.5579 284.209 12.0817 284.648 11.6982C285.088 11.3086 285.604 11.0148 286.198 10.8169C286.798 10.6128 287.45 10.5107 288.155 10.5107C288.891 10.5107 289.562 10.6221 290.168 10.8447C290.781 11.0612 291.303 11.3674 291.736 11.7632C292.169 12.159 292.503 12.6353 292.738 13.1919C292.979 13.7424 293.1 14.3485 293.1 15.0103C293.1 15.7339 292.955 16.4111 292.664 17.042C292.38 17.6667 291.999 18.248 291.523 18.7861C291.047 19.318 290.499 19.8066 289.881 20.252C289.262 20.6911 288.625 21.0869 287.97 21.4395L287.719 21.5693H293.267V24H283.563V21.5879C284.064 21.3158 284.574 21.0251 285.094 20.7158C285.619 20.4066 286.127 20.085 286.615 19.751C287.11 19.4108 287.577 19.0583 288.016 18.6934C288.455 18.3285 288.836 17.9512 289.157 17.5615C289.485 17.1657 289.745 16.7606 289.937 16.3462C290.128 15.9256 290.224 15.4927 290.224 15.0474C290.224 14.7938 290.181 14.5433 290.094 14.2959C290.008 14.0485 289.878 13.8289 289.705 13.6372C289.538 13.4455 289.321 13.2909 289.055 13.1733C288.795 13.0558 288.489 12.9971 288.137 12.9971ZM302.943 21.5322H298.017L297.266 24H294.408L298.759 10.6963H302.294L306.71 24H303.704L302.943 21.5322ZM298.741 19.1572H302.22L300.494 13.5352H300.457L298.741 19.1572ZM314.085 19.9644C313.77 20.0138 313.516 20.1252 313.325 20.2983C313.133 20.4653 313.037 20.6942 313.037 20.9849C313.037 21.3065 313.155 21.5848 313.39 21.8198C313.625 22.0487 313.971 22.1631 314.429 22.1631C314.911 22.1631 315.292 22.0239 315.57 21.7456C315.848 21.4673 315.987 21.0993 315.987 20.6416V19.6396L314.085 19.9644ZM316.405 23.063C316.3 23.1805 316.17 23.3073 316.015 23.4434C315.867 23.5732 315.687 23.6938 315.477 23.8052C315.273 23.9103 315.032 24 314.753 24.0742C314.475 24.1484 314.163 24.1855 313.816 24.1855C313.322 24.1855 312.864 24.1082 312.443 23.9536C312.029 23.7928 311.664 23.5701 311.349 23.2856C311.033 23.0011 310.786 22.6733 310.606 22.3022C310.427 21.925 310.337 21.5168 310.337 21.0776C310.337 20.2798 310.585 19.6273 311.08 19.1201C311.574 18.613 312.258 18.2944 313.13 18.1646L315.987 17.7471V17.5615C315.987 17.1162 315.851 16.7637 315.579 16.5039C315.307 16.2441 314.865 16.1143 314.252 16.1143C313.999 16.1143 313.742 16.1452 313.482 16.207C313.223 16.2627 312.972 16.3276 312.731 16.4019C312.496 16.4761 312.276 16.5627 312.072 16.6616C311.868 16.7544 311.689 16.8379 311.534 16.9121L310.532 14.9546C311.101 14.6392 311.732 14.3794 312.425 14.1753C313.124 13.9712 313.847 13.8691 314.596 13.8691C315.053 13.8691 315.514 13.9186 315.978 14.0176C316.448 14.1104 316.872 14.2835 317.249 14.5371C317.632 14.7907 317.945 15.137 318.186 15.5762C318.427 16.0091 318.548 16.5627 318.548 17.2368V21.3188C318.548 21.6095 318.622 21.826 318.771 21.9683C318.925 22.1043 319.135 22.2311 319.401 22.3486L318.242 24.1855C317.772 24.1361 317.394 24.0155 317.11 23.8237C316.825 23.6258 316.59 23.3722 316.405 23.063ZM323.251 27.1357H320.691V14.064H323.251V14.9175C323.53 14.6268 323.873 14.3794 324.281 14.1753C324.689 13.9712 325.184 13.8691 325.766 13.8691C326.421 13.8691 327.015 14.0021 327.547 14.2681C328.085 14.5278 328.546 14.8896 328.929 15.3535C329.313 15.8112 329.61 16.3555 329.82 16.9863C330.03 17.6172 330.135 18.3006 330.135 19.0366C330.135 19.7726 330.027 20.4561 329.811 21.0869C329.594 21.7178 329.291 22.262 328.901 22.7197C328.512 23.1774 328.045 23.5361 327.5 23.7959C326.956 24.0557 326.356 24.1855 325.701 24.1855C325.41 24.1855 325.144 24.1577 324.903 24.1021C324.668 24.0526 324.451 23.9814 324.253 23.8887C324.056 23.7959 323.873 23.6877 323.706 23.564C323.539 23.4341 323.388 23.2949 323.251 23.1465V27.1357ZM323.177 19.9551C323.177 20.221 323.224 20.4684 323.316 20.6973C323.415 20.9199 323.555 21.1147 323.734 21.2817C323.913 21.4487 324.127 21.5786 324.374 21.6714C324.628 21.7642 324.912 21.8105 325.228 21.8105C325.592 21.8105 325.914 21.7456 326.192 21.6157C326.477 21.4797 326.715 21.291 326.907 21.0498C327.098 20.8086 327.244 20.5241 327.343 20.1963C327.442 19.8623 327.491 19.4974 327.491 19.1016V18.981C327.491 18.5851 327.442 18.2202 327.343 17.8862C327.244 17.5522 327.098 17.2646 326.907 17.0234C326.715 16.776 326.477 16.5843 326.192 16.4482C325.914 16.3122 325.592 16.2441 325.228 16.2441C324.912 16.2441 324.628 16.2905 324.374 16.3833C324.127 16.4761 323.913 16.606 323.734 16.7729C323.555 16.9399 323.415 17.1379 323.316 17.3667C323.224 17.5955 323.177 17.8429 323.177 18.1089V19.9551ZM334.403 27.1357H331.842V14.064H334.403V14.9175C334.681 14.6268 335.024 14.3794 335.433 14.1753C335.841 13.9712 336.336 13.8691 336.917 13.8691C337.573 13.8691 338.166 14.0021 338.698 14.2681C339.236 14.5278 339.697 14.8896 340.081 15.3535C340.464 15.8112 340.761 16.3555 340.971 16.9863C341.181 17.6172 341.287 18.3006 341.287 19.0366C341.287 19.7726 341.178 20.4561 340.962 21.0869C340.745 21.7178 340.442 22.262 340.053 22.7197C339.663 23.1774 339.196 23.5361 338.652 23.7959C338.108 24.0557 337.508 24.1855 336.852 24.1855C336.561 24.1855 336.295 24.1577 336.054 24.1021C335.819 24.0526 335.603 23.9814 335.405 23.8887C335.207 23.7959 335.024 23.6877 334.857 23.564C334.69 23.4341 334.539 23.2949 334.403 23.1465V27.1357ZM334.329 19.9551C334.329 20.221 334.375 20.4684 334.468 20.6973C334.567 20.9199 334.706 21.1147 334.885 21.2817C335.065 21.4487 335.278 21.5786 335.525 21.6714C335.779 21.7642 336.063 21.8105 336.379 21.8105C336.744 21.8105 337.065 21.7456 337.344 21.6157C337.628 21.4797 337.866 21.291 338.058 21.0498C338.25 20.8086 338.395 20.5241 338.494 20.1963C338.593 19.8623 338.643 19.4974 338.643 19.1016V18.981C338.643 18.5851 338.593 18.2202 338.494 17.8862C338.395 17.5522 338.25 17.2646 338.058 17.0234C337.866 16.776 337.628 16.5843 337.344 16.4482C337.065 16.3122 336.744 16.2441 336.379 16.2441C336.063 16.2441 335.779 16.2905 335.525 16.3833C335.278 16.4761 335.065 16.606 334.885 16.7729C334.706 16.9399 334.567 17.1379 334.468 17.3667C334.375 17.5955 334.329 17.8429 334.329 18.1089V19.9551ZM345.137 19.918C345.18 20.2148 345.273 20.487 345.415 20.7344C345.563 20.9818 345.749 21.1951 345.972 21.3745C346.194 21.5477 346.451 21.6838 346.742 21.7827C347.032 21.8817 347.342 21.9312 347.669 21.9312C348.047 21.9312 348.455 21.86 348.894 21.7178C349.333 21.5693 349.735 21.356 350.1 21.0776L351.334 22.8774C350.87 23.2671 350.301 23.5825 349.627 23.8237C348.953 24.0649 348.235 24.1855 347.475 24.1855C346.788 24.1855 346.142 24.068 345.536 23.833C344.93 23.598 344.398 23.2578 343.94 22.8125C343.488 22.3672 343.13 21.826 342.864 21.189C342.604 20.5519 342.474 19.8345 342.474 19.0366C342.474 18.3068 342.589 17.6265 342.817 16.9956C343.052 16.3647 343.377 15.8174 343.792 15.3535C344.212 14.8896 344.713 14.5278 345.294 14.2681C345.876 14.0021 346.519 13.8691 347.224 13.8691C347.88 13.8691 348.489 13.9897 349.052 14.231C349.615 14.466 350.103 14.8 350.518 15.2329C350.932 15.6597 351.257 16.173 351.492 16.7729C351.727 17.3729 351.844 18.0347 351.844 18.7583V19.918H345.137ZM347.215 16.0957C346.664 16.0957 346.197 16.2812 345.814 16.6523C345.437 17.0173 345.217 17.4595 345.155 17.979H349.163C349.151 17.4533 348.959 17.008 348.588 16.6431C348.217 16.2782 347.759 16.0957 347.215 16.0957ZM356.687 19.9644C356.372 20.0138 356.118 20.1252 355.926 20.2983C355.735 20.4653 355.639 20.6942 355.639 20.9849C355.639 21.3065 355.756 21.5848 355.991 21.8198C356.226 22.0487 356.573 22.1631 357.03 22.1631C357.513 22.1631 357.893 22.0239 358.171 21.7456C358.45 21.4673 358.589 21.0993 358.589 20.6416V19.6396L356.687 19.9644ZM359.006 23.063C358.901 23.1805 358.771 23.3073 358.617 23.4434C358.468 23.5732 358.289 23.6938 358.079 23.8052C357.875 23.9103 357.633 24 357.355 24.0742C357.077 24.1484 356.764 24.1855 356.418 24.1855C355.923 24.1855 355.465 24.1082 355.045 23.9536C354.631 23.7928 354.266 23.5701 353.95 23.2856C353.635 23.0011 353.387 22.6733 353.208 22.3022C353.029 21.925 352.939 21.5168 352.939 21.0776C352.939 20.2798 353.186 19.6273 353.681 19.1201C354.176 18.613 354.859 18.2944 355.731 18.1646L358.589 17.7471V17.5615C358.589 17.1162 358.453 16.7637 358.181 16.5039C357.909 16.2441 357.466 16.1143 356.854 16.1143C356.6 16.1143 356.344 16.1452 356.084 16.207C355.824 16.2627 355.574 16.3276 355.333 16.4019C355.097 16.4761 354.878 16.5627 354.674 16.6616C354.47 16.7544 354.29 16.8379 354.136 16.9121L353.134 14.9546C353.703 14.6392 354.334 14.3794 355.026 14.1753C355.725 13.9712 356.449 13.8691 357.197 13.8691C357.655 13.8691 358.116 13.9186 358.58 14.0176C359.05 14.1104 359.473 14.2835 359.851 14.5371C360.234 14.7907 360.546 15.137 360.788 15.5762C361.029 16.0091 361.149 16.5627 361.149 17.2368V21.3188C361.149 21.6095 361.224 21.826 361.372 21.9683C361.527 22.1043 361.737 22.2311 362.003 22.3486L360.843 24.1855C360.373 24.1361 359.996 24.0155 359.711 23.8237C359.427 23.6258 359.192 23.3722 359.006 23.063ZM363.255 10.6963H365.816V21.3003C365.816 21.5106 365.875 21.6714 365.992 21.7827C366.116 21.894 366.311 21.9497 366.577 21.9497C366.7 21.9497 366.806 21.9435 366.892 21.9312C366.985 21.9126 367.102 21.8879 367.245 21.8569L367.449 24.0371C367.276 24.0618 367.09 24.0866 366.892 24.1113C366.725 24.1299 366.53 24.1453 366.308 24.1577C366.091 24.1763 365.865 24.1855 365.63 24.1855C365.265 24.1855 364.938 24.1392 364.647 24.0464C364.356 23.9536 364.106 23.8175 363.896 23.6382C363.691 23.4526 363.534 23.2238 363.422 22.9517C363.311 22.6795 363.255 22.3641 363.255 22.0054V10.6963Z" fill="white"/>
</svg>
