<svg width="401" height="96" viewBox="0 0 401 96" fill="none" xmlns="http://www.w3.org/2000/svg">
<rect width="401" height="96" fill="#F3F2F1"/>
<rect width="11" height="96" fill="#0B0C0C"/>
<path d="M32.7578 38.1953H39.2617C40.2617 38.1953 41.1445 38.3398 41.9102 38.6289C42.6758 38.918 43.3164 39.3047 43.832 39.7891C44.3477 40.2734 44.7383 40.832 45.0039 41.4648C45.2695 42.0898 45.4023 42.7461 45.4023 43.4336C45.4023 43.9883 45.3164 44.5156 45.1445 45.0156C44.9805 45.5078 44.75 45.957 44.4531 46.3633C44.1641 46.7617 43.8203 47.1094 43.4219 47.4062C43.0234 47.6953 42.5938 47.9219 42.1328 48.0859L45.8125 55H41.8984L38.8516 48.9531H36.1562V55H32.7578V38.1953ZM41.8516 43.5508C41.8516 43.2148 41.7891 42.9023 41.6641 42.6133C41.5469 42.3242 41.3633 42.0742 41.1133 41.8633C40.8711 41.6523 40.5664 41.4883 40.1992 41.3711C39.832 41.2539 39.4062 41.1953 38.9219 41.1953H36.1562V45.9297H38.9219C39.4062 45.9297 39.832 45.8711 40.1992 45.7539C40.5664 45.6289 40.8711 45.4609 41.1133 45.25C41.3633 45.0312 41.5469 44.7773 41.6641 44.4883C41.7891 44.1992 41.8516 43.8867 41.8516 43.5508ZM50.0547 49.8438C50.1094 50.2188 50.2266 50.5625 50.4062 50.875C50.5938 51.1875 50.8281 51.457 51.1094 51.6836C51.3906 51.9023 51.7148 52.0742 52.082 52.1992C52.4492 52.3242 52.8398 52.3867 53.2539 52.3867C53.7305 52.3867 54.2461 52.2969 54.8008 52.1172C55.3555 51.9297 55.8633 51.6602 56.3242 51.3086L57.8828 53.582C57.2969 54.0742 56.5781 54.4727 55.7266 54.7773C54.875 55.082 53.9688 55.2344 53.0078 55.2344C52.1406 55.2344 51.3242 55.0859 50.5586 54.7891C49.793 54.4922 49.1211 54.0625 48.543 53.5C47.9727 52.9375 47.5195 52.2539 47.1836 51.4492C46.8555 50.6445 46.6914 49.7383 46.6914 48.7305C46.6914 47.8086 46.8359 46.9492 47.125 46.1523C47.4219 45.3555 47.832 44.6641 48.3555 44.0781C48.8867 43.4922 49.5195 43.0352 50.2539 42.707C50.9883 42.3711 51.8008 42.2031 52.6914 42.2031C53.5195 42.2031 54.2891 42.3555 55 42.6602C55.7109 42.957 56.3281 43.3789 56.8516 43.9258C57.375 44.4648 57.7852 45.1133 58.082 45.8711C58.3789 46.6289 58.5273 47.4648 58.5273 48.3789V49.8438H50.0547ZM52.6797 45.0156C51.9844 45.0156 51.3945 45.25 50.9102 45.7188C50.4336 46.1797 50.1562 46.7383 50.0781 47.3945H55.1406C55.125 46.7305 54.8828 46.168 54.4141 45.707C53.9453 45.2461 53.3672 45.0156 52.6797 45.0156ZM71.1719 55H67.9258V47.6992C67.9258 47.2539 67.875 46.8789 67.7734 46.5742C67.6797 46.2617 67.5469 46.0117 67.375 45.8242C67.2031 45.6289 67.0039 45.4922 66.7773 45.4141C66.5508 45.3281 66.3047 45.2852 66.0391 45.2852C65.7266 45.2852 65.4336 45.3398 65.1602 45.4492C64.8945 45.5586 64.6602 45.7305 64.457 45.9648C64.2617 46.1992 64.1055 46.5 63.9883 46.8672C63.8789 47.2266 63.8242 47.6562 63.8242 48.1562V55H60.5898V42.4492H63.8242V43.5508C64.2383 43.0898 64.7188 42.75 65.2656 42.5312C65.8203 42.3125 66.4141 42.2031 67.0469 42.2031C67.6953 42.2031 68.3008 42.3359 68.8633 42.6016C69.4336 42.8672 69.9062 43.3047 70.2812 43.9141C70.5 43.6016 70.75 43.3359 71.0312 43.1172C71.3203 42.8984 71.6289 42.7227 71.957 42.5898C72.2852 42.457 72.625 42.3594 72.9766 42.2969C73.3359 42.2344 73.7031 42.2031 74.0781 42.2031C74.7812 42.2031 75.4062 42.3203 75.9531 42.5547C76.5078 42.7812 76.9766 43.0898 77.3594 43.4805C77.7422 43.8711 78.0352 44.3203 78.2383 44.8281C78.4414 45.3359 78.543 45.8711 78.543 46.4336V55H75.2734V47.6992C75.2734 47.2539 75.2227 46.8789 75.1211 46.5742C75.0273 46.2617 74.8945 46.0117 74.7227 45.8242C74.5508 45.6289 74.3477 45.4922 74.1133 45.4141C73.8867 45.3281 73.6406 45.2852 73.375 45.2852C73.0625 45.2852 72.7734 45.3398 72.5078 45.4492C72.2422 45.5586 72.0078 45.7305 71.8047 45.9648C71.6094 46.1992 71.4531 46.5 71.3359 46.8672C71.2266 47.2266 71.1719 47.6562 71.1719 48.1562V55ZM86.7578 42.2031C87.6875 42.2031 88.5312 42.3711 89.2891 42.707C90.0469 43.0352 90.6953 43.4922 91.2344 44.0781C91.7734 44.6641 92.1875 45.3555 92.4766 46.1523C92.7734 46.9492 92.9219 47.8086 92.9219 48.7305C92.9219 49.6602 92.7734 50.5234 92.4766 51.3203C92.1797 52.1094 91.7617 52.793 91.2227 53.3711C90.6836 53.9492 90.0352 54.4062 89.2773 54.7422C88.5195 55.0703 87.6797 55.2344 86.7578 55.2344C85.8281 55.2344 84.9844 55.0703 84.2266 54.7422C83.4688 54.4062 82.8203 53.9492 82.2812 53.3711C81.7422 52.793 81.3242 52.1094 81.0273 51.3203C80.7305 50.5234 80.582 49.6602 80.582 48.7305C80.582 47.8086 80.7266 46.9492 81.0156 46.1523C81.3125 45.3555 81.7305 44.6641 82.2695 44.0781C82.8086 43.4922 83.457 43.0352 84.2148 42.707C84.9805 42.3711 85.8281 42.2031 86.7578 42.2031ZM86.7578 52.2344C87.2188 52.2344 87.625 52.1484 87.9766 51.9766C88.3359 51.8047 88.6367 51.5664 88.8789 51.2617C89.1211 50.957 89.3047 50.5938 89.4297 50.1719C89.5547 49.7422 89.6172 49.2734 89.6172 48.7656V48.6836C89.6172 48.1758 89.5547 47.7109 89.4297 47.2891C89.3047 46.8594 89.1211 46.4922 88.8789 46.1875C88.6367 45.875 88.3359 45.6328 87.9766 45.4609C87.625 45.2891 87.2188 45.2031 86.7578 45.2031C86.2969 45.2031 85.8867 45.2891 85.5273 45.4609C85.1758 45.6328 84.8789 45.875 84.6367 46.1875C84.3945 46.4922 84.2109 46.8594 84.0859 47.2891C83.9609 47.7109 83.8984 48.1758 83.8984 48.6836V48.7656C83.8984 49.2734 83.9609 49.7422 84.0859 50.1719C84.2109 50.5938 84.3945 50.957 84.6367 51.2617C84.8789 51.5664 85.1758 51.8047 85.5273 51.9766C85.8867 52.1484 86.2969 52.2344 86.7578 52.2344ZM97.7266 55L93.8828 42.4492H97.4922L99.7422 51.0859L102.051 42.4492H105.602L101.781 55H97.7266ZM109.914 49.8438C109.969 50.2188 110.086 50.5625 110.266 50.875C110.453 51.1875 110.688 51.457 110.969 51.6836C111.25 51.9023 111.574 52.0742 111.941 52.1992C112.309 52.3242 112.699 52.3867 113.113 52.3867C113.59 52.3867 114.105 52.2969 114.66 52.1172C115.215 51.9297 115.723 51.6602 116.184 51.3086L117.742 53.582C117.156 54.0742 116.438 54.4727 115.586 54.7773C114.734 55.082 113.828 55.2344 112.867 55.2344C112 55.2344 111.184 55.0859 110.418 54.7891C109.652 54.4922 108.98 54.0625 108.402 53.5C107.832 52.9375 107.379 52.2539 107.043 51.4492C106.715 50.6445 106.551 49.7383 106.551 48.7305C106.551 47.8086 106.695 46.9492 106.984 46.1523C107.281 45.3555 107.691 44.6641 108.215 44.0781C108.746 43.4922 109.379 43.0352 110.113 42.707C110.848 42.3711 111.66 42.2031 112.551 42.2031C113.379 42.2031 114.148 42.3555 114.859 42.6602C115.57 42.957 116.188 43.3789 116.711 43.9258C117.234 44.4648 117.645 45.1133 117.941 45.8711C118.238 46.6289 118.387 47.4648 118.387 48.3789V49.8438H109.914ZM112.539 45.0156C111.844 45.0156 111.254 45.25 110.77 45.7188C110.293 46.1797 110.016 46.7383 109.938 47.3945H115C114.984 46.7305 114.742 46.168 114.273 45.707C113.805 45.2461 113.227 45.0156 112.539 45.0156ZM128.512 55V53.9219C128.34 54.1094 128.148 54.2852 127.938 54.4492C127.734 54.6055 127.504 54.7422 127.246 54.8594C126.996 54.9766 126.719 55.0664 126.414 55.1289C126.117 55.1992 125.785 55.2344 125.418 55.2344C124.59 55.2344 123.832 55.0703 123.145 54.7422C122.457 54.4141 121.867 53.9609 121.375 53.3828C120.883 52.8047 120.5 52.1172 120.227 51.3203C119.961 50.5234 119.828 49.6602 119.828 48.7305C119.828 47.8008 119.961 46.9375 120.227 46.1406C120.492 45.3438 120.863 44.6562 121.34 44.0781C121.824 43.4922 122.406 43.0352 123.086 42.707C123.766 42.3711 124.52 42.2031 125.348 42.2031C126.082 42.2031 126.703 42.332 127.211 42.5898C127.727 42.8398 128.16 43.1523 128.512 43.5273V38.1953H131.746V55H128.512ZM128.605 47.5586C128.605 47.2227 128.543 46.9102 128.418 46.6211C128.301 46.332 128.129 46.082 127.902 45.8711C127.676 45.6602 127.402 45.4961 127.082 45.3789C126.77 45.2617 126.414 45.2031 126.016 45.2031C125.555 45.2031 125.145 45.2891 124.785 45.4609C124.434 45.6328 124.137 45.875 123.895 46.1875C123.652 46.4922 123.469 46.8555 123.344 47.2773C123.219 47.6992 123.156 48.1602 123.156 48.6602V48.8125C123.156 49.3125 123.219 49.7734 123.344 50.1953C123.469 50.6094 123.652 50.9688 123.895 51.2734C124.137 51.5781 124.434 51.8164 124.785 51.9883C125.145 52.1523 125.555 52.2344 126.016 52.2344C126.414 52.2344 126.77 52.1758 127.082 52.0586C127.402 51.9414 127.676 51.7773 127.902 51.5664C128.129 51.3555 128.301 51.1094 128.418 50.8281C128.543 50.5391 128.605 50.2266 128.605 49.8906V47.5586ZM143.207 42.4492H145.609V45.2617H143.207V55H139.973V45.2617H137.98V42.4492H139.973V40.9141C139.973 40.3672 140.066 39.8945 140.254 39.4961C140.441 39.0898 140.699 38.7578 141.027 38.5C141.363 38.2344 141.762 38.0391 142.223 37.9141C142.691 37.7812 143.207 37.7148 143.77 37.7148C144.051 37.7148 144.324 37.7227 144.59 37.7383C144.855 37.7539 145.102 37.7695 145.328 37.7852C145.555 37.8008 145.754 37.8203 145.926 37.8438C146.105 37.8672 146.242 37.8828 146.336 37.8906L146.066 40.6445C145.973 40.6289 145.855 40.6133 145.715 40.5977C145.582 40.582 145.441 40.5703 145.293 40.5625C145.145 40.5469 145 40.5391 144.859 40.5391C144.719 40.5312 144.594 40.5273 144.484 40.5273C144.023 40.5273 143.695 40.6172 143.5 40.7969C143.305 40.9688 143.207 41.1914 143.207 41.4648V42.4492ZM154.527 45.5898H154.188C153.727 45.5898 153.285 45.6367 152.863 45.7305C152.449 45.8242 152.082 45.9961 151.762 46.2461C151.441 46.4883 151.184 46.8242 150.988 47.2539C150.801 47.6836 150.707 48.2344 150.707 48.9062V55H147.473V42.4492H150.707V43.8672C150.84 43.6562 151.012 43.4531 151.223 43.2578C151.434 43.0625 151.68 42.8906 151.961 42.7422C152.242 42.5859 152.559 42.4609 152.91 42.3672C153.262 42.2734 153.641 42.2266 154.047 42.2266H154.527V45.5898ZM162.062 42.2031C162.992 42.2031 163.836 42.3711 164.594 42.707C165.352 43.0352 166 43.4922 166.539 44.0781C167.078 44.6641 167.492 45.3555 167.781 46.1523C168.078 46.9492 168.227 47.8086 168.227 48.7305C168.227 49.6602 168.078 50.5234 167.781 51.3203C167.484 52.1094 167.066 52.793 166.527 53.3711C165.988 53.9492 165.34 54.4062 164.582 54.7422C163.824 55.0703 162.984 55.2344 162.062 55.2344C161.133 55.2344 160.289 55.0703 159.531 54.7422C158.773 54.4062 158.125 53.9492 157.586 53.3711C157.047 52.793 156.629 52.1094 156.332 51.3203C156.035 50.5234 155.887 49.6602 155.887 48.7305C155.887 47.8086 156.031 46.9492 156.32 46.1523C156.617 45.3555 157.035 44.6641 157.574 44.0781C158.113 43.4922 158.762 43.0352 159.52 42.707C160.285 42.3711 161.133 42.2031 162.062 42.2031ZM162.062 52.2344C162.523 52.2344 162.93 52.1484 163.281 51.9766C163.641 51.8047 163.941 51.5664 164.184 51.2617C164.426 50.957 164.609 50.5938 164.734 50.1719C164.859 49.7422 164.922 49.2734 164.922 48.7656V48.6836C164.922 48.1758 164.859 47.7109 164.734 47.2891C164.609 46.8594 164.426 46.4922 164.184 46.1875C163.941 45.875 163.641 45.6328 163.281 45.4609C162.93 45.2891 162.523 45.2031 162.062 45.2031C161.602 45.2031 161.191 45.2891 160.832 45.4609C160.48 45.6328 160.184 45.875 159.941 46.1875C159.699 46.4922 159.516 46.8594 159.391 47.2891C159.266 47.7109 159.203 48.1758 159.203 48.6836V48.7656C159.203 49.2734 159.266 49.7422 159.391 50.1719C159.516 50.5938 159.699 50.957 159.941 51.2617C160.184 51.5664 160.48 51.8047 160.832 51.9766C161.191 52.1484 161.602 52.2344 162.062 52.2344ZM180.953 55H177.707V47.6992C177.707 47.2539 177.656 46.8789 177.555 46.5742C177.461 46.2617 177.328 46.0117 177.156 45.8242C176.984 45.6289 176.785 45.4922 176.559 45.4141C176.332 45.3281 176.086 45.2852 175.82 45.2852C175.508 45.2852 175.215 45.3398 174.941 45.4492C174.676 45.5586 174.441 45.7305 174.238 45.9648C174.043 46.1992 173.887 46.5 173.77 46.8672C173.66 47.2266 173.605 47.6562 173.605 48.1562V55H170.371V42.4492H173.605V43.5508C174.02 43.0898 174.5 42.75 175.047 42.5312C175.602 42.3125 176.195 42.2031 176.828 42.2031C177.477 42.2031 178.082 42.3359 178.645 42.6016C179.215 42.8672 179.688 43.3047 180.062 43.9141C180.281 43.6016 180.531 43.3359 180.812 43.1172C181.102 42.8984 181.41 42.7227 181.738 42.5898C182.066 42.457 182.406 42.3594 182.758 42.2969C183.117 42.2344 183.484 42.2031 183.859 42.2031C184.562 42.2031 185.188 42.3203 185.734 42.5547C186.289 42.7812 186.758 43.0898 187.141 43.4805C187.523 43.8711 187.816 44.3203 188.02 44.8281C188.223 45.3359 188.324 45.8711 188.324 46.4336V55H185.055V47.6992C185.055 47.2539 185.004 46.8789 184.902 46.5742C184.809 46.2617 184.676 46.0117 184.504 45.8242C184.332 45.6289 184.129 45.4922 183.895 45.4141C183.668 45.3281 183.422 45.2852 183.156 45.2852C182.844 45.2852 182.555 45.3398 182.289 45.4492C182.023 45.5586 181.789 45.7305 181.586 45.9648C181.391 46.1992 181.234 46.5 181.117 46.8672C181.008 47.2266 180.953 47.6562 180.953 48.1562V55ZM195.719 38.1953H207.039V41.2773H199.117V44.8516H206.418V47.9219H199.117V55H195.719V38.1953ZM208.129 38.1953H220.938V41.3477H216.238V55H212.828V41.3477H208.129V38.1953ZM223.07 38.1953H229.785C230.652 38.1953 231.434 38.3398 232.129 38.6289C232.832 38.9102 233.426 39.3008 233.91 39.8008C234.395 40.293 234.766 40.8789 235.023 41.5586C235.289 42.2383 235.422 42.9766 235.422 43.7734C235.422 44.5703 235.277 45.3086 234.988 45.9883C234.707 46.668 234.305 47.2578 233.781 47.7578C233.266 48.25 232.645 48.6367 231.918 48.918C231.191 49.1992 230.391 49.3398 229.516 49.3398H226.469V55H223.07V38.1953ZM231.918 43.7148C231.918 43.3164 231.848 42.9648 231.707 42.6602C231.566 42.3477 231.363 42.082 231.098 41.8633C230.832 41.6445 230.512 41.4805 230.137 41.3711C229.762 41.2539 229.34 41.1953 228.871 41.1953H226.469V46.3398H228.871C229.34 46.3398 229.762 46.2852 230.137 46.1758C230.512 46.0586 230.832 45.8906 231.098 45.6719C231.363 45.4531 231.566 45.1914 231.707 44.8867C231.848 44.5742 231.918 44.2188 231.918 43.8203V43.7148ZM245.875 51.8828H239.652L238.703 55H235.094L240.59 38.1953H245.055L250.633 55H246.836L245.875 51.8828ZM240.566 48.8828H244.961L242.781 41.7812H242.734L240.566 48.8828ZM259.129 58.9609H255.895V42.4492H259.129V43.5273C259.48 43.1602 259.914 42.8477 260.43 42.5898C260.945 42.332 261.57 42.2031 262.305 42.2031C263.133 42.2031 263.883 42.3711 264.555 42.707C265.234 43.0352 265.816 43.4922 266.301 44.0781C266.785 44.6562 267.16 45.3438 267.426 46.1406C267.691 46.9375 267.824 47.8008 267.824 48.7305C267.824 49.6602 267.688 50.5234 267.414 51.3203C267.141 52.1172 266.758 52.8047 266.266 53.3828C265.773 53.9609 265.184 54.4141 264.496 54.7422C263.809 55.0703 263.051 55.2344 262.223 55.2344C261.855 55.2344 261.52 55.1992 261.215 55.1289C260.918 55.0664 260.645 54.9766 260.395 54.8594C260.145 54.7422 259.914 54.6055 259.703 54.4492C259.492 54.2852 259.301 54.1094 259.129 53.9219V58.9609ZM259.035 49.8906C259.035 50.2266 259.094 50.5391 259.211 50.8281C259.336 51.1094 259.512 51.3555 259.738 51.5664C259.965 51.7773 260.234 51.9414 260.547 52.0586C260.867 52.1758 261.227 52.2344 261.625 52.2344C262.086 52.2344 262.492 52.1523 262.844 51.9883C263.203 51.8164 263.504 51.5781 263.746 51.2734C263.988 50.9688 264.172 50.6094 264.297 50.1953C264.422 49.7734 264.484 49.3125 264.484 48.8125V48.6602C264.484 48.1602 264.422 47.6992 264.297 47.2773C264.172 46.8555 263.988 46.4922 263.746 46.1875C263.504 45.875 263.203 45.6328 262.844 45.4609C262.492 45.2891 262.086 45.2031 261.625 45.2031C261.227 45.2031 260.867 45.2617 260.547 45.3789C260.234 45.4961 259.965 45.6602 259.738 45.8711C259.512 46.082 259.336 46.332 259.211 46.6211C259.094 46.9102 259.035 47.2227 259.035 47.5586V49.8906ZM277.035 45.5898H276.695C276.234 45.5898 275.793 45.6367 275.371 45.7305C274.957 45.8242 274.59 45.9961 274.27 46.2461C273.949 46.4883 273.691 46.8242 273.496 47.2539C273.309 47.6836 273.215 48.2344 273.215 48.9062V55H269.98V42.4492H273.215V43.8672C273.348 43.6562 273.52 43.4531 273.73 43.2578C273.941 43.0625 274.188 42.8906 274.469 42.7422C274.75 42.5859 275.066 42.4609 275.418 42.3672C275.77 42.2734 276.148 42.2266 276.555 42.2266H277.035V45.5898ZM284.57 42.2031C285.5 42.2031 286.344 42.3711 287.102 42.707C287.859 43.0352 288.508 43.4922 289.047 44.0781C289.586 44.6641 290 45.3555 290.289 46.1523C290.586 46.9492 290.734 47.8086 290.734 48.7305C290.734 49.6602 290.586 50.5234 290.289 51.3203C289.992 52.1094 289.574 52.793 289.035 53.3711C288.496 53.9492 287.848 54.4062 287.09 54.7422C286.332 55.0703 285.492 55.2344 284.57 55.2344C283.641 55.2344 282.797 55.0703 282.039 54.7422C281.281 54.4062 280.633 53.9492 280.094 53.3711C279.555 52.793 279.137 52.1094 278.84 51.3203C278.543 50.5234 278.395 49.6602 278.395 48.7305C278.395 47.8086 278.539 46.9492 278.828 46.1523C279.125 45.3555 279.543 44.6641 280.082 44.0781C280.621 43.4922 281.27 43.0352 282.027 42.707C282.793 42.3711 283.641 42.2031 284.57 42.2031ZM284.57 52.2344C285.031 52.2344 285.438 52.1484 285.789 51.9766C286.148 51.8047 286.449 51.5664 286.691 51.2617C286.934 50.957 287.117 50.5938 287.242 50.1719C287.367 49.7422 287.43 49.2734 287.43 48.7656V48.6836C287.43 48.1758 287.367 47.7109 287.242 47.2891C287.117 46.8594 286.934 46.4922 286.691 46.1875C286.449 45.875 286.148 45.6328 285.789 45.4609C285.438 45.2891 285.031 45.2031 284.57 45.2031C284.109 45.2031 283.699 45.2891 283.34 45.4609C282.988 45.6328 282.691 45.875 282.449 46.1875C282.207 46.4922 282.023 46.8594 281.898 47.2891C281.773 47.7109 281.711 48.1758 281.711 48.6836V48.7656C281.711 49.2734 281.773 49.7422 281.898 50.1719C282.023 50.5938 282.207 50.957 282.449 51.2617C282.691 51.5664 282.988 51.8047 283.34 51.9766C283.699 52.1484 284.109 52.2344 284.57 52.2344ZM295.562 48.7891C295.562 49.1953 295.617 49.6055 295.727 50.0195C295.836 50.4258 296.004 50.793 296.23 51.1211C296.457 51.4492 296.746 51.7188 297.098 51.9297C297.457 52.1328 297.883 52.2344 298.375 52.2344C298.695 52.2344 298.984 52.1914 299.242 52.1055C299.508 52.0195 299.742 51.9023 299.945 51.7539C300.156 51.5977 300.34 51.418 300.496 51.2148C300.66 51.0039 300.801 50.7773 300.918 50.5352L303.754 52C303.551 52.4922 303.27 52.9375 302.91 53.3359C302.559 53.7344 302.148 54.0742 301.68 54.3555C301.211 54.6367 300.691 54.8516 300.121 55C299.551 55.1562 298.945 55.2344 298.305 55.2344C297.422 55.2344 296.609 55.0703 295.867 54.7422C295.125 54.4062 294.484 53.9492 293.945 53.3711C293.406 52.793 292.984 52.1094 292.68 51.3203C292.375 50.5234 292.223 49.6602 292.223 48.7305C292.223 47.8086 292.375 46.9492 292.68 46.1523C292.984 45.3555 293.406 44.6641 293.945 44.0781C294.484 43.4922 295.125 43.0352 295.867 42.707C296.609 42.3711 297.422 42.2031 298.305 42.2031C298.945 42.2031 299.551 42.2812 300.121 42.4375C300.691 42.5859 301.211 42.8047 301.68 43.0938C302.148 43.375 302.559 43.7148 302.91 44.1133C303.27 44.5117 303.551 44.957 303.754 45.4492L300.918 46.9141C300.801 46.6719 300.66 46.4492 300.496 46.2461C300.34 46.0352 300.156 45.8555 299.945 45.707C299.742 45.5508 299.508 45.4297 299.242 45.3438C298.984 45.25 298.695 45.2031 298.375 45.2031C297.883 45.2031 297.457 45.3086 297.098 45.5195C296.746 45.7227 296.457 45.9922 296.23 46.3281C296.004 46.6562 295.836 47.0273 295.727 47.4414C295.617 47.8555 295.562 48.2695 295.562 48.6836V48.7891ZM308.453 49.8438C308.508 50.2188 308.625 50.5625 308.805 50.875C308.992 51.1875 309.227 51.457 309.508 51.6836C309.789 51.9023 310.113 52.0742 310.48 52.1992C310.848 52.3242 311.238 52.3867 311.652 52.3867C312.129 52.3867 312.645 52.2969 313.199 52.1172C313.754 51.9297 314.262 51.6602 314.723 51.3086L316.281 53.582C315.695 54.0742 314.977 54.4727 314.125 54.7773C313.273 55.082 312.367 55.2344 311.406 55.2344C310.539 55.2344 309.723 55.0859 308.957 54.7891C308.191 54.4922 307.52 54.0625 306.941 53.5C306.371 52.9375 305.918 52.2539 305.582 51.4492C305.254 50.6445 305.09 49.7383 305.09 48.7305C305.09 47.8086 305.234 46.9492 305.523 46.1523C305.82 45.3555 306.23 44.6641 306.754 44.0781C307.285 43.4922 307.918 43.0352 308.652 42.707C309.387 42.3711 310.199 42.2031 311.09 42.2031C311.918 42.2031 312.688 42.3555 313.398 42.6602C314.109 42.957 314.727 43.3789 315.25 43.9258C315.773 44.4648 316.184 45.1133 316.48 45.8711C316.777 46.6289 316.926 47.4648 316.926 48.3789V49.8438H308.453ZM311.078 45.0156C310.383 45.0156 309.793 45.25 309.309 45.7188C308.832 46.1797 308.555 46.7383 308.477 47.3945H313.539C313.523 46.7305 313.281 46.168 312.812 45.707C312.344 45.2461 311.766 45.0156 311.078 45.0156ZM319.879 50.9922C320.34 51.4062 320.891 51.7617 321.531 52.0586C322.172 52.3555 322.82 52.5039 323.477 52.5039C323.953 52.5039 324.328 52.4141 324.602 52.2344C324.875 52.0469 325.012 51.8086 325.012 51.5195C325.012 51.0273 324.484 50.6445 323.43 50.3711L322.516 50.125C322.062 50.0156 321.605 49.8672 321.145 49.6797C320.684 49.4844 320.258 49.2305 319.867 48.918C319.484 48.6055 319.172 48.2266 318.93 47.7812C318.695 47.3281 318.578 46.7734 318.578 46.1172C318.578 45.5938 318.691 45.0977 318.918 44.6289C319.152 44.1523 319.48 43.7344 319.902 43.375C320.332 43.0156 320.852 42.7305 321.461 42.5195C322.07 42.3086 322.75 42.2031 323.5 42.2031C324.57 42.2031 325.523 42.3711 326.359 42.707C327.203 43.043 327.867 43.4219 328.352 43.8438L326.664 46C326.266 45.7109 325.793 45.4648 325.246 45.2617C324.707 45.0508 324.164 44.9453 323.617 44.9453C323.109 44.9453 322.715 45.0391 322.434 45.2266C322.152 45.4062 322.012 45.625 322.012 45.8828C322.012 46.1562 322.133 46.3789 322.375 46.5508C322.625 46.7148 322.984 46.8594 323.453 46.9844L324.812 47.3711C326.109 47.7383 327.039 48.2344 327.602 48.8594C328.164 49.4844 328.445 50.2734 328.445 51.2266C328.445 51.7578 328.336 52.2656 328.117 52.75C327.898 53.2266 327.578 53.6523 327.156 54.0273C326.734 54.4023 326.211 54.6992 325.586 54.918C324.961 55.1289 324.25 55.2344 323.453 55.2344C322.844 55.2344 322.27 55.1797 321.73 55.0703C321.199 54.9609 320.703 54.8125 320.242 54.625C319.789 54.4297 319.379 54.2109 319.012 53.9688C318.645 53.7266 318.332 53.4844 318.074 53.2422L319.879 50.9922ZM331.434 50.9922C331.895 51.4062 332.445 51.7617 333.086 52.0586C333.727 52.3555 334.375 52.5039 335.031 52.5039C335.508 52.5039 335.883 52.4141 336.156 52.2344C336.43 52.0469 336.566 51.8086 336.566 51.5195C336.566 51.0273 336.039 50.6445 334.984 50.3711L334.07 50.125C333.617 50.0156 333.16 49.8672 332.699 49.6797C332.238 49.4844 331.812 49.2305 331.422 48.918C331.039 48.6055 330.727 48.2266 330.484 47.7812C330.25 47.3281 330.133 46.7734 330.133 46.1172C330.133 45.5938 330.246 45.0977 330.473 44.6289C330.707 44.1523 331.035 43.7344 331.457 43.375C331.887 43.0156 332.406 42.7305 333.016 42.5195C333.625 42.3086 334.305 42.2031 335.055 42.2031C336.125 42.2031 337.078 42.3711 337.914 42.707C338.758 43.043 339.422 43.4219 339.906 43.8438L338.219 46C337.82 45.7109 337.348 45.4648 336.801 45.2617C336.262 45.0508 335.719 44.9453 335.172 44.9453C334.664 44.9453 334.27 45.0391 333.988 45.2266C333.707 45.4062 333.566 45.625 333.566 45.8828C333.566 46.1562 333.688 46.3789 333.93 46.5508C334.18 46.7148 334.539 46.8594 335.008 46.9844L336.367 47.3711C337.664 47.7383 338.594 48.2344 339.156 48.8594C339.719 49.4844 340 50.2734 340 51.2266C340 51.7578 339.891 52.2656 339.672 52.75C339.453 53.2266 339.133 53.6523 338.711 54.0273C338.289 54.4023 337.766 54.6992 337.141 54.918C336.516 55.1289 335.805 55.2344 335.008 55.2344C334.398 55.2344 333.824 55.1797 333.285 55.0703C332.754 54.9609 332.258 54.8125 331.797 54.625C331.344 54.4297 330.934 54.2109 330.566 53.9688C330.199 53.7266 329.887 53.4844 329.629 53.2422L331.434 50.9922Z" fill="black"/>
</svg>
