<svg width="262" height="33" viewBox="0 0 262 33" fill="none" xmlns="http://www.w3.org/2000/svg">
<rect width="262" height="33" fill="#1D70B8"/>
<path d="M17.7207 21.0322H12.7944L12.043 23.5H9.18555L13.5366 10.1963H17.0713L21.4873 23.5H18.4814L17.7207 21.0322ZM13.5181 18.6572H16.9971L15.2715 13.0352H15.2344L13.5181 18.6572ZM25.3188 26.6357H22.7583V13.564H25.3188V14.4175C25.5972 14.1268 25.9404 13.8794 26.3486 13.6753C26.7568 13.4712 27.2516 13.3691 27.833 13.3691C28.4886 13.3691 29.0824 13.5021 29.6143 13.7681C30.1523 14.0278 30.6131 14.3896 30.9966 14.8535C31.38 15.3112 31.6769 15.8555 31.8872 16.4863C32.0975 17.1172 32.2026 17.8006 32.2026 18.5366C32.2026 19.2726 32.0944 19.9561 31.8779 20.5869C31.6615 21.2178 31.3584 21.762 30.9688 22.2197C30.5791 22.6774 30.1121 23.0361 29.5679 23.2959C29.0236 23.5557 28.4237 23.6855 27.7681 23.6855C27.4774 23.6855 27.2114 23.6577 26.9702 23.6021C26.7352 23.5526 26.5187 23.4814 26.3208 23.3887C26.1229 23.2959 25.9404 23.1877 25.7734 23.064C25.6064 22.9341 25.4549 22.7949 25.3188 22.6465V26.6357ZM25.2446 19.4551C25.2446 19.721 25.291 19.9684 25.3838 20.1973C25.4827 20.4199 25.6219 20.6147 25.8013 20.7817C25.9806 20.9487 26.194 21.0786 26.4414 21.1714C26.695 21.2642 26.9795 21.3105 27.2949 21.3105C27.6598 21.3105 27.9814 21.2456 28.2598 21.1157C28.5443 20.9797 28.7824 20.791 28.9741 20.5498C29.1659 20.3086 29.3112 20.0241 29.4102 19.6963C29.5091 19.3623 29.5586 18.9974 29.5586 18.6016V18.481C29.5586 18.0851 29.5091 17.7202 29.4102 17.3862C29.3112 17.0522 29.1659 16.7646 28.9741 16.5234C28.7824 16.276 28.5443 16.0843 28.2598 15.9482C27.9814 15.8122 27.6598 15.7441 27.2949 15.7441C26.9795 15.7441 26.695 15.7905 26.4414 15.8833C26.194 15.9761 25.9806 16.106 25.8013 16.2729C25.6219 16.4399 25.4827 16.6379 25.3838 16.8667C25.291 17.0955 25.2446 17.3429 25.2446 17.6089V19.4551ZM36.4702 26.6357H33.9097V13.564H36.4702V14.4175C36.7485 14.1268 37.0918 13.8794 37.5 13.6753C37.9082 13.4712 38.403 13.3691 38.9844 13.3691C39.64 13.3691 40.2337 13.5021 40.7656 13.7681C41.3037 14.0278 41.7645 14.3896 42.1479 14.8535C42.5314 15.3112 42.8283 15.8555 43.0386 16.4863C43.2489 17.1172 43.354 17.8006 43.354 18.5366C43.354 19.2726 43.2458 19.9561 43.0293 20.5869C42.8128 21.2178 42.5098 21.762 42.1201 22.2197C41.7305 22.6774 41.2635 23.0361 40.7192 23.2959C40.175 23.5557 39.575 23.6855 38.9194 23.6855C38.6287 23.6855 38.3628 23.6577 38.1216 23.6021C37.8866 23.5526 37.6701 23.4814 37.4722 23.3887C37.2743 23.2959 37.0918 23.1877 36.9248 23.064C36.7578 22.9341 36.6063 22.7949 36.4702 22.6465V26.6357ZM36.396 19.4551C36.396 19.721 36.4424 19.9684 36.5352 20.1973C36.6341 20.4199 36.7733 20.6147 36.9526 20.7817C37.132 20.9487 37.3454 21.0786 37.5928 21.1714C37.8464 21.2642 38.1309 21.3105 38.4463 21.3105C38.8112 21.3105 39.1328 21.2456 39.4111 21.1157C39.6956 20.9797 39.9338 20.791 40.1255 20.5498C40.3172 20.3086 40.4626 20.0241 40.5615 19.6963C40.6605 19.3623 40.71 18.9974 40.71 18.6016V18.481C40.71 18.0851 40.6605 17.7202 40.5615 17.3862C40.4626 17.0522 40.3172 16.7646 40.1255 16.5234C39.9338 16.276 39.6956 16.0843 39.4111 15.9482C39.1328 15.8122 38.8112 15.7441 38.4463 15.7441C38.1309 15.7441 37.8464 15.7905 37.5928 15.8833C37.3454 15.9761 37.132 16.106 36.9526 16.2729C36.7733 16.4399 36.6341 16.6379 36.5352 16.8667C36.4424 17.0955 36.396 17.3429 36.396 17.6089V19.4551ZM47.2041 19.418C47.2474 19.7148 47.3402 19.987 47.4824 20.2344C47.6309 20.4818 47.8164 20.6951 48.0391 20.8745C48.2617 21.0477 48.5184 21.1838 48.8091 21.2827C49.0998 21.3817 49.409 21.4312 49.7368 21.4312C50.1141 21.4312 50.5223 21.36 50.9614 21.2178C51.4006 21.0693 51.8026 20.856 52.1675 20.5776L53.4014 22.3774C52.9375 22.7671 52.3685 23.0825 51.6943 23.3237C51.0202 23.5649 50.3027 23.6855 49.542 23.6855C48.8555 23.6855 48.2091 23.568 47.603 23.333C46.9969 23.098 46.465 22.7578 46.0073 22.3125C45.5558 21.8672 45.1971 21.326 44.9312 20.689C44.6714 20.0519 44.5415 19.3345 44.5415 18.5366C44.5415 17.8068 44.6559 17.1265 44.8848 16.4956C45.1198 15.8647 45.4445 15.3174 45.8589 14.8535C46.2795 14.3896 46.7804 14.0278 47.3618 13.7681C47.9432 13.5021 48.5864 13.3691 49.2915 13.3691C49.9471 13.3691 50.5563 13.4897 51.1191 13.731C51.682 13.966 52.1706 14.3 52.585 14.7329C52.9993 15.1597 53.3241 15.673 53.5591 16.2729C53.7941 16.8729 53.9116 17.5347 53.9116 18.2583V19.418H47.2041ZM49.2822 15.5957C48.7318 15.5957 48.2648 15.7812 47.8813 16.1523C47.5041 16.5173 47.2845 16.9595 47.2227 17.479H51.2305C51.2181 16.9533 51.0264 16.508 50.6553 16.1431C50.2842 15.7782 49.8265 15.5957 49.2822 15.5957ZM55.5073 10.1963H58.0679V20.8003C58.0679 21.0106 58.1266 21.1714 58.2441 21.2827C58.3678 21.394 58.5627 21.4497 58.8286 21.4497C58.9523 21.4497 59.0575 21.4435 59.144 21.4312C59.2368 21.4126 59.3543 21.3879 59.4966 21.3569L59.7007 23.5371C59.5275 23.5618 59.342 23.5866 59.144 23.6113C58.9771 23.6299 58.7822 23.6453 58.5596 23.6577C58.3431 23.6763 58.1174 23.6855 57.8823 23.6855C57.5174 23.6855 57.1896 23.6392 56.8989 23.5464C56.6082 23.4536 56.3577 23.3175 56.1475 23.1382C55.9434 22.9526 55.7856 22.7238 55.6743 22.4517C55.563 22.1795 55.5073 21.8641 55.5073 21.5054V10.1963ZM61.0737 10.1963H63.6343V20.8003C63.6343 21.0106 63.693 21.1714 63.8105 21.2827C63.9342 21.394 64.1291 21.4497 64.395 21.4497C64.5187 21.4497 64.6239 21.4435 64.7104 21.4312C64.8032 21.4126 64.9207 21.3879 65.063 21.3569L65.2671 23.5371C65.0939 23.5618 64.9084 23.5866 64.7104 23.6113C64.5435 23.6299 64.3486 23.6453 64.126 23.6577C63.9095 23.6763 63.6838 23.6855 63.4487 23.6855C63.0838 23.6855 62.756 23.6392 62.4653 23.5464C62.1746 23.4536 61.9242 23.3175 61.7139 23.1382C61.5098 22.9526 61.3521 22.7238 61.2407 22.4517C61.1294 22.1795 61.0737 21.8641 61.0737 21.5054V10.1963ZM69.8872 19.4644C69.5718 19.5138 69.3182 19.6252 69.1265 19.7983C68.9347 19.9653 68.8389 20.1942 68.8389 20.4849C68.8389 20.8065 68.9564 21.0848 69.1914 21.3198C69.4264 21.5487 69.7728 21.6631 70.2305 21.6631C70.7129 21.6631 71.0933 21.5239 71.3716 21.2456C71.6499 20.9673 71.7891 20.5993 71.7891 20.1416V19.1396L69.8872 19.4644ZM72.2065 22.563C72.1014 22.6805 71.9715 22.8073 71.8169 22.9434C71.6685 23.0732 71.4891 23.1938 71.2788 23.3052C71.0747 23.4103 70.8335 23.5 70.5552 23.5742C70.2769 23.6484 69.9645 23.6855 69.6182 23.6855C69.1234 23.6855 68.6657 23.6082 68.2451 23.4536C67.8307 23.2928 67.4658 23.0701 67.1504 22.7856C66.835 22.5011 66.5876 22.1733 66.4082 21.8022C66.2288 21.425 66.1392 21.0168 66.1392 20.5776C66.1392 19.7798 66.3866 19.1273 66.8813 18.6201C67.3761 18.113 68.0596 17.7944 68.9316 17.6646L71.7891 17.2471V17.0615C71.7891 16.6162 71.653 16.2637 71.3809 16.0039C71.1087 15.7441 70.6665 15.6143 70.0542 15.6143C69.8006 15.6143 69.5439 15.6452 69.2842 15.707C69.0244 15.7627 68.7739 15.8276 68.5327 15.9019C68.2977 15.9761 68.0781 16.0627 67.874 16.1616C67.6699 16.2544 67.4906 16.3379 67.3359 16.4121L66.334 14.4546C66.903 14.1392 67.5339 13.8794 68.2266 13.6753C68.9255 13.4712 69.6491 13.3691 70.3975 13.3691C70.8551 13.3691 71.3159 13.4186 71.7798 13.5176C72.2498 13.6104 72.6735 13.7835 73.0508 14.0371C73.4342 14.2907 73.7466 14.637 73.9878 15.0762C74.229 15.5091 74.3496 16.0627 74.3496 16.7368V20.8188C74.3496 21.1095 74.4238 21.326 74.5723 21.4683C74.7269 21.6043 74.9372 21.7311 75.2031 21.8486L74.0435 23.6855C73.5734 23.6361 73.1961 23.5155 72.9116 23.3237C72.6271 23.1258 72.3921 22.8722 72.2065 22.563ZM76.4927 13.564H79.0532V14.4175C79.1893 14.2814 79.3408 14.1515 79.5078 14.0278C79.681 13.8979 79.8696 13.7866 80.0737 13.6938C80.2778 13.5949 80.5036 13.5176 80.751 13.4619C81.0046 13.4001 81.2829 13.3691 81.5859 13.3691C82.124 13.3691 82.6064 13.4588 83.0332 13.6382C83.46 13.8114 83.8187 14.0526 84.1094 14.3618C84.4062 14.6711 84.632 15.0329 84.7866 15.4473C84.9412 15.8617 85.0186 16.3101 85.0186 16.7925V23.5H82.458V17.7202C82.458 17.3677 82.4178 17.0708 82.3374 16.8296C82.257 16.5822 82.1457 16.3843 82.0034 16.2358C81.8674 16.0812 81.7035 15.9699 81.5117 15.9019C81.3262 15.8276 81.1221 15.7905 80.8994 15.7905C80.6396 15.7905 80.3953 15.8369 80.1665 15.9297C79.9438 16.0225 79.749 16.1647 79.582 16.3564C79.415 16.542 79.2852 16.777 79.1924 17.0615C79.0996 17.346 79.0532 17.68 79.0532 18.0635V23.5H76.4927V13.564ZM90.8262 20.5405C90.8262 20.658 90.8416 20.7694 90.8726 20.8745C90.9035 20.9797 90.9561 21.0724 91.0303 21.1528C91.1107 21.2271 91.222 21.2858 91.3643 21.3291C91.5065 21.3724 91.689 21.394 91.9116 21.394C92.0044 21.394 92.1095 21.391 92.2271 21.3848C92.3446 21.3724 92.4621 21.36 92.5796 21.3477C92.6971 21.3353 92.8053 21.3198 92.9043 21.3013C93.0094 21.2827 93.096 21.2673 93.1641 21.2549L93.396 23.5186C93.1548 23.5495 92.9043 23.5773 92.6445 23.6021C92.4219 23.6268 92.1745 23.6453 91.9023 23.6577C91.6302 23.6763 91.355 23.6855 91.0767 23.6855C90.1922 23.6855 89.5026 23.4845 89.0078 23.0825C88.513 22.6805 88.2656 22.0404 88.2656 21.1621V15.7905H86.4751V13.564H88.2656V10.7529L90.8262 10.0664V13.564H93.4331V15.7905H90.8262V20.5405ZM101.041 23.5H98.48V13.564H101.041V23.5ZM98.2109 10.957C98.2109 10.7467 98.2511 10.5488 98.3315 10.3633C98.4119 10.1715 98.5202 10.0076 98.6562 9.87158C98.7985 9.72933 98.9624 9.618 99.1479 9.5376C99.3335 9.45719 99.5345 9.41699 99.751 9.41699C99.9613 9.41699 100.159 9.45719 100.345 9.5376C100.536 9.618 100.7 9.72933 100.836 9.87158C100.979 10.0076 101.09 10.1715 101.17 10.3633C101.251 10.5488 101.291 10.7467 101.291 10.957C101.291 11.1735 101.251 11.3745 101.17 11.5601C101.09 11.7456 100.979 11.9095 100.836 12.0518C100.7 12.1878 100.536 12.2961 100.345 12.3765C100.159 12.4569 99.9613 12.4971 99.751 12.4971C99.5345 12.4971 99.3335 12.4569 99.1479 12.3765C98.9624 12.2961 98.7985 12.1878 98.6562 12.0518C98.5202 11.9095 98.4119 11.7456 98.3315 11.5601C98.2511 11.3745 98.2109 11.1735 98.2109 10.957ZM103.249 13.564H105.809V14.4175C105.945 14.2814 106.097 14.1515 106.264 14.0278C106.437 13.8979 106.625 13.7866 106.83 13.6938C107.034 13.5949 107.259 13.5176 107.507 13.4619C107.76 13.4001 108.039 13.3691 108.342 13.3691C108.88 13.3691 109.362 13.4588 109.789 13.6382C110.216 13.8114 110.575 14.0526 110.865 14.3618C111.162 14.6711 111.388 15.0329 111.542 15.4473C111.697 15.8617 111.774 16.3101 111.774 16.7925V23.5H109.214V17.7202C109.214 17.3677 109.174 17.0708 109.093 16.8296C109.013 16.5822 108.902 16.3843 108.759 16.2358C108.623 16.0812 108.459 15.9699 108.268 15.9019C108.082 15.8276 107.878 15.7905 107.655 15.7905C107.396 15.7905 107.151 15.8369 106.922 15.9297C106.7 16.0225 106.505 16.1647 106.338 16.3564C106.171 16.542 106.041 16.777 105.948 17.0615C105.855 17.346 105.809 17.68 105.809 18.0635V23.5H103.249V13.564ZM119.911 26.6357H117.35V13.564H119.911V14.4175C120.189 14.1268 120.532 13.8794 120.94 13.6753C121.349 13.4712 121.843 13.3691 122.425 13.3691C123.08 13.3691 123.674 13.5021 124.206 13.7681C124.744 14.0278 125.205 14.3896 125.588 14.8535C125.972 15.3112 126.269 15.8555 126.479 16.4863C126.689 17.1172 126.794 17.8006 126.794 18.5366C126.794 19.2726 126.686 19.9561 126.47 20.5869C126.253 21.2178 125.95 21.762 125.561 22.2197C125.171 22.6774 124.704 23.0361 124.16 23.2959C123.615 23.5557 123.015 23.6855 122.36 23.6855C122.069 23.6855 121.803 23.6577 121.562 23.6021C121.327 23.5526 121.111 23.4814 120.913 23.3887C120.715 23.2959 120.532 23.1877 120.365 23.064C120.198 22.9341 120.047 22.7949 119.911 22.6465V26.6357ZM119.836 19.4551C119.836 19.721 119.883 19.9684 119.976 20.1973C120.075 20.4199 120.214 20.6147 120.393 20.7817C120.572 20.9487 120.786 21.0786 121.033 21.1714C121.287 21.2642 121.571 21.3105 121.887 21.3105C122.252 21.3105 122.573 21.2456 122.852 21.1157C123.136 20.9797 123.374 20.791 123.566 20.5498C123.758 20.3086 123.903 20.0241 124.002 19.6963C124.101 19.3623 124.15 18.9974 124.15 18.6016V18.481C124.15 18.0851 124.101 17.7202 124.002 17.3862C123.903 17.0522 123.758 16.7646 123.566 16.5234C123.374 16.276 123.136 16.0843 122.852 15.9482C122.573 15.8122 122.252 15.7441 121.887 15.7441C121.571 15.7441 121.287 15.7905 121.033 15.8833C120.786 15.9761 120.572 16.106 120.393 16.2729C120.214 16.4399 120.075 16.6379 119.976 16.8667C119.883 17.0955 119.836 17.3429 119.836 17.6089V19.4551ZM130.645 19.418C130.688 19.7148 130.781 19.987 130.923 20.2344C131.071 20.4818 131.257 20.6951 131.479 20.8745C131.702 21.0477 131.959 21.1838 132.25 21.2827C132.54 21.3817 132.849 21.4312 133.177 21.4312C133.555 21.4312 133.963 21.36 134.402 21.2178C134.841 21.0693 135.243 20.856 135.608 20.5776L136.842 22.3774C136.378 22.7671 135.809 23.0825 135.135 23.3237C134.461 23.5649 133.743 23.6855 132.982 23.6855C132.296 23.6855 131.65 23.568 131.043 23.333C130.437 23.098 129.905 22.7578 129.448 22.3125C128.996 21.8672 128.638 21.326 128.372 20.689C128.112 20.0519 127.982 19.3345 127.982 18.5366C127.982 17.8068 128.096 17.1265 128.325 16.4956C128.56 15.8647 128.885 15.3174 129.299 14.8535C129.72 14.3896 130.221 14.0278 130.802 13.7681C131.384 13.5021 132.027 13.3691 132.732 13.3691C133.388 13.3691 133.997 13.4897 134.56 13.731C135.122 13.966 135.611 14.3 136.025 14.7329C136.44 15.1597 136.764 15.673 137 16.2729C137.235 16.8729 137.352 17.5347 137.352 18.2583V19.418H130.645ZM132.723 15.5957C132.172 15.5957 131.705 15.7812 131.322 16.1523C130.944 16.5173 130.725 16.9595 130.663 17.479H134.671C134.659 16.9533 134.467 16.508 134.096 16.1431C133.725 15.7782 133.267 15.5957 132.723 15.5957ZM144.57 16.0503H144.301C143.936 16.0503 143.586 16.0874 143.252 16.1616C142.925 16.2358 142.634 16.3719 142.38 16.5698C142.127 16.7616 141.923 17.0275 141.768 17.3677C141.62 17.7078 141.545 18.1439 141.545 18.6758V23.5H138.985V13.564H141.545V14.6865C141.651 14.5195 141.787 14.3587 141.954 14.2041C142.121 14.0495 142.315 13.9134 142.538 13.7959C142.761 13.6722 143.011 13.5732 143.29 13.499C143.568 13.4248 143.868 13.3877 144.189 13.3877H144.57V16.0503ZM146.871 20.3271C147.236 20.6549 147.672 20.9364 148.179 21.1714C148.686 21.4064 149.199 21.5239 149.719 21.5239C150.096 21.5239 150.393 21.4528 150.609 21.3105C150.826 21.1621 150.934 20.9735 150.934 20.7446C150.934 20.355 150.517 20.0519 149.682 19.8354L148.958 19.6406C148.599 19.554 148.237 19.4365 147.873 19.2881C147.508 19.1335 147.171 18.9325 146.861 18.6851C146.558 18.4377 146.311 18.1377 146.119 17.7852C145.934 17.4264 145.841 16.9873 145.841 16.4678C145.841 16.0534 145.931 15.6606 146.11 15.2896C146.295 14.9123 146.555 14.5814 146.889 14.2969C147.229 14.0124 147.641 13.7866 148.123 13.6196C148.605 13.4526 149.144 13.3691 149.737 13.3691C150.585 13.3691 151.339 13.5021 152.001 13.7681C152.669 14.034 153.195 14.334 153.578 14.668L152.242 16.375C151.927 16.1462 151.553 15.9513 151.12 15.7905C150.693 15.6235 150.263 15.54 149.83 15.54C149.428 15.54 149.116 15.6143 148.893 15.7627C148.67 15.9049 148.559 16.0781 148.559 16.2822C148.559 16.4987 148.655 16.675 148.847 16.811C149.045 16.9409 149.329 17.0553 149.7 17.1543L150.776 17.4604C151.803 17.7511 152.539 18.1439 152.984 18.6387C153.43 19.1335 153.652 19.7581 153.652 20.5127C153.652 20.9333 153.566 21.3353 153.393 21.7188C153.219 22.096 152.966 22.4331 152.632 22.73C152.298 23.0269 151.883 23.2619 151.389 23.4351C150.894 23.6021 150.331 23.6855 149.7 23.6855C149.218 23.6855 148.763 23.6423 148.336 23.5557C147.916 23.4691 147.523 23.3516 147.158 23.2031C146.799 23.0485 146.475 22.8753 146.184 22.6836C145.893 22.4919 145.646 22.3001 145.442 22.1084L146.871 20.3271ZM159.683 13.3691C160.419 13.3691 161.087 13.5021 161.687 13.7681C162.286 14.0278 162.8 14.3896 163.227 14.8535C163.653 15.3174 163.981 15.8647 164.21 16.4956C164.445 17.1265 164.562 17.8068 164.562 18.5366C164.562 19.2726 164.445 19.9561 164.21 20.5869C163.975 21.2116 163.644 21.7528 163.217 22.2104C162.791 22.6681 162.277 23.0299 161.677 23.2959C161.077 23.5557 160.412 23.6855 159.683 23.6855C158.947 23.6855 158.279 23.5557 157.679 23.2959C157.079 23.0299 156.565 22.6681 156.139 22.2104C155.712 21.7528 155.381 21.2116 155.146 20.5869C154.911 19.9561 154.793 19.2726 154.793 18.5366C154.793 17.8068 154.908 17.1265 155.137 16.4956C155.372 15.8647 155.703 15.3174 156.129 14.8535C156.556 14.3896 157.069 14.0278 157.669 13.7681C158.276 13.5021 158.947 13.3691 159.683 13.3691ZM159.683 21.3105C160.048 21.3105 160.369 21.2425 160.647 21.1064C160.932 20.9704 161.17 20.7817 161.362 20.5405C161.554 20.2993 161.699 20.0117 161.798 19.6777C161.897 19.3376 161.946 18.9665 161.946 18.5645V18.4995C161.946 18.0975 161.897 17.7295 161.798 17.3955C161.699 17.0553 161.554 16.7646 161.362 16.5234C161.17 16.276 160.932 16.0843 160.647 15.9482C160.369 15.8122 160.048 15.7441 159.683 15.7441C159.318 15.7441 158.993 15.8122 158.708 15.9482C158.43 16.0843 158.195 16.276 158.003 16.5234C157.812 16.7646 157.666 17.0553 157.567 17.3955C157.468 17.7295 157.419 18.0975 157.419 18.4995V18.5645C157.419 18.9665 157.468 19.3376 157.567 19.6777C157.666 20.0117 157.812 20.2993 158.003 20.5405C158.195 20.7817 158.43 20.9704 158.708 21.1064C158.993 21.2425 159.318 21.3105 159.683 21.3105ZM166.26 13.564H168.821V14.4175C168.957 14.2814 169.108 14.1515 169.275 14.0278C169.449 13.8979 169.637 13.7866 169.841 13.6938C170.045 13.5949 170.271 13.5176 170.519 13.4619C170.772 13.4001 171.05 13.3691 171.354 13.3691C171.892 13.3691 172.374 13.4588 172.801 13.6382C173.228 13.8114 173.586 14.0526 173.877 14.3618C174.174 14.6711 174.4 15.0329 174.554 15.4473C174.709 15.8617 174.786 16.3101 174.786 16.7925V23.5H172.226V17.7202C172.226 17.3677 172.185 17.0708 172.105 16.8296C172.025 16.5822 171.913 16.3843 171.771 16.2358C171.635 16.0812 171.471 15.9699 171.279 15.9019C171.094 15.8276 170.89 15.7905 170.667 15.7905C170.407 15.7905 170.163 15.8369 169.934 15.9297C169.711 16.0225 169.517 16.1647 169.35 16.3564C169.183 16.542 169.053 16.777 168.96 17.0615C168.867 17.346 168.821 17.68 168.821 18.0635V23.5H166.26V13.564ZM179.638 16.4121H183.627V18.7129H179.638V16.4121ZM196.922 23.5H194.352V17.7202C194.352 17.3677 194.312 17.0708 194.231 16.8296C194.157 16.5822 194.052 16.3843 193.916 16.2358C193.78 16.0812 193.622 15.973 193.443 15.9111C193.264 15.8431 193.069 15.8091 192.858 15.8091C192.611 15.8091 192.379 15.8524 192.163 15.939C191.952 16.0256 191.767 16.1616 191.606 16.3472C191.451 16.5327 191.328 16.7708 191.235 17.0615C191.148 17.346 191.105 17.6862 191.105 18.082V23.5H188.544V13.564H191.105V14.436C191.433 14.0711 191.813 13.8021 192.246 13.6289C192.685 13.4557 193.155 13.3691 193.656 13.3691C194.17 13.3691 194.649 13.4743 195.094 13.6846C195.546 13.8949 195.92 14.2412 196.217 14.7236C196.39 14.4762 196.588 14.266 196.811 14.0928C197.039 13.9196 197.284 13.7804 197.543 13.6753C197.803 13.5701 198.072 13.4928 198.351 13.4434C198.635 13.3939 198.926 13.3691 199.223 13.3691C199.779 13.3691 200.274 13.4619 200.707 13.6475C201.146 13.8268 201.517 14.0711 201.82 14.3804C202.123 14.6896 202.355 15.0452 202.516 15.4473C202.677 15.8493 202.757 16.2729 202.757 16.7183V23.5H200.169V17.7202C200.169 17.3677 200.129 17.0708 200.048 16.8296C199.974 16.5822 199.869 16.3843 199.733 16.2358C199.597 16.0812 199.436 15.973 199.25 15.9111C199.071 15.8431 198.876 15.8091 198.666 15.8091C198.419 15.8091 198.19 15.8524 197.979 15.939C197.769 16.0256 197.584 16.1616 197.423 16.3472C197.268 16.5327 197.145 16.7708 197.052 17.0615C196.965 17.346 196.922 17.6862 196.922 18.082V23.5ZM208.101 19.4644C207.786 19.5138 207.532 19.6252 207.34 19.7983C207.149 19.9653 207.053 20.1942 207.053 20.4849C207.053 20.8065 207.17 21.0848 207.405 21.3198C207.64 21.5487 207.987 21.6631 208.444 21.6631C208.927 21.6631 209.307 21.5239 209.585 21.2456C209.864 20.9673 210.003 20.5993 210.003 20.1416V19.1396L208.101 19.4644ZM210.42 22.563C210.315 22.6805 210.185 22.8073 210.031 22.9434C209.882 23.0732 209.703 23.1938 209.493 23.3052C209.289 23.4103 209.047 23.5 208.769 23.5742C208.491 23.6484 208.178 23.6855 207.832 23.6855C207.337 23.6855 206.88 23.6082 206.459 23.4536C206.045 23.2928 205.68 23.0701 205.364 22.7856C205.049 22.5011 204.801 22.1733 204.622 21.8022C204.443 21.425 204.353 21.0168 204.353 20.5776C204.353 19.7798 204.6 19.1273 205.095 18.6201C205.59 18.113 206.273 17.7944 207.146 17.6646L210.003 17.2471V17.0615C210.003 16.6162 209.867 16.2637 209.595 16.0039C209.323 15.7441 208.88 15.6143 208.268 15.6143C208.014 15.6143 207.758 15.6452 207.498 15.707C207.238 15.7627 206.988 15.8276 206.747 15.9019C206.512 15.9761 206.292 16.0627 206.088 16.1616C205.884 16.2544 205.704 16.3379 205.55 16.4121L204.548 14.4546C205.117 14.1392 205.748 13.8794 206.44 13.6753C207.139 13.4712 207.863 13.3691 208.611 13.3691C209.069 13.3691 209.53 13.4186 209.994 13.5176C210.464 13.6104 210.887 13.7835 211.265 14.0371C211.648 14.2907 211.96 14.637 212.202 15.0762C212.443 15.5091 212.563 16.0627 212.563 16.7368V20.8188C212.563 21.1095 212.638 21.326 212.786 21.4683C212.941 21.6043 213.151 21.7311 213.417 21.8486L212.257 23.6855C211.787 23.6361 211.41 23.5155 211.125 23.3237C210.841 23.1258 210.606 22.8722 210.42 22.563ZM214.707 13.564H217.267V14.4175C217.403 14.2814 217.555 14.1515 217.722 14.0278C217.895 13.8979 218.083 13.7866 218.288 13.6938C218.492 13.5949 218.717 13.5176 218.965 13.4619C219.218 13.4001 219.497 13.3691 219.8 13.3691C220.338 13.3691 220.82 13.4588 221.247 13.6382C221.674 13.8114 222.033 14.0526 222.323 14.3618C222.62 14.6711 222.846 15.0329 223 15.4473C223.155 15.8617 223.232 16.3101 223.232 16.7925V23.5H220.672V17.7202C220.672 17.3677 220.632 17.0708 220.551 16.8296C220.471 16.5822 220.36 16.3843 220.217 16.2358C220.081 16.0812 219.917 15.9699 219.726 15.9019C219.54 15.8276 219.336 15.7905 219.113 15.7905C218.854 15.7905 218.609 15.8369 218.38 15.9297C218.158 16.0225 217.963 16.1647 217.796 16.3564C217.629 16.542 217.499 16.777 217.406 17.0615C217.313 17.346 217.267 17.68 217.267 18.0635V23.5H214.707V13.564ZM233.827 23.5H231.267V22.6465C231.124 22.7826 230.97 22.9155 230.803 23.0454C230.636 23.1691 230.45 23.2804 230.246 23.3794C230.042 23.4722 229.813 23.5464 229.56 23.6021C229.312 23.6577 229.037 23.6855 228.734 23.6855C228.196 23.6855 227.713 23.599 227.287 23.4258C226.86 23.2464 226.498 23.0052 226.201 22.7021C225.91 22.3929 225.688 22.0311 225.533 21.6167C225.379 21.2023 225.301 20.7539 225.301 20.2715V13.564H227.862V19.3345C227.862 19.687 227.899 19.987 227.973 20.2344C228.054 20.4818 228.162 20.6828 228.298 20.8374C228.44 20.9858 228.607 21.0972 228.799 21.1714C228.991 21.2394 229.198 21.2734 229.42 21.2734C229.68 21.2734 229.921 21.2271 230.144 21.1343C230.373 21.0415 230.571 20.9023 230.738 20.7168C230.905 20.5251 231.035 20.2869 231.127 20.0024C231.22 19.7179 231.267 19.384 231.267 19.0005V13.564H233.827V23.5ZM239.254 19.4644C238.939 19.5138 238.685 19.6252 238.494 19.7983C238.302 19.9653 238.206 20.1942 238.206 20.4849C238.206 20.8065 238.324 21.0848 238.559 21.3198C238.794 21.5487 239.14 21.6631 239.598 21.6631C240.08 21.6631 240.46 21.5239 240.739 21.2456C241.017 20.9673 241.156 20.5993 241.156 20.1416V19.1396L239.254 19.4644ZM241.574 22.563C241.469 22.6805 241.339 22.8073 241.184 22.9434C241.036 23.0732 240.856 23.1938 240.646 23.3052C240.442 23.4103 240.201 23.5 239.922 23.5742C239.644 23.6484 239.332 23.6855 238.985 23.6855C238.491 23.6855 238.033 23.6082 237.612 23.4536C237.198 23.2928 236.833 23.0701 236.518 22.7856C236.202 22.5011 235.955 22.1733 235.775 21.8022C235.596 21.425 235.506 21.0168 235.506 20.5776C235.506 19.7798 235.754 19.1273 236.249 18.6201C236.743 18.113 237.427 17.7944 238.299 17.6646L241.156 17.2471V17.0615C241.156 16.6162 241.02 16.2637 240.748 16.0039C240.476 15.7441 240.034 15.6143 239.421 15.6143C239.168 15.6143 238.911 15.6452 238.651 15.707C238.392 15.7627 238.141 15.8276 237.9 15.9019C237.665 15.9761 237.445 16.0627 237.241 16.1616C237.037 16.2544 236.858 16.3379 236.703 16.4121L235.701 14.4546C236.27 14.1392 236.901 13.8794 237.594 13.6753C238.293 13.4712 239.016 13.3691 239.765 13.3691C240.222 13.3691 240.683 13.4186 241.147 13.5176C241.617 13.6104 242.041 13.7835 242.418 14.0371C242.801 14.2907 243.114 14.637 243.355 15.0762C243.596 15.5091 243.717 16.0627 243.717 16.7368V20.8188C243.717 21.1095 243.791 21.326 243.939 21.4683C244.094 21.6043 244.304 21.7311 244.57 21.8486L243.411 23.6855C242.941 23.6361 242.563 23.5155 242.279 23.3237C241.994 23.1258 241.759 22.8722 241.574 22.563ZM245.823 10.1963H248.383V20.8003C248.383 21.0106 248.442 21.1714 248.56 21.2827C248.683 21.394 248.878 21.4497 249.144 21.4497C249.268 21.4497 249.373 21.4435 249.459 21.4312C249.552 21.4126 249.67 21.3879 249.812 21.3569L250.016 23.5371C249.843 23.5618 249.657 23.5866 249.459 23.6113C249.292 23.6299 249.098 23.6453 248.875 23.6577C248.659 23.6763 248.433 23.6855 248.198 23.6855C247.833 23.6855 247.505 23.6392 247.214 23.5464C246.924 23.4536 246.673 23.3175 246.463 23.1382C246.259 22.9526 246.101 22.7238 245.99 22.4517C245.878 22.1795 245.823 21.8641 245.823 21.5054V10.1963Z" fill="white"/>
</svg>
