<svg width="323" height="33" viewBox="0 0 323 33" fill="none" xmlns="http://www.w3.org/2000/svg">
<rect width="185" height="33" fill="#1D70B8"/>
<path d="M17.7207 21.0322H12.7944L12.043 23.5H9.18555L13.5366 10.1963H17.0713L21.4873 23.5H18.4814L17.7207 21.0322ZM13.5181 18.6572H16.9971L15.2715 13.0352H15.2344L13.5181 18.6572ZM25.3188 26.6357H22.7583V13.564H25.3188V14.4175C25.5972 14.1268 25.9404 13.8794 26.3486 13.6753C26.7568 13.4712 27.2516 13.3691 27.833 13.3691C28.4886 13.3691 29.0824 13.5021 29.6143 13.7681C30.1523 14.0278 30.6131 14.3896 30.9966 14.8535C31.38 15.3112 31.6769 15.8555 31.8872 16.4863C32.0975 17.1172 32.2026 17.8006 32.2026 18.5366C32.2026 19.2726 32.0944 19.9561 31.8779 20.5869C31.6615 21.2178 31.3584 21.762 30.9688 22.2197C30.5791 22.6774 30.1121 23.0361 29.5679 23.2959C29.0236 23.5557 28.4237 23.6855 27.7681 23.6855C27.4774 23.6855 27.2114 23.6577 26.9702 23.6021C26.7352 23.5526 26.5187 23.4814 26.3208 23.3887C26.1229 23.2959 25.9404 23.1877 25.7734 23.064C25.6064 22.9341 25.4549 22.7949 25.3188 22.6465V26.6357ZM25.2446 19.4551C25.2446 19.721 25.291 19.9684 25.3838 20.1973C25.4827 20.4199 25.6219 20.6147 25.8013 20.7817C25.9806 20.9487 26.194 21.0786 26.4414 21.1714C26.695 21.2642 26.9795 21.3105 27.2949 21.3105C27.6598 21.3105 27.9814 21.2456 28.2598 21.1157C28.5443 20.9797 28.7824 20.791 28.9741 20.5498C29.1659 20.3086 29.3112 20.0241 29.4102 19.6963C29.5091 19.3623 29.5586 18.9974 29.5586 18.6016V18.481C29.5586 18.0851 29.5091 17.7202 29.4102 17.3862C29.3112 17.0522 29.1659 16.7646 28.9741 16.5234C28.7824 16.276 28.5443 16.0843 28.2598 15.9482C27.9814 15.8122 27.6598 15.7441 27.2949 15.7441C26.9795 15.7441 26.695 15.7905 26.4414 15.8833C26.194 15.9761 25.9806 16.106 25.8013 16.2729C25.6219 16.4399 25.4827 16.6379 25.3838 16.8667C25.291 17.0955 25.2446 17.3429 25.2446 17.6089V19.4551ZM36.4702 26.6357H33.9097V13.564H36.4702V14.4175C36.7485 14.1268 37.0918 13.8794 37.5 13.6753C37.9082 13.4712 38.403 13.3691 38.9844 13.3691C39.64 13.3691 40.2337 13.5021 40.7656 13.7681C41.3037 14.0278 41.7645 14.3896 42.1479 14.8535C42.5314 15.3112 42.8283 15.8555 43.0386 16.4863C43.2489 17.1172 43.354 17.8006 43.354 18.5366C43.354 19.2726 43.2458 19.9561 43.0293 20.5869C42.8128 21.2178 42.5098 21.762 42.1201 22.2197C41.7305 22.6774 41.2635 23.0361 40.7192 23.2959C40.175 23.5557 39.575 23.6855 38.9194 23.6855C38.6287 23.6855 38.3628 23.6577 38.1216 23.6021C37.8866 23.5526 37.6701 23.4814 37.4722 23.3887C37.2743 23.2959 37.0918 23.1877 36.9248 23.064C36.7578 22.9341 36.6063 22.7949 36.4702 22.6465V26.6357ZM36.396 19.4551C36.396 19.721 36.4424 19.9684 36.5352 20.1973C36.6341 20.4199 36.7733 20.6147 36.9526 20.7817C37.132 20.9487 37.3454 21.0786 37.5928 21.1714C37.8464 21.2642 38.1309 21.3105 38.4463 21.3105C38.8112 21.3105 39.1328 21.2456 39.4111 21.1157C39.6956 20.9797 39.9338 20.791 40.1255 20.5498C40.3172 20.3086 40.4626 20.0241 40.5615 19.6963C40.6605 19.3623 40.71 18.9974 40.71 18.6016V18.481C40.71 18.0851 40.6605 17.7202 40.5615 17.3862C40.4626 17.0522 40.3172 16.7646 40.1255 16.5234C39.9338 16.276 39.6956 16.0843 39.4111 15.9482C39.1328 15.8122 38.8112 15.7441 38.4463 15.7441C38.1309 15.7441 37.8464 15.7905 37.5928 15.8833C37.3454 15.9761 37.132 16.106 36.9526 16.2729C36.7733 16.4399 36.6341 16.6379 36.5352 16.8667C36.4424 17.0955 36.396 17.3429 36.396 17.6089V19.4551ZM47.2041 19.418C47.2474 19.7148 47.3402 19.987 47.4824 20.2344C47.6309 20.4818 47.8164 20.6951 48.0391 20.8745C48.2617 21.0477 48.5184 21.1838 48.8091 21.2827C49.0998 21.3817 49.409 21.4312 49.7368 21.4312C50.1141 21.4312 50.5223 21.36 50.9614 21.2178C51.4006 21.0693 51.8026 20.856 52.1675 20.5776L53.4014 22.3774C52.9375 22.7671 52.3685 23.0825 51.6943 23.3237C51.0202 23.5649 50.3027 23.6855 49.542 23.6855C48.8555 23.6855 48.2091 23.568 47.603 23.333C46.9969 23.098 46.465 22.7578 46.0073 22.3125C45.5558 21.8672 45.1971 21.326 44.9312 20.689C44.6714 20.0519 44.5415 19.3345 44.5415 18.5366C44.5415 17.8068 44.6559 17.1265 44.8848 16.4956C45.1198 15.8647 45.4445 15.3174 45.8589 14.8535C46.2795 14.3896 46.7804 14.0278 47.3618 13.7681C47.9432 13.5021 48.5864 13.3691 49.2915 13.3691C49.9471 13.3691 50.5563 13.4897 51.1191 13.731C51.682 13.966 52.1706 14.3 52.585 14.7329C52.9993 15.1597 53.3241 15.673 53.5591 16.2729C53.7941 16.8729 53.9116 17.5347 53.9116 18.2583V19.418H47.2041ZM49.2822 15.5957C48.7318 15.5957 48.2648 15.7812 47.8813 16.1523C47.5041 16.5173 47.2845 16.9595 47.2227 17.479H51.2305C51.2181 16.9533 51.0264 16.508 50.6553 16.1431C50.2842 15.7782 49.8265 15.5957 49.2822 15.5957ZM55.5073 10.1963H58.0679V20.8003C58.0679 21.0106 58.1266 21.1714 58.2441 21.2827C58.3678 21.394 58.5627 21.4497 58.8286 21.4497C58.9523 21.4497 59.0575 21.4435 59.144 21.4312C59.2368 21.4126 59.3543 21.3879 59.4966 21.3569L59.7007 23.5371C59.5275 23.5618 59.342 23.5866 59.144 23.6113C58.9771 23.6299 58.7822 23.6453 58.5596 23.6577C58.3431 23.6763 58.1174 23.6855 57.8823 23.6855C57.5174 23.6855 57.1896 23.6392 56.8989 23.5464C56.6082 23.4536 56.3577 23.3175 56.1475 23.1382C55.9434 22.9526 55.7856 22.7238 55.6743 22.4517C55.563 22.1795 55.5073 21.8641 55.5073 21.5054V10.1963ZM61.0737 10.1963H63.6343V20.8003C63.6343 21.0106 63.693 21.1714 63.8105 21.2827C63.9342 21.394 64.1291 21.4497 64.395 21.4497C64.5187 21.4497 64.6239 21.4435 64.7104 21.4312C64.8032 21.4126 64.9207 21.3879 65.063 21.3569L65.2671 23.5371C65.0939 23.5618 64.9084 23.5866 64.7104 23.6113C64.5435 23.6299 64.3486 23.6453 64.126 23.6577C63.9095 23.6763 63.6838 23.6855 63.4487 23.6855C63.0838 23.6855 62.756 23.6392 62.4653 23.5464C62.1746 23.4536 61.9242 23.3175 61.7139 23.1382C61.5098 22.9526 61.3521 22.7238 61.2407 22.4517C61.1294 22.1795 61.0737 21.8641 61.0737 21.5054V10.1963ZM69.8872 19.4644C69.5718 19.5138 69.3182 19.6252 69.1265 19.7983C68.9347 19.9653 68.8389 20.1942 68.8389 20.4849C68.8389 20.8065 68.9564 21.0848 69.1914 21.3198C69.4264 21.5487 69.7728 21.6631 70.2305 21.6631C70.7129 21.6631 71.0933 21.5239 71.3716 21.2456C71.6499 20.9673 71.7891 20.5993 71.7891 20.1416V19.1396L69.8872 19.4644ZM72.2065 22.563C72.1014 22.6805 71.9715 22.8073 71.8169 22.9434C71.6685 23.0732 71.4891 23.1938 71.2788 23.3052C71.0747 23.4103 70.8335 23.5 70.5552 23.5742C70.2769 23.6484 69.9645 23.6855 69.6182 23.6855C69.1234 23.6855 68.6657 23.6082 68.2451 23.4536C67.8307 23.2928 67.4658 23.0701 67.1504 22.7856C66.835 22.5011 66.5876 22.1733 66.4082 21.8022C66.2288 21.425 66.1392 21.0168 66.1392 20.5776C66.1392 19.7798 66.3866 19.1273 66.8813 18.6201C67.3761 18.113 68.0596 17.7944 68.9316 17.6646L71.7891 17.2471V17.0615C71.7891 16.6162 71.653 16.2637 71.3809 16.0039C71.1087 15.7441 70.6665 15.6143 70.0542 15.6143C69.8006 15.6143 69.5439 15.6452 69.2842 15.707C69.0244 15.7627 68.7739 15.8276 68.5327 15.9019C68.2977 15.9761 68.0781 16.0627 67.874 16.1616C67.6699 16.2544 67.4906 16.3379 67.3359 16.4121L66.334 14.4546C66.903 14.1392 67.5339 13.8794 68.2266 13.6753C68.9255 13.4712 69.6491 13.3691 70.3975 13.3691C70.8551 13.3691 71.3159 13.4186 71.7798 13.5176C72.2498 13.6104 72.6735 13.7835 73.0508 14.0371C73.4342 14.2907 73.7466 14.637 73.9878 15.0762C74.229 15.5091 74.3496 16.0627 74.3496 16.7368V20.8188C74.3496 21.1095 74.4238 21.326 74.5723 21.4683C74.7269 21.6043 74.9372 21.7311 75.2031 21.8486L74.0435 23.6855C73.5734 23.6361 73.1961 23.5155 72.9116 23.3237C72.6271 23.1258 72.3921 22.8722 72.2065 22.563ZM76.4927 13.564H79.0532V14.4175C79.1893 14.2814 79.3408 14.1515 79.5078 14.0278C79.681 13.8979 79.8696 13.7866 80.0737 13.6938C80.2778 13.5949 80.5036 13.5176 80.751 13.4619C81.0046 13.4001 81.2829 13.3691 81.5859 13.3691C82.124 13.3691 82.6064 13.4588 83.0332 13.6382C83.46 13.8114 83.8187 14.0526 84.1094 14.3618C84.4062 14.6711 84.632 15.0329 84.7866 15.4473C84.9412 15.8617 85.0186 16.3101 85.0186 16.7925V23.5H82.458V17.7202C82.458 17.3677 82.4178 17.0708 82.3374 16.8296C82.257 16.5822 82.1457 16.3843 82.0034 16.2358C81.8674 16.0812 81.7035 15.9699 81.5117 15.9019C81.3262 15.8276 81.1221 15.7905 80.8994 15.7905C80.6396 15.7905 80.3953 15.8369 80.1665 15.9297C79.9438 16.0225 79.749 16.1647 79.582 16.3564C79.415 16.542 79.2852 16.777 79.1924 17.0615C79.0996 17.346 79.0532 17.68 79.0532 18.0635V23.5H76.4927V13.564ZM90.8262 20.5405C90.8262 20.658 90.8416 20.7694 90.8726 20.8745C90.9035 20.9797 90.9561 21.0724 91.0303 21.1528C91.1107 21.2271 91.222 21.2858 91.3643 21.3291C91.5065 21.3724 91.689 21.394 91.9116 21.394C92.0044 21.394 92.1095 21.391 92.2271 21.3848C92.3446 21.3724 92.4621 21.36 92.5796 21.3477C92.6971 21.3353 92.8053 21.3198 92.9043 21.3013C93.0094 21.2827 93.096 21.2673 93.1641 21.2549L93.396 23.5186C93.1548 23.5495 92.9043 23.5773 92.6445 23.6021C92.4219 23.6268 92.1745 23.6453 91.9023 23.6577C91.6302 23.6763 91.355 23.6855 91.0767 23.6855C90.1922 23.6855 89.5026 23.4845 89.0078 23.0825C88.513 22.6805 88.2656 22.0404 88.2656 21.1621V15.7905H86.4751V13.564H88.2656V10.7529L90.8262 10.0664V13.564H93.4331V15.7905H90.8262V20.5405ZM101.041 23.5H98.48V13.564H101.041V23.5ZM98.2109 10.957C98.2109 10.7467 98.2511 10.5488 98.3315 10.3633C98.4119 10.1715 98.5202 10.0076 98.6562 9.87158C98.7985 9.72933 98.9624 9.618 99.1479 9.5376C99.3335 9.45719 99.5345 9.41699 99.751 9.41699C99.9613 9.41699 100.159 9.45719 100.345 9.5376C100.536 9.618 100.7 9.72933 100.836 9.87158C100.979 10.0076 101.09 10.1715 101.17 10.3633C101.251 10.5488 101.291 10.7467 101.291 10.957C101.291 11.1735 101.251 11.3745 101.17 11.5601C101.09 11.7456 100.979 11.9095 100.836 12.0518C100.7 12.1878 100.536 12.2961 100.345 12.3765C100.159 12.4569 99.9613 12.4971 99.751 12.4971C99.5345 12.4971 99.3335 12.4569 99.1479 12.3765C98.9624 12.2961 98.7985 12.1878 98.6562 12.0518C98.5202 11.9095 98.4119 11.7456 98.3315 11.5601C98.2511 11.3745 98.2109 11.1735 98.2109 10.957ZM103.249 13.564H105.809V14.4175C105.945 14.2814 106.097 14.1515 106.264 14.0278C106.437 13.8979 106.625 13.7866 106.83 13.6938C107.034 13.5949 107.259 13.5176 107.507 13.4619C107.76 13.4001 108.039 13.3691 108.342 13.3691C108.88 13.3691 109.362 13.4588 109.789 13.6382C110.216 13.8114 110.575 14.0526 110.865 14.3618C111.162 14.6711 111.388 15.0329 111.542 15.4473C111.697 15.8617 111.774 16.3101 111.774 16.7925V23.5H109.214V17.7202C109.214 17.3677 109.174 17.0708 109.093 16.8296C109.013 16.5822 108.902 16.3843 108.759 16.2358C108.623 16.0812 108.459 15.9699 108.268 15.9019C108.082 15.8276 107.878 15.7905 107.655 15.7905C107.396 15.7905 107.151 15.8369 106.922 15.9297C106.7 16.0225 106.505 16.1647 106.338 16.3564C106.171 16.542 106.041 16.777 105.948 17.0615C105.855 17.346 105.809 17.68 105.809 18.0635V23.5H103.249V13.564ZM119.911 26.6357H117.35V13.564H119.911V14.4175C120.189 14.1268 120.532 13.8794 120.94 13.6753C121.349 13.4712 121.843 13.3691 122.425 13.3691C123.08 13.3691 123.674 13.5021 124.206 13.7681C124.744 14.0278 125.205 14.3896 125.588 14.8535C125.972 15.3112 126.269 15.8555 126.479 16.4863C126.689 17.1172 126.794 17.8006 126.794 18.5366C126.794 19.2726 126.686 19.9561 126.47 20.5869C126.253 21.2178 125.95 21.762 125.561 22.2197C125.171 22.6774 124.704 23.0361 124.16 23.2959C123.615 23.5557 123.015 23.6855 122.36 23.6855C122.069 23.6855 121.803 23.6577 121.562 23.6021C121.327 23.5526 121.111 23.4814 120.913 23.3887C120.715 23.2959 120.532 23.1877 120.365 23.064C120.198 22.9341 120.047 22.7949 119.911 22.6465V26.6357ZM119.836 19.4551C119.836 19.721 119.883 19.9684 119.976 20.1973C120.075 20.4199 120.214 20.6147 120.393 20.7817C120.572 20.9487 120.786 21.0786 121.033 21.1714C121.287 21.2642 121.571 21.3105 121.887 21.3105C122.252 21.3105 122.573 21.2456 122.852 21.1157C123.136 20.9797 123.374 20.791 123.566 20.5498C123.758 20.3086 123.903 20.0241 124.002 19.6963C124.101 19.3623 124.15 18.9974 124.15 18.6016V18.481C124.15 18.0851 124.101 17.7202 124.002 17.3862C123.903 17.0522 123.758 16.7646 123.566 16.5234C123.374 16.276 123.136 16.0843 122.852 15.9482C122.573 15.8122 122.252 15.7441 121.887 15.7441C121.571 15.7441 121.287 15.7905 121.033 15.8833C120.786 15.9761 120.572 16.106 120.393 16.2729C120.214 16.4399 120.075 16.6379 119.976 16.8667C119.883 17.0955 119.836 17.3429 119.836 17.6089V19.4551ZM130.645 19.418C130.688 19.7148 130.781 19.987 130.923 20.2344C131.071 20.4818 131.257 20.6951 131.479 20.8745C131.702 21.0477 131.959 21.1838 132.25 21.2827C132.54 21.3817 132.849 21.4312 133.177 21.4312C133.555 21.4312 133.963 21.36 134.402 21.2178C134.841 21.0693 135.243 20.856 135.608 20.5776L136.842 22.3774C136.378 22.7671 135.809 23.0825 135.135 23.3237C134.461 23.5649 133.743 23.6855 132.982 23.6855C132.296 23.6855 131.65 23.568 131.043 23.333C130.437 23.098 129.905 22.7578 129.448 22.3125C128.996 21.8672 128.638 21.326 128.372 20.689C128.112 20.0519 127.982 19.3345 127.982 18.5366C127.982 17.8068 128.096 17.1265 128.325 16.4956C128.56 15.8647 128.885 15.3174 129.299 14.8535C129.72 14.3896 130.221 14.0278 130.802 13.7681C131.384 13.5021 132.027 13.3691 132.732 13.3691C133.388 13.3691 133.997 13.4897 134.56 13.731C135.122 13.966 135.611 14.3 136.025 14.7329C136.44 15.1597 136.764 15.673 137 16.2729C137.235 16.8729 137.352 17.5347 137.352 18.2583V19.418H130.645ZM132.723 15.5957C132.172 15.5957 131.705 15.7812 131.322 16.1523C130.944 16.5173 130.725 16.9595 130.663 17.479H134.671C134.659 16.9533 134.467 16.508 134.096 16.1431C133.725 15.7782 133.267 15.5957 132.723 15.5957ZM144.57 16.0503H144.301C143.936 16.0503 143.586 16.0874 143.252 16.1616C142.925 16.2358 142.634 16.3719 142.38 16.5698C142.127 16.7616 141.923 17.0275 141.768 17.3677C141.62 17.7078 141.545 18.1439 141.545 18.6758V23.5H138.985V13.564H141.545V14.6865C141.651 14.5195 141.787 14.3587 141.954 14.2041C142.121 14.0495 142.315 13.9134 142.538 13.7959C142.761 13.6722 143.011 13.5732 143.29 13.499C143.568 13.4248 143.868 13.3877 144.189 13.3877H144.57V16.0503ZM146.871 20.3271C147.236 20.6549 147.672 20.9364 148.179 21.1714C148.686 21.4064 149.199 21.5239 149.719 21.5239C150.096 21.5239 150.393 21.4528 150.609 21.3105C150.826 21.1621 150.934 20.9735 150.934 20.7446C150.934 20.355 150.517 20.0519 149.682 19.8354L148.958 19.6406C148.599 19.554 148.237 19.4365 147.873 19.2881C147.508 19.1335 147.171 18.9325 146.861 18.6851C146.558 18.4377 146.311 18.1377 146.119 17.7852C145.934 17.4264 145.841 16.9873 145.841 16.4678C145.841 16.0534 145.931 15.6606 146.11 15.2896C146.295 14.9123 146.555 14.5814 146.889 14.2969C147.229 14.0124 147.641 13.7866 148.123 13.6196C148.605 13.4526 149.144 13.3691 149.737 13.3691C150.585 13.3691 151.339 13.5021 152.001 13.7681C152.669 14.034 153.195 14.334 153.578 14.668L152.242 16.375C151.927 16.1462 151.553 15.9513 151.12 15.7905C150.693 15.6235 150.263 15.54 149.83 15.54C149.428 15.54 149.116 15.6143 148.893 15.7627C148.67 15.9049 148.559 16.0781 148.559 16.2822C148.559 16.4987 148.655 16.675 148.847 16.811C149.045 16.9409 149.329 17.0553 149.7 17.1543L150.776 17.4604C151.803 17.7511 152.539 18.1439 152.984 18.6387C153.43 19.1335 153.652 19.7581 153.652 20.5127C153.652 20.9333 153.566 21.3353 153.393 21.7188C153.219 22.096 152.966 22.4331 152.632 22.73C152.298 23.0269 151.883 23.2619 151.389 23.4351C150.894 23.6021 150.331 23.6855 149.7 23.6855C149.218 23.6855 148.763 23.6423 148.336 23.5557C147.916 23.4691 147.523 23.3516 147.158 23.2031C146.799 23.0485 146.475 22.8753 146.184 22.6836C145.893 22.4919 145.646 22.3001 145.442 22.1084L146.871 20.3271ZM159.683 13.3691C160.419 13.3691 161.087 13.5021 161.687 13.7681C162.286 14.0278 162.8 14.3896 163.227 14.8535C163.653 15.3174 163.981 15.8647 164.21 16.4956C164.445 17.1265 164.562 17.8068 164.562 18.5366C164.562 19.2726 164.445 19.9561 164.21 20.5869C163.975 21.2116 163.644 21.7528 163.217 22.2104C162.791 22.6681 162.277 23.0299 161.677 23.2959C161.077 23.5557 160.412 23.6855 159.683 23.6855C158.947 23.6855 158.279 23.5557 157.679 23.2959C157.079 23.0299 156.565 22.6681 156.139 22.2104C155.712 21.7528 155.381 21.2116 155.146 20.5869C154.911 19.9561 154.793 19.2726 154.793 18.5366C154.793 17.8068 154.908 17.1265 155.137 16.4956C155.372 15.8647 155.703 15.3174 156.129 14.8535C156.556 14.3896 157.069 14.0278 157.669 13.7681C158.276 13.5021 158.947 13.3691 159.683 13.3691ZM159.683 21.3105C160.048 21.3105 160.369 21.2425 160.647 21.1064C160.932 20.9704 161.17 20.7817 161.362 20.5405C161.554 20.2993 161.699 20.0117 161.798 19.6777C161.897 19.3376 161.946 18.9665 161.946 18.5645V18.4995C161.946 18.0975 161.897 17.7295 161.798 17.3955C161.699 17.0553 161.554 16.7646 161.362 16.5234C161.17 16.276 160.932 16.0843 160.647 15.9482C160.369 15.8122 160.048 15.7441 159.683 15.7441C159.318 15.7441 158.993 15.8122 158.708 15.9482C158.43 16.0843 158.195 16.276 158.003 16.5234C157.812 16.7646 157.666 17.0553 157.567 17.3955C157.468 17.7295 157.419 18.0975 157.419 18.4995V18.5645C157.419 18.9665 157.468 19.3376 157.567 19.6777C157.666 20.0117 157.812 20.2993 158.003 20.5405C158.195 20.7817 158.43 20.9704 158.708 21.1064C158.993 21.2425 159.318 21.3105 159.683 21.3105ZM166.26 13.564H168.821V14.4175C168.957 14.2814 169.108 14.1515 169.275 14.0278C169.449 13.8979 169.637 13.7866 169.841 13.6938C170.045 13.5949 170.271 13.5176 170.519 13.4619C170.772 13.4001 171.05 13.3691 171.354 13.3691C171.892 13.3691 172.374 13.4588 172.801 13.6382C173.228 13.8114 173.586 14.0526 173.877 14.3618C174.174 14.6711 174.4 15.0329 174.554 15.4473C174.709 15.8617 174.786 16.3101 174.786 16.7925V23.5H172.226V17.7202C172.226 17.3677 172.185 17.0708 172.105 16.8296C172.025 16.5822 171.913 16.3843 171.771 16.2358C171.635 16.0812 171.471 15.9699 171.279 15.9019C171.094 15.8276 170.89 15.7905 170.667 15.7905C170.407 15.7905 170.163 15.8369 169.934 15.9297C169.711 16.0225 169.517 16.1647 169.35 16.3564C169.183 16.542 169.053 16.777 168.96 17.0615C168.867 17.346 168.821 17.68 168.821 18.0635V23.5H166.26V13.564Z" fill="white"/>
<rect width="130" height="33" transform="translate(193)" fill="#EB3223"/>
<path d="M204.721 19.7612C204.894 19.9591 205.105 20.154 205.352 20.3457C205.599 20.5374 205.872 20.7106 206.168 20.8652C206.472 21.0137 206.799 21.1343 207.152 21.2271C207.504 21.3136 207.885 21.3569 208.293 21.3569C209.054 21.3569 209.635 21.1992 210.037 20.8838C210.445 20.5622 210.649 20.1725 210.649 19.7148C210.649 19.2386 210.47 18.8768 210.111 18.6294C209.759 18.382 209.196 18.1872 208.423 18.0449L208.005 17.9707C207.449 17.8717 206.895 17.7419 206.345 17.5811C205.794 17.4202 205.296 17.1883 204.851 16.8853C204.406 16.5822 204.044 16.1956 203.766 15.7256C203.487 15.2493 203.348 14.6494 203.348 13.9258C203.348 13.5052 203.441 13.0661 203.626 12.6084C203.812 12.1445 204.106 11.7209 204.508 11.3374C204.916 10.9478 205.439 10.6292 206.076 10.3818C206.719 10.1344 207.495 10.0107 208.404 10.0107C209.48 10.0107 210.439 10.1901 211.28 10.5488C212.128 10.9014 212.811 11.3683 213.331 11.9497L211.54 13.6196C211.175 13.2176 210.705 12.9022 210.13 12.6733C209.561 12.4445 208.973 12.3301 208.367 12.3301C207.668 12.3301 207.121 12.4631 206.725 12.729C206.335 12.995 206.141 13.3413 206.141 13.7681C206.141 14.0464 206.202 14.2783 206.326 14.4639C206.456 14.6494 206.635 14.804 206.864 14.9277C207.093 15.0452 207.368 15.1442 207.69 15.2246C208.012 15.305 208.37 15.3854 208.766 15.4658L208.979 15.5029C209.511 15.6019 210.04 15.7287 210.566 15.8833C211.092 16.0317 211.568 16.2544 211.995 16.5513C212.428 16.842 212.777 17.2254 213.043 17.7017C213.309 18.1717 213.442 18.7747 213.442 19.5107C213.442 20.1787 213.303 20.7694 213.024 21.2827C212.746 21.7961 212.378 22.2352 211.92 22.6001C211.463 22.9588 210.934 23.231 210.334 23.4165C209.734 23.5959 209.109 23.6855 208.46 23.6855C207.804 23.6855 207.195 23.6299 206.632 23.5186C206.076 23.4072 205.569 23.2495 205.111 23.0454C204.659 22.8413 204.254 22.6125 203.896 22.3589C203.543 22.1053 203.234 21.8332 202.968 21.5425L204.721 19.7612ZM225.502 16.7183C225.502 17.3182 225.456 17.9058 225.363 18.481C225.271 19.0562 225.125 19.6035 224.927 20.123C224.736 20.6364 224.488 21.1126 224.185 21.5518C223.882 21.9847 223.517 22.3589 223.09 22.6743C222.664 22.9897 222.172 23.2371 221.615 23.4165C221.065 23.5959 220.443 23.6855 219.75 23.6855C219.181 23.6855 218.656 23.6175 218.173 23.4814C217.691 23.3392 217.255 23.1475 216.865 22.9062C216.476 22.665 216.139 22.3805 215.854 22.0527C215.569 21.7188 215.347 21.36 215.186 20.9766L217.672 20.0024C217.895 20.423 218.192 20.7415 218.563 20.958C218.94 21.1683 219.367 21.2734 219.843 21.2734C220.307 21.2734 220.715 21.1838 221.068 21.0044C221.42 20.8188 221.711 20.5684 221.94 20.2529C222.175 19.9375 222.351 19.5726 222.469 19.1582C222.586 18.7376 222.642 18.2923 222.636 17.8223C222.481 17.9769 222.299 18.1253 222.088 18.2676C221.878 18.4098 221.643 18.5366 221.383 18.6479C221.13 18.7531 220.851 18.8397 220.548 18.9077C220.251 18.9696 219.939 19.0005 219.611 19.0005C218.962 19.0005 218.356 18.8953 217.793 18.6851C217.236 18.4686 216.751 18.1717 216.336 17.7944C215.928 17.411 215.607 16.9564 215.372 16.4307C215.137 15.9049 215.019 15.3298 215.019 14.7051C215.019 14.0371 215.137 13.4155 215.372 12.8403C215.613 12.2651 215.95 11.7703 216.383 11.356C216.822 10.9354 217.348 10.6076 217.96 10.3726C218.572 10.1313 219.256 10.0107 220.01 10.0107C220.839 10.0107 221.59 10.1592 222.265 10.4561C222.939 10.7467 223.514 11.1673 223.99 11.7178C224.473 12.2682 224.844 12.9393 225.104 13.731C225.369 14.5226 225.502 15.4163 225.502 16.4121V16.7183ZM222.506 14.5474C222.506 14.2319 222.45 13.9382 222.339 13.666C222.228 13.3939 222.067 13.1589 221.856 12.9609C221.652 12.7568 221.405 12.5991 221.114 12.4878C220.824 12.3703 220.502 12.3115 220.149 12.3115C219.785 12.3115 219.457 12.3703 219.166 12.4878C218.875 12.5991 218.628 12.7568 218.424 12.9609C218.22 13.1589 218.062 13.3939 217.951 13.666C217.846 13.9382 217.793 14.2319 217.793 14.5474C217.793 14.8566 217.846 15.1473 217.951 15.4194C218.062 15.6916 218.22 15.9297 218.424 16.1338C218.628 16.3317 218.875 16.4894 219.166 16.6069C219.457 16.7183 219.785 16.7739 220.149 16.7739C220.502 16.7739 220.824 16.7183 221.114 16.6069C221.405 16.4894 221.652 16.3317 221.856 16.1338C222.067 15.9297 222.228 15.6916 222.339 15.4194C222.45 15.1473 222.506 14.8566 222.506 14.5474ZM233.333 23.5V20.4941H226.699V17.6274L232.59 10.1963H236.032V18.0635H237.971V20.4941H236.032V23.5H233.333ZM233.333 18.0635V12.8403L229.195 18.0635H233.333ZM245.801 10.1963C246.358 10.1963 246.874 10.2798 247.351 10.4468C247.827 10.6076 248.241 10.8395 248.594 11.1426C248.946 11.4456 249.222 11.8136 249.419 12.2466C249.617 12.6733 249.716 13.1496 249.716 13.6753C249.716 13.9474 249.676 14.2165 249.596 14.4824C249.521 14.7484 249.41 14.9989 249.262 15.2339C249.113 15.4627 248.934 15.673 248.724 15.8647C248.513 16.0565 248.275 16.2142 248.009 16.3379C248.226 16.4121 248.476 16.5234 248.761 16.6719C249.051 16.8203 249.327 17.0244 249.586 17.2842C249.846 17.5439 250.066 17.8656 250.245 18.249C250.424 18.6263 250.514 19.084 250.514 19.6221C250.514 20.2962 250.384 20.8776 250.125 21.3662C249.871 21.8548 249.525 22.2568 249.085 22.5723C248.653 22.8877 248.142 23.1227 247.555 23.2773C246.973 23.4258 246.358 23.5 245.708 23.5H239.882V10.1963H245.801ZM247.759 19.5293C247.759 19.1706 247.694 18.8768 247.564 18.6479C247.434 18.4191 247.261 18.2367 247.044 18.1006C246.834 17.9645 246.593 17.8717 246.321 17.8223C246.049 17.7666 245.77 17.7388 245.486 17.7388H242.573V21.3755H245.486C245.77 21.3755 246.049 21.3477 246.321 21.292C246.593 21.2363 246.834 21.1374 247.044 20.9951C247.261 20.8529 247.434 20.6642 247.564 20.4292C247.694 20.1942 247.759 19.8942 247.759 19.5293ZM247.007 13.9443C247.007 13.4372 246.847 13.0413 246.525 12.7568C246.203 12.4723 245.684 12.3301 244.966 12.3301H242.573V15.4658H244.966C245.671 15.4658 246.188 15.3328 246.516 15.0669C246.843 14.7948 247.007 14.4206 247.007 13.9443ZM258.892 19.4644C258.576 19.5138 258.323 19.6252 258.131 19.7983C257.939 19.9653 257.843 20.1942 257.843 20.4849C257.843 20.8065 257.961 21.0848 258.196 21.3198C258.431 21.5487 258.777 21.6631 259.235 21.6631C259.717 21.6631 260.098 21.5239 260.376 21.2456C260.654 20.9673 260.793 20.5993 260.793 20.1416V19.1396L258.892 19.4644ZM261.211 22.563C261.106 22.6805 260.976 22.8073 260.821 22.9434C260.673 23.0732 260.493 23.1938 260.283 23.3052C260.079 23.4103 259.838 23.5 259.56 23.5742C259.281 23.6484 258.969 23.6855 258.623 23.6855C258.128 23.6855 257.67 23.6082 257.25 23.4536C256.835 23.2928 256.47 23.0701 256.155 22.7856C255.839 22.5011 255.592 22.1733 255.413 21.8022C255.233 21.425 255.144 21.0168 255.144 20.5776C255.144 19.7798 255.391 19.1273 255.886 18.6201C256.381 18.113 257.064 17.7944 257.936 17.6646L260.793 17.2471V17.0615C260.793 16.6162 260.657 16.2637 260.385 16.0039C260.113 15.7441 259.671 15.6143 259.059 15.6143C258.805 15.6143 258.548 15.6452 258.289 15.707C258.029 15.7627 257.778 15.8276 257.537 15.9019C257.302 15.9761 257.083 16.0627 256.878 16.1616C256.674 16.2544 256.495 16.3379 256.34 16.4121L255.338 14.4546C255.907 14.1392 256.538 13.8794 257.231 13.6753C257.93 13.4712 258.653 13.3691 259.402 13.3691C259.86 13.3691 260.32 13.4186 260.784 13.5176C261.254 13.6104 261.678 13.7835 262.055 14.0371C262.439 14.2907 262.751 14.637 262.992 15.0762C263.233 15.5091 263.354 16.0627 263.354 16.7368V20.8188C263.354 21.1095 263.428 21.326 263.577 21.4683C263.731 21.6043 263.942 21.7311 264.208 21.8486L263.048 23.6855C262.578 23.6361 262.201 23.5155 261.916 23.3237C261.632 23.1258 261.396 22.8722 261.211 22.563ZM268.058 26.6357H265.497V13.564H268.058V14.4175C268.336 14.1268 268.679 13.8794 269.087 13.6753C269.496 13.4712 269.99 13.3691 270.572 13.3691C271.227 13.3691 271.821 13.5021 272.353 13.7681C272.891 14.0278 273.352 14.3896 273.735 14.8535C274.119 15.3112 274.416 15.8555 274.626 16.4863C274.836 17.1172 274.941 17.8006 274.941 18.5366C274.941 19.2726 274.833 19.9561 274.617 20.5869C274.4 21.2178 274.097 21.762 273.708 22.2197C273.318 22.6774 272.851 23.0361 272.307 23.2959C271.762 23.5557 271.162 23.6855 270.507 23.6855C270.216 23.6855 269.95 23.6577 269.709 23.6021C269.474 23.5526 269.257 23.4814 269.06 23.3887C268.862 23.2959 268.679 23.1877 268.512 23.064C268.345 22.9341 268.194 22.7949 268.058 22.6465V26.6357ZM267.983 19.4551C267.983 19.721 268.03 19.9684 268.123 20.1973C268.222 20.4199 268.361 20.6147 268.54 20.7817C268.719 20.9487 268.933 21.0786 269.18 21.1714C269.434 21.2642 269.718 21.3105 270.034 21.3105C270.399 21.3105 270.72 21.2456 270.999 21.1157C271.283 20.9797 271.521 20.791 271.713 20.5498C271.905 20.3086 272.05 20.0241 272.149 19.6963C272.248 19.3623 272.297 18.9974 272.297 18.6016V18.481C272.297 18.0851 272.248 17.7202 272.149 17.3862C272.05 17.0522 271.905 16.7646 271.713 16.5234C271.521 16.276 271.283 16.0843 270.999 15.9482C270.72 15.8122 270.399 15.7441 270.034 15.7441C269.718 15.7441 269.434 15.7905 269.18 15.8833C268.933 15.9761 268.719 16.106 268.54 16.2729C268.361 16.4399 268.222 16.6379 268.123 16.8667C268.03 17.0955 267.983 17.3429 267.983 17.6089V19.4551ZM279.209 26.6357H276.648V13.564H279.209V14.4175C279.487 14.1268 279.831 13.8794 280.239 13.6753C280.647 13.4712 281.142 13.3691 281.723 13.3691C282.379 13.3691 282.972 13.5021 283.504 13.7681C284.042 14.0278 284.503 14.3896 284.887 14.8535C285.27 15.3112 285.567 15.8555 285.777 16.4863C285.988 17.1172 286.093 17.8006 286.093 18.5366C286.093 19.2726 285.985 19.9561 285.768 20.5869C285.552 21.2178 285.249 21.762 284.859 22.2197C284.469 22.6774 284.002 23.0361 283.458 23.2959C282.914 23.5557 282.314 23.6855 281.658 23.6855C281.368 23.6855 281.102 23.6577 280.86 23.6021C280.625 23.5526 280.409 23.4814 280.211 23.3887C280.013 23.2959 279.831 23.1877 279.664 23.064C279.497 22.9341 279.345 22.7949 279.209 22.6465V26.6357ZM279.135 19.4551C279.135 19.721 279.181 19.9684 279.274 20.1973C279.373 20.4199 279.512 20.6147 279.691 20.7817C279.871 20.9487 280.084 21.0786 280.332 21.1714C280.585 21.2642 280.87 21.3105 281.185 21.3105C281.55 21.3105 281.872 21.2456 282.15 21.1157C282.434 20.9797 282.673 20.791 282.864 20.5498C283.056 20.3086 283.201 20.0241 283.3 19.6963C283.399 19.3623 283.449 18.9974 283.449 18.6016V18.481C283.449 18.0851 283.399 17.7202 283.3 17.3862C283.201 17.0522 283.056 16.7646 282.864 16.5234C282.673 16.276 282.434 16.0843 282.15 15.9482C281.872 15.8122 281.55 15.7441 281.185 15.7441C280.87 15.7441 280.585 15.7905 280.332 15.8833C280.084 15.9761 279.871 16.106 279.691 16.2729C279.512 16.4399 279.373 16.6379 279.274 16.8667C279.181 17.0955 279.135 17.3429 279.135 17.6089V19.4551ZM289.943 19.418C289.986 19.7148 290.079 19.987 290.221 20.2344C290.37 20.4818 290.555 20.6951 290.778 20.8745C291 21.0477 291.257 21.1838 291.548 21.2827C291.839 21.3817 292.148 21.4312 292.476 21.4312C292.853 21.4312 293.261 21.36 293.7 21.2178C294.139 21.0693 294.541 20.856 294.906 20.5776L296.14 22.3774C295.676 22.7671 295.107 23.0825 294.433 23.3237C293.759 23.5649 293.042 23.6855 292.281 23.6855C291.594 23.6855 290.948 23.568 290.342 23.333C289.736 23.098 289.204 22.7578 288.746 22.3125C288.295 21.8672 287.936 21.326 287.67 20.689C287.41 20.0519 287.28 19.3345 287.28 18.5366C287.28 17.8068 287.395 17.1265 287.624 16.4956C287.859 15.8647 288.183 15.3174 288.598 14.8535C289.018 14.3896 289.519 14.0278 290.101 13.7681C290.682 13.5021 291.325 13.3691 292.03 13.3691C292.686 13.3691 293.295 13.4897 293.858 13.731C294.421 13.966 294.909 14.3 295.324 14.7329C295.738 15.1597 296.063 15.673 296.298 16.2729C296.533 16.8729 296.65 17.5347 296.65 18.2583V19.418H289.943ZM292.021 15.5957C291.471 15.5957 291.004 15.7812 290.62 16.1523C290.243 16.5173 290.023 16.9595 289.961 17.479H293.969C293.957 16.9533 293.765 16.508 293.394 16.1431C293.023 15.7782 292.565 15.5957 292.021 15.5957ZM301.493 19.4644C301.178 19.5138 300.924 19.6252 300.732 19.7983C300.541 19.9653 300.445 20.1942 300.445 20.4849C300.445 20.8065 300.562 21.0848 300.797 21.3198C301.032 21.5487 301.379 21.6631 301.836 21.6631C302.319 21.6631 302.699 21.5239 302.978 21.2456C303.256 20.9673 303.395 20.5993 303.395 20.1416V19.1396L301.493 19.4644ZM303.812 22.563C303.707 22.6805 303.577 22.8073 303.423 22.9434C303.274 23.0732 303.095 23.1938 302.885 23.3052C302.681 23.4103 302.439 23.5 302.161 23.5742C301.883 23.6484 301.57 23.6855 301.224 23.6855C300.729 23.6855 300.272 23.6082 299.851 23.4536C299.437 23.2928 299.072 23.0701 298.756 22.7856C298.441 22.5011 298.194 22.1733 298.014 21.8022C297.835 21.425 297.745 21.0168 297.745 20.5776C297.745 19.7798 297.993 19.1273 298.487 18.6201C298.982 18.113 299.666 17.7944 300.538 17.6646L303.395 17.2471V17.0615C303.395 16.6162 303.259 16.2637 302.987 16.0039C302.715 15.7441 302.272 15.6143 301.66 15.6143C301.407 15.6143 301.15 15.6452 300.89 15.707C300.63 15.7627 300.38 15.8276 300.139 15.9019C299.904 15.9761 299.684 16.0627 299.48 16.1616C299.276 16.2544 299.097 16.3379 298.942 16.4121L297.94 14.4546C298.509 14.1392 299.14 13.8794 299.833 13.6753C300.531 13.4712 301.255 13.3691 302.003 13.3691C302.461 13.3691 302.922 13.4186 303.386 13.5176C303.856 13.6104 304.279 13.7835 304.657 14.0371C305.04 14.2907 305.353 14.637 305.594 15.0762C305.835 15.5091 305.956 16.0627 305.956 16.7368V20.8188C305.956 21.1095 306.03 21.326 306.178 21.4683C306.333 21.6043 306.543 21.7311 306.809 21.8486L305.649 23.6855C305.179 23.6361 304.802 23.5155 304.518 23.3237C304.233 23.1258 303.998 22.8722 303.812 22.563ZM308.062 10.1963H310.622V20.8003C310.622 21.0106 310.681 21.1714 310.798 21.2827C310.922 21.394 311.117 21.4497 311.383 21.4497C311.507 21.4497 311.612 21.4435 311.698 21.4312C311.791 21.4126 311.909 21.3879 312.051 21.3569L312.255 23.5371C312.082 23.5618 311.896 23.5866 311.698 23.6113C311.531 23.6299 311.336 23.6453 311.114 23.6577C310.897 23.6763 310.672 23.6855 310.437 23.6855C310.072 23.6855 309.744 23.6392 309.453 23.5464C309.162 23.4536 308.912 23.3175 308.702 23.1382C308.498 22.9526 308.34 22.7238 308.229 22.4517C308.117 22.1795 308.062 21.8641 308.062 21.5054V10.1963Z" fill="white"/>
</svg>
