<svg width="350" height="27" viewBox="0 0 350 27" fill="none" xmlns="http://www.w3.org/2000/svg">
<rect width="185" height="27" fill="#0B0C0C"/>
<path d="M8.3916 5.69629H11.082V16.5137H16.3516V19H8.3916V5.69629ZM19.877 14.918C19.9202 15.2148 20.013 15.487 20.1553 15.7344C20.3037 15.9818 20.4893 16.1951 20.7119 16.3745C20.9346 16.5477 21.1912 16.6838 21.4819 16.7827C21.7726 16.8817 22.0819 16.9312 22.4097 16.9312C22.7869 16.9312 23.1951 16.86 23.6343 16.7178C24.0734 16.5693 24.4754 16.356 24.8403 16.0776L26.0742 17.8774C25.6104 18.2671 25.0413 18.5825 24.3672 18.8237C23.693 19.0649 22.9756 19.1855 22.2148 19.1855C21.5283 19.1855 20.882 19.068 20.2759 18.833C19.6698 18.598 19.1379 18.2578 18.6802 17.8125C18.2287 17.3672 17.87 16.826 17.604 16.189C17.3442 15.5519 17.2144 14.8345 17.2144 14.0366C17.2144 13.3068 17.3288 12.6265 17.5576 11.9956C17.7926 11.3647 18.1174 10.8174 18.5317 10.3535C18.9523 9.88965 19.4533 9.52783 20.0347 9.26807C20.616 9.00212 21.2593 8.86914 21.9644 8.86914C22.62 8.86914 23.2292 8.98975 23.792 9.23096C24.3548 9.46598 24.8434 9.79997 25.2578 10.2329C25.6722 10.6597 25.9969 11.173 26.2319 11.7729C26.467 12.3729 26.5845 13.0347 26.5845 13.7583V14.918H19.877ZM21.9551 11.0957C21.4046 11.0957 20.9377 11.2812 20.5542 11.6523C20.1769 12.0173 19.9574 12.4595 19.8955 12.979H23.9033C23.891 12.4533 23.6992 12.008 23.3281 11.6431C22.957 11.2782 22.4993 11.0957 21.9551 11.0957ZM34.2568 17.2373C34.028 17.5156 33.7064 17.7383 33.292 17.9053C32.8838 18.0661 32.4385 18.1465 31.9561 18.1465C31.2881 18.1465 30.6943 18.029 30.1748 17.7939C29.6553 17.5589 29.2161 17.2373 28.8574 16.8291C28.5049 16.4147 28.2327 15.9261 28.041 15.3633C27.8555 14.8005 27.7627 14.182 27.7627 13.5078C27.7627 12.8522 27.8555 12.2399 28.041 11.6709C28.2327 11.0957 28.5049 10.604 28.8574 10.1958C29.2161 9.78141 29.6553 9.45671 30.1748 9.22168C30.6943 8.98665 31.2881 8.86914 31.9561 8.86914C32.4385 8.86914 32.8838 8.95264 33.292 9.11963C33.7064 9.28662 34.028 9.50928 34.2568 9.7876V9.06396H36.8267V18.9072C36.8267 19.5133 36.7122 20.0329 36.4834 20.4658C36.2546 20.9049 35.9391 21.2637 35.5371 21.542C35.1413 21.8203 34.6805 22.0213 34.1548 22.145C33.6291 22.2749 33.0693 22.3398 32.4756 22.3398C31.752 22.3398 30.9974 22.2533 30.2119 22.0801C29.4264 21.9131 28.7492 21.7028 28.1802 21.4492L28.9038 19.3804C29.077 19.4546 29.2904 19.535 29.5439 19.6216C29.7975 19.7144 30.0697 19.7948 30.3604 19.8628C30.651 19.9308 30.9541 19.9865 31.2695 20.0298C31.5911 20.0793 31.9035 20.104 32.2065 20.104C32.4725 20.104 32.7292 20.0762 32.9766 20.0205C33.224 19.971 33.4404 19.8844 33.626 19.7607C33.8177 19.6432 33.9692 19.4855 34.0806 19.2876C34.1981 19.0959 34.2568 18.8485 34.2568 18.5454V17.2373ZM30.3975 13.5449C30.3975 13.8727 30.4315 14.182 30.4995 14.4727C30.5737 14.7572 30.6882 15.0015 30.8428 15.2056C31.0036 15.4035 31.2077 15.5612 31.4551 15.6787C31.7025 15.79 32.0024 15.8457 32.355 15.8457C33.0539 15.8457 33.5518 15.6261 33.8486 15.187C34.1455 14.7417 34.2939 14.1943 34.2939 13.5449V13.4707C34.2939 13.1429 34.2599 12.8368 34.1919 12.5522C34.1239 12.2677 34.0125 12.0234 33.8579 11.8193C33.7033 11.6152 33.5023 11.4575 33.2549 11.3462C33.0137 11.2287 32.7137 11.1699 32.355 11.1699C31.6623 11.1699 31.1613 11.3895 30.8521 11.8286C30.549 12.2677 30.3975 12.8151 30.3975 13.4707V13.5449ZM42.2446 14.9644C41.9292 15.0138 41.6756 15.1252 41.4839 15.2983C41.2922 15.4653 41.1963 15.6942 41.1963 15.9849C41.1963 16.3065 41.3138 16.5848 41.5488 16.8198C41.7839 17.0487 42.1302 17.1631 42.5879 17.1631C43.0703 17.1631 43.4507 17.0239 43.729 16.7456C44.0073 16.4673 44.1465 16.0993 44.1465 15.6416V14.6396L42.2446 14.9644ZM44.564 18.063C44.4588 18.1805 44.3289 18.3073 44.1743 18.4434C44.0259 18.5732 43.8465 18.6938 43.6362 18.8052C43.4321 18.9103 43.1909 19 42.9126 19.0742C42.6343 19.1484 42.3219 19.1855 41.9756 19.1855C41.4808 19.1855 41.0231 19.1082 40.6025 18.9536C40.1882 18.7928 39.8232 18.5701 39.5078 18.2856C39.1924 18.0011 38.945 17.6733 38.7656 17.3022C38.5863 16.925 38.4966 16.5168 38.4966 16.0776C38.4966 15.2798 38.744 14.6273 39.2388 14.1201C39.7336 13.613 40.417 13.2944 41.2891 13.1646L44.1465 12.7471V12.5615C44.1465 12.1162 44.0104 11.7637 43.7383 11.5039C43.4661 11.2441 43.0239 11.1143 42.4116 11.1143C42.158 11.1143 41.9014 11.1452 41.6416 11.207C41.3818 11.2627 41.1313 11.3276 40.8901 11.4019C40.6551 11.4761 40.4355 11.5627 40.2314 11.6616C40.0273 11.7544 39.848 11.8379 39.6934 11.9121L38.6914 9.95459C39.2604 9.63916 39.8913 9.37939 40.584 9.17529C41.2829 8.97119 42.0065 8.86914 42.7549 8.86914C43.2126 8.86914 43.6733 8.91862 44.1372 9.01758C44.6073 9.11035 45.0309 9.28353 45.4082 9.53711C45.7917 9.79069 46.104 10.137 46.3452 10.5762C46.5864 11.0091 46.707 11.5627 46.707 12.2368V16.3188C46.707 16.6095 46.7812 16.826 46.9297 16.9683C47.0843 17.1043 47.2946 17.2311 47.5605 17.3486L46.4009 19.1855C45.9308 19.1361 45.5535 19.0155 45.269 18.8237C44.9845 18.6258 44.7495 18.3722 44.564 18.063ZM48.813 5.69629H51.3735V16.3003C51.3735 16.5106 51.4323 16.6714 51.5498 16.7827C51.6735 16.894 51.8683 16.9497 52.1343 16.9497C52.258 16.9497 52.3631 16.9435 52.4497 16.9312C52.5425 16.9126 52.66 16.8879 52.8022 16.8569L53.0063 19.0371C52.8332 19.0618 52.6476 19.0866 52.4497 19.1113C52.2827 19.1299 52.0879 19.1453 51.8652 19.1577C51.6488 19.1763 51.423 19.1855 51.188 19.1855C50.8231 19.1855 50.4953 19.1392 50.2046 19.0464C49.9139 18.9536 49.6634 18.8175 49.4531 18.6382C49.249 18.4526 49.0913 18.2238 48.98 17.9517C48.8687 17.6795 48.813 17.3641 48.813 17.0054V5.69629ZM54.3794 5.69629H56.9399V16.3003C56.9399 16.5106 56.9987 16.6714 57.1162 16.7827C57.2399 16.894 57.4347 16.9497 57.7007 16.9497C57.8244 16.9497 57.9295 16.9435 58.0161 16.9312C58.1089 16.9126 58.2264 16.8879 58.3687 16.8569L58.5728 19.0371C58.3996 19.0618 58.214 19.0866 58.0161 19.1113C57.8491 19.1299 57.6543 19.1453 57.4316 19.1577C57.2152 19.1763 56.9894 19.1855 56.7544 19.1855C56.3895 19.1855 56.0617 19.1392 55.771 19.0464C55.4803 18.9536 55.2298 18.8175 55.0195 18.6382C54.8154 18.4526 54.6577 18.2238 54.5464 17.9517C54.4351 17.6795 54.3794 17.3641 54.3794 17.0054V5.69629ZM61.0127 20.1597C61.3034 20.1597 61.5168 20.1071 61.6528 20.002C61.7951 19.8968 61.9064 19.7267 61.9868 19.4917L62.0796 19.1855L58.6377 9.06396H61.4858L63.4619 15.9199L65.104 9.06396H67.915L64.5659 20.2339C64.4546 20.605 64.3 20.9235 64.1021 21.1895C63.9041 21.4554 63.6691 21.6719 63.397 21.8389C63.1248 22.012 62.8218 22.1388 62.4878 22.2192C62.16 22.2996 61.8075 22.3398 61.4302 22.3398C61.2756 22.3398 61.0962 22.3337 60.8921 22.3213C60.6942 22.3089 60.487 22.2904 60.2705 22.2656C60.0602 22.2471 59.8499 22.2223 59.6396 22.1914C59.4355 22.1605 59.2469 22.1234 59.0737 22.0801L59.5562 19.9834C59.7046 20.0205 59.8592 20.0514 60.02 20.0762C60.1623 20.1009 60.3169 20.1195 60.4839 20.1318C60.6571 20.1504 60.8333 20.1597 61.0127 20.1597ZM77.7212 11.5503H77.4521C77.0872 11.5503 76.7378 11.5874 76.4038 11.6616C76.076 11.7358 75.7853 11.8719 75.5317 12.0698C75.2782 12.2616 75.0741 12.5275 74.9194 12.8677C74.771 13.2078 74.6968 13.6439 74.6968 14.1758V19H72.1362V9.06396H74.6968V10.1865C74.8019 10.0195 74.938 9.85872 75.105 9.7041C75.272 9.54948 75.4668 9.41341 75.6895 9.2959C75.9121 9.1722 76.1626 9.07324 76.4409 8.99902C76.7192 8.9248 77.0192 8.8877 77.3408 8.8877H77.7212V11.5503ZM81.46 14.918C81.5033 15.2148 81.596 15.487 81.7383 15.7344C81.8867 15.9818 82.0723 16.1951 82.2949 16.3745C82.5176 16.5477 82.7743 16.6838 83.0649 16.7827C83.3556 16.8817 83.6649 16.9312 83.9927 16.9312C84.37 16.9312 84.7782 16.86 85.2173 16.7178C85.6564 16.5693 86.0584 16.356 86.4233 16.0776L87.6572 17.8774C87.1934 18.2671 86.6243 18.5825 85.9502 18.8237C85.276 19.0649 84.5586 19.1855 83.7979 19.1855C83.1113 19.1855 82.465 19.068 81.8589 18.833C81.2528 18.598 80.7209 18.2578 80.2632 17.8125C79.8117 17.3672 79.453 16.826 79.187 16.189C78.9272 15.5519 78.7974 14.8345 78.7974 14.0366C78.7974 13.3068 78.9118 12.6265 79.1406 11.9956C79.3757 11.3647 79.7004 10.8174 80.1147 10.3535C80.5353 9.88965 81.0363 9.52783 81.6177 9.26807C82.1991 9.00212 82.8423 8.86914 83.5474 8.86914C84.203 8.86914 84.8122 8.98975 85.375 9.23096C85.9378 9.46598 86.4264 9.79997 86.8408 10.2329C87.2552 10.6597 87.5799 11.173 87.8149 11.7729C88.05 12.3729 88.1675 13.0347 88.1675 13.7583V14.918H81.46ZM83.5381 11.0957C82.9876 11.0957 82.5207 11.2812 82.1372 11.6523C81.7599 12.0173 81.5404 12.4595 81.4785 12.979H85.4863C85.474 12.4533 85.2822 12.008 84.9111 11.6431C84.54 11.2782 84.0824 11.0957 83.5381 11.0957ZM92.3608 22.1357H89.8003V9.06396H92.3608V9.91748C92.6392 9.62679 92.9824 9.37939 93.3906 9.17529C93.7988 8.97119 94.2936 8.86914 94.875 8.86914C95.5306 8.86914 96.1243 9.00212 96.6562 9.26807C97.1943 9.52783 97.6551 9.88965 98.0386 10.3535C98.422 10.8112 98.7189 11.3555 98.9292 11.9863C99.1395 12.6172 99.2446 13.3006 99.2446 14.0366C99.2446 14.7726 99.1364 15.4561 98.9199 16.0869C98.7035 16.7178 98.4004 17.262 98.0107 17.7197C97.6211 18.1774 97.1541 18.5361 96.6099 18.7959C96.0656 19.0557 95.4657 19.1855 94.8101 19.1855C94.5194 19.1855 94.2534 19.1577 94.0122 19.1021C93.7772 19.0526 93.5607 18.9814 93.3628 18.8887C93.1649 18.7959 92.9824 18.6877 92.8154 18.564C92.6484 18.4341 92.4969 18.2949 92.3608 18.1465V22.1357ZM92.2866 14.9551C92.2866 15.221 92.333 15.4684 92.4258 15.6973C92.5247 15.9199 92.6639 16.1147 92.8433 16.2817C93.0226 16.4487 93.236 16.5786 93.4834 16.6714C93.737 16.7642 94.0215 16.8105 94.3369 16.8105C94.7018 16.8105 95.0234 16.7456 95.3018 16.6157C95.5863 16.4797 95.8244 16.291 96.0161 16.0498C96.2078 15.8086 96.3532 15.5241 96.4521 15.1963C96.5511 14.8623 96.6006 14.4974 96.6006 14.1016V13.981C96.6006 13.5851 96.5511 13.2202 96.4521 12.8862C96.3532 12.5522 96.2078 12.2646 96.0161 12.0234C95.8244 11.776 95.5863 11.5843 95.3018 11.4482C95.0234 11.3122 94.7018 11.2441 94.3369 11.2441C94.0215 11.2441 93.737 11.2905 93.4834 11.3833C93.236 11.4761 93.0226 11.606 92.8433 11.7729C92.6639 11.9399 92.5247 12.1379 92.4258 12.3667C92.333 12.5955 92.2866 12.8429 92.2866 13.1089V14.9551ZM106.537 11.5503H106.268C105.903 11.5503 105.553 11.5874 105.219 11.6616C104.891 11.7358 104.601 11.8719 104.347 12.0698C104.094 12.2616 103.889 12.5275 103.735 12.8677C103.586 13.2078 103.512 13.6439 103.512 14.1758V19H100.952V9.06396H103.512V10.1865C103.617 10.0195 103.753 9.85872 103.92 9.7041C104.087 9.54948 104.282 9.41341 104.505 9.2959C104.728 9.1722 104.978 9.07324 105.256 8.99902C105.535 8.9248 105.835 8.8877 106.156 8.8877H106.537V11.5503ZM110.275 14.918C110.319 15.2148 110.411 15.487 110.554 15.7344C110.702 15.9818 110.888 16.1951 111.11 16.3745C111.333 16.5477 111.59 16.6838 111.88 16.7827C112.171 16.8817 112.48 16.9312 112.808 16.9312C113.185 16.9312 113.594 16.86 114.033 16.7178C114.472 16.5693 114.874 16.356 115.239 16.0776L116.473 17.8774C116.009 18.2671 115.44 18.5825 114.766 18.8237C114.091 19.0649 113.374 19.1855 112.613 19.1855C111.927 19.1855 111.28 19.068 110.674 18.833C110.068 18.598 109.536 18.2578 109.079 17.8125C108.627 17.3672 108.268 16.826 108.002 16.189C107.743 15.5519 107.613 14.8345 107.613 14.0366C107.613 13.3068 107.727 12.6265 107.956 11.9956C108.191 11.3647 108.516 10.8174 108.93 10.3535C109.351 9.88965 109.852 9.52783 110.433 9.26807C111.014 9.00212 111.658 8.86914 112.363 8.86914C113.018 8.86914 113.628 8.98975 114.19 9.23096C114.753 9.46598 115.242 9.79997 115.656 10.2329C116.071 10.6597 116.395 11.173 116.63 11.7729C116.865 12.3729 116.983 13.0347 116.983 13.7583V14.918H110.275ZM112.354 11.0957C111.803 11.0957 111.336 11.2812 110.953 11.6523C110.575 12.0173 110.356 12.4595 110.294 12.979H114.302C114.289 12.4533 114.098 12.008 113.727 11.6431C113.355 11.2782 112.898 11.0957 112.354 11.0957ZM119.321 15.8271C119.686 16.1549 120.122 16.4364 120.629 16.6714C121.136 16.9064 121.649 17.0239 122.169 17.0239C122.546 17.0239 122.843 16.9528 123.06 16.8105C123.276 16.6621 123.384 16.4735 123.384 16.2446C123.384 15.855 122.967 15.5519 122.132 15.3354L121.408 15.1406C121.049 15.054 120.688 14.9365 120.323 14.7881C119.958 14.6335 119.621 14.4325 119.312 14.1851C119.008 13.9377 118.761 13.6377 118.569 13.2852C118.384 12.9264 118.291 12.4873 118.291 11.9678C118.291 11.5534 118.381 11.1606 118.56 10.7896C118.746 10.4123 119.005 10.0814 119.339 9.79688C119.68 9.51237 120.091 9.28662 120.573 9.11963C121.056 8.95264 121.594 8.86914 122.188 8.86914C123.035 8.86914 123.789 9.00212 124.451 9.26807C125.119 9.53402 125.645 9.83398 126.028 10.168L124.692 11.875C124.377 11.6462 124.003 11.4513 123.57 11.2905C123.143 11.1235 122.713 11.04 122.28 11.04C121.878 11.04 121.566 11.1143 121.343 11.2627C121.121 11.4049 121.009 11.5781 121.009 11.7822C121.009 11.9987 121.105 12.175 121.297 12.311C121.495 12.4409 121.779 12.5553 122.15 12.6543L123.227 12.9604C124.253 13.2511 124.989 13.6439 125.435 14.1387C125.88 14.6335 126.103 15.2581 126.103 16.0127C126.103 16.4333 126.016 16.8353 125.843 17.2188C125.67 17.596 125.416 17.9331 125.082 18.23C124.748 18.5269 124.334 18.7619 123.839 18.9351C123.344 19.1021 122.781 19.1855 122.15 19.1855C121.668 19.1855 121.213 19.1423 120.787 19.0557C120.366 18.9691 119.973 18.8516 119.608 18.7031C119.25 18.5485 118.925 18.3753 118.634 18.1836C118.344 17.9919 118.096 17.8001 117.892 17.6084L119.321 15.8271ZM129.906 14.918C129.95 15.2148 130.042 15.487 130.185 15.7344C130.333 15.9818 130.519 16.1951 130.741 16.3745C130.964 16.5477 131.221 16.6838 131.511 16.7827C131.802 16.8817 132.111 16.9312 132.439 16.9312C132.816 16.9312 133.224 16.86 133.664 16.7178C134.103 16.5693 134.505 16.356 134.87 16.0776L136.104 17.8774C135.64 18.2671 135.071 18.5825 134.396 18.8237C133.722 19.0649 133.005 19.1855 132.244 19.1855C131.558 19.1855 130.911 19.068 130.305 18.833C129.699 18.598 129.167 18.2578 128.709 17.8125C128.258 17.3672 127.899 16.826 127.633 16.189C127.374 15.5519 127.244 14.8345 127.244 14.0366C127.244 13.3068 127.358 12.6265 127.587 11.9956C127.822 11.3647 128.147 10.8174 128.561 10.3535C128.982 9.88965 129.483 9.52783 130.064 9.26807C130.645 9.00212 131.289 8.86914 131.994 8.86914C132.649 8.86914 133.258 8.98975 133.821 9.23096C134.384 9.46598 134.873 9.79997 135.287 10.2329C135.701 10.6597 136.026 11.173 136.261 11.7729C136.496 12.3729 136.614 13.0347 136.614 13.7583V14.918H129.906ZM131.984 11.0957C131.434 11.0957 130.967 11.2812 130.583 11.6523C130.206 12.0173 129.987 12.4595 129.925 12.979H133.933C133.92 12.4533 133.729 12.008 133.357 11.6431C132.986 11.2782 132.529 11.0957 131.984 11.0957ZM138.247 9.06396H140.807V9.91748C140.943 9.78141 141.095 9.65153 141.262 9.52783C141.435 9.39795 141.624 9.28662 141.828 9.19385C142.032 9.09489 142.257 9.01758 142.505 8.96191C142.758 8.90007 143.037 8.86914 143.34 8.86914C143.878 8.86914 144.36 8.95882 144.787 9.13818C145.214 9.31136 145.573 9.55257 145.863 9.86182C146.16 10.1711 146.386 10.5329 146.541 10.9473C146.695 11.3617 146.772 11.8101 146.772 12.2925V19H144.212V13.2202C144.212 12.8677 144.172 12.5708 144.091 12.3296C144.011 12.0822 143.9 11.8843 143.757 11.7358C143.621 11.5812 143.457 11.4699 143.266 11.4019C143.08 11.3276 142.876 11.2905 142.653 11.2905C142.394 11.2905 142.149 11.3369 141.92 11.4297C141.698 11.5225 141.503 11.6647 141.336 11.8564C141.169 12.042 141.039 12.277 140.946 12.5615C140.854 12.846 140.807 13.18 140.807 13.5635V19H138.247V9.06396ZM152.58 16.0405C152.58 16.158 152.596 16.2694 152.626 16.3745C152.657 16.4797 152.71 16.5724 152.784 16.6528C152.865 16.7271 152.976 16.7858 153.118 16.8291C153.26 16.8724 153.443 16.894 153.666 16.894C153.758 16.894 153.863 16.891 153.981 16.8848C154.098 16.8724 154.216 16.86 154.333 16.8477C154.451 16.8353 154.559 16.8198 154.658 16.8013C154.763 16.7827 154.85 16.7673 154.918 16.7549L155.15 19.0186C154.909 19.0495 154.658 19.0773 154.398 19.1021C154.176 19.1268 153.928 19.1453 153.656 19.1577C153.384 19.1763 153.109 19.1855 152.831 19.1855C151.946 19.1855 151.257 18.9845 150.762 18.5825C150.267 18.1805 150.02 17.5404 150.02 16.6621V11.2905H148.229V9.06396H150.02V6.25293L152.58 5.56641V9.06396H155.187V11.2905H152.58V16.0405ZM158.944 14.918C158.988 15.2148 159.08 15.487 159.223 15.7344C159.371 15.9818 159.557 16.1951 159.779 16.3745C160.002 16.5477 160.259 16.6838 160.549 16.7827C160.84 16.8817 161.149 16.9312 161.477 16.9312C161.854 16.9312 162.263 16.86 162.702 16.7178C163.141 16.5693 163.543 16.356 163.908 16.0776L165.142 17.8774C164.678 18.2671 164.109 18.5825 163.435 18.8237C162.76 19.0649 162.043 19.1855 161.282 19.1855C160.596 19.1855 159.949 19.068 159.343 18.833C158.737 18.598 158.205 18.2578 157.748 17.8125C157.296 17.3672 156.937 16.826 156.671 16.189C156.412 15.5519 156.282 14.8345 156.282 14.0366C156.282 13.3068 156.396 12.6265 156.625 11.9956C156.86 11.3647 157.185 10.8174 157.599 10.3535C158.02 9.88965 158.521 9.52783 159.102 9.26807C159.683 9.00212 160.327 8.86914 161.032 8.86914C161.687 8.86914 162.297 8.98975 162.859 9.23096C163.422 9.46598 163.911 9.79997 164.325 10.2329C164.74 10.6597 165.064 11.173 165.299 11.7729C165.534 12.3729 165.652 13.0347 165.652 13.7583V14.918H158.944ZM161.022 11.0957C160.472 11.0957 160.005 11.2812 159.622 11.6523C159.244 12.0173 159.025 12.4595 158.963 12.979H162.971C162.958 12.4533 162.767 12.008 162.396 11.6431C162.024 11.2782 161.567 11.0957 161.022 11.0957ZM173.667 19V18.1465C173.531 18.2949 173.38 18.4341 173.213 18.564C173.052 18.6877 172.87 18.7959 172.666 18.8887C172.468 18.9814 172.248 19.0526 172.007 19.1021C171.772 19.1577 171.509 19.1855 171.218 19.1855C170.563 19.1855 169.963 19.0557 169.418 18.7959C168.874 18.5361 168.407 18.1774 168.018 17.7197C167.628 17.262 167.325 16.7178 167.108 16.0869C166.898 15.4561 166.793 14.7726 166.793 14.0366C166.793 13.3006 166.898 12.6172 167.108 11.9863C167.319 11.3555 167.612 10.8112 167.99 10.3535C168.373 9.88965 168.834 9.52783 169.372 9.26807C169.91 9.00212 170.507 8.86914 171.163 8.86914C171.744 8.86914 172.236 8.97119 172.638 9.17529C173.046 9.37321 173.389 9.62061 173.667 9.91748V5.69629H176.228V19H173.667ZM173.742 13.1089C173.742 12.8429 173.692 12.5955 173.593 12.3667C173.5 12.1379 173.364 11.9399 173.185 11.7729C173.006 11.606 172.789 11.4761 172.536 11.3833C172.288 11.2905 172.007 11.2441 171.691 11.2441C171.326 11.2441 171.002 11.3122 170.717 11.4482C170.439 11.5843 170.204 11.776 170.012 12.0234C169.82 12.2646 169.675 12.5522 169.576 12.8862C169.477 13.2202 169.428 13.5851 169.428 13.981V14.1016C169.428 14.4974 169.477 14.8623 169.576 15.1963C169.675 15.5241 169.82 15.8086 170.012 16.0498C170.204 16.291 170.439 16.4797 170.717 16.6157C171.002 16.7456 171.326 16.8105 171.691 16.8105C172.007 16.8105 172.288 16.7642 172.536 16.6714C172.789 16.5786 173.006 16.4487 173.185 16.2817C173.364 16.1147 173.5 15.9199 173.593 15.6973C173.692 15.4684 173.742 15.221 173.742 14.9551V13.1089Z" fill="white"/>
<rect width="155" height="27" transform="translate(195)" fill="#4C2C92"/>
<path d="M214.729 12.3481C214.729 13.3439 214.592 14.2531 214.32 15.0757C214.054 15.8921 213.652 16.591 213.114 17.1724C212.582 17.7537 211.914 18.2052 211.11 18.5269C210.306 18.8423 209.366 19 208.29 19H203.392V5.69629H208.29C209.366 5.69629 210.306 5.8571 211.11 6.17871C211.914 6.49414 212.582 6.94255 213.114 7.52393C213.652 8.10531 214.054 8.80729 214.32 9.62988C214.592 10.4463 214.729 11.3524 214.729 12.3481ZM211.936 12.0884C211.936 11.5256 211.865 11.0029 211.723 10.5205C211.587 10.0319 211.364 9.60824 211.055 9.24951C210.752 8.89079 210.356 8.60938 209.867 8.40527C209.379 8.19499 208.788 8.08984 208.095 8.08984H206.082V16.6064H208.095C208.782 16.6064 209.369 16.5044 209.858 16.3003C210.347 16.09 210.742 15.8055 211.045 15.4468C211.355 15.0819 211.58 14.6551 211.723 14.1665C211.865 13.6779 211.936 13.1553 211.936 12.5986V12.0884ZM218.755 14.918C218.798 15.2148 218.891 15.487 219.033 15.7344C219.182 15.9818 219.367 16.1951 219.59 16.3745C219.812 16.5477 220.069 16.6838 220.36 16.7827C220.651 16.8817 220.96 16.9312 221.288 16.9312C221.665 16.9312 222.073 16.86 222.512 16.7178C222.951 16.5693 223.353 16.356 223.718 16.0776L224.952 17.8774C224.488 18.2671 223.919 18.5825 223.245 18.8237C222.571 19.0649 221.854 19.1855 221.093 19.1855C220.406 19.1855 219.76 19.068 219.154 18.833C218.548 18.598 218.016 18.2578 217.558 17.8125C217.107 17.3672 216.748 16.826 216.482 16.189C216.222 15.5519 216.092 14.8345 216.092 14.0366C216.092 13.3068 216.207 12.6265 216.436 11.9956C216.671 11.3647 216.995 10.8174 217.41 10.3535C217.83 9.88965 218.331 9.52783 218.913 9.26807C219.494 9.00212 220.137 8.86914 220.842 8.86914C221.498 8.86914 222.107 8.98975 222.67 9.23096C223.233 9.46598 223.721 9.79997 224.136 10.2329C224.55 10.6597 224.875 11.173 225.11 11.7729C225.345 12.3729 225.462 13.0347 225.462 13.7583V14.918H218.755ZM220.833 11.0957C220.283 11.0957 219.816 11.2812 219.432 11.6523C219.055 12.0173 218.835 12.4595 218.773 12.979H222.781C222.769 12.4533 222.577 12.008 222.206 11.6431C221.835 11.2782 221.377 11.0957 220.833 11.0957ZM230.76 16.0405C230.76 16.158 230.775 16.2694 230.806 16.3745C230.837 16.4797 230.89 16.5724 230.964 16.6528C231.044 16.7271 231.156 16.7858 231.298 16.8291C231.44 16.8724 231.623 16.894 231.845 16.894C231.938 16.894 232.043 16.891 232.161 16.8848C232.278 16.8724 232.396 16.86 232.513 16.8477C232.631 16.8353 232.739 16.8198 232.838 16.8013C232.943 16.7827 233.03 16.7673 233.098 16.7549L233.33 19.0186C233.088 19.0495 232.838 19.0773 232.578 19.1021C232.355 19.1268 232.108 19.1453 231.836 19.1577C231.564 19.1763 231.289 19.1855 231.01 19.1855C230.126 19.1855 229.436 18.9845 228.941 18.5825C228.447 18.1805 228.199 17.5404 228.199 16.6621V11.2905H226.409V9.06396H228.199V6.25293L230.76 5.56641V9.06396H233.367V11.2905H230.76V16.0405ZM238.191 14.9644C237.875 15.0138 237.622 15.1252 237.43 15.2983C237.238 15.4653 237.143 15.6942 237.143 15.9849C237.143 16.3065 237.26 16.5848 237.495 16.8198C237.73 17.0487 238.076 17.1631 238.534 17.1631C239.017 17.1631 239.397 17.0239 239.675 16.7456C239.954 16.4673 240.093 16.0993 240.093 15.6416V14.6396L238.191 14.9644ZM240.51 18.063C240.405 18.1805 240.275 18.3073 240.121 18.4434C239.972 18.5732 239.793 18.6938 239.583 18.8052C239.378 18.9103 239.137 19 238.859 19.0742C238.581 19.1484 238.268 19.1855 237.922 19.1855C237.427 19.1855 236.969 19.1082 236.549 18.9536C236.134 18.7928 235.77 18.5701 235.454 18.2856C235.139 18.0011 234.891 17.6733 234.712 17.3022C234.533 16.925 234.443 16.5168 234.443 16.0776C234.443 15.2798 234.69 14.6273 235.185 14.1201C235.68 13.613 236.363 13.2944 237.235 13.1646L240.093 12.7471V12.5615C240.093 12.1162 239.957 11.7637 239.685 11.5039C239.412 11.2441 238.97 11.1143 238.358 11.1143C238.104 11.1143 237.848 11.1452 237.588 11.207C237.328 11.2627 237.078 11.3276 236.836 11.4019C236.601 11.4761 236.382 11.5627 236.178 11.6616C235.974 11.7544 235.794 11.8379 235.64 11.9121L234.638 9.95459C235.207 9.63916 235.838 9.37939 236.53 9.17529C237.229 8.97119 237.953 8.86914 238.701 8.86914C239.159 8.86914 239.62 8.91862 240.083 9.01758C240.554 9.11035 240.977 9.28353 241.354 9.53711C241.738 9.79069 242.05 10.137 242.292 10.5762C242.533 11.0091 242.653 11.5627 242.653 12.2368V16.3188C242.653 16.6095 242.728 16.826 242.876 16.9683C243.031 17.1043 243.241 17.2311 243.507 17.3486L242.347 19.1855C241.877 19.1361 241.5 19.0155 241.215 18.8237C240.931 18.6258 240.696 18.3722 240.51 18.063ZM247.357 19H244.796V9.06396H247.357V19ZM244.527 6.45703C244.527 6.24674 244.568 6.04883 244.648 5.86328C244.728 5.67155 244.837 5.50765 244.973 5.37158C245.115 5.22933 245.279 5.118 245.464 5.0376C245.65 4.95719 245.851 4.91699 246.067 4.91699C246.278 4.91699 246.476 4.95719 246.661 5.0376C246.853 5.118 247.017 5.22933 247.153 5.37158C247.295 5.50765 247.406 5.67155 247.487 5.86328C247.567 6.04883 247.607 6.24674 247.607 6.45703C247.607 6.6735 247.567 6.87451 247.487 7.06006C247.406 7.24561 247.295 7.40951 247.153 7.55176C247.017 7.68783 246.853 7.79606 246.661 7.87646C246.476 7.95687 246.278 7.99707 246.067 7.99707C245.851 7.99707 245.65 7.95687 245.464 7.87646C245.279 7.79606 245.115 7.68783 244.973 7.55176C244.837 7.40951 244.728 7.24561 244.648 7.06006C244.568 6.87451 244.527 6.6735 244.527 6.45703ZM249.565 9.06396H252.125V9.91748C252.262 9.78141 252.413 9.65153 252.58 9.52783C252.753 9.39795 252.942 9.28662 253.146 9.19385C253.35 9.09489 253.576 9.01758 253.823 8.96191C254.077 8.90007 254.355 8.86914 254.658 8.86914C255.196 8.86914 255.679 8.95882 256.105 9.13818C256.532 9.31136 256.891 9.55257 257.182 9.86182C257.479 10.1711 257.704 10.5329 257.859 10.9473C258.014 11.3617 258.091 11.8101 258.091 12.2925V19H255.53V13.2202C255.53 12.8677 255.49 12.5708 255.41 12.3296C255.329 12.0822 255.218 11.8843 255.076 11.7358C254.94 11.5812 254.776 11.4699 254.584 11.4019C254.398 11.3276 254.194 11.2905 253.972 11.2905C253.712 11.2905 253.468 11.3369 253.239 11.4297C253.016 11.5225 252.821 11.6647 252.654 11.8564C252.487 12.042 252.357 12.277 252.265 12.5615C252.172 12.846 252.125 13.18 252.125 13.5635V19H249.565V9.06396ZM262.377 14.918C262.42 15.2148 262.513 15.487 262.655 15.7344C262.804 15.9818 262.989 16.1951 263.212 16.3745C263.435 16.5477 263.691 16.6838 263.982 16.7827C264.273 16.8817 264.582 16.9312 264.91 16.9312C265.287 16.9312 265.695 16.86 266.134 16.7178C266.573 16.5693 266.975 16.356 267.34 16.0776L268.574 17.8774C268.11 18.2671 267.541 18.5825 266.867 18.8237C266.193 19.0649 265.476 19.1855 264.715 19.1855C264.028 19.1855 263.382 19.068 262.776 18.833C262.17 18.598 261.638 18.2578 261.18 17.8125C260.729 17.3672 260.37 16.826 260.104 16.189C259.844 15.5519 259.714 14.8345 259.714 14.0366C259.714 13.3068 259.829 12.6265 260.058 11.9956C260.293 11.3647 260.617 10.8174 261.032 10.3535C261.452 9.88965 261.953 9.52783 262.535 9.26807C263.116 9.00212 263.759 8.86914 264.464 8.86914C265.12 8.86914 265.729 8.98975 266.292 9.23096C266.855 9.46598 267.343 9.79997 267.758 10.2329C268.172 10.6597 268.497 11.173 268.732 11.7729C268.967 12.3729 269.084 13.0347 269.084 13.7583V14.918H262.377ZM264.455 11.0957C263.905 11.0957 263.438 11.2812 263.054 11.6523C262.677 12.0173 262.457 12.4595 262.396 12.979H266.403C266.391 12.4533 266.199 12.008 265.828 11.6431C265.457 11.2782 264.999 11.0957 264.455 11.0957ZM277.1 19V18.1465C276.964 18.2949 276.812 18.4341 276.646 18.564C276.485 18.6877 276.302 18.7959 276.098 18.8887C275.9 18.9814 275.681 19.0526 275.439 19.1021C275.204 19.1577 274.942 19.1855 274.651 19.1855C273.995 19.1855 273.395 19.0557 272.851 18.7959C272.307 18.5361 271.84 18.1774 271.45 17.7197C271.061 17.262 270.757 16.7178 270.541 16.0869C270.331 15.4561 270.226 14.7726 270.226 14.0366C270.226 13.3006 270.331 12.6172 270.541 11.9863C270.751 11.3555 271.045 10.8112 271.422 10.3535C271.806 9.88965 272.267 9.52783 272.805 9.26807C273.343 9.00212 273.94 8.86914 274.595 8.86914C275.177 8.86914 275.668 8.97119 276.07 9.17529C276.479 9.37321 276.822 9.62061 277.1 9.91748V5.69629H279.661V19H277.1ZM277.174 13.1089C277.174 12.8429 277.125 12.5955 277.026 12.3667C276.933 12.1379 276.797 11.9399 276.618 11.7729C276.438 11.606 276.222 11.4761 275.968 11.3833C275.721 11.2905 275.439 11.2441 275.124 11.2441C274.759 11.2441 274.434 11.3122 274.15 11.4482C273.872 11.5843 273.637 11.776 273.445 12.0234C273.253 12.2646 273.108 12.5522 273.009 12.8862C272.91 13.2202 272.86 13.5851 272.86 13.981V14.1016C272.86 14.4974 272.91 14.8623 273.009 15.1963C273.108 15.5241 273.253 15.8086 273.445 16.0498C273.637 16.291 273.872 16.4797 274.15 16.6157C274.434 16.7456 274.759 16.8105 275.124 16.8105C275.439 16.8105 275.721 16.7642 275.968 16.6714C276.222 16.5786 276.438 16.4487 276.618 16.2817C276.797 16.1147 276.933 15.9199 277.026 15.6973C277.125 15.4684 277.174 15.221 277.174 14.9551V13.1089ZM288.511 14.9644C288.196 15.0138 287.942 15.1252 287.75 15.2983C287.559 15.4653 287.463 15.6942 287.463 15.9849C287.463 16.3065 287.58 16.5848 287.815 16.8198C288.05 17.0487 288.397 17.1631 288.854 17.1631C289.337 17.1631 289.717 17.0239 289.996 16.7456C290.274 16.4673 290.413 16.0993 290.413 15.6416V14.6396L288.511 14.9644ZM290.831 18.063C290.725 18.1805 290.596 18.3073 290.441 18.4434C290.292 18.5732 290.113 18.6938 289.903 18.8052C289.699 18.9103 289.458 19 289.179 19.0742C288.901 19.1484 288.589 19.1855 288.242 19.1855C287.747 19.1855 287.29 19.1082 286.869 18.9536C286.455 18.7928 286.09 18.5701 285.774 18.2856C285.459 18.0011 285.212 17.6733 285.032 17.3022C284.853 16.925 284.763 16.5168 284.763 16.0776C284.763 15.2798 285.011 14.6273 285.505 14.1201C286 13.613 286.684 13.2944 287.556 13.1646L290.413 12.7471V12.5615C290.413 12.1162 290.277 11.7637 290.005 11.5039C289.733 11.2441 289.291 11.1143 288.678 11.1143C288.425 11.1143 288.168 11.1452 287.908 11.207C287.648 11.2627 287.398 11.3276 287.157 11.4019C286.922 11.4761 286.702 11.5627 286.498 11.6616C286.294 11.7544 286.115 11.8379 285.96 11.9121L284.958 9.95459C285.527 9.63916 286.158 9.37939 286.851 9.17529C287.549 8.97119 288.273 8.86914 289.021 8.86914C289.479 8.86914 289.94 8.91862 290.404 9.01758C290.874 9.11035 291.298 9.28353 291.675 9.53711C292.058 9.79069 292.371 10.137 292.612 10.5762C292.853 11.0091 292.974 11.5627 292.974 12.2368V16.3188C292.974 16.6095 293.048 16.826 293.196 16.9683C293.351 17.1043 293.561 17.2311 293.827 17.3486L292.667 19.1855C292.197 19.1361 291.82 19.0155 291.536 18.8237C291.251 18.6258 291.016 18.3722 290.831 18.063ZM297.677 22.1357H295.117V9.06396H297.677V9.91748C297.956 9.62679 298.299 9.37939 298.707 9.17529C299.115 8.97119 299.61 8.86914 300.191 8.86914C300.847 8.86914 301.441 9.00212 301.973 9.26807C302.511 9.52783 302.972 9.88965 303.355 10.3535C303.738 10.8112 304.035 11.3555 304.246 11.9863C304.456 12.6172 304.561 13.3006 304.561 14.0366C304.561 14.7726 304.453 15.4561 304.236 16.0869C304.02 16.7178 303.717 17.262 303.327 17.7197C302.938 18.1774 302.471 18.5361 301.926 18.7959C301.382 19.0557 300.782 19.1855 300.126 19.1855C299.836 19.1855 299.57 19.1577 299.329 19.1021C299.094 19.0526 298.877 18.9814 298.679 18.8887C298.481 18.7959 298.299 18.6877 298.132 18.564C297.965 18.4341 297.813 18.2949 297.677 18.1465V22.1357ZM297.603 14.9551C297.603 15.221 297.649 15.4684 297.742 15.6973C297.841 15.9199 297.98 16.1147 298.16 16.2817C298.339 16.4487 298.552 16.5786 298.8 16.6714C299.053 16.7642 299.338 16.8105 299.653 16.8105C300.018 16.8105 300.34 16.7456 300.618 16.6157C300.903 16.4797 301.141 16.291 301.333 16.0498C301.524 15.8086 301.67 15.5241 301.769 15.1963C301.868 14.8623 301.917 14.4974 301.917 14.1016V13.981C301.917 13.5851 301.868 13.2202 301.769 12.8862C301.67 12.5522 301.524 12.2646 301.333 12.0234C301.141 11.776 300.903 11.5843 300.618 11.4482C300.34 11.3122 300.018 11.2441 299.653 11.2441C299.338 11.2441 299.053 11.2905 298.8 11.3833C298.552 11.4761 298.339 11.606 298.16 11.7729C297.98 11.9399 297.841 12.1379 297.742 12.3667C297.649 12.5955 297.603 12.8429 297.603 13.1089V14.9551ZM308.829 22.1357H306.268V9.06396H308.829V9.91748C309.107 9.62679 309.45 9.37939 309.858 9.17529C310.267 8.97119 310.761 8.86914 311.343 8.86914C311.998 8.86914 312.592 9.00212 313.124 9.26807C313.662 9.52783 314.123 9.88965 314.506 10.3535C314.89 10.8112 315.187 11.3555 315.397 11.9863C315.607 12.6172 315.712 13.3006 315.712 14.0366C315.712 14.7726 315.604 15.4561 315.388 16.0869C315.171 16.7178 314.868 17.262 314.479 17.7197C314.089 18.1774 313.622 18.5361 313.078 18.7959C312.533 19.0557 311.933 19.1855 311.278 19.1855C310.987 19.1855 310.721 19.1577 310.48 19.1021C310.245 19.0526 310.028 18.9814 309.831 18.8887C309.633 18.7959 309.45 18.6877 309.283 18.564C309.116 18.4341 308.965 18.2949 308.829 18.1465V22.1357ZM308.754 14.9551C308.754 15.221 308.801 15.4684 308.894 15.6973C308.993 15.9199 309.132 16.1147 309.311 16.2817C309.49 16.4487 309.704 16.5786 309.951 16.6714C310.205 16.7642 310.489 16.8105 310.805 16.8105C311.17 16.8105 311.491 16.7456 311.77 16.6157C312.054 16.4797 312.292 16.291 312.484 16.0498C312.676 15.8086 312.821 15.5241 312.92 15.1963C313.019 14.8623 313.068 14.4974 313.068 14.1016V13.981C313.068 13.5851 313.019 13.2202 312.92 12.8862C312.821 12.5522 312.676 12.2646 312.484 12.0234C312.292 11.776 312.054 11.5843 311.77 11.4482C311.491 11.3122 311.17 11.2441 310.805 11.2441C310.489 11.2441 310.205 11.2905 309.951 11.3833C309.704 11.4761 309.49 11.606 309.311 11.7729C309.132 11.9399 308.993 12.1379 308.894 12.3667C308.801 12.5955 308.754 12.8429 308.754 13.1089V14.9551ZM319.562 14.918C319.606 15.2148 319.699 15.487 319.841 15.7344C319.989 15.9818 320.175 16.1951 320.397 16.3745C320.62 16.5477 320.877 16.6838 321.167 16.7827C321.458 16.8817 321.767 16.9312 322.095 16.9312C322.472 16.9312 322.881 16.86 323.32 16.7178C323.759 16.5693 324.161 16.356 324.526 16.0776L325.76 17.8774C325.296 18.2671 324.727 18.5825 324.053 18.8237C323.379 19.0649 322.661 19.1855 321.9 19.1855C321.214 19.1855 320.568 19.068 319.961 18.833C319.355 18.598 318.823 18.2578 318.366 17.8125C317.914 17.3672 317.556 16.826 317.29 16.189C317.03 15.5519 316.9 14.8345 316.9 14.0366C316.9 13.3068 317.014 12.6265 317.243 11.9956C317.478 11.3647 317.803 10.8174 318.217 10.3535C318.638 9.88965 319.139 9.52783 319.72 9.26807C320.302 9.00212 320.945 8.86914 321.65 8.86914C322.306 8.86914 322.915 8.98975 323.478 9.23096C324.04 9.46598 324.529 9.79997 324.943 10.2329C325.358 10.6597 325.682 11.173 325.917 11.7729C326.153 12.3729 326.27 13.0347 326.27 13.7583V14.918H319.562ZM321.641 11.0957C321.09 11.0957 320.623 11.2812 320.24 11.6523C319.862 12.0173 319.643 12.4595 319.581 12.979H323.589C323.576 12.4533 323.385 12.008 323.014 11.6431C322.643 11.2782 322.185 11.0957 321.641 11.0957ZM331.113 14.9644C330.797 15.0138 330.544 15.1252 330.352 15.2983C330.16 15.4653 330.064 15.6942 330.064 15.9849C330.064 16.3065 330.182 16.5848 330.417 16.8198C330.652 17.0487 330.998 17.1631 331.456 17.1631C331.938 17.1631 332.319 17.0239 332.597 16.7456C332.875 16.4673 333.015 16.0993 333.015 15.6416V14.6396L331.113 14.9644ZM333.432 18.063C333.327 18.1805 333.197 18.3073 333.042 18.4434C332.894 18.5732 332.715 18.6938 332.504 18.8052C332.3 18.9103 332.059 19 331.781 19.0742C331.502 19.1484 331.19 19.1855 330.844 19.1855C330.349 19.1855 329.891 19.1082 329.471 18.9536C329.056 18.7928 328.691 18.5701 328.376 18.2856C328.061 18.0011 327.813 17.6733 327.634 17.3022C327.454 16.925 327.365 16.5168 327.365 16.0776C327.365 15.2798 327.612 14.6273 328.107 14.1201C328.602 13.613 329.285 13.2944 330.157 13.1646L333.015 12.7471V12.5615C333.015 12.1162 332.879 11.7637 332.606 11.5039C332.334 11.2441 331.892 11.1143 331.28 11.1143C331.026 11.1143 330.77 11.1452 330.51 11.207C330.25 11.2627 330 11.3276 329.758 11.4019C329.523 11.4761 329.304 11.5627 329.1 11.6616C328.896 11.7544 328.716 11.8379 328.562 11.9121L327.56 9.95459C328.129 9.63916 328.759 9.37939 329.452 9.17529C330.151 8.97119 330.875 8.86914 331.623 8.86914C332.081 8.86914 332.542 8.91862 333.005 9.01758C333.475 9.11035 333.899 9.28353 334.276 9.53711C334.66 9.79069 334.972 10.137 335.213 10.5762C335.455 11.0091 335.575 11.5627 335.575 12.2368V16.3188C335.575 16.6095 335.649 16.826 335.798 16.9683C335.952 17.1043 336.163 17.2311 336.429 17.3486L335.269 19.1855C334.799 19.1361 334.422 19.0155 334.137 18.8237C333.853 18.6258 333.618 18.3722 333.432 18.063ZM337.681 5.69629H340.242V16.3003C340.242 16.5106 340.3 16.6714 340.418 16.7827C340.542 16.894 340.736 16.9497 341.002 16.9497C341.126 16.9497 341.231 16.9435 341.318 16.9312C341.411 16.9126 341.528 16.8879 341.67 16.8569L341.875 19.0371C341.701 19.0618 341.516 19.0866 341.318 19.1113C341.151 19.1299 340.956 19.1453 340.733 19.1577C340.517 19.1763 340.291 19.1855 340.056 19.1855C339.691 19.1855 339.363 19.1392 339.073 19.0464C338.782 18.9536 338.532 18.8175 338.321 18.6382C338.117 18.4526 337.959 18.2238 337.848 17.9517C337.737 17.6795 337.681 17.3641 337.681 17.0054V5.69629Z" fill="white"/>
</svg>
