<svg width="130" height="33" viewBox="0 0 130 33" fill="none" xmlns="http://www.w3.org/2000/svg">
<rect width="130" height="33" fill="#EB3223"/>
<path d="M11.7212 19.7612C11.8944 19.9591 12.1047 20.154 12.3521 20.3457C12.5994 20.5374 12.8716 20.7106 13.1685 20.8652C13.4715 21.0137 13.7993 21.1343 14.1519 21.2271C14.5044 21.3136 14.8848 21.3569 15.293 21.3569C16.0537 21.3569 16.6351 21.1992 17.0371 20.8838C17.4453 20.5622 17.6494 20.1725 17.6494 19.7148C17.6494 19.2386 17.4701 18.8768 17.1113 18.6294C16.7588 18.382 16.196 18.1872 15.4229 18.0449L15.0054 17.9707C14.4487 17.8717 13.8952 17.7419 13.3447 17.5811C12.7943 17.4202 12.2964 17.1883 11.8511 16.8853C11.4058 16.5822 11.0439 16.1956 10.7656 15.7256C10.4873 15.2493 10.3481 14.6494 10.3481 13.9258C10.3481 13.5052 10.4409 13.0661 10.6265 12.6084C10.812 12.1445 11.1058 11.7209 11.5078 11.3374C11.916 10.9478 12.4386 10.6292 13.0757 10.3818C13.7189 10.1344 14.4951 10.0107 15.4043 10.0107C16.4805 10.0107 17.4391 10.1901 18.2803 10.5488C19.1276 10.9014 19.811 11.3683 20.3306 11.9497L18.54 13.6196C18.1751 13.2176 17.7051 12.9022 17.1299 12.6733C16.5609 12.4445 15.9733 12.3301 15.3672 12.3301C14.6683 12.3301 14.1209 12.4631 13.7251 12.729C13.3354 12.995 13.1406 13.3413 13.1406 13.7681C13.1406 14.0464 13.2025 14.2783 13.3262 14.4639C13.4561 14.6494 13.6354 14.804 13.8643 14.9277C14.0931 15.0452 14.3683 15.1442 14.6899 15.2246C15.0116 15.305 15.3703 15.3854 15.7661 15.4658L15.9795 15.5029C16.5114 15.6019 17.0402 15.7287 17.5659 15.8833C18.0916 16.0317 18.5679 16.2544 18.9946 16.5513C19.4276 16.842 19.777 17.2254 20.043 17.7017C20.3089 18.1717 20.4419 18.7747 20.4419 19.5107C20.4419 20.1787 20.3027 20.7694 20.0244 21.2827C19.7461 21.7961 19.3781 22.2352 18.9204 22.6001C18.4627 22.9588 17.9339 23.231 17.334 23.4165C16.734 23.5959 16.1094 23.6855 15.46 23.6855C14.8044 23.6855 14.1951 23.6299 13.6323 23.5186C13.0757 23.4072 12.5685 23.2495 12.1108 23.0454C11.6593 22.8413 11.2542 22.6125 10.8955 22.3589C10.543 22.1053 10.2337 21.8332 9.96777 21.5425L11.7212 19.7612ZM32.5024 16.7183C32.5024 17.3182 32.4561 17.9058 32.3633 18.481C32.2705 19.0562 32.1252 19.6035 31.9272 20.123C31.7355 20.6364 31.4881 21.1126 31.1851 21.5518C30.882 21.9847 30.5171 22.3589 30.0903 22.6743C29.6636 22.9897 29.1719 23.2371 28.6152 23.4165C28.0648 23.5959 27.4432 23.6855 26.7505 23.6855C26.1815 23.6855 25.6558 23.6175 25.1733 23.4814C24.6909 23.3392 24.2549 23.1475 23.8652 22.9062C23.4756 22.665 23.1385 22.3805 22.854 22.0527C22.5695 21.7188 22.3468 21.36 22.186 20.9766L24.6724 20.0024C24.895 20.423 25.1919 20.7415 25.563 20.958C25.9403 21.1683 26.367 21.2734 26.8433 21.2734C27.3071 21.2734 27.7153 21.1838 28.0679 21.0044C28.4204 20.8188 28.7111 20.5684 28.9399 20.2529C29.175 19.9375 29.3512 19.5726 29.4688 19.1582C29.5863 18.7376 29.6419 18.2923 29.6357 17.8223C29.4811 17.9769 29.2987 18.1253 29.0884 18.2676C28.8781 18.4098 28.6431 18.5366 28.3833 18.6479C28.1297 18.7531 27.8514 18.8397 27.5483 18.9077C27.2515 18.9696 26.9391 19.0005 26.6113 19.0005C25.9619 19.0005 25.3558 18.8953 24.793 18.6851C24.2363 18.4686 23.7508 18.1717 23.3364 17.7944C22.9282 17.411 22.6066 16.9564 22.3716 16.4307C22.1366 15.9049 22.019 15.3298 22.019 14.7051C22.019 14.0371 22.1366 13.4155 22.3716 12.8403C22.6128 12.2651 22.9499 11.7703 23.3828 11.356C23.8219 10.9354 24.3477 10.6076 24.96 10.3726C25.5723 10.1313 26.2557 10.0107 27.0103 10.0107C27.839 10.0107 28.5905 10.1592 29.2646 10.4561C29.9388 10.7467 30.514 11.1673 30.9902 11.7178C31.4727 12.2682 31.8438 12.9393 32.1035 13.731C32.3695 14.5226 32.5024 15.4163 32.5024 16.4121V16.7183ZM29.5059 14.5474C29.5059 14.2319 29.4502 13.9382 29.3389 13.666C29.2275 13.3939 29.0667 13.1589 28.8564 12.9609C28.6523 12.7568 28.4049 12.5991 28.1143 12.4878C27.8236 12.3703 27.502 12.3115 27.1494 12.3115C26.7845 12.3115 26.4567 12.3703 26.166 12.4878C25.8753 12.5991 25.6279 12.7568 25.4238 12.9609C25.2197 13.1589 25.062 13.3939 24.9507 13.666C24.8455 13.9382 24.793 14.2319 24.793 14.5474C24.793 14.8566 24.8455 15.1473 24.9507 15.4194C25.062 15.6916 25.2197 15.9297 25.4238 16.1338C25.6279 16.3317 25.8753 16.4894 26.166 16.6069C26.4567 16.7183 26.7845 16.7739 27.1494 16.7739C27.502 16.7739 27.8236 16.7183 28.1143 16.6069C28.4049 16.4894 28.6523 16.3317 28.8564 16.1338C29.0667 15.9297 29.2275 15.6916 29.3389 15.4194C29.4502 15.1473 29.5059 14.8566 29.5059 14.5474ZM40.3325 23.5V20.4941H33.6992V17.6274L39.5903 10.1963H43.0322V18.0635H44.9712V20.4941H43.0322V23.5H40.3325ZM40.3325 18.0635V12.8403L36.1948 18.0635H40.3325ZM52.8013 10.1963C53.3579 10.1963 53.8743 10.2798 54.3506 10.4468C54.8268 10.6076 55.2412 10.8395 55.5938 11.1426C55.9463 11.4456 56.2215 11.8136 56.4194 12.2466C56.6174 12.6733 56.7163 13.1496 56.7163 13.6753C56.7163 13.9474 56.6761 14.2165 56.5957 14.4824C56.5215 14.7484 56.4102 14.9989 56.2617 15.2339C56.1133 15.4627 55.9339 15.673 55.7236 15.8647C55.5133 16.0565 55.2752 16.2142 55.0093 16.3379C55.2257 16.4121 55.4762 16.5234 55.7607 16.6719C56.0514 16.8203 56.3267 17.0244 56.5864 17.2842C56.8462 17.5439 57.0658 17.8656 57.2451 18.249C57.4245 18.6263 57.5142 19.084 57.5142 19.6221C57.5142 20.2962 57.3843 20.8776 57.1245 21.3662C56.8709 21.8548 56.5246 22.2568 56.0854 22.5723C55.6525 22.8877 55.1423 23.1227 54.5547 23.2773C53.9733 23.4258 53.3579 23.5 52.7085 23.5H46.8823V10.1963H52.8013ZM54.7588 19.5293C54.7588 19.1706 54.6938 18.8768 54.564 18.6479C54.4341 18.4191 54.2609 18.2367 54.0444 18.1006C53.8341 17.9645 53.5929 17.8717 53.3208 17.8223C53.0487 17.7666 52.7703 17.7388 52.4858 17.7388H49.5728V21.3755H52.4858C52.7703 21.3755 53.0487 21.3477 53.3208 21.292C53.5929 21.2363 53.8341 21.1374 54.0444 20.9951C54.2609 20.8529 54.4341 20.6642 54.564 20.4292C54.6938 20.1942 54.7588 19.8942 54.7588 19.5293ZM54.0073 13.9443C54.0073 13.4372 53.8465 13.0413 53.5249 12.7568C53.2033 12.4723 52.6838 12.3301 51.9663 12.3301H49.5728V15.4658H51.9663C52.6714 15.4658 53.1878 15.3328 53.5156 15.0669C53.8434 14.7948 54.0073 14.4206 54.0073 13.9443ZM65.8916 19.4644C65.5762 19.5138 65.3226 19.6252 65.1309 19.7983C64.9391 19.9653 64.8433 20.1942 64.8433 20.4849C64.8433 20.8065 64.9608 21.0848 65.1958 21.3198C65.4308 21.5487 65.7772 21.6631 66.2349 21.6631C66.7173 21.6631 67.0977 21.5239 67.376 21.2456C67.6543 20.9673 67.7935 20.5993 67.7935 20.1416V19.1396L65.8916 19.4644ZM68.2109 22.563C68.1058 22.6805 67.9759 22.8073 67.8213 22.9434C67.6729 23.0732 67.4935 23.1938 67.2832 23.3052C67.0791 23.4103 66.8379 23.5 66.5596 23.5742C66.2812 23.6484 65.9689 23.6855 65.6226 23.6855C65.1278 23.6855 64.6701 23.6082 64.2495 23.4536C63.8351 23.2928 63.4702 23.0701 63.1548 22.7856C62.8394 22.5011 62.592 22.1733 62.4126 21.8022C62.2332 21.425 62.1436 21.0168 62.1436 20.5776C62.1436 19.7798 62.391 19.1273 62.8857 18.6201C63.3805 18.113 64.064 17.7944 64.936 17.6646L67.7935 17.2471V17.0615C67.7935 16.6162 67.6574 16.2637 67.3853 16.0039C67.1131 15.7441 66.6709 15.6143 66.0586 15.6143C65.805 15.6143 65.5483 15.6452 65.2886 15.707C65.0288 15.7627 64.7783 15.8276 64.5371 15.9019C64.3021 15.9761 64.0825 16.0627 63.8784 16.1616C63.6743 16.2544 63.495 16.3379 63.3403 16.4121L62.3384 14.4546C62.9074 14.1392 63.5382 13.8794 64.231 13.6753C64.9299 13.4712 65.6535 13.3691 66.4019 13.3691C66.8595 13.3691 67.3203 13.4186 67.7842 13.5176C68.2542 13.6104 68.6779 13.7835 69.0552 14.0371C69.4386 14.2907 69.751 14.637 69.9922 15.0762C70.2334 15.5091 70.354 16.0627 70.354 16.7368V20.8188C70.354 21.1095 70.4282 21.326 70.5767 21.4683C70.7313 21.6043 70.9416 21.7311 71.2075 21.8486L70.0479 23.6855C69.5778 23.6361 69.2005 23.5155 68.916 23.3237C68.6315 23.1258 68.3965 22.8722 68.2109 22.563ZM75.0576 26.6357H72.4971V13.564H75.0576V14.4175C75.3359 14.1268 75.6792 13.8794 76.0874 13.6753C76.4956 13.4712 76.9904 13.3691 77.5718 13.3691C78.2274 13.3691 78.8211 13.5021 79.353 13.7681C79.8911 14.0278 80.3519 14.3896 80.7354 14.8535C81.1188 15.3112 81.4157 15.8555 81.626 16.4863C81.8363 17.1172 81.9414 17.8006 81.9414 18.5366C81.9414 19.2726 81.8332 19.9561 81.6167 20.5869C81.4002 21.2178 81.0972 21.762 80.7075 22.2197C80.3179 22.6774 79.8509 23.0361 79.3066 23.2959C78.7624 23.5557 78.1624 23.6855 77.5068 23.6855C77.2161 23.6855 76.9502 23.6577 76.709 23.6021C76.474 23.5526 76.2575 23.4814 76.0596 23.3887C75.8617 23.2959 75.6792 23.1877 75.5122 23.064C75.3452 22.9341 75.1937 22.7949 75.0576 22.6465V26.6357ZM74.9834 19.4551C74.9834 19.721 75.0298 19.9684 75.1226 20.1973C75.2215 20.4199 75.3607 20.6147 75.54 20.7817C75.7194 20.9487 75.9328 21.0786 76.1802 21.1714C76.4338 21.2642 76.7183 21.3105 77.0337 21.3105C77.3986 21.3105 77.7202 21.2456 77.9985 21.1157C78.283 20.9797 78.5212 20.791 78.7129 20.5498C78.9046 20.3086 79.05 20.0241 79.1489 19.6963C79.2479 19.3623 79.2974 18.9974 79.2974 18.6016V18.481C79.2974 18.0851 79.2479 17.7202 79.1489 17.3862C79.05 17.0522 78.9046 16.7646 78.7129 16.5234C78.5212 16.276 78.283 16.0843 77.9985 15.9482C77.7202 15.8122 77.3986 15.7441 77.0337 15.7441C76.7183 15.7441 76.4338 15.7905 76.1802 15.8833C75.9328 15.9761 75.7194 16.106 75.54 16.2729C75.3607 16.4399 75.2215 16.6379 75.1226 16.8667C75.0298 17.0955 74.9834 17.3429 74.9834 17.6089V19.4551ZM86.209 26.6357H83.6484V13.564H86.209V14.4175C86.4873 14.1268 86.8306 13.8794 87.2388 13.6753C87.647 13.4712 88.1418 13.3691 88.7231 13.3691C89.3787 13.3691 89.9725 13.5021 90.5044 13.7681C91.0425 14.0278 91.5033 14.3896 91.8867 14.8535C92.2702 15.3112 92.5671 15.8555 92.7773 16.4863C92.9876 17.1172 93.0928 17.8006 93.0928 18.5366C93.0928 19.2726 92.9845 19.9561 92.7681 20.5869C92.5516 21.2178 92.2485 21.762 91.8589 22.2197C91.4692 22.6774 91.0023 23.0361 90.458 23.2959C89.9137 23.5557 89.3138 23.6855 88.6582 23.6855C88.3675 23.6855 88.1016 23.6577 87.8604 23.6021C87.6253 23.5526 87.4089 23.4814 87.2109 23.3887C87.013 23.2959 86.8306 23.1877 86.6636 23.064C86.4966 22.9341 86.3451 22.7949 86.209 22.6465V26.6357ZM86.1348 19.4551C86.1348 19.721 86.1812 19.9684 86.2739 20.1973C86.3729 20.4199 86.512 20.6147 86.6914 20.7817C86.8708 20.9487 87.0841 21.0786 87.3315 21.1714C87.5851 21.2642 87.8696 21.3105 88.1851 21.3105C88.55 21.3105 88.8716 21.2456 89.1499 21.1157C89.4344 20.9797 89.6725 20.791 89.8643 20.5498C90.056 20.3086 90.2013 20.0241 90.3003 19.6963C90.3993 19.3623 90.4487 18.9974 90.4487 18.6016V18.481C90.4487 18.0851 90.3993 17.7202 90.3003 17.3862C90.2013 17.0522 90.056 16.7646 89.8643 16.5234C89.6725 16.276 89.4344 16.0843 89.1499 15.9482C88.8716 15.8122 88.55 15.7441 88.1851 15.7441C87.8696 15.7441 87.5851 15.7905 87.3315 15.8833C87.0841 15.9761 86.8708 16.106 86.6914 16.2729C86.512 16.4399 86.3729 16.6379 86.2739 16.8667C86.1812 17.0955 86.1348 17.3429 86.1348 17.6089V19.4551ZM96.9429 19.418C96.9862 19.7148 97.0789 19.987 97.2212 20.2344C97.3696 20.4818 97.5552 20.6951 97.7778 20.8745C98.0005 21.0477 98.2572 21.1838 98.5479 21.2827C98.8385 21.3817 99.1478 21.4312 99.4756 21.4312C99.8529 21.4312 100.261 21.36 100.7 21.2178C101.139 21.0693 101.541 20.856 101.906 20.5776L103.14 22.3774C102.676 22.7671 102.107 23.0825 101.433 23.3237C100.759 23.5649 100.042 23.6855 99.2808 23.6855C98.5942 23.6855 97.9479 23.568 97.3418 23.333C96.7357 23.098 96.2038 22.7578 95.7461 22.3125C95.2946 21.8672 94.9359 21.326 94.6699 20.689C94.4102 20.0519 94.2803 19.3345 94.2803 18.5366C94.2803 17.8068 94.3947 17.1265 94.6235 16.4956C94.8586 15.8647 95.1833 15.3174 95.5977 14.8535C96.0182 14.3896 96.5192 14.0278 97.1006 13.7681C97.682 13.5021 98.3252 13.3691 99.0303 13.3691C99.6859 13.3691 100.295 13.4897 100.858 13.731C101.421 13.966 101.909 14.3 102.324 14.7329C102.738 15.1597 103.063 15.673 103.298 16.2729C103.533 16.8729 103.65 17.5347 103.65 18.2583V19.418H96.9429ZM99.021 15.5957C98.4705 15.5957 98.0036 15.7812 97.6201 16.1523C97.2428 16.5173 97.0233 16.9595 96.9614 17.479H100.969C100.957 16.9533 100.765 16.508 100.394 16.1431C100.023 15.7782 99.5653 15.5957 99.021 15.5957ZM108.493 19.4644C108.178 19.5138 107.924 19.6252 107.732 19.7983C107.541 19.9653 107.445 20.1942 107.445 20.4849C107.445 20.8065 107.562 21.0848 107.797 21.3198C108.032 21.5487 108.379 21.6631 108.836 21.6631C109.319 21.6631 109.699 21.5239 109.978 21.2456C110.256 20.9673 110.395 20.5993 110.395 20.1416V19.1396L108.493 19.4644ZM110.812 22.563C110.707 22.6805 110.577 22.8073 110.423 22.9434C110.274 23.0732 110.095 23.1938 109.885 23.3052C109.681 23.4103 109.439 23.5 109.161 23.5742C108.883 23.6484 108.57 23.6855 108.224 23.6855C107.729 23.6855 107.272 23.6082 106.851 23.4536C106.437 23.2928 106.072 23.0701 105.756 22.7856C105.441 22.5011 105.194 22.1733 105.014 21.8022C104.835 21.425 104.745 21.0168 104.745 20.5776C104.745 19.7798 104.993 19.1273 105.487 18.6201C105.982 18.113 106.666 17.7944 107.538 17.6646L110.395 17.2471V17.0615C110.395 16.6162 110.259 16.2637 109.987 16.0039C109.715 15.7441 109.272 15.6143 108.66 15.6143C108.407 15.6143 108.15 15.6452 107.89 15.707C107.63 15.7627 107.38 15.8276 107.139 15.9019C106.904 15.9761 106.684 16.0627 106.48 16.1616C106.276 16.2544 106.097 16.3379 105.942 16.4121L104.94 14.4546C105.509 14.1392 106.14 13.8794 106.833 13.6753C107.531 13.4712 108.255 13.3691 109.003 13.3691C109.461 13.3691 109.922 13.4186 110.386 13.5176C110.856 13.6104 111.279 13.7835 111.657 14.0371C112.04 14.2907 112.353 14.637 112.594 15.0762C112.835 15.5091 112.956 16.0627 112.956 16.7368V20.8188C112.956 21.1095 113.03 21.326 113.178 21.4683C113.333 21.6043 113.543 21.7311 113.809 21.8486L112.649 23.6855C112.179 23.6361 111.802 23.5155 111.518 23.3237C111.233 23.1258 110.998 22.8722 110.812 22.563ZM115.062 10.1963H117.622V20.8003C117.622 21.0106 117.681 21.1714 117.798 21.2827C117.922 21.394 118.117 21.4497 118.383 21.4497C118.507 21.4497 118.612 21.4435 118.698 21.4312C118.791 21.4126 118.909 21.3879 119.051 21.3569L119.255 23.5371C119.082 23.5618 118.896 23.5866 118.698 23.6113C118.531 23.6299 118.336 23.6453 118.114 23.6577C117.897 23.6763 117.672 23.6855 117.437 23.6855C117.072 23.6855 116.744 23.6392 116.453 23.5464C116.162 23.4536 115.912 23.3175 115.702 23.1382C115.498 22.9526 115.34 22.7238 115.229 22.4517C115.117 22.1795 115.062 21.8641 115.062 21.5054V10.1963Z" fill="white"/>
</svg>
