<svg width="331" height="33" viewBox="0 0 331 33" fill="none" xmlns="http://www.w3.org/2000/svg">
<rect width="193" height="33" fill="#0B0C0C"/>
<path d="M10.3916 10.1963H13.082V21.0137H18.3516V23.5H10.3916V10.1963ZM21.877 19.418C21.9202 19.7148 22.013 19.987 22.1553 20.2344C22.3037 20.4818 22.4893 20.6951 22.7119 20.8745C22.9346 21.0477 23.1912 21.1838 23.4819 21.2827C23.7726 21.3817 24.0819 21.4312 24.4097 21.4312C24.7869 21.4312 25.1951 21.36 25.6343 21.2178C26.0734 21.0693 26.4754 20.856 26.8403 20.5776L28.0742 22.3774C27.6104 22.7671 27.0413 23.0825 26.3672 23.3237C25.693 23.5649 24.9756 23.6855 24.2148 23.6855C23.5283 23.6855 22.882 23.568 22.2759 23.333C21.6698 23.098 21.1379 22.7578 20.6802 22.3125C20.2287 21.8672 19.87 21.326 19.604 20.689C19.3442 20.0519 19.2144 19.3345 19.2144 18.5366C19.2144 17.8068 19.3288 17.1265 19.5576 16.4956C19.7926 15.8647 20.1174 15.3174 20.5317 14.8535C20.9523 14.3896 21.4533 14.0278 22.0347 13.7681C22.616 13.5021 23.2593 13.3691 23.9644 13.3691C24.62 13.3691 25.2292 13.4897 25.792 13.731C26.3548 13.966 26.8434 14.3 27.2578 14.7329C27.6722 15.1597 27.9969 15.673 28.2319 16.2729C28.467 16.8729 28.5845 17.5347 28.5845 18.2583V19.418H21.877ZM23.9551 15.5957C23.4046 15.5957 22.9377 15.7812 22.5542 16.1523C22.1769 16.5173 21.9574 16.9595 21.8955 17.479H25.9033C25.891 16.9533 25.6992 16.508 25.3281 16.1431C24.957 15.7782 24.4993 15.5957 23.9551 15.5957ZM36.2568 21.7373C36.028 22.0156 35.7064 22.2383 35.292 22.4053C34.8838 22.5661 34.4385 22.6465 33.9561 22.6465C33.2881 22.6465 32.6943 22.529 32.1748 22.2939C31.6553 22.0589 31.2161 21.7373 30.8574 21.3291C30.5049 20.9147 30.2327 20.4261 30.041 19.8633C29.8555 19.3005 29.7627 18.682 29.7627 18.0078C29.7627 17.3522 29.8555 16.7399 30.041 16.1709C30.2327 15.5957 30.5049 15.104 30.8574 14.6958C31.2161 14.2814 31.6553 13.9567 32.1748 13.7217C32.6943 13.4867 33.2881 13.3691 33.9561 13.3691C34.4385 13.3691 34.8838 13.4526 35.292 13.6196C35.7064 13.7866 36.028 14.0093 36.2568 14.2876V13.564H38.8267V23.4072C38.8267 24.0133 38.7122 24.5329 38.4834 24.9658C38.2546 25.4049 37.9391 25.7637 37.5371 26.042C37.1413 26.3203 36.6805 26.5213 36.1548 26.645C35.6291 26.7749 35.0693 26.8398 34.4756 26.8398C33.752 26.8398 32.9974 26.7533 32.2119 26.5801C31.4264 26.4131 30.7492 26.2028 30.1802 25.9492L30.9038 23.8804C31.077 23.9546 31.2904 24.035 31.5439 24.1216C31.7975 24.2144 32.0697 24.2948 32.3604 24.3628C32.651 24.4308 32.9541 24.4865 33.2695 24.5298C33.5911 24.5793 33.9035 24.604 34.2065 24.604C34.4725 24.604 34.7292 24.5762 34.9766 24.5205C35.224 24.471 35.4404 24.3844 35.626 24.2607C35.8177 24.1432 35.9692 23.9855 36.0806 23.7876C36.1981 23.5959 36.2568 23.3485 36.2568 23.0454V21.7373ZM32.3975 18.0449C32.3975 18.3727 32.4315 18.682 32.4995 18.9727C32.5737 19.2572 32.6882 19.5015 32.8428 19.7056C33.0036 19.9035 33.2077 20.0612 33.4551 20.1787C33.7025 20.29 34.0024 20.3457 34.355 20.3457C35.0539 20.3457 35.5518 20.1261 35.8486 19.687C36.1455 19.2417 36.2939 18.6943 36.2939 18.0449V17.9707C36.2939 17.6429 36.2599 17.3368 36.1919 17.0522C36.1239 16.7677 36.0125 16.5234 35.8579 16.3193C35.7033 16.1152 35.5023 15.9575 35.2549 15.8462C35.0137 15.7287 34.7137 15.6699 34.355 15.6699C33.6623 15.6699 33.1613 15.8895 32.8521 16.3286C32.549 16.7677 32.3975 17.3151 32.3975 17.9707V18.0449ZM44.2446 19.4644C43.9292 19.5138 43.6756 19.6252 43.4839 19.7983C43.2922 19.9653 43.1963 20.1942 43.1963 20.4849C43.1963 20.8065 43.3138 21.0848 43.5488 21.3198C43.7839 21.5487 44.1302 21.6631 44.5879 21.6631C45.0703 21.6631 45.4507 21.5239 45.729 21.2456C46.0073 20.9673 46.1465 20.5993 46.1465 20.1416V19.1396L44.2446 19.4644ZM46.564 22.563C46.4588 22.6805 46.3289 22.8073 46.1743 22.9434C46.0259 23.0732 45.8465 23.1938 45.6362 23.3052C45.4321 23.4103 45.1909 23.5 44.9126 23.5742C44.6343 23.6484 44.3219 23.6855 43.9756 23.6855C43.4808 23.6855 43.0231 23.6082 42.6025 23.4536C42.1882 23.2928 41.8232 23.0701 41.5078 22.7856C41.1924 22.5011 40.945 22.1733 40.7656 21.8022C40.5863 21.425 40.4966 21.0168 40.4966 20.5776C40.4966 19.7798 40.744 19.1273 41.2388 18.6201C41.7336 18.113 42.417 17.7944 43.2891 17.6646L46.1465 17.2471V17.0615C46.1465 16.6162 46.0104 16.2637 45.7383 16.0039C45.4661 15.7441 45.0239 15.6143 44.4116 15.6143C44.158 15.6143 43.9014 15.6452 43.6416 15.707C43.3818 15.7627 43.1313 15.8276 42.8901 15.9019C42.6551 15.9761 42.4355 16.0627 42.2314 16.1616C42.0273 16.2544 41.848 16.3379 41.6934 16.4121L40.6914 14.4546C41.2604 14.1392 41.8913 13.8794 42.584 13.6753C43.2829 13.4712 44.0065 13.3691 44.7549 13.3691C45.2126 13.3691 45.6733 13.4186 46.1372 13.5176C46.6073 13.6104 47.0309 13.7835 47.4082 14.0371C47.7917 14.2907 48.104 14.637 48.3452 15.0762C48.5864 15.5091 48.707 16.0627 48.707 16.7368V20.8188C48.707 21.1095 48.7812 21.326 48.9297 21.4683C49.0843 21.6043 49.2946 21.7311 49.5605 21.8486L48.4009 23.6855C47.9308 23.6361 47.5535 23.5155 47.269 23.3237C46.9845 23.1258 46.7495 22.8722 46.564 22.563ZM50.813 10.1963H53.3735V20.8003C53.3735 21.0106 53.4323 21.1714 53.5498 21.2827C53.6735 21.394 53.8683 21.4497 54.1343 21.4497C54.258 21.4497 54.3631 21.4435 54.4497 21.4312C54.5425 21.4126 54.66 21.3879 54.8022 21.3569L55.0063 23.5371C54.8332 23.5618 54.6476 23.5866 54.4497 23.6113C54.2827 23.6299 54.0879 23.6453 53.8652 23.6577C53.6488 23.6763 53.423 23.6855 53.188 23.6855C52.8231 23.6855 52.4953 23.6392 52.2046 23.5464C51.9139 23.4536 51.6634 23.3175 51.4531 23.1382C51.249 22.9526 51.0913 22.7238 50.98 22.4517C50.8687 22.1795 50.813 21.8641 50.813 21.5054V10.1963ZM56.3794 10.1963H58.9399V20.8003C58.9399 21.0106 58.9987 21.1714 59.1162 21.2827C59.2399 21.394 59.4347 21.4497 59.7007 21.4497C59.8244 21.4497 59.9295 21.4435 60.0161 21.4312C60.1089 21.4126 60.2264 21.3879 60.3687 21.3569L60.5728 23.5371C60.3996 23.5618 60.214 23.5866 60.0161 23.6113C59.8491 23.6299 59.6543 23.6453 59.4316 23.6577C59.2152 23.6763 58.9894 23.6855 58.7544 23.6855C58.3895 23.6855 58.0617 23.6392 57.771 23.5464C57.4803 23.4536 57.2298 23.3175 57.0195 23.1382C56.8154 22.9526 56.6577 22.7238 56.5464 22.4517C56.4351 22.1795 56.3794 21.8641 56.3794 21.5054V10.1963ZM63.0127 24.6597C63.3034 24.6597 63.5168 24.6071 63.6528 24.502C63.7951 24.3968 63.9064 24.2267 63.9868 23.9917L64.0796 23.6855L60.6377 13.564H63.4858L65.4619 20.4199L67.104 13.564H69.915L66.5659 24.7339C66.4546 25.105 66.3 25.4235 66.1021 25.6895C65.9041 25.9554 65.6691 26.1719 65.397 26.3389C65.1248 26.512 64.8218 26.6388 64.4878 26.7192C64.16 26.7996 63.8075 26.8398 63.4302 26.8398C63.2756 26.8398 63.0962 26.8337 62.8921 26.8213C62.6942 26.8089 62.487 26.7904 62.2705 26.7656C62.0602 26.7471 61.8499 26.7223 61.6396 26.6914C61.4355 26.6605 61.2469 26.6234 61.0737 26.5801L61.5562 24.4834C61.7046 24.5205 61.8592 24.5514 62.02 24.5762C62.1623 24.6009 62.3169 24.6195 62.4839 24.6318C62.6571 24.6504 62.8333 24.6597 63.0127 24.6597ZM74.4238 10.1963H79.5728C80.3644 10.1963 81.0633 10.3107 81.6694 10.5396C82.2756 10.7684 82.7827 11.0745 83.1909 11.458C83.5991 11.8415 83.9084 12.2837 84.1187 12.7847C84.3289 13.2795 84.4341 13.799 84.4341 14.3433C84.4341 14.7824 84.366 15.1999 84.23 15.5957C84.1001 15.9854 83.9176 16.341 83.6826 16.6626C83.4538 16.978 83.1816 17.2533 82.8662 17.4883C82.5508 17.7171 82.2106 17.8965 81.8457 18.0264L84.7588 23.5H81.6602L79.248 18.7129H77.1143V23.5H74.4238V10.1963ZM81.623 14.436C81.623 14.1701 81.5736 13.9227 81.4746 13.6938C81.3818 13.465 81.2365 13.2671 81.0386 13.1001C80.8468 12.9331 80.6056 12.8032 80.3149 12.7104C80.0243 12.6177 79.6872 12.5713 79.3037 12.5713H77.1143V16.3193H79.3037C79.6872 16.3193 80.0243 16.2729 80.3149 16.1802C80.6056 16.0812 80.8468 15.9482 81.0386 15.7812C81.2365 15.6081 81.3818 15.4071 81.4746 15.1782C81.5736 14.9494 81.623 14.702 81.623 14.436ZM88.1172 19.418C88.1605 19.7148 88.2533 19.987 88.3955 20.2344C88.5439 20.4818 88.7295 20.6951 88.9521 20.8745C89.1748 21.0477 89.4315 21.1838 89.7222 21.2827C90.0129 21.3817 90.3221 21.4312 90.6499 21.4312C91.0272 21.4312 91.4354 21.36 91.8745 21.2178C92.3136 21.0693 92.7157 20.856 93.0806 20.5776L94.3145 22.3774C93.8506 22.7671 93.2816 23.0825 92.6074 23.3237C91.9333 23.5649 91.2158 23.6855 90.4551 23.6855C89.7686 23.6855 89.1222 23.568 88.5161 23.333C87.91 23.098 87.3781 22.7578 86.9204 22.3125C86.4689 21.8672 86.1102 21.326 85.8442 20.689C85.5845 20.0519 85.4546 19.3345 85.4546 18.5366C85.4546 17.8068 85.569 17.1265 85.7979 16.4956C86.0329 15.8647 86.3576 15.3174 86.772 14.8535C87.1925 14.3896 87.6935 14.0278 88.2749 13.7681C88.8563 13.5021 89.4995 13.3691 90.2046 13.3691C90.8602 13.3691 91.4694 13.4897 92.0322 13.731C92.5951 13.966 93.0837 14.3 93.498 14.7329C93.9124 15.1597 94.2371 15.673 94.4722 16.2729C94.7072 16.8729 94.8247 17.5347 94.8247 18.2583V19.418H88.1172ZM90.1953 15.5957C89.6449 15.5957 89.1779 15.7812 88.7944 16.1523C88.4172 16.5173 88.1976 16.9595 88.1357 17.479H92.1436C92.1312 16.9533 91.9395 16.508 91.5684 16.1431C91.1973 15.7782 90.7396 15.5957 90.1953 15.5957ZM99.0181 26.6357H96.4575V13.564H99.0181V14.4175C99.2964 14.1268 99.6396 13.8794 100.048 13.6753C100.456 13.4712 100.951 13.3691 101.532 13.3691C102.188 13.3691 102.782 13.5021 103.313 13.7681C103.852 14.0278 104.312 14.3896 104.696 14.8535C105.079 15.3112 105.376 15.8555 105.586 16.4863C105.797 17.1172 105.902 17.8006 105.902 18.5366C105.902 19.2726 105.794 19.9561 105.577 20.5869C105.361 21.2178 105.058 21.762 104.668 22.2197C104.278 22.6774 103.811 23.0361 103.267 23.2959C102.723 23.5557 102.123 23.6855 101.467 23.6855C101.177 23.6855 100.911 23.6577 100.669 23.6021C100.434 23.5526 100.218 23.4814 100.02 23.3887C99.8221 23.2959 99.6396 23.1877 99.4727 23.064C99.3057 22.9341 99.1541 22.7949 99.0181 22.6465V26.6357ZM98.9438 19.4551C98.9438 19.721 98.9902 19.9684 99.083 20.1973C99.182 20.4199 99.3211 20.6147 99.5005 20.7817C99.6799 20.9487 99.8932 21.0786 100.141 21.1714C100.394 21.2642 100.679 21.3105 100.994 21.3105C101.359 21.3105 101.681 21.2456 101.959 21.1157C102.243 20.9797 102.482 20.791 102.673 20.5498C102.865 20.3086 103.01 20.0241 103.109 19.6963C103.208 19.3623 103.258 18.9974 103.258 18.6016V18.481C103.258 18.0851 103.208 17.7202 103.109 17.3862C103.01 17.0522 102.865 16.7646 102.673 16.5234C102.482 16.276 102.243 16.0843 101.959 15.9482C101.681 15.8122 101.359 15.7441 100.994 15.7441C100.679 15.7441 100.394 15.7905 100.141 15.8833C99.8932 15.9761 99.6799 16.106 99.5005 16.2729C99.3211 16.4399 99.182 16.6379 99.083 16.8667C98.9902 17.0955 98.9438 17.3429 98.9438 17.6089V19.4551ZM113.194 16.0503H112.925C112.56 16.0503 112.21 16.0874 111.876 16.1616C111.549 16.2358 111.258 16.3719 111.004 16.5698C110.751 16.7616 110.547 17.0275 110.392 17.3677C110.244 17.7078 110.169 18.1439 110.169 18.6758V23.5H107.609V13.564H110.169V14.6865C110.275 14.5195 110.411 14.3587 110.578 14.2041C110.745 14.0495 110.939 13.9134 111.162 13.7959C111.385 13.6722 111.635 13.5732 111.914 13.499C112.192 13.4248 112.492 13.3877 112.813 13.3877H113.194V16.0503ZM116.933 19.418C116.976 19.7148 117.069 19.987 117.211 20.2344C117.359 20.4818 117.545 20.6951 117.768 20.8745C117.99 21.0477 118.247 21.1838 118.538 21.2827C118.828 21.3817 119.138 21.4312 119.465 21.4312C119.843 21.4312 120.251 21.36 120.69 21.2178C121.129 21.0693 121.531 20.856 121.896 20.5776L123.13 22.3774C122.666 22.7671 122.097 23.0825 121.423 23.3237C120.749 23.5649 120.031 23.6855 119.271 23.6855C118.584 23.6855 117.938 23.568 117.332 23.333C116.725 23.098 116.194 22.7578 115.736 22.3125C115.284 21.8672 114.926 21.326 114.66 20.689C114.4 20.0519 114.27 19.3345 114.27 18.5366C114.27 17.8068 114.384 17.1265 114.613 16.4956C114.848 15.8647 115.173 15.3174 115.587 14.8535C116.008 14.3896 116.509 14.0278 117.09 13.7681C117.672 13.5021 118.315 13.3691 119.02 13.3691C119.676 13.3691 120.285 13.4897 120.848 13.731C121.41 13.966 121.899 14.3 122.313 14.7329C122.728 15.1597 123.053 15.673 123.288 16.2729C123.523 16.8729 123.64 17.5347 123.64 18.2583V19.418H116.933ZM119.011 15.5957C118.46 15.5957 117.993 15.7812 117.61 16.1523C117.233 16.5173 117.013 16.9595 116.951 17.479H120.959C120.947 16.9533 120.755 16.508 120.384 16.1431C120.013 15.7782 119.555 15.5957 119.011 15.5957ZM125.978 20.3271C126.343 20.6549 126.779 20.9364 127.286 21.1714C127.793 21.4064 128.307 21.5239 128.826 21.5239C129.203 21.5239 129.5 21.4528 129.717 21.3105C129.933 21.1621 130.042 20.9735 130.042 20.7446C130.042 20.355 129.624 20.0519 128.789 19.8354L128.065 19.6406C127.707 19.554 127.345 19.4365 126.98 19.2881C126.615 19.1335 126.278 18.9325 125.969 18.6851C125.666 18.4377 125.418 18.1377 125.227 17.7852C125.041 17.4264 124.948 16.9873 124.948 16.4678C124.948 16.0534 125.038 15.6606 125.217 15.2896C125.403 14.9123 125.663 14.5814 125.997 14.2969C126.337 14.0124 126.748 13.7866 127.23 13.6196C127.713 13.4526 128.251 13.3691 128.845 13.3691C129.692 13.3691 130.447 13.5021 131.108 13.7681C131.776 14.034 132.302 14.334 132.686 14.668L131.35 16.375C131.034 16.1462 130.66 15.9513 130.227 15.7905C129.8 15.6235 129.37 15.54 128.938 15.54C128.535 15.54 128.223 15.6143 128 15.7627C127.778 15.9049 127.667 16.0781 127.667 16.2822C127.667 16.4987 127.762 16.675 127.954 16.811C128.152 16.9409 128.437 17.0553 128.808 17.1543L129.884 17.4604C130.91 17.7511 131.646 18.1439 132.092 18.6387C132.537 19.1335 132.76 19.7581 132.76 20.5127C132.76 20.9333 132.673 21.3353 132.5 21.7188C132.327 22.096 132.073 22.4331 131.739 22.73C131.405 23.0269 130.991 23.2619 130.496 23.4351C130.001 23.6021 129.438 23.6855 128.808 23.6855C128.325 23.6855 127.871 23.6423 127.444 23.5557C127.023 23.4691 126.631 23.3516 126.266 23.2031C125.907 23.0485 125.582 22.8753 125.292 22.6836C125.001 22.4919 124.753 22.3001 124.549 22.1084L125.978 20.3271ZM136.563 19.418C136.607 19.7148 136.7 19.987 136.842 20.2344C136.99 20.4818 137.176 20.6951 137.398 20.8745C137.621 21.0477 137.878 21.1838 138.168 21.2827C138.459 21.3817 138.768 21.4312 139.096 21.4312C139.473 21.4312 139.882 21.36 140.321 21.2178C140.76 21.0693 141.162 20.856 141.527 20.5776L142.761 22.3774C142.297 22.7671 141.728 23.0825 141.054 23.3237C140.38 23.5649 139.662 23.6855 138.901 23.6855C138.215 23.6855 137.569 23.568 136.962 23.333C136.356 23.098 135.824 22.7578 135.367 22.3125C134.915 21.8672 134.556 21.326 134.291 20.689C134.031 20.0519 133.901 19.3345 133.901 18.5366C133.901 17.8068 134.015 17.1265 134.244 16.4956C134.479 15.8647 134.804 15.3174 135.218 14.8535C135.639 14.3896 136.14 14.0278 136.721 13.7681C137.303 13.5021 137.946 13.3691 138.651 13.3691C139.306 13.3691 139.916 13.4897 140.479 13.731C141.041 13.966 141.53 14.3 141.944 14.7329C142.359 15.1597 142.683 15.673 142.918 16.2729C143.153 16.8729 143.271 17.5347 143.271 18.2583V19.418H136.563ZM138.642 15.5957C138.091 15.5957 137.624 15.7812 137.241 16.1523C136.863 16.5173 136.644 16.9595 136.582 17.479H140.59C140.577 16.9533 140.386 16.508 140.015 16.1431C139.644 15.7782 139.186 15.5957 138.642 15.5957ZM144.904 13.564H147.464V14.4175C147.6 14.2814 147.752 14.1515 147.919 14.0278C148.092 13.8979 148.281 13.7866 148.485 13.6938C148.689 13.5949 148.915 13.5176 149.162 13.4619C149.416 13.4001 149.694 13.3691 149.997 13.3691C150.535 13.3691 151.018 13.4588 151.444 13.6382C151.871 13.8114 152.23 14.0526 152.521 14.3618C152.817 14.6711 153.043 15.0329 153.198 15.4473C153.352 15.8617 153.43 16.3101 153.43 16.7925V23.5H150.869V17.7202C150.869 17.3677 150.829 17.0708 150.749 16.8296C150.668 16.5822 150.557 16.3843 150.415 16.2358C150.278 16.0812 150.115 15.9699 149.923 15.9019C149.737 15.8276 149.533 15.7905 149.311 15.7905C149.051 15.7905 148.806 15.8369 148.578 15.9297C148.355 16.0225 148.16 16.1647 147.993 16.3564C147.826 16.542 147.696 16.777 147.604 17.0615C147.511 17.346 147.464 17.68 147.464 18.0635V23.5H144.904V13.564ZM159.237 20.5405C159.237 20.658 159.253 20.7694 159.284 20.8745C159.315 20.9797 159.367 21.0724 159.441 21.1528C159.522 21.2271 159.633 21.2858 159.775 21.3291C159.918 21.3724 160.1 21.394 160.323 21.394C160.416 21.394 160.521 21.391 160.638 21.3848C160.756 21.3724 160.873 21.36 160.991 21.3477C161.108 21.3353 161.216 21.3198 161.315 21.3013C161.421 21.2827 161.507 21.2673 161.575 21.2549L161.807 23.5186C161.566 23.5495 161.315 23.5773 161.056 23.6021C160.833 23.6268 160.586 23.6453 160.313 23.6577C160.041 23.6763 159.766 23.6855 159.488 23.6855C158.603 23.6855 157.914 23.4845 157.419 23.0825C156.924 22.6805 156.677 22.0404 156.677 21.1621V15.7905H154.886V13.564H156.677V10.7529L159.237 10.0664V13.564H161.844V15.7905H159.237V20.5405ZM165.602 19.418C165.645 19.7148 165.738 19.987 165.88 20.2344C166.028 20.4818 166.214 20.6951 166.437 20.8745C166.659 21.0477 166.916 21.1838 167.207 21.2827C167.497 21.3817 167.806 21.4312 168.134 21.4312C168.512 21.4312 168.92 21.36 169.359 21.2178C169.798 21.0693 170.2 20.856 170.565 20.5776L171.799 22.3774C171.335 22.7671 170.766 23.0825 170.092 23.3237C169.418 23.5649 168.7 23.6855 167.939 23.6855C167.253 23.6855 166.607 23.568 166 23.333C165.394 23.098 164.862 22.7578 164.405 22.3125C163.953 21.8672 163.595 21.326 163.329 20.689C163.069 20.0519 162.939 19.3345 162.939 18.5366C162.939 17.8068 163.053 17.1265 163.282 16.4956C163.517 15.8647 163.842 15.3174 164.256 14.8535C164.677 14.3896 165.178 14.0278 165.759 13.7681C166.341 13.5021 166.984 13.3691 167.689 13.3691C168.345 13.3691 168.954 13.4897 169.517 13.731C170.079 13.966 170.568 14.3 170.982 14.7329C171.397 15.1597 171.722 15.673 171.957 16.2729C172.192 16.8729 172.309 17.5347 172.309 18.2583V19.418H165.602ZM167.68 15.5957C167.129 15.5957 166.662 15.7812 166.279 16.1523C165.902 16.5173 165.682 16.9595 165.62 17.479H169.628C169.616 16.9533 169.424 16.508 169.053 16.1431C168.682 15.7782 168.224 15.5957 167.68 15.5957ZM180.325 23.5V22.6465C180.189 22.7949 180.037 22.9341 179.87 23.064C179.709 23.1877 179.527 23.2959 179.323 23.3887C179.125 23.4814 178.905 23.5526 178.664 23.6021C178.429 23.6577 178.166 23.6855 177.875 23.6855C177.22 23.6855 176.62 23.5557 176.076 23.2959C175.531 23.0361 175.064 22.6774 174.675 22.2197C174.285 21.762 173.982 21.2178 173.766 20.5869C173.555 19.9561 173.45 19.2726 173.45 18.5366C173.45 17.8006 173.555 17.1172 173.766 16.4863C173.976 15.8555 174.27 15.3112 174.647 14.8535C175.03 14.3896 175.491 14.0278 176.029 13.7681C176.567 13.5021 177.164 13.3691 177.82 13.3691C178.401 13.3691 178.893 13.4712 179.295 13.6753C179.703 13.8732 180.046 14.1206 180.325 14.4175V10.1963H182.885V23.5H180.325ZM180.399 17.6089C180.399 17.3429 180.349 17.0955 180.25 16.8667C180.158 16.6379 180.022 16.4399 179.842 16.2729C179.663 16.106 179.446 15.9761 179.193 15.8833C178.945 15.7905 178.664 15.7441 178.349 15.7441C177.984 15.7441 177.659 15.8122 177.375 15.9482C177.096 16.0843 176.861 16.276 176.669 16.5234C176.478 16.7646 176.332 17.0522 176.233 17.3862C176.134 17.7202 176.085 18.0851 176.085 18.481V18.6016C176.085 18.9974 176.134 19.3623 176.233 19.6963C176.332 20.0241 176.478 20.3086 176.669 20.5498C176.861 20.791 177.096 20.9797 177.375 21.1157C177.659 21.2456 177.984 21.3105 178.349 21.3105C178.664 21.3105 178.945 21.2642 179.193 21.1714C179.446 21.0786 179.663 20.9487 179.842 20.7817C180.022 20.6147 180.158 20.4199 180.25 20.1973C180.349 19.9684 180.399 19.721 180.399 19.4551V17.6089Z" fill="white"/>
<rect width="130" height="33" transform="translate(201)" fill="#EB3223"/>
<path d="M212.721 19.7612C212.894 19.9591 213.105 20.154 213.352 20.3457C213.599 20.5374 213.872 20.7106 214.168 20.8652C214.472 21.0137 214.799 21.1343 215.152 21.2271C215.504 21.3136 215.885 21.3569 216.293 21.3569C217.054 21.3569 217.635 21.1992 218.037 20.8838C218.445 20.5622 218.649 20.1725 218.649 19.7148C218.649 19.2386 218.47 18.8768 218.111 18.6294C217.759 18.382 217.196 18.1872 216.423 18.0449L216.005 17.9707C215.449 17.8717 214.895 17.7419 214.345 17.5811C213.794 17.4202 213.296 17.1883 212.851 16.8853C212.406 16.5822 212.044 16.1956 211.766 15.7256C211.487 15.2493 211.348 14.6494 211.348 13.9258C211.348 13.5052 211.441 13.0661 211.626 12.6084C211.812 12.1445 212.106 11.7209 212.508 11.3374C212.916 10.9478 213.439 10.6292 214.076 10.3818C214.719 10.1344 215.495 10.0107 216.404 10.0107C217.48 10.0107 218.439 10.1901 219.28 10.5488C220.128 10.9014 220.811 11.3683 221.331 11.9497L219.54 13.6196C219.175 13.2176 218.705 12.9022 218.13 12.6733C217.561 12.4445 216.973 12.3301 216.367 12.3301C215.668 12.3301 215.121 12.4631 214.725 12.729C214.335 12.995 214.141 13.3413 214.141 13.7681C214.141 14.0464 214.202 14.2783 214.326 14.4639C214.456 14.6494 214.635 14.804 214.864 14.9277C215.093 15.0452 215.368 15.1442 215.69 15.2246C216.012 15.305 216.37 15.3854 216.766 15.4658L216.979 15.5029C217.511 15.6019 218.04 15.7287 218.566 15.8833C219.092 16.0317 219.568 16.2544 219.995 16.5513C220.428 16.842 220.777 17.2254 221.043 17.7017C221.309 18.1717 221.442 18.7747 221.442 19.5107C221.442 20.1787 221.303 20.7694 221.024 21.2827C220.746 21.7961 220.378 22.2352 219.92 22.6001C219.463 22.9588 218.934 23.231 218.334 23.4165C217.734 23.5959 217.109 23.6855 216.46 23.6855C215.804 23.6855 215.195 23.6299 214.632 23.5186C214.076 23.4072 213.569 23.2495 213.111 23.0454C212.659 22.8413 212.254 22.6125 211.896 22.3589C211.543 22.1053 211.234 21.8332 210.968 21.5425L212.721 19.7612ZM233.502 16.7183C233.502 17.3182 233.456 17.9058 233.363 18.481C233.271 19.0562 233.125 19.6035 232.927 20.123C232.736 20.6364 232.488 21.1126 232.185 21.5518C231.882 21.9847 231.517 22.3589 231.09 22.6743C230.664 22.9897 230.172 23.2371 229.615 23.4165C229.065 23.5959 228.443 23.6855 227.75 23.6855C227.181 23.6855 226.656 23.6175 226.173 23.4814C225.691 23.3392 225.255 23.1475 224.865 22.9062C224.476 22.665 224.139 22.3805 223.854 22.0527C223.569 21.7188 223.347 21.36 223.186 20.9766L225.672 20.0024C225.895 20.423 226.192 20.7415 226.563 20.958C226.94 21.1683 227.367 21.2734 227.843 21.2734C228.307 21.2734 228.715 21.1838 229.068 21.0044C229.42 20.8188 229.711 20.5684 229.94 20.2529C230.175 19.9375 230.351 19.5726 230.469 19.1582C230.586 18.7376 230.642 18.2923 230.636 17.8223C230.481 17.9769 230.299 18.1253 230.088 18.2676C229.878 18.4098 229.643 18.5366 229.383 18.6479C229.13 18.7531 228.851 18.8397 228.548 18.9077C228.251 18.9696 227.939 19.0005 227.611 19.0005C226.962 19.0005 226.356 18.8953 225.793 18.6851C225.236 18.4686 224.751 18.1717 224.336 17.7944C223.928 17.411 223.607 16.9564 223.372 16.4307C223.137 15.9049 223.019 15.3298 223.019 14.7051C223.019 14.0371 223.137 13.4155 223.372 12.8403C223.613 12.2651 223.95 11.7703 224.383 11.356C224.822 10.9354 225.348 10.6076 225.96 10.3726C226.572 10.1313 227.256 10.0107 228.01 10.0107C228.839 10.0107 229.59 10.1592 230.265 10.4561C230.939 10.7467 231.514 11.1673 231.99 11.7178C232.473 12.2682 232.844 12.9393 233.104 13.731C233.369 14.5226 233.502 15.4163 233.502 16.4121V16.7183ZM230.506 14.5474C230.506 14.2319 230.45 13.9382 230.339 13.666C230.228 13.3939 230.067 13.1589 229.856 12.9609C229.652 12.7568 229.405 12.5991 229.114 12.4878C228.824 12.3703 228.502 12.3115 228.149 12.3115C227.785 12.3115 227.457 12.3703 227.166 12.4878C226.875 12.5991 226.628 12.7568 226.424 12.9609C226.22 13.1589 226.062 13.3939 225.951 13.666C225.846 13.9382 225.793 14.2319 225.793 14.5474C225.793 14.8566 225.846 15.1473 225.951 15.4194C226.062 15.6916 226.22 15.9297 226.424 16.1338C226.628 16.3317 226.875 16.4894 227.166 16.6069C227.457 16.7183 227.785 16.7739 228.149 16.7739C228.502 16.7739 228.824 16.7183 229.114 16.6069C229.405 16.4894 229.652 16.3317 229.856 16.1338C230.067 15.9297 230.228 15.6916 230.339 15.4194C230.45 15.1473 230.506 14.8566 230.506 14.5474ZM241.333 23.5V20.4941H234.699V17.6274L240.59 10.1963H244.032V18.0635H245.971V20.4941H244.032V23.5H241.333ZM241.333 18.0635V12.8403L237.195 18.0635H241.333ZM253.801 10.1963C254.358 10.1963 254.874 10.2798 255.351 10.4468C255.827 10.6076 256.241 10.8395 256.594 11.1426C256.946 11.4456 257.222 11.8136 257.419 12.2466C257.617 12.6733 257.716 13.1496 257.716 13.6753C257.716 13.9474 257.676 14.2165 257.596 14.4824C257.521 14.7484 257.41 14.9989 257.262 15.2339C257.113 15.4627 256.934 15.673 256.724 15.8647C256.513 16.0565 256.275 16.2142 256.009 16.3379C256.226 16.4121 256.476 16.5234 256.761 16.6719C257.051 16.8203 257.327 17.0244 257.586 17.2842C257.846 17.5439 258.066 17.8656 258.245 18.249C258.424 18.6263 258.514 19.084 258.514 19.6221C258.514 20.2962 258.384 20.8776 258.125 21.3662C257.871 21.8548 257.525 22.2568 257.085 22.5723C256.653 22.8877 256.142 23.1227 255.555 23.2773C254.973 23.4258 254.358 23.5 253.708 23.5H247.882V10.1963H253.801ZM255.759 19.5293C255.759 19.1706 255.694 18.8768 255.564 18.6479C255.434 18.4191 255.261 18.2367 255.044 18.1006C254.834 17.9645 254.593 17.8717 254.321 17.8223C254.049 17.7666 253.77 17.7388 253.486 17.7388H250.573V21.3755H253.486C253.77 21.3755 254.049 21.3477 254.321 21.292C254.593 21.2363 254.834 21.1374 255.044 20.9951C255.261 20.8529 255.434 20.6642 255.564 20.4292C255.694 20.1942 255.759 19.8942 255.759 19.5293ZM255.007 13.9443C255.007 13.4372 254.847 13.0413 254.525 12.7568C254.203 12.4723 253.684 12.3301 252.966 12.3301H250.573V15.4658H252.966C253.671 15.4658 254.188 15.3328 254.516 15.0669C254.843 14.7948 255.007 14.4206 255.007 13.9443ZM266.892 19.4644C266.576 19.5138 266.323 19.6252 266.131 19.7983C265.939 19.9653 265.843 20.1942 265.843 20.4849C265.843 20.8065 265.961 21.0848 266.196 21.3198C266.431 21.5487 266.777 21.6631 267.235 21.6631C267.717 21.6631 268.098 21.5239 268.376 21.2456C268.654 20.9673 268.793 20.5993 268.793 20.1416V19.1396L266.892 19.4644ZM269.211 22.563C269.106 22.6805 268.976 22.8073 268.821 22.9434C268.673 23.0732 268.493 23.1938 268.283 23.3052C268.079 23.4103 267.838 23.5 267.56 23.5742C267.281 23.6484 266.969 23.6855 266.623 23.6855C266.128 23.6855 265.67 23.6082 265.25 23.4536C264.835 23.2928 264.47 23.0701 264.155 22.7856C263.839 22.5011 263.592 22.1733 263.413 21.8022C263.233 21.425 263.144 21.0168 263.144 20.5776C263.144 19.7798 263.391 19.1273 263.886 18.6201C264.381 18.113 265.064 17.7944 265.936 17.6646L268.793 17.2471V17.0615C268.793 16.6162 268.657 16.2637 268.385 16.0039C268.113 15.7441 267.671 15.6143 267.059 15.6143C266.805 15.6143 266.548 15.6452 266.289 15.707C266.029 15.7627 265.778 15.8276 265.537 15.9019C265.302 15.9761 265.083 16.0627 264.878 16.1616C264.674 16.2544 264.495 16.3379 264.34 16.4121L263.338 14.4546C263.907 14.1392 264.538 13.8794 265.231 13.6753C265.93 13.4712 266.653 13.3691 267.402 13.3691C267.86 13.3691 268.32 13.4186 268.784 13.5176C269.254 13.6104 269.678 13.7835 270.055 14.0371C270.439 14.2907 270.751 14.637 270.992 15.0762C271.233 15.5091 271.354 16.0627 271.354 16.7368V20.8188C271.354 21.1095 271.428 21.326 271.577 21.4683C271.731 21.6043 271.942 21.7311 272.208 21.8486L271.048 23.6855C270.578 23.6361 270.201 23.5155 269.916 23.3237C269.632 23.1258 269.396 22.8722 269.211 22.563ZM276.058 26.6357H273.497V13.564H276.058V14.4175C276.336 14.1268 276.679 13.8794 277.087 13.6753C277.496 13.4712 277.99 13.3691 278.572 13.3691C279.227 13.3691 279.821 13.5021 280.353 13.7681C280.891 14.0278 281.352 14.3896 281.735 14.8535C282.119 15.3112 282.416 15.8555 282.626 16.4863C282.836 17.1172 282.941 17.8006 282.941 18.5366C282.941 19.2726 282.833 19.9561 282.617 20.5869C282.4 21.2178 282.097 21.762 281.708 22.2197C281.318 22.6774 280.851 23.0361 280.307 23.2959C279.762 23.5557 279.162 23.6855 278.507 23.6855C278.216 23.6855 277.95 23.6577 277.709 23.6021C277.474 23.5526 277.257 23.4814 277.06 23.3887C276.862 23.2959 276.679 23.1877 276.512 23.064C276.345 22.9341 276.194 22.7949 276.058 22.6465V26.6357ZM275.983 19.4551C275.983 19.721 276.03 19.9684 276.123 20.1973C276.222 20.4199 276.361 20.6147 276.54 20.7817C276.719 20.9487 276.933 21.0786 277.18 21.1714C277.434 21.2642 277.718 21.3105 278.034 21.3105C278.399 21.3105 278.72 21.2456 278.999 21.1157C279.283 20.9797 279.521 20.791 279.713 20.5498C279.905 20.3086 280.05 20.0241 280.149 19.6963C280.248 19.3623 280.297 18.9974 280.297 18.6016V18.481C280.297 18.0851 280.248 17.7202 280.149 17.3862C280.05 17.0522 279.905 16.7646 279.713 16.5234C279.521 16.276 279.283 16.0843 278.999 15.9482C278.72 15.8122 278.399 15.7441 278.034 15.7441C277.718 15.7441 277.434 15.7905 277.18 15.8833C276.933 15.9761 276.719 16.106 276.54 16.2729C276.361 16.4399 276.222 16.6379 276.123 16.8667C276.03 17.0955 275.983 17.3429 275.983 17.6089V19.4551ZM287.209 26.6357H284.648V13.564H287.209V14.4175C287.487 14.1268 287.831 13.8794 288.239 13.6753C288.647 13.4712 289.142 13.3691 289.723 13.3691C290.379 13.3691 290.972 13.5021 291.504 13.7681C292.042 14.0278 292.503 14.3896 292.887 14.8535C293.27 15.3112 293.567 15.8555 293.777 16.4863C293.988 17.1172 294.093 17.8006 294.093 18.5366C294.093 19.2726 293.985 19.9561 293.768 20.5869C293.552 21.2178 293.249 21.762 292.859 22.2197C292.469 22.6774 292.002 23.0361 291.458 23.2959C290.914 23.5557 290.314 23.6855 289.658 23.6855C289.368 23.6855 289.102 23.6577 288.86 23.6021C288.625 23.5526 288.409 23.4814 288.211 23.3887C288.013 23.2959 287.831 23.1877 287.664 23.064C287.497 22.9341 287.345 22.7949 287.209 22.6465V26.6357ZM287.135 19.4551C287.135 19.721 287.181 19.9684 287.274 20.1973C287.373 20.4199 287.512 20.6147 287.691 20.7817C287.871 20.9487 288.084 21.0786 288.332 21.1714C288.585 21.2642 288.87 21.3105 289.185 21.3105C289.55 21.3105 289.872 21.2456 290.15 21.1157C290.434 20.9797 290.673 20.791 290.864 20.5498C291.056 20.3086 291.201 20.0241 291.3 19.6963C291.399 19.3623 291.449 18.9974 291.449 18.6016V18.481C291.449 18.0851 291.399 17.7202 291.3 17.3862C291.201 17.0522 291.056 16.7646 290.864 16.5234C290.673 16.276 290.434 16.0843 290.15 15.9482C289.872 15.8122 289.55 15.7441 289.185 15.7441C288.87 15.7441 288.585 15.7905 288.332 15.8833C288.084 15.9761 287.871 16.106 287.691 16.2729C287.512 16.4399 287.373 16.6379 287.274 16.8667C287.181 17.0955 287.135 17.3429 287.135 17.6089V19.4551ZM297.943 19.418C297.986 19.7148 298.079 19.987 298.221 20.2344C298.37 20.4818 298.555 20.6951 298.778 20.8745C299 21.0477 299.257 21.1838 299.548 21.2827C299.839 21.3817 300.148 21.4312 300.476 21.4312C300.853 21.4312 301.261 21.36 301.7 21.2178C302.139 21.0693 302.541 20.856 302.906 20.5776L304.14 22.3774C303.676 22.7671 303.107 23.0825 302.433 23.3237C301.759 23.5649 301.042 23.6855 300.281 23.6855C299.594 23.6855 298.948 23.568 298.342 23.333C297.736 23.098 297.204 22.7578 296.746 22.3125C296.295 21.8672 295.936 21.326 295.67 20.689C295.41 20.0519 295.28 19.3345 295.28 18.5366C295.28 17.8068 295.395 17.1265 295.624 16.4956C295.859 15.8647 296.183 15.3174 296.598 14.8535C297.018 14.3896 297.519 14.0278 298.101 13.7681C298.682 13.5021 299.325 13.3691 300.03 13.3691C300.686 13.3691 301.295 13.4897 301.858 13.731C302.421 13.966 302.909 14.3 303.324 14.7329C303.738 15.1597 304.063 15.673 304.298 16.2729C304.533 16.8729 304.65 17.5347 304.65 18.2583V19.418H297.943ZM300.021 15.5957C299.471 15.5957 299.004 15.7812 298.62 16.1523C298.243 16.5173 298.023 16.9595 297.961 17.479H301.969C301.957 16.9533 301.765 16.508 301.394 16.1431C301.023 15.7782 300.565 15.5957 300.021 15.5957ZM309.493 19.4644C309.178 19.5138 308.924 19.6252 308.732 19.7983C308.541 19.9653 308.445 20.1942 308.445 20.4849C308.445 20.8065 308.562 21.0848 308.797 21.3198C309.032 21.5487 309.379 21.6631 309.836 21.6631C310.319 21.6631 310.699 21.5239 310.978 21.2456C311.256 20.9673 311.395 20.5993 311.395 20.1416V19.1396L309.493 19.4644ZM311.812 22.563C311.707 22.6805 311.577 22.8073 311.423 22.9434C311.274 23.0732 311.095 23.1938 310.885 23.3052C310.681 23.4103 310.439 23.5 310.161 23.5742C309.883 23.6484 309.57 23.6855 309.224 23.6855C308.729 23.6855 308.272 23.6082 307.851 23.4536C307.437 23.2928 307.072 23.0701 306.756 22.7856C306.441 22.5011 306.194 22.1733 306.014 21.8022C305.835 21.425 305.745 21.0168 305.745 20.5776C305.745 19.7798 305.993 19.1273 306.487 18.6201C306.982 18.113 307.666 17.7944 308.538 17.6646L311.395 17.2471V17.0615C311.395 16.6162 311.259 16.2637 310.987 16.0039C310.715 15.7441 310.272 15.6143 309.66 15.6143C309.407 15.6143 309.15 15.6452 308.89 15.707C308.63 15.7627 308.38 15.8276 308.139 15.9019C307.904 15.9761 307.684 16.0627 307.48 16.1616C307.276 16.2544 307.097 16.3379 306.942 16.4121L305.94 14.4546C306.509 14.1392 307.14 13.8794 307.833 13.6753C308.531 13.4712 309.255 13.3691 310.003 13.3691C310.461 13.3691 310.922 13.4186 311.386 13.5176C311.856 13.6104 312.279 13.7835 312.657 14.0371C313.04 14.2907 313.353 14.637 313.594 15.0762C313.835 15.5091 313.956 16.0627 313.956 16.7368V20.8188C313.956 21.1095 314.03 21.326 314.178 21.4683C314.333 21.6043 314.543 21.7311 314.809 21.8486L313.649 23.6855C313.179 23.6361 312.802 23.5155 312.518 23.3237C312.233 23.1258 311.998 22.8722 311.812 22.563ZM316.062 10.1963H318.622V20.8003C318.622 21.0106 318.681 21.1714 318.798 21.2827C318.922 21.394 319.117 21.4497 319.383 21.4497C319.507 21.4497 319.612 21.4435 319.698 21.4312C319.791 21.4126 319.909 21.3879 320.051 21.3569L320.255 23.5371C320.082 23.5618 319.896 23.5866 319.698 23.6113C319.531 23.6299 319.336 23.6453 319.114 23.6577C318.897 23.6763 318.672 23.6855 318.437 23.6855C318.072 23.6855 317.744 23.6392 317.453 23.5464C317.162 23.4536 316.912 23.3175 316.702 23.1382C316.498 22.9526 316.34 22.7238 316.229 22.4517C316.117 22.1795 316.062 21.8641 316.062 21.5054V10.1963Z" fill="white"/>
</svg>
