<svg width="559" height="27" viewBox="0 0 559 27" fill="none" xmlns="http://www.w3.org/2000/svg">
<rect width="259" height="27" fill="#0B0C0C"/>
<path d="M8.3916 5.69629H11.082V16.5137H16.3516V19H8.3916V5.69629ZM19.877 14.918C19.9202 15.2148 20.013 15.487 20.1553 15.7344C20.3037 15.9818 20.4893 16.1951 20.7119 16.3745C20.9346 16.5477 21.1912 16.6838 21.4819 16.7827C21.7726 16.8817 22.0819 16.9312 22.4097 16.9312C22.7869 16.9312 23.1951 16.86 23.6343 16.7178C24.0734 16.5693 24.4754 16.356 24.8403 16.0776L26.0742 17.8774C25.6104 18.2671 25.0413 18.5825 24.3672 18.8237C23.693 19.0649 22.9756 19.1855 22.2148 19.1855C21.5283 19.1855 20.882 19.068 20.2759 18.833C19.6698 18.598 19.1379 18.2578 18.6802 17.8125C18.2287 17.3672 17.87 16.826 17.604 16.189C17.3442 15.5519 17.2144 14.8345 17.2144 14.0366C17.2144 13.3068 17.3288 12.6265 17.5576 11.9956C17.7926 11.3647 18.1174 10.8174 18.5317 10.3535C18.9523 9.88965 19.4533 9.52783 20.0347 9.26807C20.616 9.00212 21.2593 8.86914 21.9644 8.86914C22.62 8.86914 23.2292 8.98975 23.792 9.23096C24.3548 9.46598 24.8434 9.79997 25.2578 10.2329C25.6722 10.6597 25.9969 11.173 26.2319 11.7729C26.467 12.3729 26.5845 13.0347 26.5845 13.7583V14.918H19.877ZM21.9551 11.0957C21.4046 11.0957 20.9377 11.2812 20.5542 11.6523C20.1769 12.0173 19.9574 12.4595 19.8955 12.979H23.9033C23.891 12.4533 23.6992 12.008 23.3281 11.6431C22.957 11.2782 22.4993 11.0957 21.9551 11.0957ZM34.2568 17.2373C34.028 17.5156 33.7064 17.7383 33.292 17.9053C32.8838 18.0661 32.4385 18.1465 31.9561 18.1465C31.2881 18.1465 30.6943 18.029 30.1748 17.7939C29.6553 17.5589 29.2161 17.2373 28.8574 16.8291C28.5049 16.4147 28.2327 15.9261 28.041 15.3633C27.8555 14.8005 27.7627 14.182 27.7627 13.5078C27.7627 12.8522 27.8555 12.2399 28.041 11.6709C28.2327 11.0957 28.5049 10.604 28.8574 10.1958C29.2161 9.78141 29.6553 9.45671 30.1748 9.22168C30.6943 8.98665 31.2881 8.86914 31.9561 8.86914C32.4385 8.86914 32.8838 8.95264 33.292 9.11963C33.7064 9.28662 34.028 9.50928 34.2568 9.7876V9.06396H36.8267V18.9072C36.8267 19.5133 36.7122 20.0329 36.4834 20.4658C36.2546 20.9049 35.9391 21.2637 35.5371 21.542C35.1413 21.8203 34.6805 22.0213 34.1548 22.145C33.6291 22.2749 33.0693 22.3398 32.4756 22.3398C31.752 22.3398 30.9974 22.2533 30.2119 22.0801C29.4264 21.9131 28.7492 21.7028 28.1802 21.4492L28.9038 19.3804C29.077 19.4546 29.2904 19.535 29.5439 19.6216C29.7975 19.7144 30.0697 19.7948 30.3604 19.8628C30.651 19.9308 30.9541 19.9865 31.2695 20.0298C31.5911 20.0793 31.9035 20.104 32.2065 20.104C32.4725 20.104 32.7292 20.0762 32.9766 20.0205C33.224 19.971 33.4404 19.8844 33.626 19.7607C33.8177 19.6432 33.9692 19.4855 34.0806 19.2876C34.1981 19.0959 34.2568 18.8485 34.2568 18.5454V17.2373ZM30.3975 13.5449C30.3975 13.8727 30.4315 14.182 30.4995 14.4727C30.5737 14.7572 30.6882 15.0015 30.8428 15.2056C31.0036 15.4035 31.2077 15.5612 31.4551 15.6787C31.7025 15.79 32.0024 15.8457 32.355 15.8457C33.0539 15.8457 33.5518 15.6261 33.8486 15.187C34.1455 14.7417 34.2939 14.1943 34.2939 13.5449V13.4707C34.2939 13.1429 34.2599 12.8368 34.1919 12.5522C34.1239 12.2677 34.0125 12.0234 33.8579 11.8193C33.7033 11.6152 33.5023 11.4575 33.2549 11.3462C33.0137 11.2287 32.7137 11.1699 32.355 11.1699C31.6623 11.1699 31.1613 11.3895 30.8521 11.8286C30.549 12.2677 30.3975 12.8151 30.3975 13.4707V13.5449ZM42.2446 14.9644C41.9292 15.0138 41.6756 15.1252 41.4839 15.2983C41.2922 15.4653 41.1963 15.6942 41.1963 15.9849C41.1963 16.3065 41.3138 16.5848 41.5488 16.8198C41.7839 17.0487 42.1302 17.1631 42.5879 17.1631C43.0703 17.1631 43.4507 17.0239 43.729 16.7456C44.0073 16.4673 44.1465 16.0993 44.1465 15.6416V14.6396L42.2446 14.9644ZM44.564 18.063C44.4588 18.1805 44.3289 18.3073 44.1743 18.4434C44.0259 18.5732 43.8465 18.6938 43.6362 18.8052C43.4321 18.9103 43.1909 19 42.9126 19.0742C42.6343 19.1484 42.3219 19.1855 41.9756 19.1855C41.4808 19.1855 41.0231 19.1082 40.6025 18.9536C40.1882 18.7928 39.8232 18.5701 39.5078 18.2856C39.1924 18.0011 38.945 17.6733 38.7656 17.3022C38.5863 16.925 38.4966 16.5168 38.4966 16.0776C38.4966 15.2798 38.744 14.6273 39.2388 14.1201C39.7336 13.613 40.417 13.2944 41.2891 13.1646L44.1465 12.7471V12.5615C44.1465 12.1162 44.0104 11.7637 43.7383 11.5039C43.4661 11.2441 43.0239 11.1143 42.4116 11.1143C42.158 11.1143 41.9014 11.1452 41.6416 11.207C41.3818 11.2627 41.1313 11.3276 40.8901 11.4019C40.6551 11.4761 40.4355 11.5627 40.2314 11.6616C40.0273 11.7544 39.848 11.8379 39.6934 11.9121L38.6914 9.95459C39.2604 9.63916 39.8913 9.37939 40.584 9.17529C41.2829 8.97119 42.0065 8.86914 42.7549 8.86914C43.2126 8.86914 43.6733 8.91862 44.1372 9.01758C44.6073 9.11035 45.0309 9.28353 45.4082 9.53711C45.7917 9.79069 46.104 10.137 46.3452 10.5762C46.5864 11.0091 46.707 11.5627 46.707 12.2368V16.3188C46.707 16.6095 46.7812 16.826 46.9297 16.9683C47.0843 17.1043 47.2946 17.2311 47.5605 17.3486L46.4009 19.1855C45.9308 19.1361 45.5535 19.0155 45.269 18.8237C44.9845 18.6258 44.7495 18.3722 44.564 18.063ZM48.813 5.69629H51.3735V16.3003C51.3735 16.5106 51.4323 16.6714 51.5498 16.7827C51.6735 16.894 51.8683 16.9497 52.1343 16.9497C52.258 16.9497 52.3631 16.9435 52.4497 16.9312C52.5425 16.9126 52.66 16.8879 52.8022 16.8569L53.0063 19.0371C52.8332 19.0618 52.6476 19.0866 52.4497 19.1113C52.2827 19.1299 52.0879 19.1453 51.8652 19.1577C51.6488 19.1763 51.423 19.1855 51.188 19.1855C50.8231 19.1855 50.4953 19.1392 50.2046 19.0464C49.9139 18.9536 49.6634 18.8175 49.4531 18.6382C49.249 18.4526 49.0913 18.2238 48.98 17.9517C48.8687 17.6795 48.813 17.3641 48.813 17.0054V5.69629ZM54.3794 5.69629H56.9399V16.3003C56.9399 16.5106 56.9987 16.6714 57.1162 16.7827C57.2399 16.894 57.4347 16.9497 57.7007 16.9497C57.8244 16.9497 57.9295 16.9435 58.0161 16.9312C58.1089 16.9126 58.2264 16.8879 58.3687 16.8569L58.5728 19.0371C58.3996 19.0618 58.214 19.0866 58.0161 19.1113C57.8491 19.1299 57.6543 19.1453 57.4316 19.1577C57.2152 19.1763 56.9894 19.1855 56.7544 19.1855C56.3895 19.1855 56.0617 19.1392 55.771 19.0464C55.4803 18.9536 55.2298 18.8175 55.0195 18.6382C54.8154 18.4526 54.6577 18.2238 54.5464 17.9517C54.4351 17.6795 54.3794 17.3641 54.3794 17.0054V5.69629ZM61.0127 20.1597C61.3034 20.1597 61.5168 20.1071 61.6528 20.002C61.7951 19.8968 61.9064 19.7267 61.9868 19.4917L62.0796 19.1855L58.6377 9.06396H61.4858L63.4619 15.9199L65.104 9.06396H67.915L64.5659 20.2339C64.4546 20.605 64.3 20.9235 64.1021 21.1895C63.9041 21.4554 63.6691 21.6719 63.397 21.8389C63.1248 22.012 62.8218 22.1388 62.4878 22.2192C62.16 22.2996 61.8075 22.3398 61.4302 22.3398C61.2756 22.3398 61.0962 22.3337 60.8921 22.3213C60.6942 22.3089 60.487 22.2904 60.2705 22.2656C60.0602 22.2471 59.8499 22.2223 59.6396 22.1914C59.4355 22.1605 59.2469 22.1234 59.0737 22.0801L59.5562 19.9834C59.7046 20.0205 59.8592 20.0514 60.02 20.0762C60.1623 20.1009 60.3169 20.1195 60.4839 20.1318C60.6571 20.1504 60.8333 20.1597 61.0127 20.1597ZM77.7212 11.5503H77.4521C77.0872 11.5503 76.7378 11.5874 76.4038 11.6616C76.076 11.7358 75.7853 11.8719 75.5317 12.0698C75.2782 12.2616 75.0741 12.5275 74.9194 12.8677C74.771 13.2078 74.6968 13.6439 74.6968 14.1758V19H72.1362V9.06396H74.6968V10.1865C74.8019 10.0195 74.938 9.85872 75.105 9.7041C75.272 9.54948 75.4668 9.41341 75.6895 9.2959C75.9121 9.1722 76.1626 9.07324 76.4409 8.99902C76.7192 8.9248 77.0192 8.8877 77.3408 8.8877H77.7212V11.5503ZM81.46 14.918C81.5033 15.2148 81.596 15.487 81.7383 15.7344C81.8867 15.9818 82.0723 16.1951 82.2949 16.3745C82.5176 16.5477 82.7743 16.6838 83.0649 16.7827C83.3556 16.8817 83.6649 16.9312 83.9927 16.9312C84.37 16.9312 84.7782 16.86 85.2173 16.7178C85.6564 16.5693 86.0584 16.356 86.4233 16.0776L87.6572 17.8774C87.1934 18.2671 86.6243 18.5825 85.9502 18.8237C85.276 19.0649 84.5586 19.1855 83.7979 19.1855C83.1113 19.1855 82.465 19.068 81.8589 18.833C81.2528 18.598 80.7209 18.2578 80.2632 17.8125C79.8117 17.3672 79.453 16.826 79.187 16.189C78.9272 15.5519 78.7974 14.8345 78.7974 14.0366C78.7974 13.3068 78.9118 12.6265 79.1406 11.9956C79.3757 11.3647 79.7004 10.8174 80.1147 10.3535C80.5353 9.88965 81.0363 9.52783 81.6177 9.26807C82.1991 9.00212 82.8423 8.86914 83.5474 8.86914C84.203 8.86914 84.8122 8.98975 85.375 9.23096C85.9378 9.46598 86.4264 9.79997 86.8408 10.2329C87.2552 10.6597 87.5799 11.173 87.8149 11.7729C88.05 12.3729 88.1675 13.0347 88.1675 13.7583V14.918H81.46ZM83.5381 11.0957C82.9876 11.0957 82.5207 11.2812 82.1372 11.6523C81.7599 12.0173 81.5404 12.4595 81.4785 12.979H85.4863C85.474 12.4533 85.2822 12.008 84.9111 11.6431C84.54 11.2782 84.0824 11.0957 83.5381 11.0957ZM92.3608 22.1357H89.8003V9.06396H92.3608V9.91748C92.6392 9.62679 92.9824 9.37939 93.3906 9.17529C93.7988 8.97119 94.2936 8.86914 94.875 8.86914C95.5306 8.86914 96.1243 9.00212 96.6562 9.26807C97.1943 9.52783 97.6551 9.88965 98.0386 10.3535C98.422 10.8112 98.7189 11.3555 98.9292 11.9863C99.1395 12.6172 99.2446 13.3006 99.2446 14.0366C99.2446 14.7726 99.1364 15.4561 98.9199 16.0869C98.7035 16.7178 98.4004 17.262 98.0107 17.7197C97.6211 18.1774 97.1541 18.5361 96.6099 18.7959C96.0656 19.0557 95.4657 19.1855 94.8101 19.1855C94.5194 19.1855 94.2534 19.1577 94.0122 19.1021C93.7772 19.0526 93.5607 18.9814 93.3628 18.8887C93.1649 18.7959 92.9824 18.6877 92.8154 18.564C92.6484 18.4341 92.4969 18.2949 92.3608 18.1465V22.1357ZM92.2866 14.9551C92.2866 15.221 92.333 15.4684 92.4258 15.6973C92.5247 15.9199 92.6639 16.1147 92.8433 16.2817C93.0226 16.4487 93.236 16.5786 93.4834 16.6714C93.737 16.7642 94.0215 16.8105 94.3369 16.8105C94.7018 16.8105 95.0234 16.7456 95.3018 16.6157C95.5863 16.4797 95.8244 16.291 96.0161 16.0498C96.2078 15.8086 96.3532 15.5241 96.4521 15.1963C96.5511 14.8623 96.6006 14.4974 96.6006 14.1016V13.981C96.6006 13.5851 96.5511 13.2202 96.4521 12.8862C96.3532 12.5522 96.2078 12.2646 96.0161 12.0234C95.8244 11.776 95.5863 11.5843 95.3018 11.4482C95.0234 11.3122 94.7018 11.2441 94.3369 11.2441C94.0215 11.2441 93.737 11.2905 93.4834 11.3833C93.236 11.4761 93.0226 11.606 92.8433 11.7729C92.6639 11.9399 92.5247 12.1379 92.4258 12.3667C92.333 12.5955 92.2866 12.8429 92.2866 13.1089V14.9551ZM106.537 11.5503H106.268C105.903 11.5503 105.553 11.5874 105.219 11.6616C104.891 11.7358 104.601 11.8719 104.347 12.0698C104.094 12.2616 103.889 12.5275 103.735 12.8677C103.586 13.2078 103.512 13.6439 103.512 14.1758V19H100.952V9.06396H103.512V10.1865C103.617 10.0195 103.753 9.85872 103.92 9.7041C104.087 9.54948 104.282 9.41341 104.505 9.2959C104.728 9.1722 104.978 9.07324 105.256 8.99902C105.535 8.9248 105.835 8.8877 106.156 8.8877H106.537V11.5503ZM110.275 14.918C110.319 15.2148 110.411 15.487 110.554 15.7344C110.702 15.9818 110.888 16.1951 111.11 16.3745C111.333 16.5477 111.59 16.6838 111.88 16.7827C112.171 16.8817 112.48 16.9312 112.808 16.9312C113.185 16.9312 113.594 16.86 114.033 16.7178C114.472 16.5693 114.874 16.356 115.239 16.0776L116.473 17.8774C116.009 18.2671 115.44 18.5825 114.766 18.8237C114.091 19.0649 113.374 19.1855 112.613 19.1855C111.927 19.1855 111.28 19.068 110.674 18.833C110.068 18.598 109.536 18.2578 109.079 17.8125C108.627 17.3672 108.268 16.826 108.002 16.189C107.743 15.5519 107.613 14.8345 107.613 14.0366C107.613 13.3068 107.727 12.6265 107.956 11.9956C108.191 11.3647 108.516 10.8174 108.93 10.3535C109.351 9.88965 109.852 9.52783 110.433 9.26807C111.014 9.00212 111.658 8.86914 112.363 8.86914C113.018 8.86914 113.628 8.98975 114.19 9.23096C114.753 9.46598 115.242 9.79997 115.656 10.2329C116.071 10.6597 116.395 11.173 116.63 11.7729C116.865 12.3729 116.983 13.0347 116.983 13.7583V14.918H110.275ZM112.354 11.0957C111.803 11.0957 111.336 11.2812 110.953 11.6523C110.575 12.0173 110.356 12.4595 110.294 12.979H114.302C114.289 12.4533 114.098 12.008 113.727 11.6431C113.355 11.2782 112.898 11.0957 112.354 11.0957ZM119.321 15.8271C119.686 16.1549 120.122 16.4364 120.629 16.6714C121.136 16.9064 121.649 17.0239 122.169 17.0239C122.546 17.0239 122.843 16.9528 123.06 16.8105C123.276 16.6621 123.384 16.4735 123.384 16.2446C123.384 15.855 122.967 15.5519 122.132 15.3354L121.408 15.1406C121.049 15.054 120.688 14.9365 120.323 14.7881C119.958 14.6335 119.621 14.4325 119.312 14.1851C119.008 13.9377 118.761 13.6377 118.569 13.2852C118.384 12.9264 118.291 12.4873 118.291 11.9678C118.291 11.5534 118.381 11.1606 118.56 10.7896C118.746 10.4123 119.005 10.0814 119.339 9.79688C119.68 9.51237 120.091 9.28662 120.573 9.11963C121.056 8.95264 121.594 8.86914 122.188 8.86914C123.035 8.86914 123.789 9.00212 124.451 9.26807C125.119 9.53402 125.645 9.83398 126.028 10.168L124.692 11.875C124.377 11.6462 124.003 11.4513 123.57 11.2905C123.143 11.1235 122.713 11.04 122.28 11.04C121.878 11.04 121.566 11.1143 121.343 11.2627C121.121 11.4049 121.009 11.5781 121.009 11.7822C121.009 11.9987 121.105 12.175 121.297 12.311C121.495 12.4409 121.779 12.5553 122.15 12.6543L123.227 12.9604C124.253 13.2511 124.989 13.6439 125.435 14.1387C125.88 14.6335 126.103 15.2581 126.103 16.0127C126.103 16.4333 126.016 16.8353 125.843 17.2188C125.67 17.596 125.416 17.9331 125.082 18.23C124.748 18.5269 124.334 18.7619 123.839 18.9351C123.344 19.1021 122.781 19.1855 122.15 19.1855C121.668 19.1855 121.213 19.1423 120.787 19.0557C120.366 18.9691 119.973 18.8516 119.608 18.7031C119.25 18.5485 118.925 18.3753 118.634 18.1836C118.344 17.9919 118.096 17.8001 117.892 17.6084L119.321 15.8271ZM129.906 14.918C129.95 15.2148 130.042 15.487 130.185 15.7344C130.333 15.9818 130.519 16.1951 130.741 16.3745C130.964 16.5477 131.221 16.6838 131.511 16.7827C131.802 16.8817 132.111 16.9312 132.439 16.9312C132.816 16.9312 133.224 16.86 133.664 16.7178C134.103 16.5693 134.505 16.356 134.87 16.0776L136.104 17.8774C135.64 18.2671 135.071 18.5825 134.396 18.8237C133.722 19.0649 133.005 19.1855 132.244 19.1855C131.558 19.1855 130.911 19.068 130.305 18.833C129.699 18.598 129.167 18.2578 128.709 17.8125C128.258 17.3672 127.899 16.826 127.633 16.189C127.374 15.5519 127.244 14.8345 127.244 14.0366C127.244 13.3068 127.358 12.6265 127.587 11.9956C127.822 11.3647 128.147 10.8174 128.561 10.3535C128.982 9.88965 129.483 9.52783 130.064 9.26807C130.645 9.00212 131.289 8.86914 131.994 8.86914C132.649 8.86914 133.258 8.98975 133.821 9.23096C134.384 9.46598 134.873 9.79997 135.287 10.2329C135.701 10.6597 136.026 11.173 136.261 11.7729C136.496 12.3729 136.614 13.0347 136.614 13.7583V14.918H129.906ZM131.984 11.0957C131.434 11.0957 130.967 11.2812 130.583 11.6523C130.206 12.0173 129.987 12.4595 129.925 12.979H133.933C133.92 12.4533 133.729 12.008 133.357 11.6431C132.986 11.2782 132.529 11.0957 131.984 11.0957ZM138.247 9.06396H140.807V9.91748C140.943 9.78141 141.095 9.65153 141.262 9.52783C141.435 9.39795 141.624 9.28662 141.828 9.19385C142.032 9.09489 142.257 9.01758 142.505 8.96191C142.758 8.90007 143.037 8.86914 143.34 8.86914C143.878 8.86914 144.36 8.95882 144.787 9.13818C145.214 9.31136 145.573 9.55257 145.863 9.86182C146.16 10.1711 146.386 10.5329 146.541 10.9473C146.695 11.3617 146.772 11.8101 146.772 12.2925V19H144.212V13.2202C144.212 12.8677 144.172 12.5708 144.091 12.3296C144.011 12.0822 143.9 11.8843 143.757 11.7358C143.621 11.5812 143.457 11.4699 143.266 11.4019C143.08 11.3276 142.876 11.2905 142.653 11.2905C142.394 11.2905 142.149 11.3369 141.92 11.4297C141.698 11.5225 141.503 11.6647 141.336 11.8564C141.169 12.042 141.039 12.277 140.946 12.5615C140.854 12.846 140.807 13.18 140.807 13.5635V19H138.247V9.06396ZM152.58 16.0405C152.58 16.158 152.596 16.2694 152.626 16.3745C152.657 16.4797 152.71 16.5724 152.784 16.6528C152.865 16.7271 152.976 16.7858 153.118 16.8291C153.26 16.8724 153.443 16.894 153.666 16.894C153.758 16.894 153.863 16.891 153.981 16.8848C154.098 16.8724 154.216 16.86 154.333 16.8477C154.451 16.8353 154.559 16.8198 154.658 16.8013C154.763 16.7827 154.85 16.7673 154.918 16.7549L155.15 19.0186C154.909 19.0495 154.658 19.0773 154.398 19.1021C154.176 19.1268 153.928 19.1453 153.656 19.1577C153.384 19.1763 153.109 19.1855 152.831 19.1855C151.946 19.1855 151.257 18.9845 150.762 18.5825C150.267 18.1805 150.02 17.5404 150.02 16.6621V11.2905H148.229V9.06396H150.02V6.25293L152.58 5.56641V9.06396H155.187V11.2905H152.58V16.0405ZM158.944 14.918C158.988 15.2148 159.08 15.487 159.223 15.7344C159.371 15.9818 159.557 16.1951 159.779 16.3745C160.002 16.5477 160.259 16.6838 160.549 16.7827C160.84 16.8817 161.149 16.9312 161.477 16.9312C161.854 16.9312 162.263 16.86 162.702 16.7178C163.141 16.5693 163.543 16.356 163.908 16.0776L165.142 17.8774C164.678 18.2671 164.109 18.5825 163.435 18.8237C162.76 19.0649 162.043 19.1855 161.282 19.1855C160.596 19.1855 159.949 19.068 159.343 18.833C158.737 18.598 158.205 18.2578 157.748 17.8125C157.296 17.3672 156.937 16.826 156.671 16.189C156.412 15.5519 156.282 14.8345 156.282 14.0366C156.282 13.3068 156.396 12.6265 156.625 11.9956C156.86 11.3647 157.185 10.8174 157.599 10.3535C158.02 9.88965 158.521 9.52783 159.102 9.26807C159.683 9.00212 160.327 8.86914 161.032 8.86914C161.687 8.86914 162.297 8.98975 162.859 9.23096C163.422 9.46598 163.911 9.79997 164.325 10.2329C164.74 10.6597 165.064 11.173 165.299 11.7729C165.534 12.3729 165.652 13.0347 165.652 13.7583V14.918H158.944ZM161.022 11.0957C160.472 11.0957 160.005 11.2812 159.622 11.6523C159.244 12.0173 159.025 12.4595 158.963 12.979H162.971C162.958 12.4533 162.767 12.008 162.396 11.6431C162.024 11.2782 161.567 11.0957 161.022 11.0957ZM173.667 19V18.1465C173.531 18.2949 173.38 18.4341 173.213 18.564C173.052 18.6877 172.87 18.7959 172.666 18.8887C172.468 18.9814 172.248 19.0526 172.007 19.1021C171.772 19.1577 171.509 19.1855 171.218 19.1855C170.563 19.1855 169.963 19.0557 169.418 18.7959C168.874 18.5361 168.407 18.1774 168.018 17.7197C167.628 17.262 167.325 16.7178 167.108 16.0869C166.898 15.4561 166.793 14.7726 166.793 14.0366C166.793 13.3006 166.898 12.6172 167.108 11.9863C167.319 11.3555 167.612 10.8112 167.99 10.3535C168.373 9.88965 168.834 9.52783 169.372 9.26807C169.91 9.00212 170.507 8.86914 171.163 8.86914C171.744 8.86914 172.236 8.97119 172.638 9.17529C173.046 9.37321 173.389 9.62061 173.667 9.91748V5.69629H176.228V19H173.667ZM173.742 13.1089C173.742 12.8429 173.692 12.5955 173.593 12.3667C173.5 12.1379 173.364 11.9399 173.185 11.7729C173.006 11.606 172.789 11.4761 172.536 11.3833C172.288 11.2905 172.007 11.2441 171.691 11.2441C171.326 11.2441 171.002 11.3122 170.717 11.4482C170.439 11.5843 170.204 11.776 170.012 12.0234C169.82 12.2646 169.675 12.5522 169.576 12.8862C169.477 13.2202 169.428 13.5851 169.428 13.981V14.1016C169.428 14.4974 169.477 14.8623 169.576 15.1963C169.675 15.5241 169.82 15.8086 170.012 16.0498C170.204 16.291 170.439 16.4797 170.717 16.6157C171.002 16.7456 171.326 16.8105 171.691 16.8105C172.007 16.8105 172.288 16.7642 172.536 16.6714C172.789 16.5786 173.006 16.4487 173.185 16.2817C173.364 16.1147 173.5 15.9199 173.593 15.6973C173.692 15.4684 173.742 15.221 173.742 14.9551V13.1089ZM181.145 11.9121H185.134V14.2129H181.145V11.9121ZM198.429 19H195.859V13.2202C195.859 12.8677 195.819 12.5708 195.738 12.3296C195.664 12.0822 195.559 11.8843 195.423 11.7358C195.287 11.5812 195.129 11.473 194.95 11.4111C194.77 11.3431 194.576 11.3091 194.365 11.3091C194.118 11.3091 193.886 11.3524 193.669 11.439C193.459 11.5256 193.274 11.6616 193.113 11.8472C192.958 12.0327 192.834 12.2708 192.742 12.5615C192.655 12.846 192.612 13.1862 192.612 13.582V19H190.051V9.06396H192.612V9.93604C192.94 9.57113 193.32 9.30208 193.753 9.12891C194.192 8.95573 194.662 8.86914 195.163 8.86914C195.676 8.86914 196.156 8.97428 196.601 9.18457C197.053 9.39486 197.427 9.74121 197.724 10.2236C197.897 9.97624 198.095 9.76595 198.317 9.59277C198.546 9.4196 198.791 9.28044 199.05 9.17529C199.31 9.07015 199.579 8.99284 199.857 8.94336C200.142 8.89388 200.433 8.86914 200.729 8.86914C201.286 8.86914 201.781 8.96191 202.214 9.14746C202.653 9.32682 203.024 9.57113 203.327 9.88037C203.63 10.1896 203.862 10.5452 204.023 10.9473C204.184 11.3493 204.264 11.7729 204.264 12.2183V19H201.676V13.2202C201.676 12.8677 201.636 12.5708 201.555 12.3296C201.481 12.0822 201.376 11.8843 201.24 11.7358C201.104 11.5812 200.943 11.473 200.757 11.4111C200.578 11.3431 200.383 11.3091 200.173 11.3091C199.925 11.3091 199.697 11.3524 199.486 11.439C199.276 11.5256 199.09 11.6616 198.93 11.8472C198.775 12.0327 198.651 12.2708 198.559 12.5615C198.472 12.846 198.429 13.1862 198.429 13.582V19ZM209.608 14.9644C209.292 15.0138 209.039 15.1252 208.847 15.2983C208.655 15.4653 208.56 15.6942 208.56 15.9849C208.56 16.3065 208.677 16.5848 208.912 16.8198C209.147 17.0487 209.493 17.1631 209.951 17.1631C210.434 17.1631 210.814 17.0239 211.092 16.7456C211.371 16.4673 211.51 16.0993 211.51 15.6416V14.6396L209.608 14.9644ZM211.927 18.063C211.822 18.1805 211.692 18.3073 211.538 18.4434C211.389 18.5732 211.21 18.6938 211 18.8052C210.795 18.9103 210.554 19 210.276 19.0742C209.998 19.1484 209.685 19.1855 209.339 19.1855C208.844 19.1855 208.386 19.1082 207.966 18.9536C207.551 18.7928 207.187 18.5701 206.871 18.2856C206.556 18.0011 206.308 17.6733 206.129 17.3022C205.95 16.925 205.86 16.5168 205.86 16.0776C205.86 15.2798 206.107 14.6273 206.602 14.1201C207.097 13.613 207.78 13.2944 208.652 13.1646L211.51 12.7471V12.5615C211.51 12.1162 211.374 11.7637 211.102 11.5039C210.829 11.2441 210.387 11.1143 209.775 11.1143C209.521 11.1143 209.265 11.1452 209.005 11.207C208.745 11.2627 208.495 11.3276 208.253 11.4019C208.018 11.4761 207.799 11.5627 207.595 11.6616C207.391 11.7544 207.211 11.8379 207.057 11.9121L206.055 9.95459C206.624 9.63916 207.255 9.37939 207.947 9.17529C208.646 8.97119 209.37 8.86914 210.118 8.86914C210.576 8.86914 211.037 8.91862 211.5 9.01758C211.971 9.11035 212.394 9.28353 212.771 9.53711C213.155 9.79069 213.467 10.137 213.708 10.5762C213.95 11.0091 214.07 11.5627 214.07 12.2368V16.3188C214.07 16.6095 214.145 16.826 214.293 16.9683C214.448 17.1043 214.658 17.2311 214.924 17.3486L213.764 19.1855C213.294 19.1361 212.917 19.0155 212.632 18.8237C212.348 18.6258 212.113 18.3722 211.927 18.063ZM216.213 9.06396H218.774V9.91748C218.91 9.78141 219.062 9.65153 219.229 9.52783C219.402 9.39795 219.59 9.28662 219.794 9.19385C219.999 9.09489 220.224 9.01758 220.472 8.96191C220.725 8.90007 221.004 8.86914 221.307 8.86914C221.845 8.86914 222.327 8.95882 222.754 9.13818C223.181 9.31136 223.539 9.55257 223.83 9.86182C224.127 10.1711 224.353 10.5329 224.507 10.9473C224.662 11.3617 224.739 11.8101 224.739 12.2925V19H222.179V13.2202C222.179 12.8677 222.139 12.5708 222.058 12.3296C221.978 12.0822 221.866 11.8843 221.724 11.7358C221.588 11.5812 221.424 11.4699 221.232 11.4019C221.047 11.3276 220.843 11.2905 220.62 11.2905C220.36 11.2905 220.116 11.3369 219.887 11.4297C219.665 11.5225 219.47 11.6647 219.303 11.8564C219.136 12.042 219.006 12.277 218.913 12.5615C218.82 12.846 218.774 13.18 218.774 13.5635V19H216.213V9.06396ZM235.334 19H232.773V18.1465C232.631 18.2826 232.477 18.4155 232.31 18.5454C232.143 18.6691 231.957 18.7804 231.753 18.8794C231.549 18.9722 231.32 19.0464 231.066 19.1021C230.819 19.1577 230.544 19.1855 230.241 19.1855C229.703 19.1855 229.22 19.099 228.793 18.9258C228.367 18.7464 228.005 18.5052 227.708 18.2021C227.417 17.8929 227.195 17.5311 227.04 17.1167C226.885 16.7023 226.808 16.2539 226.808 15.7715V9.06396H229.369V14.8345C229.369 15.187 229.406 15.487 229.48 15.7344C229.56 15.9818 229.669 16.1828 229.805 16.3374C229.947 16.4858 230.114 16.5972 230.306 16.6714C230.497 16.7394 230.705 16.7734 230.927 16.7734C231.187 16.7734 231.428 16.7271 231.651 16.6343C231.88 16.5415 232.078 16.4023 232.245 16.2168C232.412 16.0251 232.542 15.7869 232.634 15.5024C232.727 15.2179 232.773 14.884 232.773 14.5005V9.06396H235.334V19ZM240.761 14.9644C240.446 15.0138 240.192 15.1252 240 15.2983C239.809 15.4653 239.713 15.6942 239.713 15.9849C239.713 16.3065 239.83 16.5848 240.065 16.8198C240.3 17.0487 240.647 17.1631 241.104 17.1631C241.587 17.1631 241.967 17.0239 242.246 16.7456C242.524 16.4673 242.663 16.0993 242.663 15.6416V14.6396L240.761 14.9644ZM243.081 18.063C242.975 18.1805 242.846 18.3073 242.691 18.4434C242.542 18.5732 242.363 18.6938 242.153 18.8052C241.949 18.9103 241.708 19 241.429 19.0742C241.151 19.1484 240.839 19.1855 240.492 19.1855C239.997 19.1855 239.54 19.1082 239.119 18.9536C238.705 18.7928 238.34 18.5701 238.024 18.2856C237.709 18.0011 237.462 17.6733 237.282 17.3022C237.103 16.925 237.013 16.5168 237.013 16.0776C237.013 15.2798 237.261 14.6273 237.755 14.1201C238.25 13.613 238.934 13.2944 239.806 13.1646L242.663 12.7471V12.5615C242.663 12.1162 242.527 11.7637 242.255 11.5039C241.983 11.2441 241.541 11.1143 240.928 11.1143C240.675 11.1143 240.418 11.1452 240.158 11.207C239.898 11.2627 239.648 11.3276 239.407 11.4019C239.172 11.4761 238.952 11.5627 238.748 11.6616C238.544 11.7544 238.365 11.8379 238.21 11.9121L237.208 9.95459C237.777 9.63916 238.408 9.37939 239.101 9.17529C239.799 8.97119 240.523 8.86914 241.271 8.86914C241.729 8.86914 242.19 8.91862 242.654 9.01758C243.124 9.11035 243.548 9.28353 243.925 9.53711C244.308 9.79069 244.621 10.137 244.862 10.5762C245.103 11.0091 245.224 11.5627 245.224 12.2368V16.3188C245.224 16.6095 245.298 16.826 245.446 16.9683C245.601 17.1043 245.811 17.2311 246.077 17.3486L244.917 19.1855C244.447 19.1361 244.07 19.0155 243.786 18.8237C243.501 18.6258 243.266 18.3722 243.081 18.063ZM247.33 5.69629H249.89V16.3003C249.89 16.5106 249.949 16.6714 250.066 16.7827C250.19 16.894 250.385 16.9497 250.651 16.9497C250.775 16.9497 250.88 16.9435 250.966 16.9312C251.059 16.9126 251.177 16.8879 251.319 16.8569L251.523 19.0371C251.35 19.0618 251.164 19.0866 250.966 19.1113C250.799 19.1299 250.604 19.1453 250.382 19.1577C250.165 19.1763 249.94 19.1855 249.705 19.1855C249.34 19.1855 249.012 19.1392 248.721 19.0464C248.431 18.9536 248.18 18.8175 247.97 18.6382C247.766 18.4526 247.608 18.2238 247.497 17.9517C247.385 17.6795 247.33 17.3641 247.33 17.0054V5.69629Z" fill="white"/>
<rect width="155" height="27" transform="translate(269)" fill="#4C2C92"/>
<path d="M288.729 12.3481C288.729 13.3439 288.592 14.2531 288.32 15.0757C288.054 15.8921 287.652 16.591 287.114 17.1724C286.582 17.7537 285.914 18.2052 285.11 18.5269C284.306 18.8423 283.366 19 282.29 19H277.392V5.69629H282.29C283.366 5.69629 284.306 5.8571 285.11 6.17871C285.914 6.49414 286.582 6.94255 287.114 7.52393C287.652 8.10531 288.054 8.80729 288.32 9.62988C288.592 10.4463 288.729 11.3524 288.729 12.3481ZM285.936 12.0884C285.936 11.5256 285.865 11.0029 285.723 10.5205C285.587 10.0319 285.364 9.60824 285.055 9.24951C284.752 8.89079 284.356 8.60938 283.867 8.40527C283.379 8.19499 282.788 8.08984 282.095 8.08984H280.082V16.6064H282.095C282.782 16.6064 283.369 16.5044 283.858 16.3003C284.347 16.09 284.742 15.8055 285.045 15.4468C285.355 15.0819 285.58 14.6551 285.723 14.1665C285.865 13.6779 285.936 13.1553 285.936 12.5986V12.0884ZM292.755 14.918C292.798 15.2148 292.891 15.487 293.033 15.7344C293.182 15.9818 293.367 16.1951 293.59 16.3745C293.812 16.5477 294.069 16.6838 294.36 16.7827C294.651 16.8817 294.96 16.9312 295.288 16.9312C295.665 16.9312 296.073 16.86 296.512 16.7178C296.951 16.5693 297.353 16.356 297.718 16.0776L298.952 17.8774C298.488 18.2671 297.919 18.5825 297.245 18.8237C296.571 19.0649 295.854 19.1855 295.093 19.1855C294.406 19.1855 293.76 19.068 293.154 18.833C292.548 18.598 292.016 18.2578 291.558 17.8125C291.107 17.3672 290.748 16.826 290.482 16.189C290.222 15.5519 290.092 14.8345 290.092 14.0366C290.092 13.3068 290.207 12.6265 290.436 11.9956C290.671 11.3647 290.995 10.8174 291.41 10.3535C291.83 9.88965 292.331 9.52783 292.913 9.26807C293.494 9.00212 294.137 8.86914 294.842 8.86914C295.498 8.86914 296.107 8.98975 296.67 9.23096C297.233 9.46598 297.721 9.79997 298.136 10.2329C298.55 10.6597 298.875 11.173 299.11 11.7729C299.345 12.3729 299.462 13.0347 299.462 13.7583V14.918H292.755ZM294.833 11.0957C294.283 11.0957 293.816 11.2812 293.432 11.6523C293.055 12.0173 292.835 12.4595 292.773 12.979H296.781C296.769 12.4533 296.577 12.008 296.206 11.6431C295.835 11.2782 295.377 11.0957 294.833 11.0957ZM304.76 16.0405C304.76 16.158 304.775 16.2694 304.806 16.3745C304.837 16.4797 304.89 16.5724 304.964 16.6528C305.044 16.7271 305.156 16.7858 305.298 16.8291C305.44 16.8724 305.623 16.894 305.845 16.894C305.938 16.894 306.043 16.891 306.161 16.8848C306.278 16.8724 306.396 16.86 306.513 16.8477C306.631 16.8353 306.739 16.8198 306.838 16.8013C306.943 16.7827 307.03 16.7673 307.098 16.7549L307.33 19.0186C307.088 19.0495 306.838 19.0773 306.578 19.1021C306.355 19.1268 306.108 19.1453 305.836 19.1577C305.564 19.1763 305.289 19.1855 305.01 19.1855C304.126 19.1855 303.436 18.9845 302.941 18.5825C302.447 18.1805 302.199 17.5404 302.199 16.6621V11.2905H300.409V9.06396H302.199V6.25293L304.76 5.56641V9.06396H307.367V11.2905H304.76V16.0405ZM312.191 14.9644C311.875 15.0138 311.622 15.1252 311.43 15.2983C311.238 15.4653 311.143 15.6942 311.143 15.9849C311.143 16.3065 311.26 16.5848 311.495 16.8198C311.73 17.0487 312.076 17.1631 312.534 17.1631C313.017 17.1631 313.397 17.0239 313.675 16.7456C313.954 16.4673 314.093 16.0993 314.093 15.6416V14.6396L312.191 14.9644ZM314.51 18.063C314.405 18.1805 314.275 18.3073 314.121 18.4434C313.972 18.5732 313.793 18.6938 313.583 18.8052C313.378 18.9103 313.137 19 312.859 19.0742C312.581 19.1484 312.268 19.1855 311.922 19.1855C311.427 19.1855 310.969 19.1082 310.549 18.9536C310.134 18.7928 309.77 18.5701 309.454 18.2856C309.139 18.0011 308.891 17.6733 308.712 17.3022C308.533 16.925 308.443 16.5168 308.443 16.0776C308.443 15.2798 308.69 14.6273 309.185 14.1201C309.68 13.613 310.363 13.2944 311.235 13.1646L314.093 12.7471V12.5615C314.093 12.1162 313.957 11.7637 313.685 11.5039C313.412 11.2441 312.97 11.1143 312.358 11.1143C312.104 11.1143 311.848 11.1452 311.588 11.207C311.328 11.2627 311.078 11.3276 310.836 11.4019C310.601 11.4761 310.382 11.5627 310.178 11.6616C309.974 11.7544 309.794 11.8379 309.64 11.9121L308.638 9.95459C309.207 9.63916 309.838 9.37939 310.53 9.17529C311.229 8.97119 311.953 8.86914 312.701 8.86914C313.159 8.86914 313.62 8.91862 314.083 9.01758C314.554 9.11035 314.977 9.28353 315.354 9.53711C315.738 9.79069 316.05 10.137 316.292 10.5762C316.533 11.0091 316.653 11.5627 316.653 12.2368V16.3188C316.653 16.6095 316.728 16.826 316.876 16.9683C317.031 17.1043 317.241 17.2311 317.507 17.3486L316.347 19.1855C315.877 19.1361 315.5 19.0155 315.215 18.8237C314.931 18.6258 314.696 18.3722 314.51 18.063ZM321.357 19H318.796V9.06396H321.357V19ZM318.527 6.45703C318.527 6.24674 318.568 6.04883 318.648 5.86328C318.728 5.67155 318.837 5.50765 318.973 5.37158C319.115 5.22933 319.279 5.118 319.464 5.0376C319.65 4.95719 319.851 4.91699 320.067 4.91699C320.278 4.91699 320.476 4.95719 320.661 5.0376C320.853 5.118 321.017 5.22933 321.153 5.37158C321.295 5.50765 321.406 5.67155 321.487 5.86328C321.567 6.04883 321.607 6.24674 321.607 6.45703C321.607 6.6735 321.567 6.87451 321.487 7.06006C321.406 7.24561 321.295 7.40951 321.153 7.55176C321.017 7.68783 320.853 7.79606 320.661 7.87646C320.476 7.95687 320.278 7.99707 320.067 7.99707C319.851 7.99707 319.65 7.95687 319.464 7.87646C319.279 7.79606 319.115 7.68783 318.973 7.55176C318.837 7.40951 318.728 7.24561 318.648 7.06006C318.568 6.87451 318.527 6.6735 318.527 6.45703ZM323.565 9.06396H326.125V9.91748C326.262 9.78141 326.413 9.65153 326.58 9.52783C326.753 9.39795 326.942 9.28662 327.146 9.19385C327.35 9.09489 327.576 9.01758 327.823 8.96191C328.077 8.90007 328.355 8.86914 328.658 8.86914C329.196 8.86914 329.679 8.95882 330.105 9.13818C330.532 9.31136 330.891 9.55257 331.182 9.86182C331.479 10.1711 331.704 10.5329 331.859 10.9473C332.014 11.3617 332.091 11.8101 332.091 12.2925V19H329.53V13.2202C329.53 12.8677 329.49 12.5708 329.41 12.3296C329.329 12.0822 329.218 11.8843 329.076 11.7358C328.94 11.5812 328.776 11.4699 328.584 11.4019C328.398 11.3276 328.194 11.2905 327.972 11.2905C327.712 11.2905 327.468 11.3369 327.239 11.4297C327.016 11.5225 326.821 11.6647 326.654 11.8564C326.487 12.042 326.357 12.277 326.265 12.5615C326.172 12.846 326.125 13.18 326.125 13.5635V19H323.565V9.06396ZM336.377 14.918C336.42 15.2148 336.513 15.487 336.655 15.7344C336.804 15.9818 336.989 16.1951 337.212 16.3745C337.435 16.5477 337.691 16.6838 337.982 16.7827C338.273 16.8817 338.582 16.9312 338.91 16.9312C339.287 16.9312 339.695 16.86 340.134 16.7178C340.573 16.5693 340.975 16.356 341.34 16.0776L342.574 17.8774C342.11 18.2671 341.541 18.5825 340.867 18.8237C340.193 19.0649 339.476 19.1855 338.715 19.1855C338.028 19.1855 337.382 19.068 336.776 18.833C336.17 18.598 335.638 18.2578 335.18 17.8125C334.729 17.3672 334.37 16.826 334.104 16.189C333.844 15.5519 333.714 14.8345 333.714 14.0366C333.714 13.3068 333.829 12.6265 334.058 11.9956C334.293 11.3647 334.617 10.8174 335.032 10.3535C335.452 9.88965 335.953 9.52783 336.535 9.26807C337.116 9.00212 337.759 8.86914 338.464 8.86914C339.12 8.86914 339.729 8.98975 340.292 9.23096C340.855 9.46598 341.343 9.79997 341.758 10.2329C342.172 10.6597 342.497 11.173 342.732 11.7729C342.967 12.3729 343.084 13.0347 343.084 13.7583V14.918H336.377ZM338.455 11.0957C337.905 11.0957 337.438 11.2812 337.054 11.6523C336.677 12.0173 336.457 12.4595 336.396 12.979H340.403C340.391 12.4533 340.199 12.008 339.828 11.6431C339.457 11.2782 338.999 11.0957 338.455 11.0957ZM351.1 19V18.1465C350.964 18.2949 350.812 18.4341 350.646 18.564C350.485 18.6877 350.302 18.7959 350.098 18.8887C349.9 18.9814 349.681 19.0526 349.439 19.1021C349.204 19.1577 348.942 19.1855 348.651 19.1855C347.995 19.1855 347.395 19.0557 346.851 18.7959C346.307 18.5361 345.84 18.1774 345.45 17.7197C345.061 17.262 344.757 16.7178 344.541 16.0869C344.331 15.4561 344.226 14.7726 344.226 14.0366C344.226 13.3006 344.331 12.6172 344.541 11.9863C344.751 11.3555 345.045 10.8112 345.422 10.3535C345.806 9.88965 346.267 9.52783 346.805 9.26807C347.343 9.00212 347.94 8.86914 348.595 8.86914C349.177 8.86914 349.668 8.97119 350.07 9.17529C350.479 9.37321 350.822 9.62061 351.1 9.91748V5.69629H353.661V19H351.1ZM351.174 13.1089C351.174 12.8429 351.125 12.5955 351.026 12.3667C350.933 12.1379 350.797 11.9399 350.618 11.7729C350.438 11.606 350.222 11.4761 349.968 11.3833C349.721 11.2905 349.439 11.2441 349.124 11.2441C348.759 11.2441 348.434 11.3122 348.15 11.4482C347.872 11.5843 347.637 11.776 347.445 12.0234C347.253 12.2646 347.108 12.5522 347.009 12.8862C346.91 13.2202 346.86 13.5851 346.86 13.981V14.1016C346.86 14.4974 346.91 14.8623 347.009 15.1963C347.108 15.5241 347.253 15.8086 347.445 16.0498C347.637 16.291 347.872 16.4797 348.15 16.6157C348.434 16.7456 348.759 16.8105 349.124 16.8105C349.439 16.8105 349.721 16.7642 349.968 16.6714C350.222 16.5786 350.438 16.4487 350.618 16.2817C350.797 16.1147 350.933 15.9199 351.026 15.6973C351.125 15.4684 351.174 15.221 351.174 14.9551V13.1089ZM362.511 14.9644C362.196 15.0138 361.942 15.1252 361.75 15.2983C361.559 15.4653 361.463 15.6942 361.463 15.9849C361.463 16.3065 361.58 16.5848 361.815 16.8198C362.05 17.0487 362.397 17.1631 362.854 17.1631C363.337 17.1631 363.717 17.0239 363.996 16.7456C364.274 16.4673 364.413 16.0993 364.413 15.6416V14.6396L362.511 14.9644ZM364.831 18.063C364.725 18.1805 364.596 18.3073 364.441 18.4434C364.292 18.5732 364.113 18.6938 363.903 18.8052C363.699 18.9103 363.458 19 363.179 19.0742C362.901 19.1484 362.589 19.1855 362.242 19.1855C361.747 19.1855 361.29 19.1082 360.869 18.9536C360.455 18.7928 360.09 18.5701 359.774 18.2856C359.459 18.0011 359.212 17.6733 359.032 17.3022C358.853 16.925 358.763 16.5168 358.763 16.0776C358.763 15.2798 359.011 14.6273 359.505 14.1201C360 13.613 360.684 13.2944 361.556 13.1646L364.413 12.7471V12.5615C364.413 12.1162 364.277 11.7637 364.005 11.5039C363.733 11.2441 363.291 11.1143 362.678 11.1143C362.425 11.1143 362.168 11.1452 361.908 11.207C361.648 11.2627 361.398 11.3276 361.157 11.4019C360.922 11.4761 360.702 11.5627 360.498 11.6616C360.294 11.7544 360.115 11.8379 359.96 11.9121L358.958 9.95459C359.527 9.63916 360.158 9.37939 360.851 9.17529C361.549 8.97119 362.273 8.86914 363.021 8.86914C363.479 8.86914 363.94 8.91862 364.404 9.01758C364.874 9.11035 365.298 9.28353 365.675 9.53711C366.058 9.79069 366.371 10.137 366.612 10.5762C366.853 11.0091 366.974 11.5627 366.974 12.2368V16.3188C366.974 16.6095 367.048 16.826 367.196 16.9683C367.351 17.1043 367.561 17.2311 367.827 17.3486L366.667 19.1855C366.197 19.1361 365.82 19.0155 365.536 18.8237C365.251 18.6258 365.016 18.3722 364.831 18.063ZM371.677 22.1357H369.117V9.06396H371.677V9.91748C371.956 9.62679 372.299 9.37939 372.707 9.17529C373.115 8.97119 373.61 8.86914 374.191 8.86914C374.847 8.86914 375.441 9.00212 375.973 9.26807C376.511 9.52783 376.972 9.88965 377.355 10.3535C377.738 10.8112 378.035 11.3555 378.246 11.9863C378.456 12.6172 378.561 13.3006 378.561 14.0366C378.561 14.7726 378.453 15.4561 378.236 16.0869C378.02 16.7178 377.717 17.262 377.327 17.7197C376.938 18.1774 376.471 18.5361 375.926 18.7959C375.382 19.0557 374.782 19.1855 374.126 19.1855C373.836 19.1855 373.57 19.1577 373.329 19.1021C373.094 19.0526 372.877 18.9814 372.679 18.8887C372.481 18.7959 372.299 18.6877 372.132 18.564C371.965 18.4341 371.813 18.2949 371.677 18.1465V22.1357ZM371.603 14.9551C371.603 15.221 371.649 15.4684 371.742 15.6973C371.841 15.9199 371.98 16.1147 372.16 16.2817C372.339 16.4487 372.552 16.5786 372.8 16.6714C373.053 16.7642 373.338 16.8105 373.653 16.8105C374.018 16.8105 374.34 16.7456 374.618 16.6157C374.903 16.4797 375.141 16.291 375.333 16.0498C375.524 15.8086 375.67 15.5241 375.769 15.1963C375.868 14.8623 375.917 14.4974 375.917 14.1016V13.981C375.917 13.5851 375.868 13.2202 375.769 12.8862C375.67 12.5522 375.524 12.2646 375.333 12.0234C375.141 11.776 374.903 11.5843 374.618 11.4482C374.34 11.3122 374.018 11.2441 373.653 11.2441C373.338 11.2441 373.053 11.2905 372.8 11.3833C372.552 11.4761 372.339 11.606 372.16 11.7729C371.98 11.9399 371.841 12.1379 371.742 12.3667C371.649 12.5955 371.603 12.8429 371.603 13.1089V14.9551ZM382.829 22.1357H380.268V9.06396H382.829V9.91748C383.107 9.62679 383.45 9.37939 383.858 9.17529C384.267 8.97119 384.761 8.86914 385.343 8.86914C385.998 8.86914 386.592 9.00212 387.124 9.26807C387.662 9.52783 388.123 9.88965 388.506 10.3535C388.89 10.8112 389.187 11.3555 389.397 11.9863C389.607 12.6172 389.712 13.3006 389.712 14.0366C389.712 14.7726 389.604 15.4561 389.388 16.0869C389.171 16.7178 388.868 17.262 388.479 17.7197C388.089 18.1774 387.622 18.5361 387.078 18.7959C386.533 19.0557 385.933 19.1855 385.278 19.1855C384.987 19.1855 384.721 19.1577 384.48 19.1021C384.245 19.0526 384.028 18.9814 383.831 18.8887C383.633 18.7959 383.45 18.6877 383.283 18.564C383.116 18.4341 382.965 18.2949 382.829 18.1465V22.1357ZM382.754 14.9551C382.754 15.221 382.801 15.4684 382.894 15.6973C382.993 15.9199 383.132 16.1147 383.311 16.2817C383.49 16.4487 383.704 16.5786 383.951 16.6714C384.205 16.7642 384.489 16.8105 384.805 16.8105C385.17 16.8105 385.491 16.7456 385.77 16.6157C386.054 16.4797 386.292 16.291 386.484 16.0498C386.676 15.8086 386.821 15.5241 386.92 15.1963C387.019 14.8623 387.068 14.4974 387.068 14.1016V13.981C387.068 13.5851 387.019 13.2202 386.92 12.8862C386.821 12.5522 386.676 12.2646 386.484 12.0234C386.292 11.776 386.054 11.5843 385.77 11.4482C385.491 11.3122 385.17 11.2441 384.805 11.2441C384.489 11.2441 384.205 11.2905 383.951 11.3833C383.704 11.4761 383.49 11.606 383.311 11.7729C383.132 11.9399 382.993 12.1379 382.894 12.3667C382.801 12.5955 382.754 12.8429 382.754 13.1089V14.9551ZM393.562 14.918C393.606 15.2148 393.699 15.487 393.841 15.7344C393.989 15.9818 394.175 16.1951 394.397 16.3745C394.62 16.5477 394.877 16.6838 395.167 16.7827C395.458 16.8817 395.767 16.9312 396.095 16.9312C396.472 16.9312 396.881 16.86 397.32 16.7178C397.759 16.5693 398.161 16.356 398.526 16.0776L399.76 17.8774C399.296 18.2671 398.727 18.5825 398.053 18.8237C397.379 19.0649 396.661 19.1855 395.9 19.1855C395.214 19.1855 394.568 19.068 393.961 18.833C393.355 18.598 392.823 18.2578 392.366 17.8125C391.914 17.3672 391.556 16.826 391.29 16.189C391.03 15.5519 390.9 14.8345 390.9 14.0366C390.9 13.3068 391.014 12.6265 391.243 11.9956C391.478 11.3647 391.803 10.8174 392.217 10.3535C392.638 9.88965 393.139 9.52783 393.72 9.26807C394.302 9.00212 394.945 8.86914 395.65 8.86914C396.306 8.86914 396.915 8.98975 397.478 9.23096C398.04 9.46598 398.529 9.79997 398.943 10.2329C399.358 10.6597 399.682 11.173 399.917 11.7729C400.153 12.3729 400.27 13.0347 400.27 13.7583V14.918H393.562ZM395.641 11.0957C395.09 11.0957 394.623 11.2812 394.24 11.6523C393.862 12.0173 393.643 12.4595 393.581 12.979H397.589C397.576 12.4533 397.385 12.008 397.014 11.6431C396.643 11.2782 396.185 11.0957 395.641 11.0957ZM405.113 14.9644C404.797 15.0138 404.544 15.1252 404.352 15.2983C404.16 15.4653 404.064 15.6942 404.064 15.9849C404.064 16.3065 404.182 16.5848 404.417 16.8198C404.652 17.0487 404.998 17.1631 405.456 17.1631C405.938 17.1631 406.319 17.0239 406.597 16.7456C406.875 16.4673 407.015 16.0993 407.015 15.6416V14.6396L405.113 14.9644ZM407.432 18.063C407.327 18.1805 407.197 18.3073 407.042 18.4434C406.894 18.5732 406.715 18.6938 406.504 18.8052C406.3 18.9103 406.059 19 405.781 19.0742C405.502 19.1484 405.19 19.1855 404.844 19.1855C404.349 19.1855 403.891 19.1082 403.471 18.9536C403.056 18.7928 402.691 18.5701 402.376 18.2856C402.061 18.0011 401.813 17.6733 401.634 17.3022C401.454 16.925 401.365 16.5168 401.365 16.0776C401.365 15.2798 401.612 14.6273 402.107 14.1201C402.602 13.613 403.285 13.2944 404.157 13.1646L407.015 12.7471V12.5615C407.015 12.1162 406.879 11.7637 406.606 11.5039C406.334 11.2441 405.892 11.1143 405.28 11.1143C405.026 11.1143 404.77 11.1452 404.51 11.207C404.25 11.2627 404 11.3276 403.758 11.4019C403.523 11.4761 403.304 11.5627 403.1 11.6616C402.896 11.7544 402.716 11.8379 402.562 11.9121L401.56 9.95459C402.129 9.63916 402.759 9.37939 403.452 9.17529C404.151 8.97119 404.875 8.86914 405.623 8.86914C406.081 8.86914 406.542 8.91862 407.005 9.01758C407.475 9.11035 407.899 9.28353 408.276 9.53711C408.66 9.79069 408.972 10.137 409.213 10.5762C409.455 11.0091 409.575 11.5627 409.575 12.2368V16.3188C409.575 16.6095 409.649 16.826 409.798 16.9683C409.952 17.1043 410.163 17.2311 410.429 17.3486L409.269 19.1855C408.799 19.1361 408.422 19.0155 408.137 18.8237C407.853 18.6258 407.618 18.3722 407.432 18.063ZM411.681 5.69629H414.242V16.3003C414.242 16.5106 414.3 16.6714 414.418 16.7827C414.542 16.894 414.736 16.9497 415.002 16.9497C415.126 16.9497 415.231 16.9435 415.318 16.9312C415.411 16.9126 415.528 16.8879 415.67 16.8569L415.875 19.0371C415.701 19.0618 415.516 19.0866 415.318 19.1113C415.151 19.1299 414.956 19.1453 414.733 19.1577C414.517 19.1763 414.291 19.1855 414.056 19.1855C413.691 19.1855 413.363 19.1392 413.073 19.0464C412.782 18.9536 412.532 18.8175 412.321 18.6382C412.117 18.4526 411.959 18.2238 411.848 17.9517C411.737 17.6795 411.681 17.3641 411.681 17.0054V5.69629Z" fill="white"/>
<rect width="125" height="27" transform="translate(434)" fill="#EB3223"/>
<path d="M443.282 15.2612C443.455 15.4591 443.666 15.654 443.913 15.8457C444.16 16.0374 444.433 16.2106 444.729 16.3652C445.033 16.5137 445.36 16.6343 445.713 16.7271C446.065 16.8136 446.446 16.8569 446.854 16.8569C447.615 16.8569 448.196 16.6992 448.598 16.3838C449.006 16.0622 449.21 15.6725 449.21 15.2148C449.21 14.7386 449.031 14.3768 448.672 14.1294C448.32 13.882 447.757 13.6872 446.984 13.5449L446.566 13.4707C446.01 13.3717 445.456 13.2419 444.906 13.0811C444.355 12.9202 443.857 12.6883 443.412 12.3853C442.967 12.0822 442.605 11.6956 442.327 11.2256C442.048 10.7493 441.909 10.1494 441.909 9.42578C441.909 9.00521 442.002 8.56608 442.188 8.1084C442.373 7.64453 442.667 7.22087 443.069 6.8374C443.477 6.44775 444 6.12923 444.637 5.88184C445.28 5.63444 446.056 5.51074 446.965 5.51074C448.042 5.51074 449 5.6901 449.841 6.04883C450.689 6.40137 451.372 6.86833 451.892 7.44971L450.101 9.11963C449.736 8.71761 449.266 8.40218 448.691 8.17334C448.122 7.9445 447.534 7.83008 446.928 7.83008C446.229 7.83008 445.682 7.96305 445.286 8.229C444.896 8.49495 444.702 8.84131 444.702 9.26807C444.702 9.54639 444.764 9.77832 444.887 9.96387C445.017 10.1494 445.196 10.304 445.425 10.4277C445.654 10.5452 445.929 10.6442 446.251 10.7246C446.573 10.805 446.931 10.8854 447.327 10.9658L447.541 11.0029C448.072 11.1019 448.601 11.2287 449.127 11.3833C449.653 11.5317 450.129 11.7544 450.556 12.0513C450.989 12.342 451.338 12.7254 451.604 13.2017C451.87 13.6717 452.003 14.2747 452.003 15.0107C452.003 15.6787 451.864 16.2694 451.585 16.7827C451.307 17.2961 450.939 17.7352 450.481 18.1001C450.024 18.4588 449.495 18.731 448.895 18.9165C448.295 19.0959 447.67 19.1855 447.021 19.1855C446.365 19.1855 445.756 19.1299 445.193 19.0186C444.637 18.9072 444.13 18.7495 443.672 18.5454C443.22 18.3413 442.815 18.1125 442.457 17.8589C442.104 17.6053 441.795 17.3332 441.529 17.0425L443.282 15.2612ZM464.063 12.2183C464.063 12.8182 464.017 13.4058 463.924 13.981C463.832 14.5562 463.686 15.1035 463.488 15.623C463.297 16.1364 463.049 16.6126 462.746 17.0518C462.443 17.4847 462.078 17.8589 461.651 18.1743C461.225 18.4897 460.733 18.7371 460.176 18.9165C459.626 19.0959 459.004 19.1855 458.312 19.1855C457.743 19.1855 457.217 19.1175 456.734 18.9814C456.252 18.8392 455.816 18.6475 455.426 18.4062C455.037 18.165 454.7 17.8805 454.415 17.5527C454.131 17.2188 453.908 16.86 453.747 16.4766L456.233 15.5024C456.456 15.923 456.753 16.2415 457.124 16.458C457.501 16.6683 457.928 16.7734 458.404 16.7734C458.868 16.7734 459.276 16.6838 459.629 16.5044C459.981 16.3188 460.272 16.0684 460.501 15.7529C460.736 15.4375 460.912 15.0726 461.03 14.6582C461.147 14.2376 461.203 13.7923 461.197 13.3223C461.042 13.4769 460.86 13.6253 460.649 13.7676C460.439 13.9098 460.204 14.0366 459.944 14.1479C459.691 14.2531 459.412 14.3397 459.109 14.4077C458.812 14.4696 458.5 14.5005 458.172 14.5005C457.523 14.5005 456.917 14.3953 456.354 14.1851C455.797 13.9686 455.312 13.6717 454.897 13.2944C454.489 12.911 454.168 12.4564 453.933 11.9307C453.698 11.4049 453.58 10.8298 453.58 10.2051C453.58 9.53711 453.698 8.91553 453.933 8.34033C454.174 7.76514 454.511 7.27035 454.944 6.85596C455.383 6.43538 455.909 6.10758 456.521 5.87256C457.133 5.63135 457.817 5.51074 458.571 5.51074C459.4 5.51074 460.152 5.65918 460.826 5.95605C461.5 6.24674 462.075 6.66732 462.551 7.21777C463.034 7.76823 463.405 8.43929 463.665 9.23096C463.931 10.0226 464.063 10.9163 464.063 11.9121V12.2183ZM461.067 10.0474C461.067 9.73193 461.011 9.43815 460.9 9.16602C460.789 8.89388 460.628 8.65885 460.417 8.46094C460.213 8.25684 459.966 8.09912 459.675 7.98779C459.385 7.87028 459.063 7.81152 458.71 7.81152C458.346 7.81152 458.018 7.87028 457.727 7.98779C457.436 8.09912 457.189 8.25684 456.985 8.46094C456.781 8.65885 456.623 8.89388 456.512 9.16602C456.407 9.43815 456.354 9.73193 456.354 10.0474C456.354 10.3566 456.407 10.6473 456.512 10.9194C456.623 11.1916 456.781 11.4297 456.985 11.6338C457.189 11.8317 457.436 11.9894 457.727 12.1069C458.018 12.2183 458.346 12.2739 458.71 12.2739C459.063 12.2739 459.385 12.2183 459.675 12.1069C459.966 11.9894 460.213 11.8317 460.417 11.6338C460.628 11.4297 460.789 11.1916 460.9 10.9194C461.011 10.6473 461.067 10.3566 461.067 10.0474ZM471.894 19V15.9941H465.26V13.1274L471.151 5.69629H474.593V13.5635H476.532V15.9941H474.593V19H471.894ZM471.894 13.5635V8.34033L467.756 13.5635H471.894ZM484.362 5.69629C484.919 5.69629 485.435 5.77979 485.912 5.94678C486.388 6.10758 486.802 6.33952 487.155 6.64258C487.507 6.94564 487.783 7.31364 487.98 7.74658C488.178 8.17334 488.277 8.64958 488.277 9.17529C488.277 9.44743 488.237 9.71647 488.157 9.98242C488.083 10.2484 487.971 10.4989 487.823 10.7339C487.674 10.9627 487.495 11.173 487.285 11.3647C487.074 11.5565 486.836 11.7142 486.57 11.8379C486.787 11.9121 487.037 12.0234 487.322 12.1719C487.612 12.3203 487.888 12.5244 488.147 12.7842C488.407 13.0439 488.627 13.3656 488.806 13.749C488.986 14.1263 489.075 14.584 489.075 15.1221C489.075 15.7962 488.945 16.3776 488.686 16.8662C488.432 17.3548 488.086 17.7568 487.646 18.0723C487.214 18.3877 486.703 18.6227 486.116 18.7773C485.534 18.9258 484.919 19 484.27 19H478.443V5.69629H484.362ZM486.32 15.0293C486.32 14.6706 486.255 14.3768 486.125 14.1479C485.995 13.9191 485.822 13.7367 485.605 13.6006C485.395 13.4645 485.154 13.3717 484.882 13.3223C484.61 13.2666 484.331 13.2388 484.047 13.2388H481.134V16.8755H484.047C484.331 16.8755 484.61 16.8477 484.882 16.792C485.154 16.7363 485.395 16.6374 485.605 16.4951C485.822 16.3529 485.995 16.1642 486.125 15.9292C486.255 15.6942 486.32 15.3942 486.32 15.0293ZM485.568 9.44434C485.568 8.93717 485.408 8.54134 485.086 8.25684C484.764 7.97233 484.245 7.83008 483.527 7.83008H481.134V10.9658H483.527C484.232 10.9658 484.749 10.8328 485.077 10.5669C485.404 10.2948 485.568 9.92057 485.568 9.44434ZM497.453 14.9644C497.137 15.0138 496.884 15.1252 496.692 15.2983C496.5 15.4653 496.404 15.6942 496.404 15.9849C496.404 16.3065 496.522 16.5848 496.757 16.8198C496.992 17.0487 497.338 17.1631 497.796 17.1631C498.278 17.1631 498.659 17.0239 498.937 16.7456C499.215 16.4673 499.354 16.0993 499.354 15.6416V14.6396L497.453 14.9644ZM499.772 18.063C499.667 18.1805 499.537 18.3073 499.382 18.4434C499.234 18.5732 499.055 18.6938 498.844 18.8052C498.64 18.9103 498.399 19 498.121 19.0742C497.842 19.1484 497.53 19.1855 497.184 19.1855C496.689 19.1855 496.231 19.1082 495.811 18.9536C495.396 18.7928 495.031 18.5701 494.716 18.2856C494.4 18.0011 494.153 17.6733 493.974 17.3022C493.794 16.925 493.705 16.5168 493.705 16.0776C493.705 15.2798 493.952 14.6273 494.447 14.1201C494.942 13.613 495.625 13.2944 496.497 13.1646L499.354 12.7471V12.5615C499.354 12.1162 499.218 11.7637 498.946 11.5039C498.674 11.2441 498.232 11.1143 497.62 11.1143C497.366 11.1143 497.109 11.1452 496.85 11.207C496.59 11.2627 496.339 11.3276 496.098 11.4019C495.863 11.4761 495.644 11.5627 495.439 11.6616C495.235 11.7544 495.056 11.8379 494.901 11.9121L493.899 9.95459C494.468 9.63916 495.099 9.37939 495.792 9.17529C496.491 8.97119 497.215 8.86914 497.963 8.86914C498.421 8.86914 498.881 8.91862 499.345 9.01758C499.815 9.11035 500.239 9.28353 500.616 9.53711C501 9.79069 501.312 10.137 501.553 10.5762C501.794 11.0091 501.915 11.5627 501.915 12.2368V16.3188C501.915 16.6095 501.989 16.826 502.138 16.9683C502.292 17.1043 502.503 17.2311 502.769 17.3486L501.609 19.1855C501.139 19.1361 500.762 19.0155 500.477 18.8237C500.193 18.6258 499.958 18.3722 499.772 18.063ZM506.619 22.1357H504.058V9.06396H506.619V9.91748C506.897 9.62679 507.24 9.37939 507.648 9.17529C508.057 8.97119 508.551 8.86914 509.133 8.86914C509.788 8.86914 510.382 9.00212 510.914 9.26807C511.452 9.52783 511.913 9.88965 512.296 10.3535C512.68 10.8112 512.977 11.3555 513.187 11.9863C513.397 12.6172 513.502 13.3006 513.502 14.0366C513.502 14.7726 513.394 15.4561 513.178 16.0869C512.961 16.7178 512.658 17.262 512.269 17.7197C511.879 18.1774 511.412 18.5361 510.868 18.7959C510.323 19.0557 509.723 19.1855 509.068 19.1855C508.777 19.1855 508.511 19.1577 508.27 19.1021C508.035 19.0526 507.819 18.9814 507.621 18.8887C507.423 18.7959 507.24 18.6877 507.073 18.564C506.906 18.4341 506.755 18.2949 506.619 18.1465V22.1357ZM506.544 14.9551C506.544 15.221 506.591 15.4684 506.684 15.6973C506.783 15.9199 506.922 16.1147 507.101 16.2817C507.28 16.4487 507.494 16.5786 507.741 16.6714C507.995 16.7642 508.279 16.8105 508.595 16.8105C508.96 16.8105 509.281 16.7456 509.56 16.6157C509.844 16.4797 510.082 16.291 510.274 16.0498C510.466 15.8086 510.611 15.5241 510.71 15.1963C510.809 14.8623 510.858 14.4974 510.858 14.1016V13.981C510.858 13.5851 510.809 13.2202 510.71 12.8862C510.611 12.5522 510.466 12.2646 510.274 12.0234C510.082 11.776 509.844 11.5843 509.56 11.4482C509.281 11.3122 508.96 11.2441 508.595 11.2441C508.279 11.2441 507.995 11.2905 507.741 11.3833C507.494 11.4761 507.28 11.606 507.101 11.7729C506.922 11.9399 506.783 12.1379 506.684 12.3667C506.591 12.5955 506.544 12.8429 506.544 13.1089V14.9551ZM517.77 22.1357H515.209V9.06396H517.77V9.91748C518.048 9.62679 518.392 9.37939 518.8 9.17529C519.208 8.97119 519.703 8.86914 520.284 8.86914C520.94 8.86914 521.534 9.00212 522.065 9.26807C522.604 9.52783 523.064 9.88965 523.448 10.3535C523.831 10.8112 524.128 11.3555 524.338 11.9863C524.549 12.6172 524.654 13.3006 524.654 14.0366C524.654 14.7726 524.546 15.4561 524.329 16.0869C524.113 16.7178 523.81 17.262 523.42 17.7197C523.03 18.1774 522.563 18.5361 522.019 18.7959C521.475 19.0557 520.875 19.1855 520.219 19.1855C519.929 19.1855 519.663 19.1577 519.421 19.1021C519.186 19.0526 518.97 18.9814 518.772 18.8887C518.574 18.7959 518.392 18.6877 518.225 18.564C518.058 18.4341 517.906 18.2949 517.77 18.1465V22.1357ZM517.696 14.9551C517.696 15.221 517.742 15.4684 517.835 15.6973C517.934 15.9199 518.073 16.1147 518.252 16.2817C518.432 16.4487 518.645 16.5786 518.893 16.6714C519.146 16.7642 519.431 16.8105 519.746 16.8105C520.111 16.8105 520.433 16.7456 520.711 16.6157C520.995 16.4797 521.234 16.291 521.425 16.0498C521.617 15.8086 521.762 15.5241 521.861 15.1963C521.96 14.8623 522.01 14.4974 522.01 14.1016V13.981C522.01 13.5851 521.96 13.2202 521.861 12.8862C521.762 12.5522 521.617 12.2646 521.425 12.0234C521.234 11.776 520.995 11.5843 520.711 11.4482C520.433 11.3122 520.111 11.2441 519.746 11.2441C519.431 11.2441 519.146 11.2905 518.893 11.3833C518.645 11.4761 518.432 11.606 518.252 11.7729C518.073 11.9399 517.934 12.1379 517.835 12.3667C517.742 12.5955 517.696 12.8429 517.696 13.1089V14.9551ZM528.504 14.918C528.547 15.2148 528.64 15.487 528.782 15.7344C528.931 15.9818 529.116 16.1951 529.339 16.3745C529.562 16.5477 529.818 16.6838 530.109 16.7827C530.4 16.8817 530.709 16.9312 531.037 16.9312C531.414 16.9312 531.822 16.86 532.261 16.7178C532.7 16.5693 533.102 16.356 533.467 16.0776L534.701 17.8774C534.237 18.2671 533.668 18.5825 532.994 18.8237C532.32 19.0649 531.603 19.1855 530.842 19.1855C530.155 19.1855 529.509 19.068 528.903 18.833C528.297 18.598 527.765 18.2578 527.307 17.8125C526.856 17.3672 526.497 16.826 526.231 16.189C525.971 15.5519 525.841 14.8345 525.841 14.0366C525.841 13.3068 525.956 12.6265 526.185 11.9956C526.42 11.3647 526.744 10.8174 527.159 10.3535C527.579 9.88965 528.08 9.52783 528.662 9.26807C529.243 9.00212 529.886 8.86914 530.591 8.86914C531.247 8.86914 531.856 8.98975 532.419 9.23096C532.982 9.46598 533.47 9.79997 533.885 10.2329C534.299 10.6597 534.624 11.173 534.859 11.7729C535.094 12.3729 535.211 13.0347 535.211 13.7583V14.918H528.504ZM530.582 11.0957C530.032 11.0957 529.565 11.2812 529.181 11.6523C528.804 12.0173 528.584 12.4595 528.522 12.979H532.53C532.518 12.4533 532.326 12.008 531.955 11.6431C531.584 11.2782 531.126 11.0957 530.582 11.0957ZM540.054 14.9644C539.739 15.0138 539.485 15.1252 539.293 15.2983C539.102 15.4653 539.006 15.6942 539.006 15.9849C539.006 16.3065 539.123 16.5848 539.358 16.8198C539.593 17.0487 539.94 17.1631 540.397 17.1631C540.88 17.1631 541.26 17.0239 541.539 16.7456C541.817 16.4673 541.956 16.0993 541.956 15.6416V14.6396L540.054 14.9644ZM542.374 18.063C542.268 18.1805 542.139 18.3073 541.984 18.4434C541.835 18.5732 541.656 18.6938 541.446 18.8052C541.242 18.9103 541 19 540.722 19.0742C540.444 19.1484 540.132 19.1855 539.785 19.1855C539.29 19.1855 538.833 19.1082 538.412 18.9536C537.998 18.7928 537.633 18.5701 537.317 18.2856C537.002 18.0011 536.755 17.6733 536.575 17.3022C536.396 16.925 536.306 16.5168 536.306 16.0776C536.306 15.2798 536.554 14.6273 537.048 14.1201C537.543 13.613 538.227 13.2944 539.099 13.1646L541.956 12.7471V12.5615C541.956 12.1162 541.82 11.7637 541.548 11.5039C541.276 11.2441 540.833 11.1143 540.221 11.1143C539.968 11.1143 539.711 11.1452 539.451 11.207C539.191 11.2627 538.941 11.3276 538.7 11.4019C538.465 11.4761 538.245 11.5627 538.041 11.6616C537.837 11.7544 537.658 11.8379 537.503 11.9121L536.501 9.95459C537.07 9.63916 537.701 9.37939 538.394 9.17529C539.092 8.97119 539.816 8.86914 540.564 8.86914C541.022 8.86914 541.483 8.91862 541.947 9.01758C542.417 9.11035 542.84 9.28353 543.218 9.53711C543.601 9.79069 543.914 10.137 544.155 10.5762C544.396 11.0091 544.517 11.5627 544.517 12.2368V16.3188C544.517 16.6095 544.591 16.826 544.739 16.9683C544.894 17.1043 545.104 17.2311 545.37 17.3486L544.21 19.1855C543.74 19.1361 543.363 19.0155 543.079 18.8237C542.794 18.6258 542.559 18.3722 542.374 18.063ZM546.623 5.69629H549.183V16.3003C549.183 16.5106 549.242 16.6714 549.359 16.7827C549.483 16.894 549.678 16.9497 549.944 16.9497C550.068 16.9497 550.173 16.9435 550.259 16.9312C550.352 16.9126 550.47 16.8879 550.612 16.8569L550.816 19.0371C550.643 19.0618 550.457 19.0866 550.259 19.1113C550.092 19.1299 549.897 19.1453 549.675 19.1577C549.458 19.1763 549.233 19.1855 548.998 19.1855C548.633 19.1855 548.305 19.1392 548.014 19.0464C547.723 18.9536 547.473 18.8175 547.263 18.6382C547.059 18.4526 546.901 18.2238 546.79 17.9517C546.678 17.6795 546.623 17.3641 546.623 17.0054V5.69629Z" fill="white"/>
</svg>
