<svg width="665" height="27" viewBox="0 0 665 27" fill="none" xmlns="http://www.w3.org/2000/svg">
<rect width="135" height="27" fill="#001CB8"/>
<path d="M15.0156 14.7046L11.082 9.7876V19H8.3916V5.69629H11.1191L15.0527 10.8916L19.1069 5.69629H21.7231V19H19.0234V9.7876L15.1084 14.7046H15.0156ZM26.7886 19H24.228V9.06396H26.7886V19ZM23.959 6.45703C23.959 6.24674 23.9992 6.04883 24.0796 5.86328C24.16 5.67155 24.2682 5.50765 24.4043 5.37158C24.5465 5.22933 24.7104 5.118 24.896 5.0376C25.0815 4.95719 25.2826 4.91699 25.499 4.91699C25.7093 4.91699 25.9072 4.95719 26.0928 5.0376C26.2845 5.118 26.4484 5.22933 26.5845 5.37158C26.7267 5.50765 26.8381 5.67155 26.9185 5.86328C26.9989 6.04883 27.0391 6.24674 27.0391 6.45703C27.0391 6.6735 26.9989 6.87451 26.9185 7.06006C26.8381 7.24561 26.7267 7.40951 26.5845 7.55176C26.4484 7.68783 26.2845 7.79606 26.0928 7.87646C25.9072 7.95687 25.7093 7.99707 25.499 7.99707C25.2826 7.99707 25.0815 7.95687 24.896 7.87646C24.7104 7.79606 24.5465 7.68783 24.4043 7.55176C24.2682 7.40951 24.16 7.24561 24.0796 7.06006C23.9992 6.87451 23.959 6.6735 23.959 6.45703ZM35.0361 17.2373C34.8073 17.5156 34.4857 17.7383 34.0713 17.9053C33.6631 18.0661 33.2178 18.1465 32.7354 18.1465C32.0674 18.1465 31.4736 18.029 30.9541 17.7939C30.4346 17.5589 29.9954 17.2373 29.6367 16.8291C29.2842 16.4147 29.012 15.9261 28.8203 15.3633C28.6348 14.8005 28.542 14.182 28.542 13.5078C28.542 12.8522 28.6348 12.2399 28.8203 11.6709C29.012 11.0957 29.2842 10.604 29.6367 10.1958C29.9954 9.78141 30.4346 9.45671 30.9541 9.22168C31.4736 8.98665 32.0674 8.86914 32.7354 8.86914C33.2178 8.86914 33.6631 8.95264 34.0713 9.11963C34.4857 9.28662 34.8073 9.50928 35.0361 9.7876V9.06396H37.606V18.9072C37.606 19.5133 37.4915 20.0329 37.2627 20.4658C37.0339 20.9049 36.7184 21.2637 36.3164 21.542C35.9206 21.8203 35.4598 22.0213 34.9341 22.145C34.4084 22.2749 33.8486 22.3398 33.2549 22.3398C32.5312 22.3398 31.7767 22.2533 30.9912 22.0801C30.2057 21.9131 29.5285 21.7028 28.9595 21.4492L29.6831 19.3804C29.8563 19.4546 30.0697 19.535 30.3232 19.6216C30.5768 19.7144 30.849 19.7948 31.1396 19.8628C31.4303 19.9308 31.7334 19.9865 32.0488 20.0298C32.3704 20.0793 32.6828 20.104 32.9858 20.104C33.2518 20.104 33.5085 20.0762 33.7559 20.0205C34.0033 19.971 34.2197 19.8844 34.4053 19.7607C34.597 19.6432 34.7485 19.4855 34.8599 19.2876C34.9774 19.0959 35.0361 18.8485 35.0361 18.5454V17.2373ZM31.1768 13.5449C31.1768 13.8727 31.2108 14.182 31.2788 14.4727C31.353 14.7572 31.4674 15.0015 31.6221 15.2056C31.7829 15.4035 31.987 15.5612 32.2344 15.6787C32.4818 15.79 32.7817 15.8457 33.1343 15.8457C33.8332 15.8457 34.3311 15.6261 34.6279 15.187C34.9248 14.7417 35.0732 14.1943 35.0732 13.5449V13.4707C35.0732 13.1429 35.0392 12.8368 34.9712 12.5522C34.9032 12.2677 34.7918 12.0234 34.6372 11.8193C34.4826 11.6152 34.2816 11.4575 34.0342 11.3462C33.793 11.2287 33.493 11.1699 33.1343 11.1699C32.4416 11.1699 31.9406 11.3895 31.6313 11.8286C31.3283 12.2677 31.1768 12.8151 31.1768 13.4707V13.5449ZM45.3989 11.5503H45.1299C44.765 11.5503 44.4155 11.5874 44.0815 11.6616C43.7537 11.7358 43.4631 11.8719 43.2095 12.0698C42.9559 12.2616 42.7518 12.5275 42.5972 12.8677C42.4487 13.2078 42.3745 13.6439 42.3745 14.1758V19H39.814V9.06396H42.3745V10.1865C42.4797 10.0195 42.6157 9.85872 42.7827 9.7041C42.9497 9.54948 43.1445 9.41341 43.3672 9.2959C43.5898 9.1722 43.8403 9.07324 44.1187 8.99902C44.397 8.9248 44.6969 8.8877 45.0186 8.8877H45.3989V11.5503ZM50.2046 14.9644C49.8892 15.0138 49.6356 15.1252 49.4438 15.2983C49.2521 15.4653 49.1562 15.6942 49.1562 15.9849C49.1562 16.3065 49.2738 16.5848 49.5088 16.8198C49.7438 17.0487 50.0902 17.1631 50.5479 17.1631C51.0303 17.1631 51.4106 17.0239 51.689 16.7456C51.9673 16.4673 52.1064 16.0993 52.1064 15.6416V14.6396L50.2046 14.9644ZM52.5239 18.063C52.4188 18.1805 52.2889 18.3073 52.1343 18.4434C51.9858 18.5732 51.8065 18.6938 51.5962 18.8052C51.3921 18.9103 51.1509 19 50.8726 19.0742C50.5942 19.1484 50.2819 19.1855 49.9355 19.1855C49.4408 19.1855 48.9831 19.1082 48.5625 18.9536C48.1481 18.7928 47.7832 18.5701 47.4678 18.2856C47.1523 18.0011 46.9049 17.6733 46.7256 17.3022C46.5462 16.925 46.4565 16.5168 46.4565 16.0776C46.4565 15.2798 46.7039 14.6273 47.1987 14.1201C47.6935 13.613 48.377 13.2944 49.249 13.1646L52.1064 12.7471V12.5615C52.1064 12.1162 51.9704 11.7637 51.6982 11.5039C51.4261 11.2441 50.9839 11.1143 50.3716 11.1143C50.118 11.1143 49.8613 11.1452 49.6016 11.207C49.3418 11.2627 49.0913 11.3276 48.8501 11.4019C48.6151 11.4761 48.3955 11.5627 48.1914 11.6616C47.9873 11.7544 47.8079 11.8379 47.6533 11.9121L46.6514 9.95459C47.2204 9.63916 47.8512 9.37939 48.5439 9.17529C49.2428 8.97119 49.9665 8.86914 50.7148 8.86914C51.1725 8.86914 51.6333 8.91862 52.0972 9.01758C52.5672 9.11035 52.9909 9.28353 53.3682 9.53711C53.7516 9.79069 54.064 10.137 54.3052 10.5762C54.5464 11.0091 54.667 11.5627 54.667 12.2368V16.3188C54.667 16.6095 54.7412 16.826 54.8896 16.9683C55.0443 17.1043 55.2546 17.2311 55.5205 17.3486L54.3608 19.1855C53.8908 19.1361 53.5135 19.0155 53.229 18.8237C52.9445 18.6258 52.7095 18.3722 52.5239 18.063ZM60.085 16.0405C60.085 16.158 60.1004 16.2694 60.1313 16.3745C60.1623 16.4797 60.2148 16.5724 60.2891 16.6528C60.3695 16.7271 60.4808 16.7858 60.623 16.8291C60.7653 16.8724 60.9478 16.894 61.1704 16.894C61.2632 16.894 61.3683 16.891 61.4858 16.8848C61.6034 16.8724 61.7209 16.86 61.8384 16.8477C61.9559 16.8353 62.0641 16.8198 62.1631 16.8013C62.2682 16.7827 62.3548 16.7673 62.4229 16.7549L62.6548 19.0186C62.4136 19.0495 62.1631 19.0773 61.9033 19.1021C61.6807 19.1268 61.4333 19.1453 61.1611 19.1577C60.889 19.1763 60.6138 19.1855 60.3354 19.1855C59.451 19.1855 58.7614 18.9845 58.2666 18.5825C57.7718 18.1805 57.5244 17.5404 57.5244 16.6621V11.2905H55.7339V9.06396H57.5244V6.25293L60.085 5.56641V9.06396H62.6919V11.2905H60.085V16.0405ZM66.4492 14.918C66.4925 15.2148 66.5853 15.487 66.7275 15.7344C66.876 15.9818 67.0615 16.1951 67.2842 16.3745C67.5068 16.5477 67.7635 16.6838 68.0542 16.7827C68.3449 16.8817 68.6541 16.9312 68.9819 16.9312C69.3592 16.9312 69.7674 16.86 70.2065 16.7178C70.6457 16.5693 71.0477 16.356 71.4126 16.0776L72.6465 17.8774C72.1826 18.2671 71.6136 18.5825 70.9395 18.8237C70.2653 19.0649 69.5479 19.1855 68.7871 19.1855C68.1006 19.1855 67.4543 19.068 66.8481 18.833C66.242 18.598 65.7101 18.2578 65.2524 17.8125C64.8009 17.3672 64.4422 16.826 64.1763 16.189C63.9165 15.5519 63.7866 14.8345 63.7866 14.0366C63.7866 13.3068 63.901 12.6265 64.1299 11.9956C64.3649 11.3647 64.6896 10.8174 65.104 10.3535C65.5246 9.88965 66.0256 9.52783 66.6069 9.26807C67.1883 9.00212 67.8315 8.86914 68.5366 8.86914C69.1922 8.86914 69.8014 8.98975 70.3643 9.23096C70.9271 9.46598 71.4157 9.79997 71.8301 10.2329C72.2445 10.6597 72.5692 11.173 72.8042 11.7729C73.0392 12.3729 73.1567 13.0347 73.1567 13.7583V14.918H66.4492ZM68.5273 11.0957C67.9769 11.0957 67.5099 11.2812 67.1265 11.6523C66.7492 12.0173 66.5296 12.4595 66.4678 12.979H70.4756C70.4632 12.4533 70.2715 12.008 69.9004 11.6431C69.5293 11.2782 69.0716 11.0957 68.5273 11.0957ZM81.1724 19V18.1465C81.0363 18.2949 80.8848 18.4341 80.7178 18.564C80.557 18.6877 80.3745 18.7959 80.1704 18.8887C79.9725 18.9814 79.7529 19.0526 79.5117 19.1021C79.2767 19.1577 79.0138 19.1855 78.7231 19.1855C78.0675 19.1855 77.4676 19.0557 76.9233 18.7959C76.3791 18.5361 75.9121 18.1774 75.5225 17.7197C75.1328 17.262 74.8298 16.7178 74.6133 16.0869C74.403 15.4561 74.2979 14.7726 74.2979 14.0366C74.2979 13.3006 74.403 12.6172 74.6133 11.9863C74.8236 11.3555 75.1174 10.8112 75.4946 10.3535C75.8781 9.88965 76.3389 9.52783 76.877 9.26807C77.415 9.00212 78.0119 8.86914 78.6675 8.86914C79.2489 8.86914 79.7406 8.97119 80.1426 9.17529C80.5508 9.37321 80.894 9.62061 81.1724 9.91748V5.69629H83.7329V19H81.1724ZM81.2466 13.1089C81.2466 12.8429 81.1971 12.5955 81.0981 12.3667C81.0054 12.1379 80.8693 11.9399 80.6899 11.7729C80.5106 11.606 80.2941 11.4761 80.0405 11.3833C79.7931 11.2905 79.5117 11.2441 79.1963 11.2441C78.8314 11.2441 78.5067 11.3122 78.2222 11.4482C77.9438 11.5843 77.7088 11.776 77.5171 12.0234C77.3254 12.2646 77.18 12.5522 77.0811 12.8862C76.9821 13.2202 76.9326 13.5851 76.9326 13.981V14.1016C76.9326 14.4974 76.9821 14.8623 77.0811 15.1963C77.18 15.5241 77.3254 15.8086 77.5171 16.0498C77.7088 16.291 77.9438 16.4797 78.2222 16.6157C78.5067 16.7456 78.8314 16.8105 79.1963 16.8105C79.5117 16.8105 79.7931 16.7642 80.0405 16.6714C80.2941 16.5786 80.5106 16.4487 80.6899 16.2817C80.8693 16.1147 81.0054 15.9199 81.0981 15.6973C81.1971 15.4684 81.2466 15.221 81.2466 14.9551V13.1089ZM91.498 14.083C91.498 14.4046 91.5413 14.7293 91.6279 15.0571C91.7145 15.3787 91.8475 15.6694 92.0269 15.9292C92.2062 16.189 92.4351 16.4023 92.7134 16.5693C92.9979 16.7301 93.335 16.8105 93.7246 16.8105C93.9782 16.8105 94.207 16.7765 94.4111 16.7085C94.6214 16.6405 94.807 16.5477 94.9678 16.4302C95.1348 16.3065 95.2801 16.1642 95.4038 16.0034C95.5337 15.8364 95.645 15.6571 95.7378 15.4653L97.9829 16.625C97.8221 17.0146 97.5994 17.3672 97.3149 17.6826C97.0366 17.998 96.7119 18.2671 96.3408 18.4897C95.9697 18.7124 95.5584 18.8825 95.1069 19C94.6554 19.1237 94.1761 19.1855 93.6689 19.1855C92.9701 19.1855 92.3268 19.0557 91.7393 18.7959C91.1517 18.5299 90.6445 18.1681 90.2178 17.7104C89.791 17.2528 89.457 16.7116 89.2158 16.0869C88.9746 15.4561 88.854 14.7726 88.854 14.0366C88.854 13.3068 88.9746 12.6265 89.2158 11.9956C89.457 11.3647 89.791 10.8174 90.2178 10.3535C90.6445 9.88965 91.1517 9.52783 91.7393 9.26807C92.3268 9.00212 92.9701 8.86914 93.6689 8.86914C94.1761 8.86914 94.6554 8.93099 95.1069 9.05469C95.5584 9.1722 95.9697 9.34538 96.3408 9.57422C96.7119 9.79688 97.0366 10.0659 97.3149 10.3813C97.5994 10.6968 97.8221 11.0493 97.9829 11.439L95.7378 12.5986C95.645 12.4069 95.5337 12.2306 95.4038 12.0698C95.2801 11.9028 95.1348 11.7606 94.9678 11.6431C94.807 11.5194 94.6214 11.4235 94.4111 11.3555C94.207 11.2812 93.9782 11.2441 93.7246 11.2441C93.335 11.2441 92.9979 11.3276 92.7134 11.4946C92.4351 11.6554 92.2062 11.8688 92.0269 12.1348C91.8475 12.3945 91.7145 12.6883 91.6279 13.0161C91.5413 13.3439 91.498 13.6717 91.498 13.9995V14.083ZM102.77 14.9644C102.455 15.0138 102.201 15.1252 102.009 15.2983C101.818 15.4653 101.722 15.6942 101.722 15.9849C101.722 16.3065 101.839 16.5848 102.074 16.8198C102.309 17.0487 102.656 17.1631 103.113 17.1631C103.596 17.1631 103.976 17.0239 104.254 16.7456C104.533 16.4673 104.672 16.0993 104.672 15.6416V14.6396L102.77 14.9644ZM105.089 18.063C104.984 18.1805 104.854 18.3073 104.7 18.4434C104.551 18.5732 104.372 18.6938 104.162 18.8052C103.958 18.9103 103.716 19 103.438 19.0742C103.16 19.1484 102.847 19.1855 102.501 19.1855C102.006 19.1855 101.549 19.1082 101.128 18.9536C100.714 18.7928 100.349 18.5701 100.033 18.2856C99.7178 18.0011 99.4704 17.6733 99.291 17.3022C99.1117 16.925 99.022 16.5168 99.022 16.0776C99.022 15.2798 99.2694 14.6273 99.7642 14.1201C100.259 13.613 100.942 13.2944 101.814 13.1646L104.672 12.7471V12.5615C104.672 12.1162 104.536 11.7637 104.264 11.5039C103.992 11.2441 103.549 11.1143 102.937 11.1143C102.683 11.1143 102.427 11.1452 102.167 11.207C101.907 11.2627 101.657 11.3276 101.416 11.4019C101.181 11.4761 100.961 11.5627 100.757 11.6616C100.553 11.7544 100.373 11.8379 100.219 11.9121L99.2168 9.95459C99.7858 9.63916 100.417 9.37939 101.109 9.17529C101.808 8.97119 102.532 8.86914 103.28 8.86914C103.738 8.86914 104.199 8.91862 104.663 9.01758C105.133 9.11035 105.556 9.28353 105.934 9.53711C106.317 9.79069 106.629 10.137 106.871 10.5762C107.112 11.0091 107.232 11.5627 107.232 12.2368V16.3188C107.232 16.6095 107.307 16.826 107.455 16.9683C107.61 17.1043 107.82 17.2311 108.086 17.3486L106.926 19.1855C106.456 19.1361 106.079 19.0155 105.794 18.8237C105.51 18.6258 105.275 18.3722 105.089 18.063ZM110.081 15.8271C110.445 16.1549 110.882 16.4364 111.389 16.6714C111.896 16.9064 112.409 17.0239 112.929 17.0239C113.306 17.0239 113.603 16.9528 113.819 16.8105C114.036 16.6621 114.144 16.4735 114.144 16.2446C114.144 15.855 113.727 15.5519 112.892 15.3354L112.168 15.1406C111.809 15.054 111.447 14.9365 111.083 14.7881C110.718 14.6335 110.381 14.4325 110.071 14.1851C109.768 13.9377 109.521 13.6377 109.329 13.2852C109.144 12.9264 109.051 12.4873 109.051 11.9678C109.051 11.5534 109.14 11.1606 109.32 10.7896C109.505 10.4123 109.765 10.0814 110.099 9.79688C110.439 9.51237 110.851 9.28662 111.333 9.11963C111.815 8.95264 112.354 8.86914 112.947 8.86914C113.795 8.86914 114.549 9.00212 115.211 9.26807C115.879 9.53402 116.405 9.83398 116.788 10.168L115.452 11.875C115.137 11.6462 114.763 11.4513 114.33 11.2905C113.903 11.1235 113.473 11.04 113.04 11.04C112.638 11.04 112.326 11.1143 112.103 11.2627C111.88 11.4049 111.769 11.5781 111.769 11.7822C111.769 11.9987 111.865 12.175 112.057 12.311C112.255 12.4409 112.539 12.5553 112.91 12.6543L113.986 12.9604C115.013 13.2511 115.749 13.6439 116.194 14.1387C116.64 14.6335 116.862 15.2581 116.862 16.0127C116.862 16.4333 116.776 16.8353 116.603 17.2188C116.429 17.596 116.176 17.9331 115.842 18.23C115.508 18.5269 115.093 18.7619 114.599 18.9351C114.104 19.1021 113.541 19.1855 112.91 19.1855C112.428 19.1855 111.973 19.1423 111.546 19.0557C111.126 18.9691 110.733 18.8516 110.368 18.7031C110.009 18.5485 109.685 18.3753 109.394 18.1836C109.103 17.9919 108.856 17.8001 108.652 17.6084L110.081 15.8271ZM120.666 14.918C120.709 15.2148 120.802 15.487 120.944 15.7344C121.093 15.9818 121.278 16.1951 121.501 16.3745C121.724 16.5477 121.98 16.6838 122.271 16.7827C122.562 16.8817 122.871 16.9312 123.199 16.9312C123.576 16.9312 123.984 16.86 124.423 16.7178C124.862 16.5693 125.264 16.356 125.629 16.0776L126.863 17.8774C126.399 18.2671 125.83 18.5825 125.156 18.8237C124.482 19.0649 123.765 19.1855 123.004 19.1855C122.317 19.1855 121.671 19.068 121.065 18.833C120.459 18.598 119.927 18.2578 119.469 17.8125C119.018 17.3672 118.659 16.826 118.393 16.189C118.133 15.5519 118.003 14.8345 118.003 14.0366C118.003 13.3068 118.118 12.6265 118.347 11.9956C118.582 11.3647 118.906 10.8174 119.321 10.3535C119.741 9.88965 120.242 9.52783 120.824 9.26807C121.405 9.00212 122.048 8.86914 122.753 8.86914C123.409 8.86914 124.018 8.98975 124.581 9.23096C125.144 9.46598 125.632 9.79997 126.047 10.2329C126.461 10.6597 126.786 11.173 127.021 11.7729C127.256 12.3729 127.374 13.0347 127.374 13.7583V14.918H120.666ZM122.744 11.0957C122.194 11.0957 121.727 11.2812 121.343 11.6523C120.966 12.0173 120.746 12.4595 120.685 12.979H124.692C124.68 12.4533 124.488 12.008 124.117 11.6431C123.746 11.2782 123.288 11.0957 122.744 11.0957Z" fill="white"/>
<rect width="116" height="27" transform="translate(145)" fill="#800080"/>
<path d="M153.392 5.69629H162.354V8.13623H156.082V10.9658H161.862V13.3965H156.082V19H153.392V5.69629ZM166.176 14.918C166.219 15.2148 166.312 15.487 166.454 15.7344C166.603 15.9818 166.788 16.1951 167.011 16.3745C167.233 16.5477 167.49 16.6838 167.781 16.7827C168.071 16.8817 168.381 16.9312 168.708 16.9312C169.086 16.9312 169.494 16.86 169.933 16.7178C170.372 16.5693 170.774 16.356 171.139 16.0776L172.373 17.8774C171.909 18.2671 171.34 18.5825 170.666 18.8237C169.992 19.0649 169.274 19.1855 168.514 19.1855C167.827 19.1855 167.181 19.068 166.575 18.833C165.969 18.598 165.437 18.2578 164.979 17.8125C164.528 17.3672 164.169 16.826 163.903 16.189C163.643 15.5519 163.513 14.8345 163.513 14.0366C163.513 13.3068 163.628 12.6265 163.856 11.9956C164.091 11.3647 164.416 10.8174 164.831 10.3535C165.251 9.88965 165.752 9.52783 166.333 9.26807C166.915 9.00212 167.558 8.86914 168.263 8.86914C168.919 8.86914 169.528 8.98975 170.091 9.23096C170.654 9.46598 171.142 9.79997 171.557 10.2329C171.971 10.6597 172.296 11.173 172.531 11.7729C172.766 12.3729 172.883 13.0347 172.883 13.7583V14.918H166.176ZM168.254 11.0957C167.703 11.0957 167.236 11.2812 166.853 11.6523C166.476 12.0173 166.256 12.4595 166.194 12.979H170.202C170.19 12.4533 169.998 12.008 169.627 11.6431C169.256 11.2782 168.798 11.0957 168.254 11.0957ZM176.659 14.918C176.702 15.2148 176.795 15.487 176.938 15.7344C177.086 15.9818 177.271 16.1951 177.494 16.3745C177.717 16.5477 177.973 16.6838 178.264 16.7827C178.555 16.8817 178.864 16.9312 179.192 16.9312C179.569 16.9312 179.977 16.86 180.417 16.7178C180.856 16.5693 181.258 16.356 181.623 16.0776L182.856 17.8774C182.393 18.2671 181.824 18.5825 181.149 18.8237C180.475 19.0649 179.758 19.1855 178.997 19.1855C178.311 19.1855 177.664 19.068 177.058 18.833C176.452 18.598 175.92 18.2578 175.462 17.8125C175.011 17.3672 174.652 16.826 174.386 16.189C174.126 15.5519 173.997 14.8345 173.997 14.0366C173.997 13.3068 174.111 12.6265 174.34 11.9956C174.575 11.3647 174.9 10.8174 175.314 10.3535C175.735 9.88965 176.236 9.52783 176.817 9.26807C177.398 9.00212 178.042 8.86914 178.747 8.86914C179.402 8.86914 180.011 8.98975 180.574 9.23096C181.137 9.46598 181.626 9.79997 182.04 10.2329C182.454 10.6597 182.779 11.173 183.014 11.7729C183.249 12.3729 183.367 13.0347 183.367 13.7583V14.918H176.659ZM178.737 11.0957C178.187 11.0957 177.72 11.2812 177.336 11.6523C176.959 12.0173 176.74 12.4595 176.678 12.979H180.686C180.673 12.4533 180.481 12.008 180.11 11.6431C179.739 11.2782 179.282 11.0957 178.737 11.0957ZM190.575 14.918C190.618 15.2148 190.711 15.487 190.854 15.7344C191.002 15.9818 191.188 16.1951 191.41 16.3745C191.633 16.5477 191.889 16.6838 192.18 16.7827C192.471 16.8817 192.78 16.9312 193.108 16.9312C193.485 16.9312 193.893 16.86 194.333 16.7178C194.772 16.5693 195.174 16.356 195.539 16.0776L196.772 17.8774C196.309 18.2671 195.74 18.5825 195.065 18.8237C194.391 19.0649 193.674 19.1855 192.913 19.1855C192.227 19.1855 191.58 19.068 190.974 18.833C190.368 18.598 189.836 18.2578 189.378 17.8125C188.927 17.3672 188.568 16.826 188.302 16.189C188.042 15.5519 187.913 14.8345 187.913 14.0366C187.913 13.3068 188.027 12.6265 188.256 11.9956C188.491 11.3647 188.816 10.8174 189.23 10.3535C189.651 9.88965 190.152 9.52783 190.733 9.26807C191.314 9.00212 191.958 8.86914 192.663 8.86914C193.318 8.86914 193.927 8.98975 194.49 9.23096C195.053 9.46598 195.542 9.79997 195.956 10.2329C196.37 10.6597 196.695 11.173 196.93 11.7729C197.165 12.3729 197.283 13.0347 197.283 13.7583V14.918H190.575ZM192.653 11.0957C192.103 11.0957 191.636 11.2812 191.252 11.6523C190.875 12.0173 190.656 12.4595 190.594 12.979H194.602C194.589 12.4533 194.397 12.008 194.026 11.6431C193.655 11.2782 193.198 11.0957 192.653 11.0957ZM201.216 13.7954L198.192 9.06396H201.151L202.673 11.7451L204.269 9.06396H207.256L204.176 13.814L207.599 19H204.575L202.617 15.957L200.836 19H197.849L201.216 13.7954ZM210.447 14.918C210.491 15.2148 210.583 15.487 210.726 15.7344C210.874 15.9818 211.06 16.1951 211.282 16.3745C211.505 16.5477 211.762 16.6838 212.052 16.7827C212.343 16.8817 212.652 16.9312 212.98 16.9312C213.357 16.9312 213.765 16.86 214.205 16.7178C214.644 16.5693 215.046 16.356 215.411 16.0776L216.645 17.8774C216.181 18.2671 215.612 18.5825 214.938 18.8237C214.263 19.0649 213.546 19.1855 212.785 19.1855C212.099 19.1855 211.452 19.068 210.846 18.833C210.24 18.598 209.708 18.2578 209.25 17.8125C208.799 17.3672 208.44 16.826 208.174 16.189C207.915 15.5519 207.785 14.8345 207.785 14.0366C207.785 13.3068 207.899 12.6265 208.128 11.9956C208.363 11.3647 208.688 10.8174 209.102 10.3535C209.523 9.88965 210.024 9.52783 210.605 9.26807C211.186 9.00212 211.83 8.86914 212.535 8.86914C213.19 8.86914 213.799 8.98975 214.362 9.23096C214.925 9.46598 215.414 9.79997 215.828 10.2329C216.243 10.6597 216.567 11.173 216.802 11.7729C217.037 12.3729 217.155 13.0347 217.155 13.7583V14.918H210.447ZM212.525 11.0957C211.975 11.0957 211.508 11.2812 211.125 11.6523C210.747 12.0173 210.528 12.4595 210.466 12.979H214.474C214.461 12.4533 214.27 12.008 213.898 11.6431C213.527 11.2782 213.07 11.0957 212.525 11.0957ZM227.165 19H224.595V13.2202C224.595 12.8677 224.555 12.5708 224.475 12.3296C224.4 12.0822 224.295 11.8843 224.159 11.7358C224.023 11.5812 223.865 11.473 223.686 11.4111C223.507 11.3431 223.312 11.3091 223.102 11.3091C222.854 11.3091 222.622 11.3524 222.406 11.439C222.195 11.5256 222.01 11.6616 221.849 11.8472C221.694 12.0327 221.571 12.2708 221.478 12.5615C221.391 12.846 221.348 13.1862 221.348 13.582V19H218.788V9.06396H221.348V9.93604C221.676 9.57113 222.056 9.30208 222.489 9.12891C222.928 8.95573 223.398 8.86914 223.899 8.86914C224.413 8.86914 224.892 8.97428 225.337 9.18457C225.789 9.39486 226.163 9.74121 226.46 10.2236C226.633 9.97624 226.831 9.76595 227.054 9.59277C227.283 9.4196 227.527 9.28044 227.787 9.17529C228.046 9.07015 228.315 8.99284 228.594 8.94336C228.878 8.89388 229.169 8.86914 229.466 8.86914C230.022 8.86914 230.517 8.96191 230.95 9.14746C231.389 9.32682 231.76 9.57113 232.063 9.88037C232.367 10.1896 232.598 10.5452 232.759 10.9473C232.92 11.3493 233 11.7729 233 12.2183V19H230.412V13.2202C230.412 12.8677 230.372 12.5708 230.292 12.3296C230.217 12.0822 230.112 11.8843 229.976 11.7358C229.84 11.5812 229.679 11.473 229.494 11.4111C229.314 11.3431 229.119 11.3091 228.909 11.3091C228.662 11.3091 228.433 11.3524 228.223 11.439C228.012 11.5256 227.827 11.6616 227.666 11.8472C227.511 12.0327 227.388 12.2708 227.295 12.5615C227.208 12.846 227.165 13.1862 227.165 13.582V19ZM237.695 22.1357H235.134V9.06396H237.695V9.91748C237.973 9.62679 238.316 9.37939 238.725 9.17529C239.133 8.97119 239.628 8.86914 240.209 8.86914C240.865 8.86914 241.458 9.00212 241.99 9.26807C242.528 9.52783 242.989 9.88965 243.373 10.3535C243.756 10.8112 244.053 11.3555 244.263 11.9863C244.473 12.6172 244.579 13.3006 244.579 14.0366C244.579 14.7726 244.47 15.4561 244.254 16.0869C244.037 16.7178 243.734 17.262 243.345 17.7197C242.955 18.1774 242.488 18.5361 241.944 18.7959C241.4 19.0557 240.8 19.1855 240.144 19.1855C239.853 19.1855 239.587 19.1577 239.346 19.1021C239.111 19.0526 238.895 18.9814 238.697 18.8887C238.499 18.7959 238.316 18.6877 238.149 18.564C237.982 18.4341 237.831 18.2949 237.695 18.1465V22.1357ZM237.621 14.9551C237.621 15.221 237.667 15.4684 237.76 15.6973C237.859 15.9199 237.998 16.1147 238.177 16.2817C238.357 16.4487 238.57 16.5786 238.817 16.6714C239.071 16.7642 239.355 16.8105 239.671 16.8105C240.036 16.8105 240.357 16.7456 240.636 16.6157C240.92 16.4797 241.158 16.291 241.35 16.0498C241.542 15.8086 241.687 15.5241 241.786 15.1963C241.885 14.8623 241.935 14.4974 241.935 14.1016V13.981C241.935 13.5851 241.885 13.2202 241.786 12.8862C241.687 12.5522 241.542 12.2646 241.35 12.0234C241.158 11.776 240.92 11.5843 240.636 11.4482C240.357 11.3122 240.036 11.2441 239.671 11.2441C239.355 11.2441 239.071 11.2905 238.817 11.3833C238.57 11.4761 238.357 11.606 238.177 11.7729C237.998 11.9399 237.859 12.1379 237.76 12.3667C237.667 12.5955 237.621 12.8429 237.621 13.1089V14.9551ZM249.95 16.0405C249.95 16.158 249.966 16.2694 249.997 16.3745C250.028 16.4797 250.08 16.5724 250.154 16.6528C250.235 16.7271 250.346 16.7858 250.488 16.8291C250.631 16.8724 250.813 16.894 251.036 16.894C251.128 16.894 251.234 16.891 251.351 16.8848C251.469 16.8724 251.586 16.86 251.704 16.8477C251.821 16.8353 251.929 16.8198 252.028 16.8013C252.133 16.7827 252.22 16.7673 252.288 16.7549L252.52 19.0186C252.279 19.0495 252.028 19.0773 251.769 19.1021C251.546 19.1268 251.299 19.1453 251.026 19.1577C250.754 19.1763 250.479 19.1855 250.201 19.1855C249.316 19.1855 248.627 18.9845 248.132 18.5825C247.637 18.1805 247.39 17.5404 247.39 16.6621V11.2905H245.599V9.06396H247.39V6.25293L249.95 5.56641V9.06396H252.557V11.2905H249.95V16.0405Z" fill="white"/>
<rect width="259" height="27" transform="translate(271)" fill="#0B0C0C"/>
<path d="M279.392 5.69629H282.082V16.5137H287.352V19H279.392V5.69629ZM290.877 14.918C290.92 15.2148 291.013 15.487 291.155 15.7344C291.304 15.9818 291.489 16.1951 291.712 16.3745C291.935 16.5477 292.191 16.6838 292.482 16.7827C292.773 16.8817 293.082 16.9312 293.41 16.9312C293.787 16.9312 294.195 16.86 294.634 16.7178C295.073 16.5693 295.475 16.356 295.84 16.0776L297.074 17.8774C296.61 18.2671 296.041 18.5825 295.367 18.8237C294.693 19.0649 293.976 19.1855 293.215 19.1855C292.528 19.1855 291.882 19.068 291.276 18.833C290.67 18.598 290.138 18.2578 289.68 17.8125C289.229 17.3672 288.87 16.826 288.604 16.189C288.344 15.5519 288.214 14.8345 288.214 14.0366C288.214 13.3068 288.329 12.6265 288.558 11.9956C288.793 11.3647 289.117 10.8174 289.532 10.3535C289.952 9.88965 290.453 9.52783 291.035 9.26807C291.616 9.00212 292.259 8.86914 292.964 8.86914C293.62 8.86914 294.229 8.98975 294.792 9.23096C295.355 9.46598 295.843 9.79997 296.258 10.2329C296.672 10.6597 296.997 11.173 297.232 11.7729C297.467 12.3729 297.584 13.0347 297.584 13.7583V14.918H290.877ZM292.955 11.0957C292.405 11.0957 291.938 11.2812 291.554 11.6523C291.177 12.0173 290.957 12.4595 290.896 12.979H294.903C294.891 12.4533 294.699 12.008 294.328 11.6431C293.957 11.2782 293.499 11.0957 292.955 11.0957ZM305.257 17.2373C305.028 17.5156 304.706 17.7383 304.292 17.9053C303.884 18.0661 303.438 18.1465 302.956 18.1465C302.288 18.1465 301.694 18.029 301.175 17.7939C300.655 17.5589 300.216 17.2373 299.857 16.8291C299.505 16.4147 299.233 15.9261 299.041 15.3633C298.855 14.8005 298.763 14.182 298.763 13.5078C298.763 12.8522 298.855 12.2399 299.041 11.6709C299.233 11.0957 299.505 10.604 299.857 10.1958C300.216 9.78141 300.655 9.45671 301.175 9.22168C301.694 8.98665 302.288 8.86914 302.956 8.86914C303.438 8.86914 303.884 8.95264 304.292 9.11963C304.706 9.28662 305.028 9.50928 305.257 9.7876V9.06396H307.827V18.9072C307.827 19.5133 307.712 20.0329 307.483 20.4658C307.255 20.9049 306.939 21.2637 306.537 21.542C306.141 21.8203 305.681 22.0213 305.155 22.145C304.629 22.2749 304.069 22.3398 303.476 22.3398C302.752 22.3398 301.997 22.2533 301.212 22.0801C300.426 21.9131 299.749 21.7028 299.18 21.4492L299.904 19.3804C300.077 19.4546 300.29 19.535 300.544 19.6216C300.798 19.7144 301.07 19.7948 301.36 19.8628C301.651 19.9308 301.954 19.9865 302.27 20.0298C302.591 20.0793 302.903 20.104 303.207 20.104C303.472 20.104 303.729 20.0762 303.977 20.0205C304.224 19.971 304.44 19.8844 304.626 19.7607C304.818 19.6432 304.969 19.4855 305.081 19.2876C305.198 19.0959 305.257 18.8485 305.257 18.5454V17.2373ZM301.397 13.5449C301.397 13.8727 301.431 14.182 301.5 14.4727C301.574 14.7572 301.688 15.0015 301.843 15.2056C302.004 15.4035 302.208 15.5612 302.455 15.6787C302.702 15.79 303.002 15.8457 303.355 15.8457C304.054 15.8457 304.552 15.6261 304.849 15.187C305.146 14.7417 305.294 14.1943 305.294 13.5449V13.4707C305.294 13.1429 305.26 12.8368 305.192 12.5522C305.124 12.2677 305.013 12.0234 304.858 11.8193C304.703 11.6152 304.502 11.4575 304.255 11.3462C304.014 11.2287 303.714 11.1699 303.355 11.1699C302.662 11.1699 302.161 11.3895 301.852 11.8286C301.549 12.2677 301.397 12.8151 301.397 13.4707V13.5449ZM313.245 14.9644C312.929 15.0138 312.676 15.1252 312.484 15.2983C312.292 15.4653 312.196 15.6942 312.196 15.9849C312.196 16.3065 312.314 16.5848 312.549 16.8198C312.784 17.0487 313.13 17.1631 313.588 17.1631C314.07 17.1631 314.451 17.0239 314.729 16.7456C315.007 16.4673 315.146 16.0993 315.146 15.6416V14.6396L313.245 14.9644ZM315.564 18.063C315.459 18.1805 315.329 18.3073 315.174 18.4434C315.026 18.5732 314.847 18.6938 314.636 18.8052C314.432 18.9103 314.191 19 313.913 19.0742C313.634 19.1484 313.322 19.1855 312.976 19.1855C312.481 19.1855 312.023 19.1082 311.603 18.9536C311.188 18.7928 310.823 18.5701 310.508 18.2856C310.192 18.0011 309.945 17.6733 309.766 17.3022C309.586 16.925 309.497 16.5168 309.497 16.0776C309.497 15.2798 309.744 14.6273 310.239 14.1201C310.734 13.613 311.417 13.2944 312.289 13.1646L315.146 12.7471V12.5615C315.146 12.1162 315.01 11.7637 314.738 11.5039C314.466 11.2441 314.024 11.1143 313.412 11.1143C313.158 11.1143 312.901 11.1452 312.642 11.207C312.382 11.2627 312.131 11.3276 311.89 11.4019C311.655 11.4761 311.436 11.5627 311.231 11.6616C311.027 11.7544 310.848 11.8379 310.693 11.9121L309.691 9.95459C310.26 9.63916 310.891 9.37939 311.584 9.17529C312.283 8.97119 313.007 8.86914 313.755 8.86914C314.213 8.86914 314.673 8.91862 315.137 9.01758C315.607 9.11035 316.031 9.28353 316.408 9.53711C316.792 9.79069 317.104 10.137 317.345 10.5762C317.586 11.0091 317.707 11.5627 317.707 12.2368V16.3188C317.707 16.6095 317.781 16.826 317.93 16.9683C318.084 17.1043 318.295 17.2311 318.561 17.3486L317.401 19.1855C316.931 19.1361 316.554 19.0155 316.269 18.8237C315.985 18.6258 315.75 18.3722 315.564 18.063ZM319.813 5.69629H322.374V16.3003C322.374 16.5106 322.432 16.6714 322.55 16.7827C322.674 16.894 322.868 16.9497 323.134 16.9497C323.258 16.9497 323.363 16.9435 323.45 16.9312C323.542 16.9126 323.66 16.8879 323.802 16.8569L324.006 19.0371C323.833 19.0618 323.648 19.0866 323.45 19.1113C323.283 19.1299 323.088 19.1453 322.865 19.1577C322.649 19.1763 322.423 19.1855 322.188 19.1855C321.823 19.1855 321.495 19.1392 321.205 19.0464C320.914 18.9536 320.663 18.8175 320.453 18.6382C320.249 18.4526 320.091 18.2238 319.98 17.9517C319.869 17.6795 319.813 17.3641 319.813 17.0054V5.69629ZM325.379 5.69629H327.94V16.3003C327.94 16.5106 327.999 16.6714 328.116 16.7827C328.24 16.894 328.435 16.9497 328.701 16.9497C328.824 16.9497 328.93 16.9435 329.016 16.9312C329.109 16.9126 329.226 16.8879 329.369 16.8569L329.573 19.0371C329.4 19.0618 329.214 19.0866 329.016 19.1113C328.849 19.1299 328.654 19.1453 328.432 19.1577C328.215 19.1763 327.989 19.1855 327.754 19.1855C327.389 19.1855 327.062 19.1392 326.771 19.0464C326.48 18.9536 326.23 18.8175 326.02 18.6382C325.815 18.4526 325.658 18.2238 325.546 17.9517C325.435 17.6795 325.379 17.3641 325.379 17.0054V5.69629ZM332.013 20.1597C332.303 20.1597 332.517 20.1071 332.653 20.002C332.795 19.8968 332.906 19.7267 332.987 19.4917L333.08 19.1855L329.638 9.06396H332.486L334.462 15.9199L336.104 9.06396H338.915L335.566 20.2339C335.455 20.605 335.3 20.9235 335.102 21.1895C334.904 21.4554 334.669 21.6719 334.397 21.8389C334.125 22.012 333.822 22.1388 333.488 22.2192C333.16 22.2996 332.807 22.3398 332.43 22.3398C332.276 22.3398 332.096 22.3337 331.892 22.3213C331.694 22.3089 331.487 22.2904 331.271 22.2656C331.06 22.2471 330.85 22.2223 330.64 22.1914C330.436 22.1605 330.247 22.1234 330.074 22.0801L330.556 19.9834C330.705 20.0205 330.859 20.0514 331.02 20.0762C331.162 20.1009 331.317 20.1195 331.484 20.1318C331.657 20.1504 331.833 20.1597 332.013 20.1597ZM348.721 11.5503H348.452C348.087 11.5503 347.738 11.5874 347.404 11.6616C347.076 11.7358 346.785 11.8719 346.532 12.0698C346.278 12.2616 346.074 12.5275 345.919 12.8677C345.771 13.2078 345.697 13.6439 345.697 14.1758V19H343.136V9.06396H345.697V10.1865C345.802 10.0195 345.938 9.85872 346.105 9.7041C346.272 9.54948 346.467 9.41341 346.689 9.2959C346.912 9.1722 347.163 9.07324 347.441 8.99902C347.719 8.9248 348.019 8.8877 348.341 8.8877H348.721V11.5503ZM352.46 14.918C352.503 15.2148 352.596 15.487 352.738 15.7344C352.887 15.9818 353.072 16.1951 353.295 16.3745C353.518 16.5477 353.774 16.6838 354.065 16.7827C354.356 16.8817 354.665 16.9312 354.993 16.9312C355.37 16.9312 355.778 16.86 356.217 16.7178C356.656 16.5693 357.058 16.356 357.423 16.0776L358.657 17.8774C358.193 18.2671 357.624 18.5825 356.95 18.8237C356.276 19.0649 355.559 19.1855 354.798 19.1855C354.111 19.1855 353.465 19.068 352.859 18.833C352.253 18.598 351.721 18.2578 351.263 17.8125C350.812 17.3672 350.453 16.826 350.187 16.189C349.927 15.5519 349.797 14.8345 349.797 14.0366C349.797 13.3068 349.912 12.6265 350.141 11.9956C350.376 11.3647 350.7 10.8174 351.115 10.3535C351.535 9.88965 352.036 9.52783 352.618 9.26807C353.199 9.00212 353.842 8.86914 354.547 8.86914C355.203 8.86914 355.812 8.98975 356.375 9.23096C356.938 9.46598 357.426 9.79997 357.841 10.2329C358.255 10.6597 358.58 11.173 358.815 11.7729C359.05 12.3729 359.167 13.0347 359.167 13.7583V14.918H352.46ZM354.538 11.0957C353.988 11.0957 353.521 11.2812 353.137 11.6523C352.76 12.0173 352.54 12.4595 352.479 12.979H356.486C356.474 12.4533 356.282 12.008 355.911 11.6431C355.54 11.2782 355.082 11.0957 354.538 11.0957ZM363.361 22.1357H360.8V9.06396H363.361V9.91748C363.639 9.62679 363.982 9.37939 364.391 9.17529C364.799 8.97119 365.294 8.86914 365.875 8.86914C366.531 8.86914 367.124 9.00212 367.656 9.26807C368.194 9.52783 368.655 9.88965 369.039 10.3535C369.422 10.8112 369.719 11.3555 369.929 11.9863C370.139 12.6172 370.245 13.3006 370.245 14.0366C370.245 14.7726 370.136 15.4561 369.92 16.0869C369.703 16.7178 369.4 17.262 369.011 17.7197C368.621 18.1774 368.154 18.5361 367.61 18.7959C367.066 19.0557 366.466 19.1855 365.81 19.1855C365.519 19.1855 365.253 19.1577 365.012 19.1021C364.777 19.0526 364.561 18.9814 364.363 18.8887C364.165 18.7959 363.982 18.6877 363.815 18.564C363.648 18.4341 363.497 18.2949 363.361 18.1465V22.1357ZM363.287 14.9551C363.287 15.221 363.333 15.4684 363.426 15.6973C363.525 15.9199 363.664 16.1147 363.843 16.2817C364.023 16.4487 364.236 16.5786 364.483 16.6714C364.737 16.7642 365.021 16.8105 365.337 16.8105C365.702 16.8105 366.023 16.7456 366.302 16.6157C366.586 16.4797 366.824 16.291 367.016 16.0498C367.208 15.8086 367.353 15.5241 367.452 15.1963C367.551 14.8623 367.601 14.4974 367.601 14.1016V13.981C367.601 13.5851 367.551 13.2202 367.452 12.8862C367.353 12.5522 367.208 12.2646 367.016 12.0234C366.824 11.776 366.586 11.5843 366.302 11.4482C366.023 11.3122 365.702 11.2441 365.337 11.2441C365.021 11.2441 364.737 11.2905 364.483 11.3833C364.236 11.4761 364.023 11.606 363.843 11.7729C363.664 11.9399 363.525 12.1379 363.426 12.3667C363.333 12.5955 363.287 12.8429 363.287 13.1089V14.9551ZM377.537 11.5503H377.268C376.903 11.5503 376.553 11.5874 376.219 11.6616C375.891 11.7358 375.601 11.8719 375.347 12.0698C375.094 12.2616 374.889 12.5275 374.735 12.8677C374.586 13.2078 374.512 13.6439 374.512 14.1758V19H371.952V9.06396H374.512V10.1865C374.617 10.0195 374.753 9.85872 374.92 9.7041C375.087 9.54948 375.282 9.41341 375.505 9.2959C375.728 9.1722 375.978 9.07324 376.256 8.99902C376.535 8.9248 376.835 8.8877 377.156 8.8877H377.537V11.5503ZM381.275 14.918C381.319 15.2148 381.411 15.487 381.554 15.7344C381.702 15.9818 381.888 16.1951 382.11 16.3745C382.333 16.5477 382.59 16.6838 382.88 16.7827C383.171 16.8817 383.48 16.9312 383.808 16.9312C384.185 16.9312 384.594 16.86 385.033 16.7178C385.472 16.5693 385.874 16.356 386.239 16.0776L387.473 17.8774C387.009 18.2671 386.44 18.5825 385.766 18.8237C385.091 19.0649 384.374 19.1855 383.613 19.1855C382.927 19.1855 382.28 19.068 381.674 18.833C381.068 18.598 380.536 18.2578 380.079 17.8125C379.627 17.3672 379.268 16.826 379.002 16.189C378.743 15.5519 378.613 14.8345 378.613 14.0366C378.613 13.3068 378.727 12.6265 378.956 11.9956C379.191 11.3647 379.516 10.8174 379.93 10.3535C380.351 9.88965 380.852 9.52783 381.433 9.26807C382.014 9.00212 382.658 8.86914 383.363 8.86914C384.018 8.86914 384.628 8.98975 385.19 9.23096C385.753 9.46598 386.242 9.79997 386.656 10.2329C387.071 10.6597 387.395 11.173 387.63 11.7729C387.865 12.3729 387.983 13.0347 387.983 13.7583V14.918H381.275ZM383.354 11.0957C382.803 11.0957 382.336 11.2812 381.953 11.6523C381.575 12.0173 381.356 12.4595 381.294 12.979H385.302C385.289 12.4533 385.098 12.008 384.727 11.6431C384.355 11.2782 383.898 11.0957 383.354 11.0957ZM390.321 15.8271C390.686 16.1549 391.122 16.4364 391.629 16.6714C392.136 16.9064 392.649 17.0239 393.169 17.0239C393.546 17.0239 393.843 16.9528 394.06 16.8105C394.276 16.6621 394.384 16.4735 394.384 16.2446C394.384 15.855 393.967 15.5519 393.132 15.3354L392.408 15.1406C392.049 15.054 391.688 14.9365 391.323 14.7881C390.958 14.6335 390.621 14.4325 390.312 14.1851C390.008 13.9377 389.761 13.6377 389.569 13.2852C389.384 12.9264 389.291 12.4873 389.291 11.9678C389.291 11.5534 389.381 11.1606 389.56 10.7896C389.746 10.4123 390.005 10.0814 390.339 9.79688C390.68 9.51237 391.091 9.28662 391.573 9.11963C392.056 8.95264 392.594 8.86914 393.188 8.86914C394.035 8.86914 394.789 9.00212 395.451 9.26807C396.119 9.53402 396.645 9.83398 397.028 10.168L395.692 11.875C395.377 11.6462 395.003 11.4513 394.57 11.2905C394.143 11.1235 393.713 11.04 393.28 11.04C392.878 11.04 392.566 11.1143 392.343 11.2627C392.121 11.4049 392.009 11.5781 392.009 11.7822C392.009 11.9987 392.105 12.175 392.297 12.311C392.495 12.4409 392.779 12.5553 393.15 12.6543L394.227 12.9604C395.253 13.2511 395.989 13.6439 396.435 14.1387C396.88 14.6335 397.103 15.2581 397.103 16.0127C397.103 16.4333 397.016 16.8353 396.843 17.2188C396.67 17.596 396.416 17.9331 396.082 18.23C395.748 18.5269 395.334 18.7619 394.839 18.9351C394.344 19.1021 393.781 19.1855 393.15 19.1855C392.668 19.1855 392.213 19.1423 391.787 19.0557C391.366 18.9691 390.973 18.8516 390.608 18.7031C390.25 18.5485 389.925 18.3753 389.634 18.1836C389.344 17.9919 389.096 17.8001 388.892 17.6084L390.321 15.8271ZM400.906 14.918C400.95 15.2148 401.042 15.487 401.185 15.7344C401.333 15.9818 401.519 16.1951 401.741 16.3745C401.964 16.5477 402.221 16.6838 402.511 16.7827C402.802 16.8817 403.111 16.9312 403.439 16.9312C403.816 16.9312 404.224 16.86 404.664 16.7178C405.103 16.5693 405.505 16.356 405.87 16.0776L407.104 17.8774C406.64 18.2671 406.071 18.5825 405.396 18.8237C404.722 19.0649 404.005 19.1855 403.244 19.1855C402.558 19.1855 401.911 19.068 401.305 18.833C400.699 18.598 400.167 18.2578 399.709 17.8125C399.258 17.3672 398.899 16.826 398.633 16.189C398.374 15.5519 398.244 14.8345 398.244 14.0366C398.244 13.3068 398.358 12.6265 398.587 11.9956C398.822 11.3647 399.147 10.8174 399.561 10.3535C399.982 9.88965 400.483 9.52783 401.064 9.26807C401.645 9.00212 402.289 8.86914 402.994 8.86914C403.649 8.86914 404.258 8.98975 404.821 9.23096C405.384 9.46598 405.873 9.79997 406.287 10.2329C406.701 10.6597 407.026 11.173 407.261 11.7729C407.496 12.3729 407.614 13.0347 407.614 13.7583V14.918H400.906ZM402.984 11.0957C402.434 11.0957 401.967 11.2812 401.583 11.6523C401.206 12.0173 400.987 12.4595 400.925 12.979H404.933C404.92 12.4533 404.729 12.008 404.357 11.6431C403.986 11.2782 403.529 11.0957 402.984 11.0957ZM409.247 9.06396H411.807V9.91748C411.943 9.78141 412.095 9.65153 412.262 9.52783C412.435 9.39795 412.624 9.28662 412.828 9.19385C413.032 9.09489 413.257 9.01758 413.505 8.96191C413.758 8.90007 414.037 8.86914 414.34 8.86914C414.878 8.86914 415.36 8.95882 415.787 9.13818C416.214 9.31136 416.573 9.55257 416.863 9.86182C417.16 10.1711 417.386 10.5329 417.541 10.9473C417.695 11.3617 417.772 11.8101 417.772 12.2925V19H415.212V13.2202C415.212 12.8677 415.172 12.5708 415.091 12.3296C415.011 12.0822 414.9 11.8843 414.757 11.7358C414.621 11.5812 414.457 11.4699 414.266 11.4019C414.08 11.3276 413.876 11.2905 413.653 11.2905C413.394 11.2905 413.149 11.3369 412.92 11.4297C412.698 11.5225 412.503 11.6647 412.336 11.8564C412.169 12.042 412.039 12.277 411.946 12.5615C411.854 12.846 411.807 13.18 411.807 13.5635V19H409.247V9.06396ZM423.58 16.0405C423.58 16.158 423.596 16.2694 423.626 16.3745C423.657 16.4797 423.71 16.5724 423.784 16.6528C423.865 16.7271 423.976 16.7858 424.118 16.8291C424.26 16.8724 424.443 16.894 424.666 16.894C424.758 16.894 424.863 16.891 424.981 16.8848C425.098 16.8724 425.216 16.86 425.333 16.8477C425.451 16.8353 425.559 16.8198 425.658 16.8013C425.763 16.7827 425.85 16.7673 425.918 16.7549L426.15 19.0186C425.909 19.0495 425.658 19.0773 425.398 19.1021C425.176 19.1268 424.928 19.1453 424.656 19.1577C424.384 19.1763 424.109 19.1855 423.831 19.1855C422.946 19.1855 422.257 18.9845 421.762 18.5825C421.267 18.1805 421.02 17.5404 421.02 16.6621V11.2905H419.229V9.06396H421.02V6.25293L423.58 5.56641V9.06396H426.187V11.2905H423.58V16.0405ZM429.944 14.918C429.988 15.2148 430.08 15.487 430.223 15.7344C430.371 15.9818 430.557 16.1951 430.779 16.3745C431.002 16.5477 431.259 16.6838 431.549 16.7827C431.84 16.8817 432.149 16.9312 432.477 16.9312C432.854 16.9312 433.263 16.86 433.702 16.7178C434.141 16.5693 434.543 16.356 434.908 16.0776L436.142 17.8774C435.678 18.2671 435.109 18.5825 434.435 18.8237C433.76 19.0649 433.043 19.1855 432.282 19.1855C431.596 19.1855 430.949 19.068 430.343 18.833C429.737 18.598 429.205 18.2578 428.748 17.8125C428.296 17.3672 427.937 16.826 427.671 16.189C427.412 15.5519 427.282 14.8345 427.282 14.0366C427.282 13.3068 427.396 12.6265 427.625 11.9956C427.86 11.3647 428.185 10.8174 428.599 10.3535C429.02 9.88965 429.521 9.52783 430.102 9.26807C430.683 9.00212 431.327 8.86914 432.032 8.86914C432.687 8.86914 433.297 8.98975 433.859 9.23096C434.422 9.46598 434.911 9.79997 435.325 10.2329C435.74 10.6597 436.064 11.173 436.299 11.7729C436.534 12.3729 436.652 13.0347 436.652 13.7583V14.918H429.944ZM432.022 11.0957C431.472 11.0957 431.005 11.2812 430.622 11.6523C430.244 12.0173 430.025 12.4595 429.963 12.979H433.971C433.958 12.4533 433.767 12.008 433.396 11.6431C433.024 11.2782 432.567 11.0957 432.022 11.0957ZM444.667 19V18.1465C444.531 18.2949 444.38 18.4341 444.213 18.564C444.052 18.6877 443.87 18.7959 443.666 18.8887C443.468 18.9814 443.248 19.0526 443.007 19.1021C442.772 19.1577 442.509 19.1855 442.218 19.1855C441.563 19.1855 440.963 19.0557 440.418 18.7959C439.874 18.5361 439.407 18.1774 439.018 17.7197C438.628 17.262 438.325 16.7178 438.108 16.0869C437.898 15.4561 437.793 14.7726 437.793 14.0366C437.793 13.3006 437.898 12.6172 438.108 11.9863C438.319 11.3555 438.612 10.8112 438.99 10.3535C439.373 9.88965 439.834 9.52783 440.372 9.26807C440.91 9.00212 441.507 8.86914 442.163 8.86914C442.744 8.86914 443.236 8.97119 443.638 9.17529C444.046 9.37321 444.389 9.62061 444.667 9.91748V5.69629H447.228V19H444.667ZM444.742 13.1089C444.742 12.8429 444.692 12.5955 444.593 12.3667C444.5 12.1379 444.364 11.9399 444.185 11.7729C444.006 11.606 443.789 11.4761 443.536 11.3833C443.288 11.2905 443.007 11.2441 442.691 11.2441C442.326 11.2441 442.002 11.3122 441.717 11.4482C441.439 11.5843 441.204 11.776 441.012 12.0234C440.82 12.2646 440.675 12.5522 440.576 12.8862C440.477 13.2202 440.428 13.5851 440.428 13.981V14.1016C440.428 14.4974 440.477 14.8623 440.576 15.1963C440.675 15.5241 440.82 15.8086 441.012 16.0498C441.204 16.291 441.439 16.4797 441.717 16.6157C442.002 16.7456 442.326 16.8105 442.691 16.8105C443.007 16.8105 443.288 16.7642 443.536 16.6714C443.789 16.5786 444.006 16.4487 444.185 16.2817C444.364 16.1147 444.5 15.9199 444.593 15.6973C444.692 15.4684 444.742 15.221 444.742 14.9551V13.1089ZM452.145 11.9121H456.134V14.2129H452.145V11.9121ZM469.429 19H466.859V13.2202C466.859 12.8677 466.819 12.5708 466.738 12.3296C466.664 12.0822 466.559 11.8843 466.423 11.7358C466.287 11.5812 466.129 11.473 465.95 11.4111C465.77 11.3431 465.576 11.3091 465.365 11.3091C465.118 11.3091 464.886 11.3524 464.669 11.439C464.459 11.5256 464.274 11.6616 464.113 11.8472C463.958 12.0327 463.834 12.2708 463.742 12.5615C463.655 12.846 463.612 13.1862 463.612 13.582V19H461.051V9.06396H463.612V9.93604C463.94 9.57113 464.32 9.30208 464.753 9.12891C465.192 8.95573 465.662 8.86914 466.163 8.86914C466.676 8.86914 467.156 8.97428 467.601 9.18457C468.053 9.39486 468.427 9.74121 468.724 10.2236C468.897 9.97624 469.095 9.76595 469.317 9.59277C469.546 9.4196 469.791 9.28044 470.05 9.17529C470.31 9.07015 470.579 8.99284 470.857 8.94336C471.142 8.89388 471.433 8.86914 471.729 8.86914C472.286 8.86914 472.781 8.96191 473.214 9.14746C473.653 9.32682 474.024 9.57113 474.327 9.88037C474.63 10.1896 474.862 10.5452 475.023 10.9473C475.184 11.3493 475.264 11.7729 475.264 12.2183V19H472.676V13.2202C472.676 12.8677 472.636 12.5708 472.555 12.3296C472.481 12.0822 472.376 11.8843 472.24 11.7358C472.104 11.5812 471.943 11.473 471.757 11.4111C471.578 11.3431 471.383 11.3091 471.173 11.3091C470.925 11.3091 470.697 11.3524 470.486 11.439C470.276 11.5256 470.09 11.6616 469.93 11.8472C469.775 12.0327 469.651 12.2708 469.559 12.5615C469.472 12.846 469.429 13.1862 469.429 13.582V19ZM480.608 14.9644C480.292 15.0138 480.039 15.1252 479.847 15.2983C479.655 15.4653 479.56 15.6942 479.56 15.9849C479.56 16.3065 479.677 16.5848 479.912 16.8198C480.147 17.0487 480.493 17.1631 480.951 17.1631C481.434 17.1631 481.814 17.0239 482.092 16.7456C482.371 16.4673 482.51 16.0993 482.51 15.6416V14.6396L480.608 14.9644ZM482.927 18.063C482.822 18.1805 482.692 18.3073 482.538 18.4434C482.389 18.5732 482.21 18.6938 482 18.8052C481.795 18.9103 481.554 19 481.276 19.0742C480.998 19.1484 480.685 19.1855 480.339 19.1855C479.844 19.1855 479.386 19.1082 478.966 18.9536C478.551 18.7928 478.187 18.5701 477.871 18.2856C477.556 18.0011 477.308 17.6733 477.129 17.3022C476.95 16.925 476.86 16.5168 476.86 16.0776C476.86 15.2798 477.107 14.6273 477.602 14.1201C478.097 13.613 478.78 13.2944 479.652 13.1646L482.51 12.7471V12.5615C482.51 12.1162 482.374 11.7637 482.102 11.5039C481.829 11.2441 481.387 11.1143 480.775 11.1143C480.521 11.1143 480.265 11.1452 480.005 11.207C479.745 11.2627 479.495 11.3276 479.253 11.4019C479.018 11.4761 478.799 11.5627 478.595 11.6616C478.391 11.7544 478.211 11.8379 478.057 11.9121L477.055 9.95459C477.624 9.63916 478.255 9.37939 478.947 9.17529C479.646 8.97119 480.37 8.86914 481.118 8.86914C481.576 8.86914 482.037 8.91862 482.5 9.01758C482.971 9.11035 483.394 9.28353 483.771 9.53711C484.155 9.79069 484.467 10.137 484.708 10.5762C484.95 11.0091 485.07 11.5627 485.07 12.2368V16.3188C485.07 16.6095 485.145 16.826 485.293 16.9683C485.448 17.1043 485.658 17.2311 485.924 17.3486L484.764 19.1855C484.294 19.1361 483.917 19.0155 483.632 18.8237C483.348 18.6258 483.113 18.3722 482.927 18.063ZM487.213 9.06396H489.774V9.91748C489.91 9.78141 490.062 9.65153 490.229 9.52783C490.402 9.39795 490.59 9.28662 490.794 9.19385C490.999 9.09489 491.224 9.01758 491.472 8.96191C491.725 8.90007 492.004 8.86914 492.307 8.86914C492.845 8.86914 493.327 8.95882 493.754 9.13818C494.181 9.31136 494.539 9.55257 494.83 9.86182C495.127 10.1711 495.353 10.5329 495.507 10.9473C495.662 11.3617 495.739 11.8101 495.739 12.2925V19H493.179V13.2202C493.179 12.8677 493.139 12.5708 493.058 12.3296C492.978 12.0822 492.866 11.8843 492.724 11.7358C492.588 11.5812 492.424 11.4699 492.232 11.4019C492.047 11.3276 491.843 11.2905 491.62 11.2905C491.36 11.2905 491.116 11.3369 490.887 11.4297C490.665 11.5225 490.47 11.6647 490.303 11.8564C490.136 12.042 490.006 12.277 489.913 12.5615C489.82 12.846 489.774 13.18 489.774 13.5635V19H487.213V9.06396ZM506.334 19H503.773V18.1465C503.631 18.2826 503.477 18.4155 503.31 18.5454C503.143 18.6691 502.957 18.7804 502.753 18.8794C502.549 18.9722 502.32 19.0464 502.066 19.1021C501.819 19.1577 501.544 19.1855 501.241 19.1855C500.703 19.1855 500.22 19.099 499.793 18.9258C499.367 18.7464 499.005 18.5052 498.708 18.2021C498.417 17.8929 498.195 17.5311 498.04 17.1167C497.885 16.7023 497.808 16.2539 497.808 15.7715V9.06396H500.369V14.8345C500.369 15.187 500.406 15.487 500.48 15.7344C500.56 15.9818 500.669 16.1828 500.805 16.3374C500.947 16.4858 501.114 16.5972 501.306 16.6714C501.497 16.7394 501.705 16.7734 501.927 16.7734C502.187 16.7734 502.428 16.7271 502.651 16.6343C502.88 16.5415 503.078 16.4023 503.245 16.2168C503.412 16.0251 503.542 15.7869 503.634 15.5024C503.727 15.2179 503.773 14.884 503.773 14.5005V9.06396H506.334V19ZM511.761 14.9644C511.446 15.0138 511.192 15.1252 511 15.2983C510.809 15.4653 510.713 15.6942 510.713 15.9849C510.713 16.3065 510.83 16.5848 511.065 16.8198C511.3 17.0487 511.647 17.1631 512.104 17.1631C512.587 17.1631 512.967 17.0239 513.246 16.7456C513.524 16.4673 513.663 16.0993 513.663 15.6416V14.6396L511.761 14.9644ZM514.081 18.063C513.975 18.1805 513.846 18.3073 513.691 18.4434C513.542 18.5732 513.363 18.6938 513.153 18.8052C512.949 18.9103 512.708 19 512.429 19.0742C512.151 19.1484 511.839 19.1855 511.492 19.1855C510.997 19.1855 510.54 19.1082 510.119 18.9536C509.705 18.7928 509.34 18.5701 509.024 18.2856C508.709 18.0011 508.462 17.6733 508.282 17.3022C508.103 16.925 508.013 16.5168 508.013 16.0776C508.013 15.2798 508.261 14.6273 508.755 14.1201C509.25 13.613 509.934 13.2944 510.806 13.1646L513.663 12.7471V12.5615C513.663 12.1162 513.527 11.7637 513.255 11.5039C512.983 11.2441 512.541 11.1143 511.928 11.1143C511.675 11.1143 511.418 11.1452 511.158 11.207C510.898 11.2627 510.648 11.3276 510.407 11.4019C510.172 11.4761 509.952 11.5627 509.748 11.6616C509.544 11.7544 509.365 11.8379 509.21 11.9121L508.208 9.95459C508.777 9.63916 509.408 9.37939 510.101 9.17529C510.799 8.97119 511.523 8.86914 512.271 8.86914C512.729 8.86914 513.19 8.91862 513.654 9.01758C514.124 9.11035 514.548 9.28353 514.925 9.53711C515.308 9.79069 515.621 10.137 515.862 10.5762C516.103 11.0091 516.224 11.5627 516.224 12.2368V16.3188C516.224 16.6095 516.298 16.826 516.446 16.9683C516.601 17.1043 516.811 17.2311 517.077 17.3486L515.917 19.1855C515.447 19.1361 515.07 19.0155 514.786 18.8237C514.501 18.6258 514.266 18.3722 514.081 18.063ZM518.33 5.69629H520.89V16.3003C520.89 16.5106 520.949 16.6714 521.066 16.7827C521.19 16.894 521.385 16.9497 521.651 16.9497C521.775 16.9497 521.88 16.9435 521.966 16.9312C522.059 16.9126 522.177 16.8879 522.319 16.8569L522.523 19.0371C522.35 19.0618 522.164 19.0866 521.966 19.1113C521.799 19.1299 521.604 19.1453 521.382 19.1577C521.165 19.1763 520.94 19.1855 520.705 19.1855C520.34 19.1855 520.012 19.1392 519.721 19.0464C519.431 18.9536 519.18 18.8175 518.97 18.6382C518.766 18.4526 518.608 18.2238 518.497 17.9517C518.385 17.6795 518.33 17.3641 518.33 17.0054V5.69629Z" fill="white"/>
<rect width="125" height="27" transform="translate(540)" fill="#EB3223"/>
<path d="M549.282 15.2612C549.455 15.4591 549.666 15.654 549.913 15.8457C550.16 16.0374 550.433 16.2106 550.729 16.3652C551.033 16.5137 551.36 16.6343 551.713 16.7271C552.065 16.8136 552.446 16.8569 552.854 16.8569C553.615 16.8569 554.196 16.6992 554.598 16.3838C555.006 16.0622 555.21 15.6725 555.21 15.2148C555.21 14.7386 555.031 14.3768 554.672 14.1294C554.32 13.882 553.757 13.6872 552.984 13.5449L552.566 13.4707C552.01 13.3717 551.456 13.2419 550.906 13.0811C550.355 12.9202 549.857 12.6883 549.412 12.3853C548.967 12.0822 548.605 11.6956 548.327 11.2256C548.048 10.7493 547.909 10.1494 547.909 9.42578C547.909 9.00521 548.002 8.56608 548.188 8.1084C548.373 7.64453 548.667 7.22087 549.069 6.8374C549.477 6.44775 550 6.12923 550.637 5.88184C551.28 5.63444 552.056 5.51074 552.965 5.51074C554.042 5.51074 555 5.6901 555.841 6.04883C556.689 6.40137 557.372 6.86833 557.892 7.44971L556.101 9.11963C555.736 8.71761 555.266 8.40218 554.691 8.17334C554.122 7.9445 553.534 7.83008 552.928 7.83008C552.229 7.83008 551.682 7.96305 551.286 8.229C550.896 8.49495 550.702 8.84131 550.702 9.26807C550.702 9.54639 550.764 9.77832 550.887 9.96387C551.017 10.1494 551.196 10.304 551.425 10.4277C551.654 10.5452 551.929 10.6442 552.251 10.7246C552.573 10.805 552.931 10.8854 553.327 10.9658L553.541 11.0029C554.072 11.1019 554.601 11.2287 555.127 11.3833C555.653 11.5317 556.129 11.7544 556.556 12.0513C556.989 12.342 557.338 12.7254 557.604 13.2017C557.87 13.6717 558.003 14.2747 558.003 15.0107C558.003 15.6787 557.864 16.2694 557.585 16.7827C557.307 17.2961 556.939 17.7352 556.481 18.1001C556.024 18.4588 555.495 18.731 554.895 18.9165C554.295 19.0959 553.67 19.1855 553.021 19.1855C552.365 19.1855 551.756 19.1299 551.193 19.0186C550.637 18.9072 550.13 18.7495 549.672 18.5454C549.22 18.3413 548.815 18.1125 548.457 17.8589C548.104 17.6053 547.795 17.3332 547.529 17.0425L549.282 15.2612ZM570.063 12.2183C570.063 12.8182 570.017 13.4058 569.924 13.981C569.832 14.5562 569.686 15.1035 569.488 15.623C569.297 16.1364 569.049 16.6126 568.746 17.0518C568.443 17.4847 568.078 17.8589 567.651 18.1743C567.225 18.4897 566.733 18.7371 566.176 18.9165C565.626 19.0959 565.004 19.1855 564.312 19.1855C563.743 19.1855 563.217 19.1175 562.734 18.9814C562.252 18.8392 561.816 18.6475 561.426 18.4062C561.037 18.165 560.7 17.8805 560.415 17.5527C560.131 17.2188 559.908 16.86 559.747 16.4766L562.233 15.5024C562.456 15.923 562.753 16.2415 563.124 16.458C563.501 16.6683 563.928 16.7734 564.404 16.7734C564.868 16.7734 565.276 16.6838 565.629 16.5044C565.981 16.3188 566.272 16.0684 566.501 15.7529C566.736 15.4375 566.912 15.0726 567.03 14.6582C567.147 14.2376 567.203 13.7923 567.197 13.3223C567.042 13.4769 566.86 13.6253 566.649 13.7676C566.439 13.9098 566.204 14.0366 565.944 14.1479C565.691 14.2531 565.412 14.3397 565.109 14.4077C564.812 14.4696 564.5 14.5005 564.172 14.5005C563.523 14.5005 562.917 14.3953 562.354 14.1851C561.797 13.9686 561.312 13.6717 560.897 13.2944C560.489 12.911 560.168 12.4564 559.933 11.9307C559.698 11.4049 559.58 10.8298 559.58 10.2051C559.58 9.53711 559.698 8.91553 559.933 8.34033C560.174 7.76514 560.511 7.27035 560.944 6.85596C561.383 6.43538 561.909 6.10758 562.521 5.87256C563.133 5.63135 563.817 5.51074 564.571 5.51074C565.4 5.51074 566.152 5.65918 566.826 5.95605C567.5 6.24674 568.075 6.66732 568.551 7.21777C569.034 7.76823 569.405 8.43929 569.665 9.23096C569.931 10.0226 570.063 10.9163 570.063 11.9121V12.2183ZM567.067 10.0474C567.067 9.73193 567.011 9.43815 566.9 9.16602C566.789 8.89388 566.628 8.65885 566.417 8.46094C566.213 8.25684 565.966 8.09912 565.675 7.98779C565.385 7.87028 565.063 7.81152 564.71 7.81152C564.346 7.81152 564.018 7.87028 563.727 7.98779C563.436 8.09912 563.189 8.25684 562.985 8.46094C562.781 8.65885 562.623 8.89388 562.512 9.16602C562.407 9.43815 562.354 9.73193 562.354 10.0474C562.354 10.3566 562.407 10.6473 562.512 10.9194C562.623 11.1916 562.781 11.4297 562.985 11.6338C563.189 11.8317 563.436 11.9894 563.727 12.1069C564.018 12.2183 564.346 12.2739 564.71 12.2739C565.063 12.2739 565.385 12.2183 565.675 12.1069C565.966 11.9894 566.213 11.8317 566.417 11.6338C566.628 11.4297 566.789 11.1916 566.9 10.9194C567.011 10.6473 567.067 10.3566 567.067 10.0474ZM577.894 19V15.9941H571.26V13.1274L577.151 5.69629H580.593V13.5635H582.532V15.9941H580.593V19H577.894ZM577.894 13.5635V8.34033L573.756 13.5635H577.894ZM590.362 5.69629C590.919 5.69629 591.435 5.77979 591.912 5.94678C592.388 6.10758 592.802 6.33952 593.155 6.64258C593.507 6.94564 593.783 7.31364 593.98 7.74658C594.178 8.17334 594.277 8.64958 594.277 9.17529C594.277 9.44743 594.237 9.71647 594.157 9.98242C594.083 10.2484 593.971 10.4989 593.823 10.7339C593.674 10.9627 593.495 11.173 593.285 11.3647C593.074 11.5565 592.836 11.7142 592.57 11.8379C592.787 11.9121 593.037 12.0234 593.322 12.1719C593.612 12.3203 593.888 12.5244 594.147 12.7842C594.407 13.0439 594.627 13.3656 594.806 13.749C594.986 14.1263 595.075 14.584 595.075 15.1221C595.075 15.7962 594.945 16.3776 594.686 16.8662C594.432 17.3548 594.086 17.7568 593.646 18.0723C593.214 18.3877 592.703 18.6227 592.116 18.7773C591.534 18.9258 590.919 19 590.27 19H584.443V5.69629H590.362ZM592.32 15.0293C592.32 14.6706 592.255 14.3768 592.125 14.1479C591.995 13.9191 591.822 13.7367 591.605 13.6006C591.395 13.4645 591.154 13.3717 590.882 13.3223C590.61 13.2666 590.331 13.2388 590.047 13.2388H587.134V16.8755H590.047C590.331 16.8755 590.61 16.8477 590.882 16.792C591.154 16.7363 591.395 16.6374 591.605 16.4951C591.822 16.3529 591.995 16.1642 592.125 15.9292C592.255 15.6942 592.32 15.3942 592.32 15.0293ZM591.568 9.44434C591.568 8.93717 591.408 8.54134 591.086 8.25684C590.764 7.97233 590.245 7.83008 589.527 7.83008H587.134V10.9658H589.527C590.232 10.9658 590.749 10.8328 591.077 10.5669C591.404 10.2948 591.568 9.92057 591.568 9.44434ZM603.453 14.9644C603.137 15.0138 602.884 15.1252 602.692 15.2983C602.5 15.4653 602.404 15.6942 602.404 15.9849C602.404 16.3065 602.522 16.5848 602.757 16.8198C602.992 17.0487 603.338 17.1631 603.796 17.1631C604.278 17.1631 604.659 17.0239 604.937 16.7456C605.215 16.4673 605.354 16.0993 605.354 15.6416V14.6396L603.453 14.9644ZM605.772 18.063C605.667 18.1805 605.537 18.3073 605.382 18.4434C605.234 18.5732 605.055 18.6938 604.844 18.8052C604.64 18.9103 604.399 19 604.121 19.0742C603.842 19.1484 603.53 19.1855 603.184 19.1855C602.689 19.1855 602.231 19.1082 601.811 18.9536C601.396 18.7928 601.031 18.5701 600.716 18.2856C600.4 18.0011 600.153 17.6733 599.974 17.3022C599.794 16.925 599.705 16.5168 599.705 16.0776C599.705 15.2798 599.952 14.6273 600.447 14.1201C600.942 13.613 601.625 13.2944 602.497 13.1646L605.354 12.7471V12.5615C605.354 12.1162 605.218 11.7637 604.946 11.5039C604.674 11.2441 604.232 11.1143 603.62 11.1143C603.366 11.1143 603.109 11.1452 602.85 11.207C602.59 11.2627 602.339 11.3276 602.098 11.4019C601.863 11.4761 601.644 11.5627 601.439 11.6616C601.235 11.7544 601.056 11.8379 600.901 11.9121L599.899 9.95459C600.468 9.63916 601.099 9.37939 601.792 9.17529C602.491 8.97119 603.215 8.86914 603.963 8.86914C604.421 8.86914 604.881 8.91862 605.345 9.01758C605.815 9.11035 606.239 9.28353 606.616 9.53711C607 9.79069 607.312 10.137 607.553 10.5762C607.794 11.0091 607.915 11.5627 607.915 12.2368V16.3188C607.915 16.6095 607.989 16.826 608.138 16.9683C608.292 17.1043 608.503 17.2311 608.769 17.3486L607.609 19.1855C607.139 19.1361 606.762 19.0155 606.477 18.8237C606.193 18.6258 605.958 18.3722 605.772 18.063ZM612.619 22.1357H610.058V9.06396H612.619V9.91748C612.897 9.62679 613.24 9.37939 613.648 9.17529C614.057 8.97119 614.551 8.86914 615.133 8.86914C615.788 8.86914 616.382 9.00212 616.914 9.26807C617.452 9.52783 617.913 9.88965 618.296 10.3535C618.68 10.8112 618.977 11.3555 619.187 11.9863C619.397 12.6172 619.502 13.3006 619.502 14.0366C619.502 14.7726 619.394 15.4561 619.178 16.0869C618.961 16.7178 618.658 17.262 618.269 17.7197C617.879 18.1774 617.412 18.5361 616.868 18.7959C616.323 19.0557 615.723 19.1855 615.068 19.1855C614.777 19.1855 614.511 19.1577 614.27 19.1021C614.035 19.0526 613.819 18.9814 613.621 18.8887C613.423 18.7959 613.24 18.6877 613.073 18.564C612.906 18.4341 612.755 18.2949 612.619 18.1465V22.1357ZM612.544 14.9551C612.544 15.221 612.591 15.4684 612.684 15.6973C612.783 15.9199 612.922 16.1147 613.101 16.2817C613.28 16.4487 613.494 16.5786 613.741 16.6714C613.995 16.7642 614.279 16.8105 614.595 16.8105C614.96 16.8105 615.281 16.7456 615.56 16.6157C615.844 16.4797 616.082 16.291 616.274 16.0498C616.466 15.8086 616.611 15.5241 616.71 15.1963C616.809 14.8623 616.858 14.4974 616.858 14.1016V13.981C616.858 13.5851 616.809 13.2202 616.71 12.8862C616.611 12.5522 616.466 12.2646 616.274 12.0234C616.082 11.776 615.844 11.5843 615.56 11.4482C615.281 11.3122 614.96 11.2441 614.595 11.2441C614.279 11.2441 613.995 11.2905 613.741 11.3833C613.494 11.4761 613.28 11.606 613.101 11.7729C612.922 11.9399 612.783 12.1379 612.684 12.3667C612.591 12.5955 612.544 12.8429 612.544 13.1089V14.9551ZM623.77 22.1357H621.209V9.06396H623.77V9.91748C624.048 9.62679 624.392 9.37939 624.8 9.17529C625.208 8.97119 625.703 8.86914 626.284 8.86914C626.94 8.86914 627.534 9.00212 628.065 9.26807C628.604 9.52783 629.064 9.88965 629.448 10.3535C629.831 10.8112 630.128 11.3555 630.338 11.9863C630.549 12.6172 630.654 13.3006 630.654 14.0366C630.654 14.7726 630.546 15.4561 630.329 16.0869C630.113 16.7178 629.81 17.262 629.42 17.7197C629.03 18.1774 628.563 18.5361 628.019 18.7959C627.475 19.0557 626.875 19.1855 626.219 19.1855C625.929 19.1855 625.663 19.1577 625.421 19.1021C625.186 19.0526 624.97 18.9814 624.772 18.8887C624.574 18.7959 624.392 18.6877 624.225 18.564C624.058 18.4341 623.906 18.2949 623.77 18.1465V22.1357ZM623.696 14.9551C623.696 15.221 623.742 15.4684 623.835 15.6973C623.934 15.9199 624.073 16.1147 624.252 16.2817C624.432 16.4487 624.645 16.5786 624.893 16.6714C625.146 16.7642 625.431 16.8105 625.746 16.8105C626.111 16.8105 626.433 16.7456 626.711 16.6157C626.995 16.4797 627.234 16.291 627.425 16.0498C627.617 15.8086 627.762 15.5241 627.861 15.1963C627.96 14.8623 628.01 14.4974 628.01 14.1016V13.981C628.01 13.5851 627.96 13.2202 627.861 12.8862C627.762 12.5522 627.617 12.2646 627.425 12.0234C627.234 11.776 626.995 11.5843 626.711 11.4482C626.433 11.3122 626.111 11.2441 625.746 11.2441C625.431 11.2441 625.146 11.2905 624.893 11.3833C624.645 11.4761 624.432 11.606 624.252 11.7729C624.073 11.9399 623.934 12.1379 623.835 12.3667C623.742 12.5955 623.696 12.8429 623.696 13.1089V14.9551ZM634.504 14.918C634.547 15.2148 634.64 15.487 634.782 15.7344C634.931 15.9818 635.116 16.1951 635.339 16.3745C635.562 16.5477 635.818 16.6838 636.109 16.7827C636.4 16.8817 636.709 16.9312 637.037 16.9312C637.414 16.9312 637.822 16.86 638.261 16.7178C638.7 16.5693 639.102 16.356 639.467 16.0776L640.701 17.8774C640.237 18.2671 639.668 18.5825 638.994 18.8237C638.32 19.0649 637.603 19.1855 636.842 19.1855C636.155 19.1855 635.509 19.068 634.903 18.833C634.297 18.598 633.765 18.2578 633.307 17.8125C632.856 17.3672 632.497 16.826 632.231 16.189C631.971 15.5519 631.841 14.8345 631.841 14.0366C631.841 13.3068 631.956 12.6265 632.185 11.9956C632.42 11.3647 632.744 10.8174 633.159 10.3535C633.579 9.88965 634.08 9.52783 634.662 9.26807C635.243 9.00212 635.886 8.86914 636.591 8.86914C637.247 8.86914 637.856 8.98975 638.419 9.23096C638.982 9.46598 639.47 9.79997 639.885 10.2329C640.299 10.6597 640.624 11.173 640.859 11.7729C641.094 12.3729 641.211 13.0347 641.211 13.7583V14.918H634.504ZM636.582 11.0957C636.032 11.0957 635.565 11.2812 635.181 11.6523C634.804 12.0173 634.584 12.4595 634.522 12.979H638.53C638.518 12.4533 638.326 12.008 637.955 11.6431C637.584 11.2782 637.126 11.0957 636.582 11.0957ZM646.054 14.9644C645.739 15.0138 645.485 15.1252 645.293 15.2983C645.102 15.4653 645.006 15.6942 645.006 15.9849C645.006 16.3065 645.123 16.5848 645.358 16.8198C645.593 17.0487 645.94 17.1631 646.397 17.1631C646.88 17.1631 647.26 17.0239 647.539 16.7456C647.817 16.4673 647.956 16.0993 647.956 15.6416V14.6396L646.054 14.9644ZM648.374 18.063C648.268 18.1805 648.139 18.3073 647.984 18.4434C647.835 18.5732 647.656 18.6938 647.446 18.8052C647.242 18.9103 647 19 646.722 19.0742C646.444 19.1484 646.132 19.1855 645.785 19.1855C645.29 19.1855 644.833 19.1082 644.412 18.9536C643.998 18.7928 643.633 18.5701 643.317 18.2856C643.002 18.0011 642.755 17.6733 642.575 17.3022C642.396 16.925 642.306 16.5168 642.306 16.0776C642.306 15.2798 642.554 14.6273 643.048 14.1201C643.543 13.613 644.227 13.2944 645.099 13.1646L647.956 12.7471V12.5615C647.956 12.1162 647.82 11.7637 647.548 11.5039C647.276 11.2441 646.833 11.1143 646.221 11.1143C645.968 11.1143 645.711 11.1452 645.451 11.207C645.191 11.2627 644.941 11.3276 644.7 11.4019C644.465 11.4761 644.245 11.5627 644.041 11.6616C643.837 11.7544 643.658 11.8379 643.503 11.9121L642.501 9.95459C643.07 9.63916 643.701 9.37939 644.394 9.17529C645.092 8.97119 645.816 8.86914 646.564 8.86914C647.022 8.86914 647.483 8.91862 647.947 9.01758C648.417 9.11035 648.84 9.28353 649.218 9.53711C649.601 9.79069 649.914 10.137 650.155 10.5762C650.396 11.0091 650.517 11.5627 650.517 12.2368V16.3188C650.517 16.6095 650.591 16.826 650.739 16.9683C650.894 17.1043 651.104 17.2311 651.37 17.3486L650.21 19.1855C649.74 19.1361 649.363 19.0155 649.079 18.8237C648.794 18.6258 648.559 18.3722 648.374 18.063ZM652.623 5.69629H655.183V16.3003C655.183 16.5106 655.242 16.6714 655.359 16.7827C655.483 16.894 655.678 16.9497 655.944 16.9497C656.068 16.9497 656.173 16.9435 656.259 16.9312C656.352 16.9126 656.47 16.8879 656.612 16.8569L656.816 19.0371C656.643 19.0618 656.457 19.0866 656.259 19.1113C656.092 19.1299 655.897 19.1453 655.675 19.1577C655.458 19.1763 655.233 19.1855 654.998 19.1855C654.633 19.1855 654.305 19.1392 654.014 19.0464C653.723 18.9536 653.473 18.8175 653.263 18.6382C653.059 18.4526 652.901 18.2238 652.79 17.9517C652.678 17.6795 652.623 17.3641 652.623 17.0054V5.69629Z" fill="white"/>
</svg>
