<svg width="410" height="27" viewBox="0 0 410 27" fill="none" xmlns="http://www.w3.org/2000/svg">
<rect width="264" height="27" transform="translate(146)" fill="#0B0C0C"/>
<path d="M154.392 5.69629H157.082V16.5137H162.352V19H154.392V5.69629ZM165.877 14.918C165.92 15.2148 166.013 15.487 166.155 15.7344C166.304 15.9818 166.489 16.1951 166.712 16.3745C166.935 16.5477 167.191 16.6838 167.482 16.7827C167.773 16.8817 168.082 16.9312 168.41 16.9312C168.787 16.9312 169.195 16.86 169.634 16.7178C170.073 16.5693 170.475 16.356 170.84 16.0776L172.074 17.8774C171.61 18.2671 171.041 18.5825 170.367 18.8237C169.693 19.0649 168.976 19.1855 168.215 19.1855C167.528 19.1855 166.882 19.068 166.276 18.833C165.67 18.598 165.138 18.2578 164.68 17.8125C164.229 17.3672 163.87 16.826 163.604 16.189C163.344 15.5519 163.214 14.8345 163.214 14.0366C163.214 13.3068 163.329 12.6265 163.558 11.9956C163.793 11.3647 164.117 10.8174 164.532 10.3535C164.952 9.88965 165.453 9.52783 166.035 9.26807C166.616 9.00212 167.259 8.86914 167.964 8.86914C168.62 8.86914 169.229 8.98975 169.792 9.23096C170.355 9.46598 170.843 9.79997 171.258 10.2329C171.672 10.6597 171.997 11.173 172.232 11.7729C172.467 12.3729 172.584 13.0347 172.584 13.7583V14.918H165.877ZM167.955 11.0957C167.405 11.0957 166.938 11.2812 166.554 11.6523C166.177 12.0173 165.957 12.4595 165.896 12.979H169.903C169.891 12.4533 169.699 12.008 169.328 11.6431C168.957 11.2782 168.499 11.0957 167.955 11.0957ZM180.257 17.2373C180.028 17.5156 179.706 17.7383 179.292 17.9053C178.884 18.0661 178.438 18.1465 177.956 18.1465C177.288 18.1465 176.694 18.029 176.175 17.7939C175.655 17.5589 175.216 17.2373 174.857 16.8291C174.505 16.4147 174.233 15.9261 174.041 15.3633C173.855 14.8005 173.763 14.182 173.763 13.5078C173.763 12.8522 173.855 12.2399 174.041 11.6709C174.233 11.0957 174.505 10.604 174.857 10.1958C175.216 9.78141 175.655 9.45671 176.175 9.22168C176.694 8.98665 177.288 8.86914 177.956 8.86914C178.438 8.86914 178.884 8.95264 179.292 9.11963C179.706 9.28662 180.028 9.50928 180.257 9.7876V9.06396H182.827V18.9072C182.827 19.5133 182.712 20.0329 182.483 20.4658C182.255 20.9049 181.939 21.2637 181.537 21.542C181.141 21.8203 180.681 22.0213 180.155 22.145C179.629 22.2749 179.069 22.3398 178.476 22.3398C177.752 22.3398 176.997 22.2533 176.212 22.0801C175.426 21.9131 174.749 21.7028 174.18 21.4492L174.904 19.3804C175.077 19.4546 175.29 19.535 175.544 19.6216C175.798 19.7144 176.07 19.7948 176.36 19.8628C176.651 19.9308 176.954 19.9865 177.27 20.0298C177.591 20.0793 177.903 20.104 178.207 20.104C178.472 20.104 178.729 20.0762 178.977 20.0205C179.224 19.971 179.44 19.8844 179.626 19.7607C179.818 19.6432 179.969 19.4855 180.081 19.2876C180.198 19.0959 180.257 18.8485 180.257 18.5454V17.2373ZM176.397 13.5449C176.397 13.8727 176.431 14.182 176.5 14.4727C176.574 14.7572 176.688 15.0015 176.843 15.2056C177.004 15.4035 177.208 15.5612 177.455 15.6787C177.702 15.79 178.002 15.8457 178.355 15.8457C179.054 15.8457 179.552 15.6261 179.849 15.187C180.146 14.7417 180.294 14.1943 180.294 13.5449V13.4707C180.294 13.1429 180.26 12.8368 180.192 12.5522C180.124 12.2677 180.013 12.0234 179.858 11.8193C179.703 11.6152 179.502 11.4575 179.255 11.3462C179.014 11.2287 178.714 11.1699 178.355 11.1699C177.662 11.1699 177.161 11.3895 176.852 11.8286C176.549 12.2677 176.397 12.8151 176.397 13.4707V13.5449ZM188.245 14.9644C187.929 15.0138 187.676 15.1252 187.484 15.2983C187.292 15.4653 187.196 15.6942 187.196 15.9849C187.196 16.3065 187.314 16.5848 187.549 16.8198C187.784 17.0487 188.13 17.1631 188.588 17.1631C189.07 17.1631 189.451 17.0239 189.729 16.7456C190.007 16.4673 190.146 16.0993 190.146 15.6416V14.6396L188.245 14.9644ZM190.564 18.063C190.459 18.1805 190.329 18.3073 190.174 18.4434C190.026 18.5732 189.847 18.6938 189.636 18.8052C189.432 18.9103 189.191 19 188.913 19.0742C188.634 19.1484 188.322 19.1855 187.976 19.1855C187.481 19.1855 187.023 19.1082 186.603 18.9536C186.188 18.7928 185.823 18.5701 185.508 18.2856C185.192 18.0011 184.945 17.6733 184.766 17.3022C184.586 16.925 184.497 16.5168 184.497 16.0776C184.497 15.2798 184.744 14.6273 185.239 14.1201C185.734 13.613 186.417 13.2944 187.289 13.1646L190.146 12.7471V12.5615C190.146 12.1162 190.01 11.7637 189.738 11.5039C189.466 11.2441 189.024 11.1143 188.412 11.1143C188.158 11.1143 187.901 11.1452 187.642 11.207C187.382 11.2627 187.131 11.3276 186.89 11.4019C186.655 11.4761 186.436 11.5627 186.231 11.6616C186.027 11.7544 185.848 11.8379 185.693 11.9121L184.691 9.95459C185.26 9.63916 185.891 9.37939 186.584 9.17529C187.283 8.97119 188.007 8.86914 188.755 8.86914C189.213 8.86914 189.673 8.91862 190.137 9.01758C190.607 9.11035 191.031 9.28353 191.408 9.53711C191.792 9.79069 192.104 10.137 192.345 10.5762C192.586 11.0091 192.707 11.5627 192.707 12.2368V16.3188C192.707 16.6095 192.781 16.826 192.93 16.9683C193.084 17.1043 193.295 17.2311 193.561 17.3486L192.401 19.1855C191.931 19.1361 191.554 19.0155 191.269 18.8237C190.985 18.6258 190.75 18.3722 190.564 18.063ZM194.813 5.69629H197.374V16.3003C197.374 16.5106 197.432 16.6714 197.55 16.7827C197.674 16.894 197.868 16.9497 198.134 16.9497C198.258 16.9497 198.363 16.9435 198.45 16.9312C198.542 16.9126 198.66 16.8879 198.802 16.8569L199.006 19.0371C198.833 19.0618 198.648 19.0866 198.45 19.1113C198.283 19.1299 198.088 19.1453 197.865 19.1577C197.649 19.1763 197.423 19.1855 197.188 19.1855C196.823 19.1855 196.495 19.1392 196.205 19.0464C195.914 18.9536 195.663 18.8175 195.453 18.6382C195.249 18.4526 195.091 18.2238 194.98 17.9517C194.869 17.6795 194.813 17.3641 194.813 17.0054V5.69629ZM200.379 5.69629H202.94V16.3003C202.94 16.5106 202.999 16.6714 203.116 16.7827C203.24 16.894 203.435 16.9497 203.701 16.9497C203.824 16.9497 203.93 16.9435 204.016 16.9312C204.109 16.9126 204.226 16.8879 204.369 16.8569L204.573 19.0371C204.4 19.0618 204.214 19.0866 204.016 19.1113C203.849 19.1299 203.654 19.1453 203.432 19.1577C203.215 19.1763 202.989 19.1855 202.754 19.1855C202.389 19.1855 202.062 19.1392 201.771 19.0464C201.48 18.9536 201.23 18.8175 201.02 18.6382C200.815 18.4526 200.658 18.2238 200.546 17.9517C200.435 17.6795 200.379 17.3641 200.379 17.0054V5.69629ZM207.013 20.1597C207.303 20.1597 207.517 20.1071 207.653 20.002C207.795 19.8968 207.906 19.7267 207.987 19.4917L208.08 19.1855L204.638 9.06396H207.486L209.462 15.9199L211.104 9.06396H213.915L210.566 20.2339C210.455 20.605 210.3 20.9235 210.102 21.1895C209.904 21.4554 209.669 21.6719 209.397 21.8389C209.125 22.012 208.822 22.1388 208.488 22.2192C208.16 22.2996 207.807 22.3398 207.43 22.3398C207.276 22.3398 207.096 22.3337 206.892 22.3213C206.694 22.3089 206.487 22.2904 206.271 22.2656C206.06 22.2471 205.85 22.2223 205.64 22.1914C205.436 22.1605 205.247 22.1234 205.074 22.0801L205.556 19.9834C205.705 20.0205 205.859 20.0514 206.02 20.0762C206.162 20.1009 206.317 20.1195 206.484 20.1318C206.657 20.1504 206.833 20.1597 207.013 20.1597ZM218.424 5.69629H223.573C224.364 5.69629 225.063 5.81071 225.669 6.03955C226.276 6.26839 226.783 6.57454 227.191 6.95801C227.599 7.34147 227.908 7.78369 228.119 8.28467C228.329 8.77946 228.434 9.29899 228.434 9.84326C228.434 10.2824 228.366 10.6999 228.23 11.0957C228.1 11.4854 227.918 11.841 227.683 12.1626C227.454 12.478 227.182 12.7533 226.866 12.9883C226.551 13.2171 226.211 13.3965 225.846 13.5264L228.759 19H225.66L223.248 14.2129H221.114V19H218.424V5.69629ZM225.623 9.93604C225.623 9.67008 225.574 9.42269 225.475 9.19385C225.382 8.96501 225.236 8.76709 225.039 8.6001C224.847 8.43311 224.606 8.30322 224.315 8.21045C224.024 8.11768 223.687 8.07129 223.304 8.07129H221.114V11.8193H223.304C223.687 11.8193 224.024 11.7729 224.315 11.6802C224.606 11.5812 224.847 11.4482 225.039 11.2812C225.236 11.1081 225.382 10.9071 225.475 10.6782C225.574 10.4494 225.623 10.202 225.623 9.93604ZM232.117 14.918C232.16 15.2148 232.253 15.487 232.396 15.7344C232.544 15.9818 232.729 16.1951 232.952 16.3745C233.175 16.5477 233.431 16.6838 233.722 16.7827C234.013 16.8817 234.322 16.9312 234.65 16.9312C235.027 16.9312 235.435 16.86 235.875 16.7178C236.314 16.5693 236.716 16.356 237.081 16.0776L238.314 17.8774C237.851 18.2671 237.282 18.5825 236.607 18.8237C235.933 19.0649 235.216 19.1855 234.455 19.1855C233.769 19.1855 233.122 19.068 232.516 18.833C231.91 18.598 231.378 18.2578 230.92 17.8125C230.469 17.3672 230.11 16.826 229.844 16.189C229.584 15.5519 229.455 14.8345 229.455 14.0366C229.455 13.3068 229.569 12.6265 229.798 11.9956C230.033 11.3647 230.358 10.8174 230.772 10.3535C231.193 9.88965 231.694 9.52783 232.275 9.26807C232.856 9.00212 233.5 8.86914 234.205 8.86914C234.86 8.86914 235.469 8.98975 236.032 9.23096C236.595 9.46598 237.084 9.79997 237.498 10.2329C237.912 10.6597 238.237 11.173 238.472 11.7729C238.707 12.3729 238.825 13.0347 238.825 13.7583V14.918H232.117ZM234.195 11.0957C233.645 11.0957 233.178 11.2812 232.794 11.6523C232.417 12.0173 232.198 12.4595 232.136 12.979H236.144C236.131 12.4533 235.939 12.008 235.568 11.6431C235.197 11.2782 234.74 11.0957 234.195 11.0957ZM243.018 22.1357H240.458V9.06396H243.018V9.91748C243.296 9.62679 243.64 9.37939 244.048 9.17529C244.456 8.97119 244.951 8.86914 245.532 8.86914C246.188 8.86914 246.782 9.00212 247.313 9.26807C247.852 9.52783 248.312 9.88965 248.696 10.3535C249.079 10.8112 249.376 11.3555 249.586 11.9863C249.797 12.6172 249.902 13.3006 249.902 14.0366C249.902 14.7726 249.794 15.4561 249.577 16.0869C249.361 16.7178 249.058 17.262 248.668 17.7197C248.278 18.1774 247.811 18.5361 247.267 18.7959C246.723 19.0557 246.123 19.1855 245.467 19.1855C245.177 19.1855 244.911 19.1577 244.669 19.1021C244.434 19.0526 244.218 18.9814 244.02 18.8887C243.822 18.7959 243.64 18.6877 243.473 18.564C243.306 18.4341 243.154 18.2949 243.018 18.1465V22.1357ZM242.944 14.9551C242.944 15.221 242.99 15.4684 243.083 15.6973C243.182 15.9199 243.321 16.1147 243.5 16.2817C243.68 16.4487 243.893 16.5786 244.141 16.6714C244.394 16.7642 244.679 16.8105 244.994 16.8105C245.359 16.8105 245.681 16.7456 245.959 16.6157C246.243 16.4797 246.482 16.291 246.673 16.0498C246.865 15.8086 247.01 15.5241 247.109 15.1963C247.208 14.8623 247.258 14.4974 247.258 14.1016V13.981C247.258 13.5851 247.208 13.2202 247.109 12.8862C247.01 12.5522 246.865 12.2646 246.673 12.0234C246.482 11.776 246.243 11.5843 245.959 11.4482C245.681 11.3122 245.359 11.2441 244.994 11.2441C244.679 11.2441 244.394 11.2905 244.141 11.3833C243.893 11.4761 243.68 11.606 243.5 11.7729C243.321 11.9399 243.182 12.1379 243.083 12.3667C242.99 12.5955 242.944 12.8429 242.944 13.1089V14.9551ZM257.194 11.5503H256.925C256.56 11.5503 256.21 11.5874 255.876 11.6616C255.549 11.7358 255.258 11.8719 255.004 12.0698C254.751 12.2616 254.547 12.5275 254.392 12.8677C254.244 13.2078 254.169 13.6439 254.169 14.1758V19H251.609V9.06396H254.169V10.1865C254.275 10.0195 254.411 9.85872 254.578 9.7041C254.745 9.54948 254.939 9.41341 255.162 9.2959C255.385 9.1722 255.635 9.07324 255.914 8.99902C256.192 8.9248 256.492 8.8877 256.813 8.8877H257.194V11.5503ZM260.933 14.918C260.976 15.2148 261.069 15.487 261.211 15.7344C261.359 15.9818 261.545 16.1951 261.768 16.3745C261.99 16.5477 262.247 16.6838 262.538 16.7827C262.828 16.8817 263.138 16.9312 263.465 16.9312C263.843 16.9312 264.251 16.86 264.69 16.7178C265.129 16.5693 265.531 16.356 265.896 16.0776L267.13 17.8774C266.666 18.2671 266.097 18.5825 265.423 18.8237C264.749 19.0649 264.031 19.1855 263.271 19.1855C262.584 19.1855 261.938 19.068 261.332 18.833C260.725 18.598 260.194 18.2578 259.736 17.8125C259.284 17.3672 258.926 16.826 258.66 16.189C258.4 15.5519 258.27 14.8345 258.27 14.0366C258.27 13.3068 258.384 12.6265 258.613 11.9956C258.848 11.3647 259.173 10.8174 259.587 10.3535C260.008 9.88965 260.509 9.52783 261.09 9.26807C261.672 9.00212 262.315 8.86914 263.02 8.86914C263.676 8.86914 264.285 8.98975 264.848 9.23096C265.41 9.46598 265.899 9.79997 266.313 10.2329C266.728 10.6597 267.053 11.173 267.288 11.7729C267.523 12.3729 267.64 13.0347 267.64 13.7583V14.918H260.933ZM263.011 11.0957C262.46 11.0957 261.993 11.2812 261.61 11.6523C261.233 12.0173 261.013 12.4595 260.951 12.979H264.959C264.947 12.4533 264.755 12.008 264.384 11.6431C264.013 11.2782 263.555 11.0957 263.011 11.0957ZM269.978 15.8271C270.343 16.1549 270.779 16.4364 271.286 16.6714C271.793 16.9064 272.307 17.0239 272.826 17.0239C273.203 17.0239 273.5 16.9528 273.717 16.8105C273.933 16.6621 274.042 16.4735 274.042 16.2446C274.042 15.855 273.624 15.5519 272.789 15.3354L272.065 15.1406C271.707 15.054 271.345 14.9365 270.98 14.7881C270.615 14.6335 270.278 14.4325 269.969 14.1851C269.666 13.9377 269.418 13.6377 269.227 13.2852C269.041 12.9264 268.948 12.4873 268.948 11.9678C268.948 11.5534 269.038 11.1606 269.217 10.7896C269.403 10.4123 269.663 10.0814 269.997 9.79688C270.337 9.51237 270.748 9.28662 271.23 9.11963C271.713 8.95264 272.251 8.86914 272.845 8.86914C273.692 8.86914 274.447 9.00212 275.108 9.26807C275.776 9.53402 276.302 9.83398 276.686 10.168L275.35 11.875C275.034 11.6462 274.66 11.4513 274.227 11.2905C273.8 11.1235 273.37 11.04 272.938 11.04C272.535 11.04 272.223 11.1143 272 11.2627C271.778 11.4049 271.667 11.5781 271.667 11.7822C271.667 11.9987 271.762 12.175 271.954 12.311C272.152 12.4409 272.437 12.5553 272.808 12.6543L273.884 12.9604C274.91 13.2511 275.646 13.6439 276.092 14.1387C276.537 14.6335 276.76 15.2581 276.76 16.0127C276.76 16.4333 276.673 16.8353 276.5 17.2188C276.327 17.596 276.073 17.9331 275.739 18.23C275.405 18.5269 274.991 18.7619 274.496 18.9351C274.001 19.1021 273.438 19.1855 272.808 19.1855C272.325 19.1855 271.871 19.1423 271.444 19.0557C271.023 18.9691 270.631 18.8516 270.266 18.7031C269.907 18.5485 269.582 18.3753 269.292 18.1836C269.001 17.9919 268.753 17.8001 268.549 17.6084L269.978 15.8271ZM280.563 14.918C280.607 15.2148 280.7 15.487 280.842 15.7344C280.99 15.9818 281.176 16.1951 281.398 16.3745C281.621 16.5477 281.878 16.6838 282.168 16.7827C282.459 16.8817 282.768 16.9312 283.096 16.9312C283.473 16.9312 283.882 16.86 284.321 16.7178C284.76 16.5693 285.162 16.356 285.527 16.0776L286.761 17.8774C286.297 18.2671 285.728 18.5825 285.054 18.8237C284.38 19.0649 283.662 19.1855 282.901 19.1855C282.215 19.1855 281.569 19.068 280.962 18.833C280.356 18.598 279.824 18.2578 279.367 17.8125C278.915 17.3672 278.556 16.826 278.291 16.189C278.031 15.5519 277.901 14.8345 277.901 14.0366C277.901 13.3068 278.015 12.6265 278.244 11.9956C278.479 11.3647 278.804 10.8174 279.218 10.3535C279.639 9.88965 280.14 9.52783 280.721 9.26807C281.303 9.00212 281.946 8.86914 282.651 8.86914C283.306 8.86914 283.916 8.98975 284.479 9.23096C285.041 9.46598 285.53 9.79997 285.944 10.2329C286.359 10.6597 286.683 11.173 286.918 11.7729C287.153 12.3729 287.271 13.0347 287.271 13.7583V14.918H280.563ZM282.642 11.0957C282.091 11.0957 281.624 11.2812 281.241 11.6523C280.863 12.0173 280.644 12.4595 280.582 12.979H284.59C284.577 12.4533 284.386 12.008 284.015 11.6431C283.644 11.2782 283.186 11.0957 282.642 11.0957ZM288.904 9.06396H291.464V9.91748C291.6 9.78141 291.752 9.65153 291.919 9.52783C292.092 9.39795 292.281 9.28662 292.485 9.19385C292.689 9.09489 292.915 9.01758 293.162 8.96191C293.416 8.90007 293.694 8.86914 293.997 8.86914C294.535 8.86914 295.018 8.95882 295.444 9.13818C295.871 9.31136 296.23 9.55257 296.521 9.86182C296.817 10.1711 297.043 10.5329 297.198 10.9473C297.352 11.3617 297.43 11.8101 297.43 12.2925V19H294.869V13.2202C294.869 12.8677 294.829 12.5708 294.749 12.3296C294.668 12.0822 294.557 11.8843 294.415 11.7358C294.278 11.5812 294.115 11.4699 293.923 11.4019C293.737 11.3276 293.533 11.2905 293.311 11.2905C293.051 11.2905 292.806 11.3369 292.578 11.4297C292.355 11.5225 292.16 11.6647 291.993 11.8564C291.826 12.042 291.696 12.277 291.604 12.5615C291.511 12.846 291.464 13.18 291.464 13.5635V19H288.904V9.06396ZM303.237 16.0405C303.237 16.158 303.253 16.2694 303.284 16.3745C303.315 16.4797 303.367 16.5724 303.441 16.6528C303.522 16.7271 303.633 16.7858 303.775 16.8291C303.918 16.8724 304.1 16.894 304.323 16.894C304.416 16.894 304.521 16.891 304.638 16.8848C304.756 16.8724 304.873 16.86 304.991 16.8477C305.108 16.8353 305.216 16.8198 305.315 16.8013C305.421 16.7827 305.507 16.7673 305.575 16.7549L305.807 19.0186C305.566 19.0495 305.315 19.0773 305.056 19.1021C304.833 19.1268 304.586 19.1453 304.313 19.1577C304.041 19.1763 303.766 19.1855 303.488 19.1855C302.603 19.1855 301.914 18.9845 301.419 18.5825C300.924 18.1805 300.677 17.5404 300.677 16.6621V11.2905H298.886V9.06396H300.677V6.25293L303.237 5.56641V9.06396H305.844V11.2905H303.237V16.0405ZM309.602 14.918C309.645 15.2148 309.738 15.487 309.88 15.7344C310.028 15.9818 310.214 16.1951 310.437 16.3745C310.659 16.5477 310.916 16.6838 311.207 16.7827C311.497 16.8817 311.806 16.9312 312.134 16.9312C312.512 16.9312 312.92 16.86 313.359 16.7178C313.798 16.5693 314.2 16.356 314.565 16.0776L315.799 17.8774C315.335 18.2671 314.766 18.5825 314.092 18.8237C313.418 19.0649 312.7 19.1855 311.939 19.1855C311.253 19.1855 310.607 19.068 310 18.833C309.394 18.598 308.862 18.2578 308.405 17.8125C307.953 17.3672 307.595 16.826 307.329 16.189C307.069 15.5519 306.939 14.8345 306.939 14.0366C306.939 13.3068 307.053 12.6265 307.282 11.9956C307.517 11.3647 307.842 10.8174 308.256 10.3535C308.677 9.88965 309.178 9.52783 309.759 9.26807C310.341 9.00212 310.984 8.86914 311.689 8.86914C312.345 8.86914 312.954 8.98975 313.517 9.23096C314.079 9.46598 314.568 9.79997 314.982 10.2329C315.397 10.6597 315.722 11.173 315.957 11.7729C316.192 12.3729 316.309 13.0347 316.309 13.7583V14.918H309.602ZM311.68 11.0957C311.129 11.0957 310.662 11.2812 310.279 11.6523C309.902 12.0173 309.682 12.4595 309.62 12.979H313.628C313.616 12.4533 313.424 12.008 313.053 11.6431C312.682 11.2782 312.224 11.0957 311.68 11.0957ZM324.325 19V18.1465C324.189 18.2949 324.037 18.4341 323.87 18.564C323.709 18.6877 323.527 18.7959 323.323 18.8887C323.125 18.9814 322.905 19.0526 322.664 19.1021C322.429 19.1577 322.166 19.1855 321.875 19.1855C321.22 19.1855 320.62 19.0557 320.076 18.7959C319.531 18.5361 319.064 18.1774 318.675 17.7197C318.285 17.262 317.982 16.7178 317.766 16.0869C317.555 15.4561 317.45 14.7726 317.45 14.0366C317.45 13.3006 317.555 12.6172 317.766 11.9863C317.976 11.3555 318.27 10.8112 318.647 10.3535C319.03 9.88965 319.491 9.52783 320.029 9.26807C320.567 9.00212 321.164 8.86914 321.82 8.86914C322.401 8.86914 322.893 8.97119 323.295 9.17529C323.703 9.37321 324.046 9.62061 324.325 9.91748V5.69629H326.885V19H324.325ZM324.399 13.1089C324.399 12.8429 324.349 12.5955 324.25 12.3667C324.158 12.1379 324.022 11.9399 323.842 11.7729C323.663 11.606 323.446 11.4761 323.193 11.3833C322.945 11.2905 322.664 11.2441 322.349 11.2441C321.984 11.2441 321.659 11.3122 321.375 11.4482C321.096 11.5843 320.861 11.776 320.669 12.0234C320.478 12.2646 320.332 12.5522 320.233 12.8862C320.134 13.2202 320.085 13.5851 320.085 13.981V14.1016C320.085 14.4974 320.134 14.8623 320.233 15.1963C320.332 15.5241 320.478 15.8086 320.669 16.0498C320.861 16.291 321.096 16.4797 321.375 16.6157C321.659 16.7456 321.984 16.8105 322.349 16.8105C322.664 16.8105 322.945 16.7642 323.193 16.6714C323.446 16.5786 323.663 16.4487 323.842 16.2817C324.022 16.1147 324.158 15.9199 324.25 15.6973C324.349 15.4684 324.399 15.221 324.399 14.9551V13.1089ZM331.802 11.9121H335.792V14.2129H331.802V11.9121ZM349.086 19H346.516V13.2202C346.516 12.8677 346.476 12.5708 346.396 12.3296C346.321 12.0822 346.216 11.8843 346.08 11.7358C345.944 11.5812 345.786 11.473 345.607 11.4111C345.428 11.3431 345.233 11.3091 345.022 11.3091C344.775 11.3091 344.543 11.3524 344.327 11.439C344.116 11.5256 343.931 11.6616 343.77 11.8472C343.615 12.0327 343.492 12.2708 343.399 12.5615C343.312 12.846 343.269 13.1862 343.269 13.582V19H340.708V9.06396H343.269V9.93604C343.597 9.57113 343.977 9.30208 344.41 9.12891C344.849 8.95573 345.319 8.86914 345.82 8.86914C346.334 8.86914 346.813 8.97428 347.258 9.18457C347.71 9.39486 348.084 9.74121 348.381 10.2236C348.554 9.97624 348.752 9.76595 348.975 9.59277C349.203 9.4196 349.448 9.28044 349.708 9.17529C349.967 9.07015 350.236 8.99284 350.515 8.94336C350.799 8.89388 351.09 8.86914 351.387 8.86914C351.943 8.86914 352.438 8.96191 352.871 9.14746C353.31 9.32682 353.681 9.57113 353.984 9.88037C354.287 10.1896 354.519 10.5452 354.68 10.9473C354.841 11.3493 354.921 11.7729 354.921 12.2183V19H352.333V13.2202C352.333 12.8677 352.293 12.5708 352.212 12.3296C352.138 12.0822 352.033 11.8843 351.897 11.7358C351.761 11.5812 351.6 11.473 351.415 11.4111C351.235 11.3431 351.04 11.3091 350.83 11.3091C350.583 11.3091 350.354 11.3524 350.144 11.439C349.933 11.5256 349.748 11.6616 349.587 11.8472C349.432 12.0327 349.309 12.2708 349.216 12.5615C349.129 12.846 349.086 13.1862 349.086 13.582V19ZM360.265 14.9644C359.95 15.0138 359.696 15.1252 359.504 15.2983C359.313 15.4653 359.217 15.6942 359.217 15.9849C359.217 16.3065 359.334 16.5848 359.569 16.8198C359.804 17.0487 360.151 17.1631 360.608 17.1631C361.091 17.1631 361.471 17.0239 361.75 16.7456C362.028 16.4673 362.167 16.0993 362.167 15.6416V14.6396L360.265 14.9644ZM362.584 18.063C362.479 18.1805 362.349 18.3073 362.195 18.4434C362.046 18.5732 361.867 18.6938 361.657 18.8052C361.453 18.9103 361.211 19 360.933 19.0742C360.655 19.1484 360.342 19.1855 359.996 19.1855C359.501 19.1855 359.044 19.1082 358.623 18.9536C358.209 18.7928 357.844 18.5701 357.528 18.2856C357.213 18.0011 356.965 17.6733 356.786 17.3022C356.607 16.925 356.517 16.5168 356.517 16.0776C356.517 15.2798 356.764 14.6273 357.259 14.1201C357.754 13.613 358.438 13.2944 359.31 13.1646L362.167 12.7471V12.5615C362.167 12.1162 362.031 11.7637 361.759 11.5039C361.487 11.2441 361.044 11.1143 360.432 11.1143C360.179 11.1143 359.922 11.1452 359.662 11.207C359.402 11.2627 359.152 11.3276 358.911 11.4019C358.676 11.4761 358.456 11.5627 358.252 11.6616C358.048 11.7544 357.868 11.8379 357.714 11.9121L356.712 9.95459C357.281 9.63916 357.912 9.37939 358.604 9.17529C359.303 8.97119 360.027 8.86914 360.775 8.86914C361.233 8.86914 361.694 8.91862 362.158 9.01758C362.628 9.11035 363.051 9.28353 363.429 9.53711C363.812 9.79069 364.125 10.137 364.366 10.5762C364.607 11.0091 364.728 11.5627 364.728 12.2368V16.3188C364.728 16.6095 364.802 16.826 364.95 16.9683C365.105 17.1043 365.315 17.2311 365.581 17.3486L364.421 19.1855C363.951 19.1361 363.574 19.0155 363.29 18.8237C363.005 18.6258 362.77 18.3722 362.584 18.063ZM366.871 9.06396H369.431V9.91748C369.567 9.78141 369.719 9.65153 369.886 9.52783C370.059 9.39795 370.248 9.28662 370.452 9.19385C370.656 9.09489 370.882 9.01758 371.129 8.96191C371.382 8.90007 371.661 8.86914 371.964 8.86914C372.502 8.86914 372.984 8.95882 373.411 9.13818C373.838 9.31136 374.197 9.55257 374.487 9.86182C374.784 10.1711 375.01 10.5329 375.165 10.9473C375.319 11.3617 375.396 11.8101 375.396 12.2925V19H372.836V13.2202C372.836 12.8677 372.796 12.5708 372.715 12.3296C372.635 12.0822 372.524 11.8843 372.381 11.7358C372.245 11.5812 372.081 11.4699 371.89 11.4019C371.704 11.3276 371.5 11.2905 371.277 11.2905C371.018 11.2905 370.773 11.3369 370.544 11.4297C370.322 11.5225 370.127 11.6647 369.96 11.8564C369.793 12.042 369.663 12.277 369.57 12.5615C369.478 12.846 369.431 13.18 369.431 13.5635V19H366.871V9.06396ZM385.991 19H383.431V18.1465C383.288 18.2826 383.134 18.4155 382.967 18.5454C382.8 18.6691 382.614 18.7804 382.41 18.8794C382.206 18.9722 381.977 19.0464 381.724 19.1021C381.476 19.1577 381.201 19.1855 380.898 19.1855C380.36 19.1855 379.877 19.099 379.451 18.9258C379.024 18.7464 378.662 18.5052 378.365 18.2021C378.075 17.8929 377.852 17.5311 377.697 17.1167C377.543 16.7023 377.465 16.2539 377.465 15.7715V9.06396H380.026V14.8345C380.026 15.187 380.063 15.487 380.137 15.7344C380.218 15.9818 380.326 16.1828 380.462 16.3374C380.604 16.4858 380.771 16.5972 380.963 16.6714C381.155 16.7394 381.362 16.7734 381.584 16.7734C381.844 16.7734 382.085 16.7271 382.308 16.6343C382.537 16.5415 382.735 16.4023 382.902 16.2168C383.069 16.0251 383.199 15.7869 383.292 15.5024C383.384 15.2179 383.431 14.884 383.431 14.5005V9.06396H385.991V19ZM391.418 14.9644C391.103 15.0138 390.849 15.1252 390.658 15.2983C390.466 15.4653 390.37 15.6942 390.37 15.9849C390.37 16.3065 390.488 16.5848 390.723 16.8198C390.958 17.0487 391.304 17.1631 391.762 17.1631C392.244 17.1631 392.625 17.0239 392.903 16.7456C393.181 16.4673 393.32 16.0993 393.32 15.6416V14.6396L391.418 14.9644ZM393.738 18.063C393.633 18.1805 393.503 18.3073 393.348 18.4434C393.2 18.5732 393.02 18.6938 392.81 18.8052C392.606 18.9103 392.365 19 392.086 19.0742C391.808 19.1484 391.496 19.1855 391.149 19.1855C390.655 19.1855 390.197 19.1082 389.776 18.9536C389.362 18.7928 388.997 18.5701 388.682 18.2856C388.366 18.0011 388.119 17.6733 387.939 17.3022C387.76 16.925 387.67 16.5168 387.67 16.0776C387.67 15.2798 387.918 14.6273 388.413 14.1201C388.907 13.613 389.591 13.2944 390.463 13.1646L393.32 12.7471V12.5615C393.32 12.1162 393.184 11.7637 392.912 11.5039C392.64 11.2441 392.198 11.1143 391.585 11.1143C391.332 11.1143 391.075 11.1452 390.815 11.207C390.556 11.2627 390.305 11.3276 390.064 11.4019C389.829 11.4761 389.609 11.5627 389.405 11.6616C389.201 11.7544 389.022 11.8379 388.867 11.9121L387.865 9.95459C388.434 9.63916 389.065 9.37939 389.758 9.17529C390.457 8.97119 391.18 8.86914 391.929 8.86914C392.386 8.86914 392.847 8.91862 393.311 9.01758C393.781 9.11035 394.205 9.28353 394.582 9.53711C394.965 9.79069 395.278 10.137 395.519 10.5762C395.76 11.0091 395.881 11.5627 395.881 12.2368V16.3188C395.881 16.6095 395.955 16.826 396.104 16.9683C396.258 17.1043 396.468 17.2311 396.734 17.3486L395.575 19.1855C395.105 19.1361 394.727 19.0155 394.443 18.8237C394.158 18.6258 393.923 18.3722 393.738 18.063ZM397.987 5.69629H400.547V16.3003C400.547 16.5106 400.606 16.6714 400.724 16.7827C400.847 16.894 401.042 16.9497 401.308 16.9497C401.432 16.9497 401.537 16.9435 401.624 16.9312C401.716 16.9126 401.834 16.8879 401.976 16.8569L402.18 19.0371C402.007 19.0618 401.821 19.0866 401.624 19.1113C401.457 19.1299 401.262 19.1453 401.039 19.1577C400.823 19.1763 400.597 19.1855 400.362 19.1855C399.997 19.1855 399.669 19.1392 399.378 19.0464C399.088 18.9536 398.837 18.8175 398.627 18.6382C398.423 18.4526 398.265 18.2238 398.154 17.9517C398.042 17.6795 397.987 17.3641 397.987 17.0054V5.69629Z" fill="white"/>
<rect width="138" height="27" fill="#001CB8"/>
<path d="M15.0156 14.7046L11.082 9.7876V19H8.3916V5.69629H11.1191L15.0527 10.8916L19.1069 5.69629H21.7231V19H19.0234V9.7876L15.1084 14.7046H15.0156ZM26.7886 19H24.228V9.06396H26.7886V19ZM23.959 6.45703C23.959 6.24674 23.9992 6.04883 24.0796 5.86328C24.16 5.67155 24.2682 5.50765 24.4043 5.37158C24.5465 5.22933 24.7104 5.118 24.896 5.0376C25.0815 4.95719 25.2826 4.91699 25.499 4.91699C25.7093 4.91699 25.9072 4.95719 26.0928 5.0376C26.2845 5.118 26.4484 5.22933 26.5845 5.37158C26.7267 5.50765 26.8381 5.67155 26.9185 5.86328C26.9989 6.04883 27.0391 6.24674 27.0391 6.45703C27.0391 6.6735 26.9989 6.87451 26.9185 7.06006C26.8381 7.24561 26.7267 7.40951 26.5845 7.55176C26.4484 7.68783 26.2845 7.79606 26.0928 7.87646C25.9072 7.95687 25.7093 7.99707 25.499 7.99707C25.2826 7.99707 25.0815 7.95687 24.896 7.87646C24.7104 7.79606 24.5465 7.68783 24.4043 7.55176C24.2682 7.40951 24.16 7.24561 24.0796 7.06006C23.9992 6.87451 23.959 6.6735 23.959 6.45703ZM35.0361 17.2373C34.8073 17.5156 34.4857 17.7383 34.0713 17.9053C33.6631 18.0661 33.2178 18.1465 32.7354 18.1465C32.0674 18.1465 31.4736 18.029 30.9541 17.7939C30.4346 17.5589 29.9954 17.2373 29.6367 16.8291C29.2842 16.4147 29.012 15.9261 28.8203 15.3633C28.6348 14.8005 28.542 14.182 28.542 13.5078C28.542 12.8522 28.6348 12.2399 28.8203 11.6709C29.012 11.0957 29.2842 10.604 29.6367 10.1958C29.9954 9.78141 30.4346 9.45671 30.9541 9.22168C31.4736 8.98665 32.0674 8.86914 32.7354 8.86914C33.2178 8.86914 33.6631 8.95264 34.0713 9.11963C34.4857 9.28662 34.8073 9.50928 35.0361 9.7876V9.06396H37.606V18.9072C37.606 19.5133 37.4915 20.0329 37.2627 20.4658C37.0339 20.9049 36.7184 21.2637 36.3164 21.542C35.9206 21.8203 35.4598 22.0213 34.9341 22.145C34.4084 22.2749 33.8486 22.3398 33.2549 22.3398C32.5312 22.3398 31.7767 22.2533 30.9912 22.0801C30.2057 21.9131 29.5285 21.7028 28.9595 21.4492L29.6831 19.3804C29.8563 19.4546 30.0697 19.535 30.3232 19.6216C30.5768 19.7144 30.849 19.7948 31.1396 19.8628C31.4303 19.9308 31.7334 19.9865 32.0488 20.0298C32.3704 20.0793 32.6828 20.104 32.9858 20.104C33.2518 20.104 33.5085 20.0762 33.7559 20.0205C34.0033 19.971 34.2197 19.8844 34.4053 19.7607C34.597 19.6432 34.7485 19.4855 34.8599 19.2876C34.9774 19.0959 35.0361 18.8485 35.0361 18.5454V17.2373ZM31.1768 13.5449C31.1768 13.8727 31.2108 14.182 31.2788 14.4727C31.353 14.7572 31.4674 15.0015 31.6221 15.2056C31.7829 15.4035 31.987 15.5612 32.2344 15.6787C32.4818 15.79 32.7817 15.8457 33.1343 15.8457C33.8332 15.8457 34.3311 15.6261 34.6279 15.187C34.9248 14.7417 35.0732 14.1943 35.0732 13.5449V13.4707C35.0732 13.1429 35.0392 12.8368 34.9712 12.5522C34.9032 12.2677 34.7918 12.0234 34.6372 11.8193C34.4826 11.6152 34.2816 11.4575 34.0342 11.3462C33.793 11.2287 33.493 11.1699 33.1343 11.1699C32.4416 11.1699 31.9406 11.3895 31.6313 11.8286C31.3283 12.2677 31.1768 12.8151 31.1768 13.4707V13.5449ZM45.3989 11.5503H45.1299C44.765 11.5503 44.4155 11.5874 44.0815 11.6616C43.7537 11.7358 43.4631 11.8719 43.2095 12.0698C42.9559 12.2616 42.7518 12.5275 42.5972 12.8677C42.4487 13.2078 42.3745 13.6439 42.3745 14.1758V19H39.814V9.06396H42.3745V10.1865C42.4797 10.0195 42.6157 9.85872 42.7827 9.7041C42.9497 9.54948 43.1445 9.41341 43.3672 9.2959C43.5898 9.1722 43.8403 9.07324 44.1187 8.99902C44.397 8.9248 44.6969 8.8877 45.0186 8.8877H45.3989V11.5503ZM50.2046 14.9644C49.8892 15.0138 49.6356 15.1252 49.4438 15.2983C49.2521 15.4653 49.1562 15.6942 49.1562 15.9849C49.1562 16.3065 49.2738 16.5848 49.5088 16.8198C49.7438 17.0487 50.0902 17.1631 50.5479 17.1631C51.0303 17.1631 51.4106 17.0239 51.689 16.7456C51.9673 16.4673 52.1064 16.0993 52.1064 15.6416V14.6396L50.2046 14.9644ZM52.5239 18.063C52.4188 18.1805 52.2889 18.3073 52.1343 18.4434C51.9858 18.5732 51.8065 18.6938 51.5962 18.8052C51.3921 18.9103 51.1509 19 50.8726 19.0742C50.5942 19.1484 50.2819 19.1855 49.9355 19.1855C49.4408 19.1855 48.9831 19.1082 48.5625 18.9536C48.1481 18.7928 47.7832 18.5701 47.4678 18.2856C47.1523 18.0011 46.9049 17.6733 46.7256 17.3022C46.5462 16.925 46.4565 16.5168 46.4565 16.0776C46.4565 15.2798 46.7039 14.6273 47.1987 14.1201C47.6935 13.613 48.377 13.2944 49.249 13.1646L52.1064 12.7471V12.5615C52.1064 12.1162 51.9704 11.7637 51.6982 11.5039C51.4261 11.2441 50.9839 11.1143 50.3716 11.1143C50.118 11.1143 49.8613 11.1452 49.6016 11.207C49.3418 11.2627 49.0913 11.3276 48.8501 11.4019C48.6151 11.4761 48.3955 11.5627 48.1914 11.6616C47.9873 11.7544 47.8079 11.8379 47.6533 11.9121L46.6514 9.95459C47.2204 9.63916 47.8512 9.37939 48.5439 9.17529C49.2428 8.97119 49.9665 8.86914 50.7148 8.86914C51.1725 8.86914 51.6333 8.91862 52.0972 9.01758C52.5672 9.11035 52.9909 9.28353 53.3682 9.53711C53.7516 9.79069 54.064 10.137 54.3052 10.5762C54.5464 11.0091 54.667 11.5627 54.667 12.2368V16.3188C54.667 16.6095 54.7412 16.826 54.8896 16.9683C55.0443 17.1043 55.2546 17.2311 55.5205 17.3486L54.3608 19.1855C53.8908 19.1361 53.5135 19.0155 53.229 18.8237C52.9445 18.6258 52.7095 18.3722 52.5239 18.063ZM60.085 16.0405C60.085 16.158 60.1004 16.2694 60.1313 16.3745C60.1623 16.4797 60.2148 16.5724 60.2891 16.6528C60.3695 16.7271 60.4808 16.7858 60.623 16.8291C60.7653 16.8724 60.9478 16.894 61.1704 16.894C61.2632 16.894 61.3683 16.891 61.4858 16.8848C61.6034 16.8724 61.7209 16.86 61.8384 16.8477C61.9559 16.8353 62.0641 16.8198 62.1631 16.8013C62.2682 16.7827 62.3548 16.7673 62.4229 16.7549L62.6548 19.0186C62.4136 19.0495 62.1631 19.0773 61.9033 19.1021C61.6807 19.1268 61.4333 19.1453 61.1611 19.1577C60.889 19.1763 60.6138 19.1855 60.3354 19.1855C59.451 19.1855 58.7614 18.9845 58.2666 18.5825C57.7718 18.1805 57.5244 17.5404 57.5244 16.6621V11.2905H55.7339V9.06396H57.5244V6.25293L60.085 5.56641V9.06396H62.6919V11.2905H60.085V16.0405ZM66.4492 14.918C66.4925 15.2148 66.5853 15.487 66.7275 15.7344C66.876 15.9818 67.0615 16.1951 67.2842 16.3745C67.5068 16.5477 67.7635 16.6838 68.0542 16.7827C68.3449 16.8817 68.6541 16.9312 68.9819 16.9312C69.3592 16.9312 69.7674 16.86 70.2065 16.7178C70.6457 16.5693 71.0477 16.356 71.4126 16.0776L72.6465 17.8774C72.1826 18.2671 71.6136 18.5825 70.9395 18.8237C70.2653 19.0649 69.5479 19.1855 68.7871 19.1855C68.1006 19.1855 67.4543 19.068 66.8481 18.833C66.242 18.598 65.7101 18.2578 65.2524 17.8125C64.8009 17.3672 64.4422 16.826 64.1763 16.189C63.9165 15.5519 63.7866 14.8345 63.7866 14.0366C63.7866 13.3068 63.901 12.6265 64.1299 11.9956C64.3649 11.3647 64.6896 10.8174 65.104 10.3535C65.5246 9.88965 66.0256 9.52783 66.6069 9.26807C67.1883 9.00212 67.8315 8.86914 68.5366 8.86914C69.1922 8.86914 69.8014 8.98975 70.3643 9.23096C70.9271 9.46598 71.4157 9.79997 71.8301 10.2329C72.2445 10.6597 72.5692 11.173 72.8042 11.7729C73.0392 12.3729 73.1567 13.0347 73.1567 13.7583V14.918H66.4492ZM68.5273 11.0957C67.9769 11.0957 67.5099 11.2812 67.1265 11.6523C66.7492 12.0173 66.5296 12.4595 66.4678 12.979H70.4756C70.4632 12.4533 70.2715 12.008 69.9004 11.6431C69.5293 11.2782 69.0716 11.0957 68.5273 11.0957ZM81.1724 19V18.1465C81.0363 18.2949 80.8848 18.4341 80.7178 18.564C80.557 18.6877 80.3745 18.7959 80.1704 18.8887C79.9725 18.9814 79.7529 19.0526 79.5117 19.1021C79.2767 19.1577 79.0138 19.1855 78.7231 19.1855C78.0675 19.1855 77.4676 19.0557 76.9233 18.7959C76.3791 18.5361 75.9121 18.1774 75.5225 17.7197C75.1328 17.262 74.8298 16.7178 74.6133 16.0869C74.403 15.4561 74.2979 14.7726 74.2979 14.0366C74.2979 13.3006 74.403 12.6172 74.6133 11.9863C74.8236 11.3555 75.1174 10.8112 75.4946 10.3535C75.8781 9.88965 76.3389 9.52783 76.877 9.26807C77.415 9.00212 78.0119 8.86914 78.6675 8.86914C79.2489 8.86914 79.7406 8.97119 80.1426 9.17529C80.5508 9.37321 80.894 9.62061 81.1724 9.91748V5.69629H83.7329V19H81.1724ZM81.2466 13.1089C81.2466 12.8429 81.1971 12.5955 81.0981 12.3667C81.0054 12.1379 80.8693 11.9399 80.6899 11.7729C80.5106 11.606 80.2941 11.4761 80.0405 11.3833C79.7931 11.2905 79.5117 11.2441 79.1963 11.2441C78.8314 11.2441 78.5067 11.3122 78.2222 11.4482C77.9438 11.5843 77.7088 11.776 77.5171 12.0234C77.3254 12.2646 77.18 12.5522 77.0811 12.8862C76.9821 13.2202 76.9326 13.5851 76.9326 13.981V14.1016C76.9326 14.4974 76.9821 14.8623 77.0811 15.1963C77.18 15.5241 77.3254 15.8086 77.5171 16.0498C77.7088 16.291 77.9438 16.4797 78.2222 16.6157C78.5067 16.7456 78.8314 16.8105 79.1963 16.8105C79.5117 16.8105 79.7931 16.7642 80.0405 16.6714C80.2941 16.5786 80.5106 16.4487 80.6899 16.2817C80.8693 16.1147 81.0054 15.9199 81.0981 15.6973C81.1971 15.4684 81.2466 15.221 81.2466 14.9551V13.1089ZM88.9932 12.3481C88.9932 11.3957 89.1354 10.505 89.4199 9.67627C89.7106 8.84131 90.125 8.11768 90.6631 7.50537C91.2012 6.88688 91.8537 6.40137 92.6206 6.04883C93.3875 5.6901 94.2503 5.51074 95.209 5.51074C95.9017 5.51074 96.5418 5.60042 97.1294 5.77979C97.7231 5.95915 98.255 6.21273 98.7251 6.54053C99.2013 6.86833 99.6095 7.26416 99.9497 7.72803C100.29 8.19189 100.559 8.71143 100.757 9.28662L98.1685 10.1494C98.0942 9.90202 97.9767 9.64844 97.8159 9.38867C97.6551 9.12272 97.451 8.8846 97.2036 8.67432C96.9562 8.45785 96.6655 8.28158 96.3315 8.14551C96.0037 8.00944 95.6357 7.94141 95.2275 7.94141C94.6152 7.94141 94.0895 8.0682 93.6504 8.32178C93.2174 8.56917 92.8618 8.90007 92.5835 9.31445C92.3052 9.72266 92.098 10.1896 91.9619 10.7153C91.832 11.2349 91.7671 11.7668 91.7671 12.311V12.3853C91.7671 12.9357 91.832 13.4738 91.9619 13.9995C92.098 14.519 92.3052 14.9829 92.5835 15.3911C92.8618 15.7993 93.2174 16.1302 93.6504 16.3838C94.0895 16.6312 94.6152 16.7549 95.2275 16.7549C95.6357 16.7549 96.0037 16.6868 96.3315 16.5508C96.6655 16.4147 96.9562 16.2415 97.2036 16.0312C97.451 15.8148 97.6551 15.5767 97.8159 15.3169C97.9767 15.0571 98.0942 14.8035 98.1685 14.5562L100.757 15.4097C100.559 15.9849 100.29 16.5044 99.9497 16.9683C99.6095 17.4321 99.2013 17.8311 98.7251 18.165C98.255 18.4928 97.7231 18.7464 97.1294 18.9258C96.5418 19.099 95.9017 19.1855 95.209 19.1855C94.2503 19.1855 93.3875 19.0093 92.6206 18.6567C91.8537 18.3042 91.2012 17.8187 90.6631 17.2002C90.125 16.5817 89.7106 15.8581 89.4199 15.0293C89.1354 14.2005 88.9932 13.3068 88.9932 12.3481ZM105.627 14.9644C105.312 15.0138 105.058 15.1252 104.867 15.2983C104.675 15.4653 104.579 15.6942 104.579 15.9849C104.579 16.3065 104.697 16.5848 104.932 16.8198C105.167 17.0487 105.513 17.1631 105.971 17.1631C106.453 17.1631 106.833 17.0239 107.112 16.7456C107.39 16.4673 107.529 16.0993 107.529 15.6416V14.6396L105.627 14.9644ZM107.947 18.063C107.842 18.1805 107.712 18.3073 107.557 18.4434C107.409 18.5732 107.229 18.6938 107.019 18.8052C106.815 18.9103 106.574 19 106.295 19.0742C106.017 19.1484 105.705 19.1855 105.358 19.1855C104.864 19.1855 104.406 19.1082 103.985 18.9536C103.571 18.7928 103.206 18.5701 102.891 18.2856C102.575 18.0011 102.328 17.6733 102.148 17.3022C101.969 16.925 101.879 16.5168 101.879 16.0776C101.879 15.2798 102.127 14.6273 102.622 14.1201C103.116 13.613 103.8 13.2944 104.672 13.1646L107.529 12.7471V12.5615C107.529 12.1162 107.393 11.7637 107.121 11.5039C106.849 11.2441 106.407 11.1143 105.794 11.1143C105.541 11.1143 105.284 11.1452 105.024 11.207C104.765 11.2627 104.514 11.3276 104.273 11.4019C104.038 11.4761 103.818 11.5627 103.614 11.6616C103.41 11.7544 103.231 11.8379 103.076 11.9121L102.074 9.95459C102.643 9.63916 103.274 9.37939 103.967 9.17529C104.666 8.97119 105.389 8.86914 106.138 8.86914C106.595 8.86914 107.056 8.91862 107.52 9.01758C107.99 9.11035 108.414 9.28353 108.791 9.53711C109.174 9.79069 109.487 10.137 109.728 10.5762C109.969 11.0091 110.09 11.5627 110.09 12.2368V16.3188C110.09 16.6095 110.164 16.826 110.312 16.9683C110.467 17.1043 110.677 17.2311 110.943 17.3486L109.784 19.1855C109.314 19.1361 108.936 19.0155 108.652 18.8237C108.367 18.6258 108.132 18.3722 107.947 18.063ZM112.938 15.8271C113.303 16.1549 113.739 16.4364 114.246 16.6714C114.753 16.9064 115.267 17.0239 115.786 17.0239C116.163 17.0239 116.46 16.9528 116.677 16.8105C116.893 16.6621 117.001 16.4735 117.001 16.2446C117.001 15.855 116.584 15.5519 115.749 15.3354L115.025 15.1406C114.667 15.054 114.305 14.9365 113.94 14.7881C113.575 14.6335 113.238 14.4325 112.929 14.1851C112.626 13.9377 112.378 13.6377 112.187 13.2852C112.001 12.9264 111.908 12.4873 111.908 11.9678C111.908 11.5534 111.998 11.1606 112.177 10.7896C112.363 10.4123 112.623 10.0814 112.957 9.79688C113.297 9.51237 113.708 9.28662 114.19 9.11963C114.673 8.95264 115.211 8.86914 115.805 8.86914C116.652 8.86914 117.407 9.00212 118.068 9.26807C118.736 9.53402 119.262 9.83398 119.646 10.168L118.31 11.875C117.994 11.6462 117.62 11.4513 117.187 11.2905C116.76 11.1235 116.33 11.04 115.897 11.04C115.495 11.04 115.183 11.1143 114.96 11.2627C114.738 11.4049 114.626 11.5781 114.626 11.7822C114.626 11.9987 114.722 12.175 114.914 12.311C115.112 12.4409 115.396 12.5553 115.768 12.6543L116.844 12.9604C117.87 13.2511 118.606 13.6439 119.052 14.1387C119.497 14.6335 119.72 15.2581 119.72 16.0127C119.72 16.4333 119.633 16.8353 119.46 17.2188C119.287 17.596 119.033 17.9331 118.699 18.23C118.365 18.5269 117.951 18.7619 117.456 18.9351C116.961 19.1021 116.398 19.1855 115.768 19.1855C115.285 19.1855 114.831 19.1423 114.404 19.0557C113.983 18.9691 113.59 18.8516 113.226 18.7031C112.867 18.5485 112.542 18.3753 112.251 18.1836C111.961 17.9919 111.713 17.8001 111.509 17.6084L112.938 15.8271ZM123.523 14.918C123.567 15.2148 123.66 15.487 123.802 15.7344C123.95 15.9818 124.136 16.1951 124.358 16.3745C124.581 16.5477 124.838 16.6838 125.128 16.7827C125.419 16.8817 125.728 16.9312 126.056 16.9312C126.433 16.9312 126.842 16.86 127.281 16.7178C127.72 16.5693 128.122 16.356 128.487 16.0776L129.721 17.8774C129.257 18.2671 128.688 18.5825 128.014 18.8237C127.34 19.0649 126.622 19.1855 125.861 19.1855C125.175 19.1855 124.528 19.068 123.922 18.833C123.316 18.598 122.784 18.2578 122.327 17.8125C121.875 17.3672 121.516 16.826 121.25 16.189C120.991 15.5519 120.861 14.8345 120.861 14.0366C120.861 13.3068 120.975 12.6265 121.204 11.9956C121.439 11.3647 121.764 10.8174 122.178 10.3535C122.599 9.88965 123.1 9.52783 123.681 9.26807C124.263 9.00212 124.906 8.86914 125.611 8.86914C126.266 8.86914 126.876 8.98975 127.438 9.23096C128.001 9.46598 128.49 9.79997 128.904 10.2329C129.319 10.6597 129.643 11.173 129.878 11.7729C130.113 12.3729 130.231 13.0347 130.231 13.7583V14.918H123.523ZM125.602 11.0957C125.051 11.0957 124.584 11.2812 124.201 11.6523C123.823 12.0173 123.604 12.4595 123.542 12.979H127.55C127.537 12.4533 127.346 12.008 126.975 11.6431C126.604 11.2782 126.146 11.0957 125.602 11.0957Z" fill="white"/>
<rect width="8" height="27" transform="matrix(1 0 0 -1 138 27)" fill="white"/>
</svg>
