<svg width="526" height="27" viewBox="0 0 526 27" fill="none" xmlns="http://www.w3.org/2000/svg">
<rect width="116" height="27" transform="translate(146)" fill="#800080"/>
<path d="M154.392 5.69629H163.354V8.13623H157.082V10.9658H162.862V13.3965H157.082V19H154.392V5.69629ZM167.176 14.918C167.219 15.2148 167.312 15.487 167.454 15.7344C167.603 15.9818 167.788 16.1951 168.011 16.3745C168.233 16.5477 168.49 16.6838 168.781 16.7827C169.071 16.8817 169.381 16.9312 169.708 16.9312C170.086 16.9312 170.494 16.86 170.933 16.7178C171.372 16.5693 171.774 16.356 172.139 16.0776L173.373 17.8774C172.909 18.2671 172.34 18.5825 171.666 18.8237C170.992 19.0649 170.274 19.1855 169.514 19.1855C168.827 19.1855 168.181 19.068 167.575 18.833C166.969 18.598 166.437 18.2578 165.979 17.8125C165.528 17.3672 165.169 16.826 164.903 16.189C164.643 15.5519 164.513 14.8345 164.513 14.0366C164.513 13.3068 164.628 12.6265 164.856 11.9956C165.091 11.3647 165.416 10.8174 165.831 10.3535C166.251 9.88965 166.752 9.52783 167.333 9.26807C167.915 9.00212 168.558 8.86914 169.263 8.86914C169.919 8.86914 170.528 8.98975 171.091 9.23096C171.654 9.46598 172.142 9.79997 172.557 10.2329C172.971 10.6597 173.296 11.173 173.531 11.7729C173.766 12.3729 173.883 13.0347 173.883 13.7583V14.918H167.176ZM169.254 11.0957C168.703 11.0957 168.236 11.2812 167.853 11.6523C167.476 12.0173 167.256 12.4595 167.194 12.979H171.202C171.19 12.4533 170.998 12.008 170.627 11.6431C170.256 11.2782 169.798 11.0957 169.254 11.0957ZM177.659 14.918C177.702 15.2148 177.795 15.487 177.938 15.7344C178.086 15.9818 178.271 16.1951 178.494 16.3745C178.717 16.5477 178.973 16.6838 179.264 16.7827C179.555 16.8817 179.864 16.9312 180.192 16.9312C180.569 16.9312 180.977 16.86 181.417 16.7178C181.856 16.5693 182.258 16.356 182.623 16.0776L183.856 17.8774C183.393 18.2671 182.824 18.5825 182.149 18.8237C181.475 19.0649 180.758 19.1855 179.997 19.1855C179.311 19.1855 178.664 19.068 178.058 18.833C177.452 18.598 176.92 18.2578 176.462 17.8125C176.011 17.3672 175.652 16.826 175.386 16.189C175.126 15.5519 174.997 14.8345 174.997 14.0366C174.997 13.3068 175.111 12.6265 175.34 11.9956C175.575 11.3647 175.9 10.8174 176.314 10.3535C176.735 9.88965 177.236 9.52783 177.817 9.26807C178.398 9.00212 179.042 8.86914 179.747 8.86914C180.402 8.86914 181.011 8.98975 181.574 9.23096C182.137 9.46598 182.626 9.79997 183.04 10.2329C183.454 10.6597 183.779 11.173 184.014 11.7729C184.249 12.3729 184.367 13.0347 184.367 13.7583V14.918H177.659ZM179.737 11.0957C179.187 11.0957 178.72 11.2812 178.336 11.6523C177.959 12.0173 177.74 12.4595 177.678 12.979H181.686C181.673 12.4533 181.481 12.008 181.11 11.6431C180.739 11.2782 180.282 11.0957 179.737 11.0957ZM191.575 14.918C191.618 15.2148 191.711 15.487 191.854 15.7344C192.002 15.9818 192.188 16.1951 192.41 16.3745C192.633 16.5477 192.889 16.6838 193.18 16.7827C193.471 16.8817 193.78 16.9312 194.108 16.9312C194.485 16.9312 194.893 16.86 195.333 16.7178C195.772 16.5693 196.174 16.356 196.539 16.0776L197.772 17.8774C197.309 18.2671 196.74 18.5825 196.065 18.8237C195.391 19.0649 194.674 19.1855 193.913 19.1855C193.227 19.1855 192.58 19.068 191.974 18.833C191.368 18.598 190.836 18.2578 190.378 17.8125C189.927 17.3672 189.568 16.826 189.302 16.189C189.042 15.5519 188.913 14.8345 188.913 14.0366C188.913 13.3068 189.027 12.6265 189.256 11.9956C189.491 11.3647 189.816 10.8174 190.23 10.3535C190.651 9.88965 191.152 9.52783 191.733 9.26807C192.314 9.00212 192.958 8.86914 193.663 8.86914C194.318 8.86914 194.927 8.98975 195.49 9.23096C196.053 9.46598 196.542 9.79997 196.956 10.2329C197.37 10.6597 197.695 11.173 197.93 11.7729C198.165 12.3729 198.283 13.0347 198.283 13.7583V14.918H191.575ZM193.653 11.0957C193.103 11.0957 192.636 11.2812 192.252 11.6523C191.875 12.0173 191.656 12.4595 191.594 12.979H195.602C195.589 12.4533 195.397 12.008 195.026 11.6431C194.655 11.2782 194.198 11.0957 193.653 11.0957ZM202.216 13.7954L199.192 9.06396H202.151L203.673 11.7451L205.269 9.06396H208.256L205.176 13.814L208.599 19H205.575L203.617 15.957L201.836 19H198.849L202.216 13.7954ZM211.447 14.918C211.491 15.2148 211.583 15.487 211.726 15.7344C211.874 15.9818 212.06 16.1951 212.282 16.3745C212.505 16.5477 212.762 16.6838 213.052 16.7827C213.343 16.8817 213.652 16.9312 213.98 16.9312C214.357 16.9312 214.765 16.86 215.205 16.7178C215.644 16.5693 216.046 16.356 216.411 16.0776L217.645 17.8774C217.181 18.2671 216.612 18.5825 215.938 18.8237C215.263 19.0649 214.546 19.1855 213.785 19.1855C213.099 19.1855 212.452 19.068 211.846 18.833C211.24 18.598 210.708 18.2578 210.25 17.8125C209.799 17.3672 209.44 16.826 209.174 16.189C208.915 15.5519 208.785 14.8345 208.785 14.0366C208.785 13.3068 208.899 12.6265 209.128 11.9956C209.363 11.3647 209.688 10.8174 210.102 10.3535C210.523 9.88965 211.024 9.52783 211.605 9.26807C212.186 9.00212 212.83 8.86914 213.535 8.86914C214.19 8.86914 214.799 8.98975 215.362 9.23096C215.925 9.46598 216.414 9.79997 216.828 10.2329C217.243 10.6597 217.567 11.173 217.802 11.7729C218.037 12.3729 218.155 13.0347 218.155 13.7583V14.918H211.447ZM213.525 11.0957C212.975 11.0957 212.508 11.2812 212.125 11.6523C211.747 12.0173 211.528 12.4595 211.466 12.979H215.474C215.461 12.4533 215.27 12.008 214.898 11.6431C214.527 11.2782 214.07 11.0957 213.525 11.0957ZM228.165 19H225.595V13.2202C225.595 12.8677 225.555 12.5708 225.475 12.3296C225.4 12.0822 225.295 11.8843 225.159 11.7358C225.023 11.5812 224.865 11.473 224.686 11.4111C224.507 11.3431 224.312 11.3091 224.102 11.3091C223.854 11.3091 223.622 11.3524 223.406 11.439C223.195 11.5256 223.01 11.6616 222.849 11.8472C222.694 12.0327 222.571 12.2708 222.478 12.5615C222.391 12.846 222.348 13.1862 222.348 13.582V19H219.788V9.06396H222.348V9.93604C222.676 9.57113 223.056 9.30208 223.489 9.12891C223.928 8.95573 224.398 8.86914 224.899 8.86914C225.413 8.86914 225.892 8.97428 226.337 9.18457C226.789 9.39486 227.163 9.74121 227.46 10.2236C227.633 9.97624 227.831 9.76595 228.054 9.59277C228.283 9.4196 228.527 9.28044 228.787 9.17529C229.046 9.07015 229.315 8.99284 229.594 8.94336C229.878 8.89388 230.169 8.86914 230.466 8.86914C231.022 8.86914 231.517 8.96191 231.95 9.14746C232.389 9.32682 232.76 9.57113 233.063 9.88037C233.367 10.1896 233.598 10.5452 233.759 10.9473C233.92 11.3493 234 11.7729 234 12.2183V19H231.412V13.2202C231.412 12.8677 231.372 12.5708 231.292 12.3296C231.217 12.0822 231.112 11.8843 230.976 11.7358C230.84 11.5812 230.679 11.473 230.494 11.4111C230.314 11.3431 230.119 11.3091 229.909 11.3091C229.662 11.3091 229.433 11.3524 229.223 11.439C229.012 11.5256 228.827 11.6616 228.666 11.8472C228.511 12.0327 228.388 12.2708 228.295 12.5615C228.208 12.846 228.165 13.1862 228.165 13.582V19ZM238.695 22.1357H236.134V9.06396H238.695V9.91748C238.973 9.62679 239.316 9.37939 239.725 9.17529C240.133 8.97119 240.628 8.86914 241.209 8.86914C241.865 8.86914 242.458 9.00212 242.99 9.26807C243.528 9.52783 243.989 9.88965 244.373 10.3535C244.756 10.8112 245.053 11.3555 245.263 11.9863C245.473 12.6172 245.579 13.3006 245.579 14.0366C245.579 14.7726 245.47 15.4561 245.254 16.0869C245.037 16.7178 244.734 17.262 244.345 17.7197C243.955 18.1774 243.488 18.5361 242.944 18.7959C242.4 19.0557 241.8 19.1855 241.144 19.1855C240.853 19.1855 240.587 19.1577 240.346 19.1021C240.111 19.0526 239.895 18.9814 239.697 18.8887C239.499 18.7959 239.316 18.6877 239.149 18.564C238.982 18.4341 238.831 18.2949 238.695 18.1465V22.1357ZM238.621 14.9551C238.621 15.221 238.667 15.4684 238.76 15.6973C238.859 15.9199 238.998 16.1147 239.177 16.2817C239.357 16.4487 239.57 16.5786 239.817 16.6714C240.071 16.7642 240.355 16.8105 240.671 16.8105C241.036 16.8105 241.357 16.7456 241.636 16.6157C241.92 16.4797 242.158 16.291 242.35 16.0498C242.542 15.8086 242.687 15.5241 242.786 15.1963C242.885 14.8623 242.935 14.4974 242.935 14.1016V13.981C242.935 13.5851 242.885 13.2202 242.786 12.8862C242.687 12.5522 242.542 12.2646 242.35 12.0234C242.158 11.776 241.92 11.5843 241.636 11.4482C241.357 11.3122 241.036 11.2441 240.671 11.2441C240.355 11.2441 240.071 11.2905 239.817 11.3833C239.57 11.4761 239.357 11.606 239.177 11.7729C238.998 11.9399 238.859 12.1379 238.76 12.3667C238.667 12.5955 238.621 12.8429 238.621 13.1089V14.9551ZM250.95 16.0405C250.95 16.158 250.966 16.2694 250.997 16.3745C251.028 16.4797 251.08 16.5724 251.154 16.6528C251.235 16.7271 251.346 16.7858 251.488 16.8291C251.631 16.8724 251.813 16.894 252.036 16.894C252.128 16.894 252.234 16.891 252.351 16.8848C252.469 16.8724 252.586 16.86 252.704 16.8477C252.821 16.8353 252.929 16.8198 253.028 16.8013C253.133 16.7827 253.22 16.7673 253.288 16.7549L253.52 19.0186C253.279 19.0495 253.028 19.0773 252.769 19.1021C252.546 19.1268 252.299 19.1453 252.026 19.1577C251.754 19.1763 251.479 19.1855 251.201 19.1855C250.316 19.1855 249.627 18.9845 249.132 18.5825C248.637 18.1805 248.39 17.5404 248.39 16.6621V11.2905H246.599V9.06396H248.39V6.25293L250.95 5.56641V9.06396H253.557V11.2905H250.95V16.0405Z" fill="white"/>
<rect width="138" height="27" fill="#001CB8"/>
<path d="M15.0156 14.7046L11.082 9.7876V19H8.3916V5.69629H11.1191L15.0527 10.8916L19.1069 5.69629H21.7231V19H19.0234V9.7876L15.1084 14.7046H15.0156ZM26.7886 19H24.228V9.06396H26.7886V19ZM23.959 6.45703C23.959 6.24674 23.9992 6.04883 24.0796 5.86328C24.16 5.67155 24.2682 5.50765 24.4043 5.37158C24.5465 5.22933 24.7104 5.118 24.896 5.0376C25.0815 4.95719 25.2826 4.91699 25.499 4.91699C25.7093 4.91699 25.9072 4.95719 26.0928 5.0376C26.2845 5.118 26.4484 5.22933 26.5845 5.37158C26.7267 5.50765 26.8381 5.67155 26.9185 5.86328C26.9989 6.04883 27.0391 6.24674 27.0391 6.45703C27.0391 6.6735 26.9989 6.87451 26.9185 7.06006C26.8381 7.24561 26.7267 7.40951 26.5845 7.55176C26.4484 7.68783 26.2845 7.79606 26.0928 7.87646C25.9072 7.95687 25.7093 7.99707 25.499 7.99707C25.2826 7.99707 25.0815 7.95687 24.896 7.87646C24.7104 7.79606 24.5465 7.68783 24.4043 7.55176C24.2682 7.40951 24.16 7.24561 24.0796 7.06006C23.9992 6.87451 23.959 6.6735 23.959 6.45703ZM35.0361 17.2373C34.8073 17.5156 34.4857 17.7383 34.0713 17.9053C33.6631 18.0661 33.2178 18.1465 32.7354 18.1465C32.0674 18.1465 31.4736 18.029 30.9541 17.7939C30.4346 17.5589 29.9954 17.2373 29.6367 16.8291C29.2842 16.4147 29.012 15.9261 28.8203 15.3633C28.6348 14.8005 28.542 14.182 28.542 13.5078C28.542 12.8522 28.6348 12.2399 28.8203 11.6709C29.012 11.0957 29.2842 10.604 29.6367 10.1958C29.9954 9.78141 30.4346 9.45671 30.9541 9.22168C31.4736 8.98665 32.0674 8.86914 32.7354 8.86914C33.2178 8.86914 33.6631 8.95264 34.0713 9.11963C34.4857 9.28662 34.8073 9.50928 35.0361 9.7876V9.06396H37.606V18.9072C37.606 19.5133 37.4915 20.0329 37.2627 20.4658C37.0339 20.9049 36.7184 21.2637 36.3164 21.542C35.9206 21.8203 35.4598 22.0213 34.9341 22.145C34.4084 22.2749 33.8486 22.3398 33.2549 22.3398C32.5312 22.3398 31.7767 22.2533 30.9912 22.0801C30.2057 21.9131 29.5285 21.7028 28.9595 21.4492L29.6831 19.3804C29.8563 19.4546 30.0697 19.535 30.3232 19.6216C30.5768 19.7144 30.849 19.7948 31.1396 19.8628C31.4303 19.9308 31.7334 19.9865 32.0488 20.0298C32.3704 20.0793 32.6828 20.104 32.9858 20.104C33.2518 20.104 33.5085 20.0762 33.7559 20.0205C34.0033 19.971 34.2197 19.8844 34.4053 19.7607C34.597 19.6432 34.7485 19.4855 34.8599 19.2876C34.9774 19.0959 35.0361 18.8485 35.0361 18.5454V17.2373ZM31.1768 13.5449C31.1768 13.8727 31.2108 14.182 31.2788 14.4727C31.353 14.7572 31.4674 15.0015 31.6221 15.2056C31.7829 15.4035 31.987 15.5612 32.2344 15.6787C32.4818 15.79 32.7817 15.8457 33.1343 15.8457C33.8332 15.8457 34.3311 15.6261 34.6279 15.187C34.9248 14.7417 35.0732 14.1943 35.0732 13.5449V13.4707C35.0732 13.1429 35.0392 12.8368 34.9712 12.5522C34.9032 12.2677 34.7918 12.0234 34.6372 11.8193C34.4826 11.6152 34.2816 11.4575 34.0342 11.3462C33.793 11.2287 33.493 11.1699 33.1343 11.1699C32.4416 11.1699 31.9406 11.3895 31.6313 11.8286C31.3283 12.2677 31.1768 12.8151 31.1768 13.4707V13.5449ZM45.3989 11.5503H45.1299C44.765 11.5503 44.4155 11.5874 44.0815 11.6616C43.7537 11.7358 43.4631 11.8719 43.2095 12.0698C42.9559 12.2616 42.7518 12.5275 42.5972 12.8677C42.4487 13.2078 42.3745 13.6439 42.3745 14.1758V19H39.814V9.06396H42.3745V10.1865C42.4797 10.0195 42.6157 9.85872 42.7827 9.7041C42.9497 9.54948 43.1445 9.41341 43.3672 9.2959C43.5898 9.1722 43.8403 9.07324 44.1187 8.99902C44.397 8.9248 44.6969 8.8877 45.0186 8.8877H45.3989V11.5503ZM50.2046 14.9644C49.8892 15.0138 49.6356 15.1252 49.4438 15.2983C49.2521 15.4653 49.1562 15.6942 49.1562 15.9849C49.1562 16.3065 49.2738 16.5848 49.5088 16.8198C49.7438 17.0487 50.0902 17.1631 50.5479 17.1631C51.0303 17.1631 51.4106 17.0239 51.689 16.7456C51.9673 16.4673 52.1064 16.0993 52.1064 15.6416V14.6396L50.2046 14.9644ZM52.5239 18.063C52.4188 18.1805 52.2889 18.3073 52.1343 18.4434C51.9858 18.5732 51.8065 18.6938 51.5962 18.8052C51.3921 18.9103 51.1509 19 50.8726 19.0742C50.5942 19.1484 50.2819 19.1855 49.9355 19.1855C49.4408 19.1855 48.9831 19.1082 48.5625 18.9536C48.1481 18.7928 47.7832 18.5701 47.4678 18.2856C47.1523 18.0011 46.9049 17.6733 46.7256 17.3022C46.5462 16.925 46.4565 16.5168 46.4565 16.0776C46.4565 15.2798 46.7039 14.6273 47.1987 14.1201C47.6935 13.613 48.377 13.2944 49.249 13.1646L52.1064 12.7471V12.5615C52.1064 12.1162 51.9704 11.7637 51.6982 11.5039C51.4261 11.2441 50.9839 11.1143 50.3716 11.1143C50.118 11.1143 49.8613 11.1452 49.6016 11.207C49.3418 11.2627 49.0913 11.3276 48.8501 11.4019C48.6151 11.4761 48.3955 11.5627 48.1914 11.6616C47.9873 11.7544 47.8079 11.8379 47.6533 11.9121L46.6514 9.95459C47.2204 9.63916 47.8512 9.37939 48.5439 9.17529C49.2428 8.97119 49.9665 8.86914 50.7148 8.86914C51.1725 8.86914 51.6333 8.91862 52.0972 9.01758C52.5672 9.11035 52.9909 9.28353 53.3682 9.53711C53.7516 9.79069 54.064 10.137 54.3052 10.5762C54.5464 11.0091 54.667 11.5627 54.667 12.2368V16.3188C54.667 16.6095 54.7412 16.826 54.8896 16.9683C55.0443 17.1043 55.2546 17.2311 55.5205 17.3486L54.3608 19.1855C53.8908 19.1361 53.5135 19.0155 53.229 18.8237C52.9445 18.6258 52.7095 18.3722 52.5239 18.063ZM60.085 16.0405C60.085 16.158 60.1004 16.2694 60.1313 16.3745C60.1623 16.4797 60.2148 16.5724 60.2891 16.6528C60.3695 16.7271 60.4808 16.7858 60.623 16.8291C60.7653 16.8724 60.9478 16.894 61.1704 16.894C61.2632 16.894 61.3683 16.891 61.4858 16.8848C61.6034 16.8724 61.7209 16.86 61.8384 16.8477C61.9559 16.8353 62.0641 16.8198 62.1631 16.8013C62.2682 16.7827 62.3548 16.7673 62.4229 16.7549L62.6548 19.0186C62.4136 19.0495 62.1631 19.0773 61.9033 19.1021C61.6807 19.1268 61.4333 19.1453 61.1611 19.1577C60.889 19.1763 60.6138 19.1855 60.3354 19.1855C59.451 19.1855 58.7614 18.9845 58.2666 18.5825C57.7718 18.1805 57.5244 17.5404 57.5244 16.6621V11.2905H55.7339V9.06396H57.5244V6.25293L60.085 5.56641V9.06396H62.6919V11.2905H60.085V16.0405ZM66.4492 14.918C66.4925 15.2148 66.5853 15.487 66.7275 15.7344C66.876 15.9818 67.0615 16.1951 67.2842 16.3745C67.5068 16.5477 67.7635 16.6838 68.0542 16.7827C68.3449 16.8817 68.6541 16.9312 68.9819 16.9312C69.3592 16.9312 69.7674 16.86 70.2065 16.7178C70.6457 16.5693 71.0477 16.356 71.4126 16.0776L72.6465 17.8774C72.1826 18.2671 71.6136 18.5825 70.9395 18.8237C70.2653 19.0649 69.5479 19.1855 68.7871 19.1855C68.1006 19.1855 67.4543 19.068 66.8481 18.833C66.242 18.598 65.7101 18.2578 65.2524 17.8125C64.8009 17.3672 64.4422 16.826 64.1763 16.189C63.9165 15.5519 63.7866 14.8345 63.7866 14.0366C63.7866 13.3068 63.901 12.6265 64.1299 11.9956C64.3649 11.3647 64.6896 10.8174 65.104 10.3535C65.5246 9.88965 66.0256 9.52783 66.6069 9.26807C67.1883 9.00212 67.8315 8.86914 68.5366 8.86914C69.1922 8.86914 69.8014 8.98975 70.3643 9.23096C70.9271 9.46598 71.4157 9.79997 71.8301 10.2329C72.2445 10.6597 72.5692 11.173 72.8042 11.7729C73.0392 12.3729 73.1567 13.0347 73.1567 13.7583V14.918H66.4492ZM68.5273 11.0957C67.9769 11.0957 67.5099 11.2812 67.1265 11.6523C66.7492 12.0173 66.5296 12.4595 66.4678 12.979H70.4756C70.4632 12.4533 70.2715 12.008 69.9004 11.6431C69.5293 11.2782 69.0716 11.0957 68.5273 11.0957ZM81.1724 19V18.1465C81.0363 18.2949 80.8848 18.4341 80.7178 18.564C80.557 18.6877 80.3745 18.7959 80.1704 18.8887C79.9725 18.9814 79.7529 19.0526 79.5117 19.1021C79.2767 19.1577 79.0138 19.1855 78.7231 19.1855C78.0675 19.1855 77.4676 19.0557 76.9233 18.7959C76.3791 18.5361 75.9121 18.1774 75.5225 17.7197C75.1328 17.262 74.8298 16.7178 74.6133 16.0869C74.403 15.4561 74.2979 14.7726 74.2979 14.0366C74.2979 13.3006 74.403 12.6172 74.6133 11.9863C74.8236 11.3555 75.1174 10.8112 75.4946 10.3535C75.8781 9.88965 76.3389 9.52783 76.877 9.26807C77.415 9.00212 78.0119 8.86914 78.6675 8.86914C79.2489 8.86914 79.7406 8.97119 80.1426 9.17529C80.5508 9.37321 80.894 9.62061 81.1724 9.91748V5.69629H83.7329V19H81.1724ZM81.2466 13.1089C81.2466 12.8429 81.1971 12.5955 81.0981 12.3667C81.0054 12.1379 80.8693 11.9399 80.6899 11.7729C80.5106 11.606 80.2941 11.4761 80.0405 11.3833C79.7931 11.2905 79.5117 11.2441 79.1963 11.2441C78.8314 11.2441 78.5067 11.3122 78.2222 11.4482C77.9438 11.5843 77.7088 11.776 77.5171 12.0234C77.3254 12.2646 77.18 12.5522 77.0811 12.8862C76.9821 13.2202 76.9326 13.5851 76.9326 13.981V14.1016C76.9326 14.4974 76.9821 14.8623 77.0811 15.1963C77.18 15.5241 77.3254 15.8086 77.5171 16.0498C77.7088 16.291 77.9438 16.4797 78.2222 16.6157C78.5067 16.7456 78.8314 16.8105 79.1963 16.8105C79.5117 16.8105 79.7931 16.7642 80.0405 16.6714C80.2941 16.5786 80.5106 16.4487 80.6899 16.2817C80.8693 16.1147 81.0054 15.9199 81.0981 15.6973C81.1971 15.4684 81.2466 15.221 81.2466 14.9551V13.1089ZM88.9932 12.3481C88.9932 11.3957 89.1354 10.505 89.4199 9.67627C89.7106 8.84131 90.125 8.11768 90.6631 7.50537C91.2012 6.88688 91.8537 6.40137 92.6206 6.04883C93.3875 5.6901 94.2503 5.51074 95.209 5.51074C95.9017 5.51074 96.5418 5.60042 97.1294 5.77979C97.7231 5.95915 98.255 6.21273 98.7251 6.54053C99.2013 6.86833 99.6095 7.26416 99.9497 7.72803C100.29 8.19189 100.559 8.71143 100.757 9.28662L98.1685 10.1494C98.0942 9.90202 97.9767 9.64844 97.8159 9.38867C97.6551 9.12272 97.451 8.8846 97.2036 8.67432C96.9562 8.45785 96.6655 8.28158 96.3315 8.14551C96.0037 8.00944 95.6357 7.94141 95.2275 7.94141C94.6152 7.94141 94.0895 8.0682 93.6504 8.32178C93.2174 8.56917 92.8618 8.90007 92.5835 9.31445C92.3052 9.72266 92.098 10.1896 91.9619 10.7153C91.832 11.2349 91.7671 11.7668 91.7671 12.311V12.3853C91.7671 12.9357 91.832 13.4738 91.9619 13.9995C92.098 14.519 92.3052 14.9829 92.5835 15.3911C92.8618 15.7993 93.2174 16.1302 93.6504 16.3838C94.0895 16.6312 94.6152 16.7549 95.2275 16.7549C95.6357 16.7549 96.0037 16.6868 96.3315 16.5508C96.6655 16.4147 96.9562 16.2415 97.2036 16.0312C97.451 15.8148 97.6551 15.5767 97.8159 15.3169C97.9767 15.0571 98.0942 14.8035 98.1685 14.5562L100.757 15.4097C100.559 15.9849 100.29 16.5044 99.9497 16.9683C99.6095 17.4321 99.2013 17.8311 98.7251 18.165C98.255 18.4928 97.7231 18.7464 97.1294 18.9258C96.5418 19.099 95.9017 19.1855 95.209 19.1855C94.2503 19.1855 93.3875 19.0093 92.6206 18.6567C91.8537 18.3042 91.2012 17.8187 90.6631 17.2002C90.125 16.5817 89.7106 15.8581 89.4199 15.0293C89.1354 14.2005 88.9932 13.3068 88.9932 12.3481ZM105.627 14.9644C105.312 15.0138 105.058 15.1252 104.867 15.2983C104.675 15.4653 104.579 15.6942 104.579 15.9849C104.579 16.3065 104.697 16.5848 104.932 16.8198C105.167 17.0487 105.513 17.1631 105.971 17.1631C106.453 17.1631 106.833 17.0239 107.112 16.7456C107.39 16.4673 107.529 16.0993 107.529 15.6416V14.6396L105.627 14.9644ZM107.947 18.063C107.842 18.1805 107.712 18.3073 107.557 18.4434C107.409 18.5732 107.229 18.6938 107.019 18.8052C106.815 18.9103 106.574 19 106.295 19.0742C106.017 19.1484 105.705 19.1855 105.358 19.1855C104.864 19.1855 104.406 19.1082 103.985 18.9536C103.571 18.7928 103.206 18.5701 102.891 18.2856C102.575 18.0011 102.328 17.6733 102.148 17.3022C101.969 16.925 101.879 16.5168 101.879 16.0776C101.879 15.2798 102.127 14.6273 102.622 14.1201C103.116 13.613 103.8 13.2944 104.672 13.1646L107.529 12.7471V12.5615C107.529 12.1162 107.393 11.7637 107.121 11.5039C106.849 11.2441 106.407 11.1143 105.794 11.1143C105.541 11.1143 105.284 11.1452 105.024 11.207C104.765 11.2627 104.514 11.3276 104.273 11.4019C104.038 11.4761 103.818 11.5627 103.614 11.6616C103.41 11.7544 103.231 11.8379 103.076 11.9121L102.074 9.95459C102.643 9.63916 103.274 9.37939 103.967 9.17529C104.666 8.97119 105.389 8.86914 106.138 8.86914C106.595 8.86914 107.056 8.91862 107.52 9.01758C107.99 9.11035 108.414 9.28353 108.791 9.53711C109.174 9.79069 109.487 10.137 109.728 10.5762C109.969 11.0091 110.09 11.5627 110.09 12.2368V16.3188C110.09 16.6095 110.164 16.826 110.312 16.9683C110.467 17.1043 110.677 17.2311 110.943 17.3486L109.784 19.1855C109.314 19.1361 108.936 19.0155 108.652 18.8237C108.367 18.6258 108.132 18.3722 107.947 18.063ZM112.938 15.8271C113.303 16.1549 113.739 16.4364 114.246 16.6714C114.753 16.9064 115.267 17.0239 115.786 17.0239C116.163 17.0239 116.46 16.9528 116.677 16.8105C116.893 16.6621 117.001 16.4735 117.001 16.2446C117.001 15.855 116.584 15.5519 115.749 15.3354L115.025 15.1406C114.667 15.054 114.305 14.9365 113.94 14.7881C113.575 14.6335 113.238 14.4325 112.929 14.1851C112.626 13.9377 112.378 13.6377 112.187 13.2852C112.001 12.9264 111.908 12.4873 111.908 11.9678C111.908 11.5534 111.998 11.1606 112.177 10.7896C112.363 10.4123 112.623 10.0814 112.957 9.79688C113.297 9.51237 113.708 9.28662 114.19 9.11963C114.673 8.95264 115.211 8.86914 115.805 8.86914C116.652 8.86914 117.407 9.00212 118.068 9.26807C118.736 9.53402 119.262 9.83398 119.646 10.168L118.31 11.875C117.994 11.6462 117.62 11.4513 117.187 11.2905C116.76 11.1235 116.33 11.04 115.897 11.04C115.495 11.04 115.183 11.1143 114.96 11.2627C114.738 11.4049 114.626 11.5781 114.626 11.7822C114.626 11.9987 114.722 12.175 114.914 12.311C115.112 12.4409 115.396 12.5553 115.768 12.6543L116.844 12.9604C117.87 13.2511 118.606 13.6439 119.052 14.1387C119.497 14.6335 119.72 15.2581 119.72 16.0127C119.72 16.4333 119.633 16.8353 119.46 17.2188C119.287 17.596 119.033 17.9331 118.699 18.23C118.365 18.5269 117.951 18.7619 117.456 18.9351C116.961 19.1021 116.398 19.1855 115.768 19.1855C115.285 19.1855 114.831 19.1423 114.404 19.0557C113.983 18.9691 113.59 18.8516 113.226 18.7031C112.867 18.5485 112.542 18.3753 112.251 18.1836C111.961 17.9919 111.713 17.8001 111.509 17.6084L112.938 15.8271ZM123.523 14.918C123.567 15.2148 123.66 15.487 123.802 15.7344C123.95 15.9818 124.136 16.1951 124.358 16.3745C124.581 16.5477 124.838 16.6838 125.128 16.7827C125.419 16.8817 125.728 16.9312 126.056 16.9312C126.433 16.9312 126.842 16.86 127.281 16.7178C127.72 16.5693 128.122 16.356 128.487 16.0776L129.721 17.8774C129.257 18.2671 128.688 18.5825 128.014 18.8237C127.34 19.0649 126.622 19.1855 125.861 19.1855C125.175 19.1855 124.528 19.068 123.922 18.833C123.316 18.598 122.784 18.2578 122.327 17.8125C121.875 17.3672 121.516 16.826 121.25 16.189C120.991 15.5519 120.861 14.8345 120.861 14.0366C120.861 13.3068 120.975 12.6265 121.204 11.9956C121.439 11.3647 121.764 10.8174 122.178 10.3535C122.599 9.88965 123.1 9.52783 123.681 9.26807C124.263 9.00212 124.906 8.86914 125.611 8.86914C126.266 8.86914 126.876 8.98975 127.438 9.23096C128.001 9.46598 128.49 9.79997 128.904 10.2329C129.319 10.6597 129.643 11.173 129.878 11.7729C130.113 12.3729 130.231 13.0347 130.231 13.7583V14.918H123.523ZM125.602 11.0957C125.051 11.0957 124.584 11.2812 124.201 11.6523C123.823 12.0173 123.604 12.4595 123.542 12.979H127.55C127.537 12.4533 127.346 12.008 126.975 11.6431C126.604 11.2782 126.146 11.0957 125.602 11.0957Z" fill="white"/>
<rect width="8" height="27" transform="matrix(1 0 0 -1 138 27)" fill="white"/>
<rect width="8" height="27" transform="matrix(1 0 0 -1 262 27)" fill="white"/>
<rect width="256" height="27" transform="translate(270)" fill="#1D70B8"/>
<path d="M285.721 16.5322H280.794L280.043 19H277.186L281.537 5.69629H285.071L289.487 19H286.481L285.721 16.5322ZM281.518 14.1572H284.997L283.271 8.53516H283.234L281.518 14.1572ZM293.319 22.1357H290.758V9.06396H293.319V9.91748C293.597 9.62679 293.94 9.37939 294.349 9.17529C294.757 8.97119 295.252 8.86914 295.833 8.86914C296.489 8.86914 297.082 9.00212 297.614 9.26807C298.152 9.52783 298.613 9.88965 298.997 10.3535C299.38 10.8112 299.677 11.3555 299.887 11.9863C300.097 12.6172 300.203 13.3006 300.203 14.0366C300.203 14.7726 300.094 15.4561 299.878 16.0869C299.661 16.7178 299.358 17.262 298.969 17.7197C298.579 18.1774 298.112 18.5361 297.568 18.7959C297.024 19.0557 296.424 19.1855 295.768 19.1855C295.477 19.1855 295.211 19.1577 294.97 19.1021C294.735 19.0526 294.519 18.9814 294.321 18.8887C294.123 18.7959 293.94 18.6877 293.773 18.564C293.606 18.4341 293.455 18.2949 293.319 18.1465V22.1357ZM293.245 14.9551C293.245 15.221 293.291 15.4684 293.384 15.6973C293.483 15.9199 293.622 16.1147 293.801 16.2817C293.981 16.4487 294.194 16.5786 294.441 16.6714C294.695 16.7642 294.979 16.8105 295.295 16.8105C295.66 16.8105 295.981 16.7456 296.26 16.6157C296.544 16.4797 296.782 16.291 296.974 16.0498C297.166 15.8086 297.311 15.5241 297.41 15.1963C297.509 14.8623 297.559 14.4974 297.559 14.1016V13.981C297.559 13.5851 297.509 13.2202 297.41 12.8862C297.311 12.5522 297.166 12.2646 296.974 12.0234C296.782 11.776 296.544 11.5843 296.26 11.4482C295.981 11.3122 295.66 11.2441 295.295 11.2441C294.979 11.2441 294.695 11.2905 294.441 11.3833C294.194 11.4761 293.981 11.606 293.801 11.7729C293.622 11.9399 293.483 12.1379 293.384 12.3667C293.291 12.5955 293.245 12.8429 293.245 13.1089V14.9551ZM304.47 22.1357H301.91V9.06396H304.47V9.91748C304.749 9.62679 305.092 9.37939 305.5 9.17529C305.908 8.97119 306.403 8.86914 306.984 8.86914C307.64 8.86914 308.234 9.00212 308.766 9.26807C309.304 9.52783 309.764 9.88965 310.148 10.3535C310.531 10.8112 310.828 11.3555 311.039 11.9863C311.249 12.6172 311.354 13.3006 311.354 14.0366C311.354 14.7726 311.246 15.4561 311.029 16.0869C310.813 16.7178 310.51 17.262 310.12 17.7197C309.73 18.1774 309.264 18.5361 308.719 18.7959C308.175 19.0557 307.575 19.1855 306.919 19.1855C306.629 19.1855 306.363 19.1577 306.122 19.1021C305.887 19.0526 305.67 18.9814 305.472 18.8887C305.274 18.7959 305.092 18.6877 304.925 18.564C304.758 18.4341 304.606 18.2949 304.47 18.1465V22.1357ZM304.396 14.9551C304.396 15.221 304.442 15.4684 304.535 15.6973C304.634 15.9199 304.773 16.1147 304.953 16.2817C305.132 16.4487 305.345 16.5786 305.593 16.6714C305.846 16.7642 306.131 16.8105 306.446 16.8105C306.811 16.8105 307.133 16.7456 307.411 16.6157C307.696 16.4797 307.934 16.291 308.125 16.0498C308.317 15.8086 308.463 15.5241 308.562 15.1963C308.66 14.8623 308.71 14.4974 308.71 14.1016V13.981C308.71 13.5851 308.66 13.2202 308.562 12.8862C308.463 12.5522 308.317 12.2646 308.125 12.0234C307.934 11.776 307.696 11.5843 307.411 11.4482C307.133 11.3122 306.811 11.2441 306.446 11.2441C306.131 11.2441 305.846 11.2905 305.593 11.3833C305.345 11.4761 305.132 11.606 304.953 11.7729C304.773 11.9399 304.634 12.1379 304.535 12.3667C304.442 12.5955 304.396 12.8429 304.396 13.1089V14.9551ZM315.204 14.918C315.247 15.2148 315.34 15.487 315.482 15.7344C315.631 15.9818 315.816 16.1951 316.039 16.3745C316.262 16.5477 316.518 16.6838 316.809 16.7827C317.1 16.8817 317.409 16.9312 317.737 16.9312C318.114 16.9312 318.522 16.86 318.961 16.7178C319.401 16.5693 319.803 16.356 320.167 16.0776L321.401 17.8774C320.938 18.2671 320.368 18.5825 319.694 18.8237C319.02 19.0649 318.303 19.1855 317.542 19.1855C316.855 19.1855 316.209 19.068 315.603 18.833C314.997 18.598 314.465 18.2578 314.007 17.8125C313.556 17.3672 313.197 16.826 312.931 16.189C312.671 15.5519 312.542 14.8345 312.542 14.0366C312.542 13.3068 312.656 12.6265 312.885 11.9956C313.12 11.3647 313.444 10.8174 313.859 10.3535C314.279 9.88965 314.78 9.52783 315.362 9.26807C315.943 9.00212 316.586 8.86914 317.292 8.86914C317.947 8.86914 318.556 8.98975 319.119 9.23096C319.682 9.46598 320.171 9.79997 320.585 10.2329C320.999 10.6597 321.324 11.173 321.559 11.7729C321.794 12.3729 321.912 13.0347 321.912 13.7583V14.918H315.204ZM317.282 11.0957C316.732 11.0957 316.265 11.2812 315.881 11.6523C315.504 12.0173 315.285 12.4595 315.223 12.979H319.23C319.218 12.4533 319.026 12.008 318.655 11.6431C318.284 11.2782 317.826 11.0957 317.282 11.0957ZM323.507 5.69629H326.068V16.3003C326.068 16.5106 326.127 16.6714 326.244 16.7827C326.368 16.894 326.563 16.9497 326.829 16.9497C326.952 16.9497 327.057 16.9435 327.144 16.9312C327.237 16.9126 327.354 16.8879 327.497 16.8569L327.701 19.0371C327.528 19.0618 327.342 19.0866 327.144 19.1113C326.977 19.1299 326.782 19.1453 326.56 19.1577C326.343 19.1763 326.117 19.1855 325.882 19.1855C325.517 19.1855 325.19 19.1392 324.899 19.0464C324.608 18.9536 324.358 18.8175 324.147 18.6382C323.943 18.4526 323.786 18.2238 323.674 17.9517C323.563 17.6795 323.507 17.3641 323.507 17.0054V5.69629ZM329.074 5.69629H331.634V16.3003C331.634 16.5106 331.693 16.6714 331.811 16.7827C331.934 16.894 332.129 16.9497 332.395 16.9497C332.519 16.9497 332.624 16.9435 332.71 16.9312C332.803 16.9126 332.921 16.8879 333.063 16.8569L333.267 19.0371C333.094 19.0618 332.908 19.0866 332.71 19.1113C332.543 19.1299 332.349 19.1453 332.126 19.1577C331.91 19.1763 331.684 19.1855 331.449 19.1855C331.084 19.1855 330.756 19.1392 330.465 19.0464C330.175 18.9536 329.924 18.8175 329.714 18.6382C329.51 18.4526 329.352 18.2238 329.241 17.9517C329.129 17.6795 329.074 17.3641 329.074 17.0054V5.69629ZM337.887 14.9644C337.572 15.0138 337.318 15.1252 337.126 15.2983C336.935 15.4653 336.839 15.6942 336.839 15.9849C336.839 16.3065 336.956 16.5848 337.191 16.8198C337.426 17.0487 337.773 17.1631 338.23 17.1631C338.713 17.1631 339.093 17.0239 339.372 16.7456C339.65 16.4673 339.789 16.0993 339.789 15.6416V14.6396L337.887 14.9644ZM340.207 18.063C340.101 18.1805 339.972 18.3073 339.817 18.4434C339.668 18.5732 339.489 18.6938 339.279 18.8052C339.075 18.9103 338.833 19 338.555 19.0742C338.277 19.1484 337.965 19.1855 337.618 19.1855C337.123 19.1855 336.666 19.1082 336.245 18.9536C335.831 18.7928 335.466 18.5701 335.15 18.2856C334.835 18.0011 334.588 17.6733 334.408 17.3022C334.229 16.925 334.139 16.5168 334.139 16.0776C334.139 15.2798 334.387 14.6273 334.881 14.1201C335.376 13.613 336.06 13.2944 336.932 13.1646L339.789 12.7471V12.5615C339.789 12.1162 339.653 11.7637 339.381 11.5039C339.109 11.2441 338.667 11.1143 338.054 11.1143C337.801 11.1143 337.544 11.1452 337.284 11.207C337.024 11.2627 336.774 11.3276 336.533 11.4019C336.298 11.4761 336.078 11.5627 335.874 11.6616C335.67 11.7544 335.491 11.8379 335.336 11.9121L334.334 9.95459C334.903 9.63916 335.534 9.37939 336.227 9.17529C336.925 8.97119 337.649 8.86914 338.397 8.86914C338.855 8.86914 339.316 8.91862 339.78 9.01758C340.25 9.11035 340.674 9.28353 341.051 9.53711C341.434 9.79069 341.747 10.137 341.988 10.5762C342.229 11.0091 342.35 11.5627 342.35 12.2368V16.3188C342.35 16.6095 342.424 16.826 342.572 16.9683C342.727 17.1043 342.937 17.2311 343.203 17.3486L342.043 19.1855C341.573 19.1361 341.196 19.0155 340.912 18.8237C340.627 18.6258 340.392 18.3722 340.207 18.063ZM344.493 9.06396H347.053V9.91748C347.189 9.78141 347.341 9.65153 347.508 9.52783C347.681 9.39795 347.87 9.28662 348.074 9.19385C348.278 9.09489 348.504 9.01758 348.751 8.96191C349.005 8.90007 349.283 8.86914 349.586 8.86914C350.124 8.86914 350.606 8.95882 351.033 9.13818C351.46 9.31136 351.819 9.55257 352.109 9.86182C352.406 10.1711 352.632 10.5329 352.787 10.9473C352.941 11.3617 353.019 11.8101 353.019 12.2925V19H350.458V13.2202C350.458 12.8677 350.418 12.5708 350.337 12.3296C350.257 12.0822 350.146 11.8843 350.003 11.7358C349.867 11.5812 349.703 11.4699 349.512 11.4019C349.326 11.3276 349.122 11.2905 348.899 11.2905C348.64 11.2905 348.395 11.3369 348.167 11.4297C347.944 11.5225 347.749 11.6647 347.582 11.8564C347.415 12.042 347.285 12.277 347.192 12.5615C347.1 12.846 347.053 13.18 347.053 13.5635V19H344.493V9.06396ZM358.826 16.0405C358.826 16.158 358.842 16.2694 358.873 16.3745C358.903 16.4797 358.956 16.5724 359.03 16.6528C359.111 16.7271 359.222 16.7858 359.364 16.8291C359.507 16.8724 359.689 16.894 359.912 16.894C360.004 16.894 360.11 16.891 360.227 16.8848C360.345 16.8724 360.462 16.86 360.58 16.8477C360.697 16.8353 360.805 16.8198 360.904 16.8013C361.009 16.7827 361.096 16.7673 361.164 16.7549L361.396 19.0186C361.155 19.0495 360.904 19.0773 360.645 19.1021C360.422 19.1268 360.174 19.1453 359.902 19.1577C359.63 19.1763 359.355 19.1855 359.077 19.1855C358.192 19.1855 357.503 18.9845 357.008 18.5825C356.513 18.1805 356.266 17.5404 356.266 16.6621V11.2905H354.475V9.06396H356.266V6.25293L358.826 5.56641V9.06396H361.433V11.2905H358.826V16.0405ZM369.041 19H366.48V9.06396H369.041V19ZM366.211 6.45703C366.211 6.24674 366.251 6.04883 366.332 5.86328C366.412 5.67155 366.52 5.50765 366.656 5.37158C366.799 5.22933 366.962 5.118 367.148 5.0376C367.333 4.95719 367.535 4.91699 367.751 4.91699C367.961 4.91699 368.159 4.95719 368.345 5.0376C368.536 5.118 368.7 5.22933 368.836 5.37158C368.979 5.50765 369.09 5.67155 369.17 5.86328C369.251 6.04883 369.291 6.24674 369.291 6.45703C369.291 6.6735 369.251 6.87451 369.17 7.06006C369.09 7.24561 368.979 7.40951 368.836 7.55176C368.7 7.68783 368.536 7.79606 368.345 7.87646C368.159 7.95687 367.961 7.99707 367.751 7.99707C367.535 7.99707 367.333 7.95687 367.148 7.87646C366.962 7.79606 366.799 7.68783 366.656 7.55176C366.52 7.40951 366.412 7.24561 366.332 7.06006C366.251 6.87451 366.211 6.6735 366.211 6.45703ZM371.249 9.06396H373.809V9.91748C373.945 9.78141 374.097 9.65153 374.264 9.52783C374.437 9.39795 374.625 9.28662 374.83 9.19385C375.034 9.09489 375.259 9.01758 375.507 8.96191C375.76 8.90007 376.039 8.86914 376.342 8.86914C376.88 8.86914 377.362 8.95882 377.789 9.13818C378.216 9.31136 378.575 9.55257 378.865 9.86182C379.162 10.1711 379.388 10.5329 379.542 10.9473C379.697 11.3617 379.774 11.8101 379.774 12.2925V19H377.214V13.2202C377.214 12.8677 377.174 12.5708 377.093 12.3296C377.013 12.0822 376.902 11.8843 376.759 11.7358C376.623 11.5812 376.459 11.4699 376.268 11.4019C376.082 11.3276 375.878 11.2905 375.655 11.2905C375.396 11.2905 375.151 11.3369 374.922 11.4297C374.7 11.5225 374.505 11.6647 374.338 11.8564C374.171 12.042 374.041 12.277 373.948 12.5615C373.855 12.846 373.809 13.18 373.809 13.5635V19H371.249V9.06396ZM387.911 22.1357H385.35V9.06396H387.911V9.91748C388.189 9.62679 388.532 9.37939 388.94 9.17529C389.349 8.97119 389.843 8.86914 390.425 8.86914C391.08 8.86914 391.674 9.00212 392.206 9.26807C392.744 9.52783 393.205 9.88965 393.588 10.3535C393.972 10.8112 394.269 11.3555 394.479 11.9863C394.689 12.6172 394.794 13.3006 394.794 14.0366C394.794 14.7726 394.686 15.4561 394.47 16.0869C394.253 16.7178 393.95 17.262 393.561 17.7197C393.171 18.1774 392.704 18.5361 392.16 18.7959C391.615 19.0557 391.015 19.1855 390.36 19.1855C390.069 19.1855 389.803 19.1577 389.562 19.1021C389.327 19.0526 389.111 18.9814 388.913 18.8887C388.715 18.7959 388.532 18.6877 388.365 18.564C388.198 18.4341 388.047 18.2949 387.911 18.1465V22.1357ZM387.836 14.9551C387.836 15.221 387.883 15.4684 387.976 15.6973C388.075 15.9199 388.214 16.1147 388.393 16.2817C388.572 16.4487 388.786 16.5786 389.033 16.6714C389.287 16.7642 389.571 16.8105 389.887 16.8105C390.252 16.8105 390.573 16.7456 390.852 16.6157C391.136 16.4797 391.374 16.291 391.566 16.0498C391.758 15.8086 391.903 15.5241 392.002 15.1963C392.101 14.8623 392.15 14.4974 392.15 14.1016V13.981C392.15 13.5851 392.101 13.2202 392.002 12.8862C391.903 12.5522 391.758 12.2646 391.566 12.0234C391.374 11.776 391.136 11.5843 390.852 11.4482C390.573 11.3122 390.252 11.2441 389.887 11.2441C389.571 11.2441 389.287 11.2905 389.033 11.3833C388.786 11.4761 388.572 11.606 388.393 11.7729C388.214 11.9399 388.075 12.1379 387.976 12.3667C387.883 12.5955 387.836 12.8429 387.836 13.1089V14.9551ZM398.645 14.918C398.688 15.2148 398.781 15.487 398.923 15.7344C399.071 15.9818 399.257 16.1951 399.479 16.3745C399.702 16.5477 399.959 16.6838 400.25 16.7827C400.54 16.8817 400.849 16.9312 401.177 16.9312C401.555 16.9312 401.963 16.86 402.402 16.7178C402.841 16.5693 403.243 16.356 403.608 16.0776L404.842 17.8774C404.378 18.2671 403.809 18.5825 403.135 18.8237C402.461 19.0649 401.743 19.1855 400.982 19.1855C400.296 19.1855 399.65 19.068 399.043 18.833C398.437 18.598 397.905 18.2578 397.448 17.8125C396.996 17.3672 396.638 16.826 396.372 16.189C396.112 15.5519 395.982 14.8345 395.982 14.0366C395.982 13.3068 396.096 12.6265 396.325 11.9956C396.56 11.3647 396.885 10.8174 397.299 10.3535C397.72 9.88965 398.221 9.52783 398.802 9.26807C399.384 9.00212 400.027 8.86914 400.732 8.86914C401.388 8.86914 401.997 8.98975 402.56 9.23096C403.122 9.46598 403.611 9.79997 404.025 10.2329C404.44 10.6597 404.764 11.173 405 11.7729C405.235 12.3729 405.352 13.0347 405.352 13.7583V14.918H398.645ZM400.723 11.0957C400.172 11.0957 399.705 11.2812 399.322 11.6523C398.944 12.0173 398.725 12.4595 398.663 12.979H402.671C402.659 12.4533 402.467 12.008 402.096 11.6431C401.725 11.2782 401.267 11.0957 400.723 11.0957ZM412.57 11.5503H412.301C411.936 11.5503 411.586 11.5874 411.252 11.6616C410.925 11.7358 410.634 11.8719 410.38 12.0698C410.127 12.2616 409.923 12.5275 409.768 12.8677C409.62 13.2078 409.545 13.6439 409.545 14.1758V19H406.985V9.06396H409.545V10.1865C409.651 10.0195 409.787 9.85872 409.954 9.7041C410.121 9.54948 410.315 9.41341 410.538 9.2959C410.761 9.1722 411.011 9.07324 411.29 8.99902C411.568 8.9248 411.868 8.8877 412.189 8.8877H412.57V11.5503ZM414.871 15.8271C415.236 16.1549 415.672 16.4364 416.179 16.6714C416.686 16.9064 417.199 17.0239 417.719 17.0239C418.096 17.0239 418.393 16.9528 418.609 16.8105C418.826 16.6621 418.934 16.4735 418.934 16.2446C418.934 15.855 418.517 15.5519 417.682 15.3354L416.958 15.1406C416.599 15.054 416.237 14.9365 415.873 14.7881C415.508 14.6335 415.171 14.4325 414.861 14.1851C414.558 13.9377 414.311 13.6377 414.119 13.2852C413.934 12.9264 413.841 12.4873 413.841 11.9678C413.841 11.5534 413.931 11.1606 414.11 10.7896C414.295 10.4123 414.555 10.0814 414.889 9.79688C415.229 9.51237 415.641 9.28662 416.123 9.11963C416.605 8.95264 417.144 8.86914 417.737 8.86914C418.585 8.86914 419.339 9.00212 420.001 9.26807C420.669 9.53402 421.195 9.83398 421.578 10.168L420.242 11.875C419.927 11.6462 419.553 11.4513 419.12 11.2905C418.693 11.1235 418.263 11.04 417.83 11.04C417.428 11.04 417.116 11.1143 416.893 11.2627C416.67 11.4049 416.559 11.5781 416.559 11.7822C416.559 11.9987 416.655 12.175 416.847 12.311C417.045 12.4409 417.329 12.5553 417.7 12.6543L418.776 12.9604C419.803 13.2511 420.539 13.6439 420.984 14.1387C421.43 14.6335 421.652 15.2581 421.652 16.0127C421.652 16.4333 421.566 16.8353 421.393 17.2188C421.219 17.596 420.966 17.9331 420.632 18.23C420.298 18.5269 419.883 18.7619 419.389 18.9351C418.894 19.1021 418.331 19.1855 417.7 19.1855C417.218 19.1855 416.763 19.1423 416.336 19.0557C415.916 18.9691 415.523 18.8516 415.158 18.7031C414.799 18.5485 414.475 18.3753 414.184 18.1836C413.893 17.9919 413.646 17.8001 413.442 17.6084L414.871 15.8271ZM427.683 8.86914C428.419 8.86914 429.087 9.00212 429.687 9.26807C430.286 9.52783 430.8 9.88965 431.227 10.3535C431.653 10.8174 431.981 11.3647 432.21 11.9956C432.445 12.6265 432.562 13.3068 432.562 14.0366C432.562 14.7726 432.445 15.4561 432.21 16.0869C431.975 16.7116 431.644 17.2528 431.217 17.7104C430.791 18.1681 430.277 18.5299 429.677 18.7959C429.077 19.0557 428.412 19.1855 427.683 19.1855C426.947 19.1855 426.279 19.0557 425.679 18.7959C425.079 18.5299 424.565 18.1681 424.139 17.7104C423.712 17.2528 423.381 16.7116 423.146 16.0869C422.911 15.4561 422.793 14.7726 422.793 14.0366C422.793 13.3068 422.908 12.6265 423.137 11.9956C423.372 11.3647 423.703 10.8174 424.129 10.3535C424.556 9.88965 425.069 9.52783 425.669 9.26807C426.276 9.00212 426.947 8.86914 427.683 8.86914ZM427.683 16.8105C428.048 16.8105 428.369 16.7425 428.647 16.6064C428.932 16.4704 429.17 16.2817 429.362 16.0405C429.554 15.7993 429.699 15.5117 429.798 15.1777C429.897 14.8376 429.946 14.4665 429.946 14.0645V13.9995C429.946 13.5975 429.897 13.2295 429.798 12.8955C429.699 12.5553 429.554 12.2646 429.362 12.0234C429.17 11.776 428.932 11.5843 428.647 11.4482C428.369 11.3122 428.048 11.2441 427.683 11.2441C427.318 11.2441 426.993 11.3122 426.708 11.4482C426.43 11.5843 426.195 11.776 426.003 12.0234C425.812 12.2646 425.666 12.5553 425.567 12.8955C425.468 13.2295 425.419 13.5975 425.419 13.9995V14.0645C425.419 14.4665 425.468 14.8376 425.567 15.1777C425.666 15.5117 425.812 15.7993 426.003 16.0405C426.195 16.2817 426.43 16.4704 426.708 16.6064C426.993 16.7425 427.318 16.8105 427.683 16.8105ZM434.26 9.06396H436.821V9.91748C436.957 9.78141 437.108 9.65153 437.275 9.52783C437.449 9.39795 437.637 9.28662 437.841 9.19385C438.045 9.09489 438.271 9.01758 438.519 8.96191C438.772 8.90007 439.05 8.86914 439.354 8.86914C439.892 8.86914 440.374 8.95882 440.801 9.13818C441.228 9.31136 441.586 9.55257 441.877 9.86182C442.174 10.1711 442.4 10.5329 442.554 10.9473C442.709 11.3617 442.786 11.8101 442.786 12.2925V19H440.226V13.2202C440.226 12.8677 440.185 12.5708 440.105 12.3296C440.025 12.0822 439.913 11.8843 439.771 11.7358C439.635 11.5812 439.471 11.4699 439.279 11.4019C439.094 11.3276 438.89 11.2905 438.667 11.2905C438.407 11.2905 438.163 11.3369 437.934 11.4297C437.711 11.5225 437.517 11.6647 437.35 11.8564C437.183 12.042 437.053 12.277 436.96 12.5615C436.867 12.846 436.821 13.18 436.821 13.5635V19H434.26V9.06396ZM447.638 11.9121H451.627V14.2129H447.638V11.9121ZM464.922 19H462.352V13.2202C462.352 12.8677 462.312 12.5708 462.231 12.3296C462.157 12.0822 462.052 11.8843 461.916 11.7358C461.78 11.5812 461.622 11.473 461.443 11.4111C461.264 11.3431 461.069 11.3091 460.858 11.3091C460.611 11.3091 460.379 11.3524 460.163 11.439C459.952 11.5256 459.767 11.6616 459.606 11.8472C459.451 12.0327 459.328 12.2708 459.235 12.5615C459.148 12.846 459.105 13.1862 459.105 13.582V19H456.544V9.06396H459.105V9.93604C459.433 9.57113 459.813 9.30208 460.246 9.12891C460.685 8.95573 461.155 8.86914 461.656 8.86914C462.17 8.86914 462.649 8.97428 463.094 9.18457C463.546 9.39486 463.92 9.74121 464.217 10.2236C464.39 9.97624 464.588 9.76595 464.811 9.59277C465.039 9.4196 465.284 9.28044 465.543 9.17529C465.803 9.07015 466.072 8.99284 466.351 8.94336C466.635 8.89388 466.926 8.86914 467.223 8.86914C467.779 8.86914 468.274 8.96191 468.707 9.14746C469.146 9.32682 469.517 9.57113 469.82 9.88037C470.123 10.1896 470.355 10.5452 470.516 10.9473C470.677 11.3493 470.757 11.7729 470.757 12.2183V19H468.169V13.2202C468.169 12.8677 468.129 12.5708 468.048 12.3296C467.974 12.0822 467.869 11.8843 467.733 11.7358C467.597 11.5812 467.436 11.473 467.25 11.4111C467.071 11.3431 466.876 11.3091 466.666 11.3091C466.419 11.3091 466.19 11.3524 465.979 11.439C465.769 11.5256 465.584 11.6616 465.423 11.8472C465.268 12.0327 465.145 12.2708 465.052 12.5615C464.965 12.846 464.922 13.1862 464.922 13.582V19ZM476.101 14.9644C475.786 15.0138 475.532 15.1252 475.34 15.2983C475.149 15.4653 475.053 15.6942 475.053 15.9849C475.053 16.3065 475.17 16.5848 475.405 16.8198C475.64 17.0487 475.987 17.1631 476.444 17.1631C476.927 17.1631 477.307 17.0239 477.585 16.7456C477.864 16.4673 478.003 16.0993 478.003 15.6416V14.6396L476.101 14.9644ZM478.42 18.063C478.315 18.1805 478.185 18.3073 478.031 18.4434C477.882 18.5732 477.703 18.6938 477.493 18.8052C477.289 18.9103 477.047 19 476.769 19.0742C476.491 19.1484 476.178 19.1855 475.832 19.1855C475.337 19.1855 474.88 19.1082 474.459 18.9536C474.045 18.7928 473.68 18.5701 473.364 18.2856C473.049 18.0011 472.801 17.6733 472.622 17.3022C472.443 16.925 472.353 16.5168 472.353 16.0776C472.353 15.2798 472.6 14.6273 473.095 14.1201C473.59 13.613 474.273 13.2944 475.146 13.1646L478.003 12.7471V12.5615C478.003 12.1162 477.867 11.7637 477.595 11.5039C477.323 11.2441 476.88 11.1143 476.268 11.1143C476.014 11.1143 475.758 11.1452 475.498 11.207C475.238 11.2627 474.988 11.3276 474.747 11.4019C474.512 11.4761 474.292 11.5627 474.088 11.6616C473.884 11.7544 473.704 11.8379 473.55 11.9121L472.548 9.95459C473.117 9.63916 473.748 9.37939 474.44 9.17529C475.139 8.97119 475.863 8.86914 476.611 8.86914C477.069 8.86914 477.53 8.91862 477.994 9.01758C478.464 9.11035 478.887 9.28353 479.265 9.53711C479.648 9.79069 479.96 10.137 480.202 10.5762C480.443 11.0091 480.563 11.5627 480.563 12.2368V16.3188C480.563 16.6095 480.638 16.826 480.786 16.9683C480.941 17.1043 481.151 17.2311 481.417 17.3486L480.257 19.1855C479.787 19.1361 479.41 19.0155 479.125 18.8237C478.841 18.6258 478.606 18.3722 478.42 18.063ZM482.707 9.06396H485.267V9.91748C485.403 9.78141 485.555 9.65153 485.722 9.52783C485.895 9.39795 486.083 9.28662 486.288 9.19385C486.492 9.09489 486.717 9.01758 486.965 8.96191C487.218 8.90007 487.497 8.86914 487.8 8.86914C488.338 8.86914 488.82 8.95882 489.247 9.13818C489.674 9.31136 490.033 9.55257 490.323 9.86182C490.62 10.1711 490.846 10.5329 491 10.9473C491.155 11.3617 491.232 11.8101 491.232 12.2925V19H488.672V13.2202C488.672 12.8677 488.632 12.5708 488.551 12.3296C488.471 12.0822 488.36 11.8843 488.217 11.7358C488.081 11.5812 487.917 11.4699 487.726 11.4019C487.54 11.3276 487.336 11.2905 487.113 11.2905C486.854 11.2905 486.609 11.3369 486.38 11.4297C486.158 11.5225 485.963 11.6647 485.796 11.8564C485.629 12.042 485.499 12.277 485.406 12.5615C485.313 12.846 485.267 13.18 485.267 13.5635V19H482.707V9.06396ZM501.827 19H499.267V18.1465C499.124 18.2826 498.97 18.4155 498.803 18.5454C498.636 18.6691 498.45 18.7804 498.246 18.8794C498.042 18.9722 497.813 19.0464 497.56 19.1021C497.312 19.1577 497.037 19.1855 496.734 19.1855C496.196 19.1855 495.713 19.099 495.287 18.9258C494.86 18.7464 494.498 18.5052 494.201 18.2021C493.91 17.8929 493.688 17.5311 493.533 17.1167C493.379 16.7023 493.301 16.2539 493.301 15.7715V9.06396H495.862V14.8345C495.862 15.187 495.899 15.487 495.973 15.7344C496.054 15.9818 496.162 16.1828 496.298 16.3374C496.44 16.4858 496.607 16.5972 496.799 16.6714C496.991 16.7394 497.198 16.7734 497.42 16.7734C497.68 16.7734 497.921 16.7271 498.144 16.6343C498.373 16.5415 498.571 16.4023 498.738 16.2168C498.905 16.0251 499.035 15.7869 499.127 15.5024C499.22 15.2179 499.267 14.884 499.267 14.5005V9.06396H501.827V19ZM507.254 14.9644C506.939 15.0138 506.685 15.1252 506.494 15.2983C506.302 15.4653 506.206 15.6942 506.206 15.9849C506.206 16.3065 506.324 16.5848 506.559 16.8198C506.794 17.0487 507.14 17.1631 507.598 17.1631C508.08 17.1631 508.46 17.0239 508.739 16.7456C509.017 16.4673 509.156 16.0993 509.156 15.6416V14.6396L507.254 14.9644ZM509.574 18.063C509.469 18.1805 509.339 18.3073 509.184 18.4434C509.036 18.5732 508.856 18.6938 508.646 18.8052C508.442 18.9103 508.201 19 507.922 19.0742C507.644 19.1484 507.332 19.1855 506.985 19.1855C506.491 19.1855 506.033 19.1082 505.612 18.9536C505.198 18.7928 504.833 18.5701 504.518 18.2856C504.202 18.0011 503.955 17.6733 503.775 17.3022C503.596 16.925 503.506 16.5168 503.506 16.0776C503.506 15.2798 503.754 14.6273 504.249 14.1201C504.743 13.613 505.427 13.2944 506.299 13.1646L509.156 12.7471V12.5615C509.156 12.1162 509.02 11.7637 508.748 11.5039C508.476 11.2441 508.034 11.1143 507.421 11.1143C507.168 11.1143 506.911 11.1452 506.651 11.207C506.392 11.2627 506.141 11.3276 505.9 11.4019C505.665 11.4761 505.445 11.5627 505.241 11.6616C505.037 11.7544 504.858 11.8379 504.703 11.9121L503.701 9.95459C504.27 9.63916 504.901 9.37939 505.594 9.17529C506.293 8.97119 507.016 8.86914 507.765 8.86914C508.222 8.86914 508.683 8.91862 509.147 9.01758C509.617 9.11035 510.041 9.28353 510.418 9.53711C510.801 9.79069 511.114 10.137 511.355 10.5762C511.596 11.0091 511.717 11.5627 511.717 12.2368V16.3188C511.717 16.6095 511.791 16.826 511.939 16.9683C512.094 17.1043 512.304 17.2311 512.57 17.3486L511.411 19.1855C510.941 19.1361 510.563 19.0155 510.279 18.8237C509.994 18.6258 509.759 18.3722 509.574 18.063ZM513.823 5.69629H516.383V16.3003C516.383 16.5106 516.442 16.6714 516.56 16.7827C516.683 16.894 516.878 16.9497 517.144 16.9497C517.268 16.9497 517.373 16.9435 517.459 16.9312C517.552 16.9126 517.67 16.8879 517.812 16.8569L518.016 19.0371C517.843 19.0618 517.657 19.0866 517.459 19.1113C517.292 19.1299 517.098 19.1453 516.875 19.1577C516.659 19.1763 516.433 19.1855 516.198 19.1855C515.833 19.1855 515.505 19.1392 515.214 19.0464C514.924 18.9536 514.673 18.8175 514.463 18.6382C514.259 18.4526 514.101 18.2238 513.99 17.9517C513.878 17.6795 513.823 17.3641 513.823 17.0054V5.69629Z" fill="white"/>
</svg>
