<svg width="695" height="27" viewBox="0 0 695 27" fill="none" xmlns="http://www.w3.org/2000/svg">
<rect width="135" height="27" fill="#001CB8"/>
<path d="M15.0156 14.7046L11.082 9.7876V19H8.3916V5.69629H11.1191L15.0527 10.8916L19.1069 5.69629H21.7231V19H19.0234V9.7876L15.1084 14.7046H15.0156ZM26.7886 19H24.228V9.06396H26.7886V19ZM23.959 6.45703C23.959 6.24674 23.9992 6.04883 24.0796 5.86328C24.16 5.67155 24.2682 5.50765 24.4043 5.37158C24.5465 5.22933 24.7104 5.118 24.896 5.0376C25.0815 4.95719 25.2826 4.91699 25.499 4.91699C25.7093 4.91699 25.9072 4.95719 26.0928 5.0376C26.2845 5.118 26.4484 5.22933 26.5845 5.37158C26.7267 5.50765 26.8381 5.67155 26.9185 5.86328C26.9989 6.04883 27.0391 6.24674 27.0391 6.45703C27.0391 6.6735 26.9989 6.87451 26.9185 7.06006C26.8381 7.24561 26.7267 7.40951 26.5845 7.55176C26.4484 7.68783 26.2845 7.79606 26.0928 7.87646C25.9072 7.95687 25.7093 7.99707 25.499 7.99707C25.2826 7.99707 25.0815 7.95687 24.896 7.87646C24.7104 7.79606 24.5465 7.68783 24.4043 7.55176C24.2682 7.40951 24.16 7.24561 24.0796 7.06006C23.9992 6.87451 23.959 6.6735 23.959 6.45703ZM35.0361 17.2373C34.8073 17.5156 34.4857 17.7383 34.0713 17.9053C33.6631 18.0661 33.2178 18.1465 32.7354 18.1465C32.0674 18.1465 31.4736 18.029 30.9541 17.7939C30.4346 17.5589 29.9954 17.2373 29.6367 16.8291C29.2842 16.4147 29.012 15.9261 28.8203 15.3633C28.6348 14.8005 28.542 14.182 28.542 13.5078C28.542 12.8522 28.6348 12.2399 28.8203 11.6709C29.012 11.0957 29.2842 10.604 29.6367 10.1958C29.9954 9.78141 30.4346 9.45671 30.9541 9.22168C31.4736 8.98665 32.0674 8.86914 32.7354 8.86914C33.2178 8.86914 33.6631 8.95264 34.0713 9.11963C34.4857 9.28662 34.8073 9.50928 35.0361 9.7876V9.06396H37.606V18.9072C37.606 19.5133 37.4915 20.0329 37.2627 20.4658C37.0339 20.9049 36.7184 21.2637 36.3164 21.542C35.9206 21.8203 35.4598 22.0213 34.9341 22.145C34.4084 22.2749 33.8486 22.3398 33.2549 22.3398C32.5312 22.3398 31.7767 22.2533 30.9912 22.0801C30.2057 21.9131 29.5285 21.7028 28.9595 21.4492L29.6831 19.3804C29.8563 19.4546 30.0697 19.535 30.3232 19.6216C30.5768 19.7144 30.849 19.7948 31.1396 19.8628C31.4303 19.9308 31.7334 19.9865 32.0488 20.0298C32.3704 20.0793 32.6828 20.104 32.9858 20.104C33.2518 20.104 33.5085 20.0762 33.7559 20.0205C34.0033 19.971 34.2197 19.8844 34.4053 19.7607C34.597 19.6432 34.7485 19.4855 34.8599 19.2876C34.9774 19.0959 35.0361 18.8485 35.0361 18.5454V17.2373ZM31.1768 13.5449C31.1768 13.8727 31.2108 14.182 31.2788 14.4727C31.353 14.7572 31.4674 15.0015 31.6221 15.2056C31.7829 15.4035 31.987 15.5612 32.2344 15.6787C32.4818 15.79 32.7817 15.8457 33.1343 15.8457C33.8332 15.8457 34.3311 15.6261 34.6279 15.187C34.9248 14.7417 35.0732 14.1943 35.0732 13.5449V13.4707C35.0732 13.1429 35.0392 12.8368 34.9712 12.5522C34.9032 12.2677 34.7918 12.0234 34.6372 11.8193C34.4826 11.6152 34.2816 11.4575 34.0342 11.3462C33.793 11.2287 33.493 11.1699 33.1343 11.1699C32.4416 11.1699 31.9406 11.3895 31.6313 11.8286C31.3283 12.2677 31.1768 12.8151 31.1768 13.4707V13.5449ZM45.3989 11.5503H45.1299C44.765 11.5503 44.4155 11.5874 44.0815 11.6616C43.7537 11.7358 43.4631 11.8719 43.2095 12.0698C42.9559 12.2616 42.7518 12.5275 42.5972 12.8677C42.4487 13.2078 42.3745 13.6439 42.3745 14.1758V19H39.814V9.06396H42.3745V10.1865C42.4797 10.0195 42.6157 9.85872 42.7827 9.7041C42.9497 9.54948 43.1445 9.41341 43.3672 9.2959C43.5898 9.1722 43.8403 9.07324 44.1187 8.99902C44.397 8.9248 44.6969 8.8877 45.0186 8.8877H45.3989V11.5503ZM50.2046 14.9644C49.8892 15.0138 49.6356 15.1252 49.4438 15.2983C49.2521 15.4653 49.1562 15.6942 49.1562 15.9849C49.1562 16.3065 49.2738 16.5848 49.5088 16.8198C49.7438 17.0487 50.0902 17.1631 50.5479 17.1631C51.0303 17.1631 51.4106 17.0239 51.689 16.7456C51.9673 16.4673 52.1064 16.0993 52.1064 15.6416V14.6396L50.2046 14.9644ZM52.5239 18.063C52.4188 18.1805 52.2889 18.3073 52.1343 18.4434C51.9858 18.5732 51.8065 18.6938 51.5962 18.8052C51.3921 18.9103 51.1509 19 50.8726 19.0742C50.5942 19.1484 50.2819 19.1855 49.9355 19.1855C49.4408 19.1855 48.9831 19.1082 48.5625 18.9536C48.1481 18.7928 47.7832 18.5701 47.4678 18.2856C47.1523 18.0011 46.9049 17.6733 46.7256 17.3022C46.5462 16.925 46.4565 16.5168 46.4565 16.0776C46.4565 15.2798 46.7039 14.6273 47.1987 14.1201C47.6935 13.613 48.377 13.2944 49.249 13.1646L52.1064 12.7471V12.5615C52.1064 12.1162 51.9704 11.7637 51.6982 11.5039C51.4261 11.2441 50.9839 11.1143 50.3716 11.1143C50.118 11.1143 49.8613 11.1452 49.6016 11.207C49.3418 11.2627 49.0913 11.3276 48.8501 11.4019C48.6151 11.4761 48.3955 11.5627 48.1914 11.6616C47.9873 11.7544 47.8079 11.8379 47.6533 11.9121L46.6514 9.95459C47.2204 9.63916 47.8512 9.37939 48.5439 9.17529C49.2428 8.97119 49.9665 8.86914 50.7148 8.86914C51.1725 8.86914 51.6333 8.91862 52.0972 9.01758C52.5672 9.11035 52.9909 9.28353 53.3682 9.53711C53.7516 9.79069 54.064 10.137 54.3052 10.5762C54.5464 11.0091 54.667 11.5627 54.667 12.2368V16.3188C54.667 16.6095 54.7412 16.826 54.8896 16.9683C55.0443 17.1043 55.2546 17.2311 55.5205 17.3486L54.3608 19.1855C53.8908 19.1361 53.5135 19.0155 53.229 18.8237C52.9445 18.6258 52.7095 18.3722 52.5239 18.063ZM60.085 16.0405C60.085 16.158 60.1004 16.2694 60.1313 16.3745C60.1623 16.4797 60.2148 16.5724 60.2891 16.6528C60.3695 16.7271 60.4808 16.7858 60.623 16.8291C60.7653 16.8724 60.9478 16.894 61.1704 16.894C61.2632 16.894 61.3683 16.891 61.4858 16.8848C61.6034 16.8724 61.7209 16.86 61.8384 16.8477C61.9559 16.8353 62.0641 16.8198 62.1631 16.8013C62.2682 16.7827 62.3548 16.7673 62.4229 16.7549L62.6548 19.0186C62.4136 19.0495 62.1631 19.0773 61.9033 19.1021C61.6807 19.1268 61.4333 19.1453 61.1611 19.1577C60.889 19.1763 60.6138 19.1855 60.3354 19.1855C59.451 19.1855 58.7614 18.9845 58.2666 18.5825C57.7718 18.1805 57.5244 17.5404 57.5244 16.6621V11.2905H55.7339V9.06396H57.5244V6.25293L60.085 5.56641V9.06396H62.6919V11.2905H60.085V16.0405ZM66.4492 14.918C66.4925 15.2148 66.5853 15.487 66.7275 15.7344C66.876 15.9818 67.0615 16.1951 67.2842 16.3745C67.5068 16.5477 67.7635 16.6838 68.0542 16.7827C68.3449 16.8817 68.6541 16.9312 68.9819 16.9312C69.3592 16.9312 69.7674 16.86 70.2065 16.7178C70.6457 16.5693 71.0477 16.356 71.4126 16.0776L72.6465 17.8774C72.1826 18.2671 71.6136 18.5825 70.9395 18.8237C70.2653 19.0649 69.5479 19.1855 68.7871 19.1855C68.1006 19.1855 67.4543 19.068 66.8481 18.833C66.242 18.598 65.7101 18.2578 65.2524 17.8125C64.8009 17.3672 64.4422 16.826 64.1763 16.189C63.9165 15.5519 63.7866 14.8345 63.7866 14.0366C63.7866 13.3068 63.901 12.6265 64.1299 11.9956C64.3649 11.3647 64.6896 10.8174 65.104 10.3535C65.5246 9.88965 66.0256 9.52783 66.6069 9.26807C67.1883 9.00212 67.8315 8.86914 68.5366 8.86914C69.1922 8.86914 69.8014 8.98975 70.3643 9.23096C70.9271 9.46598 71.4157 9.79997 71.8301 10.2329C72.2445 10.6597 72.5692 11.173 72.8042 11.7729C73.0392 12.3729 73.1567 13.0347 73.1567 13.7583V14.918H66.4492ZM68.5273 11.0957C67.9769 11.0957 67.5099 11.2812 67.1265 11.6523C66.7492 12.0173 66.5296 12.4595 66.4678 12.979H70.4756C70.4632 12.4533 70.2715 12.008 69.9004 11.6431C69.5293 11.2782 69.0716 11.0957 68.5273 11.0957ZM81.1724 19V18.1465C81.0363 18.2949 80.8848 18.4341 80.7178 18.564C80.557 18.6877 80.3745 18.7959 80.1704 18.8887C79.9725 18.9814 79.7529 19.0526 79.5117 19.1021C79.2767 19.1577 79.0138 19.1855 78.7231 19.1855C78.0675 19.1855 77.4676 19.0557 76.9233 18.7959C76.3791 18.5361 75.9121 18.1774 75.5225 17.7197C75.1328 17.262 74.8298 16.7178 74.6133 16.0869C74.403 15.4561 74.2979 14.7726 74.2979 14.0366C74.2979 13.3006 74.403 12.6172 74.6133 11.9863C74.8236 11.3555 75.1174 10.8112 75.4946 10.3535C75.8781 9.88965 76.3389 9.52783 76.877 9.26807C77.415 9.00212 78.0119 8.86914 78.6675 8.86914C79.2489 8.86914 79.7406 8.97119 80.1426 9.17529C80.5508 9.37321 80.894 9.62061 81.1724 9.91748V5.69629H83.7329V19H81.1724ZM81.2466 13.1089C81.2466 12.8429 81.1971 12.5955 81.0981 12.3667C81.0054 12.1379 80.8693 11.9399 80.6899 11.7729C80.5106 11.606 80.2941 11.4761 80.0405 11.3833C79.7931 11.2905 79.5117 11.2441 79.1963 11.2441C78.8314 11.2441 78.5067 11.3122 78.2222 11.4482C77.9438 11.5843 77.7088 11.776 77.5171 12.0234C77.3254 12.2646 77.18 12.5522 77.0811 12.8862C76.9821 13.2202 76.9326 13.5851 76.9326 13.981V14.1016C76.9326 14.4974 76.9821 14.8623 77.0811 15.1963C77.18 15.5241 77.3254 15.8086 77.5171 16.0498C77.7088 16.291 77.9438 16.4797 78.2222 16.6157C78.5067 16.7456 78.8314 16.8105 79.1963 16.8105C79.5117 16.8105 79.7931 16.7642 80.0405 16.6714C80.2941 16.5786 80.5106 16.4487 80.6899 16.2817C80.8693 16.1147 81.0054 15.9199 81.0981 15.6973C81.1971 15.4684 81.2466 15.221 81.2466 14.9551V13.1089ZM91.498 14.083C91.498 14.4046 91.5413 14.7293 91.6279 15.0571C91.7145 15.3787 91.8475 15.6694 92.0269 15.9292C92.2062 16.189 92.4351 16.4023 92.7134 16.5693C92.9979 16.7301 93.335 16.8105 93.7246 16.8105C93.9782 16.8105 94.207 16.7765 94.4111 16.7085C94.6214 16.6405 94.807 16.5477 94.9678 16.4302C95.1348 16.3065 95.2801 16.1642 95.4038 16.0034C95.5337 15.8364 95.645 15.6571 95.7378 15.4653L97.9829 16.625C97.8221 17.0146 97.5994 17.3672 97.3149 17.6826C97.0366 17.998 96.7119 18.2671 96.3408 18.4897C95.9697 18.7124 95.5584 18.8825 95.1069 19C94.6554 19.1237 94.1761 19.1855 93.6689 19.1855C92.9701 19.1855 92.3268 19.0557 91.7393 18.7959C91.1517 18.5299 90.6445 18.1681 90.2178 17.7104C89.791 17.2528 89.457 16.7116 89.2158 16.0869C88.9746 15.4561 88.854 14.7726 88.854 14.0366C88.854 13.3068 88.9746 12.6265 89.2158 11.9956C89.457 11.3647 89.791 10.8174 90.2178 10.3535C90.6445 9.88965 91.1517 9.52783 91.7393 9.26807C92.3268 9.00212 92.9701 8.86914 93.6689 8.86914C94.1761 8.86914 94.6554 8.93099 95.1069 9.05469C95.5584 9.1722 95.9697 9.34538 96.3408 9.57422C96.7119 9.79688 97.0366 10.0659 97.3149 10.3813C97.5994 10.6968 97.8221 11.0493 97.9829 11.439L95.7378 12.5986C95.645 12.4069 95.5337 12.2306 95.4038 12.0698C95.2801 11.9028 95.1348 11.7606 94.9678 11.6431C94.807 11.5194 94.6214 11.4235 94.4111 11.3555C94.207 11.2812 93.9782 11.2441 93.7246 11.2441C93.335 11.2441 92.9979 11.3276 92.7134 11.4946C92.4351 11.6554 92.2062 11.8688 92.0269 12.1348C91.8475 12.3945 91.7145 12.6883 91.6279 13.0161C91.5413 13.3439 91.498 13.6717 91.498 13.9995V14.083ZM102.77 14.9644C102.455 15.0138 102.201 15.1252 102.009 15.2983C101.818 15.4653 101.722 15.6942 101.722 15.9849C101.722 16.3065 101.839 16.5848 102.074 16.8198C102.309 17.0487 102.656 17.1631 103.113 17.1631C103.596 17.1631 103.976 17.0239 104.254 16.7456C104.533 16.4673 104.672 16.0993 104.672 15.6416V14.6396L102.77 14.9644ZM105.089 18.063C104.984 18.1805 104.854 18.3073 104.7 18.4434C104.551 18.5732 104.372 18.6938 104.162 18.8052C103.958 18.9103 103.716 19 103.438 19.0742C103.16 19.1484 102.847 19.1855 102.501 19.1855C102.006 19.1855 101.549 19.1082 101.128 18.9536C100.714 18.7928 100.349 18.5701 100.033 18.2856C99.7178 18.0011 99.4704 17.6733 99.291 17.3022C99.1117 16.925 99.022 16.5168 99.022 16.0776C99.022 15.2798 99.2694 14.6273 99.7642 14.1201C100.259 13.613 100.942 13.2944 101.814 13.1646L104.672 12.7471V12.5615C104.672 12.1162 104.536 11.7637 104.264 11.5039C103.992 11.2441 103.549 11.1143 102.937 11.1143C102.683 11.1143 102.427 11.1452 102.167 11.207C101.907 11.2627 101.657 11.3276 101.416 11.4019C101.181 11.4761 100.961 11.5627 100.757 11.6616C100.553 11.7544 100.373 11.8379 100.219 11.9121L99.2168 9.95459C99.7858 9.63916 100.417 9.37939 101.109 9.17529C101.808 8.97119 102.532 8.86914 103.28 8.86914C103.738 8.86914 104.199 8.91862 104.663 9.01758C105.133 9.11035 105.556 9.28353 105.934 9.53711C106.317 9.79069 106.629 10.137 106.871 10.5762C107.112 11.0091 107.232 11.5627 107.232 12.2368V16.3188C107.232 16.6095 107.307 16.826 107.455 16.9683C107.61 17.1043 107.82 17.2311 108.086 17.3486L106.926 19.1855C106.456 19.1361 106.079 19.0155 105.794 18.8237C105.51 18.6258 105.275 18.3722 105.089 18.063ZM110.081 15.8271C110.445 16.1549 110.882 16.4364 111.389 16.6714C111.896 16.9064 112.409 17.0239 112.929 17.0239C113.306 17.0239 113.603 16.9528 113.819 16.8105C114.036 16.6621 114.144 16.4735 114.144 16.2446C114.144 15.855 113.727 15.5519 112.892 15.3354L112.168 15.1406C111.809 15.054 111.447 14.9365 111.083 14.7881C110.718 14.6335 110.381 14.4325 110.071 14.1851C109.768 13.9377 109.521 13.6377 109.329 13.2852C109.144 12.9264 109.051 12.4873 109.051 11.9678C109.051 11.5534 109.14 11.1606 109.32 10.7896C109.505 10.4123 109.765 10.0814 110.099 9.79688C110.439 9.51237 110.851 9.28662 111.333 9.11963C111.815 8.95264 112.354 8.86914 112.947 8.86914C113.795 8.86914 114.549 9.00212 115.211 9.26807C115.879 9.53402 116.405 9.83398 116.788 10.168L115.452 11.875C115.137 11.6462 114.763 11.4513 114.33 11.2905C113.903 11.1235 113.473 11.04 113.04 11.04C112.638 11.04 112.326 11.1143 112.103 11.2627C111.88 11.4049 111.769 11.5781 111.769 11.7822C111.769 11.9987 111.865 12.175 112.057 12.311C112.255 12.4409 112.539 12.5553 112.91 12.6543L113.986 12.9604C115.013 13.2511 115.749 13.6439 116.194 14.1387C116.64 14.6335 116.862 15.2581 116.862 16.0127C116.862 16.4333 116.776 16.8353 116.603 17.2188C116.429 17.596 116.176 17.9331 115.842 18.23C115.508 18.5269 115.093 18.7619 114.599 18.9351C114.104 19.1021 113.541 19.1855 112.91 19.1855C112.428 19.1855 111.973 19.1423 111.546 19.0557C111.126 18.9691 110.733 18.8516 110.368 18.7031C110.009 18.5485 109.685 18.3753 109.394 18.1836C109.103 17.9919 108.856 17.8001 108.652 17.6084L110.081 15.8271ZM120.666 14.918C120.709 15.2148 120.802 15.487 120.944 15.7344C121.093 15.9818 121.278 16.1951 121.501 16.3745C121.724 16.5477 121.98 16.6838 122.271 16.7827C122.562 16.8817 122.871 16.9312 123.199 16.9312C123.576 16.9312 123.984 16.86 124.423 16.7178C124.862 16.5693 125.264 16.356 125.629 16.0776L126.863 17.8774C126.399 18.2671 125.83 18.5825 125.156 18.8237C124.482 19.0649 123.765 19.1855 123.004 19.1855C122.317 19.1855 121.671 19.068 121.065 18.833C120.459 18.598 119.927 18.2578 119.469 17.8125C119.018 17.3672 118.659 16.826 118.393 16.189C118.133 15.5519 118.003 14.8345 118.003 14.0366C118.003 13.3068 118.118 12.6265 118.347 11.9956C118.582 11.3647 118.906 10.8174 119.321 10.3535C119.741 9.88965 120.242 9.52783 120.824 9.26807C121.405 9.00212 122.048 8.86914 122.753 8.86914C123.409 8.86914 124.018 8.98975 124.581 9.23096C125.144 9.46598 125.632 9.79997 126.047 10.2329C126.461 10.6597 126.786 11.173 127.021 11.7729C127.256 12.3729 127.374 13.0347 127.374 13.7583V14.918H120.666ZM122.744 11.0957C122.194 11.0957 121.727 11.2812 121.343 11.6523C120.966 12.0173 120.746 12.4595 120.685 12.979H124.692C124.68 12.4533 124.488 12.008 124.117 11.6431C123.746 11.2782 123.288 11.0957 122.744 11.0957Z" fill="white"/>
<rect width="116" height="27" transform="translate(145)" fill="#800080"/>
<path d="M153.392 5.69629H162.354V8.13623H156.082V10.9658H161.862V13.3965H156.082V19H153.392V5.69629ZM166.176 14.918C166.219 15.2148 166.312 15.487 166.454 15.7344C166.603 15.9818 166.788 16.1951 167.011 16.3745C167.233 16.5477 167.49 16.6838 167.781 16.7827C168.071 16.8817 168.381 16.9312 168.708 16.9312C169.086 16.9312 169.494 16.86 169.933 16.7178C170.372 16.5693 170.774 16.356 171.139 16.0776L172.373 17.8774C171.909 18.2671 171.34 18.5825 170.666 18.8237C169.992 19.0649 169.274 19.1855 168.514 19.1855C167.827 19.1855 167.181 19.068 166.575 18.833C165.969 18.598 165.437 18.2578 164.979 17.8125C164.528 17.3672 164.169 16.826 163.903 16.189C163.643 15.5519 163.513 14.8345 163.513 14.0366C163.513 13.3068 163.628 12.6265 163.856 11.9956C164.091 11.3647 164.416 10.8174 164.831 10.3535C165.251 9.88965 165.752 9.52783 166.333 9.26807C166.915 9.00212 167.558 8.86914 168.263 8.86914C168.919 8.86914 169.528 8.98975 170.091 9.23096C170.654 9.46598 171.142 9.79997 171.557 10.2329C171.971 10.6597 172.296 11.173 172.531 11.7729C172.766 12.3729 172.883 13.0347 172.883 13.7583V14.918H166.176ZM168.254 11.0957C167.703 11.0957 167.236 11.2812 166.853 11.6523C166.476 12.0173 166.256 12.4595 166.194 12.979H170.202C170.19 12.4533 169.998 12.008 169.627 11.6431C169.256 11.2782 168.798 11.0957 168.254 11.0957ZM176.659 14.918C176.702 15.2148 176.795 15.487 176.938 15.7344C177.086 15.9818 177.271 16.1951 177.494 16.3745C177.717 16.5477 177.973 16.6838 178.264 16.7827C178.555 16.8817 178.864 16.9312 179.192 16.9312C179.569 16.9312 179.977 16.86 180.417 16.7178C180.856 16.5693 181.258 16.356 181.623 16.0776L182.856 17.8774C182.393 18.2671 181.824 18.5825 181.149 18.8237C180.475 19.0649 179.758 19.1855 178.997 19.1855C178.311 19.1855 177.664 19.068 177.058 18.833C176.452 18.598 175.92 18.2578 175.462 17.8125C175.011 17.3672 174.652 16.826 174.386 16.189C174.126 15.5519 173.997 14.8345 173.997 14.0366C173.997 13.3068 174.111 12.6265 174.34 11.9956C174.575 11.3647 174.9 10.8174 175.314 10.3535C175.735 9.88965 176.236 9.52783 176.817 9.26807C177.398 9.00212 178.042 8.86914 178.747 8.86914C179.402 8.86914 180.011 8.98975 180.574 9.23096C181.137 9.46598 181.626 9.79997 182.04 10.2329C182.454 10.6597 182.779 11.173 183.014 11.7729C183.249 12.3729 183.367 13.0347 183.367 13.7583V14.918H176.659ZM178.737 11.0957C178.187 11.0957 177.72 11.2812 177.336 11.6523C176.959 12.0173 176.74 12.4595 176.678 12.979H180.686C180.673 12.4533 180.481 12.008 180.11 11.6431C179.739 11.2782 179.282 11.0957 178.737 11.0957ZM190.575 14.918C190.618 15.2148 190.711 15.487 190.854 15.7344C191.002 15.9818 191.188 16.1951 191.41 16.3745C191.633 16.5477 191.889 16.6838 192.18 16.7827C192.471 16.8817 192.78 16.9312 193.108 16.9312C193.485 16.9312 193.893 16.86 194.333 16.7178C194.772 16.5693 195.174 16.356 195.539 16.0776L196.772 17.8774C196.309 18.2671 195.74 18.5825 195.065 18.8237C194.391 19.0649 193.674 19.1855 192.913 19.1855C192.227 19.1855 191.58 19.068 190.974 18.833C190.368 18.598 189.836 18.2578 189.378 17.8125C188.927 17.3672 188.568 16.826 188.302 16.189C188.042 15.5519 187.913 14.8345 187.913 14.0366C187.913 13.3068 188.027 12.6265 188.256 11.9956C188.491 11.3647 188.816 10.8174 189.23 10.3535C189.651 9.88965 190.152 9.52783 190.733 9.26807C191.314 9.00212 191.958 8.86914 192.663 8.86914C193.318 8.86914 193.927 8.98975 194.49 9.23096C195.053 9.46598 195.542 9.79997 195.956 10.2329C196.37 10.6597 196.695 11.173 196.93 11.7729C197.165 12.3729 197.283 13.0347 197.283 13.7583V14.918H190.575ZM192.653 11.0957C192.103 11.0957 191.636 11.2812 191.252 11.6523C190.875 12.0173 190.656 12.4595 190.594 12.979H194.602C194.589 12.4533 194.397 12.008 194.026 11.6431C193.655 11.2782 193.198 11.0957 192.653 11.0957ZM201.216 13.7954L198.192 9.06396H201.151L202.673 11.7451L204.269 9.06396H207.256L204.176 13.814L207.599 19H204.575L202.617 15.957L200.836 19H197.849L201.216 13.7954ZM210.447 14.918C210.491 15.2148 210.583 15.487 210.726 15.7344C210.874 15.9818 211.06 16.1951 211.282 16.3745C211.505 16.5477 211.762 16.6838 212.052 16.7827C212.343 16.8817 212.652 16.9312 212.98 16.9312C213.357 16.9312 213.765 16.86 214.205 16.7178C214.644 16.5693 215.046 16.356 215.411 16.0776L216.645 17.8774C216.181 18.2671 215.612 18.5825 214.938 18.8237C214.263 19.0649 213.546 19.1855 212.785 19.1855C212.099 19.1855 211.452 19.068 210.846 18.833C210.24 18.598 209.708 18.2578 209.25 17.8125C208.799 17.3672 208.44 16.826 208.174 16.189C207.915 15.5519 207.785 14.8345 207.785 14.0366C207.785 13.3068 207.899 12.6265 208.128 11.9956C208.363 11.3647 208.688 10.8174 209.102 10.3535C209.523 9.88965 210.024 9.52783 210.605 9.26807C211.186 9.00212 211.83 8.86914 212.535 8.86914C213.19 8.86914 213.799 8.98975 214.362 9.23096C214.925 9.46598 215.414 9.79997 215.828 10.2329C216.243 10.6597 216.567 11.173 216.802 11.7729C217.037 12.3729 217.155 13.0347 217.155 13.7583V14.918H210.447ZM212.525 11.0957C211.975 11.0957 211.508 11.2812 211.125 11.6523C210.747 12.0173 210.528 12.4595 210.466 12.979H214.474C214.461 12.4533 214.27 12.008 213.898 11.6431C213.527 11.2782 213.07 11.0957 212.525 11.0957ZM227.165 19H224.595V13.2202C224.595 12.8677 224.555 12.5708 224.475 12.3296C224.4 12.0822 224.295 11.8843 224.159 11.7358C224.023 11.5812 223.865 11.473 223.686 11.4111C223.507 11.3431 223.312 11.3091 223.102 11.3091C222.854 11.3091 222.622 11.3524 222.406 11.439C222.195 11.5256 222.01 11.6616 221.849 11.8472C221.694 12.0327 221.571 12.2708 221.478 12.5615C221.391 12.846 221.348 13.1862 221.348 13.582V19H218.788V9.06396H221.348V9.93604C221.676 9.57113 222.056 9.30208 222.489 9.12891C222.928 8.95573 223.398 8.86914 223.899 8.86914C224.413 8.86914 224.892 8.97428 225.337 9.18457C225.789 9.39486 226.163 9.74121 226.46 10.2236C226.633 9.97624 226.831 9.76595 227.054 9.59277C227.283 9.4196 227.527 9.28044 227.787 9.17529C228.046 9.07015 228.315 8.99284 228.594 8.94336C228.878 8.89388 229.169 8.86914 229.466 8.86914C230.022 8.86914 230.517 8.96191 230.95 9.14746C231.389 9.32682 231.76 9.57113 232.063 9.88037C232.367 10.1896 232.598 10.5452 232.759 10.9473C232.92 11.3493 233 11.7729 233 12.2183V19H230.412V13.2202C230.412 12.8677 230.372 12.5708 230.292 12.3296C230.217 12.0822 230.112 11.8843 229.976 11.7358C229.84 11.5812 229.679 11.473 229.494 11.4111C229.314 11.3431 229.119 11.3091 228.909 11.3091C228.662 11.3091 228.433 11.3524 228.223 11.439C228.012 11.5256 227.827 11.6616 227.666 11.8472C227.511 12.0327 227.388 12.2708 227.295 12.5615C227.208 12.846 227.165 13.1862 227.165 13.582V19ZM237.695 22.1357H235.134V9.06396H237.695V9.91748C237.973 9.62679 238.316 9.37939 238.725 9.17529C239.133 8.97119 239.628 8.86914 240.209 8.86914C240.865 8.86914 241.458 9.00212 241.99 9.26807C242.528 9.52783 242.989 9.88965 243.373 10.3535C243.756 10.8112 244.053 11.3555 244.263 11.9863C244.473 12.6172 244.579 13.3006 244.579 14.0366C244.579 14.7726 244.47 15.4561 244.254 16.0869C244.037 16.7178 243.734 17.262 243.345 17.7197C242.955 18.1774 242.488 18.5361 241.944 18.7959C241.4 19.0557 240.8 19.1855 240.144 19.1855C239.853 19.1855 239.587 19.1577 239.346 19.1021C239.111 19.0526 238.895 18.9814 238.697 18.8887C238.499 18.7959 238.316 18.6877 238.149 18.564C237.982 18.4341 237.831 18.2949 237.695 18.1465V22.1357ZM237.621 14.9551C237.621 15.221 237.667 15.4684 237.76 15.6973C237.859 15.9199 237.998 16.1147 238.177 16.2817C238.357 16.4487 238.57 16.5786 238.817 16.6714C239.071 16.7642 239.355 16.8105 239.671 16.8105C240.036 16.8105 240.357 16.7456 240.636 16.6157C240.92 16.4797 241.158 16.291 241.35 16.0498C241.542 15.8086 241.687 15.5241 241.786 15.1963C241.885 14.8623 241.935 14.4974 241.935 14.1016V13.981C241.935 13.5851 241.885 13.2202 241.786 12.8862C241.687 12.5522 241.542 12.2646 241.35 12.0234C241.158 11.776 240.92 11.5843 240.636 11.4482C240.357 11.3122 240.036 11.2441 239.671 11.2441C239.355 11.2441 239.071 11.2905 238.817 11.3833C238.57 11.4761 238.357 11.606 238.177 11.7729C237.998 11.9399 237.859 12.1379 237.76 12.3667C237.667 12.5955 237.621 12.8429 237.621 13.1089V14.9551ZM249.95 16.0405C249.95 16.158 249.966 16.2694 249.997 16.3745C250.028 16.4797 250.08 16.5724 250.154 16.6528C250.235 16.7271 250.346 16.7858 250.488 16.8291C250.631 16.8724 250.813 16.894 251.036 16.894C251.128 16.894 251.234 16.891 251.351 16.8848C251.469 16.8724 251.586 16.86 251.704 16.8477C251.821 16.8353 251.929 16.8198 252.028 16.8013C252.133 16.7827 252.22 16.7673 252.288 16.7549L252.52 19.0186C252.279 19.0495 252.028 19.0773 251.769 19.1021C251.546 19.1268 251.299 19.1453 251.026 19.1577C250.754 19.1763 250.479 19.1855 250.201 19.1855C249.316 19.1855 248.627 18.9845 248.132 18.5825C247.637 18.1805 247.39 17.5404 247.39 16.6621V11.2905H245.599V9.06396H247.39V6.25293L249.95 5.56641V9.06396H252.557V11.2905H249.95V16.0405Z" fill="white"/>
<rect width="259" height="27" transform="translate(271)" fill="#0B0C0C"/>
<path d="M279.392 5.69629H282.082V16.5137H287.352V19H279.392V5.69629ZM290.877 14.918C290.92 15.2148 291.013 15.487 291.155 15.7344C291.304 15.9818 291.489 16.1951 291.712 16.3745C291.935 16.5477 292.191 16.6838 292.482 16.7827C292.773 16.8817 293.082 16.9312 293.41 16.9312C293.787 16.9312 294.195 16.86 294.634 16.7178C295.073 16.5693 295.475 16.356 295.84 16.0776L297.074 17.8774C296.61 18.2671 296.041 18.5825 295.367 18.8237C294.693 19.0649 293.976 19.1855 293.215 19.1855C292.528 19.1855 291.882 19.068 291.276 18.833C290.67 18.598 290.138 18.2578 289.68 17.8125C289.229 17.3672 288.87 16.826 288.604 16.189C288.344 15.5519 288.214 14.8345 288.214 14.0366C288.214 13.3068 288.329 12.6265 288.558 11.9956C288.793 11.3647 289.117 10.8174 289.532 10.3535C289.952 9.88965 290.453 9.52783 291.035 9.26807C291.616 9.00212 292.259 8.86914 292.964 8.86914C293.62 8.86914 294.229 8.98975 294.792 9.23096C295.355 9.46598 295.843 9.79997 296.258 10.2329C296.672 10.6597 296.997 11.173 297.232 11.7729C297.467 12.3729 297.584 13.0347 297.584 13.7583V14.918H290.877ZM292.955 11.0957C292.405 11.0957 291.938 11.2812 291.554 11.6523C291.177 12.0173 290.957 12.4595 290.896 12.979H294.903C294.891 12.4533 294.699 12.008 294.328 11.6431C293.957 11.2782 293.499 11.0957 292.955 11.0957ZM305.257 17.2373C305.028 17.5156 304.706 17.7383 304.292 17.9053C303.884 18.0661 303.438 18.1465 302.956 18.1465C302.288 18.1465 301.694 18.029 301.175 17.7939C300.655 17.5589 300.216 17.2373 299.857 16.8291C299.505 16.4147 299.233 15.9261 299.041 15.3633C298.855 14.8005 298.763 14.182 298.763 13.5078C298.763 12.8522 298.855 12.2399 299.041 11.6709C299.233 11.0957 299.505 10.604 299.857 10.1958C300.216 9.78141 300.655 9.45671 301.175 9.22168C301.694 8.98665 302.288 8.86914 302.956 8.86914C303.438 8.86914 303.884 8.95264 304.292 9.11963C304.706 9.28662 305.028 9.50928 305.257 9.7876V9.06396H307.827V18.9072C307.827 19.5133 307.712 20.0329 307.483 20.4658C307.255 20.9049 306.939 21.2637 306.537 21.542C306.141 21.8203 305.681 22.0213 305.155 22.145C304.629 22.2749 304.069 22.3398 303.476 22.3398C302.752 22.3398 301.997 22.2533 301.212 22.0801C300.426 21.9131 299.749 21.7028 299.18 21.4492L299.904 19.3804C300.077 19.4546 300.29 19.535 300.544 19.6216C300.798 19.7144 301.07 19.7948 301.36 19.8628C301.651 19.9308 301.954 19.9865 302.27 20.0298C302.591 20.0793 302.903 20.104 303.207 20.104C303.472 20.104 303.729 20.0762 303.977 20.0205C304.224 19.971 304.44 19.8844 304.626 19.7607C304.818 19.6432 304.969 19.4855 305.081 19.2876C305.198 19.0959 305.257 18.8485 305.257 18.5454V17.2373ZM301.397 13.5449C301.397 13.8727 301.431 14.182 301.5 14.4727C301.574 14.7572 301.688 15.0015 301.843 15.2056C302.004 15.4035 302.208 15.5612 302.455 15.6787C302.702 15.79 303.002 15.8457 303.355 15.8457C304.054 15.8457 304.552 15.6261 304.849 15.187C305.146 14.7417 305.294 14.1943 305.294 13.5449V13.4707C305.294 13.1429 305.26 12.8368 305.192 12.5522C305.124 12.2677 305.013 12.0234 304.858 11.8193C304.703 11.6152 304.502 11.4575 304.255 11.3462C304.014 11.2287 303.714 11.1699 303.355 11.1699C302.662 11.1699 302.161 11.3895 301.852 11.8286C301.549 12.2677 301.397 12.8151 301.397 13.4707V13.5449ZM313.245 14.9644C312.929 15.0138 312.676 15.1252 312.484 15.2983C312.292 15.4653 312.196 15.6942 312.196 15.9849C312.196 16.3065 312.314 16.5848 312.549 16.8198C312.784 17.0487 313.13 17.1631 313.588 17.1631C314.07 17.1631 314.451 17.0239 314.729 16.7456C315.007 16.4673 315.146 16.0993 315.146 15.6416V14.6396L313.245 14.9644ZM315.564 18.063C315.459 18.1805 315.329 18.3073 315.174 18.4434C315.026 18.5732 314.847 18.6938 314.636 18.8052C314.432 18.9103 314.191 19 313.913 19.0742C313.634 19.1484 313.322 19.1855 312.976 19.1855C312.481 19.1855 312.023 19.1082 311.603 18.9536C311.188 18.7928 310.823 18.5701 310.508 18.2856C310.192 18.0011 309.945 17.6733 309.766 17.3022C309.586 16.925 309.497 16.5168 309.497 16.0776C309.497 15.2798 309.744 14.6273 310.239 14.1201C310.734 13.613 311.417 13.2944 312.289 13.1646L315.146 12.7471V12.5615C315.146 12.1162 315.01 11.7637 314.738 11.5039C314.466 11.2441 314.024 11.1143 313.412 11.1143C313.158 11.1143 312.901 11.1452 312.642 11.207C312.382 11.2627 312.131 11.3276 311.89 11.4019C311.655 11.4761 311.436 11.5627 311.231 11.6616C311.027 11.7544 310.848 11.8379 310.693 11.9121L309.691 9.95459C310.26 9.63916 310.891 9.37939 311.584 9.17529C312.283 8.97119 313.007 8.86914 313.755 8.86914C314.213 8.86914 314.673 8.91862 315.137 9.01758C315.607 9.11035 316.031 9.28353 316.408 9.53711C316.792 9.79069 317.104 10.137 317.345 10.5762C317.586 11.0091 317.707 11.5627 317.707 12.2368V16.3188C317.707 16.6095 317.781 16.826 317.93 16.9683C318.084 17.1043 318.295 17.2311 318.561 17.3486L317.401 19.1855C316.931 19.1361 316.554 19.0155 316.269 18.8237C315.985 18.6258 315.75 18.3722 315.564 18.063ZM319.813 5.69629H322.374V16.3003C322.374 16.5106 322.432 16.6714 322.55 16.7827C322.674 16.894 322.868 16.9497 323.134 16.9497C323.258 16.9497 323.363 16.9435 323.45 16.9312C323.542 16.9126 323.66 16.8879 323.802 16.8569L324.006 19.0371C323.833 19.0618 323.648 19.0866 323.45 19.1113C323.283 19.1299 323.088 19.1453 322.865 19.1577C322.649 19.1763 322.423 19.1855 322.188 19.1855C321.823 19.1855 321.495 19.1392 321.205 19.0464C320.914 18.9536 320.663 18.8175 320.453 18.6382C320.249 18.4526 320.091 18.2238 319.98 17.9517C319.869 17.6795 319.813 17.3641 319.813 17.0054V5.69629ZM325.379 5.69629H327.94V16.3003C327.94 16.5106 327.999 16.6714 328.116 16.7827C328.24 16.894 328.435 16.9497 328.701 16.9497C328.824 16.9497 328.93 16.9435 329.016 16.9312C329.109 16.9126 329.226 16.8879 329.369 16.8569L329.573 19.0371C329.4 19.0618 329.214 19.0866 329.016 19.1113C328.849 19.1299 328.654 19.1453 328.432 19.1577C328.215 19.1763 327.989 19.1855 327.754 19.1855C327.389 19.1855 327.062 19.1392 326.771 19.0464C326.48 18.9536 326.23 18.8175 326.02 18.6382C325.815 18.4526 325.658 18.2238 325.546 17.9517C325.435 17.6795 325.379 17.3641 325.379 17.0054V5.69629ZM332.013 20.1597C332.303 20.1597 332.517 20.1071 332.653 20.002C332.795 19.8968 332.906 19.7267 332.987 19.4917L333.08 19.1855L329.638 9.06396H332.486L334.462 15.9199L336.104 9.06396H338.915L335.566 20.2339C335.455 20.605 335.3 20.9235 335.102 21.1895C334.904 21.4554 334.669 21.6719 334.397 21.8389C334.125 22.012 333.822 22.1388 333.488 22.2192C333.16 22.2996 332.807 22.3398 332.43 22.3398C332.276 22.3398 332.096 22.3337 331.892 22.3213C331.694 22.3089 331.487 22.2904 331.271 22.2656C331.06 22.2471 330.85 22.2223 330.64 22.1914C330.436 22.1605 330.247 22.1234 330.074 22.0801L330.556 19.9834C330.705 20.0205 330.859 20.0514 331.02 20.0762C331.162 20.1009 331.317 20.1195 331.484 20.1318C331.657 20.1504 331.833 20.1597 332.013 20.1597ZM348.721 11.5503H348.452C348.087 11.5503 347.738 11.5874 347.404 11.6616C347.076 11.7358 346.785 11.8719 346.532 12.0698C346.278 12.2616 346.074 12.5275 345.919 12.8677C345.771 13.2078 345.697 13.6439 345.697 14.1758V19H343.136V9.06396H345.697V10.1865C345.802 10.0195 345.938 9.85872 346.105 9.7041C346.272 9.54948 346.467 9.41341 346.689 9.2959C346.912 9.1722 347.163 9.07324 347.441 8.99902C347.719 8.9248 348.019 8.8877 348.341 8.8877H348.721V11.5503ZM352.46 14.918C352.503 15.2148 352.596 15.487 352.738 15.7344C352.887 15.9818 353.072 16.1951 353.295 16.3745C353.518 16.5477 353.774 16.6838 354.065 16.7827C354.356 16.8817 354.665 16.9312 354.993 16.9312C355.37 16.9312 355.778 16.86 356.217 16.7178C356.656 16.5693 357.058 16.356 357.423 16.0776L358.657 17.8774C358.193 18.2671 357.624 18.5825 356.95 18.8237C356.276 19.0649 355.559 19.1855 354.798 19.1855C354.111 19.1855 353.465 19.068 352.859 18.833C352.253 18.598 351.721 18.2578 351.263 17.8125C350.812 17.3672 350.453 16.826 350.187 16.189C349.927 15.5519 349.797 14.8345 349.797 14.0366C349.797 13.3068 349.912 12.6265 350.141 11.9956C350.376 11.3647 350.7 10.8174 351.115 10.3535C351.535 9.88965 352.036 9.52783 352.618 9.26807C353.199 9.00212 353.842 8.86914 354.547 8.86914C355.203 8.86914 355.812 8.98975 356.375 9.23096C356.938 9.46598 357.426 9.79997 357.841 10.2329C358.255 10.6597 358.58 11.173 358.815 11.7729C359.05 12.3729 359.167 13.0347 359.167 13.7583V14.918H352.46ZM354.538 11.0957C353.988 11.0957 353.521 11.2812 353.137 11.6523C352.76 12.0173 352.54 12.4595 352.479 12.979H356.486C356.474 12.4533 356.282 12.008 355.911 11.6431C355.54 11.2782 355.082 11.0957 354.538 11.0957ZM363.361 22.1357H360.8V9.06396H363.361V9.91748C363.639 9.62679 363.982 9.37939 364.391 9.17529C364.799 8.97119 365.294 8.86914 365.875 8.86914C366.531 8.86914 367.124 9.00212 367.656 9.26807C368.194 9.52783 368.655 9.88965 369.039 10.3535C369.422 10.8112 369.719 11.3555 369.929 11.9863C370.139 12.6172 370.245 13.3006 370.245 14.0366C370.245 14.7726 370.136 15.4561 369.92 16.0869C369.703 16.7178 369.4 17.262 369.011 17.7197C368.621 18.1774 368.154 18.5361 367.61 18.7959C367.066 19.0557 366.466 19.1855 365.81 19.1855C365.519 19.1855 365.253 19.1577 365.012 19.1021C364.777 19.0526 364.561 18.9814 364.363 18.8887C364.165 18.7959 363.982 18.6877 363.815 18.564C363.648 18.4341 363.497 18.2949 363.361 18.1465V22.1357ZM363.287 14.9551C363.287 15.221 363.333 15.4684 363.426 15.6973C363.525 15.9199 363.664 16.1147 363.843 16.2817C364.023 16.4487 364.236 16.5786 364.483 16.6714C364.737 16.7642 365.021 16.8105 365.337 16.8105C365.702 16.8105 366.023 16.7456 366.302 16.6157C366.586 16.4797 366.824 16.291 367.016 16.0498C367.208 15.8086 367.353 15.5241 367.452 15.1963C367.551 14.8623 367.601 14.4974 367.601 14.1016V13.981C367.601 13.5851 367.551 13.2202 367.452 12.8862C367.353 12.5522 367.208 12.2646 367.016 12.0234C366.824 11.776 366.586 11.5843 366.302 11.4482C366.023 11.3122 365.702 11.2441 365.337 11.2441C365.021 11.2441 364.737 11.2905 364.483 11.3833C364.236 11.4761 364.023 11.606 363.843 11.7729C363.664 11.9399 363.525 12.1379 363.426 12.3667C363.333 12.5955 363.287 12.8429 363.287 13.1089V14.9551ZM377.537 11.5503H377.268C376.903 11.5503 376.553 11.5874 376.219 11.6616C375.891 11.7358 375.601 11.8719 375.347 12.0698C375.094 12.2616 374.889 12.5275 374.735 12.8677C374.586 13.2078 374.512 13.6439 374.512 14.1758V19H371.952V9.06396H374.512V10.1865C374.617 10.0195 374.753 9.85872 374.92 9.7041C375.087 9.54948 375.282 9.41341 375.505 9.2959C375.728 9.1722 375.978 9.07324 376.256 8.99902C376.535 8.9248 376.835 8.8877 377.156 8.8877H377.537V11.5503ZM381.275 14.918C381.319 15.2148 381.411 15.487 381.554 15.7344C381.702 15.9818 381.888 16.1951 382.11 16.3745C382.333 16.5477 382.59 16.6838 382.88 16.7827C383.171 16.8817 383.48 16.9312 383.808 16.9312C384.185 16.9312 384.594 16.86 385.033 16.7178C385.472 16.5693 385.874 16.356 386.239 16.0776L387.473 17.8774C387.009 18.2671 386.44 18.5825 385.766 18.8237C385.091 19.0649 384.374 19.1855 383.613 19.1855C382.927 19.1855 382.28 19.068 381.674 18.833C381.068 18.598 380.536 18.2578 380.079 17.8125C379.627 17.3672 379.268 16.826 379.002 16.189C378.743 15.5519 378.613 14.8345 378.613 14.0366C378.613 13.3068 378.727 12.6265 378.956 11.9956C379.191 11.3647 379.516 10.8174 379.93 10.3535C380.351 9.88965 380.852 9.52783 381.433 9.26807C382.014 9.00212 382.658 8.86914 383.363 8.86914C384.018 8.86914 384.628 8.98975 385.19 9.23096C385.753 9.46598 386.242 9.79997 386.656 10.2329C387.071 10.6597 387.395 11.173 387.63 11.7729C387.865 12.3729 387.983 13.0347 387.983 13.7583V14.918H381.275ZM383.354 11.0957C382.803 11.0957 382.336 11.2812 381.953 11.6523C381.575 12.0173 381.356 12.4595 381.294 12.979H385.302C385.289 12.4533 385.098 12.008 384.727 11.6431C384.355 11.2782 383.898 11.0957 383.354 11.0957ZM390.321 15.8271C390.686 16.1549 391.122 16.4364 391.629 16.6714C392.136 16.9064 392.649 17.0239 393.169 17.0239C393.546 17.0239 393.843 16.9528 394.06 16.8105C394.276 16.6621 394.384 16.4735 394.384 16.2446C394.384 15.855 393.967 15.5519 393.132 15.3354L392.408 15.1406C392.049 15.054 391.688 14.9365 391.323 14.7881C390.958 14.6335 390.621 14.4325 390.312 14.1851C390.008 13.9377 389.761 13.6377 389.569 13.2852C389.384 12.9264 389.291 12.4873 389.291 11.9678C389.291 11.5534 389.381 11.1606 389.56 10.7896C389.746 10.4123 390.005 10.0814 390.339 9.79688C390.68 9.51237 391.091 9.28662 391.573 9.11963C392.056 8.95264 392.594 8.86914 393.188 8.86914C394.035 8.86914 394.789 9.00212 395.451 9.26807C396.119 9.53402 396.645 9.83398 397.028 10.168L395.692 11.875C395.377 11.6462 395.003 11.4513 394.57 11.2905C394.143 11.1235 393.713 11.04 393.28 11.04C392.878 11.04 392.566 11.1143 392.343 11.2627C392.121 11.4049 392.009 11.5781 392.009 11.7822C392.009 11.9987 392.105 12.175 392.297 12.311C392.495 12.4409 392.779 12.5553 393.15 12.6543L394.227 12.9604C395.253 13.2511 395.989 13.6439 396.435 14.1387C396.88 14.6335 397.103 15.2581 397.103 16.0127C397.103 16.4333 397.016 16.8353 396.843 17.2188C396.67 17.596 396.416 17.9331 396.082 18.23C395.748 18.5269 395.334 18.7619 394.839 18.9351C394.344 19.1021 393.781 19.1855 393.15 19.1855C392.668 19.1855 392.213 19.1423 391.787 19.0557C391.366 18.9691 390.973 18.8516 390.608 18.7031C390.25 18.5485 389.925 18.3753 389.634 18.1836C389.344 17.9919 389.096 17.8001 388.892 17.6084L390.321 15.8271ZM400.906 14.918C400.95 15.2148 401.042 15.487 401.185 15.7344C401.333 15.9818 401.519 16.1951 401.741 16.3745C401.964 16.5477 402.221 16.6838 402.511 16.7827C402.802 16.8817 403.111 16.9312 403.439 16.9312C403.816 16.9312 404.224 16.86 404.664 16.7178C405.103 16.5693 405.505 16.356 405.87 16.0776L407.104 17.8774C406.64 18.2671 406.071 18.5825 405.396 18.8237C404.722 19.0649 404.005 19.1855 403.244 19.1855C402.558 19.1855 401.911 19.068 401.305 18.833C400.699 18.598 400.167 18.2578 399.709 17.8125C399.258 17.3672 398.899 16.826 398.633 16.189C398.374 15.5519 398.244 14.8345 398.244 14.0366C398.244 13.3068 398.358 12.6265 398.587 11.9956C398.822 11.3647 399.147 10.8174 399.561 10.3535C399.982 9.88965 400.483 9.52783 401.064 9.26807C401.645 9.00212 402.289 8.86914 402.994 8.86914C403.649 8.86914 404.258 8.98975 404.821 9.23096C405.384 9.46598 405.873 9.79997 406.287 10.2329C406.701 10.6597 407.026 11.173 407.261 11.7729C407.496 12.3729 407.614 13.0347 407.614 13.7583V14.918H400.906ZM402.984 11.0957C402.434 11.0957 401.967 11.2812 401.583 11.6523C401.206 12.0173 400.987 12.4595 400.925 12.979H404.933C404.92 12.4533 404.729 12.008 404.357 11.6431C403.986 11.2782 403.529 11.0957 402.984 11.0957ZM409.247 9.06396H411.807V9.91748C411.943 9.78141 412.095 9.65153 412.262 9.52783C412.435 9.39795 412.624 9.28662 412.828 9.19385C413.032 9.09489 413.257 9.01758 413.505 8.96191C413.758 8.90007 414.037 8.86914 414.34 8.86914C414.878 8.86914 415.36 8.95882 415.787 9.13818C416.214 9.31136 416.573 9.55257 416.863 9.86182C417.16 10.1711 417.386 10.5329 417.541 10.9473C417.695 11.3617 417.772 11.8101 417.772 12.2925V19H415.212V13.2202C415.212 12.8677 415.172 12.5708 415.091 12.3296C415.011 12.0822 414.9 11.8843 414.757 11.7358C414.621 11.5812 414.457 11.4699 414.266 11.4019C414.08 11.3276 413.876 11.2905 413.653 11.2905C413.394 11.2905 413.149 11.3369 412.92 11.4297C412.698 11.5225 412.503 11.6647 412.336 11.8564C412.169 12.042 412.039 12.277 411.946 12.5615C411.854 12.846 411.807 13.18 411.807 13.5635V19H409.247V9.06396ZM423.58 16.0405C423.58 16.158 423.596 16.2694 423.626 16.3745C423.657 16.4797 423.71 16.5724 423.784 16.6528C423.865 16.7271 423.976 16.7858 424.118 16.8291C424.26 16.8724 424.443 16.894 424.666 16.894C424.758 16.894 424.863 16.891 424.981 16.8848C425.098 16.8724 425.216 16.86 425.333 16.8477C425.451 16.8353 425.559 16.8198 425.658 16.8013C425.763 16.7827 425.85 16.7673 425.918 16.7549L426.15 19.0186C425.909 19.0495 425.658 19.0773 425.398 19.1021C425.176 19.1268 424.928 19.1453 424.656 19.1577C424.384 19.1763 424.109 19.1855 423.831 19.1855C422.946 19.1855 422.257 18.9845 421.762 18.5825C421.267 18.1805 421.02 17.5404 421.02 16.6621V11.2905H419.229V9.06396H421.02V6.25293L423.58 5.56641V9.06396H426.187V11.2905H423.58V16.0405ZM429.944 14.918C429.988 15.2148 430.08 15.487 430.223 15.7344C430.371 15.9818 430.557 16.1951 430.779 16.3745C431.002 16.5477 431.259 16.6838 431.549 16.7827C431.84 16.8817 432.149 16.9312 432.477 16.9312C432.854 16.9312 433.263 16.86 433.702 16.7178C434.141 16.5693 434.543 16.356 434.908 16.0776L436.142 17.8774C435.678 18.2671 435.109 18.5825 434.435 18.8237C433.76 19.0649 433.043 19.1855 432.282 19.1855C431.596 19.1855 430.949 19.068 430.343 18.833C429.737 18.598 429.205 18.2578 428.748 17.8125C428.296 17.3672 427.937 16.826 427.671 16.189C427.412 15.5519 427.282 14.8345 427.282 14.0366C427.282 13.3068 427.396 12.6265 427.625 11.9956C427.86 11.3647 428.185 10.8174 428.599 10.3535C429.02 9.88965 429.521 9.52783 430.102 9.26807C430.683 9.00212 431.327 8.86914 432.032 8.86914C432.687 8.86914 433.297 8.98975 433.859 9.23096C434.422 9.46598 434.911 9.79997 435.325 10.2329C435.74 10.6597 436.064 11.173 436.299 11.7729C436.534 12.3729 436.652 13.0347 436.652 13.7583V14.918H429.944ZM432.022 11.0957C431.472 11.0957 431.005 11.2812 430.622 11.6523C430.244 12.0173 430.025 12.4595 429.963 12.979H433.971C433.958 12.4533 433.767 12.008 433.396 11.6431C433.024 11.2782 432.567 11.0957 432.022 11.0957ZM444.667 19V18.1465C444.531 18.2949 444.38 18.4341 444.213 18.564C444.052 18.6877 443.87 18.7959 443.666 18.8887C443.468 18.9814 443.248 19.0526 443.007 19.1021C442.772 19.1577 442.509 19.1855 442.218 19.1855C441.563 19.1855 440.963 19.0557 440.418 18.7959C439.874 18.5361 439.407 18.1774 439.018 17.7197C438.628 17.262 438.325 16.7178 438.108 16.0869C437.898 15.4561 437.793 14.7726 437.793 14.0366C437.793 13.3006 437.898 12.6172 438.108 11.9863C438.319 11.3555 438.612 10.8112 438.99 10.3535C439.373 9.88965 439.834 9.52783 440.372 9.26807C440.91 9.00212 441.507 8.86914 442.163 8.86914C442.744 8.86914 443.236 8.97119 443.638 9.17529C444.046 9.37321 444.389 9.62061 444.667 9.91748V5.69629H447.228V19H444.667ZM444.742 13.1089C444.742 12.8429 444.692 12.5955 444.593 12.3667C444.5 12.1379 444.364 11.9399 444.185 11.7729C444.006 11.606 443.789 11.4761 443.536 11.3833C443.288 11.2905 443.007 11.2441 442.691 11.2441C442.326 11.2441 442.002 11.3122 441.717 11.4482C441.439 11.5843 441.204 11.776 441.012 12.0234C440.82 12.2646 440.675 12.5522 440.576 12.8862C440.477 13.2202 440.428 13.5851 440.428 13.981V14.1016C440.428 14.4974 440.477 14.8623 440.576 15.1963C440.675 15.5241 440.82 15.8086 441.012 16.0498C441.204 16.291 441.439 16.4797 441.717 16.6157C442.002 16.7456 442.326 16.8105 442.691 16.8105C443.007 16.8105 443.288 16.7642 443.536 16.6714C443.789 16.5786 444.006 16.4487 444.185 16.2817C444.364 16.1147 444.5 15.9199 444.593 15.6973C444.692 15.4684 444.742 15.221 444.742 14.9551V13.1089ZM452.145 11.9121H456.134V14.2129H452.145V11.9121ZM469.429 19H466.859V13.2202C466.859 12.8677 466.819 12.5708 466.738 12.3296C466.664 12.0822 466.559 11.8843 466.423 11.7358C466.287 11.5812 466.129 11.473 465.95 11.4111C465.77 11.3431 465.576 11.3091 465.365 11.3091C465.118 11.3091 464.886 11.3524 464.669 11.439C464.459 11.5256 464.274 11.6616 464.113 11.8472C463.958 12.0327 463.834 12.2708 463.742 12.5615C463.655 12.846 463.612 13.1862 463.612 13.582V19H461.051V9.06396H463.612V9.93604C463.94 9.57113 464.32 9.30208 464.753 9.12891C465.192 8.95573 465.662 8.86914 466.163 8.86914C466.676 8.86914 467.156 8.97428 467.601 9.18457C468.053 9.39486 468.427 9.74121 468.724 10.2236C468.897 9.97624 469.095 9.76595 469.317 9.59277C469.546 9.4196 469.791 9.28044 470.05 9.17529C470.31 9.07015 470.579 8.99284 470.857 8.94336C471.142 8.89388 471.433 8.86914 471.729 8.86914C472.286 8.86914 472.781 8.96191 473.214 9.14746C473.653 9.32682 474.024 9.57113 474.327 9.88037C474.63 10.1896 474.862 10.5452 475.023 10.9473C475.184 11.3493 475.264 11.7729 475.264 12.2183V19H472.676V13.2202C472.676 12.8677 472.636 12.5708 472.555 12.3296C472.481 12.0822 472.376 11.8843 472.24 11.7358C472.104 11.5812 471.943 11.473 471.757 11.4111C471.578 11.3431 471.383 11.3091 471.173 11.3091C470.925 11.3091 470.697 11.3524 470.486 11.439C470.276 11.5256 470.09 11.6616 469.93 11.8472C469.775 12.0327 469.651 12.2708 469.559 12.5615C469.472 12.846 469.429 13.1862 469.429 13.582V19ZM480.608 14.9644C480.292 15.0138 480.039 15.1252 479.847 15.2983C479.655 15.4653 479.56 15.6942 479.56 15.9849C479.56 16.3065 479.677 16.5848 479.912 16.8198C480.147 17.0487 480.493 17.1631 480.951 17.1631C481.434 17.1631 481.814 17.0239 482.092 16.7456C482.371 16.4673 482.51 16.0993 482.51 15.6416V14.6396L480.608 14.9644ZM482.927 18.063C482.822 18.1805 482.692 18.3073 482.538 18.4434C482.389 18.5732 482.21 18.6938 482 18.8052C481.795 18.9103 481.554 19 481.276 19.0742C480.998 19.1484 480.685 19.1855 480.339 19.1855C479.844 19.1855 479.386 19.1082 478.966 18.9536C478.551 18.7928 478.187 18.5701 477.871 18.2856C477.556 18.0011 477.308 17.6733 477.129 17.3022C476.95 16.925 476.86 16.5168 476.86 16.0776C476.86 15.2798 477.107 14.6273 477.602 14.1201C478.097 13.613 478.78 13.2944 479.652 13.1646L482.51 12.7471V12.5615C482.51 12.1162 482.374 11.7637 482.102 11.5039C481.829 11.2441 481.387 11.1143 480.775 11.1143C480.521 11.1143 480.265 11.1452 480.005 11.207C479.745 11.2627 479.495 11.3276 479.253 11.4019C479.018 11.4761 478.799 11.5627 478.595 11.6616C478.391 11.7544 478.211 11.8379 478.057 11.9121L477.055 9.95459C477.624 9.63916 478.255 9.37939 478.947 9.17529C479.646 8.97119 480.37 8.86914 481.118 8.86914C481.576 8.86914 482.037 8.91862 482.5 9.01758C482.971 9.11035 483.394 9.28353 483.771 9.53711C484.155 9.79069 484.467 10.137 484.708 10.5762C484.95 11.0091 485.07 11.5627 485.07 12.2368V16.3188C485.07 16.6095 485.145 16.826 485.293 16.9683C485.448 17.1043 485.658 17.2311 485.924 17.3486L484.764 19.1855C484.294 19.1361 483.917 19.0155 483.632 18.8237C483.348 18.6258 483.113 18.3722 482.927 18.063ZM487.213 9.06396H489.774V9.91748C489.91 9.78141 490.062 9.65153 490.229 9.52783C490.402 9.39795 490.59 9.28662 490.794 9.19385C490.999 9.09489 491.224 9.01758 491.472 8.96191C491.725 8.90007 492.004 8.86914 492.307 8.86914C492.845 8.86914 493.327 8.95882 493.754 9.13818C494.181 9.31136 494.539 9.55257 494.83 9.86182C495.127 10.1711 495.353 10.5329 495.507 10.9473C495.662 11.3617 495.739 11.8101 495.739 12.2925V19H493.179V13.2202C493.179 12.8677 493.139 12.5708 493.058 12.3296C492.978 12.0822 492.866 11.8843 492.724 11.7358C492.588 11.5812 492.424 11.4699 492.232 11.4019C492.047 11.3276 491.843 11.2905 491.62 11.2905C491.36 11.2905 491.116 11.3369 490.887 11.4297C490.665 11.5225 490.47 11.6647 490.303 11.8564C490.136 12.042 490.006 12.277 489.913 12.5615C489.82 12.846 489.774 13.18 489.774 13.5635V19H487.213V9.06396ZM506.334 19H503.773V18.1465C503.631 18.2826 503.477 18.4155 503.31 18.5454C503.143 18.6691 502.957 18.7804 502.753 18.8794C502.549 18.9722 502.32 19.0464 502.066 19.1021C501.819 19.1577 501.544 19.1855 501.241 19.1855C500.703 19.1855 500.22 19.099 499.793 18.9258C499.367 18.7464 499.005 18.5052 498.708 18.2021C498.417 17.8929 498.195 17.5311 498.04 17.1167C497.885 16.7023 497.808 16.2539 497.808 15.7715V9.06396H500.369V14.8345C500.369 15.187 500.406 15.487 500.48 15.7344C500.56 15.9818 500.669 16.1828 500.805 16.3374C500.947 16.4858 501.114 16.5972 501.306 16.6714C501.497 16.7394 501.705 16.7734 501.927 16.7734C502.187 16.7734 502.428 16.7271 502.651 16.6343C502.88 16.5415 503.078 16.4023 503.245 16.2168C503.412 16.0251 503.542 15.7869 503.634 15.5024C503.727 15.2179 503.773 14.884 503.773 14.5005V9.06396H506.334V19ZM511.761 14.9644C511.446 15.0138 511.192 15.1252 511 15.2983C510.809 15.4653 510.713 15.6942 510.713 15.9849C510.713 16.3065 510.83 16.5848 511.065 16.8198C511.3 17.0487 511.647 17.1631 512.104 17.1631C512.587 17.1631 512.967 17.0239 513.246 16.7456C513.524 16.4673 513.663 16.0993 513.663 15.6416V14.6396L511.761 14.9644ZM514.081 18.063C513.975 18.1805 513.846 18.3073 513.691 18.4434C513.542 18.5732 513.363 18.6938 513.153 18.8052C512.949 18.9103 512.708 19 512.429 19.0742C512.151 19.1484 511.839 19.1855 511.492 19.1855C510.997 19.1855 510.54 19.1082 510.119 18.9536C509.705 18.7928 509.34 18.5701 509.024 18.2856C508.709 18.0011 508.462 17.6733 508.282 17.3022C508.103 16.925 508.013 16.5168 508.013 16.0776C508.013 15.2798 508.261 14.6273 508.755 14.1201C509.25 13.613 509.934 13.2944 510.806 13.1646L513.663 12.7471V12.5615C513.663 12.1162 513.527 11.7637 513.255 11.5039C512.983 11.2441 512.541 11.1143 511.928 11.1143C511.675 11.1143 511.418 11.1452 511.158 11.207C510.898 11.2627 510.648 11.3276 510.407 11.4019C510.172 11.4761 509.952 11.5627 509.748 11.6616C509.544 11.7544 509.365 11.8379 509.21 11.9121L508.208 9.95459C508.777 9.63916 509.408 9.37939 510.101 9.17529C510.799 8.97119 511.523 8.86914 512.271 8.86914C512.729 8.86914 513.19 8.91862 513.654 9.01758C514.124 9.11035 514.548 9.28353 514.925 9.53711C515.308 9.79069 515.621 10.137 515.862 10.5762C516.103 11.0091 516.224 11.5627 516.224 12.2368V16.3188C516.224 16.6095 516.298 16.826 516.446 16.9683C516.601 17.1043 516.811 17.2311 517.077 17.3486L515.917 19.1855C515.447 19.1361 515.07 19.0155 514.786 18.8237C514.501 18.6258 514.266 18.3722 514.081 18.063ZM518.33 5.69629H520.89V16.3003C520.89 16.5106 520.949 16.6714 521.066 16.7827C521.19 16.894 521.385 16.9497 521.651 16.9497C521.775 16.9497 521.88 16.9435 521.966 16.9312C522.059 16.9126 522.177 16.8879 522.319 16.8569L522.523 19.0371C522.35 19.0618 522.164 19.0866 521.966 19.1113C521.799 19.1299 521.604 19.1453 521.382 19.1577C521.165 19.1763 520.94 19.1855 520.705 19.1855C520.34 19.1855 520.012 19.1392 519.721 19.0464C519.431 18.9536 519.18 18.8175 518.97 18.6382C518.766 18.4526 518.608 18.2238 518.497 17.9517C518.385 17.6795 518.33 17.3641 518.33 17.0054V5.69629Z" fill="white"/>
<rect width="155" height="27" transform="translate(540)" fill="#4C2C92"/>
<path d="M559.729 12.3481C559.729 13.3439 559.592 14.2531 559.32 15.0757C559.054 15.8921 558.652 16.591 558.114 17.1724C557.582 17.7537 556.914 18.2052 556.11 18.5269C555.306 18.8423 554.366 19 553.29 19H548.392V5.69629H553.29C554.366 5.69629 555.306 5.8571 556.11 6.17871C556.914 6.49414 557.582 6.94255 558.114 7.52393C558.652 8.10531 559.054 8.80729 559.32 9.62988C559.592 10.4463 559.729 11.3524 559.729 12.3481ZM556.936 12.0884C556.936 11.5256 556.865 11.0029 556.723 10.5205C556.587 10.0319 556.364 9.60824 556.055 9.24951C555.752 8.89079 555.356 8.60938 554.867 8.40527C554.379 8.19499 553.788 8.08984 553.095 8.08984H551.082V16.6064H553.095C553.782 16.6064 554.369 16.5044 554.858 16.3003C555.347 16.09 555.742 15.8055 556.045 15.4468C556.355 15.0819 556.58 14.6551 556.723 14.1665C556.865 13.6779 556.936 13.1553 556.936 12.5986V12.0884ZM563.755 14.918C563.798 15.2148 563.891 15.487 564.033 15.7344C564.182 15.9818 564.367 16.1951 564.59 16.3745C564.812 16.5477 565.069 16.6838 565.36 16.7827C565.651 16.8817 565.96 16.9312 566.288 16.9312C566.665 16.9312 567.073 16.86 567.512 16.7178C567.951 16.5693 568.353 16.356 568.718 16.0776L569.952 17.8774C569.488 18.2671 568.919 18.5825 568.245 18.8237C567.571 19.0649 566.854 19.1855 566.093 19.1855C565.406 19.1855 564.76 19.068 564.154 18.833C563.548 18.598 563.016 18.2578 562.558 17.8125C562.107 17.3672 561.748 16.826 561.482 16.189C561.222 15.5519 561.092 14.8345 561.092 14.0366C561.092 13.3068 561.207 12.6265 561.436 11.9956C561.671 11.3647 561.995 10.8174 562.41 10.3535C562.83 9.88965 563.331 9.52783 563.913 9.26807C564.494 9.00212 565.137 8.86914 565.842 8.86914C566.498 8.86914 567.107 8.98975 567.67 9.23096C568.233 9.46598 568.721 9.79997 569.136 10.2329C569.55 10.6597 569.875 11.173 570.11 11.7729C570.345 12.3729 570.462 13.0347 570.462 13.7583V14.918H563.755ZM565.833 11.0957C565.283 11.0957 564.816 11.2812 564.432 11.6523C564.055 12.0173 563.835 12.4595 563.773 12.979H567.781C567.769 12.4533 567.577 12.008 567.206 11.6431C566.835 11.2782 566.377 11.0957 565.833 11.0957ZM575.76 16.0405C575.76 16.158 575.775 16.2694 575.806 16.3745C575.837 16.4797 575.89 16.5724 575.964 16.6528C576.044 16.7271 576.156 16.7858 576.298 16.8291C576.44 16.8724 576.623 16.894 576.845 16.894C576.938 16.894 577.043 16.891 577.161 16.8848C577.278 16.8724 577.396 16.86 577.513 16.8477C577.631 16.8353 577.739 16.8198 577.838 16.8013C577.943 16.7827 578.03 16.7673 578.098 16.7549L578.33 19.0186C578.088 19.0495 577.838 19.0773 577.578 19.1021C577.355 19.1268 577.108 19.1453 576.836 19.1577C576.564 19.1763 576.289 19.1855 576.01 19.1855C575.126 19.1855 574.436 18.9845 573.941 18.5825C573.447 18.1805 573.199 17.5404 573.199 16.6621V11.2905H571.409V9.06396H573.199V6.25293L575.76 5.56641V9.06396H578.367V11.2905H575.76V16.0405ZM583.191 14.9644C582.875 15.0138 582.622 15.1252 582.43 15.2983C582.238 15.4653 582.143 15.6942 582.143 15.9849C582.143 16.3065 582.26 16.5848 582.495 16.8198C582.73 17.0487 583.076 17.1631 583.534 17.1631C584.017 17.1631 584.397 17.0239 584.675 16.7456C584.954 16.4673 585.093 16.0993 585.093 15.6416V14.6396L583.191 14.9644ZM585.51 18.063C585.405 18.1805 585.275 18.3073 585.121 18.4434C584.972 18.5732 584.793 18.6938 584.583 18.8052C584.378 18.9103 584.137 19 583.859 19.0742C583.581 19.1484 583.268 19.1855 582.922 19.1855C582.427 19.1855 581.969 19.1082 581.549 18.9536C581.134 18.7928 580.77 18.5701 580.454 18.2856C580.139 18.0011 579.891 17.6733 579.712 17.3022C579.533 16.925 579.443 16.5168 579.443 16.0776C579.443 15.2798 579.69 14.6273 580.185 14.1201C580.68 13.613 581.363 13.2944 582.235 13.1646L585.093 12.7471V12.5615C585.093 12.1162 584.957 11.7637 584.685 11.5039C584.412 11.2441 583.97 11.1143 583.358 11.1143C583.104 11.1143 582.848 11.1452 582.588 11.207C582.328 11.2627 582.078 11.3276 581.836 11.4019C581.601 11.4761 581.382 11.5627 581.178 11.6616C580.974 11.7544 580.794 11.8379 580.64 11.9121L579.638 9.95459C580.207 9.63916 580.838 9.37939 581.53 9.17529C582.229 8.97119 582.953 8.86914 583.701 8.86914C584.159 8.86914 584.62 8.91862 585.083 9.01758C585.554 9.11035 585.977 9.28353 586.354 9.53711C586.738 9.79069 587.05 10.137 587.292 10.5762C587.533 11.0091 587.653 11.5627 587.653 12.2368V16.3188C587.653 16.6095 587.728 16.826 587.876 16.9683C588.031 17.1043 588.241 17.2311 588.507 17.3486L587.347 19.1855C586.877 19.1361 586.5 19.0155 586.215 18.8237C585.931 18.6258 585.696 18.3722 585.51 18.063ZM592.357 19H589.796V9.06396H592.357V19ZM589.527 6.45703C589.527 6.24674 589.568 6.04883 589.648 5.86328C589.728 5.67155 589.837 5.50765 589.973 5.37158C590.115 5.22933 590.279 5.118 590.464 5.0376C590.65 4.95719 590.851 4.91699 591.067 4.91699C591.278 4.91699 591.476 4.95719 591.661 5.0376C591.853 5.118 592.017 5.22933 592.153 5.37158C592.295 5.50765 592.406 5.67155 592.487 5.86328C592.567 6.04883 592.607 6.24674 592.607 6.45703C592.607 6.6735 592.567 6.87451 592.487 7.06006C592.406 7.24561 592.295 7.40951 592.153 7.55176C592.017 7.68783 591.853 7.79606 591.661 7.87646C591.476 7.95687 591.278 7.99707 591.067 7.99707C590.851 7.99707 590.65 7.95687 590.464 7.87646C590.279 7.79606 590.115 7.68783 589.973 7.55176C589.837 7.40951 589.728 7.24561 589.648 7.06006C589.568 6.87451 589.527 6.6735 589.527 6.45703ZM594.565 9.06396H597.125V9.91748C597.262 9.78141 597.413 9.65153 597.58 9.52783C597.753 9.39795 597.942 9.28662 598.146 9.19385C598.35 9.09489 598.576 9.01758 598.823 8.96191C599.077 8.90007 599.355 8.86914 599.658 8.86914C600.196 8.86914 600.679 8.95882 601.105 9.13818C601.532 9.31136 601.891 9.55257 602.182 9.86182C602.479 10.1711 602.704 10.5329 602.859 10.9473C603.014 11.3617 603.091 11.8101 603.091 12.2925V19H600.53V13.2202C600.53 12.8677 600.49 12.5708 600.41 12.3296C600.329 12.0822 600.218 11.8843 600.076 11.7358C599.94 11.5812 599.776 11.4699 599.584 11.4019C599.398 11.3276 599.194 11.2905 598.972 11.2905C598.712 11.2905 598.468 11.3369 598.239 11.4297C598.016 11.5225 597.821 11.6647 597.654 11.8564C597.487 12.042 597.357 12.277 597.265 12.5615C597.172 12.846 597.125 13.18 597.125 13.5635V19H594.565V9.06396ZM607.377 14.918C607.42 15.2148 607.513 15.487 607.655 15.7344C607.804 15.9818 607.989 16.1951 608.212 16.3745C608.435 16.5477 608.691 16.6838 608.982 16.7827C609.273 16.8817 609.582 16.9312 609.91 16.9312C610.287 16.9312 610.695 16.86 611.134 16.7178C611.573 16.5693 611.975 16.356 612.34 16.0776L613.574 17.8774C613.11 18.2671 612.541 18.5825 611.867 18.8237C611.193 19.0649 610.476 19.1855 609.715 19.1855C609.028 19.1855 608.382 19.068 607.776 18.833C607.17 18.598 606.638 18.2578 606.18 17.8125C605.729 17.3672 605.37 16.826 605.104 16.189C604.844 15.5519 604.714 14.8345 604.714 14.0366C604.714 13.3068 604.829 12.6265 605.058 11.9956C605.293 11.3647 605.617 10.8174 606.032 10.3535C606.452 9.88965 606.953 9.52783 607.535 9.26807C608.116 9.00212 608.759 8.86914 609.464 8.86914C610.12 8.86914 610.729 8.98975 611.292 9.23096C611.855 9.46598 612.343 9.79997 612.758 10.2329C613.172 10.6597 613.497 11.173 613.732 11.7729C613.967 12.3729 614.084 13.0347 614.084 13.7583V14.918H607.377ZM609.455 11.0957C608.905 11.0957 608.438 11.2812 608.054 11.6523C607.677 12.0173 607.457 12.4595 607.396 12.979H611.403C611.391 12.4533 611.199 12.008 610.828 11.6431C610.457 11.2782 609.999 11.0957 609.455 11.0957ZM622.1 19V18.1465C621.964 18.2949 621.812 18.4341 621.646 18.564C621.485 18.6877 621.302 18.7959 621.098 18.8887C620.9 18.9814 620.681 19.0526 620.439 19.1021C620.204 19.1577 619.942 19.1855 619.651 19.1855C618.995 19.1855 618.395 19.0557 617.851 18.7959C617.307 18.5361 616.84 18.1774 616.45 17.7197C616.061 17.262 615.757 16.7178 615.541 16.0869C615.331 15.4561 615.226 14.7726 615.226 14.0366C615.226 13.3006 615.331 12.6172 615.541 11.9863C615.751 11.3555 616.045 10.8112 616.422 10.3535C616.806 9.88965 617.267 9.52783 617.805 9.26807C618.343 9.00212 618.94 8.86914 619.595 8.86914C620.177 8.86914 620.668 8.97119 621.07 9.17529C621.479 9.37321 621.822 9.62061 622.1 9.91748V5.69629H624.661V19H622.1ZM622.174 13.1089C622.174 12.8429 622.125 12.5955 622.026 12.3667C621.933 12.1379 621.797 11.9399 621.618 11.7729C621.438 11.606 621.222 11.4761 620.968 11.3833C620.721 11.2905 620.439 11.2441 620.124 11.2441C619.759 11.2441 619.434 11.3122 619.15 11.4482C618.872 11.5843 618.637 11.776 618.445 12.0234C618.253 12.2646 618.108 12.5522 618.009 12.8862C617.91 13.2202 617.86 13.5851 617.86 13.981V14.1016C617.86 14.4974 617.91 14.8623 618.009 15.1963C618.108 15.5241 618.253 15.8086 618.445 16.0498C618.637 16.291 618.872 16.4797 619.15 16.6157C619.434 16.7456 619.759 16.8105 620.124 16.8105C620.439 16.8105 620.721 16.7642 620.968 16.6714C621.222 16.5786 621.438 16.4487 621.618 16.2817C621.797 16.1147 621.933 15.9199 622.026 15.6973C622.125 15.4684 622.174 15.221 622.174 14.9551V13.1089ZM633.511 14.9644C633.196 15.0138 632.942 15.1252 632.75 15.2983C632.559 15.4653 632.463 15.6942 632.463 15.9849C632.463 16.3065 632.58 16.5848 632.815 16.8198C633.05 17.0487 633.397 17.1631 633.854 17.1631C634.337 17.1631 634.717 17.0239 634.996 16.7456C635.274 16.4673 635.413 16.0993 635.413 15.6416V14.6396L633.511 14.9644ZM635.831 18.063C635.725 18.1805 635.596 18.3073 635.441 18.4434C635.292 18.5732 635.113 18.6938 634.903 18.8052C634.699 18.9103 634.458 19 634.179 19.0742C633.901 19.1484 633.589 19.1855 633.242 19.1855C632.747 19.1855 632.29 19.1082 631.869 18.9536C631.455 18.7928 631.09 18.5701 630.774 18.2856C630.459 18.0011 630.212 17.6733 630.032 17.3022C629.853 16.925 629.763 16.5168 629.763 16.0776C629.763 15.2798 630.011 14.6273 630.505 14.1201C631 13.613 631.684 13.2944 632.556 13.1646L635.413 12.7471V12.5615C635.413 12.1162 635.277 11.7637 635.005 11.5039C634.733 11.2441 634.291 11.1143 633.678 11.1143C633.425 11.1143 633.168 11.1452 632.908 11.207C632.648 11.2627 632.398 11.3276 632.157 11.4019C631.922 11.4761 631.702 11.5627 631.498 11.6616C631.294 11.7544 631.115 11.8379 630.96 11.9121L629.958 9.95459C630.527 9.63916 631.158 9.37939 631.851 9.17529C632.549 8.97119 633.273 8.86914 634.021 8.86914C634.479 8.86914 634.94 8.91862 635.404 9.01758C635.874 9.11035 636.298 9.28353 636.675 9.53711C637.058 9.79069 637.371 10.137 637.612 10.5762C637.853 11.0091 637.974 11.5627 637.974 12.2368V16.3188C637.974 16.6095 638.048 16.826 638.196 16.9683C638.351 17.1043 638.561 17.2311 638.827 17.3486L637.667 19.1855C637.197 19.1361 636.82 19.0155 636.536 18.8237C636.251 18.6258 636.016 18.3722 635.831 18.063ZM642.677 22.1357H640.117V9.06396H642.677V9.91748C642.956 9.62679 643.299 9.37939 643.707 9.17529C644.115 8.97119 644.61 8.86914 645.191 8.86914C645.847 8.86914 646.441 9.00212 646.973 9.26807C647.511 9.52783 647.972 9.88965 648.355 10.3535C648.738 10.8112 649.035 11.3555 649.246 11.9863C649.456 12.6172 649.561 13.3006 649.561 14.0366C649.561 14.7726 649.453 15.4561 649.236 16.0869C649.02 16.7178 648.717 17.262 648.327 17.7197C647.938 18.1774 647.471 18.5361 646.926 18.7959C646.382 19.0557 645.782 19.1855 645.126 19.1855C644.836 19.1855 644.57 19.1577 644.329 19.1021C644.094 19.0526 643.877 18.9814 643.679 18.8887C643.481 18.7959 643.299 18.6877 643.132 18.564C642.965 18.4341 642.813 18.2949 642.677 18.1465V22.1357ZM642.603 14.9551C642.603 15.221 642.649 15.4684 642.742 15.6973C642.841 15.9199 642.98 16.1147 643.16 16.2817C643.339 16.4487 643.552 16.5786 643.8 16.6714C644.053 16.7642 644.338 16.8105 644.653 16.8105C645.018 16.8105 645.34 16.7456 645.618 16.6157C645.903 16.4797 646.141 16.291 646.333 16.0498C646.524 15.8086 646.67 15.5241 646.769 15.1963C646.868 14.8623 646.917 14.4974 646.917 14.1016V13.981C646.917 13.5851 646.868 13.2202 646.769 12.8862C646.67 12.5522 646.524 12.2646 646.333 12.0234C646.141 11.776 645.903 11.5843 645.618 11.4482C645.34 11.3122 645.018 11.2441 644.653 11.2441C644.338 11.2441 644.053 11.2905 643.8 11.3833C643.552 11.4761 643.339 11.606 643.16 11.7729C642.98 11.9399 642.841 12.1379 642.742 12.3667C642.649 12.5955 642.603 12.8429 642.603 13.1089V14.9551ZM653.829 22.1357H651.268V9.06396H653.829V9.91748C654.107 9.62679 654.45 9.37939 654.858 9.17529C655.267 8.97119 655.761 8.86914 656.343 8.86914C656.998 8.86914 657.592 9.00212 658.124 9.26807C658.662 9.52783 659.123 9.88965 659.506 10.3535C659.89 10.8112 660.187 11.3555 660.397 11.9863C660.607 12.6172 660.712 13.3006 660.712 14.0366C660.712 14.7726 660.604 15.4561 660.388 16.0869C660.171 16.7178 659.868 17.262 659.479 17.7197C659.089 18.1774 658.622 18.5361 658.078 18.7959C657.533 19.0557 656.933 19.1855 656.278 19.1855C655.987 19.1855 655.721 19.1577 655.48 19.1021C655.245 19.0526 655.028 18.9814 654.831 18.8887C654.633 18.7959 654.45 18.6877 654.283 18.564C654.116 18.4341 653.965 18.2949 653.829 18.1465V22.1357ZM653.754 14.9551C653.754 15.221 653.801 15.4684 653.894 15.6973C653.993 15.9199 654.132 16.1147 654.311 16.2817C654.49 16.4487 654.704 16.5786 654.951 16.6714C655.205 16.7642 655.489 16.8105 655.805 16.8105C656.17 16.8105 656.491 16.7456 656.77 16.6157C657.054 16.4797 657.292 16.291 657.484 16.0498C657.676 15.8086 657.821 15.5241 657.92 15.1963C658.019 14.8623 658.068 14.4974 658.068 14.1016V13.981C658.068 13.5851 658.019 13.2202 657.92 12.8862C657.821 12.5522 657.676 12.2646 657.484 12.0234C657.292 11.776 657.054 11.5843 656.77 11.4482C656.491 11.3122 656.17 11.2441 655.805 11.2441C655.489 11.2441 655.205 11.2905 654.951 11.3833C654.704 11.4761 654.49 11.606 654.311 11.7729C654.132 11.9399 653.993 12.1379 653.894 12.3667C653.801 12.5955 653.754 12.8429 653.754 13.1089V14.9551ZM664.562 14.918C664.606 15.2148 664.699 15.487 664.841 15.7344C664.989 15.9818 665.175 16.1951 665.397 16.3745C665.62 16.5477 665.877 16.6838 666.167 16.7827C666.458 16.8817 666.767 16.9312 667.095 16.9312C667.472 16.9312 667.881 16.86 668.32 16.7178C668.759 16.5693 669.161 16.356 669.526 16.0776L670.76 17.8774C670.296 18.2671 669.727 18.5825 669.053 18.8237C668.379 19.0649 667.661 19.1855 666.9 19.1855C666.214 19.1855 665.568 19.068 664.961 18.833C664.355 18.598 663.823 18.2578 663.366 17.8125C662.914 17.3672 662.556 16.826 662.29 16.189C662.03 15.5519 661.9 14.8345 661.9 14.0366C661.9 13.3068 662.014 12.6265 662.243 11.9956C662.478 11.3647 662.803 10.8174 663.217 10.3535C663.638 9.88965 664.139 9.52783 664.72 9.26807C665.302 9.00212 665.945 8.86914 666.65 8.86914C667.306 8.86914 667.915 8.98975 668.478 9.23096C669.04 9.46598 669.529 9.79997 669.943 10.2329C670.358 10.6597 670.682 11.173 670.917 11.7729C671.153 12.3729 671.27 13.0347 671.27 13.7583V14.918H664.562ZM666.641 11.0957C666.09 11.0957 665.623 11.2812 665.24 11.6523C664.862 12.0173 664.643 12.4595 664.581 12.979H668.589C668.576 12.4533 668.385 12.008 668.014 11.6431C667.643 11.2782 667.185 11.0957 666.641 11.0957ZM676.113 14.9644C675.797 15.0138 675.544 15.1252 675.352 15.2983C675.16 15.4653 675.064 15.6942 675.064 15.9849C675.064 16.3065 675.182 16.5848 675.417 16.8198C675.652 17.0487 675.998 17.1631 676.456 17.1631C676.938 17.1631 677.319 17.0239 677.597 16.7456C677.875 16.4673 678.015 16.0993 678.015 15.6416V14.6396L676.113 14.9644ZM678.432 18.063C678.327 18.1805 678.197 18.3073 678.042 18.4434C677.894 18.5732 677.715 18.6938 677.504 18.8052C677.3 18.9103 677.059 19 676.781 19.0742C676.502 19.1484 676.19 19.1855 675.844 19.1855C675.349 19.1855 674.891 19.1082 674.471 18.9536C674.056 18.7928 673.691 18.5701 673.376 18.2856C673.061 18.0011 672.813 17.6733 672.634 17.3022C672.454 16.925 672.365 16.5168 672.365 16.0776C672.365 15.2798 672.612 14.6273 673.107 14.1201C673.602 13.613 674.285 13.2944 675.157 13.1646L678.015 12.7471V12.5615C678.015 12.1162 677.879 11.7637 677.606 11.5039C677.334 11.2441 676.892 11.1143 676.28 11.1143C676.026 11.1143 675.77 11.1452 675.51 11.207C675.25 11.2627 675 11.3276 674.758 11.4019C674.523 11.4761 674.304 11.5627 674.1 11.6616C673.896 11.7544 673.716 11.8379 673.562 11.9121L672.56 9.95459C673.129 9.63916 673.759 9.37939 674.452 9.17529C675.151 8.97119 675.875 8.86914 676.623 8.86914C677.081 8.86914 677.542 8.91862 678.005 9.01758C678.475 9.11035 678.899 9.28353 679.276 9.53711C679.66 9.79069 679.972 10.137 680.213 10.5762C680.455 11.0091 680.575 11.5627 680.575 12.2368V16.3188C680.575 16.6095 680.649 16.826 680.798 16.9683C680.952 17.1043 681.163 17.2311 681.429 17.3486L680.269 19.1855C679.799 19.1361 679.422 19.0155 679.137 18.8237C678.853 18.6258 678.618 18.3722 678.432 18.063ZM682.681 5.69629H685.242V16.3003C685.242 16.5106 685.3 16.6714 685.418 16.7827C685.542 16.894 685.736 16.9497 686.002 16.9497C686.126 16.9497 686.231 16.9435 686.318 16.9312C686.411 16.9126 686.528 16.8879 686.67 16.8569L686.875 19.0371C686.701 19.0618 686.516 19.0866 686.318 19.1113C686.151 19.1299 685.956 19.1453 685.733 19.1577C685.517 19.1763 685.291 19.1855 685.056 19.1855C684.691 19.1855 684.363 19.1392 684.073 19.0464C683.782 18.9536 683.532 18.8175 683.321 18.6382C683.117 18.4526 682.959 18.2238 682.848 17.9517C682.737 17.6795 682.681 17.3641 682.681 17.0054V5.69629Z" fill="white"/>
</svg>
