<svg width="402" height="27" viewBox="0 0 402 27" fill="none" xmlns="http://www.w3.org/2000/svg">
<rect width="256" height="27" transform="translate(146)" fill="#1D70B8"/>
<path d="M161.721 16.5322H156.794L156.043 19H153.186L157.537 5.69629H161.071L165.487 19H162.481L161.721 16.5322ZM157.518 14.1572H160.997L159.271 8.53516H159.234L157.518 14.1572ZM169.319 22.1357H166.758V9.06396H169.319V9.91748C169.597 9.62679 169.94 9.37939 170.349 9.17529C170.757 8.97119 171.252 8.86914 171.833 8.86914C172.489 8.86914 173.082 9.00212 173.614 9.26807C174.152 9.52783 174.613 9.88965 174.997 10.3535C175.38 10.8112 175.677 11.3555 175.887 11.9863C176.097 12.6172 176.203 13.3006 176.203 14.0366C176.203 14.7726 176.094 15.4561 175.878 16.0869C175.661 16.7178 175.358 17.262 174.969 17.7197C174.579 18.1774 174.112 18.5361 173.568 18.7959C173.024 19.0557 172.424 19.1855 171.768 19.1855C171.477 19.1855 171.211 19.1577 170.97 19.1021C170.735 19.0526 170.519 18.9814 170.321 18.8887C170.123 18.7959 169.94 18.6877 169.773 18.564C169.606 18.4341 169.455 18.2949 169.319 18.1465V22.1357ZM169.245 14.9551C169.245 15.221 169.291 15.4684 169.384 15.6973C169.483 15.9199 169.622 16.1147 169.801 16.2817C169.981 16.4487 170.194 16.5786 170.441 16.6714C170.695 16.7642 170.979 16.8105 171.295 16.8105C171.66 16.8105 171.981 16.7456 172.26 16.6157C172.544 16.4797 172.782 16.291 172.974 16.0498C173.166 15.8086 173.311 15.5241 173.41 15.1963C173.509 14.8623 173.559 14.4974 173.559 14.1016V13.981C173.559 13.5851 173.509 13.2202 173.41 12.8862C173.311 12.5522 173.166 12.2646 172.974 12.0234C172.782 11.776 172.544 11.5843 172.26 11.4482C171.981 11.3122 171.66 11.2441 171.295 11.2441C170.979 11.2441 170.695 11.2905 170.441 11.3833C170.194 11.4761 169.981 11.606 169.801 11.7729C169.622 11.9399 169.483 12.1379 169.384 12.3667C169.291 12.5955 169.245 12.8429 169.245 13.1089V14.9551ZM180.47 22.1357H177.91V9.06396H180.47V9.91748C180.749 9.62679 181.092 9.37939 181.5 9.17529C181.908 8.97119 182.403 8.86914 182.984 8.86914C183.64 8.86914 184.234 9.00212 184.766 9.26807C185.304 9.52783 185.764 9.88965 186.148 10.3535C186.531 10.8112 186.828 11.3555 187.039 11.9863C187.249 12.6172 187.354 13.3006 187.354 14.0366C187.354 14.7726 187.246 15.4561 187.029 16.0869C186.813 16.7178 186.51 17.262 186.12 17.7197C185.73 18.1774 185.264 18.5361 184.719 18.7959C184.175 19.0557 183.575 19.1855 182.919 19.1855C182.629 19.1855 182.363 19.1577 182.122 19.1021C181.887 19.0526 181.67 18.9814 181.472 18.8887C181.274 18.7959 181.092 18.6877 180.925 18.564C180.758 18.4341 180.606 18.2949 180.47 18.1465V22.1357ZM180.396 14.9551C180.396 15.221 180.442 15.4684 180.535 15.6973C180.634 15.9199 180.773 16.1147 180.953 16.2817C181.132 16.4487 181.345 16.5786 181.593 16.6714C181.846 16.7642 182.131 16.8105 182.446 16.8105C182.811 16.8105 183.133 16.7456 183.411 16.6157C183.696 16.4797 183.934 16.291 184.125 16.0498C184.317 15.8086 184.463 15.5241 184.562 15.1963C184.66 14.8623 184.71 14.4974 184.71 14.1016V13.981C184.71 13.5851 184.66 13.2202 184.562 12.8862C184.463 12.5522 184.317 12.2646 184.125 12.0234C183.934 11.776 183.696 11.5843 183.411 11.4482C183.133 11.3122 182.811 11.2441 182.446 11.2441C182.131 11.2441 181.846 11.2905 181.593 11.3833C181.345 11.4761 181.132 11.606 180.953 11.7729C180.773 11.9399 180.634 12.1379 180.535 12.3667C180.442 12.5955 180.396 12.8429 180.396 13.1089V14.9551ZM191.204 14.918C191.247 15.2148 191.34 15.487 191.482 15.7344C191.631 15.9818 191.816 16.1951 192.039 16.3745C192.262 16.5477 192.518 16.6838 192.809 16.7827C193.1 16.8817 193.409 16.9312 193.737 16.9312C194.114 16.9312 194.522 16.86 194.961 16.7178C195.401 16.5693 195.803 16.356 196.167 16.0776L197.401 17.8774C196.938 18.2671 196.368 18.5825 195.694 18.8237C195.02 19.0649 194.303 19.1855 193.542 19.1855C192.855 19.1855 192.209 19.068 191.603 18.833C190.997 18.598 190.465 18.2578 190.007 17.8125C189.556 17.3672 189.197 16.826 188.931 16.189C188.671 15.5519 188.542 14.8345 188.542 14.0366C188.542 13.3068 188.656 12.6265 188.885 11.9956C189.12 11.3647 189.444 10.8174 189.859 10.3535C190.279 9.88965 190.78 9.52783 191.362 9.26807C191.943 9.00212 192.586 8.86914 193.292 8.86914C193.947 8.86914 194.556 8.98975 195.119 9.23096C195.682 9.46598 196.171 9.79997 196.585 10.2329C196.999 10.6597 197.324 11.173 197.559 11.7729C197.794 12.3729 197.912 13.0347 197.912 13.7583V14.918H191.204ZM193.282 11.0957C192.732 11.0957 192.265 11.2812 191.881 11.6523C191.504 12.0173 191.285 12.4595 191.223 12.979H195.23C195.218 12.4533 195.026 12.008 194.655 11.6431C194.284 11.2782 193.826 11.0957 193.282 11.0957ZM199.507 5.69629H202.068V16.3003C202.068 16.5106 202.127 16.6714 202.244 16.7827C202.368 16.894 202.563 16.9497 202.829 16.9497C202.952 16.9497 203.057 16.9435 203.144 16.9312C203.237 16.9126 203.354 16.8879 203.497 16.8569L203.701 19.0371C203.528 19.0618 203.342 19.0866 203.144 19.1113C202.977 19.1299 202.782 19.1453 202.56 19.1577C202.343 19.1763 202.117 19.1855 201.882 19.1855C201.517 19.1855 201.19 19.1392 200.899 19.0464C200.608 18.9536 200.358 18.8175 200.147 18.6382C199.943 18.4526 199.786 18.2238 199.674 17.9517C199.563 17.6795 199.507 17.3641 199.507 17.0054V5.69629ZM205.074 5.69629H207.634V16.3003C207.634 16.5106 207.693 16.6714 207.811 16.7827C207.934 16.894 208.129 16.9497 208.395 16.9497C208.519 16.9497 208.624 16.9435 208.71 16.9312C208.803 16.9126 208.921 16.8879 209.063 16.8569L209.267 19.0371C209.094 19.0618 208.908 19.0866 208.71 19.1113C208.543 19.1299 208.349 19.1453 208.126 19.1577C207.91 19.1763 207.684 19.1855 207.449 19.1855C207.084 19.1855 206.756 19.1392 206.465 19.0464C206.175 18.9536 205.924 18.8175 205.714 18.6382C205.51 18.4526 205.352 18.2238 205.241 17.9517C205.129 17.6795 205.074 17.3641 205.074 17.0054V5.69629ZM213.887 14.9644C213.572 15.0138 213.318 15.1252 213.126 15.2983C212.935 15.4653 212.839 15.6942 212.839 15.9849C212.839 16.3065 212.956 16.5848 213.191 16.8198C213.426 17.0487 213.773 17.1631 214.23 17.1631C214.713 17.1631 215.093 17.0239 215.372 16.7456C215.65 16.4673 215.789 16.0993 215.789 15.6416V14.6396L213.887 14.9644ZM216.207 18.063C216.101 18.1805 215.972 18.3073 215.817 18.4434C215.668 18.5732 215.489 18.6938 215.279 18.8052C215.075 18.9103 214.833 19 214.555 19.0742C214.277 19.1484 213.965 19.1855 213.618 19.1855C213.123 19.1855 212.666 19.1082 212.245 18.9536C211.831 18.7928 211.466 18.5701 211.15 18.2856C210.835 18.0011 210.588 17.6733 210.408 17.3022C210.229 16.925 210.139 16.5168 210.139 16.0776C210.139 15.2798 210.387 14.6273 210.881 14.1201C211.376 13.613 212.06 13.2944 212.932 13.1646L215.789 12.7471V12.5615C215.789 12.1162 215.653 11.7637 215.381 11.5039C215.109 11.2441 214.667 11.1143 214.054 11.1143C213.801 11.1143 213.544 11.1452 213.284 11.207C213.024 11.2627 212.774 11.3276 212.533 11.4019C212.298 11.4761 212.078 11.5627 211.874 11.6616C211.67 11.7544 211.491 11.8379 211.336 11.9121L210.334 9.95459C210.903 9.63916 211.534 9.37939 212.227 9.17529C212.925 8.97119 213.649 8.86914 214.397 8.86914C214.855 8.86914 215.316 8.91862 215.78 9.01758C216.25 9.11035 216.674 9.28353 217.051 9.53711C217.434 9.79069 217.747 10.137 217.988 10.5762C218.229 11.0091 218.35 11.5627 218.35 12.2368V16.3188C218.35 16.6095 218.424 16.826 218.572 16.9683C218.727 17.1043 218.937 17.2311 219.203 17.3486L218.043 19.1855C217.573 19.1361 217.196 19.0155 216.912 18.8237C216.627 18.6258 216.392 18.3722 216.207 18.063ZM220.493 9.06396H223.053V9.91748C223.189 9.78141 223.341 9.65153 223.508 9.52783C223.681 9.39795 223.87 9.28662 224.074 9.19385C224.278 9.09489 224.504 9.01758 224.751 8.96191C225.005 8.90007 225.283 8.86914 225.586 8.86914C226.124 8.86914 226.606 8.95882 227.033 9.13818C227.46 9.31136 227.819 9.55257 228.109 9.86182C228.406 10.1711 228.632 10.5329 228.787 10.9473C228.941 11.3617 229.019 11.8101 229.019 12.2925V19H226.458V13.2202C226.458 12.8677 226.418 12.5708 226.337 12.3296C226.257 12.0822 226.146 11.8843 226.003 11.7358C225.867 11.5812 225.703 11.4699 225.512 11.4019C225.326 11.3276 225.122 11.2905 224.899 11.2905C224.64 11.2905 224.395 11.3369 224.167 11.4297C223.944 11.5225 223.749 11.6647 223.582 11.8564C223.415 12.042 223.285 12.277 223.192 12.5615C223.1 12.846 223.053 13.18 223.053 13.5635V19H220.493V9.06396ZM234.826 16.0405C234.826 16.158 234.842 16.2694 234.873 16.3745C234.903 16.4797 234.956 16.5724 235.03 16.6528C235.111 16.7271 235.222 16.7858 235.364 16.8291C235.507 16.8724 235.689 16.894 235.912 16.894C236.004 16.894 236.11 16.891 236.227 16.8848C236.345 16.8724 236.462 16.86 236.58 16.8477C236.697 16.8353 236.805 16.8198 236.904 16.8013C237.009 16.7827 237.096 16.7673 237.164 16.7549L237.396 19.0186C237.155 19.0495 236.904 19.0773 236.645 19.1021C236.422 19.1268 236.174 19.1453 235.902 19.1577C235.63 19.1763 235.355 19.1855 235.077 19.1855C234.192 19.1855 233.503 18.9845 233.008 18.5825C232.513 18.1805 232.266 17.5404 232.266 16.6621V11.2905H230.475V9.06396H232.266V6.25293L234.826 5.56641V9.06396H237.433V11.2905H234.826V16.0405ZM245.041 19H242.48V9.06396H245.041V19ZM242.211 6.45703C242.211 6.24674 242.251 6.04883 242.332 5.86328C242.412 5.67155 242.52 5.50765 242.656 5.37158C242.799 5.22933 242.962 5.118 243.148 5.0376C243.333 4.95719 243.535 4.91699 243.751 4.91699C243.961 4.91699 244.159 4.95719 244.345 5.0376C244.536 5.118 244.7 5.22933 244.836 5.37158C244.979 5.50765 245.09 5.67155 245.17 5.86328C245.251 6.04883 245.291 6.24674 245.291 6.45703C245.291 6.6735 245.251 6.87451 245.17 7.06006C245.09 7.24561 244.979 7.40951 244.836 7.55176C244.7 7.68783 244.536 7.79606 244.345 7.87646C244.159 7.95687 243.961 7.99707 243.751 7.99707C243.535 7.99707 243.333 7.95687 243.148 7.87646C242.962 7.79606 242.799 7.68783 242.656 7.55176C242.52 7.40951 242.412 7.24561 242.332 7.06006C242.251 6.87451 242.211 6.6735 242.211 6.45703ZM247.249 9.06396H249.809V9.91748C249.945 9.78141 250.097 9.65153 250.264 9.52783C250.437 9.39795 250.625 9.28662 250.83 9.19385C251.034 9.09489 251.259 9.01758 251.507 8.96191C251.76 8.90007 252.039 8.86914 252.342 8.86914C252.88 8.86914 253.362 8.95882 253.789 9.13818C254.216 9.31136 254.575 9.55257 254.865 9.86182C255.162 10.1711 255.388 10.5329 255.542 10.9473C255.697 11.3617 255.774 11.8101 255.774 12.2925V19H253.214V13.2202C253.214 12.8677 253.174 12.5708 253.093 12.3296C253.013 12.0822 252.902 11.8843 252.759 11.7358C252.623 11.5812 252.459 11.4699 252.268 11.4019C252.082 11.3276 251.878 11.2905 251.655 11.2905C251.396 11.2905 251.151 11.3369 250.922 11.4297C250.7 11.5225 250.505 11.6647 250.338 11.8564C250.171 12.042 250.041 12.277 249.948 12.5615C249.855 12.846 249.809 13.18 249.809 13.5635V19H247.249V9.06396ZM263.911 22.1357H261.35V9.06396H263.911V9.91748C264.189 9.62679 264.532 9.37939 264.94 9.17529C265.349 8.97119 265.843 8.86914 266.425 8.86914C267.08 8.86914 267.674 9.00212 268.206 9.26807C268.744 9.52783 269.205 9.88965 269.588 10.3535C269.972 10.8112 270.269 11.3555 270.479 11.9863C270.689 12.6172 270.794 13.3006 270.794 14.0366C270.794 14.7726 270.686 15.4561 270.47 16.0869C270.253 16.7178 269.95 17.262 269.561 17.7197C269.171 18.1774 268.704 18.5361 268.16 18.7959C267.615 19.0557 267.015 19.1855 266.36 19.1855C266.069 19.1855 265.803 19.1577 265.562 19.1021C265.327 19.0526 265.111 18.9814 264.913 18.8887C264.715 18.7959 264.532 18.6877 264.365 18.564C264.198 18.4341 264.047 18.2949 263.911 18.1465V22.1357ZM263.836 14.9551C263.836 15.221 263.883 15.4684 263.976 15.6973C264.075 15.9199 264.214 16.1147 264.393 16.2817C264.572 16.4487 264.786 16.5786 265.033 16.6714C265.287 16.7642 265.571 16.8105 265.887 16.8105C266.252 16.8105 266.573 16.7456 266.852 16.6157C267.136 16.4797 267.374 16.291 267.566 16.0498C267.758 15.8086 267.903 15.5241 268.002 15.1963C268.101 14.8623 268.15 14.4974 268.15 14.1016V13.981C268.15 13.5851 268.101 13.2202 268.002 12.8862C267.903 12.5522 267.758 12.2646 267.566 12.0234C267.374 11.776 267.136 11.5843 266.852 11.4482C266.573 11.3122 266.252 11.2441 265.887 11.2441C265.571 11.2441 265.287 11.2905 265.033 11.3833C264.786 11.4761 264.572 11.606 264.393 11.7729C264.214 11.9399 264.075 12.1379 263.976 12.3667C263.883 12.5955 263.836 12.8429 263.836 13.1089V14.9551ZM274.645 14.918C274.688 15.2148 274.781 15.487 274.923 15.7344C275.071 15.9818 275.257 16.1951 275.479 16.3745C275.702 16.5477 275.959 16.6838 276.25 16.7827C276.54 16.8817 276.849 16.9312 277.177 16.9312C277.555 16.9312 277.963 16.86 278.402 16.7178C278.841 16.5693 279.243 16.356 279.608 16.0776L280.842 17.8774C280.378 18.2671 279.809 18.5825 279.135 18.8237C278.461 19.0649 277.743 19.1855 276.982 19.1855C276.296 19.1855 275.65 19.068 275.043 18.833C274.437 18.598 273.905 18.2578 273.448 17.8125C272.996 17.3672 272.638 16.826 272.372 16.189C272.112 15.5519 271.982 14.8345 271.982 14.0366C271.982 13.3068 272.096 12.6265 272.325 11.9956C272.56 11.3647 272.885 10.8174 273.299 10.3535C273.72 9.88965 274.221 9.52783 274.802 9.26807C275.384 9.00212 276.027 8.86914 276.732 8.86914C277.388 8.86914 277.997 8.98975 278.56 9.23096C279.122 9.46598 279.611 9.79997 280.025 10.2329C280.44 10.6597 280.764 11.173 281 11.7729C281.235 12.3729 281.352 13.0347 281.352 13.7583V14.918H274.645ZM276.723 11.0957C276.172 11.0957 275.705 11.2812 275.322 11.6523C274.944 12.0173 274.725 12.4595 274.663 12.979H278.671C278.659 12.4533 278.467 12.008 278.096 11.6431C277.725 11.2782 277.267 11.0957 276.723 11.0957ZM288.57 11.5503H288.301C287.936 11.5503 287.586 11.5874 287.252 11.6616C286.925 11.7358 286.634 11.8719 286.38 12.0698C286.127 12.2616 285.923 12.5275 285.768 12.8677C285.62 13.2078 285.545 13.6439 285.545 14.1758V19H282.985V9.06396H285.545V10.1865C285.651 10.0195 285.787 9.85872 285.954 9.7041C286.121 9.54948 286.315 9.41341 286.538 9.2959C286.761 9.1722 287.011 9.07324 287.29 8.99902C287.568 8.9248 287.868 8.8877 288.189 8.8877H288.57V11.5503ZM290.871 15.8271C291.236 16.1549 291.672 16.4364 292.179 16.6714C292.686 16.9064 293.199 17.0239 293.719 17.0239C294.096 17.0239 294.393 16.9528 294.609 16.8105C294.826 16.6621 294.934 16.4735 294.934 16.2446C294.934 15.855 294.517 15.5519 293.682 15.3354L292.958 15.1406C292.599 15.054 292.237 14.9365 291.873 14.7881C291.508 14.6335 291.171 14.4325 290.861 14.1851C290.558 13.9377 290.311 13.6377 290.119 13.2852C289.934 12.9264 289.841 12.4873 289.841 11.9678C289.841 11.5534 289.931 11.1606 290.11 10.7896C290.295 10.4123 290.555 10.0814 290.889 9.79688C291.229 9.51237 291.641 9.28662 292.123 9.11963C292.605 8.95264 293.144 8.86914 293.737 8.86914C294.585 8.86914 295.339 9.00212 296.001 9.26807C296.669 9.53402 297.195 9.83398 297.578 10.168L296.242 11.875C295.927 11.6462 295.553 11.4513 295.12 11.2905C294.693 11.1235 294.263 11.04 293.83 11.04C293.428 11.04 293.116 11.1143 292.893 11.2627C292.67 11.4049 292.559 11.5781 292.559 11.7822C292.559 11.9987 292.655 12.175 292.847 12.311C293.045 12.4409 293.329 12.5553 293.7 12.6543L294.776 12.9604C295.803 13.2511 296.539 13.6439 296.984 14.1387C297.43 14.6335 297.652 15.2581 297.652 16.0127C297.652 16.4333 297.566 16.8353 297.393 17.2188C297.219 17.596 296.966 17.9331 296.632 18.23C296.298 18.5269 295.883 18.7619 295.389 18.9351C294.894 19.1021 294.331 19.1855 293.7 19.1855C293.218 19.1855 292.763 19.1423 292.336 19.0557C291.916 18.9691 291.523 18.8516 291.158 18.7031C290.799 18.5485 290.475 18.3753 290.184 18.1836C289.893 17.9919 289.646 17.8001 289.442 17.6084L290.871 15.8271ZM303.683 8.86914C304.419 8.86914 305.087 9.00212 305.687 9.26807C306.286 9.52783 306.8 9.88965 307.227 10.3535C307.653 10.8174 307.981 11.3647 308.21 11.9956C308.445 12.6265 308.562 13.3068 308.562 14.0366C308.562 14.7726 308.445 15.4561 308.21 16.0869C307.975 16.7116 307.644 17.2528 307.217 17.7104C306.791 18.1681 306.277 18.5299 305.677 18.7959C305.077 19.0557 304.412 19.1855 303.683 19.1855C302.947 19.1855 302.279 19.0557 301.679 18.7959C301.079 18.5299 300.565 18.1681 300.139 17.7104C299.712 17.2528 299.381 16.7116 299.146 16.0869C298.911 15.4561 298.793 14.7726 298.793 14.0366C298.793 13.3068 298.908 12.6265 299.137 11.9956C299.372 11.3647 299.703 10.8174 300.129 10.3535C300.556 9.88965 301.069 9.52783 301.669 9.26807C302.276 9.00212 302.947 8.86914 303.683 8.86914ZM303.683 16.8105C304.048 16.8105 304.369 16.7425 304.647 16.6064C304.932 16.4704 305.17 16.2817 305.362 16.0405C305.554 15.7993 305.699 15.5117 305.798 15.1777C305.897 14.8376 305.946 14.4665 305.946 14.0645V13.9995C305.946 13.5975 305.897 13.2295 305.798 12.8955C305.699 12.5553 305.554 12.2646 305.362 12.0234C305.17 11.776 304.932 11.5843 304.647 11.4482C304.369 11.3122 304.048 11.2441 303.683 11.2441C303.318 11.2441 302.993 11.3122 302.708 11.4482C302.43 11.5843 302.195 11.776 302.003 12.0234C301.812 12.2646 301.666 12.5553 301.567 12.8955C301.468 13.2295 301.419 13.5975 301.419 13.9995V14.0645C301.419 14.4665 301.468 14.8376 301.567 15.1777C301.666 15.5117 301.812 15.7993 302.003 16.0405C302.195 16.2817 302.43 16.4704 302.708 16.6064C302.993 16.7425 303.318 16.8105 303.683 16.8105ZM310.26 9.06396H312.821V9.91748C312.957 9.78141 313.108 9.65153 313.275 9.52783C313.449 9.39795 313.637 9.28662 313.841 9.19385C314.045 9.09489 314.271 9.01758 314.519 8.96191C314.772 8.90007 315.05 8.86914 315.354 8.86914C315.892 8.86914 316.374 8.95882 316.801 9.13818C317.228 9.31136 317.586 9.55257 317.877 9.86182C318.174 10.1711 318.4 10.5329 318.554 10.9473C318.709 11.3617 318.786 11.8101 318.786 12.2925V19H316.226V13.2202C316.226 12.8677 316.185 12.5708 316.105 12.3296C316.025 12.0822 315.913 11.8843 315.771 11.7358C315.635 11.5812 315.471 11.4699 315.279 11.4019C315.094 11.3276 314.89 11.2905 314.667 11.2905C314.407 11.2905 314.163 11.3369 313.934 11.4297C313.711 11.5225 313.517 11.6647 313.35 11.8564C313.183 12.042 313.053 12.277 312.96 12.5615C312.867 12.846 312.821 13.18 312.821 13.5635V19H310.26V9.06396ZM323.638 11.9121H327.627V14.2129H323.638V11.9121ZM340.922 19H338.352V13.2202C338.352 12.8677 338.312 12.5708 338.231 12.3296C338.157 12.0822 338.052 11.8843 337.916 11.7358C337.78 11.5812 337.622 11.473 337.443 11.4111C337.264 11.3431 337.069 11.3091 336.858 11.3091C336.611 11.3091 336.379 11.3524 336.163 11.439C335.952 11.5256 335.767 11.6616 335.606 11.8472C335.451 12.0327 335.328 12.2708 335.235 12.5615C335.148 12.846 335.105 13.1862 335.105 13.582V19H332.544V9.06396H335.105V9.93604C335.433 9.57113 335.813 9.30208 336.246 9.12891C336.685 8.95573 337.155 8.86914 337.656 8.86914C338.17 8.86914 338.649 8.97428 339.094 9.18457C339.546 9.39486 339.92 9.74121 340.217 10.2236C340.39 9.97624 340.588 9.76595 340.811 9.59277C341.039 9.4196 341.284 9.28044 341.543 9.17529C341.803 9.07015 342.072 8.99284 342.351 8.94336C342.635 8.89388 342.926 8.86914 343.223 8.86914C343.779 8.86914 344.274 8.96191 344.707 9.14746C345.146 9.32682 345.517 9.57113 345.82 9.88037C346.123 10.1896 346.355 10.5452 346.516 10.9473C346.677 11.3493 346.757 11.7729 346.757 12.2183V19H344.169V13.2202C344.169 12.8677 344.129 12.5708 344.048 12.3296C343.974 12.0822 343.869 11.8843 343.733 11.7358C343.597 11.5812 343.436 11.473 343.25 11.4111C343.071 11.3431 342.876 11.3091 342.666 11.3091C342.419 11.3091 342.19 11.3524 341.979 11.439C341.769 11.5256 341.584 11.6616 341.423 11.8472C341.268 12.0327 341.145 12.2708 341.052 12.5615C340.965 12.846 340.922 13.1862 340.922 13.582V19ZM352.101 14.9644C351.786 15.0138 351.532 15.1252 351.34 15.2983C351.149 15.4653 351.053 15.6942 351.053 15.9849C351.053 16.3065 351.17 16.5848 351.405 16.8198C351.64 17.0487 351.987 17.1631 352.444 17.1631C352.927 17.1631 353.307 17.0239 353.585 16.7456C353.864 16.4673 354.003 16.0993 354.003 15.6416V14.6396L352.101 14.9644ZM354.42 18.063C354.315 18.1805 354.185 18.3073 354.031 18.4434C353.882 18.5732 353.703 18.6938 353.493 18.8052C353.289 18.9103 353.047 19 352.769 19.0742C352.491 19.1484 352.178 19.1855 351.832 19.1855C351.337 19.1855 350.88 19.1082 350.459 18.9536C350.045 18.7928 349.68 18.5701 349.364 18.2856C349.049 18.0011 348.801 17.6733 348.622 17.3022C348.443 16.925 348.353 16.5168 348.353 16.0776C348.353 15.2798 348.6 14.6273 349.095 14.1201C349.59 13.613 350.273 13.2944 351.146 13.1646L354.003 12.7471V12.5615C354.003 12.1162 353.867 11.7637 353.595 11.5039C353.323 11.2441 352.88 11.1143 352.268 11.1143C352.014 11.1143 351.758 11.1452 351.498 11.207C351.238 11.2627 350.988 11.3276 350.747 11.4019C350.512 11.4761 350.292 11.5627 350.088 11.6616C349.884 11.7544 349.704 11.8379 349.55 11.9121L348.548 9.95459C349.117 9.63916 349.748 9.37939 350.44 9.17529C351.139 8.97119 351.863 8.86914 352.611 8.86914C353.069 8.86914 353.53 8.91862 353.994 9.01758C354.464 9.11035 354.887 9.28353 355.265 9.53711C355.648 9.79069 355.96 10.137 356.202 10.5762C356.443 11.0091 356.563 11.5627 356.563 12.2368V16.3188C356.563 16.6095 356.638 16.826 356.786 16.9683C356.941 17.1043 357.151 17.2311 357.417 17.3486L356.257 19.1855C355.787 19.1361 355.41 19.0155 355.125 18.8237C354.841 18.6258 354.606 18.3722 354.42 18.063ZM358.707 9.06396H361.267V9.91748C361.403 9.78141 361.555 9.65153 361.722 9.52783C361.895 9.39795 362.083 9.28662 362.288 9.19385C362.492 9.09489 362.717 9.01758 362.965 8.96191C363.218 8.90007 363.497 8.86914 363.8 8.86914C364.338 8.86914 364.82 8.95882 365.247 9.13818C365.674 9.31136 366.033 9.55257 366.323 9.86182C366.62 10.1711 366.846 10.5329 367 10.9473C367.155 11.3617 367.232 11.8101 367.232 12.2925V19H364.672V13.2202C364.672 12.8677 364.632 12.5708 364.551 12.3296C364.471 12.0822 364.36 11.8843 364.217 11.7358C364.081 11.5812 363.917 11.4699 363.726 11.4019C363.54 11.3276 363.336 11.2905 363.113 11.2905C362.854 11.2905 362.609 11.3369 362.38 11.4297C362.158 11.5225 361.963 11.6647 361.796 11.8564C361.629 12.042 361.499 12.277 361.406 12.5615C361.313 12.846 361.267 13.18 361.267 13.5635V19H358.707V9.06396ZM377.827 19H375.267V18.1465C375.124 18.2826 374.97 18.4155 374.803 18.5454C374.636 18.6691 374.45 18.7804 374.246 18.8794C374.042 18.9722 373.813 19.0464 373.56 19.1021C373.312 19.1577 373.037 19.1855 372.734 19.1855C372.196 19.1855 371.713 19.099 371.287 18.9258C370.86 18.7464 370.498 18.5052 370.201 18.2021C369.91 17.8929 369.688 17.5311 369.533 17.1167C369.379 16.7023 369.301 16.2539 369.301 15.7715V9.06396H371.862V14.8345C371.862 15.187 371.899 15.487 371.973 15.7344C372.054 15.9818 372.162 16.1828 372.298 16.3374C372.44 16.4858 372.607 16.5972 372.799 16.6714C372.991 16.7394 373.198 16.7734 373.42 16.7734C373.68 16.7734 373.921 16.7271 374.144 16.6343C374.373 16.5415 374.571 16.4023 374.738 16.2168C374.905 16.0251 375.035 15.7869 375.127 15.5024C375.22 15.2179 375.267 14.884 375.267 14.5005V9.06396H377.827V19ZM383.254 14.9644C382.939 15.0138 382.685 15.1252 382.494 15.2983C382.302 15.4653 382.206 15.6942 382.206 15.9849C382.206 16.3065 382.324 16.5848 382.559 16.8198C382.794 17.0487 383.14 17.1631 383.598 17.1631C384.08 17.1631 384.46 17.0239 384.739 16.7456C385.017 16.4673 385.156 16.0993 385.156 15.6416V14.6396L383.254 14.9644ZM385.574 18.063C385.469 18.1805 385.339 18.3073 385.184 18.4434C385.036 18.5732 384.856 18.6938 384.646 18.8052C384.442 18.9103 384.201 19 383.922 19.0742C383.644 19.1484 383.332 19.1855 382.985 19.1855C382.491 19.1855 382.033 19.1082 381.612 18.9536C381.198 18.7928 380.833 18.5701 380.518 18.2856C380.202 18.0011 379.955 17.6733 379.775 17.3022C379.596 16.925 379.506 16.5168 379.506 16.0776C379.506 15.2798 379.754 14.6273 380.249 14.1201C380.743 13.613 381.427 13.2944 382.299 13.1646L385.156 12.7471V12.5615C385.156 12.1162 385.02 11.7637 384.748 11.5039C384.476 11.2441 384.034 11.1143 383.421 11.1143C383.168 11.1143 382.911 11.1452 382.651 11.207C382.392 11.2627 382.141 11.3276 381.9 11.4019C381.665 11.4761 381.445 11.5627 381.241 11.6616C381.037 11.7544 380.858 11.8379 380.703 11.9121L379.701 9.95459C380.27 9.63916 380.901 9.37939 381.594 9.17529C382.293 8.97119 383.016 8.86914 383.765 8.86914C384.222 8.86914 384.683 8.91862 385.147 9.01758C385.617 9.11035 386.041 9.28353 386.418 9.53711C386.801 9.79069 387.114 10.137 387.355 10.5762C387.596 11.0091 387.717 11.5627 387.717 12.2368V16.3188C387.717 16.6095 387.791 16.826 387.939 16.9683C388.094 17.1043 388.304 17.2311 388.57 17.3486L387.411 19.1855C386.941 19.1361 386.563 19.0155 386.279 18.8237C385.994 18.6258 385.759 18.3722 385.574 18.063ZM389.823 5.69629H392.383V16.3003C392.383 16.5106 392.442 16.6714 392.56 16.7827C392.683 16.894 392.878 16.9497 393.144 16.9497C393.268 16.9497 393.373 16.9435 393.459 16.9312C393.552 16.9126 393.67 16.8879 393.812 16.8569L394.016 19.0371C393.843 19.0618 393.657 19.0866 393.459 19.1113C393.292 19.1299 393.098 19.1453 392.875 19.1577C392.659 19.1763 392.433 19.1855 392.198 19.1855C391.833 19.1855 391.505 19.1392 391.214 19.0464C390.924 18.9536 390.673 18.8175 390.463 18.6382C390.259 18.4526 390.101 18.2238 389.99 17.9517C389.878 17.6795 389.823 17.3641 389.823 17.0054V5.69629Z" fill="white"/>
<rect width="138" height="27" fill="#001CB8"/>
<path d="M15.0156 14.7046L11.082 9.7876V19H8.3916V5.69629H11.1191L15.0527 10.8916L19.1069 5.69629H21.7231V19H19.0234V9.7876L15.1084 14.7046H15.0156ZM26.7886 19H24.228V9.06396H26.7886V19ZM23.959 6.45703C23.959 6.24674 23.9992 6.04883 24.0796 5.86328C24.16 5.67155 24.2682 5.50765 24.4043 5.37158C24.5465 5.22933 24.7104 5.118 24.896 5.0376C25.0815 4.95719 25.2826 4.91699 25.499 4.91699C25.7093 4.91699 25.9072 4.95719 26.0928 5.0376C26.2845 5.118 26.4484 5.22933 26.5845 5.37158C26.7267 5.50765 26.8381 5.67155 26.9185 5.86328C26.9989 6.04883 27.0391 6.24674 27.0391 6.45703C27.0391 6.6735 26.9989 6.87451 26.9185 7.06006C26.8381 7.24561 26.7267 7.40951 26.5845 7.55176C26.4484 7.68783 26.2845 7.79606 26.0928 7.87646C25.9072 7.95687 25.7093 7.99707 25.499 7.99707C25.2826 7.99707 25.0815 7.95687 24.896 7.87646C24.7104 7.79606 24.5465 7.68783 24.4043 7.55176C24.2682 7.40951 24.16 7.24561 24.0796 7.06006C23.9992 6.87451 23.959 6.6735 23.959 6.45703ZM35.0361 17.2373C34.8073 17.5156 34.4857 17.7383 34.0713 17.9053C33.6631 18.0661 33.2178 18.1465 32.7354 18.1465C32.0674 18.1465 31.4736 18.029 30.9541 17.7939C30.4346 17.5589 29.9954 17.2373 29.6367 16.8291C29.2842 16.4147 29.012 15.9261 28.8203 15.3633C28.6348 14.8005 28.542 14.182 28.542 13.5078C28.542 12.8522 28.6348 12.2399 28.8203 11.6709C29.012 11.0957 29.2842 10.604 29.6367 10.1958C29.9954 9.78141 30.4346 9.45671 30.9541 9.22168C31.4736 8.98665 32.0674 8.86914 32.7354 8.86914C33.2178 8.86914 33.6631 8.95264 34.0713 9.11963C34.4857 9.28662 34.8073 9.50928 35.0361 9.7876V9.06396H37.606V18.9072C37.606 19.5133 37.4915 20.0329 37.2627 20.4658C37.0339 20.9049 36.7184 21.2637 36.3164 21.542C35.9206 21.8203 35.4598 22.0213 34.9341 22.145C34.4084 22.2749 33.8486 22.3398 33.2549 22.3398C32.5312 22.3398 31.7767 22.2533 30.9912 22.0801C30.2057 21.9131 29.5285 21.7028 28.9595 21.4492L29.6831 19.3804C29.8563 19.4546 30.0697 19.535 30.3232 19.6216C30.5768 19.7144 30.849 19.7948 31.1396 19.8628C31.4303 19.9308 31.7334 19.9865 32.0488 20.0298C32.3704 20.0793 32.6828 20.104 32.9858 20.104C33.2518 20.104 33.5085 20.0762 33.7559 20.0205C34.0033 19.971 34.2197 19.8844 34.4053 19.7607C34.597 19.6432 34.7485 19.4855 34.8599 19.2876C34.9774 19.0959 35.0361 18.8485 35.0361 18.5454V17.2373ZM31.1768 13.5449C31.1768 13.8727 31.2108 14.182 31.2788 14.4727C31.353 14.7572 31.4674 15.0015 31.6221 15.2056C31.7829 15.4035 31.987 15.5612 32.2344 15.6787C32.4818 15.79 32.7817 15.8457 33.1343 15.8457C33.8332 15.8457 34.3311 15.6261 34.6279 15.187C34.9248 14.7417 35.0732 14.1943 35.0732 13.5449V13.4707C35.0732 13.1429 35.0392 12.8368 34.9712 12.5522C34.9032 12.2677 34.7918 12.0234 34.6372 11.8193C34.4826 11.6152 34.2816 11.4575 34.0342 11.3462C33.793 11.2287 33.493 11.1699 33.1343 11.1699C32.4416 11.1699 31.9406 11.3895 31.6313 11.8286C31.3283 12.2677 31.1768 12.8151 31.1768 13.4707V13.5449ZM45.3989 11.5503H45.1299C44.765 11.5503 44.4155 11.5874 44.0815 11.6616C43.7537 11.7358 43.4631 11.8719 43.2095 12.0698C42.9559 12.2616 42.7518 12.5275 42.5972 12.8677C42.4487 13.2078 42.3745 13.6439 42.3745 14.1758V19H39.814V9.06396H42.3745V10.1865C42.4797 10.0195 42.6157 9.85872 42.7827 9.7041C42.9497 9.54948 43.1445 9.41341 43.3672 9.2959C43.5898 9.1722 43.8403 9.07324 44.1187 8.99902C44.397 8.9248 44.6969 8.8877 45.0186 8.8877H45.3989V11.5503ZM50.2046 14.9644C49.8892 15.0138 49.6356 15.1252 49.4438 15.2983C49.2521 15.4653 49.1562 15.6942 49.1562 15.9849C49.1562 16.3065 49.2738 16.5848 49.5088 16.8198C49.7438 17.0487 50.0902 17.1631 50.5479 17.1631C51.0303 17.1631 51.4106 17.0239 51.689 16.7456C51.9673 16.4673 52.1064 16.0993 52.1064 15.6416V14.6396L50.2046 14.9644ZM52.5239 18.063C52.4188 18.1805 52.2889 18.3073 52.1343 18.4434C51.9858 18.5732 51.8065 18.6938 51.5962 18.8052C51.3921 18.9103 51.1509 19 50.8726 19.0742C50.5942 19.1484 50.2819 19.1855 49.9355 19.1855C49.4408 19.1855 48.9831 19.1082 48.5625 18.9536C48.1481 18.7928 47.7832 18.5701 47.4678 18.2856C47.1523 18.0011 46.9049 17.6733 46.7256 17.3022C46.5462 16.925 46.4565 16.5168 46.4565 16.0776C46.4565 15.2798 46.7039 14.6273 47.1987 14.1201C47.6935 13.613 48.377 13.2944 49.249 13.1646L52.1064 12.7471V12.5615C52.1064 12.1162 51.9704 11.7637 51.6982 11.5039C51.4261 11.2441 50.9839 11.1143 50.3716 11.1143C50.118 11.1143 49.8613 11.1452 49.6016 11.207C49.3418 11.2627 49.0913 11.3276 48.8501 11.4019C48.6151 11.4761 48.3955 11.5627 48.1914 11.6616C47.9873 11.7544 47.8079 11.8379 47.6533 11.9121L46.6514 9.95459C47.2204 9.63916 47.8512 9.37939 48.5439 9.17529C49.2428 8.97119 49.9665 8.86914 50.7148 8.86914C51.1725 8.86914 51.6333 8.91862 52.0972 9.01758C52.5672 9.11035 52.9909 9.28353 53.3682 9.53711C53.7516 9.79069 54.064 10.137 54.3052 10.5762C54.5464 11.0091 54.667 11.5627 54.667 12.2368V16.3188C54.667 16.6095 54.7412 16.826 54.8896 16.9683C55.0443 17.1043 55.2546 17.2311 55.5205 17.3486L54.3608 19.1855C53.8908 19.1361 53.5135 19.0155 53.229 18.8237C52.9445 18.6258 52.7095 18.3722 52.5239 18.063ZM60.085 16.0405C60.085 16.158 60.1004 16.2694 60.1313 16.3745C60.1623 16.4797 60.2148 16.5724 60.2891 16.6528C60.3695 16.7271 60.4808 16.7858 60.623 16.8291C60.7653 16.8724 60.9478 16.894 61.1704 16.894C61.2632 16.894 61.3683 16.891 61.4858 16.8848C61.6034 16.8724 61.7209 16.86 61.8384 16.8477C61.9559 16.8353 62.0641 16.8198 62.1631 16.8013C62.2682 16.7827 62.3548 16.7673 62.4229 16.7549L62.6548 19.0186C62.4136 19.0495 62.1631 19.0773 61.9033 19.1021C61.6807 19.1268 61.4333 19.1453 61.1611 19.1577C60.889 19.1763 60.6138 19.1855 60.3354 19.1855C59.451 19.1855 58.7614 18.9845 58.2666 18.5825C57.7718 18.1805 57.5244 17.5404 57.5244 16.6621V11.2905H55.7339V9.06396H57.5244V6.25293L60.085 5.56641V9.06396H62.6919V11.2905H60.085V16.0405ZM66.4492 14.918C66.4925 15.2148 66.5853 15.487 66.7275 15.7344C66.876 15.9818 67.0615 16.1951 67.2842 16.3745C67.5068 16.5477 67.7635 16.6838 68.0542 16.7827C68.3449 16.8817 68.6541 16.9312 68.9819 16.9312C69.3592 16.9312 69.7674 16.86 70.2065 16.7178C70.6457 16.5693 71.0477 16.356 71.4126 16.0776L72.6465 17.8774C72.1826 18.2671 71.6136 18.5825 70.9395 18.8237C70.2653 19.0649 69.5479 19.1855 68.7871 19.1855C68.1006 19.1855 67.4543 19.068 66.8481 18.833C66.242 18.598 65.7101 18.2578 65.2524 17.8125C64.8009 17.3672 64.4422 16.826 64.1763 16.189C63.9165 15.5519 63.7866 14.8345 63.7866 14.0366C63.7866 13.3068 63.901 12.6265 64.1299 11.9956C64.3649 11.3647 64.6896 10.8174 65.104 10.3535C65.5246 9.88965 66.0256 9.52783 66.6069 9.26807C67.1883 9.00212 67.8315 8.86914 68.5366 8.86914C69.1922 8.86914 69.8014 8.98975 70.3643 9.23096C70.9271 9.46598 71.4157 9.79997 71.8301 10.2329C72.2445 10.6597 72.5692 11.173 72.8042 11.7729C73.0392 12.3729 73.1567 13.0347 73.1567 13.7583V14.918H66.4492ZM68.5273 11.0957C67.9769 11.0957 67.5099 11.2812 67.1265 11.6523C66.7492 12.0173 66.5296 12.4595 66.4678 12.979H70.4756C70.4632 12.4533 70.2715 12.008 69.9004 11.6431C69.5293 11.2782 69.0716 11.0957 68.5273 11.0957ZM81.1724 19V18.1465C81.0363 18.2949 80.8848 18.4341 80.7178 18.564C80.557 18.6877 80.3745 18.7959 80.1704 18.8887C79.9725 18.9814 79.7529 19.0526 79.5117 19.1021C79.2767 19.1577 79.0138 19.1855 78.7231 19.1855C78.0675 19.1855 77.4676 19.0557 76.9233 18.7959C76.3791 18.5361 75.9121 18.1774 75.5225 17.7197C75.1328 17.262 74.8298 16.7178 74.6133 16.0869C74.403 15.4561 74.2979 14.7726 74.2979 14.0366C74.2979 13.3006 74.403 12.6172 74.6133 11.9863C74.8236 11.3555 75.1174 10.8112 75.4946 10.3535C75.8781 9.88965 76.3389 9.52783 76.877 9.26807C77.415 9.00212 78.0119 8.86914 78.6675 8.86914C79.2489 8.86914 79.7406 8.97119 80.1426 9.17529C80.5508 9.37321 80.894 9.62061 81.1724 9.91748V5.69629H83.7329V19H81.1724ZM81.2466 13.1089C81.2466 12.8429 81.1971 12.5955 81.0981 12.3667C81.0054 12.1379 80.8693 11.9399 80.6899 11.7729C80.5106 11.606 80.2941 11.4761 80.0405 11.3833C79.7931 11.2905 79.5117 11.2441 79.1963 11.2441C78.8314 11.2441 78.5067 11.3122 78.2222 11.4482C77.9438 11.5843 77.7088 11.776 77.5171 12.0234C77.3254 12.2646 77.18 12.5522 77.0811 12.8862C76.9821 13.2202 76.9326 13.5851 76.9326 13.981V14.1016C76.9326 14.4974 76.9821 14.8623 77.0811 15.1963C77.18 15.5241 77.3254 15.8086 77.5171 16.0498C77.7088 16.291 77.9438 16.4797 78.2222 16.6157C78.5067 16.7456 78.8314 16.8105 79.1963 16.8105C79.5117 16.8105 79.7931 16.7642 80.0405 16.6714C80.2941 16.5786 80.5106 16.4487 80.6899 16.2817C80.8693 16.1147 81.0054 15.9199 81.0981 15.6973C81.1971 15.4684 81.2466 15.221 81.2466 14.9551V13.1089ZM88.9932 12.3481C88.9932 11.3957 89.1354 10.505 89.4199 9.67627C89.7106 8.84131 90.125 8.11768 90.6631 7.50537C91.2012 6.88688 91.8537 6.40137 92.6206 6.04883C93.3875 5.6901 94.2503 5.51074 95.209 5.51074C95.9017 5.51074 96.5418 5.60042 97.1294 5.77979C97.7231 5.95915 98.255 6.21273 98.7251 6.54053C99.2013 6.86833 99.6095 7.26416 99.9497 7.72803C100.29 8.19189 100.559 8.71143 100.757 9.28662L98.1685 10.1494C98.0942 9.90202 97.9767 9.64844 97.8159 9.38867C97.6551 9.12272 97.451 8.8846 97.2036 8.67432C96.9562 8.45785 96.6655 8.28158 96.3315 8.14551C96.0037 8.00944 95.6357 7.94141 95.2275 7.94141C94.6152 7.94141 94.0895 8.0682 93.6504 8.32178C93.2174 8.56917 92.8618 8.90007 92.5835 9.31445C92.3052 9.72266 92.098 10.1896 91.9619 10.7153C91.832 11.2349 91.7671 11.7668 91.7671 12.311V12.3853C91.7671 12.9357 91.832 13.4738 91.9619 13.9995C92.098 14.519 92.3052 14.9829 92.5835 15.3911C92.8618 15.7993 93.2174 16.1302 93.6504 16.3838C94.0895 16.6312 94.6152 16.7549 95.2275 16.7549C95.6357 16.7549 96.0037 16.6868 96.3315 16.5508C96.6655 16.4147 96.9562 16.2415 97.2036 16.0312C97.451 15.8148 97.6551 15.5767 97.8159 15.3169C97.9767 15.0571 98.0942 14.8035 98.1685 14.5562L100.757 15.4097C100.559 15.9849 100.29 16.5044 99.9497 16.9683C99.6095 17.4321 99.2013 17.8311 98.7251 18.165C98.255 18.4928 97.7231 18.7464 97.1294 18.9258C96.5418 19.099 95.9017 19.1855 95.209 19.1855C94.2503 19.1855 93.3875 19.0093 92.6206 18.6567C91.8537 18.3042 91.2012 17.8187 90.6631 17.2002C90.125 16.5817 89.7106 15.8581 89.4199 15.0293C89.1354 14.2005 88.9932 13.3068 88.9932 12.3481ZM105.627 14.9644C105.312 15.0138 105.058 15.1252 104.867 15.2983C104.675 15.4653 104.579 15.6942 104.579 15.9849C104.579 16.3065 104.697 16.5848 104.932 16.8198C105.167 17.0487 105.513 17.1631 105.971 17.1631C106.453 17.1631 106.833 17.0239 107.112 16.7456C107.39 16.4673 107.529 16.0993 107.529 15.6416V14.6396L105.627 14.9644ZM107.947 18.063C107.842 18.1805 107.712 18.3073 107.557 18.4434C107.409 18.5732 107.229 18.6938 107.019 18.8052C106.815 18.9103 106.574 19 106.295 19.0742C106.017 19.1484 105.705 19.1855 105.358 19.1855C104.864 19.1855 104.406 19.1082 103.985 18.9536C103.571 18.7928 103.206 18.5701 102.891 18.2856C102.575 18.0011 102.328 17.6733 102.148 17.3022C101.969 16.925 101.879 16.5168 101.879 16.0776C101.879 15.2798 102.127 14.6273 102.622 14.1201C103.116 13.613 103.8 13.2944 104.672 13.1646L107.529 12.7471V12.5615C107.529 12.1162 107.393 11.7637 107.121 11.5039C106.849 11.2441 106.407 11.1143 105.794 11.1143C105.541 11.1143 105.284 11.1452 105.024 11.207C104.765 11.2627 104.514 11.3276 104.273 11.4019C104.038 11.4761 103.818 11.5627 103.614 11.6616C103.41 11.7544 103.231 11.8379 103.076 11.9121L102.074 9.95459C102.643 9.63916 103.274 9.37939 103.967 9.17529C104.666 8.97119 105.389 8.86914 106.138 8.86914C106.595 8.86914 107.056 8.91862 107.52 9.01758C107.99 9.11035 108.414 9.28353 108.791 9.53711C109.174 9.79069 109.487 10.137 109.728 10.5762C109.969 11.0091 110.09 11.5627 110.09 12.2368V16.3188C110.09 16.6095 110.164 16.826 110.312 16.9683C110.467 17.1043 110.677 17.2311 110.943 17.3486L109.784 19.1855C109.314 19.1361 108.936 19.0155 108.652 18.8237C108.367 18.6258 108.132 18.3722 107.947 18.063ZM112.938 15.8271C113.303 16.1549 113.739 16.4364 114.246 16.6714C114.753 16.9064 115.267 17.0239 115.786 17.0239C116.163 17.0239 116.46 16.9528 116.677 16.8105C116.893 16.6621 117.001 16.4735 117.001 16.2446C117.001 15.855 116.584 15.5519 115.749 15.3354L115.025 15.1406C114.667 15.054 114.305 14.9365 113.94 14.7881C113.575 14.6335 113.238 14.4325 112.929 14.1851C112.626 13.9377 112.378 13.6377 112.187 13.2852C112.001 12.9264 111.908 12.4873 111.908 11.9678C111.908 11.5534 111.998 11.1606 112.177 10.7896C112.363 10.4123 112.623 10.0814 112.957 9.79688C113.297 9.51237 113.708 9.28662 114.19 9.11963C114.673 8.95264 115.211 8.86914 115.805 8.86914C116.652 8.86914 117.407 9.00212 118.068 9.26807C118.736 9.53402 119.262 9.83398 119.646 10.168L118.31 11.875C117.994 11.6462 117.62 11.4513 117.187 11.2905C116.76 11.1235 116.33 11.04 115.897 11.04C115.495 11.04 115.183 11.1143 114.96 11.2627C114.738 11.4049 114.626 11.5781 114.626 11.7822C114.626 11.9987 114.722 12.175 114.914 12.311C115.112 12.4409 115.396 12.5553 115.768 12.6543L116.844 12.9604C117.87 13.2511 118.606 13.6439 119.052 14.1387C119.497 14.6335 119.72 15.2581 119.72 16.0127C119.72 16.4333 119.633 16.8353 119.46 17.2188C119.287 17.596 119.033 17.9331 118.699 18.23C118.365 18.5269 117.951 18.7619 117.456 18.9351C116.961 19.1021 116.398 19.1855 115.768 19.1855C115.285 19.1855 114.831 19.1423 114.404 19.0557C113.983 18.9691 113.59 18.8516 113.226 18.7031C112.867 18.5485 112.542 18.3753 112.251 18.1836C111.961 17.9919 111.713 17.8001 111.509 17.6084L112.938 15.8271ZM123.523 14.918C123.567 15.2148 123.66 15.487 123.802 15.7344C123.95 15.9818 124.136 16.1951 124.358 16.3745C124.581 16.5477 124.838 16.6838 125.128 16.7827C125.419 16.8817 125.728 16.9312 126.056 16.9312C126.433 16.9312 126.842 16.86 127.281 16.7178C127.72 16.5693 128.122 16.356 128.487 16.0776L129.721 17.8774C129.257 18.2671 128.688 18.5825 128.014 18.8237C127.34 19.0649 126.622 19.1855 125.861 19.1855C125.175 19.1855 124.528 19.068 123.922 18.833C123.316 18.598 122.784 18.2578 122.327 17.8125C121.875 17.3672 121.516 16.826 121.25 16.189C120.991 15.5519 120.861 14.8345 120.861 14.0366C120.861 13.3068 120.975 12.6265 121.204 11.9956C121.439 11.3647 121.764 10.8174 122.178 10.3535C122.599 9.88965 123.1 9.52783 123.681 9.26807C124.263 9.00212 124.906 8.86914 125.611 8.86914C126.266 8.86914 126.876 8.98975 127.438 9.23096C128.001 9.46598 128.49 9.79997 128.904 10.2329C129.319 10.6597 129.643 11.173 129.878 11.7729C130.113 12.3729 130.231 13.0347 130.231 13.7583V14.918H123.523ZM125.602 11.0957C125.051 11.0957 124.584 11.2812 124.201 11.6523C123.823 12.0173 123.604 12.4595 123.542 12.979H127.55C127.537 12.4533 127.346 12.008 126.975 11.6431C126.604 11.2782 126.146 11.0957 125.602 11.0957Z" fill="white"/>
<rect width="8" height="27" transform="matrix(1 0 0 -1 138 27)" fill="white"/>
</svg>
