<svg width="662" height="27" viewBox="0 0 662 27" fill="none" xmlns="http://www.w3.org/2000/svg">
<rect width="135" height="27" fill="#001CB8"/>
<path d="M15.0156 14.7046L11.082 9.7876V19H8.3916V5.69629H11.1191L15.0527 10.8916L19.1069 5.69629H21.7231V19H19.0234V9.7876L15.1084 14.7046H15.0156ZM26.7886 19H24.228V9.06396H26.7886V19ZM23.959 6.45703C23.959 6.24674 23.9992 6.04883 24.0796 5.86328C24.16 5.67155 24.2682 5.50765 24.4043 5.37158C24.5465 5.22933 24.7104 5.118 24.896 5.0376C25.0815 4.95719 25.2826 4.91699 25.499 4.91699C25.7093 4.91699 25.9072 4.95719 26.0928 5.0376C26.2845 5.118 26.4484 5.22933 26.5845 5.37158C26.7267 5.50765 26.8381 5.67155 26.9185 5.86328C26.9989 6.04883 27.0391 6.24674 27.0391 6.45703C27.0391 6.6735 26.9989 6.87451 26.9185 7.06006C26.8381 7.24561 26.7267 7.40951 26.5845 7.55176C26.4484 7.68783 26.2845 7.79606 26.0928 7.87646C25.9072 7.95687 25.7093 7.99707 25.499 7.99707C25.2826 7.99707 25.0815 7.95687 24.896 7.87646C24.7104 7.79606 24.5465 7.68783 24.4043 7.55176C24.2682 7.40951 24.16 7.24561 24.0796 7.06006C23.9992 6.87451 23.959 6.6735 23.959 6.45703ZM35.0361 17.2373C34.8073 17.5156 34.4857 17.7383 34.0713 17.9053C33.6631 18.0661 33.2178 18.1465 32.7354 18.1465C32.0674 18.1465 31.4736 18.029 30.9541 17.7939C30.4346 17.5589 29.9954 17.2373 29.6367 16.8291C29.2842 16.4147 29.012 15.9261 28.8203 15.3633C28.6348 14.8005 28.542 14.182 28.542 13.5078C28.542 12.8522 28.6348 12.2399 28.8203 11.6709C29.012 11.0957 29.2842 10.604 29.6367 10.1958C29.9954 9.78141 30.4346 9.45671 30.9541 9.22168C31.4736 8.98665 32.0674 8.86914 32.7354 8.86914C33.2178 8.86914 33.6631 8.95264 34.0713 9.11963C34.4857 9.28662 34.8073 9.50928 35.0361 9.7876V9.06396H37.606V18.9072C37.606 19.5133 37.4915 20.0329 37.2627 20.4658C37.0339 20.9049 36.7184 21.2637 36.3164 21.542C35.9206 21.8203 35.4598 22.0213 34.9341 22.145C34.4084 22.2749 33.8486 22.3398 33.2549 22.3398C32.5312 22.3398 31.7767 22.2533 30.9912 22.0801C30.2057 21.9131 29.5285 21.7028 28.9595 21.4492L29.6831 19.3804C29.8563 19.4546 30.0697 19.535 30.3232 19.6216C30.5768 19.7144 30.849 19.7948 31.1396 19.8628C31.4303 19.9308 31.7334 19.9865 32.0488 20.0298C32.3704 20.0793 32.6828 20.104 32.9858 20.104C33.2518 20.104 33.5085 20.0762 33.7559 20.0205C34.0033 19.971 34.2197 19.8844 34.4053 19.7607C34.597 19.6432 34.7485 19.4855 34.8599 19.2876C34.9774 19.0959 35.0361 18.8485 35.0361 18.5454V17.2373ZM31.1768 13.5449C31.1768 13.8727 31.2108 14.182 31.2788 14.4727C31.353 14.7572 31.4674 15.0015 31.6221 15.2056C31.7829 15.4035 31.987 15.5612 32.2344 15.6787C32.4818 15.79 32.7817 15.8457 33.1343 15.8457C33.8332 15.8457 34.3311 15.6261 34.6279 15.187C34.9248 14.7417 35.0732 14.1943 35.0732 13.5449V13.4707C35.0732 13.1429 35.0392 12.8368 34.9712 12.5522C34.9032 12.2677 34.7918 12.0234 34.6372 11.8193C34.4826 11.6152 34.2816 11.4575 34.0342 11.3462C33.793 11.2287 33.493 11.1699 33.1343 11.1699C32.4416 11.1699 31.9406 11.3895 31.6313 11.8286C31.3283 12.2677 31.1768 12.8151 31.1768 13.4707V13.5449ZM45.3989 11.5503H45.1299C44.765 11.5503 44.4155 11.5874 44.0815 11.6616C43.7537 11.7358 43.4631 11.8719 43.2095 12.0698C42.9559 12.2616 42.7518 12.5275 42.5972 12.8677C42.4487 13.2078 42.3745 13.6439 42.3745 14.1758V19H39.814V9.06396H42.3745V10.1865C42.4797 10.0195 42.6157 9.85872 42.7827 9.7041C42.9497 9.54948 43.1445 9.41341 43.3672 9.2959C43.5898 9.1722 43.8403 9.07324 44.1187 8.99902C44.397 8.9248 44.6969 8.8877 45.0186 8.8877H45.3989V11.5503ZM50.2046 14.9644C49.8892 15.0138 49.6356 15.1252 49.4438 15.2983C49.2521 15.4653 49.1562 15.6942 49.1562 15.9849C49.1562 16.3065 49.2738 16.5848 49.5088 16.8198C49.7438 17.0487 50.0902 17.1631 50.5479 17.1631C51.0303 17.1631 51.4106 17.0239 51.689 16.7456C51.9673 16.4673 52.1064 16.0993 52.1064 15.6416V14.6396L50.2046 14.9644ZM52.5239 18.063C52.4188 18.1805 52.2889 18.3073 52.1343 18.4434C51.9858 18.5732 51.8065 18.6938 51.5962 18.8052C51.3921 18.9103 51.1509 19 50.8726 19.0742C50.5942 19.1484 50.2819 19.1855 49.9355 19.1855C49.4408 19.1855 48.9831 19.1082 48.5625 18.9536C48.1481 18.7928 47.7832 18.5701 47.4678 18.2856C47.1523 18.0011 46.9049 17.6733 46.7256 17.3022C46.5462 16.925 46.4565 16.5168 46.4565 16.0776C46.4565 15.2798 46.7039 14.6273 47.1987 14.1201C47.6935 13.613 48.377 13.2944 49.249 13.1646L52.1064 12.7471V12.5615C52.1064 12.1162 51.9704 11.7637 51.6982 11.5039C51.4261 11.2441 50.9839 11.1143 50.3716 11.1143C50.118 11.1143 49.8613 11.1452 49.6016 11.207C49.3418 11.2627 49.0913 11.3276 48.8501 11.4019C48.6151 11.4761 48.3955 11.5627 48.1914 11.6616C47.9873 11.7544 47.8079 11.8379 47.6533 11.9121L46.6514 9.95459C47.2204 9.63916 47.8512 9.37939 48.5439 9.17529C49.2428 8.97119 49.9665 8.86914 50.7148 8.86914C51.1725 8.86914 51.6333 8.91862 52.0972 9.01758C52.5672 9.11035 52.9909 9.28353 53.3682 9.53711C53.7516 9.79069 54.064 10.137 54.3052 10.5762C54.5464 11.0091 54.667 11.5627 54.667 12.2368V16.3188C54.667 16.6095 54.7412 16.826 54.8896 16.9683C55.0443 17.1043 55.2546 17.2311 55.5205 17.3486L54.3608 19.1855C53.8908 19.1361 53.5135 19.0155 53.229 18.8237C52.9445 18.6258 52.7095 18.3722 52.5239 18.063ZM60.085 16.0405C60.085 16.158 60.1004 16.2694 60.1313 16.3745C60.1623 16.4797 60.2148 16.5724 60.2891 16.6528C60.3695 16.7271 60.4808 16.7858 60.623 16.8291C60.7653 16.8724 60.9478 16.894 61.1704 16.894C61.2632 16.894 61.3683 16.891 61.4858 16.8848C61.6034 16.8724 61.7209 16.86 61.8384 16.8477C61.9559 16.8353 62.0641 16.8198 62.1631 16.8013C62.2682 16.7827 62.3548 16.7673 62.4229 16.7549L62.6548 19.0186C62.4136 19.0495 62.1631 19.0773 61.9033 19.1021C61.6807 19.1268 61.4333 19.1453 61.1611 19.1577C60.889 19.1763 60.6138 19.1855 60.3354 19.1855C59.451 19.1855 58.7614 18.9845 58.2666 18.5825C57.7718 18.1805 57.5244 17.5404 57.5244 16.6621V11.2905H55.7339V9.06396H57.5244V6.25293L60.085 5.56641V9.06396H62.6919V11.2905H60.085V16.0405ZM66.4492 14.918C66.4925 15.2148 66.5853 15.487 66.7275 15.7344C66.876 15.9818 67.0615 16.1951 67.2842 16.3745C67.5068 16.5477 67.7635 16.6838 68.0542 16.7827C68.3449 16.8817 68.6541 16.9312 68.9819 16.9312C69.3592 16.9312 69.7674 16.86 70.2065 16.7178C70.6457 16.5693 71.0477 16.356 71.4126 16.0776L72.6465 17.8774C72.1826 18.2671 71.6136 18.5825 70.9395 18.8237C70.2653 19.0649 69.5479 19.1855 68.7871 19.1855C68.1006 19.1855 67.4543 19.068 66.8481 18.833C66.242 18.598 65.7101 18.2578 65.2524 17.8125C64.8009 17.3672 64.4422 16.826 64.1763 16.189C63.9165 15.5519 63.7866 14.8345 63.7866 14.0366C63.7866 13.3068 63.901 12.6265 64.1299 11.9956C64.3649 11.3647 64.6896 10.8174 65.104 10.3535C65.5246 9.88965 66.0256 9.52783 66.6069 9.26807C67.1883 9.00212 67.8315 8.86914 68.5366 8.86914C69.1922 8.86914 69.8014 8.98975 70.3643 9.23096C70.9271 9.46598 71.4157 9.79997 71.8301 10.2329C72.2445 10.6597 72.5692 11.173 72.8042 11.7729C73.0392 12.3729 73.1567 13.0347 73.1567 13.7583V14.918H66.4492ZM68.5273 11.0957C67.9769 11.0957 67.5099 11.2812 67.1265 11.6523C66.7492 12.0173 66.5296 12.4595 66.4678 12.979H70.4756C70.4632 12.4533 70.2715 12.008 69.9004 11.6431C69.5293 11.2782 69.0716 11.0957 68.5273 11.0957ZM81.1724 19V18.1465C81.0363 18.2949 80.8848 18.4341 80.7178 18.564C80.557 18.6877 80.3745 18.7959 80.1704 18.8887C79.9725 18.9814 79.7529 19.0526 79.5117 19.1021C79.2767 19.1577 79.0138 19.1855 78.7231 19.1855C78.0675 19.1855 77.4676 19.0557 76.9233 18.7959C76.3791 18.5361 75.9121 18.1774 75.5225 17.7197C75.1328 17.262 74.8298 16.7178 74.6133 16.0869C74.403 15.4561 74.2979 14.7726 74.2979 14.0366C74.2979 13.3006 74.403 12.6172 74.6133 11.9863C74.8236 11.3555 75.1174 10.8112 75.4946 10.3535C75.8781 9.88965 76.3389 9.52783 76.877 9.26807C77.415 9.00212 78.0119 8.86914 78.6675 8.86914C79.2489 8.86914 79.7406 8.97119 80.1426 9.17529C80.5508 9.37321 80.894 9.62061 81.1724 9.91748V5.69629H83.7329V19H81.1724ZM81.2466 13.1089C81.2466 12.8429 81.1971 12.5955 81.0981 12.3667C81.0054 12.1379 80.8693 11.9399 80.6899 11.7729C80.5106 11.606 80.2941 11.4761 80.0405 11.3833C79.7931 11.2905 79.5117 11.2441 79.1963 11.2441C78.8314 11.2441 78.5067 11.3122 78.2222 11.4482C77.9438 11.5843 77.7088 11.776 77.5171 12.0234C77.3254 12.2646 77.18 12.5522 77.0811 12.8862C76.9821 13.2202 76.9326 13.5851 76.9326 13.981V14.1016C76.9326 14.4974 76.9821 14.8623 77.0811 15.1963C77.18 15.5241 77.3254 15.8086 77.5171 16.0498C77.7088 16.291 77.9438 16.4797 78.2222 16.6157C78.5067 16.7456 78.8314 16.8105 79.1963 16.8105C79.5117 16.8105 79.7931 16.7642 80.0405 16.6714C80.2941 16.5786 80.5106 16.4487 80.6899 16.2817C80.8693 16.1147 81.0054 15.9199 81.0981 15.6973C81.1971 15.4684 81.2466 15.221 81.2466 14.9551V13.1089ZM91.498 14.083C91.498 14.4046 91.5413 14.7293 91.6279 15.0571C91.7145 15.3787 91.8475 15.6694 92.0269 15.9292C92.2062 16.189 92.4351 16.4023 92.7134 16.5693C92.9979 16.7301 93.335 16.8105 93.7246 16.8105C93.9782 16.8105 94.207 16.7765 94.4111 16.7085C94.6214 16.6405 94.807 16.5477 94.9678 16.4302C95.1348 16.3065 95.2801 16.1642 95.4038 16.0034C95.5337 15.8364 95.645 15.6571 95.7378 15.4653L97.9829 16.625C97.8221 17.0146 97.5994 17.3672 97.3149 17.6826C97.0366 17.998 96.7119 18.2671 96.3408 18.4897C95.9697 18.7124 95.5584 18.8825 95.1069 19C94.6554 19.1237 94.1761 19.1855 93.6689 19.1855C92.9701 19.1855 92.3268 19.0557 91.7393 18.7959C91.1517 18.5299 90.6445 18.1681 90.2178 17.7104C89.791 17.2528 89.457 16.7116 89.2158 16.0869C88.9746 15.4561 88.854 14.7726 88.854 14.0366C88.854 13.3068 88.9746 12.6265 89.2158 11.9956C89.457 11.3647 89.791 10.8174 90.2178 10.3535C90.6445 9.88965 91.1517 9.52783 91.7393 9.26807C92.3268 9.00212 92.9701 8.86914 93.6689 8.86914C94.1761 8.86914 94.6554 8.93099 95.1069 9.05469C95.5584 9.1722 95.9697 9.34538 96.3408 9.57422C96.7119 9.79688 97.0366 10.0659 97.3149 10.3813C97.5994 10.6968 97.8221 11.0493 97.9829 11.439L95.7378 12.5986C95.645 12.4069 95.5337 12.2306 95.4038 12.0698C95.2801 11.9028 95.1348 11.7606 94.9678 11.6431C94.807 11.5194 94.6214 11.4235 94.4111 11.3555C94.207 11.2812 93.9782 11.2441 93.7246 11.2441C93.335 11.2441 92.9979 11.3276 92.7134 11.4946C92.4351 11.6554 92.2062 11.8688 92.0269 12.1348C91.8475 12.3945 91.7145 12.6883 91.6279 13.0161C91.5413 13.3439 91.498 13.6717 91.498 13.9995V14.083ZM102.77 14.9644C102.455 15.0138 102.201 15.1252 102.009 15.2983C101.818 15.4653 101.722 15.6942 101.722 15.9849C101.722 16.3065 101.839 16.5848 102.074 16.8198C102.309 17.0487 102.656 17.1631 103.113 17.1631C103.596 17.1631 103.976 17.0239 104.254 16.7456C104.533 16.4673 104.672 16.0993 104.672 15.6416V14.6396L102.77 14.9644ZM105.089 18.063C104.984 18.1805 104.854 18.3073 104.7 18.4434C104.551 18.5732 104.372 18.6938 104.162 18.8052C103.958 18.9103 103.716 19 103.438 19.0742C103.16 19.1484 102.847 19.1855 102.501 19.1855C102.006 19.1855 101.549 19.1082 101.128 18.9536C100.714 18.7928 100.349 18.5701 100.033 18.2856C99.7178 18.0011 99.4704 17.6733 99.291 17.3022C99.1117 16.925 99.022 16.5168 99.022 16.0776C99.022 15.2798 99.2694 14.6273 99.7642 14.1201C100.259 13.613 100.942 13.2944 101.814 13.1646L104.672 12.7471V12.5615C104.672 12.1162 104.536 11.7637 104.264 11.5039C103.992 11.2441 103.549 11.1143 102.937 11.1143C102.683 11.1143 102.427 11.1452 102.167 11.207C101.907 11.2627 101.657 11.3276 101.416 11.4019C101.181 11.4761 100.961 11.5627 100.757 11.6616C100.553 11.7544 100.373 11.8379 100.219 11.9121L99.2168 9.95459C99.7858 9.63916 100.417 9.37939 101.109 9.17529C101.808 8.97119 102.532 8.86914 103.28 8.86914C103.738 8.86914 104.199 8.91862 104.663 9.01758C105.133 9.11035 105.556 9.28353 105.934 9.53711C106.317 9.79069 106.629 10.137 106.871 10.5762C107.112 11.0091 107.232 11.5627 107.232 12.2368V16.3188C107.232 16.6095 107.307 16.826 107.455 16.9683C107.61 17.1043 107.82 17.2311 108.086 17.3486L106.926 19.1855C106.456 19.1361 106.079 19.0155 105.794 18.8237C105.51 18.6258 105.275 18.3722 105.089 18.063ZM110.081 15.8271C110.445 16.1549 110.882 16.4364 111.389 16.6714C111.896 16.9064 112.409 17.0239 112.929 17.0239C113.306 17.0239 113.603 16.9528 113.819 16.8105C114.036 16.6621 114.144 16.4735 114.144 16.2446C114.144 15.855 113.727 15.5519 112.892 15.3354L112.168 15.1406C111.809 15.054 111.447 14.9365 111.083 14.7881C110.718 14.6335 110.381 14.4325 110.071 14.1851C109.768 13.9377 109.521 13.6377 109.329 13.2852C109.144 12.9264 109.051 12.4873 109.051 11.9678C109.051 11.5534 109.14 11.1606 109.32 10.7896C109.505 10.4123 109.765 10.0814 110.099 9.79688C110.439 9.51237 110.851 9.28662 111.333 9.11963C111.815 8.95264 112.354 8.86914 112.947 8.86914C113.795 8.86914 114.549 9.00212 115.211 9.26807C115.879 9.53402 116.405 9.83398 116.788 10.168L115.452 11.875C115.137 11.6462 114.763 11.4513 114.33 11.2905C113.903 11.1235 113.473 11.04 113.04 11.04C112.638 11.04 112.326 11.1143 112.103 11.2627C111.88 11.4049 111.769 11.5781 111.769 11.7822C111.769 11.9987 111.865 12.175 112.057 12.311C112.255 12.4409 112.539 12.5553 112.91 12.6543L113.986 12.9604C115.013 13.2511 115.749 13.6439 116.194 14.1387C116.64 14.6335 116.862 15.2581 116.862 16.0127C116.862 16.4333 116.776 16.8353 116.603 17.2188C116.429 17.596 116.176 17.9331 115.842 18.23C115.508 18.5269 115.093 18.7619 114.599 18.9351C114.104 19.1021 113.541 19.1855 112.91 19.1855C112.428 19.1855 111.973 19.1423 111.546 19.0557C111.126 18.9691 110.733 18.8516 110.368 18.7031C110.009 18.5485 109.685 18.3753 109.394 18.1836C109.103 17.9919 108.856 17.8001 108.652 17.6084L110.081 15.8271ZM120.666 14.918C120.709 15.2148 120.802 15.487 120.944 15.7344C121.093 15.9818 121.278 16.1951 121.501 16.3745C121.724 16.5477 121.98 16.6838 122.271 16.7827C122.562 16.8817 122.871 16.9312 123.199 16.9312C123.576 16.9312 123.984 16.86 124.423 16.7178C124.862 16.5693 125.264 16.356 125.629 16.0776L126.863 17.8774C126.399 18.2671 125.83 18.5825 125.156 18.8237C124.482 19.0649 123.765 19.1855 123.004 19.1855C122.317 19.1855 121.671 19.068 121.065 18.833C120.459 18.598 119.927 18.2578 119.469 17.8125C119.018 17.3672 118.659 16.826 118.393 16.189C118.133 15.5519 118.003 14.8345 118.003 14.0366C118.003 13.3068 118.118 12.6265 118.347 11.9956C118.582 11.3647 118.906 10.8174 119.321 10.3535C119.741 9.88965 120.242 9.52783 120.824 9.26807C121.405 9.00212 122.048 8.86914 122.753 8.86914C123.409 8.86914 124.018 8.98975 124.581 9.23096C125.144 9.46598 125.632 9.79997 126.047 10.2329C126.461 10.6597 126.786 11.173 127.021 11.7729C127.256 12.3729 127.374 13.0347 127.374 13.7583V14.918H120.666ZM122.744 11.0957C122.194 11.0957 121.727 11.2812 121.343 11.6523C120.966 12.0173 120.746 12.4595 120.685 12.979H124.692C124.68 12.4533 124.488 12.008 124.117 11.6431C123.746 11.2782 123.288 11.0957 122.744 11.0957Z" fill="white"/>
<rect width="116" height="27" transform="translate(145)" fill="#800080"/>
<path d="M153.392 5.69629H162.354V8.13623H156.082V10.9658H161.862V13.3965H156.082V19H153.392V5.69629ZM166.176 14.918C166.219 15.2148 166.312 15.487 166.454 15.7344C166.603 15.9818 166.788 16.1951 167.011 16.3745C167.233 16.5477 167.49 16.6838 167.781 16.7827C168.071 16.8817 168.381 16.9312 168.708 16.9312C169.086 16.9312 169.494 16.86 169.933 16.7178C170.372 16.5693 170.774 16.356 171.139 16.0776L172.373 17.8774C171.909 18.2671 171.34 18.5825 170.666 18.8237C169.992 19.0649 169.274 19.1855 168.514 19.1855C167.827 19.1855 167.181 19.068 166.575 18.833C165.969 18.598 165.437 18.2578 164.979 17.8125C164.528 17.3672 164.169 16.826 163.903 16.189C163.643 15.5519 163.513 14.8345 163.513 14.0366C163.513 13.3068 163.628 12.6265 163.856 11.9956C164.091 11.3647 164.416 10.8174 164.831 10.3535C165.251 9.88965 165.752 9.52783 166.333 9.26807C166.915 9.00212 167.558 8.86914 168.263 8.86914C168.919 8.86914 169.528 8.98975 170.091 9.23096C170.654 9.46598 171.142 9.79997 171.557 10.2329C171.971 10.6597 172.296 11.173 172.531 11.7729C172.766 12.3729 172.883 13.0347 172.883 13.7583V14.918H166.176ZM168.254 11.0957C167.703 11.0957 167.236 11.2812 166.853 11.6523C166.476 12.0173 166.256 12.4595 166.194 12.979H170.202C170.19 12.4533 169.998 12.008 169.627 11.6431C169.256 11.2782 168.798 11.0957 168.254 11.0957ZM176.659 14.918C176.702 15.2148 176.795 15.487 176.938 15.7344C177.086 15.9818 177.271 16.1951 177.494 16.3745C177.717 16.5477 177.973 16.6838 178.264 16.7827C178.555 16.8817 178.864 16.9312 179.192 16.9312C179.569 16.9312 179.977 16.86 180.417 16.7178C180.856 16.5693 181.258 16.356 181.623 16.0776L182.856 17.8774C182.393 18.2671 181.824 18.5825 181.149 18.8237C180.475 19.0649 179.758 19.1855 178.997 19.1855C178.311 19.1855 177.664 19.068 177.058 18.833C176.452 18.598 175.92 18.2578 175.462 17.8125C175.011 17.3672 174.652 16.826 174.386 16.189C174.126 15.5519 173.997 14.8345 173.997 14.0366C173.997 13.3068 174.111 12.6265 174.34 11.9956C174.575 11.3647 174.9 10.8174 175.314 10.3535C175.735 9.88965 176.236 9.52783 176.817 9.26807C177.398 9.00212 178.042 8.86914 178.747 8.86914C179.402 8.86914 180.011 8.98975 180.574 9.23096C181.137 9.46598 181.626 9.79997 182.04 10.2329C182.454 10.6597 182.779 11.173 183.014 11.7729C183.249 12.3729 183.367 13.0347 183.367 13.7583V14.918H176.659ZM178.737 11.0957C178.187 11.0957 177.72 11.2812 177.336 11.6523C176.959 12.0173 176.74 12.4595 176.678 12.979H180.686C180.673 12.4533 180.481 12.008 180.11 11.6431C179.739 11.2782 179.282 11.0957 178.737 11.0957ZM190.575 14.918C190.618 15.2148 190.711 15.487 190.854 15.7344C191.002 15.9818 191.188 16.1951 191.41 16.3745C191.633 16.5477 191.889 16.6838 192.18 16.7827C192.471 16.8817 192.78 16.9312 193.108 16.9312C193.485 16.9312 193.893 16.86 194.333 16.7178C194.772 16.5693 195.174 16.356 195.539 16.0776L196.772 17.8774C196.309 18.2671 195.74 18.5825 195.065 18.8237C194.391 19.0649 193.674 19.1855 192.913 19.1855C192.227 19.1855 191.58 19.068 190.974 18.833C190.368 18.598 189.836 18.2578 189.378 17.8125C188.927 17.3672 188.568 16.826 188.302 16.189C188.042 15.5519 187.913 14.8345 187.913 14.0366C187.913 13.3068 188.027 12.6265 188.256 11.9956C188.491 11.3647 188.816 10.8174 189.23 10.3535C189.651 9.88965 190.152 9.52783 190.733 9.26807C191.314 9.00212 191.958 8.86914 192.663 8.86914C193.318 8.86914 193.927 8.98975 194.49 9.23096C195.053 9.46598 195.542 9.79997 195.956 10.2329C196.37 10.6597 196.695 11.173 196.93 11.7729C197.165 12.3729 197.283 13.0347 197.283 13.7583V14.918H190.575ZM192.653 11.0957C192.103 11.0957 191.636 11.2812 191.252 11.6523C190.875 12.0173 190.656 12.4595 190.594 12.979H194.602C194.589 12.4533 194.397 12.008 194.026 11.6431C193.655 11.2782 193.198 11.0957 192.653 11.0957ZM201.216 13.7954L198.192 9.06396H201.151L202.673 11.7451L204.269 9.06396H207.256L204.176 13.814L207.599 19H204.575L202.617 15.957L200.836 19H197.849L201.216 13.7954ZM210.447 14.918C210.491 15.2148 210.583 15.487 210.726 15.7344C210.874 15.9818 211.06 16.1951 211.282 16.3745C211.505 16.5477 211.762 16.6838 212.052 16.7827C212.343 16.8817 212.652 16.9312 212.98 16.9312C213.357 16.9312 213.765 16.86 214.205 16.7178C214.644 16.5693 215.046 16.356 215.411 16.0776L216.645 17.8774C216.181 18.2671 215.612 18.5825 214.938 18.8237C214.263 19.0649 213.546 19.1855 212.785 19.1855C212.099 19.1855 211.452 19.068 210.846 18.833C210.24 18.598 209.708 18.2578 209.25 17.8125C208.799 17.3672 208.44 16.826 208.174 16.189C207.915 15.5519 207.785 14.8345 207.785 14.0366C207.785 13.3068 207.899 12.6265 208.128 11.9956C208.363 11.3647 208.688 10.8174 209.102 10.3535C209.523 9.88965 210.024 9.52783 210.605 9.26807C211.186 9.00212 211.83 8.86914 212.535 8.86914C213.19 8.86914 213.799 8.98975 214.362 9.23096C214.925 9.46598 215.414 9.79997 215.828 10.2329C216.243 10.6597 216.567 11.173 216.802 11.7729C217.037 12.3729 217.155 13.0347 217.155 13.7583V14.918H210.447ZM212.525 11.0957C211.975 11.0957 211.508 11.2812 211.125 11.6523C210.747 12.0173 210.528 12.4595 210.466 12.979H214.474C214.461 12.4533 214.27 12.008 213.898 11.6431C213.527 11.2782 213.07 11.0957 212.525 11.0957ZM227.165 19H224.595V13.2202C224.595 12.8677 224.555 12.5708 224.475 12.3296C224.4 12.0822 224.295 11.8843 224.159 11.7358C224.023 11.5812 223.865 11.473 223.686 11.4111C223.507 11.3431 223.312 11.3091 223.102 11.3091C222.854 11.3091 222.622 11.3524 222.406 11.439C222.195 11.5256 222.01 11.6616 221.849 11.8472C221.694 12.0327 221.571 12.2708 221.478 12.5615C221.391 12.846 221.348 13.1862 221.348 13.582V19H218.788V9.06396H221.348V9.93604C221.676 9.57113 222.056 9.30208 222.489 9.12891C222.928 8.95573 223.398 8.86914 223.899 8.86914C224.413 8.86914 224.892 8.97428 225.337 9.18457C225.789 9.39486 226.163 9.74121 226.46 10.2236C226.633 9.97624 226.831 9.76595 227.054 9.59277C227.283 9.4196 227.527 9.28044 227.787 9.17529C228.046 9.07015 228.315 8.99284 228.594 8.94336C228.878 8.89388 229.169 8.86914 229.466 8.86914C230.022 8.86914 230.517 8.96191 230.95 9.14746C231.389 9.32682 231.76 9.57113 232.063 9.88037C232.367 10.1896 232.598 10.5452 232.759 10.9473C232.92 11.3493 233 11.7729 233 12.2183V19H230.412V13.2202C230.412 12.8677 230.372 12.5708 230.292 12.3296C230.217 12.0822 230.112 11.8843 229.976 11.7358C229.84 11.5812 229.679 11.473 229.494 11.4111C229.314 11.3431 229.119 11.3091 228.909 11.3091C228.662 11.3091 228.433 11.3524 228.223 11.439C228.012 11.5256 227.827 11.6616 227.666 11.8472C227.511 12.0327 227.388 12.2708 227.295 12.5615C227.208 12.846 227.165 13.1862 227.165 13.582V19ZM237.695 22.1357H235.134V9.06396H237.695V9.91748C237.973 9.62679 238.316 9.37939 238.725 9.17529C239.133 8.97119 239.628 8.86914 240.209 8.86914C240.865 8.86914 241.458 9.00212 241.99 9.26807C242.528 9.52783 242.989 9.88965 243.373 10.3535C243.756 10.8112 244.053 11.3555 244.263 11.9863C244.473 12.6172 244.579 13.3006 244.579 14.0366C244.579 14.7726 244.47 15.4561 244.254 16.0869C244.037 16.7178 243.734 17.262 243.345 17.7197C242.955 18.1774 242.488 18.5361 241.944 18.7959C241.4 19.0557 240.8 19.1855 240.144 19.1855C239.853 19.1855 239.587 19.1577 239.346 19.1021C239.111 19.0526 238.895 18.9814 238.697 18.8887C238.499 18.7959 238.316 18.6877 238.149 18.564C237.982 18.4341 237.831 18.2949 237.695 18.1465V22.1357ZM237.621 14.9551C237.621 15.221 237.667 15.4684 237.76 15.6973C237.859 15.9199 237.998 16.1147 238.177 16.2817C238.357 16.4487 238.57 16.5786 238.817 16.6714C239.071 16.7642 239.355 16.8105 239.671 16.8105C240.036 16.8105 240.357 16.7456 240.636 16.6157C240.92 16.4797 241.158 16.291 241.35 16.0498C241.542 15.8086 241.687 15.5241 241.786 15.1963C241.885 14.8623 241.935 14.4974 241.935 14.1016V13.981C241.935 13.5851 241.885 13.2202 241.786 12.8862C241.687 12.5522 241.542 12.2646 241.35 12.0234C241.158 11.776 240.92 11.5843 240.636 11.4482C240.357 11.3122 240.036 11.2441 239.671 11.2441C239.355 11.2441 239.071 11.2905 238.817 11.3833C238.57 11.4761 238.357 11.606 238.177 11.7729C237.998 11.9399 237.859 12.1379 237.76 12.3667C237.667 12.5955 237.621 12.8429 237.621 13.1089V14.9551ZM249.95 16.0405C249.95 16.158 249.966 16.2694 249.997 16.3745C250.028 16.4797 250.08 16.5724 250.154 16.6528C250.235 16.7271 250.346 16.7858 250.488 16.8291C250.631 16.8724 250.813 16.894 251.036 16.894C251.128 16.894 251.234 16.891 251.351 16.8848C251.469 16.8724 251.586 16.86 251.704 16.8477C251.821 16.8353 251.929 16.8198 252.028 16.8013C252.133 16.7827 252.22 16.7673 252.288 16.7549L252.52 19.0186C252.279 19.0495 252.028 19.0773 251.769 19.1021C251.546 19.1268 251.299 19.1453 251.026 19.1577C250.754 19.1763 250.479 19.1855 250.201 19.1855C249.316 19.1855 248.627 18.9845 248.132 18.5825C247.637 18.1805 247.39 17.5404 247.39 16.6621V11.2905H245.599V9.06396H247.39V6.25293L249.95 5.56641V9.06396H252.557V11.2905H249.95V16.0405Z" fill="white"/>
<rect width="256" height="27" transform="translate(271)" fill="#1D70B8"/>
<path d="M286.721 16.5322H281.794L281.043 19H278.186L282.537 5.69629H286.071L290.487 19H287.481L286.721 16.5322ZM282.518 14.1572H285.997L284.271 8.53516H284.234L282.518 14.1572ZM294.319 22.1357H291.758V9.06396H294.319V9.91748C294.597 9.62679 294.94 9.37939 295.349 9.17529C295.757 8.97119 296.252 8.86914 296.833 8.86914C297.489 8.86914 298.082 9.00212 298.614 9.26807C299.152 9.52783 299.613 9.88965 299.997 10.3535C300.38 10.8112 300.677 11.3555 300.887 11.9863C301.097 12.6172 301.203 13.3006 301.203 14.0366C301.203 14.7726 301.094 15.4561 300.878 16.0869C300.661 16.7178 300.358 17.262 299.969 17.7197C299.579 18.1774 299.112 18.5361 298.568 18.7959C298.024 19.0557 297.424 19.1855 296.768 19.1855C296.477 19.1855 296.211 19.1577 295.97 19.1021C295.735 19.0526 295.519 18.9814 295.321 18.8887C295.123 18.7959 294.94 18.6877 294.773 18.564C294.606 18.4341 294.455 18.2949 294.319 18.1465V22.1357ZM294.245 14.9551C294.245 15.221 294.291 15.4684 294.384 15.6973C294.483 15.9199 294.622 16.1147 294.801 16.2817C294.981 16.4487 295.194 16.5786 295.441 16.6714C295.695 16.7642 295.979 16.8105 296.295 16.8105C296.66 16.8105 296.981 16.7456 297.26 16.6157C297.544 16.4797 297.782 16.291 297.974 16.0498C298.166 15.8086 298.311 15.5241 298.41 15.1963C298.509 14.8623 298.559 14.4974 298.559 14.1016V13.981C298.559 13.5851 298.509 13.2202 298.41 12.8862C298.311 12.5522 298.166 12.2646 297.974 12.0234C297.782 11.776 297.544 11.5843 297.26 11.4482C296.981 11.3122 296.66 11.2441 296.295 11.2441C295.979 11.2441 295.695 11.2905 295.441 11.3833C295.194 11.4761 294.981 11.606 294.801 11.7729C294.622 11.9399 294.483 12.1379 294.384 12.3667C294.291 12.5955 294.245 12.8429 294.245 13.1089V14.9551ZM305.47 22.1357H302.91V9.06396H305.47V9.91748C305.749 9.62679 306.092 9.37939 306.5 9.17529C306.908 8.97119 307.403 8.86914 307.984 8.86914C308.64 8.86914 309.234 9.00212 309.766 9.26807C310.304 9.52783 310.764 9.88965 311.148 10.3535C311.531 10.8112 311.828 11.3555 312.039 11.9863C312.249 12.6172 312.354 13.3006 312.354 14.0366C312.354 14.7726 312.246 15.4561 312.029 16.0869C311.813 16.7178 311.51 17.262 311.12 17.7197C310.73 18.1774 310.264 18.5361 309.719 18.7959C309.175 19.0557 308.575 19.1855 307.919 19.1855C307.629 19.1855 307.363 19.1577 307.122 19.1021C306.887 19.0526 306.67 18.9814 306.472 18.8887C306.274 18.7959 306.092 18.6877 305.925 18.564C305.758 18.4341 305.606 18.2949 305.47 18.1465V22.1357ZM305.396 14.9551C305.396 15.221 305.442 15.4684 305.535 15.6973C305.634 15.9199 305.773 16.1147 305.953 16.2817C306.132 16.4487 306.345 16.5786 306.593 16.6714C306.846 16.7642 307.131 16.8105 307.446 16.8105C307.811 16.8105 308.133 16.7456 308.411 16.6157C308.696 16.4797 308.934 16.291 309.125 16.0498C309.317 15.8086 309.463 15.5241 309.562 15.1963C309.66 14.8623 309.71 14.4974 309.71 14.1016V13.981C309.71 13.5851 309.66 13.2202 309.562 12.8862C309.463 12.5522 309.317 12.2646 309.125 12.0234C308.934 11.776 308.696 11.5843 308.411 11.4482C308.133 11.3122 307.811 11.2441 307.446 11.2441C307.131 11.2441 306.846 11.2905 306.593 11.3833C306.345 11.4761 306.132 11.606 305.953 11.7729C305.773 11.9399 305.634 12.1379 305.535 12.3667C305.442 12.5955 305.396 12.8429 305.396 13.1089V14.9551ZM316.204 14.918C316.247 15.2148 316.34 15.487 316.482 15.7344C316.631 15.9818 316.816 16.1951 317.039 16.3745C317.262 16.5477 317.518 16.6838 317.809 16.7827C318.1 16.8817 318.409 16.9312 318.737 16.9312C319.114 16.9312 319.522 16.86 319.961 16.7178C320.401 16.5693 320.803 16.356 321.167 16.0776L322.401 17.8774C321.938 18.2671 321.368 18.5825 320.694 18.8237C320.02 19.0649 319.303 19.1855 318.542 19.1855C317.855 19.1855 317.209 19.068 316.603 18.833C315.997 18.598 315.465 18.2578 315.007 17.8125C314.556 17.3672 314.197 16.826 313.931 16.189C313.671 15.5519 313.542 14.8345 313.542 14.0366C313.542 13.3068 313.656 12.6265 313.885 11.9956C314.12 11.3647 314.444 10.8174 314.859 10.3535C315.279 9.88965 315.78 9.52783 316.362 9.26807C316.943 9.00212 317.586 8.86914 318.292 8.86914C318.947 8.86914 319.556 8.98975 320.119 9.23096C320.682 9.46598 321.171 9.79997 321.585 10.2329C321.999 10.6597 322.324 11.173 322.559 11.7729C322.794 12.3729 322.912 13.0347 322.912 13.7583V14.918H316.204ZM318.282 11.0957C317.732 11.0957 317.265 11.2812 316.881 11.6523C316.504 12.0173 316.285 12.4595 316.223 12.979H320.23C320.218 12.4533 320.026 12.008 319.655 11.6431C319.284 11.2782 318.826 11.0957 318.282 11.0957ZM324.507 5.69629H327.068V16.3003C327.068 16.5106 327.127 16.6714 327.244 16.7827C327.368 16.894 327.563 16.9497 327.829 16.9497C327.952 16.9497 328.057 16.9435 328.144 16.9312C328.237 16.9126 328.354 16.8879 328.497 16.8569L328.701 19.0371C328.528 19.0618 328.342 19.0866 328.144 19.1113C327.977 19.1299 327.782 19.1453 327.56 19.1577C327.343 19.1763 327.117 19.1855 326.882 19.1855C326.517 19.1855 326.19 19.1392 325.899 19.0464C325.608 18.9536 325.358 18.8175 325.147 18.6382C324.943 18.4526 324.786 18.2238 324.674 17.9517C324.563 17.6795 324.507 17.3641 324.507 17.0054V5.69629ZM330.074 5.69629H332.634V16.3003C332.634 16.5106 332.693 16.6714 332.811 16.7827C332.934 16.894 333.129 16.9497 333.395 16.9497C333.519 16.9497 333.624 16.9435 333.71 16.9312C333.803 16.9126 333.921 16.8879 334.063 16.8569L334.267 19.0371C334.094 19.0618 333.908 19.0866 333.71 19.1113C333.543 19.1299 333.349 19.1453 333.126 19.1577C332.91 19.1763 332.684 19.1855 332.449 19.1855C332.084 19.1855 331.756 19.1392 331.465 19.0464C331.175 18.9536 330.924 18.8175 330.714 18.6382C330.51 18.4526 330.352 18.2238 330.241 17.9517C330.129 17.6795 330.074 17.3641 330.074 17.0054V5.69629ZM338.887 14.9644C338.572 15.0138 338.318 15.1252 338.126 15.2983C337.935 15.4653 337.839 15.6942 337.839 15.9849C337.839 16.3065 337.956 16.5848 338.191 16.8198C338.426 17.0487 338.773 17.1631 339.23 17.1631C339.713 17.1631 340.093 17.0239 340.372 16.7456C340.65 16.4673 340.789 16.0993 340.789 15.6416V14.6396L338.887 14.9644ZM341.207 18.063C341.101 18.1805 340.972 18.3073 340.817 18.4434C340.668 18.5732 340.489 18.6938 340.279 18.8052C340.075 18.9103 339.833 19 339.555 19.0742C339.277 19.1484 338.965 19.1855 338.618 19.1855C338.123 19.1855 337.666 19.1082 337.245 18.9536C336.831 18.7928 336.466 18.5701 336.15 18.2856C335.835 18.0011 335.588 17.6733 335.408 17.3022C335.229 16.925 335.139 16.5168 335.139 16.0776C335.139 15.2798 335.387 14.6273 335.881 14.1201C336.376 13.613 337.06 13.2944 337.932 13.1646L340.789 12.7471V12.5615C340.789 12.1162 340.653 11.7637 340.381 11.5039C340.109 11.2441 339.667 11.1143 339.054 11.1143C338.801 11.1143 338.544 11.1452 338.284 11.207C338.024 11.2627 337.774 11.3276 337.533 11.4019C337.298 11.4761 337.078 11.5627 336.874 11.6616C336.67 11.7544 336.491 11.8379 336.336 11.9121L335.334 9.95459C335.903 9.63916 336.534 9.37939 337.227 9.17529C337.925 8.97119 338.649 8.86914 339.397 8.86914C339.855 8.86914 340.316 8.91862 340.78 9.01758C341.25 9.11035 341.674 9.28353 342.051 9.53711C342.434 9.79069 342.747 10.137 342.988 10.5762C343.229 11.0091 343.35 11.5627 343.35 12.2368V16.3188C343.35 16.6095 343.424 16.826 343.572 16.9683C343.727 17.1043 343.937 17.2311 344.203 17.3486L343.043 19.1855C342.573 19.1361 342.196 19.0155 341.912 18.8237C341.627 18.6258 341.392 18.3722 341.207 18.063ZM345.493 9.06396H348.053V9.91748C348.189 9.78141 348.341 9.65153 348.508 9.52783C348.681 9.39795 348.87 9.28662 349.074 9.19385C349.278 9.09489 349.504 9.01758 349.751 8.96191C350.005 8.90007 350.283 8.86914 350.586 8.86914C351.124 8.86914 351.606 8.95882 352.033 9.13818C352.46 9.31136 352.819 9.55257 353.109 9.86182C353.406 10.1711 353.632 10.5329 353.787 10.9473C353.941 11.3617 354.019 11.8101 354.019 12.2925V19H351.458V13.2202C351.458 12.8677 351.418 12.5708 351.337 12.3296C351.257 12.0822 351.146 11.8843 351.003 11.7358C350.867 11.5812 350.703 11.4699 350.512 11.4019C350.326 11.3276 350.122 11.2905 349.899 11.2905C349.64 11.2905 349.395 11.3369 349.167 11.4297C348.944 11.5225 348.749 11.6647 348.582 11.8564C348.415 12.042 348.285 12.277 348.192 12.5615C348.1 12.846 348.053 13.18 348.053 13.5635V19H345.493V9.06396ZM359.826 16.0405C359.826 16.158 359.842 16.2694 359.873 16.3745C359.903 16.4797 359.956 16.5724 360.03 16.6528C360.111 16.7271 360.222 16.7858 360.364 16.8291C360.507 16.8724 360.689 16.894 360.912 16.894C361.004 16.894 361.11 16.891 361.227 16.8848C361.345 16.8724 361.462 16.86 361.58 16.8477C361.697 16.8353 361.805 16.8198 361.904 16.8013C362.009 16.7827 362.096 16.7673 362.164 16.7549L362.396 19.0186C362.155 19.0495 361.904 19.0773 361.645 19.1021C361.422 19.1268 361.174 19.1453 360.902 19.1577C360.63 19.1763 360.355 19.1855 360.077 19.1855C359.192 19.1855 358.503 18.9845 358.008 18.5825C357.513 18.1805 357.266 17.5404 357.266 16.6621V11.2905H355.475V9.06396H357.266V6.25293L359.826 5.56641V9.06396H362.433V11.2905H359.826V16.0405ZM370.041 19H367.48V9.06396H370.041V19ZM367.211 6.45703C367.211 6.24674 367.251 6.04883 367.332 5.86328C367.412 5.67155 367.52 5.50765 367.656 5.37158C367.799 5.22933 367.962 5.118 368.148 5.0376C368.333 4.95719 368.535 4.91699 368.751 4.91699C368.961 4.91699 369.159 4.95719 369.345 5.0376C369.536 5.118 369.7 5.22933 369.836 5.37158C369.979 5.50765 370.09 5.67155 370.17 5.86328C370.251 6.04883 370.291 6.24674 370.291 6.45703C370.291 6.6735 370.251 6.87451 370.17 7.06006C370.09 7.24561 369.979 7.40951 369.836 7.55176C369.7 7.68783 369.536 7.79606 369.345 7.87646C369.159 7.95687 368.961 7.99707 368.751 7.99707C368.535 7.99707 368.333 7.95687 368.148 7.87646C367.962 7.79606 367.799 7.68783 367.656 7.55176C367.52 7.40951 367.412 7.24561 367.332 7.06006C367.251 6.87451 367.211 6.6735 367.211 6.45703ZM372.249 9.06396H374.809V9.91748C374.945 9.78141 375.097 9.65153 375.264 9.52783C375.437 9.39795 375.625 9.28662 375.83 9.19385C376.034 9.09489 376.259 9.01758 376.507 8.96191C376.76 8.90007 377.039 8.86914 377.342 8.86914C377.88 8.86914 378.362 8.95882 378.789 9.13818C379.216 9.31136 379.575 9.55257 379.865 9.86182C380.162 10.1711 380.388 10.5329 380.542 10.9473C380.697 11.3617 380.774 11.8101 380.774 12.2925V19H378.214V13.2202C378.214 12.8677 378.174 12.5708 378.093 12.3296C378.013 12.0822 377.902 11.8843 377.759 11.7358C377.623 11.5812 377.459 11.4699 377.268 11.4019C377.082 11.3276 376.878 11.2905 376.655 11.2905C376.396 11.2905 376.151 11.3369 375.922 11.4297C375.7 11.5225 375.505 11.6647 375.338 11.8564C375.171 12.042 375.041 12.277 374.948 12.5615C374.855 12.846 374.809 13.18 374.809 13.5635V19H372.249V9.06396ZM388.911 22.1357H386.35V9.06396H388.911V9.91748C389.189 9.62679 389.532 9.37939 389.94 9.17529C390.349 8.97119 390.843 8.86914 391.425 8.86914C392.08 8.86914 392.674 9.00212 393.206 9.26807C393.744 9.52783 394.205 9.88965 394.588 10.3535C394.972 10.8112 395.269 11.3555 395.479 11.9863C395.689 12.6172 395.794 13.3006 395.794 14.0366C395.794 14.7726 395.686 15.4561 395.47 16.0869C395.253 16.7178 394.95 17.262 394.561 17.7197C394.171 18.1774 393.704 18.5361 393.16 18.7959C392.615 19.0557 392.015 19.1855 391.36 19.1855C391.069 19.1855 390.803 19.1577 390.562 19.1021C390.327 19.0526 390.111 18.9814 389.913 18.8887C389.715 18.7959 389.532 18.6877 389.365 18.564C389.198 18.4341 389.047 18.2949 388.911 18.1465V22.1357ZM388.836 14.9551C388.836 15.221 388.883 15.4684 388.976 15.6973C389.075 15.9199 389.214 16.1147 389.393 16.2817C389.572 16.4487 389.786 16.5786 390.033 16.6714C390.287 16.7642 390.571 16.8105 390.887 16.8105C391.252 16.8105 391.573 16.7456 391.852 16.6157C392.136 16.4797 392.374 16.291 392.566 16.0498C392.758 15.8086 392.903 15.5241 393.002 15.1963C393.101 14.8623 393.15 14.4974 393.15 14.1016V13.981C393.15 13.5851 393.101 13.2202 393.002 12.8862C392.903 12.5522 392.758 12.2646 392.566 12.0234C392.374 11.776 392.136 11.5843 391.852 11.4482C391.573 11.3122 391.252 11.2441 390.887 11.2441C390.571 11.2441 390.287 11.2905 390.033 11.3833C389.786 11.4761 389.572 11.606 389.393 11.7729C389.214 11.9399 389.075 12.1379 388.976 12.3667C388.883 12.5955 388.836 12.8429 388.836 13.1089V14.9551ZM399.645 14.918C399.688 15.2148 399.781 15.487 399.923 15.7344C400.071 15.9818 400.257 16.1951 400.479 16.3745C400.702 16.5477 400.959 16.6838 401.25 16.7827C401.54 16.8817 401.849 16.9312 402.177 16.9312C402.555 16.9312 402.963 16.86 403.402 16.7178C403.841 16.5693 404.243 16.356 404.608 16.0776L405.842 17.8774C405.378 18.2671 404.809 18.5825 404.135 18.8237C403.461 19.0649 402.743 19.1855 401.982 19.1855C401.296 19.1855 400.65 19.068 400.043 18.833C399.437 18.598 398.905 18.2578 398.448 17.8125C397.996 17.3672 397.638 16.826 397.372 16.189C397.112 15.5519 396.982 14.8345 396.982 14.0366C396.982 13.3068 397.096 12.6265 397.325 11.9956C397.56 11.3647 397.885 10.8174 398.299 10.3535C398.72 9.88965 399.221 9.52783 399.802 9.26807C400.384 9.00212 401.027 8.86914 401.732 8.86914C402.388 8.86914 402.997 8.98975 403.56 9.23096C404.122 9.46598 404.611 9.79997 405.025 10.2329C405.44 10.6597 405.764 11.173 406 11.7729C406.235 12.3729 406.352 13.0347 406.352 13.7583V14.918H399.645ZM401.723 11.0957C401.172 11.0957 400.705 11.2812 400.322 11.6523C399.944 12.0173 399.725 12.4595 399.663 12.979H403.671C403.659 12.4533 403.467 12.008 403.096 11.6431C402.725 11.2782 402.267 11.0957 401.723 11.0957ZM413.57 11.5503H413.301C412.936 11.5503 412.586 11.5874 412.252 11.6616C411.925 11.7358 411.634 11.8719 411.38 12.0698C411.127 12.2616 410.923 12.5275 410.768 12.8677C410.62 13.2078 410.545 13.6439 410.545 14.1758V19H407.985V9.06396H410.545V10.1865C410.651 10.0195 410.787 9.85872 410.954 9.7041C411.121 9.54948 411.315 9.41341 411.538 9.2959C411.761 9.1722 412.011 9.07324 412.29 8.99902C412.568 8.9248 412.868 8.8877 413.189 8.8877H413.57V11.5503ZM415.871 15.8271C416.236 16.1549 416.672 16.4364 417.179 16.6714C417.686 16.9064 418.199 17.0239 418.719 17.0239C419.096 17.0239 419.393 16.9528 419.609 16.8105C419.826 16.6621 419.934 16.4735 419.934 16.2446C419.934 15.855 419.517 15.5519 418.682 15.3354L417.958 15.1406C417.599 15.054 417.237 14.9365 416.873 14.7881C416.508 14.6335 416.171 14.4325 415.861 14.1851C415.558 13.9377 415.311 13.6377 415.119 13.2852C414.934 12.9264 414.841 12.4873 414.841 11.9678C414.841 11.5534 414.931 11.1606 415.11 10.7896C415.295 10.4123 415.555 10.0814 415.889 9.79688C416.229 9.51237 416.641 9.28662 417.123 9.11963C417.605 8.95264 418.144 8.86914 418.737 8.86914C419.585 8.86914 420.339 9.00212 421.001 9.26807C421.669 9.53402 422.195 9.83398 422.578 10.168L421.242 11.875C420.927 11.6462 420.553 11.4513 420.12 11.2905C419.693 11.1235 419.263 11.04 418.83 11.04C418.428 11.04 418.116 11.1143 417.893 11.2627C417.67 11.4049 417.559 11.5781 417.559 11.7822C417.559 11.9987 417.655 12.175 417.847 12.311C418.045 12.4409 418.329 12.5553 418.7 12.6543L419.776 12.9604C420.803 13.2511 421.539 13.6439 421.984 14.1387C422.43 14.6335 422.652 15.2581 422.652 16.0127C422.652 16.4333 422.566 16.8353 422.393 17.2188C422.219 17.596 421.966 17.9331 421.632 18.23C421.298 18.5269 420.883 18.7619 420.389 18.9351C419.894 19.1021 419.331 19.1855 418.7 19.1855C418.218 19.1855 417.763 19.1423 417.336 19.0557C416.916 18.9691 416.523 18.8516 416.158 18.7031C415.799 18.5485 415.475 18.3753 415.184 18.1836C414.893 17.9919 414.646 17.8001 414.442 17.6084L415.871 15.8271ZM428.683 8.86914C429.419 8.86914 430.087 9.00212 430.687 9.26807C431.286 9.52783 431.8 9.88965 432.227 10.3535C432.653 10.8174 432.981 11.3647 433.21 11.9956C433.445 12.6265 433.562 13.3068 433.562 14.0366C433.562 14.7726 433.445 15.4561 433.21 16.0869C432.975 16.7116 432.644 17.2528 432.217 17.7104C431.791 18.1681 431.277 18.5299 430.677 18.7959C430.077 19.0557 429.412 19.1855 428.683 19.1855C427.947 19.1855 427.279 19.0557 426.679 18.7959C426.079 18.5299 425.565 18.1681 425.139 17.7104C424.712 17.2528 424.381 16.7116 424.146 16.0869C423.911 15.4561 423.793 14.7726 423.793 14.0366C423.793 13.3068 423.908 12.6265 424.137 11.9956C424.372 11.3647 424.703 10.8174 425.129 10.3535C425.556 9.88965 426.069 9.52783 426.669 9.26807C427.276 9.00212 427.947 8.86914 428.683 8.86914ZM428.683 16.8105C429.048 16.8105 429.369 16.7425 429.647 16.6064C429.932 16.4704 430.17 16.2817 430.362 16.0405C430.554 15.7993 430.699 15.5117 430.798 15.1777C430.897 14.8376 430.946 14.4665 430.946 14.0645V13.9995C430.946 13.5975 430.897 13.2295 430.798 12.8955C430.699 12.5553 430.554 12.2646 430.362 12.0234C430.17 11.776 429.932 11.5843 429.647 11.4482C429.369 11.3122 429.048 11.2441 428.683 11.2441C428.318 11.2441 427.993 11.3122 427.708 11.4482C427.43 11.5843 427.195 11.776 427.003 12.0234C426.812 12.2646 426.666 12.5553 426.567 12.8955C426.468 13.2295 426.419 13.5975 426.419 13.9995V14.0645C426.419 14.4665 426.468 14.8376 426.567 15.1777C426.666 15.5117 426.812 15.7993 427.003 16.0405C427.195 16.2817 427.43 16.4704 427.708 16.6064C427.993 16.7425 428.318 16.8105 428.683 16.8105ZM435.26 9.06396H437.821V9.91748C437.957 9.78141 438.108 9.65153 438.275 9.52783C438.449 9.39795 438.637 9.28662 438.841 9.19385C439.045 9.09489 439.271 9.01758 439.519 8.96191C439.772 8.90007 440.05 8.86914 440.354 8.86914C440.892 8.86914 441.374 8.95882 441.801 9.13818C442.228 9.31136 442.586 9.55257 442.877 9.86182C443.174 10.1711 443.4 10.5329 443.554 10.9473C443.709 11.3617 443.786 11.8101 443.786 12.2925V19H441.226V13.2202C441.226 12.8677 441.185 12.5708 441.105 12.3296C441.025 12.0822 440.913 11.8843 440.771 11.7358C440.635 11.5812 440.471 11.4699 440.279 11.4019C440.094 11.3276 439.89 11.2905 439.667 11.2905C439.407 11.2905 439.163 11.3369 438.934 11.4297C438.711 11.5225 438.517 11.6647 438.35 11.8564C438.183 12.042 438.053 12.277 437.96 12.5615C437.867 12.846 437.821 13.18 437.821 13.5635V19H435.26V9.06396ZM448.638 11.9121H452.627V14.2129H448.638V11.9121ZM465.922 19H463.352V13.2202C463.352 12.8677 463.312 12.5708 463.231 12.3296C463.157 12.0822 463.052 11.8843 462.916 11.7358C462.78 11.5812 462.622 11.473 462.443 11.4111C462.264 11.3431 462.069 11.3091 461.858 11.3091C461.611 11.3091 461.379 11.3524 461.163 11.439C460.952 11.5256 460.767 11.6616 460.606 11.8472C460.451 12.0327 460.328 12.2708 460.235 12.5615C460.148 12.846 460.105 13.1862 460.105 13.582V19H457.544V9.06396H460.105V9.93604C460.433 9.57113 460.813 9.30208 461.246 9.12891C461.685 8.95573 462.155 8.86914 462.656 8.86914C463.17 8.86914 463.649 8.97428 464.094 9.18457C464.546 9.39486 464.92 9.74121 465.217 10.2236C465.39 9.97624 465.588 9.76595 465.811 9.59277C466.039 9.4196 466.284 9.28044 466.543 9.17529C466.803 9.07015 467.072 8.99284 467.351 8.94336C467.635 8.89388 467.926 8.86914 468.223 8.86914C468.779 8.86914 469.274 8.96191 469.707 9.14746C470.146 9.32682 470.517 9.57113 470.82 9.88037C471.123 10.1896 471.355 10.5452 471.516 10.9473C471.677 11.3493 471.757 11.7729 471.757 12.2183V19H469.169V13.2202C469.169 12.8677 469.129 12.5708 469.048 12.3296C468.974 12.0822 468.869 11.8843 468.733 11.7358C468.597 11.5812 468.436 11.473 468.25 11.4111C468.071 11.3431 467.876 11.3091 467.666 11.3091C467.419 11.3091 467.19 11.3524 466.979 11.439C466.769 11.5256 466.584 11.6616 466.423 11.8472C466.268 12.0327 466.145 12.2708 466.052 12.5615C465.965 12.846 465.922 13.1862 465.922 13.582V19ZM477.101 14.9644C476.786 15.0138 476.532 15.1252 476.34 15.2983C476.149 15.4653 476.053 15.6942 476.053 15.9849C476.053 16.3065 476.17 16.5848 476.405 16.8198C476.64 17.0487 476.987 17.1631 477.444 17.1631C477.927 17.1631 478.307 17.0239 478.585 16.7456C478.864 16.4673 479.003 16.0993 479.003 15.6416V14.6396L477.101 14.9644ZM479.42 18.063C479.315 18.1805 479.185 18.3073 479.031 18.4434C478.882 18.5732 478.703 18.6938 478.493 18.8052C478.289 18.9103 478.047 19 477.769 19.0742C477.491 19.1484 477.178 19.1855 476.832 19.1855C476.337 19.1855 475.88 19.1082 475.459 18.9536C475.045 18.7928 474.68 18.5701 474.364 18.2856C474.049 18.0011 473.801 17.6733 473.622 17.3022C473.443 16.925 473.353 16.5168 473.353 16.0776C473.353 15.2798 473.6 14.6273 474.095 14.1201C474.59 13.613 475.273 13.2944 476.146 13.1646L479.003 12.7471V12.5615C479.003 12.1162 478.867 11.7637 478.595 11.5039C478.323 11.2441 477.88 11.1143 477.268 11.1143C477.014 11.1143 476.758 11.1452 476.498 11.207C476.238 11.2627 475.988 11.3276 475.747 11.4019C475.512 11.4761 475.292 11.5627 475.088 11.6616C474.884 11.7544 474.704 11.8379 474.55 11.9121L473.548 9.95459C474.117 9.63916 474.748 9.37939 475.44 9.17529C476.139 8.97119 476.863 8.86914 477.611 8.86914C478.069 8.86914 478.53 8.91862 478.994 9.01758C479.464 9.11035 479.887 9.28353 480.265 9.53711C480.648 9.79069 480.96 10.137 481.202 10.5762C481.443 11.0091 481.563 11.5627 481.563 12.2368V16.3188C481.563 16.6095 481.638 16.826 481.786 16.9683C481.941 17.1043 482.151 17.2311 482.417 17.3486L481.257 19.1855C480.787 19.1361 480.41 19.0155 480.125 18.8237C479.841 18.6258 479.606 18.3722 479.42 18.063ZM483.707 9.06396H486.267V9.91748C486.403 9.78141 486.555 9.65153 486.722 9.52783C486.895 9.39795 487.083 9.28662 487.288 9.19385C487.492 9.09489 487.717 9.01758 487.965 8.96191C488.218 8.90007 488.497 8.86914 488.8 8.86914C489.338 8.86914 489.82 8.95882 490.247 9.13818C490.674 9.31136 491.033 9.55257 491.323 9.86182C491.62 10.1711 491.846 10.5329 492 10.9473C492.155 11.3617 492.232 11.8101 492.232 12.2925V19H489.672V13.2202C489.672 12.8677 489.632 12.5708 489.551 12.3296C489.471 12.0822 489.36 11.8843 489.217 11.7358C489.081 11.5812 488.917 11.4699 488.726 11.4019C488.54 11.3276 488.336 11.2905 488.113 11.2905C487.854 11.2905 487.609 11.3369 487.38 11.4297C487.158 11.5225 486.963 11.6647 486.796 11.8564C486.629 12.042 486.499 12.277 486.406 12.5615C486.313 12.846 486.267 13.18 486.267 13.5635V19H483.707V9.06396ZM502.827 19H500.267V18.1465C500.124 18.2826 499.97 18.4155 499.803 18.5454C499.636 18.6691 499.45 18.7804 499.246 18.8794C499.042 18.9722 498.813 19.0464 498.56 19.1021C498.312 19.1577 498.037 19.1855 497.734 19.1855C497.196 19.1855 496.713 19.099 496.287 18.9258C495.86 18.7464 495.498 18.5052 495.201 18.2021C494.91 17.8929 494.688 17.5311 494.533 17.1167C494.379 16.7023 494.301 16.2539 494.301 15.7715V9.06396H496.862V14.8345C496.862 15.187 496.899 15.487 496.973 15.7344C497.054 15.9818 497.162 16.1828 497.298 16.3374C497.44 16.4858 497.607 16.5972 497.799 16.6714C497.991 16.7394 498.198 16.7734 498.42 16.7734C498.68 16.7734 498.921 16.7271 499.144 16.6343C499.373 16.5415 499.571 16.4023 499.738 16.2168C499.905 16.0251 500.035 15.7869 500.127 15.5024C500.22 15.2179 500.267 14.884 500.267 14.5005V9.06396H502.827V19ZM508.254 14.9644C507.939 15.0138 507.685 15.1252 507.494 15.2983C507.302 15.4653 507.206 15.6942 507.206 15.9849C507.206 16.3065 507.324 16.5848 507.559 16.8198C507.794 17.0487 508.14 17.1631 508.598 17.1631C509.08 17.1631 509.46 17.0239 509.739 16.7456C510.017 16.4673 510.156 16.0993 510.156 15.6416V14.6396L508.254 14.9644ZM510.574 18.063C510.469 18.1805 510.339 18.3073 510.184 18.4434C510.036 18.5732 509.856 18.6938 509.646 18.8052C509.442 18.9103 509.201 19 508.922 19.0742C508.644 19.1484 508.332 19.1855 507.985 19.1855C507.491 19.1855 507.033 19.1082 506.612 18.9536C506.198 18.7928 505.833 18.5701 505.518 18.2856C505.202 18.0011 504.955 17.6733 504.775 17.3022C504.596 16.925 504.506 16.5168 504.506 16.0776C504.506 15.2798 504.754 14.6273 505.249 14.1201C505.743 13.613 506.427 13.2944 507.299 13.1646L510.156 12.7471V12.5615C510.156 12.1162 510.02 11.7637 509.748 11.5039C509.476 11.2441 509.034 11.1143 508.421 11.1143C508.168 11.1143 507.911 11.1452 507.651 11.207C507.392 11.2627 507.141 11.3276 506.9 11.4019C506.665 11.4761 506.445 11.5627 506.241 11.6616C506.037 11.7544 505.858 11.8379 505.703 11.9121L504.701 9.95459C505.27 9.63916 505.901 9.37939 506.594 9.17529C507.293 8.97119 508.016 8.86914 508.765 8.86914C509.222 8.86914 509.683 8.91862 510.147 9.01758C510.617 9.11035 511.041 9.28353 511.418 9.53711C511.801 9.79069 512.114 10.137 512.355 10.5762C512.596 11.0091 512.717 11.5627 512.717 12.2368V16.3188C512.717 16.6095 512.791 16.826 512.939 16.9683C513.094 17.1043 513.304 17.2311 513.57 17.3486L512.411 19.1855C511.941 19.1361 511.563 19.0155 511.279 18.8237C510.994 18.6258 510.759 18.3722 510.574 18.063ZM514.823 5.69629H517.383V16.3003C517.383 16.5106 517.442 16.6714 517.56 16.7827C517.683 16.894 517.878 16.9497 518.144 16.9497C518.268 16.9497 518.373 16.9435 518.459 16.9312C518.552 16.9126 518.67 16.8879 518.812 16.8569L519.016 19.0371C518.843 19.0618 518.657 19.0866 518.459 19.1113C518.292 19.1299 518.098 19.1453 517.875 19.1577C517.659 19.1763 517.433 19.1855 517.198 19.1855C516.833 19.1855 516.505 19.1392 516.214 19.0464C515.924 18.9536 515.673 18.8175 515.463 18.6382C515.259 18.4526 515.101 18.2238 514.99 17.9517C514.878 17.6795 514.823 17.3641 514.823 17.0054V5.69629Z" fill="white"/>
<rect width="125" height="27" transform="translate(537)" fill="#EB3223"/>
<path d="M546.282 15.2612C546.455 15.4591 546.666 15.654 546.913 15.8457C547.16 16.0374 547.433 16.2106 547.729 16.3652C548.033 16.5137 548.36 16.6343 548.713 16.7271C549.065 16.8136 549.446 16.8569 549.854 16.8569C550.615 16.8569 551.196 16.6992 551.598 16.3838C552.006 16.0622 552.21 15.6725 552.21 15.2148C552.21 14.7386 552.031 14.3768 551.672 14.1294C551.32 13.882 550.757 13.6872 549.984 13.5449L549.566 13.4707C549.01 13.3717 548.456 13.2419 547.906 13.0811C547.355 12.9202 546.857 12.6883 546.412 12.3853C545.967 12.0822 545.605 11.6956 545.327 11.2256C545.048 10.7493 544.909 10.1494 544.909 9.42578C544.909 9.00521 545.002 8.56608 545.188 8.1084C545.373 7.64453 545.667 7.22087 546.069 6.8374C546.477 6.44775 547 6.12923 547.637 5.88184C548.28 5.63444 549.056 5.51074 549.965 5.51074C551.042 5.51074 552 5.6901 552.841 6.04883C553.689 6.40137 554.372 6.86833 554.892 7.44971L553.101 9.11963C552.736 8.71761 552.266 8.40218 551.691 8.17334C551.122 7.9445 550.534 7.83008 549.928 7.83008C549.229 7.83008 548.682 7.96305 548.286 8.229C547.896 8.49495 547.702 8.84131 547.702 9.26807C547.702 9.54639 547.764 9.77832 547.887 9.96387C548.017 10.1494 548.196 10.304 548.425 10.4277C548.654 10.5452 548.929 10.6442 549.251 10.7246C549.573 10.805 549.931 10.8854 550.327 10.9658L550.541 11.0029C551.072 11.1019 551.601 11.2287 552.127 11.3833C552.653 11.5317 553.129 11.7544 553.556 12.0513C553.989 12.342 554.338 12.7254 554.604 13.2017C554.87 13.6717 555.003 14.2747 555.003 15.0107C555.003 15.6787 554.864 16.2694 554.585 16.7827C554.307 17.2961 553.939 17.7352 553.481 18.1001C553.024 18.4588 552.495 18.731 551.895 18.9165C551.295 19.0959 550.67 19.1855 550.021 19.1855C549.365 19.1855 548.756 19.1299 548.193 19.0186C547.637 18.9072 547.13 18.7495 546.672 18.5454C546.22 18.3413 545.815 18.1125 545.457 17.8589C545.104 17.6053 544.795 17.3332 544.529 17.0425L546.282 15.2612ZM567.063 12.2183C567.063 12.8182 567.017 13.4058 566.924 13.981C566.832 14.5562 566.686 15.1035 566.488 15.623C566.297 16.1364 566.049 16.6126 565.746 17.0518C565.443 17.4847 565.078 17.8589 564.651 18.1743C564.225 18.4897 563.733 18.7371 563.176 18.9165C562.626 19.0959 562.004 19.1855 561.312 19.1855C560.743 19.1855 560.217 19.1175 559.734 18.9814C559.252 18.8392 558.816 18.6475 558.426 18.4062C558.037 18.165 557.7 17.8805 557.415 17.5527C557.131 17.2188 556.908 16.86 556.747 16.4766L559.233 15.5024C559.456 15.923 559.753 16.2415 560.124 16.458C560.501 16.6683 560.928 16.7734 561.404 16.7734C561.868 16.7734 562.276 16.6838 562.629 16.5044C562.981 16.3188 563.272 16.0684 563.501 15.7529C563.736 15.4375 563.912 15.0726 564.03 14.6582C564.147 14.2376 564.203 13.7923 564.197 13.3223C564.042 13.4769 563.86 13.6253 563.649 13.7676C563.439 13.9098 563.204 14.0366 562.944 14.1479C562.691 14.2531 562.412 14.3397 562.109 14.4077C561.812 14.4696 561.5 14.5005 561.172 14.5005C560.523 14.5005 559.917 14.3953 559.354 14.1851C558.797 13.9686 558.312 13.6717 557.897 13.2944C557.489 12.911 557.168 12.4564 556.933 11.9307C556.698 11.4049 556.58 10.8298 556.58 10.2051C556.58 9.53711 556.698 8.91553 556.933 8.34033C557.174 7.76514 557.511 7.27035 557.944 6.85596C558.383 6.43538 558.909 6.10758 559.521 5.87256C560.133 5.63135 560.817 5.51074 561.571 5.51074C562.4 5.51074 563.152 5.65918 563.826 5.95605C564.5 6.24674 565.075 6.66732 565.551 7.21777C566.034 7.76823 566.405 8.43929 566.665 9.23096C566.931 10.0226 567.063 10.9163 567.063 11.9121V12.2183ZM564.067 10.0474C564.067 9.73193 564.011 9.43815 563.9 9.16602C563.789 8.89388 563.628 8.65885 563.417 8.46094C563.213 8.25684 562.966 8.09912 562.675 7.98779C562.385 7.87028 562.063 7.81152 561.71 7.81152C561.346 7.81152 561.018 7.87028 560.727 7.98779C560.436 8.09912 560.189 8.25684 559.985 8.46094C559.781 8.65885 559.623 8.89388 559.512 9.16602C559.407 9.43815 559.354 9.73193 559.354 10.0474C559.354 10.3566 559.407 10.6473 559.512 10.9194C559.623 11.1916 559.781 11.4297 559.985 11.6338C560.189 11.8317 560.436 11.9894 560.727 12.1069C561.018 12.2183 561.346 12.2739 561.71 12.2739C562.063 12.2739 562.385 12.2183 562.675 12.1069C562.966 11.9894 563.213 11.8317 563.417 11.6338C563.628 11.4297 563.789 11.1916 563.9 10.9194C564.011 10.6473 564.067 10.3566 564.067 10.0474ZM574.894 19V15.9941H568.26V13.1274L574.151 5.69629H577.593V13.5635H579.532V15.9941H577.593V19H574.894ZM574.894 13.5635V8.34033L570.756 13.5635H574.894ZM587.362 5.69629C587.919 5.69629 588.435 5.77979 588.912 5.94678C589.388 6.10758 589.802 6.33952 590.155 6.64258C590.507 6.94564 590.783 7.31364 590.98 7.74658C591.178 8.17334 591.277 8.64958 591.277 9.17529C591.277 9.44743 591.237 9.71647 591.157 9.98242C591.083 10.2484 590.971 10.4989 590.823 10.7339C590.674 10.9627 590.495 11.173 590.285 11.3647C590.074 11.5565 589.836 11.7142 589.57 11.8379C589.787 11.9121 590.037 12.0234 590.322 12.1719C590.612 12.3203 590.888 12.5244 591.147 12.7842C591.407 13.0439 591.627 13.3656 591.806 13.749C591.986 14.1263 592.075 14.584 592.075 15.1221C592.075 15.7962 591.945 16.3776 591.686 16.8662C591.432 17.3548 591.086 17.7568 590.646 18.0723C590.214 18.3877 589.703 18.6227 589.116 18.7773C588.534 18.9258 587.919 19 587.27 19H581.443V5.69629H587.362ZM589.32 15.0293C589.32 14.6706 589.255 14.3768 589.125 14.1479C588.995 13.9191 588.822 13.7367 588.605 13.6006C588.395 13.4645 588.154 13.3717 587.882 13.3223C587.61 13.2666 587.331 13.2388 587.047 13.2388H584.134V16.8755H587.047C587.331 16.8755 587.61 16.8477 587.882 16.792C588.154 16.7363 588.395 16.6374 588.605 16.4951C588.822 16.3529 588.995 16.1642 589.125 15.9292C589.255 15.6942 589.32 15.3942 589.32 15.0293ZM588.568 9.44434C588.568 8.93717 588.408 8.54134 588.086 8.25684C587.764 7.97233 587.245 7.83008 586.527 7.83008H584.134V10.9658H586.527C587.232 10.9658 587.749 10.8328 588.077 10.5669C588.404 10.2948 588.568 9.92057 588.568 9.44434ZM600.453 14.9644C600.137 15.0138 599.884 15.1252 599.692 15.2983C599.5 15.4653 599.404 15.6942 599.404 15.9849C599.404 16.3065 599.522 16.5848 599.757 16.8198C599.992 17.0487 600.338 17.1631 600.796 17.1631C601.278 17.1631 601.659 17.0239 601.937 16.7456C602.215 16.4673 602.354 16.0993 602.354 15.6416V14.6396L600.453 14.9644ZM602.772 18.063C602.667 18.1805 602.537 18.3073 602.382 18.4434C602.234 18.5732 602.055 18.6938 601.844 18.8052C601.64 18.9103 601.399 19 601.121 19.0742C600.842 19.1484 600.53 19.1855 600.184 19.1855C599.689 19.1855 599.231 19.1082 598.811 18.9536C598.396 18.7928 598.031 18.5701 597.716 18.2856C597.4 18.0011 597.153 17.6733 596.974 17.3022C596.794 16.925 596.705 16.5168 596.705 16.0776C596.705 15.2798 596.952 14.6273 597.447 14.1201C597.942 13.613 598.625 13.2944 599.497 13.1646L602.354 12.7471V12.5615C602.354 12.1162 602.218 11.7637 601.946 11.5039C601.674 11.2441 601.232 11.1143 600.62 11.1143C600.366 11.1143 600.109 11.1452 599.85 11.207C599.59 11.2627 599.339 11.3276 599.098 11.4019C598.863 11.4761 598.644 11.5627 598.439 11.6616C598.235 11.7544 598.056 11.8379 597.901 11.9121L596.899 9.95459C597.468 9.63916 598.099 9.37939 598.792 9.17529C599.491 8.97119 600.215 8.86914 600.963 8.86914C601.421 8.86914 601.881 8.91862 602.345 9.01758C602.815 9.11035 603.239 9.28353 603.616 9.53711C604 9.79069 604.312 10.137 604.553 10.5762C604.794 11.0091 604.915 11.5627 604.915 12.2368V16.3188C604.915 16.6095 604.989 16.826 605.138 16.9683C605.292 17.1043 605.503 17.2311 605.769 17.3486L604.609 19.1855C604.139 19.1361 603.762 19.0155 603.477 18.8237C603.193 18.6258 602.958 18.3722 602.772 18.063ZM609.619 22.1357H607.058V9.06396H609.619V9.91748C609.897 9.62679 610.24 9.37939 610.648 9.17529C611.057 8.97119 611.551 8.86914 612.133 8.86914C612.788 8.86914 613.382 9.00212 613.914 9.26807C614.452 9.52783 614.913 9.88965 615.296 10.3535C615.68 10.8112 615.977 11.3555 616.187 11.9863C616.397 12.6172 616.502 13.3006 616.502 14.0366C616.502 14.7726 616.394 15.4561 616.178 16.0869C615.961 16.7178 615.658 17.262 615.269 17.7197C614.879 18.1774 614.412 18.5361 613.868 18.7959C613.323 19.0557 612.723 19.1855 612.068 19.1855C611.777 19.1855 611.511 19.1577 611.27 19.1021C611.035 19.0526 610.819 18.9814 610.621 18.8887C610.423 18.7959 610.24 18.6877 610.073 18.564C609.906 18.4341 609.755 18.2949 609.619 18.1465V22.1357ZM609.544 14.9551C609.544 15.221 609.591 15.4684 609.684 15.6973C609.783 15.9199 609.922 16.1147 610.101 16.2817C610.28 16.4487 610.494 16.5786 610.741 16.6714C610.995 16.7642 611.279 16.8105 611.595 16.8105C611.96 16.8105 612.281 16.7456 612.56 16.6157C612.844 16.4797 613.082 16.291 613.274 16.0498C613.466 15.8086 613.611 15.5241 613.71 15.1963C613.809 14.8623 613.858 14.4974 613.858 14.1016V13.981C613.858 13.5851 613.809 13.2202 613.71 12.8862C613.611 12.5522 613.466 12.2646 613.274 12.0234C613.082 11.776 612.844 11.5843 612.56 11.4482C612.281 11.3122 611.96 11.2441 611.595 11.2441C611.279 11.2441 610.995 11.2905 610.741 11.3833C610.494 11.4761 610.28 11.606 610.101 11.7729C609.922 11.9399 609.783 12.1379 609.684 12.3667C609.591 12.5955 609.544 12.8429 609.544 13.1089V14.9551ZM620.77 22.1357H618.209V9.06396H620.77V9.91748C621.048 9.62679 621.392 9.37939 621.8 9.17529C622.208 8.97119 622.703 8.86914 623.284 8.86914C623.94 8.86914 624.534 9.00212 625.065 9.26807C625.604 9.52783 626.064 9.88965 626.448 10.3535C626.831 10.8112 627.128 11.3555 627.338 11.9863C627.549 12.6172 627.654 13.3006 627.654 14.0366C627.654 14.7726 627.546 15.4561 627.329 16.0869C627.113 16.7178 626.81 17.262 626.42 17.7197C626.03 18.1774 625.563 18.5361 625.019 18.7959C624.475 19.0557 623.875 19.1855 623.219 19.1855C622.929 19.1855 622.663 19.1577 622.421 19.1021C622.186 19.0526 621.97 18.9814 621.772 18.8887C621.574 18.7959 621.392 18.6877 621.225 18.564C621.058 18.4341 620.906 18.2949 620.77 18.1465V22.1357ZM620.696 14.9551C620.696 15.221 620.742 15.4684 620.835 15.6973C620.934 15.9199 621.073 16.1147 621.252 16.2817C621.432 16.4487 621.645 16.5786 621.893 16.6714C622.146 16.7642 622.431 16.8105 622.746 16.8105C623.111 16.8105 623.433 16.7456 623.711 16.6157C623.995 16.4797 624.234 16.291 624.425 16.0498C624.617 15.8086 624.762 15.5241 624.861 15.1963C624.96 14.8623 625.01 14.4974 625.01 14.1016V13.981C625.01 13.5851 624.96 13.2202 624.861 12.8862C624.762 12.5522 624.617 12.2646 624.425 12.0234C624.234 11.776 623.995 11.5843 623.711 11.4482C623.433 11.3122 623.111 11.2441 622.746 11.2441C622.431 11.2441 622.146 11.2905 621.893 11.3833C621.645 11.4761 621.432 11.606 621.252 11.7729C621.073 11.9399 620.934 12.1379 620.835 12.3667C620.742 12.5955 620.696 12.8429 620.696 13.1089V14.9551ZM631.504 14.918C631.547 15.2148 631.64 15.487 631.782 15.7344C631.931 15.9818 632.116 16.1951 632.339 16.3745C632.562 16.5477 632.818 16.6838 633.109 16.7827C633.4 16.8817 633.709 16.9312 634.037 16.9312C634.414 16.9312 634.822 16.86 635.261 16.7178C635.7 16.5693 636.102 16.356 636.467 16.0776L637.701 17.8774C637.237 18.2671 636.668 18.5825 635.994 18.8237C635.32 19.0649 634.603 19.1855 633.842 19.1855C633.155 19.1855 632.509 19.068 631.903 18.833C631.297 18.598 630.765 18.2578 630.307 17.8125C629.856 17.3672 629.497 16.826 629.231 16.189C628.971 15.5519 628.841 14.8345 628.841 14.0366C628.841 13.3068 628.956 12.6265 629.185 11.9956C629.42 11.3647 629.744 10.8174 630.159 10.3535C630.579 9.88965 631.08 9.52783 631.662 9.26807C632.243 9.00212 632.886 8.86914 633.591 8.86914C634.247 8.86914 634.856 8.98975 635.419 9.23096C635.982 9.46598 636.47 9.79997 636.885 10.2329C637.299 10.6597 637.624 11.173 637.859 11.7729C638.094 12.3729 638.211 13.0347 638.211 13.7583V14.918H631.504ZM633.582 11.0957C633.032 11.0957 632.565 11.2812 632.181 11.6523C631.804 12.0173 631.584 12.4595 631.522 12.979H635.53C635.518 12.4533 635.326 12.008 634.955 11.6431C634.584 11.2782 634.126 11.0957 633.582 11.0957ZM643.054 14.9644C642.739 15.0138 642.485 15.1252 642.293 15.2983C642.102 15.4653 642.006 15.6942 642.006 15.9849C642.006 16.3065 642.123 16.5848 642.358 16.8198C642.593 17.0487 642.94 17.1631 643.397 17.1631C643.88 17.1631 644.26 17.0239 644.539 16.7456C644.817 16.4673 644.956 16.0993 644.956 15.6416V14.6396L643.054 14.9644ZM645.374 18.063C645.268 18.1805 645.139 18.3073 644.984 18.4434C644.835 18.5732 644.656 18.6938 644.446 18.8052C644.242 18.9103 644 19 643.722 19.0742C643.444 19.1484 643.132 19.1855 642.785 19.1855C642.29 19.1855 641.833 19.1082 641.412 18.9536C640.998 18.7928 640.633 18.5701 640.317 18.2856C640.002 18.0011 639.755 17.6733 639.575 17.3022C639.396 16.925 639.306 16.5168 639.306 16.0776C639.306 15.2798 639.554 14.6273 640.048 14.1201C640.543 13.613 641.227 13.2944 642.099 13.1646L644.956 12.7471V12.5615C644.956 12.1162 644.82 11.7637 644.548 11.5039C644.276 11.2441 643.833 11.1143 643.221 11.1143C642.968 11.1143 642.711 11.1452 642.451 11.207C642.191 11.2627 641.941 11.3276 641.7 11.4019C641.465 11.4761 641.245 11.5627 641.041 11.6616C640.837 11.7544 640.658 11.8379 640.503 11.9121L639.501 9.95459C640.07 9.63916 640.701 9.37939 641.394 9.17529C642.092 8.97119 642.816 8.86914 643.564 8.86914C644.022 8.86914 644.483 8.91862 644.947 9.01758C645.417 9.11035 645.84 9.28353 646.218 9.53711C646.601 9.79069 646.914 10.137 647.155 10.5762C647.396 11.0091 647.517 11.5627 647.517 12.2368V16.3188C647.517 16.6095 647.591 16.826 647.739 16.9683C647.894 17.1043 648.104 17.2311 648.37 17.3486L647.21 19.1855C646.74 19.1361 646.363 19.0155 646.079 18.8237C645.794 18.6258 645.559 18.3722 645.374 18.063ZM649.623 5.69629H652.183V16.3003C652.183 16.5106 652.242 16.6714 652.359 16.7827C652.483 16.894 652.678 16.9497 652.944 16.9497C653.068 16.9497 653.173 16.9435 653.259 16.9312C653.352 16.9126 653.47 16.8879 653.612 16.8569L653.816 19.0371C653.643 19.0618 653.457 19.0866 653.259 19.1113C653.092 19.1299 652.897 19.1453 652.675 19.1577C652.458 19.1763 652.233 19.1855 651.998 19.1855C651.633 19.1855 651.305 19.1392 651.014 19.0464C650.723 18.9536 650.473 18.8175 650.263 18.6382C650.059 18.4526 649.901 18.2238 649.79 17.9517C649.678 17.6795 649.623 17.3641 649.623 17.0054V5.69629Z" fill="white"/>
</svg>
