<svg width="630" height="30" viewBox="0 0 630 30" fill="none" xmlns="http://www.w3.org/2000/svg">
<rect width="30" height="30" rx="15" fill="#0B0C0C"/>
<path d="M13.079 5.1377H16.8834L16.557 17.0532H13.418L13.079 5.1377ZM12.5894 20.9831C12.5894 20.6567 12.6521 20.3511 12.7777 20.0665C12.9033 19.7736 13.0748 19.5183 13.2925 19.3006C13.5185 19.083 13.778 18.9114 14.0709 18.7859C14.3639 18.6603 14.6778 18.5975 15.0126 18.5975C15.3391 18.5975 15.6446 18.6603 15.9292 18.7859C16.2222 18.9114 16.4775 19.083 16.6951 19.3006C16.9127 19.5183 17.0843 19.7736 17.2099 20.0665C17.3354 20.3511 17.3982 20.6567 17.3982 20.9831C17.3982 21.3179 17.3354 21.6318 17.2099 21.9248C17.0843 22.2178 16.9127 22.4731 16.6951 22.6907C16.4775 22.9083 16.2222 23.0799 15.9292 23.2055C15.6446 23.3311 15.3391 23.3938 15.0126 23.3938C14.6778 23.3938 14.3639 23.3311 14.0709 23.2055C13.778 23.0799 13.5185 22.9083 13.2925 22.6907C13.0748 22.4731 12.9033 22.2178 12.7777 21.9248C12.6521 21.6318 12.5894 21.3179 12.5894 20.9831Z" fill="white"/>
<path d="M52.7285 13.3481C52.7285 14.3439 52.5924 15.2531 52.3203 16.0757C52.0544 16.8921 51.6523 17.591 51.1143 18.1724C50.5824 18.7537 49.9144 19.2052 49.1104 19.5269C48.3063 19.8423 47.3662 20 46.29 20H41.3916V6.69629H46.29C47.3662 6.69629 48.3063 6.8571 49.1104 7.17871C49.9144 7.49414 50.5824 7.94255 51.1143 8.52393C51.6523 9.10531 52.0544 9.80729 52.3203 10.6299C52.5924 11.4463 52.7285 12.3524 52.7285 13.3481ZM49.936 13.0884C49.936 12.5256 49.8649 12.0029 49.7227 11.5205C49.5866 11.0319 49.3639 10.6082 49.0547 10.2495C48.7516 9.89079 48.3558 9.60938 47.8672 9.40527C47.3786 9.19499 46.7879 9.08984 46.0952 9.08984H44.082V17.6064H46.0952C46.7817 17.6064 47.3693 17.5044 47.8579 17.3003C48.3465 17.09 48.7424 16.8055 49.0454 16.4468C49.3547 16.0819 49.5804 15.6551 49.7227 15.1665C49.8649 14.6779 49.936 14.1553 49.936 13.5986V13.0884ZM58.9814 9.86914C59.7174 9.86914 60.3854 10.0021 60.9854 10.2681C61.5853 10.5278 62.0986 10.8896 62.5254 11.3535C62.9521 11.8174 63.2799 12.3647 63.5088 12.9956C63.7438 13.6265 63.8613 14.3068 63.8613 15.0366C63.8613 15.7726 63.7438 16.4561 63.5088 17.0869C63.2738 17.7116 62.9429 18.2528 62.5161 18.7104C62.0894 19.1681 61.576 19.5299 60.9761 19.7959C60.3761 20.0557 59.7113 20.1855 58.9814 20.1855C58.2454 20.1855 57.5775 20.0557 56.9775 19.7959C56.3776 19.5299 55.8643 19.1681 55.4375 18.7104C55.0107 18.2528 54.6799 17.7116 54.4448 17.0869C54.2098 16.4561 54.0923 15.7726 54.0923 15.0366C54.0923 14.3068 54.2067 13.6265 54.4355 12.9956C54.6706 12.3647 55.0015 11.8174 55.4282 11.3535C55.855 10.8896 56.3683 10.5278 56.9683 10.2681C57.5744 10.0021 58.2454 9.86914 58.9814 9.86914ZM58.9814 17.8105C59.3464 17.8105 59.668 17.7425 59.9463 17.6064C60.2308 17.4704 60.4689 17.2817 60.6606 17.0405C60.8524 16.7993 60.9977 16.5117 61.0967 16.1777C61.1956 15.8376 61.2451 15.4665 61.2451 15.0645V14.9995C61.2451 14.5975 61.1956 14.2295 61.0967 13.8955C60.9977 13.5553 60.8524 13.2646 60.6606 13.0234C60.4689 12.776 60.2308 12.5843 59.9463 12.4482C59.668 12.3122 59.3464 12.2441 58.9814 12.2441C58.6165 12.2441 58.2918 12.3122 58.0073 12.4482C57.729 12.5843 57.494 12.776 57.3022 13.0234C57.1105 13.2646 56.9652 13.5553 56.8662 13.8955C56.7673 14.2295 56.7178 14.5975 56.7178 14.9995V15.0645C56.7178 15.4665 56.7673 15.8376 56.8662 16.1777C56.9652 16.5117 57.1105 16.7993 57.3022 17.0405C57.494 17.2817 57.729 17.4704 58.0073 17.6064C58.2918 17.7425 58.6165 17.8105 58.9814 17.8105ZM67.6836 15.083C67.6836 15.4046 67.7269 15.7293 67.8135 16.0571C67.9001 16.3787 68.033 16.6694 68.2124 16.9292C68.3918 17.189 68.6206 17.4023 68.8989 17.5693C69.1834 17.7301 69.5205 17.8105 69.9102 17.8105C70.1637 17.8105 70.3926 17.7765 70.5967 17.7085C70.807 17.6405 70.9925 17.5477 71.1533 17.4302C71.3203 17.3065 71.4657 17.1642 71.5894 17.0034C71.7192 16.8364 71.8306 16.6571 71.9233 16.4653L74.1685 17.625C74.0076 18.0146 73.785 18.3672 73.5005 18.6826C73.2222 18.998 72.8975 19.2671 72.5264 19.4897C72.1553 19.7124 71.744 19.8825 71.2925 20C70.841 20.1237 70.3617 20.1855 69.8545 20.1855C69.1556 20.1855 68.5124 20.0557 67.9248 19.7959C67.3372 19.5299 66.8301 19.1681 66.4033 18.7104C65.9766 18.2528 65.6426 17.7116 65.4014 17.0869C65.1602 16.4561 65.0396 15.7726 65.0396 15.0366C65.0396 14.3068 65.1602 13.6265 65.4014 12.9956C65.6426 12.3647 65.9766 11.8174 66.4033 11.3535C66.8301 10.8896 67.3372 10.5278 67.9248 10.2681C68.5124 10.0021 69.1556 9.86914 69.8545 9.86914C70.3617 9.86914 70.841 9.93099 71.2925 10.0547C71.744 10.1722 72.1553 10.3454 72.5264 10.5742C72.8975 10.7969 73.2222 11.0659 73.5005 11.3813C73.785 11.6968 74.0076 12.0493 74.1685 12.439L71.9233 13.5986C71.8306 13.4069 71.7192 13.2306 71.5894 13.0698C71.4657 12.9028 71.3203 12.7606 71.1533 12.6431C70.9925 12.5194 70.807 12.4235 70.5967 12.3555C70.3926 12.2812 70.1637 12.2441 69.9102 12.2441C69.5205 12.2441 69.1834 12.3276 68.8989 12.4946C68.6206 12.6554 68.3918 12.8688 68.2124 13.1348C68.033 13.3945 67.9001 13.6883 67.8135 14.0161C67.7269 14.3439 67.6836 14.6717 67.6836 14.9995V15.083ZM84.1973 20H81.6367V19.1465C81.4945 19.2826 81.3398 19.4155 81.1729 19.5454C81.0059 19.6691 80.8203 19.7804 80.6162 19.8794C80.4121 19.9722 80.1833 20.0464 79.9297 20.1021C79.6823 20.1577 79.4071 20.1855 79.104 20.1855C78.5659 20.1855 78.0835 20.099 77.6567 19.9258C77.23 19.7464 76.8682 19.5052 76.5713 19.2021C76.2806 18.8929 76.0579 18.5311 75.9033 18.1167C75.7487 17.7023 75.6714 17.2539 75.6714 16.7715V10.064H78.2319V15.8345C78.2319 16.187 78.269 16.487 78.3433 16.7344C78.4237 16.9818 78.5319 17.1828 78.668 17.3374C78.8102 17.4858 78.9772 17.5972 79.1689 17.6714C79.3607 17.7394 79.5679 17.7734 79.7905 17.7734C80.0503 17.7734 80.2915 17.7271 80.5142 17.6343C80.743 17.5415 80.9409 17.4023 81.1079 17.2168C81.2749 17.0251 81.4048 16.7869 81.4976 16.5024C81.5903 16.2179 81.6367 15.884 81.6367 15.5005V10.064H84.1973V20ZM94.792 20H92.2222V14.2202C92.2222 13.8677 92.182 13.5708 92.1016 13.3296C92.0273 13.0822 91.9222 12.8843 91.7861 12.7358C91.6501 12.5812 91.4924 12.473 91.313 12.4111C91.1336 12.3431 90.9388 12.3091 90.7285 12.3091C90.4811 12.3091 90.2492 12.3524 90.0327 12.439C89.8224 12.5256 89.6369 12.6616 89.4761 12.8472C89.3215 13.0327 89.1978 13.2708 89.105 13.5615C89.0184 13.846 88.9751 14.1862 88.9751 14.582V20H86.4146V10.064H88.9751V10.936C89.3029 10.5711 89.6833 10.3021 90.1162 10.1289C90.5553 9.95573 91.0254 9.86914 91.5264 9.86914C92.0397 9.86914 92.519 9.97428 92.9644 10.1846C93.4159 10.3949 93.79 10.7412 94.0869 11.2236C94.2601 10.9762 94.458 10.766 94.6807 10.5928C94.9095 10.4196 95.1538 10.2804 95.4136 10.1753C95.6733 10.0701 95.9424 9.99284 96.2207 9.94336C96.5052 9.89388 96.7959 9.86914 97.0928 9.86914C97.6494 9.86914 98.1442 9.96191 98.5771 10.1475C99.0163 10.3268 99.3874 10.5711 99.6904 10.8804C99.9935 11.1896 100.225 11.5452 100.386 11.9473C100.547 12.3493 100.627 12.7729 100.627 13.2183V20H98.0391V14.2202C98.0391 13.8677 97.9989 13.5708 97.9185 13.3296C97.8442 13.0822 97.7391 12.8843 97.603 12.7358C97.467 12.5812 97.3062 12.473 97.1206 12.4111C96.9412 12.3431 96.7464 12.3091 96.5361 12.3091C96.2887 12.3091 96.0599 12.3524 95.8496 12.439C95.6393 12.5256 95.4538 12.6616 95.293 12.8472C95.1383 13.0327 95.0146 13.2708 94.9219 13.5615C94.8353 13.846 94.792 14.1862 94.792 14.582V20ZM104.904 15.918C104.948 16.2148 105.04 16.487 105.183 16.7344C105.331 16.9818 105.517 17.1951 105.739 17.3745C105.962 17.5477 106.219 17.6838 106.509 17.7827C106.8 17.8817 107.109 17.9312 107.437 17.9312C107.814 17.9312 108.222 17.86 108.662 17.7178C109.101 17.5693 109.503 17.356 109.868 17.0776L111.102 18.8774C110.638 19.2671 110.069 19.5825 109.395 19.8237C108.72 20.0649 108.003 20.1855 107.242 20.1855C106.556 20.1855 105.909 20.068 105.303 19.833C104.697 19.598 104.165 19.2578 103.708 18.8125C103.256 18.3672 102.897 17.826 102.631 17.189C102.372 16.5519 102.242 15.8345 102.242 15.0366C102.242 14.3068 102.356 13.6265 102.585 12.9956C102.82 12.3647 103.145 11.8174 103.559 11.3535C103.98 10.8896 104.481 10.5278 105.062 10.2681C105.643 10.0021 106.287 9.86914 106.992 9.86914C107.647 9.86914 108.257 9.98975 108.819 10.231C109.382 10.466 109.871 10.8 110.285 11.2329C110.7 11.6597 111.024 12.173 111.259 12.7729C111.494 13.3729 111.612 14.0347 111.612 14.7583V15.918H104.904ZM106.982 12.0957C106.432 12.0957 105.965 12.2812 105.582 12.6523C105.204 13.0173 104.985 13.4595 104.923 13.979H108.931C108.918 13.4533 108.727 13.008 108.355 12.6431C107.984 12.2782 107.527 12.0957 106.982 12.0957ZM113.245 10.064H115.805V10.9175C115.941 10.7814 116.093 10.6515 116.26 10.5278C116.433 10.3979 116.622 10.2866 116.826 10.1938C117.03 10.0949 117.256 10.0176 117.503 9.96191C117.757 9.90007 118.035 9.86914 118.338 9.86914C118.876 9.86914 119.358 9.95882 119.785 10.1382C120.212 10.3114 120.571 10.5526 120.861 10.8618C121.158 11.1711 121.384 11.5329 121.539 11.9473C121.693 12.3617 121.771 12.8101 121.771 13.2925V20H119.21V14.2202C119.21 13.8677 119.17 13.5708 119.089 13.3296C119.009 13.0822 118.898 12.8843 118.755 12.7358C118.619 12.5812 118.455 12.4699 118.264 12.4019C118.078 12.3276 117.874 12.2905 117.651 12.2905C117.392 12.2905 117.147 12.3369 116.918 12.4297C116.696 12.5225 116.501 12.6647 116.334 12.8564C116.167 13.042 116.037 13.277 115.944 13.5615C115.852 13.846 115.805 14.18 115.805 14.5635V20H113.245V10.064ZM127.578 17.0405C127.578 17.158 127.594 17.2694 127.625 17.3745C127.655 17.4797 127.708 17.5724 127.782 17.6528C127.863 17.7271 127.974 17.7858 128.116 17.8291C128.258 17.8724 128.441 17.894 128.664 17.894C128.756 17.894 128.861 17.891 128.979 17.8848C129.097 17.8724 129.214 17.86 129.332 17.8477C129.449 17.8353 129.557 17.8198 129.656 17.8013C129.761 17.7827 129.848 17.7673 129.916 17.7549L130.148 20.0186C129.907 20.0495 129.656 20.0773 129.396 20.1021C129.174 20.1268 128.926 20.1453 128.654 20.1577C128.382 20.1763 128.107 20.1855 127.829 20.1855C126.944 20.1855 126.255 19.9845 125.76 19.5825C125.265 19.1805 125.018 18.5404 125.018 17.6621V12.2905H123.227V10.064H125.018V7.25293L127.578 6.56641V10.064H130.185V12.2905H127.578V17.0405ZM132.504 16.8271C132.869 17.1549 133.305 17.4364 133.812 17.6714C134.32 17.9064 134.833 18.0239 135.353 18.0239C135.73 18.0239 136.027 17.9528 136.243 17.8105C136.46 17.6621 136.568 17.4735 136.568 17.2446C136.568 16.855 136.15 16.5519 135.315 16.3354L134.592 16.1406C134.233 16.054 133.871 15.9365 133.506 15.7881C133.141 15.6335 132.804 15.4325 132.495 15.1851C132.192 14.9377 131.945 14.6377 131.753 14.2852C131.567 13.9264 131.475 13.4873 131.475 12.9678C131.475 12.5534 131.564 12.1606 131.744 11.7896C131.929 11.4123 132.189 11.0814 132.523 10.7969C132.863 10.5124 133.274 10.2866 133.757 10.1196C134.239 9.95264 134.777 9.86914 135.371 9.86914C136.218 9.86914 136.973 10.0021 137.635 10.2681C138.303 10.534 138.828 10.834 139.212 11.168L137.876 12.875C137.561 12.6462 137.186 12.4513 136.753 12.2905C136.327 12.1235 135.897 12.04 135.464 12.04C135.062 12.04 134.75 12.1143 134.527 12.2627C134.304 12.4049 134.193 12.5781 134.193 12.7822C134.193 12.9987 134.289 13.175 134.48 13.311C134.678 13.4409 134.963 13.5553 135.334 13.6543L136.41 13.9604C137.437 14.2511 138.173 14.6439 138.618 15.1387C139.063 15.6335 139.286 16.2581 139.286 17.0127C139.286 17.4333 139.2 17.8353 139.026 18.2188C138.853 18.596 138.6 18.9331 138.266 19.23C137.932 19.5269 137.517 19.7619 137.022 19.9351C136.528 20.1021 135.965 20.1855 135.334 20.1855C134.852 20.1855 134.397 20.1423 133.97 20.0557C133.55 19.9691 133.157 19.8516 132.792 19.7031C132.433 19.5485 132.109 19.3753 131.818 19.1836C131.527 18.9919 131.28 18.8001 131.076 18.6084L132.504 16.8271ZM144.379 6.69629H146.94V10.9175C147.076 10.7814 147.228 10.6515 147.395 10.5278C147.568 10.3979 147.756 10.2866 147.96 10.1938C148.165 10.0949 148.39 10.0176 148.638 9.96191C148.891 9.90007 149.17 9.86914 149.473 9.86914C150.011 9.86914 150.493 9.95882 150.92 10.1382C151.347 10.3114 151.705 10.5526 151.996 10.8618C152.293 11.1711 152.519 11.5329 152.673 11.9473C152.828 12.3617 152.905 12.8101 152.905 13.2925V20H150.345V14.2202C150.345 13.8677 150.305 13.5708 150.224 13.3296C150.144 13.0822 150.032 12.8843 149.89 12.7358C149.754 12.5812 149.59 12.4699 149.398 12.4019C149.213 12.3276 149.009 12.2905 148.786 12.2905C148.526 12.2905 148.282 12.3369 148.053 12.4297C147.831 12.5225 147.636 12.6647 147.469 12.8564C147.302 13.042 147.172 13.277 147.079 13.5615C146.986 13.846 146.94 14.18 146.94 14.5635V20H144.379V6.69629ZM158.258 15.9644C157.943 16.0138 157.689 16.1252 157.498 16.2983C157.306 16.4653 157.21 16.6942 157.21 16.9849C157.21 17.3065 157.327 17.5848 157.562 17.8198C157.798 18.0487 158.144 18.1631 158.602 18.1631C159.084 18.1631 159.464 18.0239 159.743 17.7456C160.021 17.4673 160.16 17.0993 160.16 16.6416V15.6396L158.258 15.9644ZM160.578 19.063C160.472 19.1805 160.343 19.3073 160.188 19.4434C160.04 19.5732 159.86 19.6938 159.65 19.8052C159.446 19.9103 159.205 20 158.926 20.0742C158.648 20.1484 158.336 20.1855 157.989 20.1855C157.494 20.1855 157.037 20.1082 156.616 19.9536C156.202 19.7928 155.837 19.5701 155.521 19.2856C155.206 19.0011 154.959 18.6733 154.779 18.3022C154.6 17.925 154.51 17.5168 154.51 17.0776C154.51 16.2798 154.758 15.6273 155.252 15.1201C155.747 14.613 156.431 14.2944 157.303 14.1646L160.16 13.7471V13.5615C160.16 13.1162 160.024 12.7637 159.752 12.5039C159.48 12.2441 159.038 12.1143 158.425 12.1143C158.172 12.1143 157.915 12.1452 157.655 12.207C157.396 12.2627 157.145 12.3276 156.904 12.4019C156.669 12.4761 156.449 12.5627 156.245 12.6616C156.041 12.7544 155.862 12.8379 155.707 12.9121L154.705 10.9546C155.274 10.6392 155.905 10.3794 156.598 10.1753C157.297 9.97119 158.02 9.86914 158.769 9.86914C159.226 9.86914 159.687 9.91862 160.151 10.0176C160.621 10.1104 161.045 10.2835 161.422 10.5371C161.805 10.7907 162.118 11.137 162.359 11.5762C162.6 12.0091 162.721 12.5627 162.721 13.2368V17.3188C162.721 17.6095 162.795 17.826 162.943 17.9683C163.098 18.1043 163.308 18.2311 163.574 18.3486L162.415 20.1855C161.944 20.1361 161.567 20.0155 161.283 19.8237C160.998 19.6258 160.763 19.3722 160.578 19.063ZM166.97 20L163.927 10.064H166.784L168.565 16.9014L170.393 10.064H173.204L170.18 20H166.97ZM176.618 15.918C176.661 16.2148 176.754 16.487 176.896 16.7344C177.045 16.9818 177.23 17.1951 177.453 17.3745C177.676 17.5477 177.932 17.6838 178.223 17.7827C178.514 17.8817 178.823 17.9312 179.151 17.9312C179.528 17.9312 179.936 17.86 180.375 17.7178C180.815 17.5693 181.217 17.356 181.582 17.0776L182.815 18.8774C182.352 19.2671 181.783 19.5825 181.108 19.8237C180.434 20.0649 179.717 20.1855 178.956 20.1855C178.27 20.1855 177.623 20.068 177.017 19.833C176.411 19.598 175.879 19.2578 175.421 18.8125C174.97 18.3672 174.611 17.826 174.345 17.189C174.085 16.5519 173.956 15.8345 173.956 15.0366C173.956 14.3068 174.07 13.6265 174.299 12.9956C174.534 12.3647 174.859 11.8174 175.273 11.3535C175.694 10.8896 176.194 10.5278 176.776 10.2681C177.357 10.0021 178 9.86914 178.706 9.86914C179.361 9.86914 179.97 9.98975 180.533 10.231C181.096 10.466 181.585 10.8 181.999 11.2329C182.413 11.6597 182.738 12.173 182.973 12.7729C183.208 13.3729 183.326 14.0347 183.326 14.7583V15.918H176.618ZM178.696 12.0957C178.146 12.0957 177.679 12.2812 177.295 12.6523C176.918 13.0173 176.699 13.4595 176.637 13.979H180.645C180.632 13.4533 180.44 13.008 180.069 12.6431C179.698 12.2782 179.241 12.0957 178.696 12.0957ZM188.391 10.064H190.952V10.9175C191.088 10.7814 191.239 10.6515 191.406 10.5278C191.579 10.3979 191.768 10.2866 191.972 10.1938C192.176 10.0949 192.402 10.0176 192.649 9.96191C192.903 9.90007 193.181 9.86914 193.484 9.86914C194.022 9.86914 194.505 9.95882 194.932 10.1382C195.358 10.3114 195.717 10.5526 196.008 10.8618C196.305 11.1711 196.53 11.5329 196.685 11.9473C196.84 12.3617 196.917 12.8101 196.917 13.2925V20H194.356V14.2202C194.356 13.8677 194.316 13.5708 194.236 13.3296C194.155 13.0822 194.044 12.8843 193.902 12.7358C193.766 12.5812 193.602 12.4699 193.41 12.4019C193.225 12.3276 193.021 12.2905 192.798 12.2905C192.538 12.2905 192.294 12.3369 192.065 12.4297C191.842 12.5225 191.647 12.6647 191.48 12.8564C191.313 13.042 191.184 13.277 191.091 13.5615C190.998 13.846 190.952 14.18 190.952 14.5635V20H188.391V10.064ZM203.43 9.86914C204.166 9.86914 204.834 10.0021 205.434 10.2681C206.034 10.5278 206.547 10.8896 206.974 11.3535C207.4 11.8174 207.728 12.3647 207.957 12.9956C208.192 13.6265 208.31 14.3068 208.31 15.0366C208.31 15.7726 208.192 16.4561 207.957 17.0869C207.722 17.7116 207.391 18.2528 206.964 18.7104C206.538 19.1681 206.024 19.5299 205.424 19.7959C204.824 20.0557 204.16 20.1855 203.43 20.1855C202.694 20.1855 202.026 20.0557 201.426 19.7959C200.826 19.5299 200.312 19.1681 199.886 18.7104C199.459 18.2528 199.128 17.7116 198.893 17.0869C198.658 16.4561 198.541 15.7726 198.541 15.0366C198.541 14.3068 198.655 13.6265 198.884 12.9956C199.119 12.3647 199.45 11.8174 199.876 11.3535C200.303 10.8896 200.817 10.5278 201.417 10.2681C202.023 10.0021 202.694 9.86914 203.43 9.86914ZM203.43 17.8105C203.795 17.8105 204.116 17.7425 204.395 17.6064C204.679 17.4704 204.917 17.2817 205.109 17.0405C205.301 16.7993 205.446 16.5117 205.545 16.1777C205.644 15.8376 205.693 15.4665 205.693 15.0645V14.9995C205.693 14.5975 205.644 14.2295 205.545 13.8955C205.446 13.5553 205.301 13.2646 205.109 13.0234C204.917 12.776 204.679 12.5843 204.395 12.4482C204.116 12.3122 203.795 12.2441 203.43 12.2441C203.065 12.2441 202.74 12.3122 202.456 12.4482C202.177 12.5843 201.942 12.776 201.75 13.0234C201.559 13.2646 201.413 13.5553 201.314 13.8955C201.215 14.2295 201.166 14.5975 201.166 14.9995V15.0645C201.166 15.4665 201.215 15.8376 201.314 16.1777C201.413 16.5117 201.559 16.7993 201.75 17.0405C201.942 17.2817 202.177 17.4704 202.456 17.6064C202.74 17.7425 203.065 17.8105 203.43 17.8105ZM213.672 17.0405C213.672 17.158 213.687 17.2694 213.718 17.3745C213.749 17.4797 213.802 17.5724 213.876 17.6528C213.956 17.7271 214.068 17.7858 214.21 17.8291C214.352 17.8724 214.535 17.894 214.757 17.894C214.85 17.894 214.955 17.891 215.073 17.8848C215.19 17.8724 215.308 17.86 215.425 17.8477C215.543 17.8353 215.651 17.8198 215.75 17.8013C215.855 17.7827 215.942 17.7673 216.01 17.7549L216.242 20.0186C216 20.0495 215.75 20.0773 215.49 20.1021C215.268 20.1268 215.02 20.1453 214.748 20.1577C214.476 20.1763 214.201 20.1855 213.922 20.1855C213.038 20.1855 212.348 19.9845 211.854 19.5825C211.359 19.1805 211.111 18.5404 211.111 17.6621V12.2905H209.321V10.064H211.111V7.25293L213.672 6.56641V10.064H216.279V12.2905H213.672V17.0405ZM230.77 15.0366C230.77 15.7726 230.662 16.4561 230.445 17.0869C230.229 17.7178 229.926 18.262 229.536 18.7197C229.146 19.1774 228.68 19.5361 228.135 19.7959C227.591 20.0557 226.991 20.1855 226.335 20.1855C226.045 20.1855 225.779 20.1577 225.538 20.1021C225.303 20.0526 225.086 19.9814 224.888 19.8887C224.69 19.7959 224.508 19.6877 224.341 19.564C224.174 19.4341 224.022 19.2949 223.886 19.1465V20H221.326V6.69629H223.886V10.9175C224.165 10.6268 224.508 10.3794 224.916 10.1753C225.324 9.97119 225.819 9.86914 226.4 9.86914C227.056 9.86914 227.65 10.0021 228.182 10.2681C228.72 10.5278 229.181 10.8896 229.564 11.3535C229.947 11.8112 230.244 12.3555 230.455 12.9863C230.665 13.6172 230.77 14.3006 230.77 15.0366ZM223.812 15.9551C223.812 16.221 223.858 16.4684 223.951 16.6973C224.05 16.9199 224.189 17.1147 224.369 17.2817C224.548 17.4487 224.761 17.5786 225.009 17.6714C225.262 17.7642 225.547 17.8105 225.862 17.8105C226.227 17.8105 226.549 17.7456 226.827 17.6157C227.112 17.4797 227.35 17.291 227.542 17.0498C227.733 16.8086 227.879 16.5241 227.978 16.1963C228.076 15.8623 228.126 15.4974 228.126 15.1016V14.981C228.126 14.5851 228.076 14.2202 227.978 13.8862C227.879 13.5522 227.733 13.2646 227.542 13.0234C227.35 12.776 227.112 12.5843 226.827 12.4482C226.549 12.3122 226.227 12.2441 225.862 12.2441C225.547 12.2441 225.262 12.2905 225.009 12.3833C224.761 12.4761 224.548 12.606 224.369 12.7729C224.189 12.9399 224.05 13.1379 223.951 13.3667C223.858 13.5955 223.812 13.8429 223.812 14.1089V15.9551ZM234.62 15.918C234.663 16.2148 234.756 16.487 234.898 16.7344C235.047 16.9818 235.232 17.1951 235.455 17.3745C235.678 17.5477 235.934 17.6838 236.225 17.7827C236.516 17.8817 236.825 17.9312 237.153 17.9312C237.53 17.9312 237.938 17.86 238.377 17.7178C238.817 17.5693 239.219 17.356 239.583 17.0776L240.817 18.8774C240.354 19.2671 239.785 19.5825 239.11 19.8237C238.436 20.0649 237.719 20.1855 236.958 20.1855C236.271 20.1855 235.625 20.068 235.019 19.833C234.413 19.598 233.881 19.2578 233.423 18.8125C232.972 18.3672 232.613 17.826 232.347 17.189C232.087 16.5519 231.958 15.8345 231.958 15.0366C231.958 14.3068 232.072 13.6265 232.301 12.9956C232.536 12.3647 232.861 11.8174 233.275 11.3535C233.695 10.8896 234.196 10.5278 234.778 10.2681C235.359 10.0021 236.002 9.86914 236.708 9.86914C237.363 9.86914 237.972 9.98975 238.535 10.231C239.098 10.466 239.587 10.8 240.001 11.2329C240.415 11.6597 240.74 12.173 240.975 12.7729C241.21 13.3729 241.328 14.0347 241.328 14.7583V15.918H234.62ZM236.698 12.0957C236.148 12.0957 235.681 12.2812 235.297 12.6523C234.92 13.0173 234.701 13.4595 234.639 13.979H238.646C238.634 13.4533 238.442 13.008 238.071 12.6431C237.7 12.2782 237.243 12.0957 236.698 12.0957ZM245.104 15.918C245.147 16.2148 245.24 16.487 245.382 16.7344C245.53 16.9818 245.716 17.1951 245.938 17.3745C246.161 17.5477 246.418 17.6838 246.708 17.7827C246.999 17.8817 247.308 17.9312 247.636 17.9312C248.014 17.9312 248.422 17.86 248.861 17.7178C249.3 17.5693 249.702 17.356 250.067 17.0776L251.301 18.8774C250.837 19.2671 250.268 19.5825 249.594 19.8237C248.92 20.0649 248.202 20.1855 247.441 20.1855C246.755 20.1855 246.109 20.068 245.502 19.833C244.896 19.598 244.364 19.2578 243.907 18.8125C243.455 18.3672 243.097 17.826 242.831 17.189C242.571 16.5519 242.441 15.8345 242.441 15.0366C242.441 14.3068 242.555 13.6265 242.784 12.9956C243.019 12.3647 243.344 11.8174 243.758 11.3535C244.179 10.8896 244.68 10.5278 245.261 10.2681C245.843 10.0021 246.486 9.86914 247.191 9.86914C247.847 9.86914 248.456 9.98975 249.019 10.231C249.581 10.466 250.07 10.8 250.484 11.2329C250.899 11.6597 251.223 12.173 251.458 12.7729C251.694 13.3729 251.811 14.0347 251.811 14.7583V15.918H245.104ZM247.182 12.0957C246.631 12.0957 246.164 12.2812 245.781 12.6523C245.403 13.0173 245.184 13.4595 245.122 13.979H249.13C249.118 13.4533 248.926 13.008 248.555 12.6431C248.184 12.2782 247.726 12.0957 247.182 12.0957ZM253.444 10.064H256.004V10.9175C256.14 10.7814 256.292 10.6515 256.459 10.5278C256.632 10.3979 256.821 10.2866 257.025 10.1938C257.229 10.0949 257.455 10.0176 257.702 9.96191C257.956 9.90007 258.234 9.86914 258.537 9.86914C259.075 9.86914 259.558 9.95882 259.984 10.1382C260.411 10.3114 260.77 10.5526 261.061 10.8618C261.357 11.1711 261.583 11.5329 261.738 11.9473C261.892 12.3617 261.97 12.8101 261.97 13.2925V20H259.409V14.2202C259.409 13.8677 259.369 13.5708 259.289 13.3296C259.208 13.0822 259.097 12.8843 258.955 12.7358C258.819 12.5812 258.655 12.4699 258.463 12.4019C258.277 12.3276 258.073 12.2905 257.851 12.2905C257.591 12.2905 257.347 12.3369 257.118 12.4297C256.895 12.5225 256.7 12.6647 256.533 12.8564C256.366 13.042 256.236 13.277 256.144 13.5615C256.051 13.846 256.004 14.18 256.004 14.5635V20H253.444V10.064ZM275.923 20H273.353V14.2202C273.353 13.8677 273.313 13.5708 273.232 13.3296C273.158 13.0822 273.053 12.8843 272.917 12.7358C272.781 12.5812 272.623 12.473 272.444 12.4111C272.264 12.3431 272.07 12.3091 271.859 12.3091C271.612 12.3091 271.38 12.3524 271.164 12.439C270.953 12.5256 270.768 12.6616 270.607 12.8472C270.452 13.0327 270.329 13.2708 270.236 13.5615C270.149 13.846 270.106 14.1862 270.106 14.582V20H267.545V10.064H270.106V10.936C270.434 10.5711 270.814 10.3021 271.247 10.1289C271.686 9.95573 272.156 9.86914 272.657 9.86914C273.171 9.86914 273.65 9.97428 274.095 10.1846C274.547 10.3949 274.921 10.7412 275.218 11.2236C275.391 10.9762 275.589 10.766 275.812 10.5928C276.04 10.4196 276.285 10.2804 276.544 10.1753C276.804 10.0701 277.073 9.99284 277.352 9.94336C277.636 9.89388 277.927 9.86914 278.224 9.86914C278.78 9.86914 279.275 9.96191 279.708 10.1475C280.147 10.3268 280.518 10.5711 280.821 10.8804C281.124 11.1896 281.356 11.5452 281.517 11.9473C281.678 12.3493 281.758 12.7729 281.758 13.2183V20H279.17V14.2202C279.17 13.8677 279.13 13.5708 279.049 13.3296C278.975 13.0822 278.87 12.8843 278.734 12.7358C278.598 12.5812 278.437 12.473 278.251 12.4111C278.072 12.3431 277.877 12.3091 277.667 12.3091C277.42 12.3091 277.191 12.3524 276.98 12.439C276.77 12.5256 276.585 12.6616 276.424 12.8472C276.269 13.0327 276.146 13.2708 276.053 13.5615C275.966 13.846 275.923 14.1862 275.923 14.582V20ZM286.453 20H283.892V10.064H286.453V20ZM283.623 7.45703C283.623 7.24674 283.663 7.04883 283.744 6.86328C283.824 6.67155 283.932 6.50765 284.068 6.37158C284.211 6.22933 284.375 6.118 284.56 6.0376C284.746 5.95719 284.947 5.91699 285.163 5.91699C285.373 5.91699 285.571 5.95719 285.757 6.0376C285.949 6.118 286.112 6.22933 286.249 6.37158C286.391 6.50765 286.502 6.67155 286.583 6.86328C286.663 7.04883 286.703 7.24674 286.703 7.45703C286.703 7.6735 286.663 7.87451 286.583 8.06006C286.502 8.24561 286.391 8.40951 286.249 8.55176C286.112 8.68783 285.949 8.79606 285.757 8.87646C285.571 8.95687 285.373 8.99707 285.163 8.99707C284.947 8.99707 284.746 8.95687 284.56 8.87646C284.375 8.79606 284.211 8.68783 284.068 8.55176C283.932 8.40951 283.824 8.24561 283.744 8.06006C283.663 7.87451 283.623 7.6735 283.623 7.45703ZM294.7 18.2373C294.471 18.5156 294.15 18.7383 293.735 18.9053C293.327 19.0661 292.882 19.1465 292.399 19.1465C291.731 19.1465 291.138 19.029 290.618 18.7939C290.099 18.5589 289.66 18.2373 289.301 17.8291C288.948 17.4147 288.676 16.9261 288.484 16.3633C288.299 15.8005 288.206 15.182 288.206 14.5078C288.206 13.8522 288.299 13.2399 288.484 12.6709C288.676 12.0957 288.948 11.604 289.301 11.1958C289.66 10.7814 290.099 10.4567 290.618 10.2217C291.138 9.98665 291.731 9.86914 292.399 9.86914C292.882 9.86914 293.327 9.95264 293.735 10.1196C294.15 10.2866 294.471 10.5093 294.7 10.7876V10.064H297.27V19.9072C297.27 20.5133 297.156 21.0329 296.927 21.4658C296.698 21.9049 296.382 22.2637 295.98 22.542C295.585 22.8203 295.124 23.0213 294.598 23.145C294.072 23.2749 293.513 23.3398 292.919 23.3398C292.195 23.3398 291.441 23.2533 290.655 23.0801C289.87 22.9131 289.193 22.7028 288.624 22.4492L289.347 20.3804C289.52 20.4546 289.734 20.535 289.987 20.6216C290.241 20.7144 290.513 20.7948 290.804 20.8628C291.094 20.9308 291.397 20.9865 291.713 21.0298C292.035 21.0793 292.347 21.104 292.65 21.104C292.916 21.104 293.173 21.0762 293.42 21.0205C293.667 20.971 293.884 20.8844 294.069 20.7607C294.261 20.6432 294.413 20.4855 294.524 20.2876C294.641 20.0959 294.7 19.8485 294.7 19.5454V18.2373ZM290.841 14.5449C290.841 14.8727 290.875 15.182 290.943 15.4727C291.017 15.7572 291.132 16.0015 291.286 16.2056C291.447 16.4035 291.651 16.5612 291.898 16.6787C292.146 16.79 292.446 16.8457 292.798 16.8457C293.497 16.8457 293.995 16.6261 294.292 16.187C294.589 15.7417 294.737 15.1943 294.737 14.5449V14.4707C294.737 14.1429 294.703 13.8368 294.635 13.5522C294.567 13.2677 294.456 13.0234 294.301 12.8193C294.147 12.6152 293.946 12.4575 293.698 12.3462C293.457 12.2287 293.157 12.1699 292.798 12.1699C292.106 12.1699 291.605 12.3895 291.295 12.8286C290.992 13.2677 290.841 13.8151 290.841 14.4707V14.5449ZM305.063 12.5503H304.794C304.429 12.5503 304.08 12.5874 303.746 12.6616C303.418 12.7358 303.127 12.8719 302.874 13.0698C302.62 13.2616 302.416 13.5275 302.261 13.8677C302.113 14.2078 302.039 14.6439 302.039 15.1758V20H299.478V10.064H302.039V11.1865C302.144 11.0195 302.28 10.8587 302.447 10.7041C302.614 10.5495 302.809 10.4134 303.031 10.2959C303.254 10.1722 303.504 10.0732 303.783 9.99902C304.061 9.9248 304.361 9.8877 304.683 9.8877H305.063V12.5503ZM309.869 15.9644C309.553 16.0138 309.3 16.1252 309.108 16.2983C308.916 16.4653 308.82 16.6942 308.82 16.9849C308.82 17.3065 308.938 17.5848 309.173 17.8198C309.408 18.0487 309.754 18.1631 310.212 18.1631C310.694 18.1631 311.075 18.0239 311.353 17.7456C311.631 17.4673 311.771 17.0993 311.771 16.6416V15.6396L309.869 15.9644ZM312.188 19.063C312.083 19.1805 311.953 19.3073 311.798 19.4434C311.65 19.5732 311.471 19.6938 311.26 19.8052C311.056 19.9103 310.815 20 310.537 20.0742C310.258 20.1484 309.946 20.1855 309.6 20.1855C309.105 20.1855 308.647 20.1082 308.227 19.9536C307.812 19.7928 307.447 19.5701 307.132 19.2856C306.816 19.0011 306.569 18.6733 306.39 18.3022C306.21 17.925 306.121 17.5168 306.121 17.0776C306.121 16.2798 306.368 15.6273 306.863 15.1201C307.358 14.613 308.041 14.2944 308.913 14.1646L311.771 13.7471V13.5615C311.771 13.1162 311.634 12.7637 311.362 12.5039C311.09 12.2441 310.648 12.1143 310.036 12.1143C309.782 12.1143 309.525 12.1452 309.266 12.207C309.006 12.2627 308.755 12.3276 308.514 12.4019C308.279 12.4761 308.06 12.5627 307.855 12.6616C307.651 12.7544 307.472 12.8379 307.317 12.9121L306.315 10.9546C306.884 10.6392 307.515 10.3794 308.208 10.1753C308.907 9.97119 309.631 9.86914 310.379 9.86914C310.837 9.86914 311.297 9.91862 311.761 10.0176C312.231 10.1104 312.655 10.2835 313.032 10.5371C313.416 10.7907 313.728 11.137 313.969 11.5762C314.21 12.0091 314.331 12.5627 314.331 13.2368V17.3188C314.331 17.6095 314.405 17.826 314.554 17.9683C314.708 18.1043 314.919 18.2311 315.185 18.3486L314.025 20.1855C313.555 20.1361 313.178 20.0155 312.893 19.8237C312.609 19.6258 312.374 19.3722 312.188 19.063ZM319.749 17.0405C319.749 17.158 319.764 17.2694 319.795 17.3745C319.826 17.4797 319.879 17.5724 319.953 17.6528C320.034 17.7271 320.145 17.7858 320.287 17.8291C320.429 17.8724 320.612 17.894 320.834 17.894C320.927 17.894 321.032 17.891 321.15 17.8848C321.267 17.8724 321.385 17.86 321.502 17.8477C321.62 17.8353 321.728 17.8198 321.827 17.8013C321.932 17.7827 322.019 17.7673 322.087 17.7549L322.319 20.0186C322.078 20.0495 321.827 20.0773 321.567 20.1021C321.345 20.1268 321.097 20.1453 320.825 20.1577C320.553 20.1763 320.278 20.1855 320 20.1855C319.115 20.1855 318.425 19.9845 317.931 19.5825C317.436 19.1805 317.188 18.5404 317.188 17.6621V12.2905H315.398V10.064H317.188V7.25293L319.749 6.56641V10.064H322.356V12.2905H319.749V17.0405ZM326.113 15.918C326.157 16.2148 326.249 16.487 326.392 16.7344C326.54 16.9818 326.726 17.1951 326.948 17.3745C327.171 17.5477 327.428 17.6838 327.718 17.7827C328.009 17.8817 328.318 17.9312 328.646 17.9312C329.023 17.9312 329.431 17.86 329.871 17.7178C330.31 17.5693 330.712 17.356 331.077 17.0776L332.311 18.8774C331.847 19.2671 331.278 19.5825 330.604 19.8237C329.929 20.0649 329.212 20.1855 328.451 20.1855C327.765 20.1855 327.118 20.068 326.512 19.833C325.906 19.598 325.374 19.2578 324.917 18.8125C324.465 18.3672 324.106 17.826 323.84 17.189C323.581 16.5519 323.451 15.8345 323.451 15.0366C323.451 14.3068 323.565 13.6265 323.794 12.9956C324.029 12.3647 324.354 11.8174 324.768 11.3535C325.189 10.8896 325.69 10.5278 326.271 10.2681C326.852 10.0021 327.496 9.86914 328.201 9.86914C328.856 9.86914 329.465 9.98975 330.028 10.231C330.591 10.466 331.08 10.8 331.494 11.2329C331.909 11.6597 332.233 12.173 332.468 12.7729C332.703 13.3729 332.821 14.0347 332.821 14.7583V15.918H326.113ZM328.191 12.0957C327.641 12.0957 327.174 12.2812 326.791 12.6523C326.413 13.0173 326.194 13.4595 326.132 13.979H330.14C330.127 13.4533 329.936 13.008 329.564 12.6431C329.193 12.2782 328.736 12.0957 328.191 12.0957ZM340.836 20V19.1465C340.7 19.2949 340.549 19.4341 340.382 19.564C340.221 19.6877 340.039 19.7959 339.834 19.8887C339.637 19.9814 339.417 20.0526 339.176 20.1021C338.941 20.1577 338.678 20.1855 338.387 20.1855C337.732 20.1855 337.132 20.0557 336.587 19.7959C336.043 19.5361 335.576 19.1774 335.187 18.7197C334.797 18.262 334.494 17.7178 334.277 17.0869C334.067 16.4561 333.962 15.7726 333.962 15.0366C333.962 14.3006 334.067 13.6172 334.277 12.9863C334.488 12.3555 334.781 11.8112 335.159 11.3535C335.542 10.8896 336.003 10.5278 336.541 10.2681C337.079 10.0021 337.676 9.86914 338.332 9.86914C338.913 9.86914 339.405 9.97119 339.807 10.1753C340.215 10.3732 340.558 10.6206 340.836 10.9175V6.69629H343.397V20H340.836ZM340.911 14.1089C340.911 13.8429 340.861 13.5955 340.762 13.3667C340.669 13.1379 340.533 12.9399 340.354 12.7729C340.175 12.606 339.958 12.4761 339.705 12.3833C339.457 12.2905 339.176 12.2441 338.86 12.2441C338.495 12.2441 338.171 12.3122 337.886 12.4482C337.608 12.5843 337.373 12.776 337.181 13.0234C336.989 13.2646 336.844 13.5522 336.745 13.8862C336.646 14.2202 336.597 14.5851 336.597 14.981V15.1016C336.597 15.4974 336.646 15.8623 336.745 16.1963C336.844 16.5241 336.989 16.8086 337.181 17.0498C337.373 17.291 337.608 17.4797 337.886 17.6157C338.171 17.7456 338.495 17.8105 338.86 17.8105C339.176 17.8105 339.457 17.7642 339.705 17.6714C339.958 17.5786 340.175 17.4487 340.354 17.2817C340.533 17.1147 340.669 16.9199 340.762 16.6973C340.861 16.4684 340.911 16.221 340.911 15.9551V14.1089ZM357.638 16.7529L358.853 10.064H361.562L359.271 20H356.228L354.743 13.543L353.166 20H350.169L347.869 10.064H350.661L351.839 16.7529L353.565 10.064H356.014L357.638 16.7529ZM365.57 20H363.009V10.064H365.57V20ZM362.74 7.45703C362.74 7.24674 362.78 7.04883 362.861 6.86328C362.941 6.67155 363.049 6.50765 363.186 6.37158C363.328 6.22933 363.492 6.118 363.677 6.0376C363.863 5.95719 364.064 5.91699 364.28 5.91699C364.491 5.91699 364.688 5.95719 364.874 6.0376C365.066 6.118 365.23 6.22933 365.366 6.37158C365.508 6.50765 365.619 6.67155 365.7 6.86328C365.78 7.04883 365.82 7.24674 365.82 7.45703C365.82 7.6735 365.78 7.87451 365.7 8.06006C365.619 8.24561 365.508 8.40951 365.366 8.55176C365.23 8.68783 365.066 8.79606 364.874 8.87646C364.688 8.95687 364.491 8.99707 364.28 8.99707C364.064 8.99707 363.863 8.95687 363.677 8.87646C363.492 8.79606 363.328 8.68783 363.186 8.55176C363.049 8.40951 362.941 8.24561 362.861 8.06006C362.78 7.87451 362.74 7.6735 362.74 7.45703ZM371.442 17.0405C371.442 17.158 371.458 17.2694 371.489 17.3745C371.52 17.4797 371.572 17.5724 371.646 17.6528C371.727 17.7271 371.838 17.7858 371.98 17.8291C372.123 17.8724 372.305 17.894 372.528 17.894C372.621 17.894 372.726 17.891 372.843 17.8848C372.961 17.8724 373.078 17.86 373.196 17.8477C373.313 17.8353 373.422 17.8198 373.521 17.8013C373.626 17.7827 373.712 17.7673 373.78 17.7549L374.012 20.0186C373.771 20.0495 373.521 20.0773 373.261 20.1021C373.038 20.1268 372.791 20.1453 372.519 20.1577C372.246 20.1763 371.971 20.1855 371.693 20.1855C370.808 20.1855 370.119 19.9845 369.624 19.5825C369.129 19.1805 368.882 18.5404 368.882 17.6621V12.2905H367.091V10.064H368.882V7.25293L371.442 6.56641V10.064H374.049V12.2905H371.442V17.0405ZM375.664 6.69629H378.224V10.9175C378.36 10.7814 378.512 10.6515 378.679 10.5278C378.852 10.3979 379.041 10.2866 379.245 10.1938C379.449 10.0949 379.674 10.0176 379.922 9.96191C380.175 9.90007 380.454 9.86914 380.757 9.86914C381.295 9.86914 381.777 9.95882 382.204 10.1382C382.631 10.3114 382.99 10.5526 383.28 10.8618C383.577 11.1711 383.803 11.5329 383.958 11.9473C384.112 12.3617 384.189 12.8101 384.189 13.2925V20H381.629V14.2202C381.629 13.8677 381.589 13.5708 381.508 13.3296C381.428 13.0822 381.317 12.8843 381.174 12.7358C381.038 12.5812 380.874 12.4699 380.683 12.4019C380.497 12.3276 380.293 12.2905 380.07 12.2905C379.811 12.2905 379.566 12.3369 379.337 12.4297C379.115 12.5225 378.92 12.6647 378.753 12.8564C378.586 13.042 378.456 13.277 378.363 13.5615C378.271 13.846 378.224 14.18 378.224 14.5635V20H375.664V6.69629ZM393.04 17.0405C393.04 17.158 393.056 17.2694 393.086 17.3745C393.117 17.4797 393.17 17.5724 393.244 17.6528C393.325 17.7271 393.436 17.7858 393.578 17.8291C393.72 17.8724 393.903 17.894 394.125 17.894C394.218 17.894 394.323 17.891 394.441 17.8848C394.558 17.8724 394.676 17.86 394.793 17.8477C394.911 17.8353 395.019 17.8198 395.118 17.8013C395.223 17.7827 395.31 17.7673 395.378 17.7549L395.61 20.0186C395.369 20.0495 395.118 20.0773 394.858 20.1021C394.636 20.1268 394.388 20.1453 394.116 20.1577C393.844 20.1763 393.569 20.1855 393.291 20.1855C392.406 20.1855 391.716 19.9845 391.222 19.5825C390.727 19.1805 390.479 18.5404 390.479 17.6621V12.2905H388.689V10.064H390.479V7.25293L393.04 6.56641V10.064H395.647V12.2905H393.04V17.0405ZM397.261 6.69629H399.822V10.9175C399.958 10.7814 400.109 10.6515 400.276 10.5278C400.45 10.3979 400.638 10.2866 400.842 10.1938C401.046 10.0949 401.272 10.0176 401.52 9.96191C401.773 9.90007 402.051 9.86914 402.354 9.86914C402.893 9.86914 403.375 9.95882 403.802 10.1382C404.229 10.3114 404.587 10.5526 404.878 10.8618C405.175 11.1711 405.401 11.5329 405.555 11.9473C405.71 12.3617 405.787 12.8101 405.787 13.2925V20H403.227V14.2202C403.227 13.8677 403.186 13.5708 403.106 13.3296C403.026 13.0822 402.914 12.8843 402.772 12.7358C402.636 12.5812 402.472 12.4699 402.28 12.4019C402.095 12.3276 401.891 12.2905 401.668 12.2905C401.408 12.2905 401.164 12.3369 400.935 12.4297C400.712 12.5225 400.518 12.6647 400.351 12.8564C400.184 13.042 400.054 13.277 399.961 13.5615C399.868 13.846 399.822 14.18 399.822 14.5635V20H397.261V6.69629ZM410.073 15.918C410.117 16.2148 410.209 16.487 410.352 16.7344C410.5 16.9818 410.686 17.1951 410.908 17.3745C411.131 17.5477 411.388 17.6838 411.678 17.7827C411.969 17.8817 412.278 17.9312 412.606 17.9312C412.983 17.9312 413.391 17.86 413.831 17.7178C414.27 17.5693 414.672 17.356 415.037 17.0776L416.271 18.8774C415.807 19.2671 415.238 19.5825 414.563 19.8237C413.889 20.0649 413.172 20.1855 412.411 20.1855C411.725 20.1855 411.078 20.068 410.472 19.833C409.866 19.598 409.334 19.2578 408.876 18.8125C408.425 18.3672 408.066 17.826 407.8 17.189C407.541 16.5519 407.411 15.8345 407.411 15.0366C407.411 14.3068 407.525 13.6265 407.754 12.9956C407.989 12.3647 408.314 11.8174 408.728 11.3535C409.149 10.8896 409.65 10.5278 410.231 10.2681C410.812 10.0021 411.456 9.86914 412.161 9.86914C412.816 9.86914 413.425 9.98975 413.988 10.231C414.551 10.466 415.04 10.8 415.454 11.2329C415.868 11.6597 416.193 12.173 416.428 12.7729C416.663 13.3729 416.781 14.0347 416.781 14.7583V15.918H410.073ZM412.151 12.0957C411.601 12.0957 411.134 12.2812 410.75 12.6523C410.373 13.0173 410.154 13.4595 410.092 13.979H414.1C414.087 13.4533 413.896 13.008 413.524 12.6431C413.153 12.2782 412.696 12.0957 412.151 12.0957ZM423.971 15.083C423.971 15.4046 424.014 15.7293 424.101 16.0571C424.187 16.3787 424.32 16.6694 424.5 16.9292C424.679 17.189 424.908 17.4023 425.186 17.5693C425.471 17.7301 425.808 17.8105 426.197 17.8105C426.451 17.8105 426.68 17.7765 426.884 17.7085C427.094 17.6405 427.28 17.5477 427.44 17.4302C427.607 17.3065 427.753 17.1642 427.876 17.0034C428.006 16.8364 428.118 16.6571 428.21 16.4653L430.456 17.625C430.295 18.0146 430.072 18.3672 429.788 18.6826C429.509 18.998 429.185 19.2671 428.813 19.4897C428.442 19.7124 428.031 19.8825 427.58 20C427.128 20.1237 426.649 20.1855 426.142 20.1855C425.443 20.1855 424.799 20.0557 424.212 19.7959C423.624 19.5299 423.117 19.1681 422.69 18.7104C422.264 18.2528 421.93 17.7116 421.688 17.0869C421.447 16.4561 421.327 15.7726 421.327 15.0366C421.327 14.3068 421.447 13.6265 421.688 12.9956C421.93 12.3647 422.264 11.8174 422.69 11.3535C423.117 10.8896 423.624 10.5278 424.212 10.2681C424.799 10.0021 425.443 9.86914 426.142 9.86914C426.649 9.86914 427.128 9.93099 427.58 10.0547C428.031 10.1722 428.442 10.3454 428.813 10.5742C429.185 10.7969 429.509 11.0659 429.788 11.3813C430.072 11.6968 430.295 12.0493 430.456 12.439L428.21 13.5986C428.118 13.4069 428.006 13.2306 427.876 13.0698C427.753 12.9028 427.607 12.7606 427.44 12.6431C427.28 12.5194 427.094 12.4235 426.884 12.3555C426.68 12.2812 426.451 12.2441 426.197 12.2441C425.808 12.2441 425.471 12.3276 425.186 12.4946C424.908 12.6554 424.679 12.8688 424.5 13.1348C424.32 13.3945 424.187 13.6883 424.101 14.0161C424.014 14.3439 423.971 14.6717 423.971 14.9995V15.083ZM435.243 15.9644C434.927 16.0138 434.674 16.1252 434.482 16.2983C434.29 16.4653 434.194 16.6942 434.194 16.9849C434.194 17.3065 434.312 17.5848 434.547 17.8198C434.782 18.0487 435.128 18.1631 435.586 18.1631C436.068 18.1631 436.449 18.0239 436.727 17.7456C437.005 17.4673 437.145 17.0993 437.145 16.6416V15.6396L435.243 15.9644ZM437.562 19.063C437.457 19.1805 437.327 19.3073 437.172 19.4434C437.024 19.5732 436.845 19.6938 436.634 19.8052C436.43 19.9103 436.189 20 435.911 20.0742C435.632 20.1484 435.32 20.1855 434.974 20.1855C434.479 20.1855 434.021 20.1082 433.601 19.9536C433.186 19.7928 432.821 19.5701 432.506 19.2856C432.19 19.0011 431.943 18.6733 431.764 18.3022C431.584 17.925 431.495 17.5168 431.495 17.0776C431.495 16.2798 431.742 15.6273 432.237 15.1201C432.732 14.613 433.415 14.2944 434.287 14.1646L437.145 13.7471V13.5615C437.145 13.1162 437.008 12.7637 436.736 12.5039C436.464 12.2441 436.022 12.1143 435.41 12.1143C435.156 12.1143 434.899 12.1452 434.64 12.207C434.38 12.2627 434.129 12.3276 433.888 12.4019C433.653 12.4761 433.434 12.5627 433.229 12.6616C433.025 12.7544 432.846 12.8379 432.691 12.9121L431.689 10.9546C432.258 10.6392 432.889 10.3794 433.582 10.1753C434.281 9.97119 435.005 9.86914 435.753 9.86914C436.211 9.86914 436.671 9.91862 437.135 10.0176C437.605 10.1104 438.029 10.2835 438.406 10.5371C438.79 10.7907 439.102 11.137 439.343 11.5762C439.584 12.0091 439.705 12.5627 439.705 13.2368V17.3188C439.705 17.6095 439.779 17.826 439.928 17.9683C440.082 18.1043 440.293 18.2311 440.559 18.3486L439.399 20.1855C438.929 20.1361 438.552 20.0155 438.267 19.8237C437.983 19.6258 437.748 19.3722 437.562 19.063ZM442.553 16.8271C442.918 17.1549 443.354 17.4364 443.861 17.6714C444.368 17.9064 444.882 18.0239 445.401 18.0239C445.779 18.0239 446.076 17.9528 446.292 17.8105C446.508 17.6621 446.617 17.4735 446.617 17.2446C446.617 16.855 446.199 16.5519 445.364 16.3354L444.641 16.1406C444.282 16.054 443.92 15.9365 443.555 15.7881C443.19 15.6335 442.853 15.4325 442.544 15.1851C442.241 14.9377 441.993 14.6377 441.802 14.2852C441.616 13.9264 441.523 13.4873 441.523 12.9678C441.523 12.5534 441.613 12.1606 441.792 11.7896C441.978 11.4123 442.238 11.0814 442.572 10.7969C442.912 10.5124 443.323 10.2866 443.806 10.1196C444.288 9.95264 444.826 9.86914 445.42 9.86914C446.267 9.86914 447.022 10.0021 447.684 10.2681C448.352 10.534 448.877 10.834 449.261 11.168L447.925 12.875C447.609 12.6462 447.235 12.4513 446.802 12.2905C446.375 12.1235 445.946 12.04 445.513 12.04C445.111 12.04 444.798 12.1143 444.576 12.2627C444.353 12.4049 444.242 12.5781 444.242 12.7822C444.242 12.9987 444.338 13.175 444.529 13.311C444.727 13.4409 445.012 13.5553 445.383 13.6543L446.459 13.9604C447.486 14.2511 448.222 14.6439 448.667 15.1387C449.112 15.6335 449.335 16.2581 449.335 17.0127C449.335 17.4333 449.248 17.8353 449.075 18.2188C448.902 18.596 448.648 18.9331 448.314 19.23C447.98 19.5269 447.566 19.7619 447.071 19.9351C446.576 20.1021 446.014 20.1855 445.383 20.1855C444.9 20.1855 444.446 20.1423 444.019 20.0557C443.598 19.9691 443.206 19.8516 442.841 19.7031C442.482 19.5485 442.157 19.3753 441.867 19.1836C441.576 18.9919 441.329 18.8001 441.125 18.6084L442.553 16.8271ZM453.139 15.918C453.182 16.2148 453.275 16.487 453.417 16.7344C453.565 16.9818 453.751 17.1951 453.974 17.3745C454.196 17.5477 454.453 17.6838 454.744 17.7827C455.034 17.8817 455.344 17.9312 455.671 17.9312C456.049 17.9312 456.457 17.86 456.896 17.7178C457.335 17.5693 457.737 17.356 458.102 17.0776L459.336 18.8774C458.872 19.2671 458.303 19.5825 457.629 19.8237C456.955 20.0649 456.237 20.1855 455.477 20.1855C454.79 20.1855 454.144 20.068 453.538 19.833C452.931 19.598 452.4 19.2578 451.942 18.8125C451.49 18.3672 451.132 17.826 450.866 17.189C450.606 16.5519 450.476 15.8345 450.476 15.0366C450.476 14.3068 450.59 13.6265 450.819 12.9956C451.054 12.3647 451.379 11.8174 451.793 11.3535C452.214 10.8896 452.715 10.5278 453.296 10.2681C453.878 10.0021 454.521 9.86914 455.226 9.86914C455.882 9.86914 456.491 9.98975 457.054 10.231C457.617 10.466 458.105 10.8 458.52 11.2329C458.934 11.6597 459.259 12.173 459.494 12.7729C459.729 13.3729 459.846 14.0347 459.846 14.7583V15.918H453.139ZM455.217 12.0957C454.666 12.0957 454.199 12.2812 453.816 12.6523C453.439 13.0173 453.219 13.4595 453.157 13.979H457.165C457.153 13.4533 456.961 13.008 456.59 12.6431C456.219 12.2782 455.761 12.0957 455.217 12.0957Z" fill="#0B0C0C"/>
</svg>
