<svg width="534" height="27" viewBox="0 0 534 27" fill="none" xmlns="http://www.w3.org/2000/svg">
<rect width="116" height="27" transform="translate(146)" fill="#800080"/>
<path d="M154.392 5.69629H163.354V8.13623H157.082V10.9658H162.862V13.3965H157.082V19H154.392V5.69629ZM167.176 14.918C167.219 15.2148 167.312 15.487 167.454 15.7344C167.603 15.9818 167.788 16.1951 168.011 16.3745C168.233 16.5477 168.49 16.6838 168.781 16.7827C169.071 16.8817 169.381 16.9312 169.708 16.9312C170.086 16.9312 170.494 16.86 170.933 16.7178C171.372 16.5693 171.774 16.356 172.139 16.0776L173.373 17.8774C172.909 18.2671 172.34 18.5825 171.666 18.8237C170.992 19.0649 170.274 19.1855 169.514 19.1855C168.827 19.1855 168.181 19.068 167.575 18.833C166.969 18.598 166.437 18.2578 165.979 17.8125C165.528 17.3672 165.169 16.826 164.903 16.189C164.643 15.5519 164.513 14.8345 164.513 14.0366C164.513 13.3068 164.628 12.6265 164.856 11.9956C165.091 11.3647 165.416 10.8174 165.831 10.3535C166.251 9.88965 166.752 9.52783 167.333 9.26807C167.915 9.00212 168.558 8.86914 169.263 8.86914C169.919 8.86914 170.528 8.98975 171.091 9.23096C171.654 9.46598 172.142 9.79997 172.557 10.2329C172.971 10.6597 173.296 11.173 173.531 11.7729C173.766 12.3729 173.883 13.0347 173.883 13.7583V14.918H167.176ZM169.254 11.0957C168.703 11.0957 168.236 11.2812 167.853 11.6523C167.476 12.0173 167.256 12.4595 167.194 12.979H171.202C171.19 12.4533 170.998 12.008 170.627 11.6431C170.256 11.2782 169.798 11.0957 169.254 11.0957ZM177.659 14.918C177.702 15.2148 177.795 15.487 177.938 15.7344C178.086 15.9818 178.271 16.1951 178.494 16.3745C178.717 16.5477 178.973 16.6838 179.264 16.7827C179.555 16.8817 179.864 16.9312 180.192 16.9312C180.569 16.9312 180.977 16.86 181.417 16.7178C181.856 16.5693 182.258 16.356 182.623 16.0776L183.856 17.8774C183.393 18.2671 182.824 18.5825 182.149 18.8237C181.475 19.0649 180.758 19.1855 179.997 19.1855C179.311 19.1855 178.664 19.068 178.058 18.833C177.452 18.598 176.92 18.2578 176.462 17.8125C176.011 17.3672 175.652 16.826 175.386 16.189C175.126 15.5519 174.997 14.8345 174.997 14.0366C174.997 13.3068 175.111 12.6265 175.34 11.9956C175.575 11.3647 175.9 10.8174 176.314 10.3535C176.735 9.88965 177.236 9.52783 177.817 9.26807C178.398 9.00212 179.042 8.86914 179.747 8.86914C180.402 8.86914 181.011 8.98975 181.574 9.23096C182.137 9.46598 182.626 9.79997 183.04 10.2329C183.454 10.6597 183.779 11.173 184.014 11.7729C184.249 12.3729 184.367 13.0347 184.367 13.7583V14.918H177.659ZM179.737 11.0957C179.187 11.0957 178.72 11.2812 178.336 11.6523C177.959 12.0173 177.74 12.4595 177.678 12.979H181.686C181.673 12.4533 181.481 12.008 181.11 11.6431C180.739 11.2782 180.282 11.0957 179.737 11.0957ZM191.575 14.918C191.618 15.2148 191.711 15.487 191.854 15.7344C192.002 15.9818 192.188 16.1951 192.41 16.3745C192.633 16.5477 192.889 16.6838 193.18 16.7827C193.471 16.8817 193.78 16.9312 194.108 16.9312C194.485 16.9312 194.893 16.86 195.333 16.7178C195.772 16.5693 196.174 16.356 196.539 16.0776L197.772 17.8774C197.309 18.2671 196.74 18.5825 196.065 18.8237C195.391 19.0649 194.674 19.1855 193.913 19.1855C193.227 19.1855 192.58 19.068 191.974 18.833C191.368 18.598 190.836 18.2578 190.378 17.8125C189.927 17.3672 189.568 16.826 189.302 16.189C189.042 15.5519 188.913 14.8345 188.913 14.0366C188.913 13.3068 189.027 12.6265 189.256 11.9956C189.491 11.3647 189.816 10.8174 190.23 10.3535C190.651 9.88965 191.152 9.52783 191.733 9.26807C192.314 9.00212 192.958 8.86914 193.663 8.86914C194.318 8.86914 194.927 8.98975 195.49 9.23096C196.053 9.46598 196.542 9.79997 196.956 10.2329C197.37 10.6597 197.695 11.173 197.93 11.7729C198.165 12.3729 198.283 13.0347 198.283 13.7583V14.918H191.575ZM193.653 11.0957C193.103 11.0957 192.636 11.2812 192.252 11.6523C191.875 12.0173 191.656 12.4595 191.594 12.979H195.602C195.589 12.4533 195.397 12.008 195.026 11.6431C194.655 11.2782 194.198 11.0957 193.653 11.0957ZM202.216 13.7954L199.192 9.06396H202.151L203.673 11.7451L205.269 9.06396H208.256L205.176 13.814L208.599 19H205.575L203.617 15.957L201.836 19H198.849L202.216 13.7954ZM211.447 14.918C211.491 15.2148 211.583 15.487 211.726 15.7344C211.874 15.9818 212.06 16.1951 212.282 16.3745C212.505 16.5477 212.762 16.6838 213.052 16.7827C213.343 16.8817 213.652 16.9312 213.98 16.9312C214.357 16.9312 214.765 16.86 215.205 16.7178C215.644 16.5693 216.046 16.356 216.411 16.0776L217.645 17.8774C217.181 18.2671 216.612 18.5825 215.938 18.8237C215.263 19.0649 214.546 19.1855 213.785 19.1855C213.099 19.1855 212.452 19.068 211.846 18.833C211.24 18.598 210.708 18.2578 210.25 17.8125C209.799 17.3672 209.44 16.826 209.174 16.189C208.915 15.5519 208.785 14.8345 208.785 14.0366C208.785 13.3068 208.899 12.6265 209.128 11.9956C209.363 11.3647 209.688 10.8174 210.102 10.3535C210.523 9.88965 211.024 9.52783 211.605 9.26807C212.186 9.00212 212.83 8.86914 213.535 8.86914C214.19 8.86914 214.799 8.98975 215.362 9.23096C215.925 9.46598 216.414 9.79997 216.828 10.2329C217.243 10.6597 217.567 11.173 217.802 11.7729C218.037 12.3729 218.155 13.0347 218.155 13.7583V14.918H211.447ZM213.525 11.0957C212.975 11.0957 212.508 11.2812 212.125 11.6523C211.747 12.0173 211.528 12.4595 211.466 12.979H215.474C215.461 12.4533 215.27 12.008 214.898 11.6431C214.527 11.2782 214.07 11.0957 213.525 11.0957ZM228.165 19H225.595V13.2202C225.595 12.8677 225.555 12.5708 225.475 12.3296C225.4 12.0822 225.295 11.8843 225.159 11.7358C225.023 11.5812 224.865 11.473 224.686 11.4111C224.507 11.3431 224.312 11.3091 224.102 11.3091C223.854 11.3091 223.622 11.3524 223.406 11.439C223.195 11.5256 223.01 11.6616 222.849 11.8472C222.694 12.0327 222.571 12.2708 222.478 12.5615C222.391 12.846 222.348 13.1862 222.348 13.582V19H219.788V9.06396H222.348V9.93604C222.676 9.57113 223.056 9.30208 223.489 9.12891C223.928 8.95573 224.398 8.86914 224.899 8.86914C225.413 8.86914 225.892 8.97428 226.337 9.18457C226.789 9.39486 227.163 9.74121 227.46 10.2236C227.633 9.97624 227.831 9.76595 228.054 9.59277C228.283 9.4196 228.527 9.28044 228.787 9.17529C229.046 9.07015 229.315 8.99284 229.594 8.94336C229.878 8.89388 230.169 8.86914 230.466 8.86914C231.022 8.86914 231.517 8.96191 231.95 9.14746C232.389 9.32682 232.76 9.57113 233.063 9.88037C233.367 10.1896 233.598 10.5452 233.759 10.9473C233.92 11.3493 234 11.7729 234 12.2183V19H231.412V13.2202C231.412 12.8677 231.372 12.5708 231.292 12.3296C231.217 12.0822 231.112 11.8843 230.976 11.7358C230.84 11.5812 230.679 11.473 230.494 11.4111C230.314 11.3431 230.119 11.3091 229.909 11.3091C229.662 11.3091 229.433 11.3524 229.223 11.439C229.012 11.5256 228.827 11.6616 228.666 11.8472C228.511 12.0327 228.388 12.2708 228.295 12.5615C228.208 12.846 228.165 13.1862 228.165 13.582V19ZM238.695 22.1357H236.134V9.06396H238.695V9.91748C238.973 9.62679 239.316 9.37939 239.725 9.17529C240.133 8.97119 240.628 8.86914 241.209 8.86914C241.865 8.86914 242.458 9.00212 242.99 9.26807C243.528 9.52783 243.989 9.88965 244.373 10.3535C244.756 10.8112 245.053 11.3555 245.263 11.9863C245.473 12.6172 245.579 13.3006 245.579 14.0366C245.579 14.7726 245.47 15.4561 245.254 16.0869C245.037 16.7178 244.734 17.262 244.345 17.7197C243.955 18.1774 243.488 18.5361 242.944 18.7959C242.4 19.0557 241.8 19.1855 241.144 19.1855C240.853 19.1855 240.587 19.1577 240.346 19.1021C240.111 19.0526 239.895 18.9814 239.697 18.8887C239.499 18.7959 239.316 18.6877 239.149 18.564C238.982 18.4341 238.831 18.2949 238.695 18.1465V22.1357ZM238.621 14.9551C238.621 15.221 238.667 15.4684 238.76 15.6973C238.859 15.9199 238.998 16.1147 239.177 16.2817C239.357 16.4487 239.57 16.5786 239.817 16.6714C240.071 16.7642 240.355 16.8105 240.671 16.8105C241.036 16.8105 241.357 16.7456 241.636 16.6157C241.92 16.4797 242.158 16.291 242.35 16.0498C242.542 15.8086 242.687 15.5241 242.786 15.1963C242.885 14.8623 242.935 14.4974 242.935 14.1016V13.981C242.935 13.5851 242.885 13.2202 242.786 12.8862C242.687 12.5522 242.542 12.2646 242.35 12.0234C242.158 11.776 241.92 11.5843 241.636 11.4482C241.357 11.3122 241.036 11.2441 240.671 11.2441C240.355 11.2441 240.071 11.2905 239.817 11.3833C239.57 11.4761 239.357 11.606 239.177 11.7729C238.998 11.9399 238.859 12.1379 238.76 12.3667C238.667 12.5955 238.621 12.8429 238.621 13.1089V14.9551ZM250.95 16.0405C250.95 16.158 250.966 16.2694 250.997 16.3745C251.028 16.4797 251.08 16.5724 251.154 16.6528C251.235 16.7271 251.346 16.7858 251.488 16.8291C251.631 16.8724 251.813 16.894 252.036 16.894C252.128 16.894 252.234 16.891 252.351 16.8848C252.469 16.8724 252.586 16.86 252.704 16.8477C252.821 16.8353 252.929 16.8198 253.028 16.8013C253.133 16.7827 253.22 16.7673 253.288 16.7549L253.52 19.0186C253.279 19.0495 253.028 19.0773 252.769 19.1021C252.546 19.1268 252.299 19.1453 252.026 19.1577C251.754 19.1763 251.479 19.1855 251.201 19.1855C250.316 19.1855 249.627 18.9845 249.132 18.5825C248.637 18.1805 248.39 17.5404 248.39 16.6621V11.2905H246.599V9.06396H248.39V6.25293L250.95 5.56641V9.06396H253.557V11.2905H250.95V16.0405Z" fill="white"/>
<rect width="264" height="27" transform="translate(270)" fill="#0B0C0C"/>
<path d="M278.392 5.69629H281.082V16.5137H286.352V19H278.392V5.69629ZM289.877 14.918C289.92 15.2148 290.013 15.487 290.155 15.7344C290.304 15.9818 290.489 16.1951 290.712 16.3745C290.935 16.5477 291.191 16.6838 291.482 16.7827C291.773 16.8817 292.082 16.9312 292.41 16.9312C292.787 16.9312 293.195 16.86 293.634 16.7178C294.073 16.5693 294.475 16.356 294.84 16.0776L296.074 17.8774C295.61 18.2671 295.041 18.5825 294.367 18.8237C293.693 19.0649 292.976 19.1855 292.215 19.1855C291.528 19.1855 290.882 19.068 290.276 18.833C289.67 18.598 289.138 18.2578 288.68 17.8125C288.229 17.3672 287.87 16.826 287.604 16.189C287.344 15.5519 287.214 14.8345 287.214 14.0366C287.214 13.3068 287.329 12.6265 287.558 11.9956C287.793 11.3647 288.117 10.8174 288.532 10.3535C288.952 9.88965 289.453 9.52783 290.035 9.26807C290.616 9.00212 291.259 8.86914 291.964 8.86914C292.62 8.86914 293.229 8.98975 293.792 9.23096C294.355 9.46598 294.843 9.79997 295.258 10.2329C295.672 10.6597 295.997 11.173 296.232 11.7729C296.467 12.3729 296.584 13.0347 296.584 13.7583V14.918H289.877ZM291.955 11.0957C291.405 11.0957 290.938 11.2812 290.554 11.6523C290.177 12.0173 289.957 12.4595 289.896 12.979H293.903C293.891 12.4533 293.699 12.008 293.328 11.6431C292.957 11.2782 292.499 11.0957 291.955 11.0957ZM304.257 17.2373C304.028 17.5156 303.706 17.7383 303.292 17.9053C302.884 18.0661 302.438 18.1465 301.956 18.1465C301.288 18.1465 300.694 18.029 300.175 17.7939C299.655 17.5589 299.216 17.2373 298.857 16.8291C298.505 16.4147 298.233 15.9261 298.041 15.3633C297.855 14.8005 297.763 14.182 297.763 13.5078C297.763 12.8522 297.855 12.2399 298.041 11.6709C298.233 11.0957 298.505 10.604 298.857 10.1958C299.216 9.78141 299.655 9.45671 300.175 9.22168C300.694 8.98665 301.288 8.86914 301.956 8.86914C302.438 8.86914 302.884 8.95264 303.292 9.11963C303.706 9.28662 304.028 9.50928 304.257 9.7876V9.06396H306.827V18.9072C306.827 19.5133 306.712 20.0329 306.483 20.4658C306.255 20.9049 305.939 21.2637 305.537 21.542C305.141 21.8203 304.681 22.0213 304.155 22.145C303.629 22.2749 303.069 22.3398 302.476 22.3398C301.752 22.3398 300.997 22.2533 300.212 22.0801C299.426 21.9131 298.749 21.7028 298.18 21.4492L298.904 19.3804C299.077 19.4546 299.29 19.535 299.544 19.6216C299.798 19.7144 300.07 19.7948 300.36 19.8628C300.651 19.9308 300.954 19.9865 301.27 20.0298C301.591 20.0793 301.903 20.104 302.207 20.104C302.472 20.104 302.729 20.0762 302.977 20.0205C303.224 19.971 303.44 19.8844 303.626 19.7607C303.818 19.6432 303.969 19.4855 304.081 19.2876C304.198 19.0959 304.257 18.8485 304.257 18.5454V17.2373ZM300.397 13.5449C300.397 13.8727 300.431 14.182 300.5 14.4727C300.574 14.7572 300.688 15.0015 300.843 15.2056C301.004 15.4035 301.208 15.5612 301.455 15.6787C301.702 15.79 302.002 15.8457 302.355 15.8457C303.054 15.8457 303.552 15.6261 303.849 15.187C304.146 14.7417 304.294 14.1943 304.294 13.5449V13.4707C304.294 13.1429 304.26 12.8368 304.192 12.5522C304.124 12.2677 304.013 12.0234 303.858 11.8193C303.703 11.6152 303.502 11.4575 303.255 11.3462C303.014 11.2287 302.714 11.1699 302.355 11.1699C301.662 11.1699 301.161 11.3895 300.852 11.8286C300.549 12.2677 300.397 12.8151 300.397 13.4707V13.5449ZM312.245 14.9644C311.929 15.0138 311.676 15.1252 311.484 15.2983C311.292 15.4653 311.196 15.6942 311.196 15.9849C311.196 16.3065 311.314 16.5848 311.549 16.8198C311.784 17.0487 312.13 17.1631 312.588 17.1631C313.07 17.1631 313.451 17.0239 313.729 16.7456C314.007 16.4673 314.146 16.0993 314.146 15.6416V14.6396L312.245 14.9644ZM314.564 18.063C314.459 18.1805 314.329 18.3073 314.174 18.4434C314.026 18.5732 313.847 18.6938 313.636 18.8052C313.432 18.9103 313.191 19 312.913 19.0742C312.634 19.1484 312.322 19.1855 311.976 19.1855C311.481 19.1855 311.023 19.1082 310.603 18.9536C310.188 18.7928 309.823 18.5701 309.508 18.2856C309.192 18.0011 308.945 17.6733 308.766 17.3022C308.586 16.925 308.497 16.5168 308.497 16.0776C308.497 15.2798 308.744 14.6273 309.239 14.1201C309.734 13.613 310.417 13.2944 311.289 13.1646L314.146 12.7471V12.5615C314.146 12.1162 314.01 11.7637 313.738 11.5039C313.466 11.2441 313.024 11.1143 312.412 11.1143C312.158 11.1143 311.901 11.1452 311.642 11.207C311.382 11.2627 311.131 11.3276 310.89 11.4019C310.655 11.4761 310.436 11.5627 310.231 11.6616C310.027 11.7544 309.848 11.8379 309.693 11.9121L308.691 9.95459C309.26 9.63916 309.891 9.37939 310.584 9.17529C311.283 8.97119 312.007 8.86914 312.755 8.86914C313.213 8.86914 313.673 8.91862 314.137 9.01758C314.607 9.11035 315.031 9.28353 315.408 9.53711C315.792 9.79069 316.104 10.137 316.345 10.5762C316.586 11.0091 316.707 11.5627 316.707 12.2368V16.3188C316.707 16.6095 316.781 16.826 316.93 16.9683C317.084 17.1043 317.295 17.2311 317.561 17.3486L316.401 19.1855C315.931 19.1361 315.554 19.0155 315.269 18.8237C314.985 18.6258 314.75 18.3722 314.564 18.063ZM318.813 5.69629H321.374V16.3003C321.374 16.5106 321.432 16.6714 321.55 16.7827C321.674 16.894 321.868 16.9497 322.134 16.9497C322.258 16.9497 322.363 16.9435 322.45 16.9312C322.542 16.9126 322.66 16.8879 322.802 16.8569L323.006 19.0371C322.833 19.0618 322.648 19.0866 322.45 19.1113C322.283 19.1299 322.088 19.1453 321.865 19.1577C321.649 19.1763 321.423 19.1855 321.188 19.1855C320.823 19.1855 320.495 19.1392 320.205 19.0464C319.914 18.9536 319.663 18.8175 319.453 18.6382C319.249 18.4526 319.091 18.2238 318.98 17.9517C318.869 17.6795 318.813 17.3641 318.813 17.0054V5.69629ZM324.379 5.69629H326.94V16.3003C326.94 16.5106 326.999 16.6714 327.116 16.7827C327.24 16.894 327.435 16.9497 327.701 16.9497C327.824 16.9497 327.93 16.9435 328.016 16.9312C328.109 16.9126 328.226 16.8879 328.369 16.8569L328.573 19.0371C328.4 19.0618 328.214 19.0866 328.016 19.1113C327.849 19.1299 327.654 19.1453 327.432 19.1577C327.215 19.1763 326.989 19.1855 326.754 19.1855C326.389 19.1855 326.062 19.1392 325.771 19.0464C325.48 18.9536 325.23 18.8175 325.02 18.6382C324.815 18.4526 324.658 18.2238 324.546 17.9517C324.435 17.6795 324.379 17.3641 324.379 17.0054V5.69629ZM331.013 20.1597C331.303 20.1597 331.517 20.1071 331.653 20.002C331.795 19.8968 331.906 19.7267 331.987 19.4917L332.08 19.1855L328.638 9.06396H331.486L333.462 15.9199L335.104 9.06396H337.915L334.566 20.2339C334.455 20.605 334.3 20.9235 334.102 21.1895C333.904 21.4554 333.669 21.6719 333.397 21.8389C333.125 22.012 332.822 22.1388 332.488 22.2192C332.16 22.2996 331.807 22.3398 331.43 22.3398C331.276 22.3398 331.096 22.3337 330.892 22.3213C330.694 22.3089 330.487 22.2904 330.271 22.2656C330.06 22.2471 329.85 22.2223 329.64 22.1914C329.436 22.1605 329.247 22.1234 329.074 22.0801L329.556 19.9834C329.705 20.0205 329.859 20.0514 330.02 20.0762C330.162 20.1009 330.317 20.1195 330.484 20.1318C330.657 20.1504 330.833 20.1597 331.013 20.1597ZM342.424 5.69629H347.573C348.364 5.69629 349.063 5.81071 349.669 6.03955C350.276 6.26839 350.783 6.57454 351.191 6.95801C351.599 7.34147 351.908 7.78369 352.119 8.28467C352.329 8.77946 352.434 9.29899 352.434 9.84326C352.434 10.2824 352.366 10.6999 352.23 11.0957C352.1 11.4854 351.918 11.841 351.683 12.1626C351.454 12.478 351.182 12.7533 350.866 12.9883C350.551 13.2171 350.211 13.3965 349.846 13.5264L352.759 19H349.66L347.248 14.2129H345.114V19H342.424V5.69629ZM349.623 9.93604C349.623 9.67008 349.574 9.42269 349.475 9.19385C349.382 8.96501 349.236 8.76709 349.039 8.6001C348.847 8.43311 348.606 8.30322 348.315 8.21045C348.024 8.11768 347.687 8.07129 347.304 8.07129H345.114V11.8193H347.304C347.687 11.8193 348.024 11.7729 348.315 11.6802C348.606 11.5812 348.847 11.4482 349.039 11.2812C349.236 11.1081 349.382 10.9071 349.475 10.6782C349.574 10.4494 349.623 10.202 349.623 9.93604ZM356.117 14.918C356.16 15.2148 356.253 15.487 356.396 15.7344C356.544 15.9818 356.729 16.1951 356.952 16.3745C357.175 16.5477 357.431 16.6838 357.722 16.7827C358.013 16.8817 358.322 16.9312 358.65 16.9312C359.027 16.9312 359.435 16.86 359.875 16.7178C360.314 16.5693 360.716 16.356 361.081 16.0776L362.314 17.8774C361.851 18.2671 361.282 18.5825 360.607 18.8237C359.933 19.0649 359.216 19.1855 358.455 19.1855C357.769 19.1855 357.122 19.068 356.516 18.833C355.91 18.598 355.378 18.2578 354.92 17.8125C354.469 17.3672 354.11 16.826 353.844 16.189C353.584 15.5519 353.455 14.8345 353.455 14.0366C353.455 13.3068 353.569 12.6265 353.798 11.9956C354.033 11.3647 354.358 10.8174 354.772 10.3535C355.193 9.88965 355.694 9.52783 356.275 9.26807C356.856 9.00212 357.5 8.86914 358.205 8.86914C358.86 8.86914 359.469 8.98975 360.032 9.23096C360.595 9.46598 361.084 9.79997 361.498 10.2329C361.912 10.6597 362.237 11.173 362.472 11.7729C362.707 12.3729 362.825 13.0347 362.825 13.7583V14.918H356.117ZM358.195 11.0957C357.645 11.0957 357.178 11.2812 356.794 11.6523C356.417 12.0173 356.198 12.4595 356.136 12.979H360.144C360.131 12.4533 359.939 12.008 359.568 11.6431C359.197 11.2782 358.74 11.0957 358.195 11.0957ZM367.018 22.1357H364.458V9.06396H367.018V9.91748C367.296 9.62679 367.64 9.37939 368.048 9.17529C368.456 8.97119 368.951 8.86914 369.532 8.86914C370.188 8.86914 370.782 9.00212 371.313 9.26807C371.852 9.52783 372.312 9.88965 372.696 10.3535C373.079 10.8112 373.376 11.3555 373.586 11.9863C373.797 12.6172 373.902 13.3006 373.902 14.0366C373.902 14.7726 373.794 15.4561 373.577 16.0869C373.361 16.7178 373.058 17.262 372.668 17.7197C372.278 18.1774 371.811 18.5361 371.267 18.7959C370.723 19.0557 370.123 19.1855 369.467 19.1855C369.177 19.1855 368.911 19.1577 368.669 19.1021C368.434 19.0526 368.218 18.9814 368.02 18.8887C367.822 18.7959 367.64 18.6877 367.473 18.564C367.306 18.4341 367.154 18.2949 367.018 18.1465V22.1357ZM366.944 14.9551C366.944 15.221 366.99 15.4684 367.083 15.6973C367.182 15.9199 367.321 16.1147 367.5 16.2817C367.68 16.4487 367.893 16.5786 368.141 16.6714C368.394 16.7642 368.679 16.8105 368.994 16.8105C369.359 16.8105 369.681 16.7456 369.959 16.6157C370.243 16.4797 370.482 16.291 370.673 16.0498C370.865 15.8086 371.01 15.5241 371.109 15.1963C371.208 14.8623 371.258 14.4974 371.258 14.1016V13.981C371.258 13.5851 371.208 13.2202 371.109 12.8862C371.01 12.5522 370.865 12.2646 370.673 12.0234C370.482 11.776 370.243 11.5843 369.959 11.4482C369.681 11.3122 369.359 11.2441 368.994 11.2441C368.679 11.2441 368.394 11.2905 368.141 11.3833C367.893 11.4761 367.68 11.606 367.5 11.7729C367.321 11.9399 367.182 12.1379 367.083 12.3667C366.99 12.5955 366.944 12.8429 366.944 13.1089V14.9551ZM381.194 11.5503H380.925C380.56 11.5503 380.21 11.5874 379.876 11.6616C379.549 11.7358 379.258 11.8719 379.004 12.0698C378.751 12.2616 378.547 12.5275 378.392 12.8677C378.244 13.2078 378.169 13.6439 378.169 14.1758V19H375.609V9.06396H378.169V10.1865C378.275 10.0195 378.411 9.85872 378.578 9.7041C378.745 9.54948 378.939 9.41341 379.162 9.2959C379.385 9.1722 379.635 9.07324 379.914 8.99902C380.192 8.9248 380.492 8.8877 380.813 8.8877H381.194V11.5503ZM384.933 14.918C384.976 15.2148 385.069 15.487 385.211 15.7344C385.359 15.9818 385.545 16.1951 385.768 16.3745C385.99 16.5477 386.247 16.6838 386.538 16.7827C386.828 16.8817 387.138 16.9312 387.465 16.9312C387.843 16.9312 388.251 16.86 388.69 16.7178C389.129 16.5693 389.531 16.356 389.896 16.0776L391.13 17.8774C390.666 18.2671 390.097 18.5825 389.423 18.8237C388.749 19.0649 388.031 19.1855 387.271 19.1855C386.584 19.1855 385.938 19.068 385.332 18.833C384.725 18.598 384.194 18.2578 383.736 17.8125C383.284 17.3672 382.926 16.826 382.66 16.189C382.4 15.5519 382.27 14.8345 382.27 14.0366C382.27 13.3068 382.384 12.6265 382.613 11.9956C382.848 11.3647 383.173 10.8174 383.587 10.3535C384.008 9.88965 384.509 9.52783 385.09 9.26807C385.672 9.00212 386.315 8.86914 387.02 8.86914C387.676 8.86914 388.285 8.98975 388.848 9.23096C389.41 9.46598 389.899 9.79997 390.313 10.2329C390.728 10.6597 391.053 11.173 391.288 11.7729C391.523 12.3729 391.64 13.0347 391.64 13.7583V14.918H384.933ZM387.011 11.0957C386.46 11.0957 385.993 11.2812 385.61 11.6523C385.233 12.0173 385.013 12.4595 384.951 12.979H388.959C388.947 12.4533 388.755 12.008 388.384 11.6431C388.013 11.2782 387.555 11.0957 387.011 11.0957ZM393.978 15.8271C394.343 16.1549 394.779 16.4364 395.286 16.6714C395.793 16.9064 396.307 17.0239 396.826 17.0239C397.203 17.0239 397.5 16.9528 397.717 16.8105C397.933 16.6621 398.042 16.4735 398.042 16.2446C398.042 15.855 397.624 15.5519 396.789 15.3354L396.065 15.1406C395.707 15.054 395.345 14.9365 394.98 14.7881C394.615 14.6335 394.278 14.4325 393.969 14.1851C393.666 13.9377 393.418 13.6377 393.227 13.2852C393.041 12.9264 392.948 12.4873 392.948 11.9678C392.948 11.5534 393.038 11.1606 393.217 10.7896C393.403 10.4123 393.663 10.0814 393.997 9.79688C394.337 9.51237 394.748 9.28662 395.23 9.11963C395.713 8.95264 396.251 8.86914 396.845 8.86914C397.692 8.86914 398.447 9.00212 399.108 9.26807C399.776 9.53402 400.302 9.83398 400.686 10.168L399.35 11.875C399.034 11.6462 398.66 11.4513 398.227 11.2905C397.8 11.1235 397.37 11.04 396.938 11.04C396.535 11.04 396.223 11.1143 396 11.2627C395.778 11.4049 395.667 11.5781 395.667 11.7822C395.667 11.9987 395.762 12.175 395.954 12.311C396.152 12.4409 396.437 12.5553 396.808 12.6543L397.884 12.9604C398.91 13.2511 399.646 13.6439 400.092 14.1387C400.537 14.6335 400.76 15.2581 400.76 16.0127C400.76 16.4333 400.673 16.8353 400.5 17.2188C400.327 17.596 400.073 17.9331 399.739 18.23C399.405 18.5269 398.991 18.7619 398.496 18.9351C398.001 19.1021 397.438 19.1855 396.808 19.1855C396.325 19.1855 395.871 19.1423 395.444 19.0557C395.023 18.9691 394.631 18.8516 394.266 18.7031C393.907 18.5485 393.582 18.3753 393.292 18.1836C393.001 17.9919 392.753 17.8001 392.549 17.6084L393.978 15.8271ZM404.563 14.918C404.607 15.2148 404.7 15.487 404.842 15.7344C404.99 15.9818 405.176 16.1951 405.398 16.3745C405.621 16.5477 405.878 16.6838 406.168 16.7827C406.459 16.8817 406.768 16.9312 407.096 16.9312C407.473 16.9312 407.882 16.86 408.321 16.7178C408.76 16.5693 409.162 16.356 409.527 16.0776L410.761 17.8774C410.297 18.2671 409.728 18.5825 409.054 18.8237C408.38 19.0649 407.662 19.1855 406.901 19.1855C406.215 19.1855 405.569 19.068 404.962 18.833C404.356 18.598 403.824 18.2578 403.367 17.8125C402.915 17.3672 402.556 16.826 402.291 16.189C402.031 15.5519 401.901 14.8345 401.901 14.0366C401.901 13.3068 402.015 12.6265 402.244 11.9956C402.479 11.3647 402.804 10.8174 403.218 10.3535C403.639 9.88965 404.14 9.52783 404.721 9.26807C405.303 9.00212 405.946 8.86914 406.651 8.86914C407.306 8.86914 407.916 8.98975 408.479 9.23096C409.041 9.46598 409.53 9.79997 409.944 10.2329C410.359 10.6597 410.683 11.173 410.918 11.7729C411.153 12.3729 411.271 13.0347 411.271 13.7583V14.918H404.563ZM406.642 11.0957C406.091 11.0957 405.624 11.2812 405.241 11.6523C404.863 12.0173 404.644 12.4595 404.582 12.979H408.59C408.577 12.4533 408.386 12.008 408.015 11.6431C407.644 11.2782 407.186 11.0957 406.642 11.0957ZM412.904 9.06396H415.464V9.91748C415.6 9.78141 415.752 9.65153 415.919 9.52783C416.092 9.39795 416.281 9.28662 416.485 9.19385C416.689 9.09489 416.915 9.01758 417.162 8.96191C417.416 8.90007 417.694 8.86914 417.997 8.86914C418.535 8.86914 419.018 8.95882 419.444 9.13818C419.871 9.31136 420.23 9.55257 420.521 9.86182C420.817 10.1711 421.043 10.5329 421.198 10.9473C421.352 11.3617 421.43 11.8101 421.43 12.2925V19H418.869V13.2202C418.869 12.8677 418.829 12.5708 418.749 12.3296C418.668 12.0822 418.557 11.8843 418.415 11.7358C418.278 11.5812 418.115 11.4699 417.923 11.4019C417.737 11.3276 417.533 11.2905 417.311 11.2905C417.051 11.2905 416.806 11.3369 416.578 11.4297C416.355 11.5225 416.16 11.6647 415.993 11.8564C415.826 12.042 415.696 12.277 415.604 12.5615C415.511 12.846 415.464 13.18 415.464 13.5635V19H412.904V9.06396ZM427.237 16.0405C427.237 16.158 427.253 16.2694 427.284 16.3745C427.315 16.4797 427.367 16.5724 427.441 16.6528C427.522 16.7271 427.633 16.7858 427.775 16.8291C427.918 16.8724 428.1 16.894 428.323 16.894C428.416 16.894 428.521 16.891 428.638 16.8848C428.756 16.8724 428.873 16.86 428.991 16.8477C429.108 16.8353 429.216 16.8198 429.315 16.8013C429.421 16.7827 429.507 16.7673 429.575 16.7549L429.807 19.0186C429.566 19.0495 429.315 19.0773 429.056 19.1021C428.833 19.1268 428.586 19.1453 428.313 19.1577C428.041 19.1763 427.766 19.1855 427.488 19.1855C426.603 19.1855 425.914 18.9845 425.419 18.5825C424.924 18.1805 424.677 17.5404 424.677 16.6621V11.2905H422.886V9.06396H424.677V6.25293L427.237 5.56641V9.06396H429.844V11.2905H427.237V16.0405ZM433.602 14.918C433.645 15.2148 433.738 15.487 433.88 15.7344C434.028 15.9818 434.214 16.1951 434.437 16.3745C434.659 16.5477 434.916 16.6838 435.207 16.7827C435.497 16.8817 435.806 16.9312 436.134 16.9312C436.512 16.9312 436.92 16.86 437.359 16.7178C437.798 16.5693 438.2 16.356 438.565 16.0776L439.799 17.8774C439.335 18.2671 438.766 18.5825 438.092 18.8237C437.418 19.0649 436.7 19.1855 435.939 19.1855C435.253 19.1855 434.607 19.068 434 18.833C433.394 18.598 432.862 18.2578 432.405 17.8125C431.953 17.3672 431.595 16.826 431.329 16.189C431.069 15.5519 430.939 14.8345 430.939 14.0366C430.939 13.3068 431.053 12.6265 431.282 11.9956C431.517 11.3647 431.842 10.8174 432.256 10.3535C432.677 9.88965 433.178 9.52783 433.759 9.26807C434.341 9.00212 434.984 8.86914 435.689 8.86914C436.345 8.86914 436.954 8.98975 437.517 9.23096C438.079 9.46598 438.568 9.79997 438.982 10.2329C439.397 10.6597 439.722 11.173 439.957 11.7729C440.192 12.3729 440.309 13.0347 440.309 13.7583V14.918H433.602ZM435.68 11.0957C435.129 11.0957 434.662 11.2812 434.279 11.6523C433.902 12.0173 433.682 12.4595 433.62 12.979H437.628C437.616 12.4533 437.424 12.008 437.053 11.6431C436.682 11.2782 436.224 11.0957 435.68 11.0957ZM448.325 19V18.1465C448.189 18.2949 448.037 18.4341 447.87 18.564C447.709 18.6877 447.527 18.7959 447.323 18.8887C447.125 18.9814 446.905 19.0526 446.664 19.1021C446.429 19.1577 446.166 19.1855 445.875 19.1855C445.22 19.1855 444.62 19.0557 444.076 18.7959C443.531 18.5361 443.064 18.1774 442.675 17.7197C442.285 17.262 441.982 16.7178 441.766 16.0869C441.555 15.4561 441.45 14.7726 441.45 14.0366C441.45 13.3006 441.555 12.6172 441.766 11.9863C441.976 11.3555 442.27 10.8112 442.647 10.3535C443.03 9.88965 443.491 9.52783 444.029 9.26807C444.567 9.00212 445.164 8.86914 445.82 8.86914C446.401 8.86914 446.893 8.97119 447.295 9.17529C447.703 9.37321 448.046 9.62061 448.325 9.91748V5.69629H450.885V19H448.325ZM448.399 13.1089C448.399 12.8429 448.349 12.5955 448.25 12.3667C448.158 12.1379 448.022 11.9399 447.842 11.7729C447.663 11.606 447.446 11.4761 447.193 11.3833C446.945 11.2905 446.664 11.2441 446.349 11.2441C445.984 11.2441 445.659 11.3122 445.375 11.4482C445.096 11.5843 444.861 11.776 444.669 12.0234C444.478 12.2646 444.332 12.5522 444.233 12.8862C444.134 13.2202 444.085 13.5851 444.085 13.981V14.1016C444.085 14.4974 444.134 14.8623 444.233 15.1963C444.332 15.5241 444.478 15.8086 444.669 16.0498C444.861 16.291 445.096 16.4797 445.375 16.6157C445.659 16.7456 445.984 16.8105 446.349 16.8105C446.664 16.8105 446.945 16.7642 447.193 16.6714C447.446 16.5786 447.663 16.4487 447.842 16.2817C448.022 16.1147 448.158 15.9199 448.25 15.6973C448.349 15.4684 448.399 15.221 448.399 14.9551V13.1089ZM455.802 11.9121H459.792V14.2129H455.802V11.9121ZM473.086 19H470.516V13.2202C470.516 12.8677 470.476 12.5708 470.396 12.3296C470.321 12.0822 470.216 11.8843 470.08 11.7358C469.944 11.5812 469.786 11.473 469.607 11.4111C469.428 11.3431 469.233 11.3091 469.022 11.3091C468.775 11.3091 468.543 11.3524 468.327 11.439C468.116 11.5256 467.931 11.6616 467.77 11.8472C467.615 12.0327 467.492 12.2708 467.399 12.5615C467.312 12.846 467.269 13.1862 467.269 13.582V19H464.708V9.06396H467.269V9.93604C467.597 9.57113 467.977 9.30208 468.41 9.12891C468.849 8.95573 469.319 8.86914 469.82 8.86914C470.334 8.86914 470.813 8.97428 471.258 9.18457C471.71 9.39486 472.084 9.74121 472.381 10.2236C472.554 9.97624 472.752 9.76595 472.975 9.59277C473.203 9.4196 473.448 9.28044 473.708 9.17529C473.967 9.07015 474.236 8.99284 474.515 8.94336C474.799 8.89388 475.09 8.86914 475.387 8.86914C475.943 8.86914 476.438 8.96191 476.871 9.14746C477.31 9.32682 477.681 9.57113 477.984 9.88037C478.287 10.1896 478.519 10.5452 478.68 10.9473C478.841 11.3493 478.921 11.7729 478.921 12.2183V19H476.333V13.2202C476.333 12.8677 476.293 12.5708 476.212 12.3296C476.138 12.0822 476.033 11.8843 475.897 11.7358C475.761 11.5812 475.6 11.473 475.415 11.4111C475.235 11.3431 475.04 11.3091 474.83 11.3091C474.583 11.3091 474.354 11.3524 474.144 11.439C473.933 11.5256 473.748 11.6616 473.587 11.8472C473.432 12.0327 473.309 12.2708 473.216 12.5615C473.129 12.846 473.086 13.1862 473.086 13.582V19ZM484.265 14.9644C483.95 15.0138 483.696 15.1252 483.504 15.2983C483.313 15.4653 483.217 15.6942 483.217 15.9849C483.217 16.3065 483.334 16.5848 483.569 16.8198C483.804 17.0487 484.151 17.1631 484.608 17.1631C485.091 17.1631 485.471 17.0239 485.75 16.7456C486.028 16.4673 486.167 16.0993 486.167 15.6416V14.6396L484.265 14.9644ZM486.584 18.063C486.479 18.1805 486.349 18.3073 486.195 18.4434C486.046 18.5732 485.867 18.6938 485.657 18.8052C485.453 18.9103 485.211 19 484.933 19.0742C484.655 19.1484 484.342 19.1855 483.996 19.1855C483.501 19.1855 483.044 19.1082 482.623 18.9536C482.209 18.7928 481.844 18.5701 481.528 18.2856C481.213 18.0011 480.965 17.6733 480.786 17.3022C480.607 16.925 480.517 16.5168 480.517 16.0776C480.517 15.2798 480.764 14.6273 481.259 14.1201C481.754 13.613 482.438 13.2944 483.31 13.1646L486.167 12.7471V12.5615C486.167 12.1162 486.031 11.7637 485.759 11.5039C485.487 11.2441 485.044 11.1143 484.432 11.1143C484.179 11.1143 483.922 11.1452 483.662 11.207C483.402 11.2627 483.152 11.3276 482.911 11.4019C482.676 11.4761 482.456 11.5627 482.252 11.6616C482.048 11.7544 481.868 11.8379 481.714 11.9121L480.712 9.95459C481.281 9.63916 481.912 9.37939 482.604 9.17529C483.303 8.97119 484.027 8.86914 484.775 8.86914C485.233 8.86914 485.694 8.91862 486.158 9.01758C486.628 9.11035 487.051 9.28353 487.429 9.53711C487.812 9.79069 488.125 10.137 488.366 10.5762C488.607 11.0091 488.728 11.5627 488.728 12.2368V16.3188C488.728 16.6095 488.802 16.826 488.95 16.9683C489.105 17.1043 489.315 17.2311 489.581 17.3486L488.421 19.1855C487.951 19.1361 487.574 19.0155 487.29 18.8237C487.005 18.6258 486.77 18.3722 486.584 18.063ZM490.871 9.06396H493.431V9.91748C493.567 9.78141 493.719 9.65153 493.886 9.52783C494.059 9.39795 494.248 9.28662 494.452 9.19385C494.656 9.09489 494.882 9.01758 495.129 8.96191C495.382 8.90007 495.661 8.86914 495.964 8.86914C496.502 8.86914 496.984 8.95882 497.411 9.13818C497.838 9.31136 498.197 9.55257 498.487 9.86182C498.784 10.1711 499.01 10.5329 499.165 10.9473C499.319 11.3617 499.396 11.8101 499.396 12.2925V19H496.836V13.2202C496.836 12.8677 496.796 12.5708 496.715 12.3296C496.635 12.0822 496.524 11.8843 496.381 11.7358C496.245 11.5812 496.081 11.4699 495.89 11.4019C495.704 11.3276 495.5 11.2905 495.277 11.2905C495.018 11.2905 494.773 11.3369 494.544 11.4297C494.322 11.5225 494.127 11.6647 493.96 11.8564C493.793 12.042 493.663 12.277 493.57 12.5615C493.478 12.846 493.431 13.18 493.431 13.5635V19H490.871V9.06396ZM509.991 19H507.431V18.1465C507.288 18.2826 507.134 18.4155 506.967 18.5454C506.8 18.6691 506.614 18.7804 506.41 18.8794C506.206 18.9722 505.977 19.0464 505.724 19.1021C505.476 19.1577 505.201 19.1855 504.898 19.1855C504.36 19.1855 503.877 19.099 503.451 18.9258C503.024 18.7464 502.662 18.5052 502.365 18.2021C502.075 17.8929 501.852 17.5311 501.697 17.1167C501.543 16.7023 501.465 16.2539 501.465 15.7715V9.06396H504.026V14.8345C504.026 15.187 504.063 15.487 504.137 15.7344C504.218 15.9818 504.326 16.1828 504.462 16.3374C504.604 16.4858 504.771 16.5972 504.963 16.6714C505.155 16.7394 505.362 16.7734 505.584 16.7734C505.844 16.7734 506.085 16.7271 506.308 16.6343C506.537 16.5415 506.735 16.4023 506.902 16.2168C507.069 16.0251 507.199 15.7869 507.292 15.5024C507.384 15.2179 507.431 14.884 507.431 14.5005V9.06396H509.991V19ZM515.418 14.9644C515.103 15.0138 514.849 15.1252 514.658 15.2983C514.466 15.4653 514.37 15.6942 514.37 15.9849C514.37 16.3065 514.488 16.5848 514.723 16.8198C514.958 17.0487 515.304 17.1631 515.762 17.1631C516.244 17.1631 516.625 17.0239 516.903 16.7456C517.181 16.4673 517.32 16.0993 517.32 15.6416V14.6396L515.418 14.9644ZM517.738 18.063C517.633 18.1805 517.503 18.3073 517.348 18.4434C517.2 18.5732 517.02 18.6938 516.81 18.8052C516.606 18.9103 516.365 19 516.086 19.0742C515.808 19.1484 515.496 19.1855 515.149 19.1855C514.655 19.1855 514.197 19.1082 513.776 18.9536C513.362 18.7928 512.997 18.5701 512.682 18.2856C512.366 18.0011 512.119 17.6733 511.939 17.3022C511.76 16.925 511.67 16.5168 511.67 16.0776C511.67 15.2798 511.918 14.6273 512.413 14.1201C512.907 13.613 513.591 13.2944 514.463 13.1646L517.32 12.7471V12.5615C517.32 12.1162 517.184 11.7637 516.912 11.5039C516.64 11.2441 516.198 11.1143 515.585 11.1143C515.332 11.1143 515.075 11.1452 514.815 11.207C514.556 11.2627 514.305 11.3276 514.064 11.4019C513.829 11.4761 513.609 11.5627 513.405 11.6616C513.201 11.7544 513.022 11.8379 512.867 11.9121L511.865 9.95459C512.434 9.63916 513.065 9.37939 513.758 9.17529C514.457 8.97119 515.18 8.86914 515.929 8.86914C516.386 8.86914 516.847 8.91862 517.311 9.01758C517.781 9.11035 518.205 9.28353 518.582 9.53711C518.965 9.79069 519.278 10.137 519.519 10.5762C519.76 11.0091 519.881 11.5627 519.881 12.2368V16.3188C519.881 16.6095 519.955 16.826 520.104 16.9683C520.258 17.1043 520.468 17.2311 520.734 17.3486L519.575 19.1855C519.105 19.1361 518.727 19.0155 518.443 18.8237C518.158 18.6258 517.923 18.3722 517.738 18.063ZM521.987 5.69629H524.547V16.3003C524.547 16.5106 524.606 16.6714 524.724 16.7827C524.847 16.894 525.042 16.9497 525.308 16.9497C525.432 16.9497 525.537 16.9435 525.624 16.9312C525.716 16.9126 525.834 16.8879 525.976 16.8569L526.18 19.0371C526.007 19.0618 525.821 19.0866 525.624 19.1113C525.457 19.1299 525.262 19.1453 525.039 19.1577C524.823 19.1763 524.597 19.1855 524.362 19.1855C523.997 19.1855 523.669 19.1392 523.378 19.0464C523.088 18.9536 522.837 18.8175 522.627 18.6382C522.423 18.4526 522.265 18.2238 522.154 17.9517C522.042 17.6795 521.987 17.3641 521.987 17.0054V5.69629Z" fill="white"/>
<rect width="138" height="27" fill="#001CB8"/>
<path d="M15.0156 14.7046L11.082 9.7876V19H8.3916V5.69629H11.1191L15.0527 10.8916L19.1069 5.69629H21.7231V19H19.0234V9.7876L15.1084 14.7046H15.0156ZM26.7886 19H24.228V9.06396H26.7886V19ZM23.959 6.45703C23.959 6.24674 23.9992 6.04883 24.0796 5.86328C24.16 5.67155 24.2682 5.50765 24.4043 5.37158C24.5465 5.22933 24.7104 5.118 24.896 5.0376C25.0815 4.95719 25.2826 4.91699 25.499 4.91699C25.7093 4.91699 25.9072 4.95719 26.0928 5.0376C26.2845 5.118 26.4484 5.22933 26.5845 5.37158C26.7267 5.50765 26.8381 5.67155 26.9185 5.86328C26.9989 6.04883 27.0391 6.24674 27.0391 6.45703C27.0391 6.6735 26.9989 6.87451 26.9185 7.06006C26.8381 7.24561 26.7267 7.40951 26.5845 7.55176C26.4484 7.68783 26.2845 7.79606 26.0928 7.87646C25.9072 7.95687 25.7093 7.99707 25.499 7.99707C25.2826 7.99707 25.0815 7.95687 24.896 7.87646C24.7104 7.79606 24.5465 7.68783 24.4043 7.55176C24.2682 7.40951 24.16 7.24561 24.0796 7.06006C23.9992 6.87451 23.959 6.6735 23.959 6.45703ZM35.0361 17.2373C34.8073 17.5156 34.4857 17.7383 34.0713 17.9053C33.6631 18.0661 33.2178 18.1465 32.7354 18.1465C32.0674 18.1465 31.4736 18.029 30.9541 17.7939C30.4346 17.5589 29.9954 17.2373 29.6367 16.8291C29.2842 16.4147 29.012 15.9261 28.8203 15.3633C28.6348 14.8005 28.542 14.182 28.542 13.5078C28.542 12.8522 28.6348 12.2399 28.8203 11.6709C29.012 11.0957 29.2842 10.604 29.6367 10.1958C29.9954 9.78141 30.4346 9.45671 30.9541 9.22168C31.4736 8.98665 32.0674 8.86914 32.7354 8.86914C33.2178 8.86914 33.6631 8.95264 34.0713 9.11963C34.4857 9.28662 34.8073 9.50928 35.0361 9.7876V9.06396H37.606V18.9072C37.606 19.5133 37.4915 20.0329 37.2627 20.4658C37.0339 20.9049 36.7184 21.2637 36.3164 21.542C35.9206 21.8203 35.4598 22.0213 34.9341 22.145C34.4084 22.2749 33.8486 22.3398 33.2549 22.3398C32.5312 22.3398 31.7767 22.2533 30.9912 22.0801C30.2057 21.9131 29.5285 21.7028 28.9595 21.4492L29.6831 19.3804C29.8563 19.4546 30.0697 19.535 30.3232 19.6216C30.5768 19.7144 30.849 19.7948 31.1396 19.8628C31.4303 19.9308 31.7334 19.9865 32.0488 20.0298C32.3704 20.0793 32.6828 20.104 32.9858 20.104C33.2518 20.104 33.5085 20.0762 33.7559 20.0205C34.0033 19.971 34.2197 19.8844 34.4053 19.7607C34.597 19.6432 34.7485 19.4855 34.8599 19.2876C34.9774 19.0959 35.0361 18.8485 35.0361 18.5454V17.2373ZM31.1768 13.5449C31.1768 13.8727 31.2108 14.182 31.2788 14.4727C31.353 14.7572 31.4674 15.0015 31.6221 15.2056C31.7829 15.4035 31.987 15.5612 32.2344 15.6787C32.4818 15.79 32.7817 15.8457 33.1343 15.8457C33.8332 15.8457 34.3311 15.6261 34.6279 15.187C34.9248 14.7417 35.0732 14.1943 35.0732 13.5449V13.4707C35.0732 13.1429 35.0392 12.8368 34.9712 12.5522C34.9032 12.2677 34.7918 12.0234 34.6372 11.8193C34.4826 11.6152 34.2816 11.4575 34.0342 11.3462C33.793 11.2287 33.493 11.1699 33.1343 11.1699C32.4416 11.1699 31.9406 11.3895 31.6313 11.8286C31.3283 12.2677 31.1768 12.8151 31.1768 13.4707V13.5449ZM45.3989 11.5503H45.1299C44.765 11.5503 44.4155 11.5874 44.0815 11.6616C43.7537 11.7358 43.4631 11.8719 43.2095 12.0698C42.9559 12.2616 42.7518 12.5275 42.5972 12.8677C42.4487 13.2078 42.3745 13.6439 42.3745 14.1758V19H39.814V9.06396H42.3745V10.1865C42.4797 10.0195 42.6157 9.85872 42.7827 9.7041C42.9497 9.54948 43.1445 9.41341 43.3672 9.2959C43.5898 9.1722 43.8403 9.07324 44.1187 8.99902C44.397 8.9248 44.6969 8.8877 45.0186 8.8877H45.3989V11.5503ZM50.2046 14.9644C49.8892 15.0138 49.6356 15.1252 49.4438 15.2983C49.2521 15.4653 49.1562 15.6942 49.1562 15.9849C49.1562 16.3065 49.2738 16.5848 49.5088 16.8198C49.7438 17.0487 50.0902 17.1631 50.5479 17.1631C51.0303 17.1631 51.4106 17.0239 51.689 16.7456C51.9673 16.4673 52.1064 16.0993 52.1064 15.6416V14.6396L50.2046 14.9644ZM52.5239 18.063C52.4188 18.1805 52.2889 18.3073 52.1343 18.4434C51.9858 18.5732 51.8065 18.6938 51.5962 18.8052C51.3921 18.9103 51.1509 19 50.8726 19.0742C50.5942 19.1484 50.2819 19.1855 49.9355 19.1855C49.4408 19.1855 48.9831 19.1082 48.5625 18.9536C48.1481 18.7928 47.7832 18.5701 47.4678 18.2856C47.1523 18.0011 46.9049 17.6733 46.7256 17.3022C46.5462 16.925 46.4565 16.5168 46.4565 16.0776C46.4565 15.2798 46.7039 14.6273 47.1987 14.1201C47.6935 13.613 48.377 13.2944 49.249 13.1646L52.1064 12.7471V12.5615C52.1064 12.1162 51.9704 11.7637 51.6982 11.5039C51.4261 11.2441 50.9839 11.1143 50.3716 11.1143C50.118 11.1143 49.8613 11.1452 49.6016 11.207C49.3418 11.2627 49.0913 11.3276 48.8501 11.4019C48.6151 11.4761 48.3955 11.5627 48.1914 11.6616C47.9873 11.7544 47.8079 11.8379 47.6533 11.9121L46.6514 9.95459C47.2204 9.63916 47.8512 9.37939 48.5439 9.17529C49.2428 8.97119 49.9665 8.86914 50.7148 8.86914C51.1725 8.86914 51.6333 8.91862 52.0972 9.01758C52.5672 9.11035 52.9909 9.28353 53.3682 9.53711C53.7516 9.79069 54.064 10.137 54.3052 10.5762C54.5464 11.0091 54.667 11.5627 54.667 12.2368V16.3188C54.667 16.6095 54.7412 16.826 54.8896 16.9683C55.0443 17.1043 55.2546 17.2311 55.5205 17.3486L54.3608 19.1855C53.8908 19.1361 53.5135 19.0155 53.229 18.8237C52.9445 18.6258 52.7095 18.3722 52.5239 18.063ZM60.085 16.0405C60.085 16.158 60.1004 16.2694 60.1313 16.3745C60.1623 16.4797 60.2148 16.5724 60.2891 16.6528C60.3695 16.7271 60.4808 16.7858 60.623 16.8291C60.7653 16.8724 60.9478 16.894 61.1704 16.894C61.2632 16.894 61.3683 16.891 61.4858 16.8848C61.6034 16.8724 61.7209 16.86 61.8384 16.8477C61.9559 16.8353 62.0641 16.8198 62.1631 16.8013C62.2682 16.7827 62.3548 16.7673 62.4229 16.7549L62.6548 19.0186C62.4136 19.0495 62.1631 19.0773 61.9033 19.1021C61.6807 19.1268 61.4333 19.1453 61.1611 19.1577C60.889 19.1763 60.6138 19.1855 60.3354 19.1855C59.451 19.1855 58.7614 18.9845 58.2666 18.5825C57.7718 18.1805 57.5244 17.5404 57.5244 16.6621V11.2905H55.7339V9.06396H57.5244V6.25293L60.085 5.56641V9.06396H62.6919V11.2905H60.085V16.0405ZM66.4492 14.918C66.4925 15.2148 66.5853 15.487 66.7275 15.7344C66.876 15.9818 67.0615 16.1951 67.2842 16.3745C67.5068 16.5477 67.7635 16.6838 68.0542 16.7827C68.3449 16.8817 68.6541 16.9312 68.9819 16.9312C69.3592 16.9312 69.7674 16.86 70.2065 16.7178C70.6457 16.5693 71.0477 16.356 71.4126 16.0776L72.6465 17.8774C72.1826 18.2671 71.6136 18.5825 70.9395 18.8237C70.2653 19.0649 69.5479 19.1855 68.7871 19.1855C68.1006 19.1855 67.4543 19.068 66.8481 18.833C66.242 18.598 65.7101 18.2578 65.2524 17.8125C64.8009 17.3672 64.4422 16.826 64.1763 16.189C63.9165 15.5519 63.7866 14.8345 63.7866 14.0366C63.7866 13.3068 63.901 12.6265 64.1299 11.9956C64.3649 11.3647 64.6896 10.8174 65.104 10.3535C65.5246 9.88965 66.0256 9.52783 66.6069 9.26807C67.1883 9.00212 67.8315 8.86914 68.5366 8.86914C69.1922 8.86914 69.8014 8.98975 70.3643 9.23096C70.9271 9.46598 71.4157 9.79997 71.8301 10.2329C72.2445 10.6597 72.5692 11.173 72.8042 11.7729C73.0392 12.3729 73.1567 13.0347 73.1567 13.7583V14.918H66.4492ZM68.5273 11.0957C67.9769 11.0957 67.5099 11.2812 67.1265 11.6523C66.7492 12.0173 66.5296 12.4595 66.4678 12.979H70.4756C70.4632 12.4533 70.2715 12.008 69.9004 11.6431C69.5293 11.2782 69.0716 11.0957 68.5273 11.0957ZM81.1724 19V18.1465C81.0363 18.2949 80.8848 18.4341 80.7178 18.564C80.557 18.6877 80.3745 18.7959 80.1704 18.8887C79.9725 18.9814 79.7529 19.0526 79.5117 19.1021C79.2767 19.1577 79.0138 19.1855 78.7231 19.1855C78.0675 19.1855 77.4676 19.0557 76.9233 18.7959C76.3791 18.5361 75.9121 18.1774 75.5225 17.7197C75.1328 17.262 74.8298 16.7178 74.6133 16.0869C74.403 15.4561 74.2979 14.7726 74.2979 14.0366C74.2979 13.3006 74.403 12.6172 74.6133 11.9863C74.8236 11.3555 75.1174 10.8112 75.4946 10.3535C75.8781 9.88965 76.3389 9.52783 76.877 9.26807C77.415 9.00212 78.0119 8.86914 78.6675 8.86914C79.2489 8.86914 79.7406 8.97119 80.1426 9.17529C80.5508 9.37321 80.894 9.62061 81.1724 9.91748V5.69629H83.7329V19H81.1724ZM81.2466 13.1089C81.2466 12.8429 81.1971 12.5955 81.0981 12.3667C81.0054 12.1379 80.8693 11.9399 80.6899 11.7729C80.5106 11.606 80.2941 11.4761 80.0405 11.3833C79.7931 11.2905 79.5117 11.2441 79.1963 11.2441C78.8314 11.2441 78.5067 11.3122 78.2222 11.4482C77.9438 11.5843 77.7088 11.776 77.5171 12.0234C77.3254 12.2646 77.18 12.5522 77.0811 12.8862C76.9821 13.2202 76.9326 13.5851 76.9326 13.981V14.1016C76.9326 14.4974 76.9821 14.8623 77.0811 15.1963C77.18 15.5241 77.3254 15.8086 77.5171 16.0498C77.7088 16.291 77.9438 16.4797 78.2222 16.6157C78.5067 16.7456 78.8314 16.8105 79.1963 16.8105C79.5117 16.8105 79.7931 16.7642 80.0405 16.6714C80.2941 16.5786 80.5106 16.4487 80.6899 16.2817C80.8693 16.1147 81.0054 15.9199 81.0981 15.6973C81.1971 15.4684 81.2466 15.221 81.2466 14.9551V13.1089ZM88.9932 12.3481C88.9932 11.3957 89.1354 10.505 89.4199 9.67627C89.7106 8.84131 90.125 8.11768 90.6631 7.50537C91.2012 6.88688 91.8537 6.40137 92.6206 6.04883C93.3875 5.6901 94.2503 5.51074 95.209 5.51074C95.9017 5.51074 96.5418 5.60042 97.1294 5.77979C97.7231 5.95915 98.255 6.21273 98.7251 6.54053C99.2013 6.86833 99.6095 7.26416 99.9497 7.72803C100.29 8.19189 100.559 8.71143 100.757 9.28662L98.1685 10.1494C98.0942 9.90202 97.9767 9.64844 97.8159 9.38867C97.6551 9.12272 97.451 8.8846 97.2036 8.67432C96.9562 8.45785 96.6655 8.28158 96.3315 8.14551C96.0037 8.00944 95.6357 7.94141 95.2275 7.94141C94.6152 7.94141 94.0895 8.0682 93.6504 8.32178C93.2174 8.56917 92.8618 8.90007 92.5835 9.31445C92.3052 9.72266 92.098 10.1896 91.9619 10.7153C91.832 11.2349 91.7671 11.7668 91.7671 12.311V12.3853C91.7671 12.9357 91.832 13.4738 91.9619 13.9995C92.098 14.519 92.3052 14.9829 92.5835 15.3911C92.8618 15.7993 93.2174 16.1302 93.6504 16.3838C94.0895 16.6312 94.6152 16.7549 95.2275 16.7549C95.6357 16.7549 96.0037 16.6868 96.3315 16.5508C96.6655 16.4147 96.9562 16.2415 97.2036 16.0312C97.451 15.8148 97.6551 15.5767 97.8159 15.3169C97.9767 15.0571 98.0942 14.8035 98.1685 14.5562L100.757 15.4097C100.559 15.9849 100.29 16.5044 99.9497 16.9683C99.6095 17.4321 99.2013 17.8311 98.7251 18.165C98.255 18.4928 97.7231 18.7464 97.1294 18.9258C96.5418 19.099 95.9017 19.1855 95.209 19.1855C94.2503 19.1855 93.3875 19.0093 92.6206 18.6567C91.8537 18.3042 91.2012 17.8187 90.6631 17.2002C90.125 16.5817 89.7106 15.8581 89.4199 15.0293C89.1354 14.2005 88.9932 13.3068 88.9932 12.3481ZM105.627 14.9644C105.312 15.0138 105.058 15.1252 104.867 15.2983C104.675 15.4653 104.579 15.6942 104.579 15.9849C104.579 16.3065 104.697 16.5848 104.932 16.8198C105.167 17.0487 105.513 17.1631 105.971 17.1631C106.453 17.1631 106.833 17.0239 107.112 16.7456C107.39 16.4673 107.529 16.0993 107.529 15.6416V14.6396L105.627 14.9644ZM107.947 18.063C107.842 18.1805 107.712 18.3073 107.557 18.4434C107.409 18.5732 107.229 18.6938 107.019 18.8052C106.815 18.9103 106.574 19 106.295 19.0742C106.017 19.1484 105.705 19.1855 105.358 19.1855C104.864 19.1855 104.406 19.1082 103.985 18.9536C103.571 18.7928 103.206 18.5701 102.891 18.2856C102.575 18.0011 102.328 17.6733 102.148 17.3022C101.969 16.925 101.879 16.5168 101.879 16.0776C101.879 15.2798 102.127 14.6273 102.622 14.1201C103.116 13.613 103.8 13.2944 104.672 13.1646L107.529 12.7471V12.5615C107.529 12.1162 107.393 11.7637 107.121 11.5039C106.849 11.2441 106.407 11.1143 105.794 11.1143C105.541 11.1143 105.284 11.1452 105.024 11.207C104.765 11.2627 104.514 11.3276 104.273 11.4019C104.038 11.4761 103.818 11.5627 103.614 11.6616C103.41 11.7544 103.231 11.8379 103.076 11.9121L102.074 9.95459C102.643 9.63916 103.274 9.37939 103.967 9.17529C104.666 8.97119 105.389 8.86914 106.138 8.86914C106.595 8.86914 107.056 8.91862 107.52 9.01758C107.99 9.11035 108.414 9.28353 108.791 9.53711C109.174 9.79069 109.487 10.137 109.728 10.5762C109.969 11.0091 110.09 11.5627 110.09 12.2368V16.3188C110.09 16.6095 110.164 16.826 110.312 16.9683C110.467 17.1043 110.677 17.2311 110.943 17.3486L109.784 19.1855C109.314 19.1361 108.936 19.0155 108.652 18.8237C108.367 18.6258 108.132 18.3722 107.947 18.063ZM112.938 15.8271C113.303 16.1549 113.739 16.4364 114.246 16.6714C114.753 16.9064 115.267 17.0239 115.786 17.0239C116.163 17.0239 116.46 16.9528 116.677 16.8105C116.893 16.6621 117.001 16.4735 117.001 16.2446C117.001 15.855 116.584 15.5519 115.749 15.3354L115.025 15.1406C114.667 15.054 114.305 14.9365 113.94 14.7881C113.575 14.6335 113.238 14.4325 112.929 14.1851C112.626 13.9377 112.378 13.6377 112.187 13.2852C112.001 12.9264 111.908 12.4873 111.908 11.9678C111.908 11.5534 111.998 11.1606 112.177 10.7896C112.363 10.4123 112.623 10.0814 112.957 9.79688C113.297 9.51237 113.708 9.28662 114.19 9.11963C114.673 8.95264 115.211 8.86914 115.805 8.86914C116.652 8.86914 117.407 9.00212 118.068 9.26807C118.736 9.53402 119.262 9.83398 119.646 10.168L118.31 11.875C117.994 11.6462 117.62 11.4513 117.187 11.2905C116.76 11.1235 116.33 11.04 115.897 11.04C115.495 11.04 115.183 11.1143 114.96 11.2627C114.738 11.4049 114.626 11.5781 114.626 11.7822C114.626 11.9987 114.722 12.175 114.914 12.311C115.112 12.4409 115.396 12.5553 115.768 12.6543L116.844 12.9604C117.87 13.2511 118.606 13.6439 119.052 14.1387C119.497 14.6335 119.72 15.2581 119.72 16.0127C119.72 16.4333 119.633 16.8353 119.46 17.2188C119.287 17.596 119.033 17.9331 118.699 18.23C118.365 18.5269 117.951 18.7619 117.456 18.9351C116.961 19.1021 116.398 19.1855 115.768 19.1855C115.285 19.1855 114.831 19.1423 114.404 19.0557C113.983 18.9691 113.59 18.8516 113.226 18.7031C112.867 18.5485 112.542 18.3753 112.251 18.1836C111.961 17.9919 111.713 17.8001 111.509 17.6084L112.938 15.8271ZM123.523 14.918C123.567 15.2148 123.66 15.487 123.802 15.7344C123.95 15.9818 124.136 16.1951 124.358 16.3745C124.581 16.5477 124.838 16.6838 125.128 16.7827C125.419 16.8817 125.728 16.9312 126.056 16.9312C126.433 16.9312 126.842 16.86 127.281 16.7178C127.72 16.5693 128.122 16.356 128.487 16.0776L129.721 17.8774C129.257 18.2671 128.688 18.5825 128.014 18.8237C127.34 19.0649 126.622 19.1855 125.861 19.1855C125.175 19.1855 124.528 19.068 123.922 18.833C123.316 18.598 122.784 18.2578 122.327 17.8125C121.875 17.3672 121.516 16.826 121.25 16.189C120.991 15.5519 120.861 14.8345 120.861 14.0366C120.861 13.3068 120.975 12.6265 121.204 11.9956C121.439 11.3647 121.764 10.8174 122.178 10.3535C122.599 9.88965 123.1 9.52783 123.681 9.26807C124.263 9.00212 124.906 8.86914 125.611 8.86914C126.266 8.86914 126.876 8.98975 127.438 9.23096C128.001 9.46598 128.49 9.79997 128.904 10.2329C129.319 10.6597 129.643 11.173 129.878 11.7729C130.113 12.3729 130.231 13.0347 130.231 13.7583V14.918H123.523ZM125.602 11.0957C125.051 11.0957 124.584 11.2812 124.201 11.6523C123.823 12.0173 123.604 12.4595 123.542 12.979H127.55C127.537 12.4533 127.346 12.008 126.975 11.6431C126.604 11.2782 126.146 11.0957 125.602 11.0957Z" fill="white"/>
<rect width="8" height="27" transform="matrix(1 0 0 -1 138 27)" fill="white"/>
<rect width="8" height="27" transform="matrix(1 0 0 -1 262 27)" fill="white"/>
</svg>
