<svg width="704" height="27" viewBox="0 0 704 27" fill="none" xmlns="http://www.w3.org/2000/svg">
<rect width="135" height="27" fill="#001CB8"/>
<path d="M15.0156 14.7046L11.082 9.7876V19H8.3916V5.69629H11.1191L15.0527 10.8916L19.1069 5.69629H21.7231V19H19.0234V9.7876L15.1084 14.7046H15.0156ZM26.7886 19H24.228V9.06396H26.7886V19ZM23.959 6.45703C23.959 6.24674 23.9992 6.04883 24.0796 5.86328C24.16 5.67155 24.2682 5.50765 24.4043 5.37158C24.5465 5.22933 24.7104 5.118 24.896 5.0376C25.0815 4.95719 25.2826 4.91699 25.499 4.91699C25.7093 4.91699 25.9072 4.95719 26.0928 5.0376C26.2845 5.118 26.4484 5.22933 26.5845 5.37158C26.7267 5.50765 26.8381 5.67155 26.9185 5.86328C26.9989 6.04883 27.0391 6.24674 27.0391 6.45703C27.0391 6.6735 26.9989 6.87451 26.9185 7.06006C26.8381 7.24561 26.7267 7.40951 26.5845 7.55176C26.4484 7.68783 26.2845 7.79606 26.0928 7.87646C25.9072 7.95687 25.7093 7.99707 25.499 7.99707C25.2826 7.99707 25.0815 7.95687 24.896 7.87646C24.7104 7.79606 24.5465 7.68783 24.4043 7.55176C24.2682 7.40951 24.16 7.24561 24.0796 7.06006C23.9992 6.87451 23.959 6.6735 23.959 6.45703ZM35.0361 17.2373C34.8073 17.5156 34.4857 17.7383 34.0713 17.9053C33.6631 18.0661 33.2178 18.1465 32.7354 18.1465C32.0674 18.1465 31.4736 18.029 30.9541 17.7939C30.4346 17.5589 29.9954 17.2373 29.6367 16.8291C29.2842 16.4147 29.012 15.9261 28.8203 15.3633C28.6348 14.8005 28.542 14.182 28.542 13.5078C28.542 12.8522 28.6348 12.2399 28.8203 11.6709C29.012 11.0957 29.2842 10.604 29.6367 10.1958C29.9954 9.78141 30.4346 9.45671 30.9541 9.22168C31.4736 8.98665 32.0674 8.86914 32.7354 8.86914C33.2178 8.86914 33.6631 8.95264 34.0713 9.11963C34.4857 9.28662 34.8073 9.50928 35.0361 9.7876V9.06396H37.606V18.9072C37.606 19.5133 37.4915 20.0329 37.2627 20.4658C37.0339 20.9049 36.7184 21.2637 36.3164 21.542C35.9206 21.8203 35.4598 22.0213 34.9341 22.145C34.4084 22.2749 33.8486 22.3398 33.2549 22.3398C32.5312 22.3398 31.7767 22.2533 30.9912 22.0801C30.2057 21.9131 29.5285 21.7028 28.9595 21.4492L29.6831 19.3804C29.8563 19.4546 30.0697 19.535 30.3232 19.6216C30.5768 19.7144 30.849 19.7948 31.1396 19.8628C31.4303 19.9308 31.7334 19.9865 32.0488 20.0298C32.3704 20.0793 32.6828 20.104 32.9858 20.104C33.2518 20.104 33.5085 20.0762 33.7559 20.0205C34.0033 19.971 34.2197 19.8844 34.4053 19.7607C34.597 19.6432 34.7485 19.4855 34.8599 19.2876C34.9774 19.0959 35.0361 18.8485 35.0361 18.5454V17.2373ZM31.1768 13.5449C31.1768 13.8727 31.2108 14.182 31.2788 14.4727C31.353 14.7572 31.4674 15.0015 31.6221 15.2056C31.7829 15.4035 31.987 15.5612 32.2344 15.6787C32.4818 15.79 32.7817 15.8457 33.1343 15.8457C33.8332 15.8457 34.3311 15.6261 34.6279 15.187C34.9248 14.7417 35.0732 14.1943 35.0732 13.5449V13.4707C35.0732 13.1429 35.0392 12.8368 34.9712 12.5522C34.9032 12.2677 34.7918 12.0234 34.6372 11.8193C34.4826 11.6152 34.2816 11.4575 34.0342 11.3462C33.793 11.2287 33.493 11.1699 33.1343 11.1699C32.4416 11.1699 31.9406 11.3895 31.6313 11.8286C31.3283 12.2677 31.1768 12.8151 31.1768 13.4707V13.5449ZM45.3989 11.5503H45.1299C44.765 11.5503 44.4155 11.5874 44.0815 11.6616C43.7537 11.7358 43.4631 11.8719 43.2095 12.0698C42.9559 12.2616 42.7518 12.5275 42.5972 12.8677C42.4487 13.2078 42.3745 13.6439 42.3745 14.1758V19H39.814V9.06396H42.3745V10.1865C42.4797 10.0195 42.6157 9.85872 42.7827 9.7041C42.9497 9.54948 43.1445 9.41341 43.3672 9.2959C43.5898 9.1722 43.8403 9.07324 44.1187 8.99902C44.397 8.9248 44.6969 8.8877 45.0186 8.8877H45.3989V11.5503ZM50.2046 14.9644C49.8892 15.0138 49.6356 15.1252 49.4438 15.2983C49.2521 15.4653 49.1562 15.6942 49.1562 15.9849C49.1562 16.3065 49.2738 16.5848 49.5088 16.8198C49.7438 17.0487 50.0902 17.1631 50.5479 17.1631C51.0303 17.1631 51.4106 17.0239 51.689 16.7456C51.9673 16.4673 52.1064 16.0993 52.1064 15.6416V14.6396L50.2046 14.9644ZM52.5239 18.063C52.4188 18.1805 52.2889 18.3073 52.1343 18.4434C51.9858 18.5732 51.8065 18.6938 51.5962 18.8052C51.3921 18.9103 51.1509 19 50.8726 19.0742C50.5942 19.1484 50.2819 19.1855 49.9355 19.1855C49.4408 19.1855 48.9831 19.1082 48.5625 18.9536C48.1481 18.7928 47.7832 18.5701 47.4678 18.2856C47.1523 18.0011 46.9049 17.6733 46.7256 17.3022C46.5462 16.925 46.4565 16.5168 46.4565 16.0776C46.4565 15.2798 46.7039 14.6273 47.1987 14.1201C47.6935 13.613 48.377 13.2944 49.249 13.1646L52.1064 12.7471V12.5615C52.1064 12.1162 51.9704 11.7637 51.6982 11.5039C51.4261 11.2441 50.9839 11.1143 50.3716 11.1143C50.118 11.1143 49.8613 11.1452 49.6016 11.207C49.3418 11.2627 49.0913 11.3276 48.8501 11.4019C48.6151 11.4761 48.3955 11.5627 48.1914 11.6616C47.9873 11.7544 47.8079 11.8379 47.6533 11.9121L46.6514 9.95459C47.2204 9.63916 47.8512 9.37939 48.5439 9.17529C49.2428 8.97119 49.9665 8.86914 50.7148 8.86914C51.1725 8.86914 51.6333 8.91862 52.0972 9.01758C52.5672 9.11035 52.9909 9.28353 53.3682 9.53711C53.7516 9.79069 54.064 10.137 54.3052 10.5762C54.5464 11.0091 54.667 11.5627 54.667 12.2368V16.3188C54.667 16.6095 54.7412 16.826 54.8896 16.9683C55.0443 17.1043 55.2546 17.2311 55.5205 17.3486L54.3608 19.1855C53.8908 19.1361 53.5135 19.0155 53.229 18.8237C52.9445 18.6258 52.7095 18.3722 52.5239 18.063ZM60.085 16.0405C60.085 16.158 60.1004 16.2694 60.1313 16.3745C60.1623 16.4797 60.2148 16.5724 60.2891 16.6528C60.3695 16.7271 60.4808 16.7858 60.623 16.8291C60.7653 16.8724 60.9478 16.894 61.1704 16.894C61.2632 16.894 61.3683 16.891 61.4858 16.8848C61.6034 16.8724 61.7209 16.86 61.8384 16.8477C61.9559 16.8353 62.0641 16.8198 62.1631 16.8013C62.2682 16.7827 62.3548 16.7673 62.4229 16.7549L62.6548 19.0186C62.4136 19.0495 62.1631 19.0773 61.9033 19.1021C61.6807 19.1268 61.4333 19.1453 61.1611 19.1577C60.889 19.1763 60.6138 19.1855 60.3354 19.1855C59.451 19.1855 58.7614 18.9845 58.2666 18.5825C57.7718 18.1805 57.5244 17.5404 57.5244 16.6621V11.2905H55.7339V9.06396H57.5244V6.25293L60.085 5.56641V9.06396H62.6919V11.2905H60.085V16.0405ZM66.4492 14.918C66.4925 15.2148 66.5853 15.487 66.7275 15.7344C66.876 15.9818 67.0615 16.1951 67.2842 16.3745C67.5068 16.5477 67.7635 16.6838 68.0542 16.7827C68.3449 16.8817 68.6541 16.9312 68.9819 16.9312C69.3592 16.9312 69.7674 16.86 70.2065 16.7178C70.6457 16.5693 71.0477 16.356 71.4126 16.0776L72.6465 17.8774C72.1826 18.2671 71.6136 18.5825 70.9395 18.8237C70.2653 19.0649 69.5479 19.1855 68.7871 19.1855C68.1006 19.1855 67.4543 19.068 66.8481 18.833C66.242 18.598 65.7101 18.2578 65.2524 17.8125C64.8009 17.3672 64.4422 16.826 64.1763 16.189C63.9165 15.5519 63.7866 14.8345 63.7866 14.0366C63.7866 13.3068 63.901 12.6265 64.1299 11.9956C64.3649 11.3647 64.6896 10.8174 65.104 10.3535C65.5246 9.88965 66.0256 9.52783 66.6069 9.26807C67.1883 9.00212 67.8315 8.86914 68.5366 8.86914C69.1922 8.86914 69.8014 8.98975 70.3643 9.23096C70.9271 9.46598 71.4157 9.79997 71.8301 10.2329C72.2445 10.6597 72.5692 11.173 72.8042 11.7729C73.0392 12.3729 73.1567 13.0347 73.1567 13.7583V14.918H66.4492ZM68.5273 11.0957C67.9769 11.0957 67.5099 11.2812 67.1265 11.6523C66.7492 12.0173 66.5296 12.4595 66.4678 12.979H70.4756C70.4632 12.4533 70.2715 12.008 69.9004 11.6431C69.5293 11.2782 69.0716 11.0957 68.5273 11.0957ZM81.1724 19V18.1465C81.0363 18.2949 80.8848 18.4341 80.7178 18.564C80.557 18.6877 80.3745 18.7959 80.1704 18.8887C79.9725 18.9814 79.7529 19.0526 79.5117 19.1021C79.2767 19.1577 79.0138 19.1855 78.7231 19.1855C78.0675 19.1855 77.4676 19.0557 76.9233 18.7959C76.3791 18.5361 75.9121 18.1774 75.5225 17.7197C75.1328 17.262 74.8298 16.7178 74.6133 16.0869C74.403 15.4561 74.2979 14.7726 74.2979 14.0366C74.2979 13.3006 74.403 12.6172 74.6133 11.9863C74.8236 11.3555 75.1174 10.8112 75.4946 10.3535C75.8781 9.88965 76.3389 9.52783 76.877 9.26807C77.415 9.00212 78.0119 8.86914 78.6675 8.86914C79.2489 8.86914 79.7406 8.97119 80.1426 9.17529C80.5508 9.37321 80.894 9.62061 81.1724 9.91748V5.69629H83.7329V19H81.1724ZM81.2466 13.1089C81.2466 12.8429 81.1971 12.5955 81.0981 12.3667C81.0054 12.1379 80.8693 11.9399 80.6899 11.7729C80.5106 11.606 80.2941 11.4761 80.0405 11.3833C79.7931 11.2905 79.5117 11.2441 79.1963 11.2441C78.8314 11.2441 78.5067 11.3122 78.2222 11.4482C77.9438 11.5843 77.7088 11.776 77.5171 12.0234C77.3254 12.2646 77.18 12.5522 77.0811 12.8862C76.9821 13.2202 76.9326 13.5851 76.9326 13.981V14.1016C76.9326 14.4974 76.9821 14.8623 77.0811 15.1963C77.18 15.5241 77.3254 15.8086 77.5171 16.0498C77.7088 16.291 77.9438 16.4797 78.2222 16.6157C78.5067 16.7456 78.8314 16.8105 79.1963 16.8105C79.5117 16.8105 79.7931 16.7642 80.0405 16.6714C80.2941 16.5786 80.5106 16.4487 80.6899 16.2817C80.8693 16.1147 81.0054 15.9199 81.0981 15.6973C81.1971 15.4684 81.2466 15.221 81.2466 14.9551V13.1089ZM91.498 14.083C91.498 14.4046 91.5413 14.7293 91.6279 15.0571C91.7145 15.3787 91.8475 15.6694 92.0269 15.9292C92.2062 16.189 92.4351 16.4023 92.7134 16.5693C92.9979 16.7301 93.335 16.8105 93.7246 16.8105C93.9782 16.8105 94.207 16.7765 94.4111 16.7085C94.6214 16.6405 94.807 16.5477 94.9678 16.4302C95.1348 16.3065 95.2801 16.1642 95.4038 16.0034C95.5337 15.8364 95.645 15.6571 95.7378 15.4653L97.9829 16.625C97.8221 17.0146 97.5994 17.3672 97.3149 17.6826C97.0366 17.998 96.7119 18.2671 96.3408 18.4897C95.9697 18.7124 95.5584 18.8825 95.1069 19C94.6554 19.1237 94.1761 19.1855 93.6689 19.1855C92.9701 19.1855 92.3268 19.0557 91.7393 18.7959C91.1517 18.5299 90.6445 18.1681 90.2178 17.7104C89.791 17.2528 89.457 16.7116 89.2158 16.0869C88.9746 15.4561 88.854 14.7726 88.854 14.0366C88.854 13.3068 88.9746 12.6265 89.2158 11.9956C89.457 11.3647 89.791 10.8174 90.2178 10.3535C90.6445 9.88965 91.1517 9.52783 91.7393 9.26807C92.3268 9.00212 92.9701 8.86914 93.6689 8.86914C94.1761 8.86914 94.6554 8.93099 95.1069 9.05469C95.5584 9.1722 95.9697 9.34538 96.3408 9.57422C96.7119 9.79688 97.0366 10.0659 97.3149 10.3813C97.5994 10.6968 97.8221 11.0493 97.9829 11.439L95.7378 12.5986C95.645 12.4069 95.5337 12.2306 95.4038 12.0698C95.2801 11.9028 95.1348 11.7606 94.9678 11.6431C94.807 11.5194 94.6214 11.4235 94.4111 11.3555C94.207 11.2812 93.9782 11.2441 93.7246 11.2441C93.335 11.2441 92.9979 11.3276 92.7134 11.4946C92.4351 11.6554 92.2062 11.8688 92.0269 12.1348C91.8475 12.3945 91.7145 12.6883 91.6279 13.0161C91.5413 13.3439 91.498 13.6717 91.498 13.9995V14.083ZM102.77 14.9644C102.455 15.0138 102.201 15.1252 102.009 15.2983C101.818 15.4653 101.722 15.6942 101.722 15.9849C101.722 16.3065 101.839 16.5848 102.074 16.8198C102.309 17.0487 102.656 17.1631 103.113 17.1631C103.596 17.1631 103.976 17.0239 104.254 16.7456C104.533 16.4673 104.672 16.0993 104.672 15.6416V14.6396L102.77 14.9644ZM105.089 18.063C104.984 18.1805 104.854 18.3073 104.7 18.4434C104.551 18.5732 104.372 18.6938 104.162 18.8052C103.958 18.9103 103.716 19 103.438 19.0742C103.16 19.1484 102.847 19.1855 102.501 19.1855C102.006 19.1855 101.549 19.1082 101.128 18.9536C100.714 18.7928 100.349 18.5701 100.033 18.2856C99.7178 18.0011 99.4704 17.6733 99.291 17.3022C99.1117 16.925 99.022 16.5168 99.022 16.0776C99.022 15.2798 99.2694 14.6273 99.7642 14.1201C100.259 13.613 100.942 13.2944 101.814 13.1646L104.672 12.7471V12.5615C104.672 12.1162 104.536 11.7637 104.264 11.5039C103.992 11.2441 103.549 11.1143 102.937 11.1143C102.683 11.1143 102.427 11.1452 102.167 11.207C101.907 11.2627 101.657 11.3276 101.416 11.4019C101.181 11.4761 100.961 11.5627 100.757 11.6616C100.553 11.7544 100.373 11.8379 100.219 11.9121L99.2168 9.95459C99.7858 9.63916 100.417 9.37939 101.109 9.17529C101.808 8.97119 102.532 8.86914 103.28 8.86914C103.738 8.86914 104.199 8.91862 104.663 9.01758C105.133 9.11035 105.556 9.28353 105.934 9.53711C106.317 9.79069 106.629 10.137 106.871 10.5762C107.112 11.0091 107.232 11.5627 107.232 12.2368V16.3188C107.232 16.6095 107.307 16.826 107.455 16.9683C107.61 17.1043 107.82 17.2311 108.086 17.3486L106.926 19.1855C106.456 19.1361 106.079 19.0155 105.794 18.8237C105.51 18.6258 105.275 18.3722 105.089 18.063ZM110.081 15.8271C110.445 16.1549 110.882 16.4364 111.389 16.6714C111.896 16.9064 112.409 17.0239 112.929 17.0239C113.306 17.0239 113.603 16.9528 113.819 16.8105C114.036 16.6621 114.144 16.4735 114.144 16.2446C114.144 15.855 113.727 15.5519 112.892 15.3354L112.168 15.1406C111.809 15.054 111.447 14.9365 111.083 14.7881C110.718 14.6335 110.381 14.4325 110.071 14.1851C109.768 13.9377 109.521 13.6377 109.329 13.2852C109.144 12.9264 109.051 12.4873 109.051 11.9678C109.051 11.5534 109.14 11.1606 109.32 10.7896C109.505 10.4123 109.765 10.0814 110.099 9.79688C110.439 9.51237 110.851 9.28662 111.333 9.11963C111.815 8.95264 112.354 8.86914 112.947 8.86914C113.795 8.86914 114.549 9.00212 115.211 9.26807C115.879 9.53402 116.405 9.83398 116.788 10.168L115.452 11.875C115.137 11.6462 114.763 11.4513 114.33 11.2905C113.903 11.1235 113.473 11.04 113.04 11.04C112.638 11.04 112.326 11.1143 112.103 11.2627C111.88 11.4049 111.769 11.5781 111.769 11.7822C111.769 11.9987 111.865 12.175 112.057 12.311C112.255 12.4409 112.539 12.5553 112.91 12.6543L113.986 12.9604C115.013 13.2511 115.749 13.6439 116.194 14.1387C116.64 14.6335 116.862 15.2581 116.862 16.0127C116.862 16.4333 116.776 16.8353 116.603 17.2188C116.429 17.596 116.176 17.9331 115.842 18.23C115.508 18.5269 115.093 18.7619 114.599 18.9351C114.104 19.1021 113.541 19.1855 112.91 19.1855C112.428 19.1855 111.973 19.1423 111.546 19.0557C111.126 18.9691 110.733 18.8516 110.368 18.7031C110.009 18.5485 109.685 18.3753 109.394 18.1836C109.103 17.9919 108.856 17.8001 108.652 17.6084L110.081 15.8271ZM120.666 14.918C120.709 15.2148 120.802 15.487 120.944 15.7344C121.093 15.9818 121.278 16.1951 121.501 16.3745C121.724 16.5477 121.98 16.6838 122.271 16.7827C122.562 16.8817 122.871 16.9312 123.199 16.9312C123.576 16.9312 123.984 16.86 124.423 16.7178C124.862 16.5693 125.264 16.356 125.629 16.0776L126.863 17.8774C126.399 18.2671 125.83 18.5825 125.156 18.8237C124.482 19.0649 123.765 19.1855 123.004 19.1855C122.317 19.1855 121.671 19.068 121.065 18.833C120.459 18.598 119.927 18.2578 119.469 17.8125C119.018 17.3672 118.659 16.826 118.393 16.189C118.133 15.5519 118.003 14.8345 118.003 14.0366C118.003 13.3068 118.118 12.6265 118.347 11.9956C118.582 11.3647 118.906 10.8174 119.321 10.3535C119.741 9.88965 120.242 9.52783 120.824 9.26807C121.405 9.00212 122.048 8.86914 122.753 8.86914C123.409 8.86914 124.018 8.98975 124.581 9.23096C125.144 9.46598 125.632 9.79997 126.047 10.2329C126.461 10.6597 126.786 11.173 127.021 11.7729C127.256 12.3729 127.374 13.0347 127.374 13.7583V14.918H120.666ZM122.744 11.0957C122.194 11.0957 121.727 11.2812 121.343 11.6523C120.966 12.0173 120.746 12.4595 120.685 12.979H124.692C124.68 12.4533 124.488 12.008 124.117 11.6431C123.746 11.2782 123.288 11.0957 122.744 11.0957Z" fill="white"/>
<rect width="259" height="27" transform="translate(145)" fill="#0B0C0C"/>
<path d="M153.392 5.69629H156.082V16.5137H161.352V19H153.392V5.69629ZM164.877 14.918C164.92 15.2148 165.013 15.487 165.155 15.7344C165.304 15.9818 165.489 16.1951 165.712 16.3745C165.935 16.5477 166.191 16.6838 166.482 16.7827C166.773 16.8817 167.082 16.9312 167.41 16.9312C167.787 16.9312 168.195 16.86 168.634 16.7178C169.073 16.5693 169.475 16.356 169.84 16.0776L171.074 17.8774C170.61 18.2671 170.041 18.5825 169.367 18.8237C168.693 19.0649 167.976 19.1855 167.215 19.1855C166.528 19.1855 165.882 19.068 165.276 18.833C164.67 18.598 164.138 18.2578 163.68 17.8125C163.229 17.3672 162.87 16.826 162.604 16.189C162.344 15.5519 162.214 14.8345 162.214 14.0366C162.214 13.3068 162.329 12.6265 162.558 11.9956C162.793 11.3647 163.117 10.8174 163.532 10.3535C163.952 9.88965 164.453 9.52783 165.035 9.26807C165.616 9.00212 166.259 8.86914 166.964 8.86914C167.62 8.86914 168.229 8.98975 168.792 9.23096C169.355 9.46598 169.843 9.79997 170.258 10.2329C170.672 10.6597 170.997 11.173 171.232 11.7729C171.467 12.3729 171.584 13.0347 171.584 13.7583V14.918H164.877ZM166.955 11.0957C166.405 11.0957 165.938 11.2812 165.554 11.6523C165.177 12.0173 164.957 12.4595 164.896 12.979H168.903C168.891 12.4533 168.699 12.008 168.328 11.6431C167.957 11.2782 167.499 11.0957 166.955 11.0957ZM179.257 17.2373C179.028 17.5156 178.706 17.7383 178.292 17.9053C177.884 18.0661 177.438 18.1465 176.956 18.1465C176.288 18.1465 175.694 18.029 175.175 17.7939C174.655 17.5589 174.216 17.2373 173.857 16.8291C173.505 16.4147 173.233 15.9261 173.041 15.3633C172.855 14.8005 172.763 14.182 172.763 13.5078C172.763 12.8522 172.855 12.2399 173.041 11.6709C173.233 11.0957 173.505 10.604 173.857 10.1958C174.216 9.78141 174.655 9.45671 175.175 9.22168C175.694 8.98665 176.288 8.86914 176.956 8.86914C177.438 8.86914 177.884 8.95264 178.292 9.11963C178.706 9.28662 179.028 9.50928 179.257 9.7876V9.06396H181.827V18.9072C181.827 19.5133 181.712 20.0329 181.483 20.4658C181.255 20.9049 180.939 21.2637 180.537 21.542C180.141 21.8203 179.681 22.0213 179.155 22.145C178.629 22.2749 178.069 22.3398 177.476 22.3398C176.752 22.3398 175.997 22.2533 175.212 22.0801C174.426 21.9131 173.749 21.7028 173.18 21.4492L173.904 19.3804C174.077 19.4546 174.29 19.535 174.544 19.6216C174.798 19.7144 175.07 19.7948 175.36 19.8628C175.651 19.9308 175.954 19.9865 176.27 20.0298C176.591 20.0793 176.903 20.104 177.207 20.104C177.472 20.104 177.729 20.0762 177.977 20.0205C178.224 19.971 178.44 19.8844 178.626 19.7607C178.818 19.6432 178.969 19.4855 179.081 19.2876C179.198 19.0959 179.257 18.8485 179.257 18.5454V17.2373ZM175.397 13.5449C175.397 13.8727 175.431 14.182 175.5 14.4727C175.574 14.7572 175.688 15.0015 175.843 15.2056C176.004 15.4035 176.208 15.5612 176.455 15.6787C176.702 15.79 177.002 15.8457 177.355 15.8457C178.054 15.8457 178.552 15.6261 178.849 15.187C179.146 14.7417 179.294 14.1943 179.294 13.5449V13.4707C179.294 13.1429 179.26 12.8368 179.192 12.5522C179.124 12.2677 179.013 12.0234 178.858 11.8193C178.703 11.6152 178.502 11.4575 178.255 11.3462C178.014 11.2287 177.714 11.1699 177.355 11.1699C176.662 11.1699 176.161 11.3895 175.852 11.8286C175.549 12.2677 175.397 12.8151 175.397 13.4707V13.5449ZM187.245 14.9644C186.929 15.0138 186.676 15.1252 186.484 15.2983C186.292 15.4653 186.196 15.6942 186.196 15.9849C186.196 16.3065 186.314 16.5848 186.549 16.8198C186.784 17.0487 187.13 17.1631 187.588 17.1631C188.07 17.1631 188.451 17.0239 188.729 16.7456C189.007 16.4673 189.146 16.0993 189.146 15.6416V14.6396L187.245 14.9644ZM189.564 18.063C189.459 18.1805 189.329 18.3073 189.174 18.4434C189.026 18.5732 188.847 18.6938 188.636 18.8052C188.432 18.9103 188.191 19 187.913 19.0742C187.634 19.1484 187.322 19.1855 186.976 19.1855C186.481 19.1855 186.023 19.1082 185.603 18.9536C185.188 18.7928 184.823 18.5701 184.508 18.2856C184.192 18.0011 183.945 17.6733 183.766 17.3022C183.586 16.925 183.497 16.5168 183.497 16.0776C183.497 15.2798 183.744 14.6273 184.239 14.1201C184.734 13.613 185.417 13.2944 186.289 13.1646L189.146 12.7471V12.5615C189.146 12.1162 189.01 11.7637 188.738 11.5039C188.466 11.2441 188.024 11.1143 187.412 11.1143C187.158 11.1143 186.901 11.1452 186.642 11.207C186.382 11.2627 186.131 11.3276 185.89 11.4019C185.655 11.4761 185.436 11.5627 185.231 11.6616C185.027 11.7544 184.848 11.8379 184.693 11.9121L183.691 9.95459C184.26 9.63916 184.891 9.37939 185.584 9.17529C186.283 8.97119 187.007 8.86914 187.755 8.86914C188.213 8.86914 188.673 8.91862 189.137 9.01758C189.607 9.11035 190.031 9.28353 190.408 9.53711C190.792 9.79069 191.104 10.137 191.345 10.5762C191.586 11.0091 191.707 11.5627 191.707 12.2368V16.3188C191.707 16.6095 191.781 16.826 191.93 16.9683C192.084 17.1043 192.295 17.2311 192.561 17.3486L191.401 19.1855C190.931 19.1361 190.554 19.0155 190.269 18.8237C189.985 18.6258 189.75 18.3722 189.564 18.063ZM193.813 5.69629H196.374V16.3003C196.374 16.5106 196.432 16.6714 196.55 16.7827C196.674 16.894 196.868 16.9497 197.134 16.9497C197.258 16.9497 197.363 16.9435 197.45 16.9312C197.542 16.9126 197.66 16.8879 197.802 16.8569L198.006 19.0371C197.833 19.0618 197.648 19.0866 197.45 19.1113C197.283 19.1299 197.088 19.1453 196.865 19.1577C196.649 19.1763 196.423 19.1855 196.188 19.1855C195.823 19.1855 195.495 19.1392 195.205 19.0464C194.914 18.9536 194.663 18.8175 194.453 18.6382C194.249 18.4526 194.091 18.2238 193.98 17.9517C193.869 17.6795 193.813 17.3641 193.813 17.0054V5.69629ZM199.379 5.69629H201.94V16.3003C201.94 16.5106 201.999 16.6714 202.116 16.7827C202.24 16.894 202.435 16.9497 202.701 16.9497C202.824 16.9497 202.93 16.9435 203.016 16.9312C203.109 16.9126 203.226 16.8879 203.369 16.8569L203.573 19.0371C203.4 19.0618 203.214 19.0866 203.016 19.1113C202.849 19.1299 202.654 19.1453 202.432 19.1577C202.215 19.1763 201.989 19.1855 201.754 19.1855C201.389 19.1855 201.062 19.1392 200.771 19.0464C200.48 18.9536 200.23 18.8175 200.02 18.6382C199.815 18.4526 199.658 18.2238 199.546 17.9517C199.435 17.6795 199.379 17.3641 199.379 17.0054V5.69629ZM206.013 20.1597C206.303 20.1597 206.517 20.1071 206.653 20.002C206.795 19.8968 206.906 19.7267 206.987 19.4917L207.08 19.1855L203.638 9.06396H206.486L208.462 15.9199L210.104 9.06396H212.915L209.566 20.2339C209.455 20.605 209.3 20.9235 209.102 21.1895C208.904 21.4554 208.669 21.6719 208.397 21.8389C208.125 22.012 207.822 22.1388 207.488 22.2192C207.16 22.2996 206.807 22.3398 206.43 22.3398C206.276 22.3398 206.096 22.3337 205.892 22.3213C205.694 22.3089 205.487 22.2904 205.271 22.2656C205.06 22.2471 204.85 22.2223 204.64 22.1914C204.436 22.1605 204.247 22.1234 204.074 22.0801L204.556 19.9834C204.705 20.0205 204.859 20.0514 205.02 20.0762C205.162 20.1009 205.317 20.1195 205.484 20.1318C205.657 20.1504 205.833 20.1597 206.013 20.1597ZM222.721 11.5503H222.452C222.087 11.5503 221.738 11.5874 221.404 11.6616C221.076 11.7358 220.785 11.8719 220.532 12.0698C220.278 12.2616 220.074 12.5275 219.919 12.8677C219.771 13.2078 219.697 13.6439 219.697 14.1758V19H217.136V9.06396H219.697V10.1865C219.802 10.0195 219.938 9.85872 220.105 9.7041C220.272 9.54948 220.467 9.41341 220.689 9.2959C220.912 9.1722 221.163 9.07324 221.441 8.99902C221.719 8.9248 222.019 8.8877 222.341 8.8877H222.721V11.5503ZM226.46 14.918C226.503 15.2148 226.596 15.487 226.738 15.7344C226.887 15.9818 227.072 16.1951 227.295 16.3745C227.518 16.5477 227.774 16.6838 228.065 16.7827C228.356 16.8817 228.665 16.9312 228.993 16.9312C229.37 16.9312 229.778 16.86 230.217 16.7178C230.656 16.5693 231.058 16.356 231.423 16.0776L232.657 17.8774C232.193 18.2671 231.624 18.5825 230.95 18.8237C230.276 19.0649 229.559 19.1855 228.798 19.1855C228.111 19.1855 227.465 19.068 226.859 18.833C226.253 18.598 225.721 18.2578 225.263 17.8125C224.812 17.3672 224.453 16.826 224.187 16.189C223.927 15.5519 223.797 14.8345 223.797 14.0366C223.797 13.3068 223.912 12.6265 224.141 11.9956C224.376 11.3647 224.7 10.8174 225.115 10.3535C225.535 9.88965 226.036 9.52783 226.618 9.26807C227.199 9.00212 227.842 8.86914 228.547 8.86914C229.203 8.86914 229.812 8.98975 230.375 9.23096C230.938 9.46598 231.426 9.79997 231.841 10.2329C232.255 10.6597 232.58 11.173 232.815 11.7729C233.05 12.3729 233.167 13.0347 233.167 13.7583V14.918H226.46ZM228.538 11.0957C227.988 11.0957 227.521 11.2812 227.137 11.6523C226.76 12.0173 226.54 12.4595 226.479 12.979H230.486C230.474 12.4533 230.282 12.008 229.911 11.6431C229.54 11.2782 229.082 11.0957 228.538 11.0957ZM237.361 22.1357H234.8V9.06396H237.361V9.91748C237.639 9.62679 237.982 9.37939 238.391 9.17529C238.799 8.97119 239.294 8.86914 239.875 8.86914C240.531 8.86914 241.124 9.00212 241.656 9.26807C242.194 9.52783 242.655 9.88965 243.039 10.3535C243.422 10.8112 243.719 11.3555 243.929 11.9863C244.139 12.6172 244.245 13.3006 244.245 14.0366C244.245 14.7726 244.136 15.4561 243.92 16.0869C243.703 16.7178 243.4 17.262 243.011 17.7197C242.621 18.1774 242.154 18.5361 241.61 18.7959C241.066 19.0557 240.466 19.1855 239.81 19.1855C239.519 19.1855 239.253 19.1577 239.012 19.1021C238.777 19.0526 238.561 18.9814 238.363 18.8887C238.165 18.7959 237.982 18.6877 237.815 18.564C237.648 18.4341 237.497 18.2949 237.361 18.1465V22.1357ZM237.287 14.9551C237.287 15.221 237.333 15.4684 237.426 15.6973C237.525 15.9199 237.664 16.1147 237.843 16.2817C238.023 16.4487 238.236 16.5786 238.483 16.6714C238.737 16.7642 239.021 16.8105 239.337 16.8105C239.702 16.8105 240.023 16.7456 240.302 16.6157C240.586 16.4797 240.824 16.291 241.016 16.0498C241.208 15.8086 241.353 15.5241 241.452 15.1963C241.551 14.8623 241.601 14.4974 241.601 14.1016V13.981C241.601 13.5851 241.551 13.2202 241.452 12.8862C241.353 12.5522 241.208 12.2646 241.016 12.0234C240.824 11.776 240.586 11.5843 240.302 11.4482C240.023 11.3122 239.702 11.2441 239.337 11.2441C239.021 11.2441 238.737 11.2905 238.483 11.3833C238.236 11.4761 238.023 11.606 237.843 11.7729C237.664 11.9399 237.525 12.1379 237.426 12.3667C237.333 12.5955 237.287 12.8429 237.287 13.1089V14.9551ZM251.537 11.5503H251.268C250.903 11.5503 250.553 11.5874 250.219 11.6616C249.891 11.7358 249.601 11.8719 249.347 12.0698C249.094 12.2616 248.889 12.5275 248.735 12.8677C248.586 13.2078 248.512 13.6439 248.512 14.1758V19H245.952V9.06396H248.512V10.1865C248.617 10.0195 248.753 9.85872 248.92 9.7041C249.087 9.54948 249.282 9.41341 249.505 9.2959C249.728 9.1722 249.978 9.07324 250.256 8.99902C250.535 8.9248 250.835 8.8877 251.156 8.8877H251.537V11.5503ZM255.275 14.918C255.319 15.2148 255.411 15.487 255.554 15.7344C255.702 15.9818 255.888 16.1951 256.11 16.3745C256.333 16.5477 256.59 16.6838 256.88 16.7827C257.171 16.8817 257.48 16.9312 257.808 16.9312C258.185 16.9312 258.594 16.86 259.033 16.7178C259.472 16.5693 259.874 16.356 260.239 16.0776L261.473 17.8774C261.009 18.2671 260.44 18.5825 259.766 18.8237C259.091 19.0649 258.374 19.1855 257.613 19.1855C256.927 19.1855 256.28 19.068 255.674 18.833C255.068 18.598 254.536 18.2578 254.079 17.8125C253.627 17.3672 253.268 16.826 253.002 16.189C252.743 15.5519 252.613 14.8345 252.613 14.0366C252.613 13.3068 252.727 12.6265 252.956 11.9956C253.191 11.3647 253.516 10.8174 253.93 10.3535C254.351 9.88965 254.852 9.52783 255.433 9.26807C256.014 9.00212 256.658 8.86914 257.363 8.86914C258.018 8.86914 258.628 8.98975 259.19 9.23096C259.753 9.46598 260.242 9.79997 260.656 10.2329C261.071 10.6597 261.395 11.173 261.63 11.7729C261.865 12.3729 261.983 13.0347 261.983 13.7583V14.918H255.275ZM257.354 11.0957C256.803 11.0957 256.336 11.2812 255.953 11.6523C255.575 12.0173 255.356 12.4595 255.294 12.979H259.302C259.289 12.4533 259.098 12.008 258.727 11.6431C258.355 11.2782 257.898 11.0957 257.354 11.0957ZM264.321 15.8271C264.686 16.1549 265.122 16.4364 265.629 16.6714C266.136 16.9064 266.649 17.0239 267.169 17.0239C267.546 17.0239 267.843 16.9528 268.06 16.8105C268.276 16.6621 268.384 16.4735 268.384 16.2446C268.384 15.855 267.967 15.5519 267.132 15.3354L266.408 15.1406C266.049 15.054 265.688 14.9365 265.323 14.7881C264.958 14.6335 264.621 14.4325 264.312 14.1851C264.008 13.9377 263.761 13.6377 263.569 13.2852C263.384 12.9264 263.291 12.4873 263.291 11.9678C263.291 11.5534 263.381 11.1606 263.56 10.7896C263.746 10.4123 264.005 10.0814 264.339 9.79688C264.68 9.51237 265.091 9.28662 265.573 9.11963C266.056 8.95264 266.594 8.86914 267.188 8.86914C268.035 8.86914 268.789 9.00212 269.451 9.26807C270.119 9.53402 270.645 9.83398 271.028 10.168L269.692 11.875C269.377 11.6462 269.003 11.4513 268.57 11.2905C268.143 11.1235 267.713 11.04 267.28 11.04C266.878 11.04 266.566 11.1143 266.343 11.2627C266.121 11.4049 266.009 11.5781 266.009 11.7822C266.009 11.9987 266.105 12.175 266.297 12.311C266.495 12.4409 266.779 12.5553 267.15 12.6543L268.227 12.9604C269.253 13.2511 269.989 13.6439 270.435 14.1387C270.88 14.6335 271.103 15.2581 271.103 16.0127C271.103 16.4333 271.016 16.8353 270.843 17.2188C270.67 17.596 270.416 17.9331 270.082 18.23C269.748 18.5269 269.334 18.7619 268.839 18.9351C268.344 19.1021 267.781 19.1855 267.15 19.1855C266.668 19.1855 266.213 19.1423 265.787 19.0557C265.366 18.9691 264.973 18.8516 264.608 18.7031C264.25 18.5485 263.925 18.3753 263.634 18.1836C263.344 17.9919 263.096 17.8001 262.892 17.6084L264.321 15.8271ZM274.906 14.918C274.95 15.2148 275.042 15.487 275.185 15.7344C275.333 15.9818 275.519 16.1951 275.741 16.3745C275.964 16.5477 276.221 16.6838 276.511 16.7827C276.802 16.8817 277.111 16.9312 277.439 16.9312C277.816 16.9312 278.224 16.86 278.664 16.7178C279.103 16.5693 279.505 16.356 279.87 16.0776L281.104 17.8774C280.64 18.2671 280.071 18.5825 279.396 18.8237C278.722 19.0649 278.005 19.1855 277.244 19.1855C276.558 19.1855 275.911 19.068 275.305 18.833C274.699 18.598 274.167 18.2578 273.709 17.8125C273.258 17.3672 272.899 16.826 272.633 16.189C272.374 15.5519 272.244 14.8345 272.244 14.0366C272.244 13.3068 272.358 12.6265 272.587 11.9956C272.822 11.3647 273.147 10.8174 273.561 10.3535C273.982 9.88965 274.483 9.52783 275.064 9.26807C275.645 9.00212 276.289 8.86914 276.994 8.86914C277.649 8.86914 278.258 8.98975 278.821 9.23096C279.384 9.46598 279.873 9.79997 280.287 10.2329C280.701 10.6597 281.026 11.173 281.261 11.7729C281.496 12.3729 281.614 13.0347 281.614 13.7583V14.918H274.906ZM276.984 11.0957C276.434 11.0957 275.967 11.2812 275.583 11.6523C275.206 12.0173 274.987 12.4595 274.925 12.979H278.933C278.92 12.4533 278.729 12.008 278.357 11.6431C277.986 11.2782 277.529 11.0957 276.984 11.0957ZM283.247 9.06396H285.807V9.91748C285.943 9.78141 286.095 9.65153 286.262 9.52783C286.435 9.39795 286.624 9.28662 286.828 9.19385C287.032 9.09489 287.257 9.01758 287.505 8.96191C287.758 8.90007 288.037 8.86914 288.34 8.86914C288.878 8.86914 289.36 8.95882 289.787 9.13818C290.214 9.31136 290.573 9.55257 290.863 9.86182C291.16 10.1711 291.386 10.5329 291.541 10.9473C291.695 11.3617 291.772 11.8101 291.772 12.2925V19H289.212V13.2202C289.212 12.8677 289.172 12.5708 289.091 12.3296C289.011 12.0822 288.9 11.8843 288.757 11.7358C288.621 11.5812 288.457 11.4699 288.266 11.4019C288.08 11.3276 287.876 11.2905 287.653 11.2905C287.394 11.2905 287.149 11.3369 286.92 11.4297C286.698 11.5225 286.503 11.6647 286.336 11.8564C286.169 12.042 286.039 12.277 285.946 12.5615C285.854 12.846 285.807 13.18 285.807 13.5635V19H283.247V9.06396ZM297.58 16.0405C297.58 16.158 297.596 16.2694 297.626 16.3745C297.657 16.4797 297.71 16.5724 297.784 16.6528C297.865 16.7271 297.976 16.7858 298.118 16.8291C298.26 16.8724 298.443 16.894 298.666 16.894C298.758 16.894 298.863 16.891 298.981 16.8848C299.098 16.8724 299.216 16.86 299.333 16.8477C299.451 16.8353 299.559 16.8198 299.658 16.8013C299.763 16.7827 299.85 16.7673 299.918 16.7549L300.15 19.0186C299.909 19.0495 299.658 19.0773 299.398 19.1021C299.176 19.1268 298.928 19.1453 298.656 19.1577C298.384 19.1763 298.109 19.1855 297.831 19.1855C296.946 19.1855 296.257 18.9845 295.762 18.5825C295.267 18.1805 295.02 17.5404 295.02 16.6621V11.2905H293.229V9.06396H295.02V6.25293L297.58 5.56641V9.06396H300.187V11.2905H297.58V16.0405ZM303.944 14.918C303.988 15.2148 304.08 15.487 304.223 15.7344C304.371 15.9818 304.557 16.1951 304.779 16.3745C305.002 16.5477 305.259 16.6838 305.549 16.7827C305.84 16.8817 306.149 16.9312 306.477 16.9312C306.854 16.9312 307.263 16.86 307.702 16.7178C308.141 16.5693 308.543 16.356 308.908 16.0776L310.142 17.8774C309.678 18.2671 309.109 18.5825 308.435 18.8237C307.76 19.0649 307.043 19.1855 306.282 19.1855C305.596 19.1855 304.949 19.068 304.343 18.833C303.737 18.598 303.205 18.2578 302.748 17.8125C302.296 17.3672 301.937 16.826 301.671 16.189C301.412 15.5519 301.282 14.8345 301.282 14.0366C301.282 13.3068 301.396 12.6265 301.625 11.9956C301.86 11.3647 302.185 10.8174 302.599 10.3535C303.02 9.88965 303.521 9.52783 304.102 9.26807C304.683 9.00212 305.327 8.86914 306.032 8.86914C306.687 8.86914 307.297 8.98975 307.859 9.23096C308.422 9.46598 308.911 9.79997 309.325 10.2329C309.74 10.6597 310.064 11.173 310.299 11.7729C310.534 12.3729 310.652 13.0347 310.652 13.7583V14.918H303.944ZM306.022 11.0957C305.472 11.0957 305.005 11.2812 304.622 11.6523C304.244 12.0173 304.025 12.4595 303.963 12.979H307.971C307.958 12.4533 307.767 12.008 307.396 11.6431C307.024 11.2782 306.567 11.0957 306.022 11.0957ZM318.667 19V18.1465C318.531 18.2949 318.38 18.4341 318.213 18.564C318.052 18.6877 317.87 18.7959 317.666 18.8887C317.468 18.9814 317.248 19.0526 317.007 19.1021C316.772 19.1577 316.509 19.1855 316.218 19.1855C315.563 19.1855 314.963 19.0557 314.418 18.7959C313.874 18.5361 313.407 18.1774 313.018 17.7197C312.628 17.262 312.325 16.7178 312.108 16.0869C311.898 15.4561 311.793 14.7726 311.793 14.0366C311.793 13.3006 311.898 12.6172 312.108 11.9863C312.319 11.3555 312.612 10.8112 312.99 10.3535C313.373 9.88965 313.834 9.52783 314.372 9.26807C314.91 9.00212 315.507 8.86914 316.163 8.86914C316.744 8.86914 317.236 8.97119 317.638 9.17529C318.046 9.37321 318.389 9.62061 318.667 9.91748V5.69629H321.228V19H318.667ZM318.742 13.1089C318.742 12.8429 318.692 12.5955 318.593 12.3667C318.5 12.1379 318.364 11.9399 318.185 11.7729C318.006 11.606 317.789 11.4761 317.536 11.3833C317.288 11.2905 317.007 11.2441 316.691 11.2441C316.326 11.2441 316.002 11.3122 315.717 11.4482C315.439 11.5843 315.204 11.776 315.012 12.0234C314.82 12.2646 314.675 12.5522 314.576 12.8862C314.477 13.2202 314.428 13.5851 314.428 13.981V14.1016C314.428 14.4974 314.477 14.8623 314.576 15.1963C314.675 15.5241 314.82 15.8086 315.012 16.0498C315.204 16.291 315.439 16.4797 315.717 16.6157C316.002 16.7456 316.326 16.8105 316.691 16.8105C317.007 16.8105 317.288 16.7642 317.536 16.6714C317.789 16.5786 318.006 16.4487 318.185 16.2817C318.364 16.1147 318.5 15.9199 318.593 15.6973C318.692 15.4684 318.742 15.221 318.742 14.9551V13.1089ZM326.145 11.9121H330.134V14.2129H326.145V11.9121ZM343.429 19H340.859V13.2202C340.859 12.8677 340.819 12.5708 340.738 12.3296C340.664 12.0822 340.559 11.8843 340.423 11.7358C340.287 11.5812 340.129 11.473 339.95 11.4111C339.77 11.3431 339.576 11.3091 339.365 11.3091C339.118 11.3091 338.886 11.3524 338.669 11.439C338.459 11.5256 338.274 11.6616 338.113 11.8472C337.958 12.0327 337.834 12.2708 337.742 12.5615C337.655 12.846 337.612 13.1862 337.612 13.582V19H335.051V9.06396H337.612V9.93604C337.94 9.57113 338.32 9.30208 338.753 9.12891C339.192 8.95573 339.662 8.86914 340.163 8.86914C340.676 8.86914 341.156 8.97428 341.601 9.18457C342.053 9.39486 342.427 9.74121 342.724 10.2236C342.897 9.97624 343.095 9.76595 343.317 9.59277C343.546 9.4196 343.791 9.28044 344.05 9.17529C344.31 9.07015 344.579 8.99284 344.857 8.94336C345.142 8.89388 345.433 8.86914 345.729 8.86914C346.286 8.86914 346.781 8.96191 347.214 9.14746C347.653 9.32682 348.024 9.57113 348.327 9.88037C348.63 10.1896 348.862 10.5452 349.023 10.9473C349.184 11.3493 349.264 11.7729 349.264 12.2183V19H346.676V13.2202C346.676 12.8677 346.636 12.5708 346.555 12.3296C346.481 12.0822 346.376 11.8843 346.24 11.7358C346.104 11.5812 345.943 11.473 345.757 11.4111C345.578 11.3431 345.383 11.3091 345.173 11.3091C344.925 11.3091 344.697 11.3524 344.486 11.439C344.276 11.5256 344.09 11.6616 343.93 11.8472C343.775 12.0327 343.651 12.2708 343.559 12.5615C343.472 12.846 343.429 13.1862 343.429 13.582V19ZM354.608 14.9644C354.292 15.0138 354.039 15.1252 353.847 15.2983C353.655 15.4653 353.56 15.6942 353.56 15.9849C353.56 16.3065 353.677 16.5848 353.912 16.8198C354.147 17.0487 354.493 17.1631 354.951 17.1631C355.434 17.1631 355.814 17.0239 356.092 16.7456C356.371 16.4673 356.51 16.0993 356.51 15.6416V14.6396L354.608 14.9644ZM356.927 18.063C356.822 18.1805 356.692 18.3073 356.538 18.4434C356.389 18.5732 356.21 18.6938 356 18.8052C355.795 18.9103 355.554 19 355.276 19.0742C354.998 19.1484 354.685 19.1855 354.339 19.1855C353.844 19.1855 353.386 19.1082 352.966 18.9536C352.551 18.7928 352.187 18.5701 351.871 18.2856C351.556 18.0011 351.308 17.6733 351.129 17.3022C350.95 16.925 350.86 16.5168 350.86 16.0776C350.86 15.2798 351.107 14.6273 351.602 14.1201C352.097 13.613 352.78 13.2944 353.652 13.1646L356.51 12.7471V12.5615C356.51 12.1162 356.374 11.7637 356.102 11.5039C355.829 11.2441 355.387 11.1143 354.775 11.1143C354.521 11.1143 354.265 11.1452 354.005 11.207C353.745 11.2627 353.495 11.3276 353.253 11.4019C353.018 11.4761 352.799 11.5627 352.595 11.6616C352.391 11.7544 352.211 11.8379 352.057 11.9121L351.055 9.95459C351.624 9.63916 352.255 9.37939 352.947 9.17529C353.646 8.97119 354.37 8.86914 355.118 8.86914C355.576 8.86914 356.037 8.91862 356.5 9.01758C356.971 9.11035 357.394 9.28353 357.771 9.53711C358.155 9.79069 358.467 10.137 358.708 10.5762C358.95 11.0091 359.07 11.5627 359.07 12.2368V16.3188C359.07 16.6095 359.145 16.826 359.293 16.9683C359.448 17.1043 359.658 17.2311 359.924 17.3486L358.764 19.1855C358.294 19.1361 357.917 19.0155 357.632 18.8237C357.348 18.6258 357.113 18.3722 356.927 18.063ZM361.213 9.06396H363.774V9.91748C363.91 9.78141 364.062 9.65153 364.229 9.52783C364.402 9.39795 364.59 9.28662 364.794 9.19385C364.999 9.09489 365.224 9.01758 365.472 8.96191C365.725 8.90007 366.004 8.86914 366.307 8.86914C366.845 8.86914 367.327 8.95882 367.754 9.13818C368.181 9.31136 368.539 9.55257 368.83 9.86182C369.127 10.1711 369.353 10.5329 369.507 10.9473C369.662 11.3617 369.739 11.8101 369.739 12.2925V19H367.179V13.2202C367.179 12.8677 367.139 12.5708 367.058 12.3296C366.978 12.0822 366.866 11.8843 366.724 11.7358C366.588 11.5812 366.424 11.4699 366.232 11.4019C366.047 11.3276 365.843 11.2905 365.62 11.2905C365.36 11.2905 365.116 11.3369 364.887 11.4297C364.665 11.5225 364.47 11.6647 364.303 11.8564C364.136 12.042 364.006 12.277 363.913 12.5615C363.82 12.846 363.774 13.18 363.774 13.5635V19H361.213V9.06396ZM380.334 19H377.773V18.1465C377.631 18.2826 377.477 18.4155 377.31 18.5454C377.143 18.6691 376.957 18.7804 376.753 18.8794C376.549 18.9722 376.32 19.0464 376.066 19.1021C375.819 19.1577 375.544 19.1855 375.241 19.1855C374.703 19.1855 374.22 19.099 373.793 18.9258C373.367 18.7464 373.005 18.5052 372.708 18.2021C372.417 17.8929 372.195 17.5311 372.04 17.1167C371.885 16.7023 371.808 16.2539 371.808 15.7715V9.06396H374.369V14.8345C374.369 15.187 374.406 15.487 374.48 15.7344C374.56 15.9818 374.669 16.1828 374.805 16.3374C374.947 16.4858 375.114 16.5972 375.306 16.6714C375.497 16.7394 375.705 16.7734 375.927 16.7734C376.187 16.7734 376.428 16.7271 376.651 16.6343C376.88 16.5415 377.078 16.4023 377.245 16.2168C377.412 16.0251 377.542 15.7869 377.634 15.5024C377.727 15.2179 377.773 14.884 377.773 14.5005V9.06396H380.334V19ZM385.761 14.9644C385.446 15.0138 385.192 15.1252 385 15.2983C384.809 15.4653 384.713 15.6942 384.713 15.9849C384.713 16.3065 384.83 16.5848 385.065 16.8198C385.3 17.0487 385.647 17.1631 386.104 17.1631C386.587 17.1631 386.967 17.0239 387.246 16.7456C387.524 16.4673 387.663 16.0993 387.663 15.6416V14.6396L385.761 14.9644ZM388.081 18.063C387.975 18.1805 387.846 18.3073 387.691 18.4434C387.542 18.5732 387.363 18.6938 387.153 18.8052C386.949 18.9103 386.708 19 386.429 19.0742C386.151 19.1484 385.839 19.1855 385.492 19.1855C384.997 19.1855 384.54 19.1082 384.119 18.9536C383.705 18.7928 383.34 18.5701 383.024 18.2856C382.709 18.0011 382.462 17.6733 382.282 17.3022C382.103 16.925 382.013 16.5168 382.013 16.0776C382.013 15.2798 382.261 14.6273 382.755 14.1201C383.25 13.613 383.934 13.2944 384.806 13.1646L387.663 12.7471V12.5615C387.663 12.1162 387.527 11.7637 387.255 11.5039C386.983 11.2441 386.541 11.1143 385.928 11.1143C385.675 11.1143 385.418 11.1452 385.158 11.207C384.898 11.2627 384.648 11.3276 384.407 11.4019C384.172 11.4761 383.952 11.5627 383.748 11.6616C383.544 11.7544 383.365 11.8379 383.21 11.9121L382.208 9.95459C382.777 9.63916 383.408 9.37939 384.101 9.17529C384.799 8.97119 385.523 8.86914 386.271 8.86914C386.729 8.86914 387.19 8.91862 387.654 9.01758C388.124 9.11035 388.548 9.28353 388.925 9.53711C389.308 9.79069 389.621 10.137 389.862 10.5762C390.103 11.0091 390.224 11.5627 390.224 12.2368V16.3188C390.224 16.6095 390.298 16.826 390.446 16.9683C390.601 17.1043 390.811 17.2311 391.077 17.3486L389.917 19.1855C389.447 19.1361 389.07 19.0155 388.786 18.8237C388.501 18.6258 388.266 18.3722 388.081 18.063ZM392.33 5.69629H394.89V16.3003C394.89 16.5106 394.949 16.6714 395.066 16.7827C395.19 16.894 395.385 16.9497 395.651 16.9497C395.775 16.9497 395.88 16.9435 395.966 16.9312C396.059 16.9126 396.177 16.8879 396.319 16.8569L396.523 19.0371C396.35 19.0618 396.164 19.0866 395.966 19.1113C395.799 19.1299 395.604 19.1453 395.382 19.1577C395.165 19.1763 394.94 19.1855 394.705 19.1855C394.34 19.1855 394.012 19.1392 393.721 19.0464C393.431 18.9536 393.18 18.8175 392.97 18.6382C392.766 18.4526 392.608 18.2238 392.497 17.9517C392.385 17.6795 392.33 17.3641 392.33 17.0054V5.69629Z" fill="white"/>
<rect width="155" height="27" transform="translate(414)" fill="#4C2C92"/>
<path d="M433.729 12.3481C433.729 13.3439 433.592 14.2531 433.32 15.0757C433.054 15.8921 432.652 16.591 432.114 17.1724C431.582 17.7537 430.914 18.2052 430.11 18.5269C429.306 18.8423 428.366 19 427.29 19H422.392V5.69629H427.29C428.366 5.69629 429.306 5.8571 430.11 6.17871C430.914 6.49414 431.582 6.94255 432.114 7.52393C432.652 8.10531 433.054 8.80729 433.32 9.62988C433.592 10.4463 433.729 11.3524 433.729 12.3481ZM430.936 12.0884C430.936 11.5256 430.865 11.0029 430.723 10.5205C430.587 10.0319 430.364 9.60824 430.055 9.24951C429.752 8.89079 429.356 8.60938 428.867 8.40527C428.379 8.19499 427.788 8.08984 427.095 8.08984H425.082V16.6064H427.095C427.782 16.6064 428.369 16.5044 428.858 16.3003C429.347 16.09 429.742 15.8055 430.045 15.4468C430.355 15.0819 430.58 14.6551 430.723 14.1665C430.865 13.6779 430.936 13.1553 430.936 12.5986V12.0884ZM437.755 14.918C437.798 15.2148 437.891 15.487 438.033 15.7344C438.182 15.9818 438.367 16.1951 438.59 16.3745C438.812 16.5477 439.069 16.6838 439.36 16.7827C439.651 16.8817 439.96 16.9312 440.288 16.9312C440.665 16.9312 441.073 16.86 441.512 16.7178C441.951 16.5693 442.353 16.356 442.718 16.0776L443.952 17.8774C443.488 18.2671 442.919 18.5825 442.245 18.8237C441.571 19.0649 440.854 19.1855 440.093 19.1855C439.406 19.1855 438.76 19.068 438.154 18.833C437.548 18.598 437.016 18.2578 436.558 17.8125C436.107 17.3672 435.748 16.826 435.482 16.189C435.222 15.5519 435.092 14.8345 435.092 14.0366C435.092 13.3068 435.207 12.6265 435.436 11.9956C435.671 11.3647 435.995 10.8174 436.41 10.3535C436.83 9.88965 437.331 9.52783 437.913 9.26807C438.494 9.00212 439.137 8.86914 439.842 8.86914C440.498 8.86914 441.107 8.98975 441.67 9.23096C442.233 9.46598 442.721 9.79997 443.136 10.2329C443.55 10.6597 443.875 11.173 444.11 11.7729C444.345 12.3729 444.462 13.0347 444.462 13.7583V14.918H437.755ZM439.833 11.0957C439.283 11.0957 438.816 11.2812 438.432 11.6523C438.055 12.0173 437.835 12.4595 437.773 12.979H441.781C441.769 12.4533 441.577 12.008 441.206 11.6431C440.835 11.2782 440.377 11.0957 439.833 11.0957ZM449.76 16.0405C449.76 16.158 449.775 16.2694 449.806 16.3745C449.837 16.4797 449.89 16.5724 449.964 16.6528C450.044 16.7271 450.156 16.7858 450.298 16.8291C450.44 16.8724 450.623 16.894 450.845 16.894C450.938 16.894 451.043 16.891 451.161 16.8848C451.278 16.8724 451.396 16.86 451.513 16.8477C451.631 16.8353 451.739 16.8198 451.838 16.8013C451.943 16.7827 452.03 16.7673 452.098 16.7549L452.33 19.0186C452.088 19.0495 451.838 19.0773 451.578 19.1021C451.355 19.1268 451.108 19.1453 450.836 19.1577C450.564 19.1763 450.289 19.1855 450.01 19.1855C449.126 19.1855 448.436 18.9845 447.941 18.5825C447.447 18.1805 447.199 17.5404 447.199 16.6621V11.2905H445.409V9.06396H447.199V6.25293L449.76 5.56641V9.06396H452.367V11.2905H449.76V16.0405ZM457.191 14.9644C456.875 15.0138 456.622 15.1252 456.43 15.2983C456.238 15.4653 456.143 15.6942 456.143 15.9849C456.143 16.3065 456.26 16.5848 456.495 16.8198C456.73 17.0487 457.076 17.1631 457.534 17.1631C458.017 17.1631 458.397 17.0239 458.675 16.7456C458.954 16.4673 459.093 16.0993 459.093 15.6416V14.6396L457.191 14.9644ZM459.51 18.063C459.405 18.1805 459.275 18.3073 459.121 18.4434C458.972 18.5732 458.793 18.6938 458.583 18.8052C458.378 18.9103 458.137 19 457.859 19.0742C457.581 19.1484 457.268 19.1855 456.922 19.1855C456.427 19.1855 455.969 19.1082 455.549 18.9536C455.134 18.7928 454.77 18.5701 454.454 18.2856C454.139 18.0011 453.891 17.6733 453.712 17.3022C453.533 16.925 453.443 16.5168 453.443 16.0776C453.443 15.2798 453.69 14.6273 454.185 14.1201C454.68 13.613 455.363 13.2944 456.235 13.1646L459.093 12.7471V12.5615C459.093 12.1162 458.957 11.7637 458.685 11.5039C458.412 11.2441 457.97 11.1143 457.358 11.1143C457.104 11.1143 456.848 11.1452 456.588 11.207C456.328 11.2627 456.078 11.3276 455.836 11.4019C455.601 11.4761 455.382 11.5627 455.178 11.6616C454.974 11.7544 454.794 11.8379 454.64 11.9121L453.638 9.95459C454.207 9.63916 454.838 9.37939 455.53 9.17529C456.229 8.97119 456.953 8.86914 457.701 8.86914C458.159 8.86914 458.62 8.91862 459.083 9.01758C459.554 9.11035 459.977 9.28353 460.354 9.53711C460.738 9.79069 461.05 10.137 461.292 10.5762C461.533 11.0091 461.653 11.5627 461.653 12.2368V16.3188C461.653 16.6095 461.728 16.826 461.876 16.9683C462.031 17.1043 462.241 17.2311 462.507 17.3486L461.347 19.1855C460.877 19.1361 460.5 19.0155 460.215 18.8237C459.931 18.6258 459.696 18.3722 459.51 18.063ZM466.357 19H463.796V9.06396H466.357V19ZM463.527 6.45703C463.527 6.24674 463.568 6.04883 463.648 5.86328C463.728 5.67155 463.837 5.50765 463.973 5.37158C464.115 5.22933 464.279 5.118 464.464 5.0376C464.65 4.95719 464.851 4.91699 465.067 4.91699C465.278 4.91699 465.476 4.95719 465.661 5.0376C465.853 5.118 466.017 5.22933 466.153 5.37158C466.295 5.50765 466.406 5.67155 466.487 5.86328C466.567 6.04883 466.607 6.24674 466.607 6.45703C466.607 6.6735 466.567 6.87451 466.487 7.06006C466.406 7.24561 466.295 7.40951 466.153 7.55176C466.017 7.68783 465.853 7.79606 465.661 7.87646C465.476 7.95687 465.278 7.99707 465.067 7.99707C464.851 7.99707 464.65 7.95687 464.464 7.87646C464.279 7.79606 464.115 7.68783 463.973 7.55176C463.837 7.40951 463.728 7.24561 463.648 7.06006C463.568 6.87451 463.527 6.6735 463.527 6.45703ZM468.565 9.06396H471.125V9.91748C471.262 9.78141 471.413 9.65153 471.58 9.52783C471.753 9.39795 471.942 9.28662 472.146 9.19385C472.35 9.09489 472.576 9.01758 472.823 8.96191C473.077 8.90007 473.355 8.86914 473.658 8.86914C474.196 8.86914 474.679 8.95882 475.105 9.13818C475.532 9.31136 475.891 9.55257 476.182 9.86182C476.479 10.1711 476.704 10.5329 476.859 10.9473C477.014 11.3617 477.091 11.8101 477.091 12.2925V19H474.53V13.2202C474.53 12.8677 474.49 12.5708 474.41 12.3296C474.329 12.0822 474.218 11.8843 474.076 11.7358C473.94 11.5812 473.776 11.4699 473.584 11.4019C473.398 11.3276 473.194 11.2905 472.972 11.2905C472.712 11.2905 472.468 11.3369 472.239 11.4297C472.016 11.5225 471.821 11.6647 471.654 11.8564C471.487 12.042 471.357 12.277 471.265 12.5615C471.172 12.846 471.125 13.18 471.125 13.5635V19H468.565V9.06396ZM481.377 14.918C481.42 15.2148 481.513 15.487 481.655 15.7344C481.804 15.9818 481.989 16.1951 482.212 16.3745C482.435 16.5477 482.691 16.6838 482.982 16.7827C483.273 16.8817 483.582 16.9312 483.91 16.9312C484.287 16.9312 484.695 16.86 485.134 16.7178C485.573 16.5693 485.975 16.356 486.34 16.0776L487.574 17.8774C487.11 18.2671 486.541 18.5825 485.867 18.8237C485.193 19.0649 484.476 19.1855 483.715 19.1855C483.028 19.1855 482.382 19.068 481.776 18.833C481.17 18.598 480.638 18.2578 480.18 17.8125C479.729 17.3672 479.37 16.826 479.104 16.189C478.844 15.5519 478.714 14.8345 478.714 14.0366C478.714 13.3068 478.829 12.6265 479.058 11.9956C479.293 11.3647 479.617 10.8174 480.032 10.3535C480.452 9.88965 480.953 9.52783 481.535 9.26807C482.116 9.00212 482.759 8.86914 483.464 8.86914C484.12 8.86914 484.729 8.98975 485.292 9.23096C485.855 9.46598 486.343 9.79997 486.758 10.2329C487.172 10.6597 487.497 11.173 487.732 11.7729C487.967 12.3729 488.084 13.0347 488.084 13.7583V14.918H481.377ZM483.455 11.0957C482.905 11.0957 482.438 11.2812 482.054 11.6523C481.677 12.0173 481.457 12.4595 481.396 12.979H485.403C485.391 12.4533 485.199 12.008 484.828 11.6431C484.457 11.2782 483.999 11.0957 483.455 11.0957ZM496.1 19V18.1465C495.964 18.2949 495.812 18.4341 495.646 18.564C495.485 18.6877 495.302 18.7959 495.098 18.8887C494.9 18.9814 494.681 19.0526 494.439 19.1021C494.204 19.1577 493.942 19.1855 493.651 19.1855C492.995 19.1855 492.395 19.0557 491.851 18.7959C491.307 18.5361 490.84 18.1774 490.45 17.7197C490.061 17.262 489.757 16.7178 489.541 16.0869C489.331 15.4561 489.226 14.7726 489.226 14.0366C489.226 13.3006 489.331 12.6172 489.541 11.9863C489.751 11.3555 490.045 10.8112 490.422 10.3535C490.806 9.88965 491.267 9.52783 491.805 9.26807C492.343 9.00212 492.94 8.86914 493.595 8.86914C494.177 8.86914 494.668 8.97119 495.07 9.17529C495.479 9.37321 495.822 9.62061 496.1 9.91748V5.69629H498.661V19H496.1ZM496.174 13.1089C496.174 12.8429 496.125 12.5955 496.026 12.3667C495.933 12.1379 495.797 11.9399 495.618 11.7729C495.438 11.606 495.222 11.4761 494.968 11.3833C494.721 11.2905 494.439 11.2441 494.124 11.2441C493.759 11.2441 493.434 11.3122 493.15 11.4482C492.872 11.5843 492.637 11.776 492.445 12.0234C492.253 12.2646 492.108 12.5522 492.009 12.8862C491.91 13.2202 491.86 13.5851 491.86 13.981V14.1016C491.86 14.4974 491.91 14.8623 492.009 15.1963C492.108 15.5241 492.253 15.8086 492.445 16.0498C492.637 16.291 492.872 16.4797 493.15 16.6157C493.434 16.7456 493.759 16.8105 494.124 16.8105C494.439 16.8105 494.721 16.7642 494.968 16.6714C495.222 16.5786 495.438 16.4487 495.618 16.2817C495.797 16.1147 495.933 15.9199 496.026 15.6973C496.125 15.4684 496.174 15.221 496.174 14.9551V13.1089ZM507.511 14.9644C507.196 15.0138 506.942 15.1252 506.75 15.2983C506.559 15.4653 506.463 15.6942 506.463 15.9849C506.463 16.3065 506.58 16.5848 506.815 16.8198C507.05 17.0487 507.397 17.1631 507.854 17.1631C508.337 17.1631 508.717 17.0239 508.996 16.7456C509.274 16.4673 509.413 16.0993 509.413 15.6416V14.6396L507.511 14.9644ZM509.831 18.063C509.725 18.1805 509.596 18.3073 509.441 18.4434C509.292 18.5732 509.113 18.6938 508.903 18.8052C508.699 18.9103 508.458 19 508.179 19.0742C507.901 19.1484 507.589 19.1855 507.242 19.1855C506.747 19.1855 506.29 19.1082 505.869 18.9536C505.455 18.7928 505.09 18.5701 504.774 18.2856C504.459 18.0011 504.212 17.6733 504.032 17.3022C503.853 16.925 503.763 16.5168 503.763 16.0776C503.763 15.2798 504.011 14.6273 504.505 14.1201C505 13.613 505.684 13.2944 506.556 13.1646L509.413 12.7471V12.5615C509.413 12.1162 509.277 11.7637 509.005 11.5039C508.733 11.2441 508.291 11.1143 507.678 11.1143C507.425 11.1143 507.168 11.1452 506.908 11.207C506.648 11.2627 506.398 11.3276 506.157 11.4019C505.922 11.4761 505.702 11.5627 505.498 11.6616C505.294 11.7544 505.115 11.8379 504.96 11.9121L503.958 9.95459C504.527 9.63916 505.158 9.37939 505.851 9.17529C506.549 8.97119 507.273 8.86914 508.021 8.86914C508.479 8.86914 508.94 8.91862 509.404 9.01758C509.874 9.11035 510.298 9.28353 510.675 9.53711C511.058 9.79069 511.371 10.137 511.612 10.5762C511.853 11.0091 511.974 11.5627 511.974 12.2368V16.3188C511.974 16.6095 512.048 16.826 512.196 16.9683C512.351 17.1043 512.561 17.2311 512.827 17.3486L511.667 19.1855C511.197 19.1361 510.82 19.0155 510.536 18.8237C510.251 18.6258 510.016 18.3722 509.831 18.063ZM516.677 22.1357H514.117V9.06396H516.677V9.91748C516.956 9.62679 517.299 9.37939 517.707 9.17529C518.115 8.97119 518.61 8.86914 519.191 8.86914C519.847 8.86914 520.441 9.00212 520.973 9.26807C521.511 9.52783 521.972 9.88965 522.355 10.3535C522.738 10.8112 523.035 11.3555 523.246 11.9863C523.456 12.6172 523.561 13.3006 523.561 14.0366C523.561 14.7726 523.453 15.4561 523.236 16.0869C523.02 16.7178 522.717 17.262 522.327 17.7197C521.938 18.1774 521.471 18.5361 520.926 18.7959C520.382 19.0557 519.782 19.1855 519.126 19.1855C518.836 19.1855 518.57 19.1577 518.329 19.1021C518.094 19.0526 517.877 18.9814 517.679 18.8887C517.481 18.7959 517.299 18.6877 517.132 18.564C516.965 18.4341 516.813 18.2949 516.677 18.1465V22.1357ZM516.603 14.9551C516.603 15.221 516.649 15.4684 516.742 15.6973C516.841 15.9199 516.98 16.1147 517.16 16.2817C517.339 16.4487 517.552 16.5786 517.8 16.6714C518.053 16.7642 518.338 16.8105 518.653 16.8105C519.018 16.8105 519.34 16.7456 519.618 16.6157C519.903 16.4797 520.141 16.291 520.333 16.0498C520.524 15.8086 520.67 15.5241 520.769 15.1963C520.868 14.8623 520.917 14.4974 520.917 14.1016V13.981C520.917 13.5851 520.868 13.2202 520.769 12.8862C520.67 12.5522 520.524 12.2646 520.333 12.0234C520.141 11.776 519.903 11.5843 519.618 11.4482C519.34 11.3122 519.018 11.2441 518.653 11.2441C518.338 11.2441 518.053 11.2905 517.8 11.3833C517.552 11.4761 517.339 11.606 517.16 11.7729C516.98 11.9399 516.841 12.1379 516.742 12.3667C516.649 12.5955 516.603 12.8429 516.603 13.1089V14.9551ZM527.829 22.1357H525.268V9.06396H527.829V9.91748C528.107 9.62679 528.45 9.37939 528.858 9.17529C529.267 8.97119 529.761 8.86914 530.343 8.86914C530.998 8.86914 531.592 9.00212 532.124 9.26807C532.662 9.52783 533.123 9.88965 533.506 10.3535C533.89 10.8112 534.187 11.3555 534.397 11.9863C534.607 12.6172 534.712 13.3006 534.712 14.0366C534.712 14.7726 534.604 15.4561 534.388 16.0869C534.171 16.7178 533.868 17.262 533.479 17.7197C533.089 18.1774 532.622 18.5361 532.078 18.7959C531.533 19.0557 530.933 19.1855 530.278 19.1855C529.987 19.1855 529.721 19.1577 529.48 19.1021C529.245 19.0526 529.028 18.9814 528.831 18.8887C528.633 18.7959 528.45 18.6877 528.283 18.564C528.116 18.4341 527.965 18.2949 527.829 18.1465V22.1357ZM527.754 14.9551C527.754 15.221 527.801 15.4684 527.894 15.6973C527.993 15.9199 528.132 16.1147 528.311 16.2817C528.49 16.4487 528.704 16.5786 528.951 16.6714C529.205 16.7642 529.489 16.8105 529.805 16.8105C530.17 16.8105 530.491 16.7456 530.77 16.6157C531.054 16.4797 531.292 16.291 531.484 16.0498C531.676 15.8086 531.821 15.5241 531.92 15.1963C532.019 14.8623 532.068 14.4974 532.068 14.1016V13.981C532.068 13.5851 532.019 13.2202 531.92 12.8862C531.821 12.5522 531.676 12.2646 531.484 12.0234C531.292 11.776 531.054 11.5843 530.77 11.4482C530.491 11.3122 530.17 11.2441 529.805 11.2441C529.489 11.2441 529.205 11.2905 528.951 11.3833C528.704 11.4761 528.49 11.606 528.311 11.7729C528.132 11.9399 527.993 12.1379 527.894 12.3667C527.801 12.5955 527.754 12.8429 527.754 13.1089V14.9551ZM538.562 14.918C538.606 15.2148 538.699 15.487 538.841 15.7344C538.989 15.9818 539.175 16.1951 539.397 16.3745C539.62 16.5477 539.877 16.6838 540.167 16.7827C540.458 16.8817 540.767 16.9312 541.095 16.9312C541.472 16.9312 541.881 16.86 542.32 16.7178C542.759 16.5693 543.161 16.356 543.526 16.0776L544.76 17.8774C544.296 18.2671 543.727 18.5825 543.053 18.8237C542.379 19.0649 541.661 19.1855 540.9 19.1855C540.214 19.1855 539.568 19.068 538.961 18.833C538.355 18.598 537.823 18.2578 537.366 17.8125C536.914 17.3672 536.556 16.826 536.29 16.189C536.03 15.5519 535.9 14.8345 535.9 14.0366C535.9 13.3068 536.014 12.6265 536.243 11.9956C536.478 11.3647 536.803 10.8174 537.217 10.3535C537.638 9.88965 538.139 9.52783 538.72 9.26807C539.302 9.00212 539.945 8.86914 540.65 8.86914C541.306 8.86914 541.915 8.98975 542.478 9.23096C543.04 9.46598 543.529 9.79997 543.943 10.2329C544.358 10.6597 544.682 11.173 544.917 11.7729C545.153 12.3729 545.27 13.0347 545.27 13.7583V14.918H538.562ZM540.641 11.0957C540.09 11.0957 539.623 11.2812 539.24 11.6523C538.862 12.0173 538.643 12.4595 538.581 12.979H542.589C542.576 12.4533 542.385 12.008 542.014 11.6431C541.643 11.2782 541.185 11.0957 540.641 11.0957ZM550.113 14.9644C549.797 15.0138 549.544 15.1252 549.352 15.2983C549.16 15.4653 549.064 15.6942 549.064 15.9849C549.064 16.3065 549.182 16.5848 549.417 16.8198C549.652 17.0487 549.998 17.1631 550.456 17.1631C550.938 17.1631 551.319 17.0239 551.597 16.7456C551.875 16.4673 552.015 16.0993 552.015 15.6416V14.6396L550.113 14.9644ZM552.432 18.063C552.327 18.1805 552.197 18.3073 552.042 18.4434C551.894 18.5732 551.715 18.6938 551.504 18.8052C551.3 18.9103 551.059 19 550.781 19.0742C550.502 19.1484 550.19 19.1855 549.844 19.1855C549.349 19.1855 548.891 19.1082 548.471 18.9536C548.056 18.7928 547.691 18.5701 547.376 18.2856C547.061 18.0011 546.813 17.6733 546.634 17.3022C546.454 16.925 546.365 16.5168 546.365 16.0776C546.365 15.2798 546.612 14.6273 547.107 14.1201C547.602 13.613 548.285 13.2944 549.157 13.1646L552.015 12.7471V12.5615C552.015 12.1162 551.879 11.7637 551.606 11.5039C551.334 11.2441 550.892 11.1143 550.28 11.1143C550.026 11.1143 549.77 11.1452 549.51 11.207C549.25 11.2627 549 11.3276 548.758 11.4019C548.523 11.4761 548.304 11.5627 548.1 11.6616C547.896 11.7544 547.716 11.8379 547.562 11.9121L546.56 9.95459C547.129 9.63916 547.759 9.37939 548.452 9.17529C549.151 8.97119 549.875 8.86914 550.623 8.86914C551.081 8.86914 551.542 8.91862 552.005 9.01758C552.475 9.11035 552.899 9.28353 553.276 9.53711C553.66 9.79069 553.972 10.137 554.213 10.5762C554.455 11.0091 554.575 11.5627 554.575 12.2368V16.3188C554.575 16.6095 554.649 16.826 554.798 16.9683C554.952 17.1043 555.163 17.2311 555.429 17.3486L554.269 19.1855C553.799 19.1361 553.422 19.0155 553.137 18.8237C552.853 18.6258 552.618 18.3722 552.432 18.063ZM556.681 5.69629H559.242V16.3003C559.242 16.5106 559.3 16.6714 559.418 16.7827C559.542 16.894 559.736 16.9497 560.002 16.9497C560.126 16.9497 560.231 16.9435 560.318 16.9312C560.411 16.9126 560.528 16.8879 560.67 16.8569L560.875 19.0371C560.701 19.0618 560.516 19.0866 560.318 19.1113C560.151 19.1299 559.956 19.1453 559.733 19.1577C559.517 19.1763 559.291 19.1855 559.056 19.1855C558.691 19.1855 558.363 19.1392 558.073 19.0464C557.782 18.9536 557.532 18.8175 557.321 18.6382C557.117 18.4526 556.959 18.2238 556.848 17.9517C556.737 17.6795 556.681 17.3641 556.681 17.0054V5.69629Z" fill="white"/>
<rect width="125" height="27" transform="translate(579)" fill="#EB3223"/>
<path d="M588.282 15.2612C588.455 15.4591 588.666 15.654 588.913 15.8457C589.16 16.0374 589.433 16.2106 589.729 16.3652C590.033 16.5137 590.36 16.6343 590.713 16.7271C591.065 16.8136 591.446 16.8569 591.854 16.8569C592.615 16.8569 593.196 16.6992 593.598 16.3838C594.006 16.0622 594.21 15.6725 594.21 15.2148C594.21 14.7386 594.031 14.3768 593.672 14.1294C593.32 13.882 592.757 13.6872 591.984 13.5449L591.566 13.4707C591.01 13.3717 590.456 13.2419 589.906 13.0811C589.355 12.9202 588.857 12.6883 588.412 12.3853C587.967 12.0822 587.605 11.6956 587.327 11.2256C587.048 10.7493 586.909 10.1494 586.909 9.42578C586.909 9.00521 587.002 8.56608 587.188 8.1084C587.373 7.64453 587.667 7.22087 588.069 6.8374C588.477 6.44775 589 6.12923 589.637 5.88184C590.28 5.63444 591.056 5.51074 591.965 5.51074C593.042 5.51074 594 5.6901 594.841 6.04883C595.689 6.40137 596.372 6.86833 596.892 7.44971L595.101 9.11963C594.736 8.71761 594.266 8.40218 593.691 8.17334C593.122 7.9445 592.534 7.83008 591.928 7.83008C591.229 7.83008 590.682 7.96305 590.286 8.229C589.896 8.49495 589.702 8.84131 589.702 9.26807C589.702 9.54639 589.764 9.77832 589.887 9.96387C590.017 10.1494 590.196 10.304 590.425 10.4277C590.654 10.5452 590.929 10.6442 591.251 10.7246C591.573 10.805 591.931 10.8854 592.327 10.9658L592.541 11.0029C593.072 11.1019 593.601 11.2287 594.127 11.3833C594.653 11.5317 595.129 11.7544 595.556 12.0513C595.989 12.342 596.338 12.7254 596.604 13.2017C596.87 13.6717 597.003 14.2747 597.003 15.0107C597.003 15.6787 596.864 16.2694 596.585 16.7827C596.307 17.2961 595.939 17.7352 595.481 18.1001C595.024 18.4588 594.495 18.731 593.895 18.9165C593.295 19.0959 592.67 19.1855 592.021 19.1855C591.365 19.1855 590.756 19.1299 590.193 19.0186C589.637 18.9072 589.13 18.7495 588.672 18.5454C588.22 18.3413 587.815 18.1125 587.457 17.8589C587.104 17.6053 586.795 17.3332 586.529 17.0425L588.282 15.2612ZM609.063 12.2183C609.063 12.8182 609.017 13.4058 608.924 13.981C608.832 14.5562 608.686 15.1035 608.488 15.623C608.297 16.1364 608.049 16.6126 607.746 17.0518C607.443 17.4847 607.078 17.8589 606.651 18.1743C606.225 18.4897 605.733 18.7371 605.176 18.9165C604.626 19.0959 604.004 19.1855 603.312 19.1855C602.743 19.1855 602.217 19.1175 601.734 18.9814C601.252 18.8392 600.816 18.6475 600.426 18.4062C600.037 18.165 599.7 17.8805 599.415 17.5527C599.131 17.2188 598.908 16.86 598.747 16.4766L601.233 15.5024C601.456 15.923 601.753 16.2415 602.124 16.458C602.501 16.6683 602.928 16.7734 603.404 16.7734C603.868 16.7734 604.276 16.6838 604.629 16.5044C604.981 16.3188 605.272 16.0684 605.501 15.7529C605.736 15.4375 605.912 15.0726 606.03 14.6582C606.147 14.2376 606.203 13.7923 606.197 13.3223C606.042 13.4769 605.86 13.6253 605.649 13.7676C605.439 13.9098 605.204 14.0366 604.944 14.1479C604.691 14.2531 604.412 14.3397 604.109 14.4077C603.812 14.4696 603.5 14.5005 603.172 14.5005C602.523 14.5005 601.917 14.3953 601.354 14.1851C600.797 13.9686 600.312 13.6717 599.897 13.2944C599.489 12.911 599.168 12.4564 598.933 11.9307C598.698 11.4049 598.58 10.8298 598.58 10.2051C598.58 9.53711 598.698 8.91553 598.933 8.34033C599.174 7.76514 599.511 7.27035 599.944 6.85596C600.383 6.43538 600.909 6.10758 601.521 5.87256C602.133 5.63135 602.817 5.51074 603.571 5.51074C604.4 5.51074 605.152 5.65918 605.826 5.95605C606.5 6.24674 607.075 6.66732 607.551 7.21777C608.034 7.76823 608.405 8.43929 608.665 9.23096C608.931 10.0226 609.063 10.9163 609.063 11.9121V12.2183ZM606.067 10.0474C606.067 9.73193 606.011 9.43815 605.9 9.16602C605.789 8.89388 605.628 8.65885 605.417 8.46094C605.213 8.25684 604.966 8.09912 604.675 7.98779C604.385 7.87028 604.063 7.81152 603.71 7.81152C603.346 7.81152 603.018 7.87028 602.727 7.98779C602.436 8.09912 602.189 8.25684 601.985 8.46094C601.781 8.65885 601.623 8.89388 601.512 9.16602C601.407 9.43815 601.354 9.73193 601.354 10.0474C601.354 10.3566 601.407 10.6473 601.512 10.9194C601.623 11.1916 601.781 11.4297 601.985 11.6338C602.189 11.8317 602.436 11.9894 602.727 12.1069C603.018 12.2183 603.346 12.2739 603.71 12.2739C604.063 12.2739 604.385 12.2183 604.675 12.1069C604.966 11.9894 605.213 11.8317 605.417 11.6338C605.628 11.4297 605.789 11.1916 605.9 10.9194C606.011 10.6473 606.067 10.3566 606.067 10.0474ZM616.894 19V15.9941H610.26V13.1274L616.151 5.69629H619.593V13.5635H621.532V15.9941H619.593V19H616.894ZM616.894 13.5635V8.34033L612.756 13.5635H616.894ZM629.362 5.69629C629.919 5.69629 630.435 5.77979 630.912 5.94678C631.388 6.10758 631.802 6.33952 632.155 6.64258C632.507 6.94564 632.783 7.31364 632.98 7.74658C633.178 8.17334 633.277 8.64958 633.277 9.17529C633.277 9.44743 633.237 9.71647 633.157 9.98242C633.083 10.2484 632.971 10.4989 632.823 10.7339C632.674 10.9627 632.495 11.173 632.285 11.3647C632.074 11.5565 631.836 11.7142 631.57 11.8379C631.787 11.9121 632.037 12.0234 632.322 12.1719C632.612 12.3203 632.888 12.5244 633.147 12.7842C633.407 13.0439 633.627 13.3656 633.806 13.749C633.986 14.1263 634.075 14.584 634.075 15.1221C634.075 15.7962 633.945 16.3776 633.686 16.8662C633.432 17.3548 633.086 17.7568 632.646 18.0723C632.214 18.3877 631.703 18.6227 631.116 18.7773C630.534 18.9258 629.919 19 629.27 19H623.443V5.69629H629.362ZM631.32 15.0293C631.32 14.6706 631.255 14.3768 631.125 14.1479C630.995 13.9191 630.822 13.7367 630.605 13.6006C630.395 13.4645 630.154 13.3717 629.882 13.3223C629.61 13.2666 629.331 13.2388 629.047 13.2388H626.134V16.8755H629.047C629.331 16.8755 629.61 16.8477 629.882 16.792C630.154 16.7363 630.395 16.6374 630.605 16.4951C630.822 16.3529 630.995 16.1642 631.125 15.9292C631.255 15.6942 631.32 15.3942 631.32 15.0293ZM630.568 9.44434C630.568 8.93717 630.408 8.54134 630.086 8.25684C629.764 7.97233 629.245 7.83008 628.527 7.83008H626.134V10.9658H628.527C629.232 10.9658 629.749 10.8328 630.077 10.5669C630.404 10.2948 630.568 9.92057 630.568 9.44434ZM642.453 14.9644C642.137 15.0138 641.884 15.1252 641.692 15.2983C641.5 15.4653 641.404 15.6942 641.404 15.9849C641.404 16.3065 641.522 16.5848 641.757 16.8198C641.992 17.0487 642.338 17.1631 642.796 17.1631C643.278 17.1631 643.659 17.0239 643.937 16.7456C644.215 16.4673 644.354 16.0993 644.354 15.6416V14.6396L642.453 14.9644ZM644.772 18.063C644.667 18.1805 644.537 18.3073 644.382 18.4434C644.234 18.5732 644.055 18.6938 643.844 18.8052C643.64 18.9103 643.399 19 643.121 19.0742C642.842 19.1484 642.53 19.1855 642.184 19.1855C641.689 19.1855 641.231 19.1082 640.811 18.9536C640.396 18.7928 640.031 18.5701 639.716 18.2856C639.4 18.0011 639.153 17.6733 638.974 17.3022C638.794 16.925 638.705 16.5168 638.705 16.0776C638.705 15.2798 638.952 14.6273 639.447 14.1201C639.942 13.613 640.625 13.2944 641.497 13.1646L644.354 12.7471V12.5615C644.354 12.1162 644.218 11.7637 643.946 11.5039C643.674 11.2441 643.232 11.1143 642.62 11.1143C642.366 11.1143 642.109 11.1452 641.85 11.207C641.59 11.2627 641.339 11.3276 641.098 11.4019C640.863 11.4761 640.644 11.5627 640.439 11.6616C640.235 11.7544 640.056 11.8379 639.901 11.9121L638.899 9.95459C639.468 9.63916 640.099 9.37939 640.792 9.17529C641.491 8.97119 642.215 8.86914 642.963 8.86914C643.421 8.86914 643.881 8.91862 644.345 9.01758C644.815 9.11035 645.239 9.28353 645.616 9.53711C646 9.79069 646.312 10.137 646.553 10.5762C646.794 11.0091 646.915 11.5627 646.915 12.2368V16.3188C646.915 16.6095 646.989 16.826 647.138 16.9683C647.292 17.1043 647.503 17.2311 647.769 17.3486L646.609 19.1855C646.139 19.1361 645.762 19.0155 645.477 18.8237C645.193 18.6258 644.958 18.3722 644.772 18.063ZM651.619 22.1357H649.058V9.06396H651.619V9.91748C651.897 9.62679 652.24 9.37939 652.648 9.17529C653.057 8.97119 653.551 8.86914 654.133 8.86914C654.788 8.86914 655.382 9.00212 655.914 9.26807C656.452 9.52783 656.913 9.88965 657.296 10.3535C657.68 10.8112 657.977 11.3555 658.187 11.9863C658.397 12.6172 658.502 13.3006 658.502 14.0366C658.502 14.7726 658.394 15.4561 658.178 16.0869C657.961 16.7178 657.658 17.262 657.269 17.7197C656.879 18.1774 656.412 18.5361 655.868 18.7959C655.323 19.0557 654.723 19.1855 654.068 19.1855C653.777 19.1855 653.511 19.1577 653.27 19.1021C653.035 19.0526 652.819 18.9814 652.621 18.8887C652.423 18.7959 652.24 18.6877 652.073 18.564C651.906 18.4341 651.755 18.2949 651.619 18.1465V22.1357ZM651.544 14.9551C651.544 15.221 651.591 15.4684 651.684 15.6973C651.783 15.9199 651.922 16.1147 652.101 16.2817C652.28 16.4487 652.494 16.5786 652.741 16.6714C652.995 16.7642 653.279 16.8105 653.595 16.8105C653.96 16.8105 654.281 16.7456 654.56 16.6157C654.844 16.4797 655.082 16.291 655.274 16.0498C655.466 15.8086 655.611 15.5241 655.71 15.1963C655.809 14.8623 655.858 14.4974 655.858 14.1016V13.981C655.858 13.5851 655.809 13.2202 655.71 12.8862C655.611 12.5522 655.466 12.2646 655.274 12.0234C655.082 11.776 654.844 11.5843 654.56 11.4482C654.281 11.3122 653.96 11.2441 653.595 11.2441C653.279 11.2441 652.995 11.2905 652.741 11.3833C652.494 11.4761 652.28 11.606 652.101 11.7729C651.922 11.9399 651.783 12.1379 651.684 12.3667C651.591 12.5955 651.544 12.8429 651.544 13.1089V14.9551ZM662.77 22.1357H660.209V9.06396H662.77V9.91748C663.048 9.62679 663.392 9.37939 663.8 9.17529C664.208 8.97119 664.703 8.86914 665.284 8.86914C665.94 8.86914 666.534 9.00212 667.065 9.26807C667.604 9.52783 668.064 9.88965 668.448 10.3535C668.831 10.8112 669.128 11.3555 669.338 11.9863C669.549 12.6172 669.654 13.3006 669.654 14.0366C669.654 14.7726 669.546 15.4561 669.329 16.0869C669.113 16.7178 668.81 17.262 668.42 17.7197C668.03 18.1774 667.563 18.5361 667.019 18.7959C666.475 19.0557 665.875 19.1855 665.219 19.1855C664.929 19.1855 664.663 19.1577 664.421 19.1021C664.186 19.0526 663.97 18.9814 663.772 18.8887C663.574 18.7959 663.392 18.6877 663.225 18.564C663.058 18.4341 662.906 18.2949 662.77 18.1465V22.1357ZM662.696 14.9551C662.696 15.221 662.742 15.4684 662.835 15.6973C662.934 15.9199 663.073 16.1147 663.252 16.2817C663.432 16.4487 663.645 16.5786 663.893 16.6714C664.146 16.7642 664.431 16.8105 664.746 16.8105C665.111 16.8105 665.433 16.7456 665.711 16.6157C665.995 16.4797 666.234 16.291 666.425 16.0498C666.617 15.8086 666.762 15.5241 666.861 15.1963C666.96 14.8623 667.01 14.4974 667.01 14.1016V13.981C667.01 13.5851 666.96 13.2202 666.861 12.8862C666.762 12.5522 666.617 12.2646 666.425 12.0234C666.234 11.776 665.995 11.5843 665.711 11.4482C665.433 11.3122 665.111 11.2441 664.746 11.2441C664.431 11.2441 664.146 11.2905 663.893 11.3833C663.645 11.4761 663.432 11.606 663.252 11.7729C663.073 11.9399 662.934 12.1379 662.835 12.3667C662.742 12.5955 662.696 12.8429 662.696 13.1089V14.9551ZM673.504 14.918C673.547 15.2148 673.64 15.487 673.782 15.7344C673.931 15.9818 674.116 16.1951 674.339 16.3745C674.562 16.5477 674.818 16.6838 675.109 16.7827C675.4 16.8817 675.709 16.9312 676.037 16.9312C676.414 16.9312 676.822 16.86 677.261 16.7178C677.7 16.5693 678.102 16.356 678.467 16.0776L679.701 17.8774C679.237 18.2671 678.668 18.5825 677.994 18.8237C677.32 19.0649 676.603 19.1855 675.842 19.1855C675.155 19.1855 674.509 19.068 673.903 18.833C673.297 18.598 672.765 18.2578 672.307 17.8125C671.856 17.3672 671.497 16.826 671.231 16.189C670.971 15.5519 670.841 14.8345 670.841 14.0366C670.841 13.3068 670.956 12.6265 671.185 11.9956C671.42 11.3647 671.744 10.8174 672.159 10.3535C672.579 9.88965 673.08 9.52783 673.662 9.26807C674.243 9.00212 674.886 8.86914 675.591 8.86914C676.247 8.86914 676.856 8.98975 677.419 9.23096C677.982 9.46598 678.47 9.79997 678.885 10.2329C679.299 10.6597 679.624 11.173 679.859 11.7729C680.094 12.3729 680.211 13.0347 680.211 13.7583V14.918H673.504ZM675.582 11.0957C675.032 11.0957 674.565 11.2812 674.181 11.6523C673.804 12.0173 673.584 12.4595 673.522 12.979H677.53C677.518 12.4533 677.326 12.008 676.955 11.6431C676.584 11.2782 676.126 11.0957 675.582 11.0957ZM685.054 14.9644C684.739 15.0138 684.485 15.1252 684.293 15.2983C684.102 15.4653 684.006 15.6942 684.006 15.9849C684.006 16.3065 684.123 16.5848 684.358 16.8198C684.593 17.0487 684.94 17.1631 685.397 17.1631C685.88 17.1631 686.26 17.0239 686.539 16.7456C686.817 16.4673 686.956 16.0993 686.956 15.6416V14.6396L685.054 14.9644ZM687.374 18.063C687.268 18.1805 687.139 18.3073 686.984 18.4434C686.835 18.5732 686.656 18.6938 686.446 18.8052C686.242 18.9103 686 19 685.722 19.0742C685.444 19.1484 685.132 19.1855 684.785 19.1855C684.29 19.1855 683.833 19.1082 683.412 18.9536C682.998 18.7928 682.633 18.5701 682.317 18.2856C682.002 18.0011 681.755 17.6733 681.575 17.3022C681.396 16.925 681.306 16.5168 681.306 16.0776C681.306 15.2798 681.554 14.6273 682.048 14.1201C682.543 13.613 683.227 13.2944 684.099 13.1646L686.956 12.7471V12.5615C686.956 12.1162 686.82 11.7637 686.548 11.5039C686.276 11.2441 685.833 11.1143 685.221 11.1143C684.968 11.1143 684.711 11.1452 684.451 11.207C684.191 11.2627 683.941 11.3276 683.7 11.4019C683.465 11.4761 683.245 11.5627 683.041 11.6616C682.837 11.7544 682.658 11.8379 682.503 11.9121L681.501 9.95459C682.07 9.63916 682.701 9.37939 683.394 9.17529C684.092 8.97119 684.816 8.86914 685.564 8.86914C686.022 8.86914 686.483 8.91862 686.947 9.01758C687.417 9.11035 687.84 9.28353 688.218 9.53711C688.601 9.79069 688.914 10.137 689.155 10.5762C689.396 11.0091 689.517 11.5627 689.517 12.2368V16.3188C689.517 16.6095 689.591 16.826 689.739 16.9683C689.894 17.1043 690.104 17.2311 690.37 17.3486L689.21 19.1855C688.74 19.1361 688.363 19.0155 688.079 18.8237C687.794 18.6258 687.559 18.3722 687.374 18.063ZM691.623 5.69629H694.183V16.3003C694.183 16.5106 694.242 16.6714 694.359 16.7827C694.483 16.894 694.678 16.9497 694.944 16.9497C695.068 16.9497 695.173 16.9435 695.259 16.9312C695.352 16.9126 695.47 16.8879 695.612 16.8569L695.816 19.0371C695.643 19.0618 695.457 19.0866 695.259 19.1113C695.092 19.1299 694.897 19.1453 694.675 19.1577C694.458 19.1763 694.233 19.1855 693.998 19.1855C693.633 19.1855 693.305 19.1392 693.014 19.0464C692.723 18.9536 692.473 18.8175 692.263 18.6382C692.059 18.4526 691.901 18.2238 691.79 17.9517C691.678 17.6795 691.623 17.3641 691.623 17.0054V5.69629Z" fill="white"/>
</svg>
