<svg width="536" height="27" viewBox="0 0 536 27" fill="none" xmlns="http://www.w3.org/2000/svg">
<rect width="135" height="27" fill="#001CB8"/>
<path d="M15.0156 14.7046L11.082 9.7876V19H8.3916V5.69629H11.1191L15.0527 10.8916L19.1069 5.69629H21.7231V19H19.0234V9.7876L15.1084 14.7046H15.0156ZM26.7886 19H24.228V9.06396H26.7886V19ZM23.959 6.45703C23.959 6.24674 23.9992 6.04883 24.0796 5.86328C24.16 5.67155 24.2682 5.50765 24.4043 5.37158C24.5465 5.22933 24.7104 5.118 24.896 5.0376C25.0815 4.95719 25.2826 4.91699 25.499 4.91699C25.7093 4.91699 25.9072 4.95719 26.0928 5.0376C26.2845 5.118 26.4484 5.22933 26.5845 5.37158C26.7267 5.50765 26.8381 5.67155 26.9185 5.86328C26.9989 6.04883 27.0391 6.24674 27.0391 6.45703C27.0391 6.6735 26.9989 6.87451 26.9185 7.06006C26.8381 7.24561 26.7267 7.40951 26.5845 7.55176C26.4484 7.68783 26.2845 7.79606 26.0928 7.87646C25.9072 7.95687 25.7093 7.99707 25.499 7.99707C25.2826 7.99707 25.0815 7.95687 24.896 7.87646C24.7104 7.79606 24.5465 7.68783 24.4043 7.55176C24.2682 7.40951 24.16 7.24561 24.0796 7.06006C23.9992 6.87451 23.959 6.6735 23.959 6.45703ZM35.0361 17.2373C34.8073 17.5156 34.4857 17.7383 34.0713 17.9053C33.6631 18.0661 33.2178 18.1465 32.7354 18.1465C32.0674 18.1465 31.4736 18.029 30.9541 17.7939C30.4346 17.5589 29.9954 17.2373 29.6367 16.8291C29.2842 16.4147 29.012 15.9261 28.8203 15.3633C28.6348 14.8005 28.542 14.182 28.542 13.5078C28.542 12.8522 28.6348 12.2399 28.8203 11.6709C29.012 11.0957 29.2842 10.604 29.6367 10.1958C29.9954 9.78141 30.4346 9.45671 30.9541 9.22168C31.4736 8.98665 32.0674 8.86914 32.7354 8.86914C33.2178 8.86914 33.6631 8.95264 34.0713 9.11963C34.4857 9.28662 34.8073 9.50928 35.0361 9.7876V9.06396H37.606V18.9072C37.606 19.5133 37.4915 20.0329 37.2627 20.4658C37.0339 20.9049 36.7184 21.2637 36.3164 21.542C35.9206 21.8203 35.4598 22.0213 34.9341 22.145C34.4084 22.2749 33.8486 22.3398 33.2549 22.3398C32.5312 22.3398 31.7767 22.2533 30.9912 22.0801C30.2057 21.9131 29.5285 21.7028 28.9595 21.4492L29.6831 19.3804C29.8563 19.4546 30.0697 19.535 30.3232 19.6216C30.5768 19.7144 30.849 19.7948 31.1396 19.8628C31.4303 19.9308 31.7334 19.9865 32.0488 20.0298C32.3704 20.0793 32.6828 20.104 32.9858 20.104C33.2518 20.104 33.5085 20.0762 33.7559 20.0205C34.0033 19.971 34.2197 19.8844 34.4053 19.7607C34.597 19.6432 34.7485 19.4855 34.8599 19.2876C34.9774 19.0959 35.0361 18.8485 35.0361 18.5454V17.2373ZM31.1768 13.5449C31.1768 13.8727 31.2108 14.182 31.2788 14.4727C31.353 14.7572 31.4674 15.0015 31.6221 15.2056C31.7829 15.4035 31.987 15.5612 32.2344 15.6787C32.4818 15.79 32.7817 15.8457 33.1343 15.8457C33.8332 15.8457 34.3311 15.6261 34.6279 15.187C34.9248 14.7417 35.0732 14.1943 35.0732 13.5449V13.4707C35.0732 13.1429 35.0392 12.8368 34.9712 12.5522C34.9032 12.2677 34.7918 12.0234 34.6372 11.8193C34.4826 11.6152 34.2816 11.4575 34.0342 11.3462C33.793 11.2287 33.493 11.1699 33.1343 11.1699C32.4416 11.1699 31.9406 11.3895 31.6313 11.8286C31.3283 12.2677 31.1768 12.8151 31.1768 13.4707V13.5449ZM45.3989 11.5503H45.1299C44.765 11.5503 44.4155 11.5874 44.0815 11.6616C43.7537 11.7358 43.4631 11.8719 43.2095 12.0698C42.9559 12.2616 42.7518 12.5275 42.5972 12.8677C42.4487 13.2078 42.3745 13.6439 42.3745 14.1758V19H39.814V9.06396H42.3745V10.1865C42.4797 10.0195 42.6157 9.85872 42.7827 9.7041C42.9497 9.54948 43.1445 9.41341 43.3672 9.2959C43.5898 9.1722 43.8403 9.07324 44.1187 8.99902C44.397 8.9248 44.6969 8.8877 45.0186 8.8877H45.3989V11.5503ZM50.2046 14.9644C49.8892 15.0138 49.6356 15.1252 49.4438 15.2983C49.2521 15.4653 49.1562 15.6942 49.1562 15.9849C49.1562 16.3065 49.2738 16.5848 49.5088 16.8198C49.7438 17.0487 50.0902 17.1631 50.5479 17.1631C51.0303 17.1631 51.4106 17.0239 51.689 16.7456C51.9673 16.4673 52.1064 16.0993 52.1064 15.6416V14.6396L50.2046 14.9644ZM52.5239 18.063C52.4188 18.1805 52.2889 18.3073 52.1343 18.4434C51.9858 18.5732 51.8065 18.6938 51.5962 18.8052C51.3921 18.9103 51.1509 19 50.8726 19.0742C50.5942 19.1484 50.2819 19.1855 49.9355 19.1855C49.4408 19.1855 48.9831 19.1082 48.5625 18.9536C48.1481 18.7928 47.7832 18.5701 47.4678 18.2856C47.1523 18.0011 46.9049 17.6733 46.7256 17.3022C46.5462 16.925 46.4565 16.5168 46.4565 16.0776C46.4565 15.2798 46.7039 14.6273 47.1987 14.1201C47.6935 13.613 48.377 13.2944 49.249 13.1646L52.1064 12.7471V12.5615C52.1064 12.1162 51.9704 11.7637 51.6982 11.5039C51.4261 11.2441 50.9839 11.1143 50.3716 11.1143C50.118 11.1143 49.8613 11.1452 49.6016 11.207C49.3418 11.2627 49.0913 11.3276 48.8501 11.4019C48.6151 11.4761 48.3955 11.5627 48.1914 11.6616C47.9873 11.7544 47.8079 11.8379 47.6533 11.9121L46.6514 9.95459C47.2204 9.63916 47.8512 9.37939 48.5439 9.17529C49.2428 8.97119 49.9665 8.86914 50.7148 8.86914C51.1725 8.86914 51.6333 8.91862 52.0972 9.01758C52.5672 9.11035 52.9909 9.28353 53.3682 9.53711C53.7516 9.79069 54.064 10.137 54.3052 10.5762C54.5464 11.0091 54.667 11.5627 54.667 12.2368V16.3188C54.667 16.6095 54.7412 16.826 54.8896 16.9683C55.0443 17.1043 55.2546 17.2311 55.5205 17.3486L54.3608 19.1855C53.8908 19.1361 53.5135 19.0155 53.229 18.8237C52.9445 18.6258 52.7095 18.3722 52.5239 18.063ZM60.085 16.0405C60.085 16.158 60.1004 16.2694 60.1313 16.3745C60.1623 16.4797 60.2148 16.5724 60.2891 16.6528C60.3695 16.7271 60.4808 16.7858 60.623 16.8291C60.7653 16.8724 60.9478 16.894 61.1704 16.894C61.2632 16.894 61.3683 16.891 61.4858 16.8848C61.6034 16.8724 61.7209 16.86 61.8384 16.8477C61.9559 16.8353 62.0641 16.8198 62.1631 16.8013C62.2682 16.7827 62.3548 16.7673 62.4229 16.7549L62.6548 19.0186C62.4136 19.0495 62.1631 19.0773 61.9033 19.1021C61.6807 19.1268 61.4333 19.1453 61.1611 19.1577C60.889 19.1763 60.6138 19.1855 60.3354 19.1855C59.451 19.1855 58.7614 18.9845 58.2666 18.5825C57.7718 18.1805 57.5244 17.5404 57.5244 16.6621V11.2905H55.7339V9.06396H57.5244V6.25293L60.085 5.56641V9.06396H62.6919V11.2905H60.085V16.0405ZM66.4492 14.918C66.4925 15.2148 66.5853 15.487 66.7275 15.7344C66.876 15.9818 67.0615 16.1951 67.2842 16.3745C67.5068 16.5477 67.7635 16.6838 68.0542 16.7827C68.3449 16.8817 68.6541 16.9312 68.9819 16.9312C69.3592 16.9312 69.7674 16.86 70.2065 16.7178C70.6457 16.5693 71.0477 16.356 71.4126 16.0776L72.6465 17.8774C72.1826 18.2671 71.6136 18.5825 70.9395 18.8237C70.2653 19.0649 69.5479 19.1855 68.7871 19.1855C68.1006 19.1855 67.4543 19.068 66.8481 18.833C66.242 18.598 65.7101 18.2578 65.2524 17.8125C64.8009 17.3672 64.4422 16.826 64.1763 16.189C63.9165 15.5519 63.7866 14.8345 63.7866 14.0366C63.7866 13.3068 63.901 12.6265 64.1299 11.9956C64.3649 11.3647 64.6896 10.8174 65.104 10.3535C65.5246 9.88965 66.0256 9.52783 66.6069 9.26807C67.1883 9.00212 67.8315 8.86914 68.5366 8.86914C69.1922 8.86914 69.8014 8.98975 70.3643 9.23096C70.9271 9.46598 71.4157 9.79997 71.8301 10.2329C72.2445 10.6597 72.5692 11.173 72.8042 11.7729C73.0392 12.3729 73.1567 13.0347 73.1567 13.7583V14.918H66.4492ZM68.5273 11.0957C67.9769 11.0957 67.5099 11.2812 67.1265 11.6523C66.7492 12.0173 66.5296 12.4595 66.4678 12.979H70.4756C70.4632 12.4533 70.2715 12.008 69.9004 11.6431C69.5293 11.2782 69.0716 11.0957 68.5273 11.0957ZM81.1724 19V18.1465C81.0363 18.2949 80.8848 18.4341 80.7178 18.564C80.557 18.6877 80.3745 18.7959 80.1704 18.8887C79.9725 18.9814 79.7529 19.0526 79.5117 19.1021C79.2767 19.1577 79.0138 19.1855 78.7231 19.1855C78.0675 19.1855 77.4676 19.0557 76.9233 18.7959C76.3791 18.5361 75.9121 18.1774 75.5225 17.7197C75.1328 17.262 74.8298 16.7178 74.6133 16.0869C74.403 15.4561 74.2979 14.7726 74.2979 14.0366C74.2979 13.3006 74.403 12.6172 74.6133 11.9863C74.8236 11.3555 75.1174 10.8112 75.4946 10.3535C75.8781 9.88965 76.3389 9.52783 76.877 9.26807C77.415 9.00212 78.0119 8.86914 78.6675 8.86914C79.2489 8.86914 79.7406 8.97119 80.1426 9.17529C80.5508 9.37321 80.894 9.62061 81.1724 9.91748V5.69629H83.7329V19H81.1724ZM81.2466 13.1089C81.2466 12.8429 81.1971 12.5955 81.0981 12.3667C81.0054 12.1379 80.8693 11.9399 80.6899 11.7729C80.5106 11.606 80.2941 11.4761 80.0405 11.3833C79.7931 11.2905 79.5117 11.2441 79.1963 11.2441C78.8314 11.2441 78.5067 11.3122 78.2222 11.4482C77.9438 11.5843 77.7088 11.776 77.5171 12.0234C77.3254 12.2646 77.18 12.5522 77.0811 12.8862C76.9821 13.2202 76.9326 13.5851 76.9326 13.981V14.1016C76.9326 14.4974 76.9821 14.8623 77.0811 15.1963C77.18 15.5241 77.3254 15.8086 77.5171 16.0498C77.7088 16.291 77.9438 16.4797 78.2222 16.6157C78.5067 16.7456 78.8314 16.8105 79.1963 16.8105C79.5117 16.8105 79.7931 16.7642 80.0405 16.6714C80.2941 16.5786 80.5106 16.4487 80.6899 16.2817C80.8693 16.1147 81.0054 15.9199 81.0981 15.6973C81.1971 15.4684 81.2466 15.221 81.2466 14.9551V13.1089ZM91.498 14.083C91.498 14.4046 91.5413 14.7293 91.6279 15.0571C91.7145 15.3787 91.8475 15.6694 92.0269 15.9292C92.2062 16.189 92.4351 16.4023 92.7134 16.5693C92.9979 16.7301 93.335 16.8105 93.7246 16.8105C93.9782 16.8105 94.207 16.7765 94.4111 16.7085C94.6214 16.6405 94.807 16.5477 94.9678 16.4302C95.1348 16.3065 95.2801 16.1642 95.4038 16.0034C95.5337 15.8364 95.645 15.6571 95.7378 15.4653L97.9829 16.625C97.8221 17.0146 97.5994 17.3672 97.3149 17.6826C97.0366 17.998 96.7119 18.2671 96.3408 18.4897C95.9697 18.7124 95.5584 18.8825 95.1069 19C94.6554 19.1237 94.1761 19.1855 93.6689 19.1855C92.9701 19.1855 92.3268 19.0557 91.7393 18.7959C91.1517 18.5299 90.6445 18.1681 90.2178 17.7104C89.791 17.2528 89.457 16.7116 89.2158 16.0869C88.9746 15.4561 88.854 14.7726 88.854 14.0366C88.854 13.3068 88.9746 12.6265 89.2158 11.9956C89.457 11.3647 89.791 10.8174 90.2178 10.3535C90.6445 9.88965 91.1517 9.52783 91.7393 9.26807C92.3268 9.00212 92.9701 8.86914 93.6689 8.86914C94.1761 8.86914 94.6554 8.93099 95.1069 9.05469C95.5584 9.1722 95.9697 9.34538 96.3408 9.57422C96.7119 9.79688 97.0366 10.0659 97.3149 10.3813C97.5994 10.6968 97.8221 11.0493 97.9829 11.439L95.7378 12.5986C95.645 12.4069 95.5337 12.2306 95.4038 12.0698C95.2801 11.9028 95.1348 11.7606 94.9678 11.6431C94.807 11.5194 94.6214 11.4235 94.4111 11.3555C94.207 11.2812 93.9782 11.2441 93.7246 11.2441C93.335 11.2441 92.9979 11.3276 92.7134 11.4946C92.4351 11.6554 92.2062 11.8688 92.0269 12.1348C91.8475 12.3945 91.7145 12.6883 91.6279 13.0161C91.5413 13.3439 91.498 13.6717 91.498 13.9995V14.083ZM102.77 14.9644C102.455 15.0138 102.201 15.1252 102.009 15.2983C101.818 15.4653 101.722 15.6942 101.722 15.9849C101.722 16.3065 101.839 16.5848 102.074 16.8198C102.309 17.0487 102.656 17.1631 103.113 17.1631C103.596 17.1631 103.976 17.0239 104.254 16.7456C104.533 16.4673 104.672 16.0993 104.672 15.6416V14.6396L102.77 14.9644ZM105.089 18.063C104.984 18.1805 104.854 18.3073 104.7 18.4434C104.551 18.5732 104.372 18.6938 104.162 18.8052C103.958 18.9103 103.716 19 103.438 19.0742C103.16 19.1484 102.847 19.1855 102.501 19.1855C102.006 19.1855 101.549 19.1082 101.128 18.9536C100.714 18.7928 100.349 18.5701 100.033 18.2856C99.7178 18.0011 99.4704 17.6733 99.291 17.3022C99.1117 16.925 99.022 16.5168 99.022 16.0776C99.022 15.2798 99.2694 14.6273 99.7642 14.1201C100.259 13.613 100.942 13.2944 101.814 13.1646L104.672 12.7471V12.5615C104.672 12.1162 104.536 11.7637 104.264 11.5039C103.992 11.2441 103.549 11.1143 102.937 11.1143C102.683 11.1143 102.427 11.1452 102.167 11.207C101.907 11.2627 101.657 11.3276 101.416 11.4019C101.181 11.4761 100.961 11.5627 100.757 11.6616C100.553 11.7544 100.373 11.8379 100.219 11.9121L99.2168 9.95459C99.7858 9.63916 100.417 9.37939 101.109 9.17529C101.808 8.97119 102.532 8.86914 103.28 8.86914C103.738 8.86914 104.199 8.91862 104.663 9.01758C105.133 9.11035 105.556 9.28353 105.934 9.53711C106.317 9.79069 106.629 10.137 106.871 10.5762C107.112 11.0091 107.232 11.5627 107.232 12.2368V16.3188C107.232 16.6095 107.307 16.826 107.455 16.9683C107.61 17.1043 107.82 17.2311 108.086 17.3486L106.926 19.1855C106.456 19.1361 106.079 19.0155 105.794 18.8237C105.51 18.6258 105.275 18.3722 105.089 18.063ZM110.081 15.8271C110.445 16.1549 110.882 16.4364 111.389 16.6714C111.896 16.9064 112.409 17.0239 112.929 17.0239C113.306 17.0239 113.603 16.9528 113.819 16.8105C114.036 16.6621 114.144 16.4735 114.144 16.2446C114.144 15.855 113.727 15.5519 112.892 15.3354L112.168 15.1406C111.809 15.054 111.447 14.9365 111.083 14.7881C110.718 14.6335 110.381 14.4325 110.071 14.1851C109.768 13.9377 109.521 13.6377 109.329 13.2852C109.144 12.9264 109.051 12.4873 109.051 11.9678C109.051 11.5534 109.14 11.1606 109.32 10.7896C109.505 10.4123 109.765 10.0814 110.099 9.79688C110.439 9.51237 110.851 9.28662 111.333 9.11963C111.815 8.95264 112.354 8.86914 112.947 8.86914C113.795 8.86914 114.549 9.00212 115.211 9.26807C115.879 9.53402 116.405 9.83398 116.788 10.168L115.452 11.875C115.137 11.6462 114.763 11.4513 114.33 11.2905C113.903 11.1235 113.473 11.04 113.04 11.04C112.638 11.04 112.326 11.1143 112.103 11.2627C111.88 11.4049 111.769 11.5781 111.769 11.7822C111.769 11.9987 111.865 12.175 112.057 12.311C112.255 12.4409 112.539 12.5553 112.91 12.6543L113.986 12.9604C115.013 13.2511 115.749 13.6439 116.194 14.1387C116.64 14.6335 116.862 15.2581 116.862 16.0127C116.862 16.4333 116.776 16.8353 116.603 17.2188C116.429 17.596 116.176 17.9331 115.842 18.23C115.508 18.5269 115.093 18.7619 114.599 18.9351C114.104 19.1021 113.541 19.1855 112.91 19.1855C112.428 19.1855 111.973 19.1423 111.546 19.0557C111.126 18.9691 110.733 18.8516 110.368 18.7031C110.009 18.5485 109.685 18.3753 109.394 18.1836C109.103 17.9919 108.856 17.8001 108.652 17.6084L110.081 15.8271ZM120.666 14.918C120.709 15.2148 120.802 15.487 120.944 15.7344C121.093 15.9818 121.278 16.1951 121.501 16.3745C121.724 16.5477 121.98 16.6838 122.271 16.7827C122.562 16.8817 122.871 16.9312 123.199 16.9312C123.576 16.9312 123.984 16.86 124.423 16.7178C124.862 16.5693 125.264 16.356 125.629 16.0776L126.863 17.8774C126.399 18.2671 125.83 18.5825 125.156 18.8237C124.482 19.0649 123.765 19.1855 123.004 19.1855C122.317 19.1855 121.671 19.068 121.065 18.833C120.459 18.598 119.927 18.2578 119.469 17.8125C119.018 17.3672 118.659 16.826 118.393 16.189C118.133 15.5519 118.003 14.8345 118.003 14.0366C118.003 13.3068 118.118 12.6265 118.347 11.9956C118.582 11.3647 118.906 10.8174 119.321 10.3535C119.741 9.88965 120.242 9.52783 120.824 9.26807C121.405 9.00212 122.048 8.86914 122.753 8.86914C123.409 8.86914 124.018 8.98975 124.581 9.23096C125.144 9.46598 125.632 9.79997 126.047 10.2329C126.461 10.6597 126.786 11.173 127.021 11.7729C127.256 12.3729 127.374 13.0347 127.374 13.7583V14.918H120.666ZM122.744 11.0957C122.194 11.0957 121.727 11.2812 121.343 11.6523C120.966 12.0173 120.746 12.4595 120.685 12.979H124.692C124.68 12.4533 124.488 12.008 124.117 11.6431C123.746 11.2782 123.288 11.0957 122.744 11.0957Z" fill="white"/>
<rect width="256" height="27" transform="translate(145)" fill="#1D70B8"/>
<path d="M160.721 16.5322H155.794L155.043 19H152.186L156.537 5.69629H160.071L164.487 19H161.481L160.721 16.5322ZM156.518 14.1572H159.997L158.271 8.53516H158.234L156.518 14.1572ZM168.319 22.1357H165.758V9.06396H168.319V9.91748C168.597 9.62679 168.94 9.37939 169.349 9.17529C169.757 8.97119 170.252 8.86914 170.833 8.86914C171.489 8.86914 172.082 9.00212 172.614 9.26807C173.152 9.52783 173.613 9.88965 173.997 10.3535C174.38 10.8112 174.677 11.3555 174.887 11.9863C175.097 12.6172 175.203 13.3006 175.203 14.0366C175.203 14.7726 175.094 15.4561 174.878 16.0869C174.661 16.7178 174.358 17.262 173.969 17.7197C173.579 18.1774 173.112 18.5361 172.568 18.7959C172.024 19.0557 171.424 19.1855 170.768 19.1855C170.477 19.1855 170.211 19.1577 169.97 19.1021C169.735 19.0526 169.519 18.9814 169.321 18.8887C169.123 18.7959 168.94 18.6877 168.773 18.564C168.606 18.4341 168.455 18.2949 168.319 18.1465V22.1357ZM168.245 14.9551C168.245 15.221 168.291 15.4684 168.384 15.6973C168.483 15.9199 168.622 16.1147 168.801 16.2817C168.981 16.4487 169.194 16.5786 169.441 16.6714C169.695 16.7642 169.979 16.8105 170.295 16.8105C170.66 16.8105 170.981 16.7456 171.26 16.6157C171.544 16.4797 171.782 16.291 171.974 16.0498C172.166 15.8086 172.311 15.5241 172.41 15.1963C172.509 14.8623 172.559 14.4974 172.559 14.1016V13.981C172.559 13.5851 172.509 13.2202 172.41 12.8862C172.311 12.5522 172.166 12.2646 171.974 12.0234C171.782 11.776 171.544 11.5843 171.26 11.4482C170.981 11.3122 170.66 11.2441 170.295 11.2441C169.979 11.2441 169.695 11.2905 169.441 11.3833C169.194 11.4761 168.981 11.606 168.801 11.7729C168.622 11.9399 168.483 12.1379 168.384 12.3667C168.291 12.5955 168.245 12.8429 168.245 13.1089V14.9551ZM179.47 22.1357H176.91V9.06396H179.47V9.91748C179.749 9.62679 180.092 9.37939 180.5 9.17529C180.908 8.97119 181.403 8.86914 181.984 8.86914C182.64 8.86914 183.234 9.00212 183.766 9.26807C184.304 9.52783 184.764 9.88965 185.148 10.3535C185.531 10.8112 185.828 11.3555 186.039 11.9863C186.249 12.6172 186.354 13.3006 186.354 14.0366C186.354 14.7726 186.246 15.4561 186.029 16.0869C185.813 16.7178 185.51 17.262 185.12 17.7197C184.73 18.1774 184.264 18.5361 183.719 18.7959C183.175 19.0557 182.575 19.1855 181.919 19.1855C181.629 19.1855 181.363 19.1577 181.122 19.1021C180.887 19.0526 180.67 18.9814 180.472 18.8887C180.274 18.7959 180.092 18.6877 179.925 18.564C179.758 18.4341 179.606 18.2949 179.47 18.1465V22.1357ZM179.396 14.9551C179.396 15.221 179.442 15.4684 179.535 15.6973C179.634 15.9199 179.773 16.1147 179.953 16.2817C180.132 16.4487 180.345 16.5786 180.593 16.6714C180.846 16.7642 181.131 16.8105 181.446 16.8105C181.811 16.8105 182.133 16.7456 182.411 16.6157C182.696 16.4797 182.934 16.291 183.125 16.0498C183.317 15.8086 183.463 15.5241 183.562 15.1963C183.66 14.8623 183.71 14.4974 183.71 14.1016V13.981C183.71 13.5851 183.66 13.2202 183.562 12.8862C183.463 12.5522 183.317 12.2646 183.125 12.0234C182.934 11.776 182.696 11.5843 182.411 11.4482C182.133 11.3122 181.811 11.2441 181.446 11.2441C181.131 11.2441 180.846 11.2905 180.593 11.3833C180.345 11.4761 180.132 11.606 179.953 11.7729C179.773 11.9399 179.634 12.1379 179.535 12.3667C179.442 12.5955 179.396 12.8429 179.396 13.1089V14.9551ZM190.204 14.918C190.247 15.2148 190.34 15.487 190.482 15.7344C190.631 15.9818 190.816 16.1951 191.039 16.3745C191.262 16.5477 191.518 16.6838 191.809 16.7827C192.1 16.8817 192.409 16.9312 192.737 16.9312C193.114 16.9312 193.522 16.86 193.961 16.7178C194.401 16.5693 194.803 16.356 195.167 16.0776L196.401 17.8774C195.938 18.2671 195.368 18.5825 194.694 18.8237C194.02 19.0649 193.303 19.1855 192.542 19.1855C191.855 19.1855 191.209 19.068 190.603 18.833C189.997 18.598 189.465 18.2578 189.007 17.8125C188.556 17.3672 188.197 16.826 187.931 16.189C187.671 15.5519 187.542 14.8345 187.542 14.0366C187.542 13.3068 187.656 12.6265 187.885 11.9956C188.12 11.3647 188.444 10.8174 188.859 10.3535C189.279 9.88965 189.78 9.52783 190.362 9.26807C190.943 9.00212 191.586 8.86914 192.292 8.86914C192.947 8.86914 193.556 8.98975 194.119 9.23096C194.682 9.46598 195.171 9.79997 195.585 10.2329C195.999 10.6597 196.324 11.173 196.559 11.7729C196.794 12.3729 196.912 13.0347 196.912 13.7583V14.918H190.204ZM192.282 11.0957C191.732 11.0957 191.265 11.2812 190.881 11.6523C190.504 12.0173 190.285 12.4595 190.223 12.979H194.23C194.218 12.4533 194.026 12.008 193.655 11.6431C193.284 11.2782 192.826 11.0957 192.282 11.0957ZM198.507 5.69629H201.068V16.3003C201.068 16.5106 201.127 16.6714 201.244 16.7827C201.368 16.894 201.563 16.9497 201.829 16.9497C201.952 16.9497 202.057 16.9435 202.144 16.9312C202.237 16.9126 202.354 16.8879 202.497 16.8569L202.701 19.0371C202.528 19.0618 202.342 19.0866 202.144 19.1113C201.977 19.1299 201.782 19.1453 201.56 19.1577C201.343 19.1763 201.117 19.1855 200.882 19.1855C200.517 19.1855 200.19 19.1392 199.899 19.0464C199.608 18.9536 199.358 18.8175 199.147 18.6382C198.943 18.4526 198.786 18.2238 198.674 17.9517C198.563 17.6795 198.507 17.3641 198.507 17.0054V5.69629ZM204.074 5.69629H206.634V16.3003C206.634 16.5106 206.693 16.6714 206.811 16.7827C206.934 16.894 207.129 16.9497 207.395 16.9497C207.519 16.9497 207.624 16.9435 207.71 16.9312C207.803 16.9126 207.921 16.8879 208.063 16.8569L208.267 19.0371C208.094 19.0618 207.908 19.0866 207.71 19.1113C207.543 19.1299 207.349 19.1453 207.126 19.1577C206.91 19.1763 206.684 19.1855 206.449 19.1855C206.084 19.1855 205.756 19.1392 205.465 19.0464C205.175 18.9536 204.924 18.8175 204.714 18.6382C204.51 18.4526 204.352 18.2238 204.241 17.9517C204.129 17.6795 204.074 17.3641 204.074 17.0054V5.69629ZM212.887 14.9644C212.572 15.0138 212.318 15.1252 212.126 15.2983C211.935 15.4653 211.839 15.6942 211.839 15.9849C211.839 16.3065 211.956 16.5848 212.191 16.8198C212.426 17.0487 212.773 17.1631 213.23 17.1631C213.713 17.1631 214.093 17.0239 214.372 16.7456C214.65 16.4673 214.789 16.0993 214.789 15.6416V14.6396L212.887 14.9644ZM215.207 18.063C215.101 18.1805 214.972 18.3073 214.817 18.4434C214.668 18.5732 214.489 18.6938 214.279 18.8052C214.075 18.9103 213.833 19 213.555 19.0742C213.277 19.1484 212.965 19.1855 212.618 19.1855C212.123 19.1855 211.666 19.1082 211.245 18.9536C210.831 18.7928 210.466 18.5701 210.15 18.2856C209.835 18.0011 209.588 17.6733 209.408 17.3022C209.229 16.925 209.139 16.5168 209.139 16.0776C209.139 15.2798 209.387 14.6273 209.881 14.1201C210.376 13.613 211.06 13.2944 211.932 13.1646L214.789 12.7471V12.5615C214.789 12.1162 214.653 11.7637 214.381 11.5039C214.109 11.2441 213.667 11.1143 213.054 11.1143C212.801 11.1143 212.544 11.1452 212.284 11.207C212.024 11.2627 211.774 11.3276 211.533 11.4019C211.298 11.4761 211.078 11.5627 210.874 11.6616C210.67 11.7544 210.491 11.8379 210.336 11.9121L209.334 9.95459C209.903 9.63916 210.534 9.37939 211.227 9.17529C211.925 8.97119 212.649 8.86914 213.397 8.86914C213.855 8.86914 214.316 8.91862 214.78 9.01758C215.25 9.11035 215.674 9.28353 216.051 9.53711C216.434 9.79069 216.747 10.137 216.988 10.5762C217.229 11.0091 217.35 11.5627 217.35 12.2368V16.3188C217.35 16.6095 217.424 16.826 217.572 16.9683C217.727 17.1043 217.937 17.2311 218.203 17.3486L217.043 19.1855C216.573 19.1361 216.196 19.0155 215.912 18.8237C215.627 18.6258 215.392 18.3722 215.207 18.063ZM219.493 9.06396H222.053V9.91748C222.189 9.78141 222.341 9.65153 222.508 9.52783C222.681 9.39795 222.87 9.28662 223.074 9.19385C223.278 9.09489 223.504 9.01758 223.751 8.96191C224.005 8.90007 224.283 8.86914 224.586 8.86914C225.124 8.86914 225.606 8.95882 226.033 9.13818C226.46 9.31136 226.819 9.55257 227.109 9.86182C227.406 10.1711 227.632 10.5329 227.787 10.9473C227.941 11.3617 228.019 11.8101 228.019 12.2925V19H225.458V13.2202C225.458 12.8677 225.418 12.5708 225.337 12.3296C225.257 12.0822 225.146 11.8843 225.003 11.7358C224.867 11.5812 224.703 11.4699 224.512 11.4019C224.326 11.3276 224.122 11.2905 223.899 11.2905C223.64 11.2905 223.395 11.3369 223.167 11.4297C222.944 11.5225 222.749 11.6647 222.582 11.8564C222.415 12.042 222.285 12.277 222.192 12.5615C222.1 12.846 222.053 13.18 222.053 13.5635V19H219.493V9.06396ZM233.826 16.0405C233.826 16.158 233.842 16.2694 233.873 16.3745C233.903 16.4797 233.956 16.5724 234.03 16.6528C234.111 16.7271 234.222 16.7858 234.364 16.8291C234.507 16.8724 234.689 16.894 234.912 16.894C235.004 16.894 235.11 16.891 235.227 16.8848C235.345 16.8724 235.462 16.86 235.58 16.8477C235.697 16.8353 235.805 16.8198 235.904 16.8013C236.009 16.7827 236.096 16.7673 236.164 16.7549L236.396 19.0186C236.155 19.0495 235.904 19.0773 235.645 19.1021C235.422 19.1268 235.174 19.1453 234.902 19.1577C234.63 19.1763 234.355 19.1855 234.077 19.1855C233.192 19.1855 232.503 18.9845 232.008 18.5825C231.513 18.1805 231.266 17.5404 231.266 16.6621V11.2905H229.475V9.06396H231.266V6.25293L233.826 5.56641V9.06396H236.433V11.2905H233.826V16.0405ZM244.041 19H241.48V9.06396H244.041V19ZM241.211 6.45703C241.211 6.24674 241.251 6.04883 241.332 5.86328C241.412 5.67155 241.52 5.50765 241.656 5.37158C241.799 5.22933 241.962 5.118 242.148 5.0376C242.333 4.95719 242.535 4.91699 242.751 4.91699C242.961 4.91699 243.159 4.95719 243.345 5.0376C243.536 5.118 243.7 5.22933 243.836 5.37158C243.979 5.50765 244.09 5.67155 244.17 5.86328C244.251 6.04883 244.291 6.24674 244.291 6.45703C244.291 6.6735 244.251 6.87451 244.17 7.06006C244.09 7.24561 243.979 7.40951 243.836 7.55176C243.7 7.68783 243.536 7.79606 243.345 7.87646C243.159 7.95687 242.961 7.99707 242.751 7.99707C242.535 7.99707 242.333 7.95687 242.148 7.87646C241.962 7.79606 241.799 7.68783 241.656 7.55176C241.52 7.40951 241.412 7.24561 241.332 7.06006C241.251 6.87451 241.211 6.6735 241.211 6.45703ZM246.249 9.06396H248.809V9.91748C248.945 9.78141 249.097 9.65153 249.264 9.52783C249.437 9.39795 249.625 9.28662 249.83 9.19385C250.034 9.09489 250.259 9.01758 250.507 8.96191C250.76 8.90007 251.039 8.86914 251.342 8.86914C251.88 8.86914 252.362 8.95882 252.789 9.13818C253.216 9.31136 253.575 9.55257 253.865 9.86182C254.162 10.1711 254.388 10.5329 254.542 10.9473C254.697 11.3617 254.774 11.8101 254.774 12.2925V19H252.214V13.2202C252.214 12.8677 252.174 12.5708 252.093 12.3296C252.013 12.0822 251.902 11.8843 251.759 11.7358C251.623 11.5812 251.459 11.4699 251.268 11.4019C251.082 11.3276 250.878 11.2905 250.655 11.2905C250.396 11.2905 250.151 11.3369 249.922 11.4297C249.7 11.5225 249.505 11.6647 249.338 11.8564C249.171 12.042 249.041 12.277 248.948 12.5615C248.855 12.846 248.809 13.18 248.809 13.5635V19H246.249V9.06396ZM262.911 22.1357H260.35V9.06396H262.911V9.91748C263.189 9.62679 263.532 9.37939 263.94 9.17529C264.349 8.97119 264.843 8.86914 265.425 8.86914C266.08 8.86914 266.674 9.00212 267.206 9.26807C267.744 9.52783 268.205 9.88965 268.588 10.3535C268.972 10.8112 269.269 11.3555 269.479 11.9863C269.689 12.6172 269.794 13.3006 269.794 14.0366C269.794 14.7726 269.686 15.4561 269.47 16.0869C269.253 16.7178 268.95 17.262 268.561 17.7197C268.171 18.1774 267.704 18.5361 267.16 18.7959C266.615 19.0557 266.015 19.1855 265.36 19.1855C265.069 19.1855 264.803 19.1577 264.562 19.1021C264.327 19.0526 264.111 18.9814 263.913 18.8887C263.715 18.7959 263.532 18.6877 263.365 18.564C263.198 18.4341 263.047 18.2949 262.911 18.1465V22.1357ZM262.836 14.9551C262.836 15.221 262.883 15.4684 262.976 15.6973C263.075 15.9199 263.214 16.1147 263.393 16.2817C263.572 16.4487 263.786 16.5786 264.033 16.6714C264.287 16.7642 264.571 16.8105 264.887 16.8105C265.252 16.8105 265.573 16.7456 265.852 16.6157C266.136 16.4797 266.374 16.291 266.566 16.0498C266.758 15.8086 266.903 15.5241 267.002 15.1963C267.101 14.8623 267.15 14.4974 267.15 14.1016V13.981C267.15 13.5851 267.101 13.2202 267.002 12.8862C266.903 12.5522 266.758 12.2646 266.566 12.0234C266.374 11.776 266.136 11.5843 265.852 11.4482C265.573 11.3122 265.252 11.2441 264.887 11.2441C264.571 11.2441 264.287 11.2905 264.033 11.3833C263.786 11.4761 263.572 11.606 263.393 11.7729C263.214 11.9399 263.075 12.1379 262.976 12.3667C262.883 12.5955 262.836 12.8429 262.836 13.1089V14.9551ZM273.645 14.918C273.688 15.2148 273.781 15.487 273.923 15.7344C274.071 15.9818 274.257 16.1951 274.479 16.3745C274.702 16.5477 274.959 16.6838 275.25 16.7827C275.54 16.8817 275.849 16.9312 276.177 16.9312C276.555 16.9312 276.963 16.86 277.402 16.7178C277.841 16.5693 278.243 16.356 278.608 16.0776L279.842 17.8774C279.378 18.2671 278.809 18.5825 278.135 18.8237C277.461 19.0649 276.743 19.1855 275.982 19.1855C275.296 19.1855 274.65 19.068 274.043 18.833C273.437 18.598 272.905 18.2578 272.448 17.8125C271.996 17.3672 271.638 16.826 271.372 16.189C271.112 15.5519 270.982 14.8345 270.982 14.0366C270.982 13.3068 271.096 12.6265 271.325 11.9956C271.56 11.3647 271.885 10.8174 272.299 10.3535C272.72 9.88965 273.221 9.52783 273.802 9.26807C274.384 9.00212 275.027 8.86914 275.732 8.86914C276.388 8.86914 276.997 8.98975 277.56 9.23096C278.122 9.46598 278.611 9.79997 279.025 10.2329C279.44 10.6597 279.764 11.173 280 11.7729C280.235 12.3729 280.352 13.0347 280.352 13.7583V14.918H273.645ZM275.723 11.0957C275.172 11.0957 274.705 11.2812 274.322 11.6523C273.944 12.0173 273.725 12.4595 273.663 12.979H277.671C277.659 12.4533 277.467 12.008 277.096 11.6431C276.725 11.2782 276.267 11.0957 275.723 11.0957ZM287.57 11.5503H287.301C286.936 11.5503 286.586 11.5874 286.252 11.6616C285.925 11.7358 285.634 11.8719 285.38 12.0698C285.127 12.2616 284.923 12.5275 284.768 12.8677C284.62 13.2078 284.545 13.6439 284.545 14.1758V19H281.985V9.06396H284.545V10.1865C284.651 10.0195 284.787 9.85872 284.954 9.7041C285.121 9.54948 285.315 9.41341 285.538 9.2959C285.761 9.1722 286.011 9.07324 286.29 8.99902C286.568 8.9248 286.868 8.8877 287.189 8.8877H287.57V11.5503ZM289.871 15.8271C290.236 16.1549 290.672 16.4364 291.179 16.6714C291.686 16.9064 292.199 17.0239 292.719 17.0239C293.096 17.0239 293.393 16.9528 293.609 16.8105C293.826 16.6621 293.934 16.4735 293.934 16.2446C293.934 15.855 293.517 15.5519 292.682 15.3354L291.958 15.1406C291.599 15.054 291.237 14.9365 290.873 14.7881C290.508 14.6335 290.171 14.4325 289.861 14.1851C289.558 13.9377 289.311 13.6377 289.119 13.2852C288.934 12.9264 288.841 12.4873 288.841 11.9678C288.841 11.5534 288.931 11.1606 289.11 10.7896C289.295 10.4123 289.555 10.0814 289.889 9.79688C290.229 9.51237 290.641 9.28662 291.123 9.11963C291.605 8.95264 292.144 8.86914 292.737 8.86914C293.585 8.86914 294.339 9.00212 295.001 9.26807C295.669 9.53402 296.195 9.83398 296.578 10.168L295.242 11.875C294.927 11.6462 294.553 11.4513 294.12 11.2905C293.693 11.1235 293.263 11.04 292.83 11.04C292.428 11.04 292.116 11.1143 291.893 11.2627C291.67 11.4049 291.559 11.5781 291.559 11.7822C291.559 11.9987 291.655 12.175 291.847 12.311C292.045 12.4409 292.329 12.5553 292.7 12.6543L293.776 12.9604C294.803 13.2511 295.539 13.6439 295.984 14.1387C296.43 14.6335 296.652 15.2581 296.652 16.0127C296.652 16.4333 296.566 16.8353 296.393 17.2188C296.219 17.596 295.966 17.9331 295.632 18.23C295.298 18.5269 294.883 18.7619 294.389 18.9351C293.894 19.1021 293.331 19.1855 292.7 19.1855C292.218 19.1855 291.763 19.1423 291.336 19.0557C290.916 18.9691 290.523 18.8516 290.158 18.7031C289.799 18.5485 289.475 18.3753 289.184 18.1836C288.893 17.9919 288.646 17.8001 288.442 17.6084L289.871 15.8271ZM302.683 8.86914C303.419 8.86914 304.087 9.00212 304.687 9.26807C305.286 9.52783 305.8 9.88965 306.227 10.3535C306.653 10.8174 306.981 11.3647 307.21 11.9956C307.445 12.6265 307.562 13.3068 307.562 14.0366C307.562 14.7726 307.445 15.4561 307.21 16.0869C306.975 16.7116 306.644 17.2528 306.217 17.7104C305.791 18.1681 305.277 18.5299 304.677 18.7959C304.077 19.0557 303.412 19.1855 302.683 19.1855C301.947 19.1855 301.279 19.0557 300.679 18.7959C300.079 18.5299 299.565 18.1681 299.139 17.7104C298.712 17.2528 298.381 16.7116 298.146 16.0869C297.911 15.4561 297.793 14.7726 297.793 14.0366C297.793 13.3068 297.908 12.6265 298.137 11.9956C298.372 11.3647 298.703 10.8174 299.129 10.3535C299.556 9.88965 300.069 9.52783 300.669 9.26807C301.276 9.00212 301.947 8.86914 302.683 8.86914ZM302.683 16.8105C303.048 16.8105 303.369 16.7425 303.647 16.6064C303.932 16.4704 304.17 16.2817 304.362 16.0405C304.554 15.7993 304.699 15.5117 304.798 15.1777C304.897 14.8376 304.946 14.4665 304.946 14.0645V13.9995C304.946 13.5975 304.897 13.2295 304.798 12.8955C304.699 12.5553 304.554 12.2646 304.362 12.0234C304.17 11.776 303.932 11.5843 303.647 11.4482C303.369 11.3122 303.048 11.2441 302.683 11.2441C302.318 11.2441 301.993 11.3122 301.708 11.4482C301.43 11.5843 301.195 11.776 301.003 12.0234C300.812 12.2646 300.666 12.5553 300.567 12.8955C300.468 13.2295 300.419 13.5975 300.419 13.9995V14.0645C300.419 14.4665 300.468 14.8376 300.567 15.1777C300.666 15.5117 300.812 15.7993 301.003 16.0405C301.195 16.2817 301.43 16.4704 301.708 16.6064C301.993 16.7425 302.318 16.8105 302.683 16.8105ZM309.26 9.06396H311.821V9.91748C311.957 9.78141 312.108 9.65153 312.275 9.52783C312.449 9.39795 312.637 9.28662 312.841 9.19385C313.045 9.09489 313.271 9.01758 313.519 8.96191C313.772 8.90007 314.05 8.86914 314.354 8.86914C314.892 8.86914 315.374 8.95882 315.801 9.13818C316.228 9.31136 316.586 9.55257 316.877 9.86182C317.174 10.1711 317.4 10.5329 317.554 10.9473C317.709 11.3617 317.786 11.8101 317.786 12.2925V19H315.226V13.2202C315.226 12.8677 315.185 12.5708 315.105 12.3296C315.025 12.0822 314.913 11.8843 314.771 11.7358C314.635 11.5812 314.471 11.4699 314.279 11.4019C314.094 11.3276 313.89 11.2905 313.667 11.2905C313.407 11.2905 313.163 11.3369 312.934 11.4297C312.711 11.5225 312.517 11.6647 312.35 11.8564C312.183 12.042 312.053 12.277 311.96 12.5615C311.867 12.846 311.821 13.18 311.821 13.5635V19H309.26V9.06396ZM322.638 11.9121H326.627V14.2129H322.638V11.9121ZM339.922 19H337.352V13.2202C337.352 12.8677 337.312 12.5708 337.231 12.3296C337.157 12.0822 337.052 11.8843 336.916 11.7358C336.78 11.5812 336.622 11.473 336.443 11.4111C336.264 11.3431 336.069 11.3091 335.858 11.3091C335.611 11.3091 335.379 11.3524 335.163 11.439C334.952 11.5256 334.767 11.6616 334.606 11.8472C334.451 12.0327 334.328 12.2708 334.235 12.5615C334.148 12.846 334.105 13.1862 334.105 13.582V19H331.544V9.06396H334.105V9.93604C334.433 9.57113 334.813 9.30208 335.246 9.12891C335.685 8.95573 336.155 8.86914 336.656 8.86914C337.17 8.86914 337.649 8.97428 338.094 9.18457C338.546 9.39486 338.92 9.74121 339.217 10.2236C339.39 9.97624 339.588 9.76595 339.811 9.59277C340.039 9.4196 340.284 9.28044 340.543 9.17529C340.803 9.07015 341.072 8.99284 341.351 8.94336C341.635 8.89388 341.926 8.86914 342.223 8.86914C342.779 8.86914 343.274 8.96191 343.707 9.14746C344.146 9.32682 344.517 9.57113 344.82 9.88037C345.123 10.1896 345.355 10.5452 345.516 10.9473C345.677 11.3493 345.757 11.7729 345.757 12.2183V19H343.169V13.2202C343.169 12.8677 343.129 12.5708 343.048 12.3296C342.974 12.0822 342.869 11.8843 342.733 11.7358C342.597 11.5812 342.436 11.473 342.25 11.4111C342.071 11.3431 341.876 11.3091 341.666 11.3091C341.419 11.3091 341.19 11.3524 340.979 11.439C340.769 11.5256 340.584 11.6616 340.423 11.8472C340.268 12.0327 340.145 12.2708 340.052 12.5615C339.965 12.846 339.922 13.1862 339.922 13.582V19ZM351.101 14.9644C350.786 15.0138 350.532 15.1252 350.34 15.2983C350.149 15.4653 350.053 15.6942 350.053 15.9849C350.053 16.3065 350.17 16.5848 350.405 16.8198C350.64 17.0487 350.987 17.1631 351.444 17.1631C351.927 17.1631 352.307 17.0239 352.585 16.7456C352.864 16.4673 353.003 16.0993 353.003 15.6416V14.6396L351.101 14.9644ZM353.42 18.063C353.315 18.1805 353.185 18.3073 353.031 18.4434C352.882 18.5732 352.703 18.6938 352.493 18.8052C352.289 18.9103 352.047 19 351.769 19.0742C351.491 19.1484 351.178 19.1855 350.832 19.1855C350.337 19.1855 349.88 19.1082 349.459 18.9536C349.045 18.7928 348.68 18.5701 348.364 18.2856C348.049 18.0011 347.801 17.6733 347.622 17.3022C347.443 16.925 347.353 16.5168 347.353 16.0776C347.353 15.2798 347.6 14.6273 348.095 14.1201C348.59 13.613 349.273 13.2944 350.146 13.1646L353.003 12.7471V12.5615C353.003 12.1162 352.867 11.7637 352.595 11.5039C352.323 11.2441 351.88 11.1143 351.268 11.1143C351.014 11.1143 350.758 11.1452 350.498 11.207C350.238 11.2627 349.988 11.3276 349.747 11.4019C349.512 11.4761 349.292 11.5627 349.088 11.6616C348.884 11.7544 348.704 11.8379 348.55 11.9121L347.548 9.95459C348.117 9.63916 348.748 9.37939 349.44 9.17529C350.139 8.97119 350.863 8.86914 351.611 8.86914C352.069 8.86914 352.53 8.91862 352.994 9.01758C353.464 9.11035 353.887 9.28353 354.265 9.53711C354.648 9.79069 354.96 10.137 355.202 10.5762C355.443 11.0091 355.563 11.5627 355.563 12.2368V16.3188C355.563 16.6095 355.638 16.826 355.786 16.9683C355.941 17.1043 356.151 17.2311 356.417 17.3486L355.257 19.1855C354.787 19.1361 354.41 19.0155 354.125 18.8237C353.841 18.6258 353.606 18.3722 353.42 18.063ZM357.707 9.06396H360.267V9.91748C360.403 9.78141 360.555 9.65153 360.722 9.52783C360.895 9.39795 361.083 9.28662 361.288 9.19385C361.492 9.09489 361.717 9.01758 361.965 8.96191C362.218 8.90007 362.497 8.86914 362.8 8.86914C363.338 8.86914 363.82 8.95882 364.247 9.13818C364.674 9.31136 365.033 9.55257 365.323 9.86182C365.62 10.1711 365.846 10.5329 366 10.9473C366.155 11.3617 366.232 11.8101 366.232 12.2925V19H363.672V13.2202C363.672 12.8677 363.632 12.5708 363.551 12.3296C363.471 12.0822 363.36 11.8843 363.217 11.7358C363.081 11.5812 362.917 11.4699 362.726 11.4019C362.54 11.3276 362.336 11.2905 362.113 11.2905C361.854 11.2905 361.609 11.3369 361.38 11.4297C361.158 11.5225 360.963 11.6647 360.796 11.8564C360.629 12.042 360.499 12.277 360.406 12.5615C360.313 12.846 360.267 13.18 360.267 13.5635V19H357.707V9.06396ZM376.827 19H374.267V18.1465C374.124 18.2826 373.97 18.4155 373.803 18.5454C373.636 18.6691 373.45 18.7804 373.246 18.8794C373.042 18.9722 372.813 19.0464 372.56 19.1021C372.312 19.1577 372.037 19.1855 371.734 19.1855C371.196 19.1855 370.713 19.099 370.287 18.9258C369.86 18.7464 369.498 18.5052 369.201 18.2021C368.91 17.8929 368.688 17.5311 368.533 17.1167C368.379 16.7023 368.301 16.2539 368.301 15.7715V9.06396H370.862V14.8345C370.862 15.187 370.899 15.487 370.973 15.7344C371.054 15.9818 371.162 16.1828 371.298 16.3374C371.44 16.4858 371.607 16.5972 371.799 16.6714C371.991 16.7394 372.198 16.7734 372.42 16.7734C372.68 16.7734 372.921 16.7271 373.144 16.6343C373.373 16.5415 373.571 16.4023 373.738 16.2168C373.905 16.0251 374.035 15.7869 374.127 15.5024C374.22 15.2179 374.267 14.884 374.267 14.5005V9.06396H376.827V19ZM382.254 14.9644C381.939 15.0138 381.685 15.1252 381.494 15.2983C381.302 15.4653 381.206 15.6942 381.206 15.9849C381.206 16.3065 381.324 16.5848 381.559 16.8198C381.794 17.0487 382.14 17.1631 382.598 17.1631C383.08 17.1631 383.46 17.0239 383.739 16.7456C384.017 16.4673 384.156 16.0993 384.156 15.6416V14.6396L382.254 14.9644ZM384.574 18.063C384.469 18.1805 384.339 18.3073 384.184 18.4434C384.036 18.5732 383.856 18.6938 383.646 18.8052C383.442 18.9103 383.201 19 382.922 19.0742C382.644 19.1484 382.332 19.1855 381.985 19.1855C381.491 19.1855 381.033 19.1082 380.612 18.9536C380.198 18.7928 379.833 18.5701 379.518 18.2856C379.202 18.0011 378.955 17.6733 378.775 17.3022C378.596 16.925 378.506 16.5168 378.506 16.0776C378.506 15.2798 378.754 14.6273 379.249 14.1201C379.743 13.613 380.427 13.2944 381.299 13.1646L384.156 12.7471V12.5615C384.156 12.1162 384.02 11.7637 383.748 11.5039C383.476 11.2441 383.034 11.1143 382.421 11.1143C382.168 11.1143 381.911 11.1452 381.651 11.207C381.392 11.2627 381.141 11.3276 380.9 11.4019C380.665 11.4761 380.445 11.5627 380.241 11.6616C380.037 11.7544 379.858 11.8379 379.703 11.9121L378.701 9.95459C379.27 9.63916 379.901 9.37939 380.594 9.17529C381.293 8.97119 382.016 8.86914 382.765 8.86914C383.222 8.86914 383.683 8.91862 384.147 9.01758C384.617 9.11035 385.041 9.28353 385.418 9.53711C385.801 9.79069 386.114 10.137 386.355 10.5762C386.596 11.0091 386.717 11.5627 386.717 12.2368V16.3188C386.717 16.6095 386.791 16.826 386.939 16.9683C387.094 17.1043 387.304 17.2311 387.57 17.3486L386.411 19.1855C385.941 19.1361 385.563 19.0155 385.279 18.8237C384.994 18.6258 384.759 18.3722 384.574 18.063ZM388.823 5.69629H391.383V16.3003C391.383 16.5106 391.442 16.6714 391.56 16.7827C391.683 16.894 391.878 16.9497 392.144 16.9497C392.268 16.9497 392.373 16.9435 392.459 16.9312C392.552 16.9126 392.67 16.8879 392.812 16.8569L393.016 19.0371C392.843 19.0618 392.657 19.0866 392.459 19.1113C392.292 19.1299 392.098 19.1453 391.875 19.1577C391.659 19.1763 391.433 19.1855 391.198 19.1855C390.833 19.1855 390.505 19.1392 390.214 19.0464C389.924 18.9536 389.673 18.8175 389.463 18.6382C389.259 18.4526 389.101 18.2238 388.99 17.9517C388.878 17.6795 388.823 17.3641 388.823 17.0054V5.69629Z" fill="white"/>
<rect width="125" height="27" transform="translate(411)" fill="#EB3223"/>
<path d="M420.282 15.2612C420.455 15.4591 420.666 15.654 420.913 15.8457C421.16 16.0374 421.433 16.2106 421.729 16.3652C422.033 16.5137 422.36 16.6343 422.713 16.7271C423.065 16.8136 423.446 16.8569 423.854 16.8569C424.615 16.8569 425.196 16.6992 425.598 16.3838C426.006 16.0622 426.21 15.6725 426.21 15.2148C426.21 14.7386 426.031 14.3768 425.672 14.1294C425.32 13.882 424.757 13.6872 423.984 13.5449L423.566 13.4707C423.01 13.3717 422.456 13.2419 421.906 13.0811C421.355 12.9202 420.857 12.6883 420.412 12.3853C419.967 12.0822 419.605 11.6956 419.327 11.2256C419.048 10.7493 418.909 10.1494 418.909 9.42578C418.909 9.00521 419.002 8.56608 419.188 8.1084C419.373 7.64453 419.667 7.22087 420.069 6.8374C420.477 6.44775 421 6.12923 421.637 5.88184C422.28 5.63444 423.056 5.51074 423.965 5.51074C425.042 5.51074 426 5.6901 426.841 6.04883C427.689 6.40137 428.372 6.86833 428.892 7.44971L427.101 9.11963C426.736 8.71761 426.266 8.40218 425.691 8.17334C425.122 7.9445 424.534 7.83008 423.928 7.83008C423.229 7.83008 422.682 7.96305 422.286 8.229C421.896 8.49495 421.702 8.84131 421.702 9.26807C421.702 9.54639 421.764 9.77832 421.887 9.96387C422.017 10.1494 422.196 10.304 422.425 10.4277C422.654 10.5452 422.929 10.6442 423.251 10.7246C423.573 10.805 423.931 10.8854 424.327 10.9658L424.541 11.0029C425.072 11.1019 425.601 11.2287 426.127 11.3833C426.653 11.5317 427.129 11.7544 427.556 12.0513C427.989 12.342 428.338 12.7254 428.604 13.2017C428.87 13.6717 429.003 14.2747 429.003 15.0107C429.003 15.6787 428.864 16.2694 428.585 16.7827C428.307 17.2961 427.939 17.7352 427.481 18.1001C427.024 18.4588 426.495 18.731 425.895 18.9165C425.295 19.0959 424.67 19.1855 424.021 19.1855C423.365 19.1855 422.756 19.1299 422.193 19.0186C421.637 18.9072 421.13 18.7495 420.672 18.5454C420.22 18.3413 419.815 18.1125 419.457 17.8589C419.104 17.6053 418.795 17.3332 418.529 17.0425L420.282 15.2612ZM441.063 12.2183C441.063 12.8182 441.017 13.4058 440.924 13.981C440.832 14.5562 440.686 15.1035 440.488 15.623C440.297 16.1364 440.049 16.6126 439.746 17.0518C439.443 17.4847 439.078 17.8589 438.651 18.1743C438.225 18.4897 437.733 18.7371 437.176 18.9165C436.626 19.0959 436.004 19.1855 435.312 19.1855C434.743 19.1855 434.217 19.1175 433.734 18.9814C433.252 18.8392 432.816 18.6475 432.426 18.4062C432.037 18.165 431.7 17.8805 431.415 17.5527C431.131 17.2188 430.908 16.86 430.747 16.4766L433.233 15.5024C433.456 15.923 433.753 16.2415 434.124 16.458C434.501 16.6683 434.928 16.7734 435.404 16.7734C435.868 16.7734 436.276 16.6838 436.629 16.5044C436.981 16.3188 437.272 16.0684 437.501 15.7529C437.736 15.4375 437.912 15.0726 438.03 14.6582C438.147 14.2376 438.203 13.7923 438.197 13.3223C438.042 13.4769 437.86 13.6253 437.649 13.7676C437.439 13.9098 437.204 14.0366 436.944 14.1479C436.691 14.2531 436.412 14.3397 436.109 14.4077C435.812 14.4696 435.5 14.5005 435.172 14.5005C434.523 14.5005 433.917 14.3953 433.354 14.1851C432.797 13.9686 432.312 13.6717 431.897 13.2944C431.489 12.911 431.168 12.4564 430.933 11.9307C430.698 11.4049 430.58 10.8298 430.58 10.2051C430.58 9.53711 430.698 8.91553 430.933 8.34033C431.174 7.76514 431.511 7.27035 431.944 6.85596C432.383 6.43538 432.909 6.10758 433.521 5.87256C434.133 5.63135 434.817 5.51074 435.571 5.51074C436.4 5.51074 437.152 5.65918 437.826 5.95605C438.5 6.24674 439.075 6.66732 439.551 7.21777C440.034 7.76823 440.405 8.43929 440.665 9.23096C440.931 10.0226 441.063 10.9163 441.063 11.9121V12.2183ZM438.067 10.0474C438.067 9.73193 438.011 9.43815 437.9 9.16602C437.789 8.89388 437.628 8.65885 437.417 8.46094C437.213 8.25684 436.966 8.09912 436.675 7.98779C436.385 7.87028 436.063 7.81152 435.71 7.81152C435.346 7.81152 435.018 7.87028 434.727 7.98779C434.436 8.09912 434.189 8.25684 433.985 8.46094C433.781 8.65885 433.623 8.89388 433.512 9.16602C433.407 9.43815 433.354 9.73193 433.354 10.0474C433.354 10.3566 433.407 10.6473 433.512 10.9194C433.623 11.1916 433.781 11.4297 433.985 11.6338C434.189 11.8317 434.436 11.9894 434.727 12.1069C435.018 12.2183 435.346 12.2739 435.71 12.2739C436.063 12.2739 436.385 12.2183 436.675 12.1069C436.966 11.9894 437.213 11.8317 437.417 11.6338C437.628 11.4297 437.789 11.1916 437.9 10.9194C438.011 10.6473 438.067 10.3566 438.067 10.0474ZM448.894 19V15.9941H442.26V13.1274L448.151 5.69629H451.593V13.5635H453.532V15.9941H451.593V19H448.894ZM448.894 13.5635V8.34033L444.756 13.5635H448.894ZM461.362 5.69629C461.919 5.69629 462.435 5.77979 462.912 5.94678C463.388 6.10758 463.802 6.33952 464.155 6.64258C464.507 6.94564 464.783 7.31364 464.98 7.74658C465.178 8.17334 465.277 8.64958 465.277 9.17529C465.277 9.44743 465.237 9.71647 465.157 9.98242C465.083 10.2484 464.971 10.4989 464.823 10.7339C464.674 10.9627 464.495 11.173 464.285 11.3647C464.074 11.5565 463.836 11.7142 463.57 11.8379C463.787 11.9121 464.037 12.0234 464.322 12.1719C464.612 12.3203 464.888 12.5244 465.147 12.7842C465.407 13.0439 465.627 13.3656 465.806 13.749C465.986 14.1263 466.075 14.584 466.075 15.1221C466.075 15.7962 465.945 16.3776 465.686 16.8662C465.432 17.3548 465.086 17.7568 464.646 18.0723C464.214 18.3877 463.703 18.6227 463.116 18.7773C462.534 18.9258 461.919 19 461.27 19H455.443V5.69629H461.362ZM463.32 15.0293C463.32 14.6706 463.255 14.3768 463.125 14.1479C462.995 13.9191 462.822 13.7367 462.605 13.6006C462.395 13.4645 462.154 13.3717 461.882 13.3223C461.61 13.2666 461.331 13.2388 461.047 13.2388H458.134V16.8755H461.047C461.331 16.8755 461.61 16.8477 461.882 16.792C462.154 16.7363 462.395 16.6374 462.605 16.4951C462.822 16.3529 462.995 16.1642 463.125 15.9292C463.255 15.6942 463.32 15.3942 463.32 15.0293ZM462.568 9.44434C462.568 8.93717 462.408 8.54134 462.086 8.25684C461.764 7.97233 461.245 7.83008 460.527 7.83008H458.134V10.9658H460.527C461.232 10.9658 461.749 10.8328 462.077 10.5669C462.404 10.2948 462.568 9.92057 462.568 9.44434ZM474.453 14.9644C474.137 15.0138 473.884 15.1252 473.692 15.2983C473.5 15.4653 473.404 15.6942 473.404 15.9849C473.404 16.3065 473.522 16.5848 473.757 16.8198C473.992 17.0487 474.338 17.1631 474.796 17.1631C475.278 17.1631 475.659 17.0239 475.937 16.7456C476.215 16.4673 476.354 16.0993 476.354 15.6416V14.6396L474.453 14.9644ZM476.772 18.063C476.667 18.1805 476.537 18.3073 476.382 18.4434C476.234 18.5732 476.055 18.6938 475.844 18.8052C475.64 18.9103 475.399 19 475.121 19.0742C474.842 19.1484 474.53 19.1855 474.184 19.1855C473.689 19.1855 473.231 19.1082 472.811 18.9536C472.396 18.7928 472.031 18.5701 471.716 18.2856C471.4 18.0011 471.153 17.6733 470.974 17.3022C470.794 16.925 470.705 16.5168 470.705 16.0776C470.705 15.2798 470.952 14.6273 471.447 14.1201C471.942 13.613 472.625 13.2944 473.497 13.1646L476.354 12.7471V12.5615C476.354 12.1162 476.218 11.7637 475.946 11.5039C475.674 11.2441 475.232 11.1143 474.62 11.1143C474.366 11.1143 474.109 11.1452 473.85 11.207C473.59 11.2627 473.339 11.3276 473.098 11.4019C472.863 11.4761 472.644 11.5627 472.439 11.6616C472.235 11.7544 472.056 11.8379 471.901 11.9121L470.899 9.95459C471.468 9.63916 472.099 9.37939 472.792 9.17529C473.491 8.97119 474.215 8.86914 474.963 8.86914C475.421 8.86914 475.881 8.91862 476.345 9.01758C476.815 9.11035 477.239 9.28353 477.616 9.53711C478 9.79069 478.312 10.137 478.553 10.5762C478.794 11.0091 478.915 11.5627 478.915 12.2368V16.3188C478.915 16.6095 478.989 16.826 479.138 16.9683C479.292 17.1043 479.503 17.2311 479.769 17.3486L478.609 19.1855C478.139 19.1361 477.762 19.0155 477.477 18.8237C477.193 18.6258 476.958 18.3722 476.772 18.063ZM483.619 22.1357H481.058V9.06396H483.619V9.91748C483.897 9.62679 484.24 9.37939 484.648 9.17529C485.057 8.97119 485.551 8.86914 486.133 8.86914C486.788 8.86914 487.382 9.00212 487.914 9.26807C488.452 9.52783 488.913 9.88965 489.296 10.3535C489.68 10.8112 489.977 11.3555 490.187 11.9863C490.397 12.6172 490.502 13.3006 490.502 14.0366C490.502 14.7726 490.394 15.4561 490.178 16.0869C489.961 16.7178 489.658 17.262 489.269 17.7197C488.879 18.1774 488.412 18.5361 487.868 18.7959C487.323 19.0557 486.723 19.1855 486.068 19.1855C485.777 19.1855 485.511 19.1577 485.27 19.1021C485.035 19.0526 484.819 18.9814 484.621 18.8887C484.423 18.7959 484.24 18.6877 484.073 18.564C483.906 18.4341 483.755 18.2949 483.619 18.1465V22.1357ZM483.544 14.9551C483.544 15.221 483.591 15.4684 483.684 15.6973C483.783 15.9199 483.922 16.1147 484.101 16.2817C484.28 16.4487 484.494 16.5786 484.741 16.6714C484.995 16.7642 485.279 16.8105 485.595 16.8105C485.96 16.8105 486.281 16.7456 486.56 16.6157C486.844 16.4797 487.082 16.291 487.274 16.0498C487.466 15.8086 487.611 15.5241 487.71 15.1963C487.809 14.8623 487.858 14.4974 487.858 14.1016V13.981C487.858 13.5851 487.809 13.2202 487.71 12.8862C487.611 12.5522 487.466 12.2646 487.274 12.0234C487.082 11.776 486.844 11.5843 486.56 11.4482C486.281 11.3122 485.96 11.2441 485.595 11.2441C485.279 11.2441 484.995 11.2905 484.741 11.3833C484.494 11.4761 484.28 11.606 484.101 11.7729C483.922 11.9399 483.783 12.1379 483.684 12.3667C483.591 12.5955 483.544 12.8429 483.544 13.1089V14.9551ZM494.77 22.1357H492.209V9.06396H494.77V9.91748C495.048 9.62679 495.392 9.37939 495.8 9.17529C496.208 8.97119 496.703 8.86914 497.284 8.86914C497.94 8.86914 498.534 9.00212 499.065 9.26807C499.604 9.52783 500.064 9.88965 500.448 10.3535C500.831 10.8112 501.128 11.3555 501.338 11.9863C501.549 12.6172 501.654 13.3006 501.654 14.0366C501.654 14.7726 501.546 15.4561 501.329 16.0869C501.113 16.7178 500.81 17.262 500.42 17.7197C500.03 18.1774 499.563 18.5361 499.019 18.7959C498.475 19.0557 497.875 19.1855 497.219 19.1855C496.929 19.1855 496.663 19.1577 496.421 19.1021C496.186 19.0526 495.97 18.9814 495.772 18.8887C495.574 18.7959 495.392 18.6877 495.225 18.564C495.058 18.4341 494.906 18.2949 494.77 18.1465V22.1357ZM494.696 14.9551C494.696 15.221 494.742 15.4684 494.835 15.6973C494.934 15.9199 495.073 16.1147 495.252 16.2817C495.432 16.4487 495.645 16.5786 495.893 16.6714C496.146 16.7642 496.431 16.8105 496.746 16.8105C497.111 16.8105 497.433 16.7456 497.711 16.6157C497.995 16.4797 498.234 16.291 498.425 16.0498C498.617 15.8086 498.762 15.5241 498.861 15.1963C498.96 14.8623 499.01 14.4974 499.01 14.1016V13.981C499.01 13.5851 498.96 13.2202 498.861 12.8862C498.762 12.5522 498.617 12.2646 498.425 12.0234C498.234 11.776 497.995 11.5843 497.711 11.4482C497.433 11.3122 497.111 11.2441 496.746 11.2441C496.431 11.2441 496.146 11.2905 495.893 11.3833C495.645 11.4761 495.432 11.606 495.252 11.7729C495.073 11.9399 494.934 12.1379 494.835 12.3667C494.742 12.5955 494.696 12.8429 494.696 13.1089V14.9551ZM505.504 14.918C505.547 15.2148 505.64 15.487 505.782 15.7344C505.931 15.9818 506.116 16.1951 506.339 16.3745C506.562 16.5477 506.818 16.6838 507.109 16.7827C507.4 16.8817 507.709 16.9312 508.037 16.9312C508.414 16.9312 508.822 16.86 509.261 16.7178C509.7 16.5693 510.102 16.356 510.467 16.0776L511.701 17.8774C511.237 18.2671 510.668 18.5825 509.994 18.8237C509.32 19.0649 508.603 19.1855 507.842 19.1855C507.155 19.1855 506.509 19.068 505.903 18.833C505.297 18.598 504.765 18.2578 504.307 17.8125C503.856 17.3672 503.497 16.826 503.231 16.189C502.971 15.5519 502.841 14.8345 502.841 14.0366C502.841 13.3068 502.956 12.6265 503.185 11.9956C503.42 11.3647 503.744 10.8174 504.159 10.3535C504.579 9.88965 505.08 9.52783 505.662 9.26807C506.243 9.00212 506.886 8.86914 507.591 8.86914C508.247 8.86914 508.856 8.98975 509.419 9.23096C509.982 9.46598 510.47 9.79997 510.885 10.2329C511.299 10.6597 511.624 11.173 511.859 11.7729C512.094 12.3729 512.211 13.0347 512.211 13.7583V14.918H505.504ZM507.582 11.0957C507.032 11.0957 506.565 11.2812 506.181 11.6523C505.804 12.0173 505.584 12.4595 505.522 12.979H509.53C509.518 12.4533 509.326 12.008 508.955 11.6431C508.584 11.2782 508.126 11.0957 507.582 11.0957ZM517.054 14.9644C516.739 15.0138 516.485 15.1252 516.293 15.2983C516.102 15.4653 516.006 15.6942 516.006 15.9849C516.006 16.3065 516.123 16.5848 516.358 16.8198C516.593 17.0487 516.94 17.1631 517.397 17.1631C517.88 17.1631 518.26 17.0239 518.539 16.7456C518.817 16.4673 518.956 16.0993 518.956 15.6416V14.6396L517.054 14.9644ZM519.374 18.063C519.268 18.1805 519.139 18.3073 518.984 18.4434C518.835 18.5732 518.656 18.6938 518.446 18.8052C518.242 18.9103 518 19 517.722 19.0742C517.444 19.1484 517.132 19.1855 516.785 19.1855C516.29 19.1855 515.833 19.1082 515.412 18.9536C514.998 18.7928 514.633 18.5701 514.317 18.2856C514.002 18.0011 513.755 17.6733 513.575 17.3022C513.396 16.925 513.306 16.5168 513.306 16.0776C513.306 15.2798 513.554 14.6273 514.048 14.1201C514.543 13.613 515.227 13.2944 516.099 13.1646L518.956 12.7471V12.5615C518.956 12.1162 518.82 11.7637 518.548 11.5039C518.276 11.2441 517.833 11.1143 517.221 11.1143C516.968 11.1143 516.711 11.1452 516.451 11.207C516.191 11.2627 515.941 11.3276 515.7 11.4019C515.465 11.4761 515.245 11.5627 515.041 11.6616C514.837 11.7544 514.658 11.8379 514.503 11.9121L513.501 9.95459C514.07 9.63916 514.701 9.37939 515.394 9.17529C516.092 8.97119 516.816 8.86914 517.564 8.86914C518.022 8.86914 518.483 8.91862 518.947 9.01758C519.417 9.11035 519.84 9.28353 520.218 9.53711C520.601 9.79069 520.914 10.137 521.155 10.5762C521.396 11.0091 521.517 11.5627 521.517 12.2368V16.3188C521.517 16.6095 521.591 16.826 521.739 16.9683C521.894 17.1043 522.104 17.2311 522.37 17.3486L521.21 19.1855C520.74 19.1361 520.363 19.0155 520.079 18.8237C519.794 18.6258 519.559 18.3722 519.374 18.063ZM523.623 5.69629H526.183V16.3003C526.183 16.5106 526.242 16.6714 526.359 16.7827C526.483 16.894 526.678 16.9497 526.944 16.9497C527.068 16.9497 527.173 16.9435 527.259 16.9312C527.352 16.9126 527.47 16.8879 527.612 16.8569L527.816 19.0371C527.643 19.0618 527.457 19.0866 527.259 19.1113C527.092 19.1299 526.897 19.1453 526.675 19.1577C526.458 19.1763 526.233 19.1855 525.998 19.1855C525.633 19.1855 525.305 19.1392 525.014 19.0464C524.723 18.9536 524.473 18.8175 524.263 18.6382C524.059 18.4526 523.901 18.2238 523.79 17.9517C523.678 17.6795 523.623 17.3641 523.623 17.0054V5.69629Z" fill="white"/>
</svg>
