<svg width="827" height="27" viewBox="0 0 827 27" fill="none" xmlns="http://www.w3.org/2000/svg">
<rect width="135" height="27" fill="#001CB8"/>
<path d="M15.0156 14.7046L11.082 9.7876V19H8.3916V5.69629H11.1191L15.0527 10.8916L19.1069 5.69629H21.7231V19H19.0234V9.7876L15.1084 14.7046H15.0156ZM26.7886 19H24.228V9.06396H26.7886V19ZM23.959 6.45703C23.959 6.24674 23.9992 6.04883 24.0796 5.86328C24.16 5.67155 24.2682 5.50765 24.4043 5.37158C24.5465 5.22933 24.7104 5.118 24.896 5.0376C25.0815 4.95719 25.2826 4.91699 25.499 4.91699C25.7093 4.91699 25.9072 4.95719 26.0928 5.0376C26.2845 5.118 26.4484 5.22933 26.5845 5.37158C26.7267 5.50765 26.8381 5.67155 26.9185 5.86328C26.9989 6.04883 27.0391 6.24674 27.0391 6.45703C27.0391 6.6735 26.9989 6.87451 26.9185 7.06006C26.8381 7.24561 26.7267 7.40951 26.5845 7.55176C26.4484 7.68783 26.2845 7.79606 26.0928 7.87646C25.9072 7.95687 25.7093 7.99707 25.499 7.99707C25.2826 7.99707 25.0815 7.95687 24.896 7.87646C24.7104 7.79606 24.5465 7.68783 24.4043 7.55176C24.2682 7.40951 24.16 7.24561 24.0796 7.06006C23.9992 6.87451 23.959 6.6735 23.959 6.45703ZM35.0361 17.2373C34.8073 17.5156 34.4857 17.7383 34.0713 17.9053C33.6631 18.0661 33.2178 18.1465 32.7354 18.1465C32.0674 18.1465 31.4736 18.029 30.9541 17.7939C30.4346 17.5589 29.9954 17.2373 29.6367 16.8291C29.2842 16.4147 29.012 15.9261 28.8203 15.3633C28.6348 14.8005 28.542 14.182 28.542 13.5078C28.542 12.8522 28.6348 12.2399 28.8203 11.6709C29.012 11.0957 29.2842 10.604 29.6367 10.1958C29.9954 9.78141 30.4346 9.45671 30.9541 9.22168C31.4736 8.98665 32.0674 8.86914 32.7354 8.86914C33.2178 8.86914 33.6631 8.95264 34.0713 9.11963C34.4857 9.28662 34.8073 9.50928 35.0361 9.7876V9.06396H37.606V18.9072C37.606 19.5133 37.4915 20.0329 37.2627 20.4658C37.0339 20.9049 36.7184 21.2637 36.3164 21.542C35.9206 21.8203 35.4598 22.0213 34.9341 22.145C34.4084 22.2749 33.8486 22.3398 33.2549 22.3398C32.5312 22.3398 31.7767 22.2533 30.9912 22.0801C30.2057 21.9131 29.5285 21.7028 28.9595 21.4492L29.6831 19.3804C29.8563 19.4546 30.0697 19.535 30.3232 19.6216C30.5768 19.7144 30.849 19.7948 31.1396 19.8628C31.4303 19.9308 31.7334 19.9865 32.0488 20.0298C32.3704 20.0793 32.6828 20.104 32.9858 20.104C33.2518 20.104 33.5085 20.0762 33.7559 20.0205C34.0033 19.971 34.2197 19.8844 34.4053 19.7607C34.597 19.6432 34.7485 19.4855 34.8599 19.2876C34.9774 19.0959 35.0361 18.8485 35.0361 18.5454V17.2373ZM31.1768 13.5449C31.1768 13.8727 31.2108 14.182 31.2788 14.4727C31.353 14.7572 31.4674 15.0015 31.6221 15.2056C31.7829 15.4035 31.987 15.5612 32.2344 15.6787C32.4818 15.79 32.7817 15.8457 33.1343 15.8457C33.8332 15.8457 34.3311 15.6261 34.6279 15.187C34.9248 14.7417 35.0732 14.1943 35.0732 13.5449V13.4707C35.0732 13.1429 35.0392 12.8368 34.9712 12.5522C34.9032 12.2677 34.7918 12.0234 34.6372 11.8193C34.4826 11.6152 34.2816 11.4575 34.0342 11.3462C33.793 11.2287 33.493 11.1699 33.1343 11.1699C32.4416 11.1699 31.9406 11.3895 31.6313 11.8286C31.3283 12.2677 31.1768 12.8151 31.1768 13.4707V13.5449ZM45.3989 11.5503H45.1299C44.765 11.5503 44.4155 11.5874 44.0815 11.6616C43.7537 11.7358 43.4631 11.8719 43.2095 12.0698C42.9559 12.2616 42.7518 12.5275 42.5972 12.8677C42.4487 13.2078 42.3745 13.6439 42.3745 14.1758V19H39.814V9.06396H42.3745V10.1865C42.4797 10.0195 42.6157 9.85872 42.7827 9.7041C42.9497 9.54948 43.1445 9.41341 43.3672 9.2959C43.5898 9.1722 43.8403 9.07324 44.1187 8.99902C44.397 8.9248 44.6969 8.8877 45.0186 8.8877H45.3989V11.5503ZM50.2046 14.9644C49.8892 15.0138 49.6356 15.1252 49.4438 15.2983C49.2521 15.4653 49.1562 15.6942 49.1562 15.9849C49.1562 16.3065 49.2738 16.5848 49.5088 16.8198C49.7438 17.0487 50.0902 17.1631 50.5479 17.1631C51.0303 17.1631 51.4106 17.0239 51.689 16.7456C51.9673 16.4673 52.1064 16.0993 52.1064 15.6416V14.6396L50.2046 14.9644ZM52.5239 18.063C52.4188 18.1805 52.2889 18.3073 52.1343 18.4434C51.9858 18.5732 51.8065 18.6938 51.5962 18.8052C51.3921 18.9103 51.1509 19 50.8726 19.0742C50.5942 19.1484 50.2819 19.1855 49.9355 19.1855C49.4408 19.1855 48.9831 19.1082 48.5625 18.9536C48.1481 18.7928 47.7832 18.5701 47.4678 18.2856C47.1523 18.0011 46.9049 17.6733 46.7256 17.3022C46.5462 16.925 46.4565 16.5168 46.4565 16.0776C46.4565 15.2798 46.7039 14.6273 47.1987 14.1201C47.6935 13.613 48.377 13.2944 49.249 13.1646L52.1064 12.7471V12.5615C52.1064 12.1162 51.9704 11.7637 51.6982 11.5039C51.4261 11.2441 50.9839 11.1143 50.3716 11.1143C50.118 11.1143 49.8613 11.1452 49.6016 11.207C49.3418 11.2627 49.0913 11.3276 48.8501 11.4019C48.6151 11.4761 48.3955 11.5627 48.1914 11.6616C47.9873 11.7544 47.8079 11.8379 47.6533 11.9121L46.6514 9.95459C47.2204 9.63916 47.8512 9.37939 48.5439 9.17529C49.2428 8.97119 49.9665 8.86914 50.7148 8.86914C51.1725 8.86914 51.6333 8.91862 52.0972 9.01758C52.5672 9.11035 52.9909 9.28353 53.3682 9.53711C53.7516 9.79069 54.064 10.137 54.3052 10.5762C54.5464 11.0091 54.667 11.5627 54.667 12.2368V16.3188C54.667 16.6095 54.7412 16.826 54.8896 16.9683C55.0443 17.1043 55.2546 17.2311 55.5205 17.3486L54.3608 19.1855C53.8908 19.1361 53.5135 19.0155 53.229 18.8237C52.9445 18.6258 52.7095 18.3722 52.5239 18.063ZM60.085 16.0405C60.085 16.158 60.1004 16.2694 60.1313 16.3745C60.1623 16.4797 60.2148 16.5724 60.2891 16.6528C60.3695 16.7271 60.4808 16.7858 60.623 16.8291C60.7653 16.8724 60.9478 16.894 61.1704 16.894C61.2632 16.894 61.3683 16.891 61.4858 16.8848C61.6034 16.8724 61.7209 16.86 61.8384 16.8477C61.9559 16.8353 62.0641 16.8198 62.1631 16.8013C62.2682 16.7827 62.3548 16.7673 62.4229 16.7549L62.6548 19.0186C62.4136 19.0495 62.1631 19.0773 61.9033 19.1021C61.6807 19.1268 61.4333 19.1453 61.1611 19.1577C60.889 19.1763 60.6138 19.1855 60.3354 19.1855C59.451 19.1855 58.7614 18.9845 58.2666 18.5825C57.7718 18.1805 57.5244 17.5404 57.5244 16.6621V11.2905H55.7339V9.06396H57.5244V6.25293L60.085 5.56641V9.06396H62.6919V11.2905H60.085V16.0405ZM66.4492 14.918C66.4925 15.2148 66.5853 15.487 66.7275 15.7344C66.876 15.9818 67.0615 16.1951 67.2842 16.3745C67.5068 16.5477 67.7635 16.6838 68.0542 16.7827C68.3449 16.8817 68.6541 16.9312 68.9819 16.9312C69.3592 16.9312 69.7674 16.86 70.2065 16.7178C70.6457 16.5693 71.0477 16.356 71.4126 16.0776L72.6465 17.8774C72.1826 18.2671 71.6136 18.5825 70.9395 18.8237C70.2653 19.0649 69.5479 19.1855 68.7871 19.1855C68.1006 19.1855 67.4543 19.068 66.8481 18.833C66.242 18.598 65.7101 18.2578 65.2524 17.8125C64.8009 17.3672 64.4422 16.826 64.1763 16.189C63.9165 15.5519 63.7866 14.8345 63.7866 14.0366C63.7866 13.3068 63.901 12.6265 64.1299 11.9956C64.3649 11.3647 64.6896 10.8174 65.104 10.3535C65.5246 9.88965 66.0256 9.52783 66.6069 9.26807C67.1883 9.00212 67.8315 8.86914 68.5366 8.86914C69.1922 8.86914 69.8014 8.98975 70.3643 9.23096C70.9271 9.46598 71.4157 9.79997 71.8301 10.2329C72.2445 10.6597 72.5692 11.173 72.8042 11.7729C73.0392 12.3729 73.1567 13.0347 73.1567 13.7583V14.918H66.4492ZM68.5273 11.0957C67.9769 11.0957 67.5099 11.2812 67.1265 11.6523C66.7492 12.0173 66.5296 12.4595 66.4678 12.979H70.4756C70.4632 12.4533 70.2715 12.008 69.9004 11.6431C69.5293 11.2782 69.0716 11.0957 68.5273 11.0957ZM81.1724 19V18.1465C81.0363 18.2949 80.8848 18.4341 80.7178 18.564C80.557 18.6877 80.3745 18.7959 80.1704 18.8887C79.9725 18.9814 79.7529 19.0526 79.5117 19.1021C79.2767 19.1577 79.0138 19.1855 78.7231 19.1855C78.0675 19.1855 77.4676 19.0557 76.9233 18.7959C76.3791 18.5361 75.9121 18.1774 75.5225 17.7197C75.1328 17.262 74.8298 16.7178 74.6133 16.0869C74.403 15.4561 74.2979 14.7726 74.2979 14.0366C74.2979 13.3006 74.403 12.6172 74.6133 11.9863C74.8236 11.3555 75.1174 10.8112 75.4946 10.3535C75.8781 9.88965 76.3389 9.52783 76.877 9.26807C77.415 9.00212 78.0119 8.86914 78.6675 8.86914C79.2489 8.86914 79.7406 8.97119 80.1426 9.17529C80.5508 9.37321 80.894 9.62061 81.1724 9.91748V5.69629H83.7329V19H81.1724ZM81.2466 13.1089C81.2466 12.8429 81.1971 12.5955 81.0981 12.3667C81.0054 12.1379 80.8693 11.9399 80.6899 11.7729C80.5106 11.606 80.2941 11.4761 80.0405 11.3833C79.7931 11.2905 79.5117 11.2441 79.1963 11.2441C78.8314 11.2441 78.5067 11.3122 78.2222 11.4482C77.9438 11.5843 77.7088 11.776 77.5171 12.0234C77.3254 12.2646 77.18 12.5522 77.0811 12.8862C76.9821 13.2202 76.9326 13.5851 76.9326 13.981V14.1016C76.9326 14.4974 76.9821 14.8623 77.0811 15.1963C77.18 15.5241 77.3254 15.8086 77.5171 16.0498C77.7088 16.291 77.9438 16.4797 78.2222 16.6157C78.5067 16.7456 78.8314 16.8105 79.1963 16.8105C79.5117 16.8105 79.7931 16.7642 80.0405 16.6714C80.2941 16.5786 80.5106 16.4487 80.6899 16.2817C80.8693 16.1147 81.0054 15.9199 81.0981 15.6973C81.1971 15.4684 81.2466 15.221 81.2466 14.9551V13.1089ZM91.498 14.083C91.498 14.4046 91.5413 14.7293 91.6279 15.0571C91.7145 15.3787 91.8475 15.6694 92.0269 15.9292C92.2062 16.189 92.4351 16.4023 92.7134 16.5693C92.9979 16.7301 93.335 16.8105 93.7246 16.8105C93.9782 16.8105 94.207 16.7765 94.4111 16.7085C94.6214 16.6405 94.807 16.5477 94.9678 16.4302C95.1348 16.3065 95.2801 16.1642 95.4038 16.0034C95.5337 15.8364 95.645 15.6571 95.7378 15.4653L97.9829 16.625C97.8221 17.0146 97.5994 17.3672 97.3149 17.6826C97.0366 17.998 96.7119 18.2671 96.3408 18.4897C95.9697 18.7124 95.5584 18.8825 95.1069 19C94.6554 19.1237 94.1761 19.1855 93.6689 19.1855C92.9701 19.1855 92.3268 19.0557 91.7393 18.7959C91.1517 18.5299 90.6445 18.1681 90.2178 17.7104C89.791 17.2528 89.457 16.7116 89.2158 16.0869C88.9746 15.4561 88.854 14.7726 88.854 14.0366C88.854 13.3068 88.9746 12.6265 89.2158 11.9956C89.457 11.3647 89.791 10.8174 90.2178 10.3535C90.6445 9.88965 91.1517 9.52783 91.7393 9.26807C92.3268 9.00212 92.9701 8.86914 93.6689 8.86914C94.1761 8.86914 94.6554 8.93099 95.1069 9.05469C95.5584 9.1722 95.9697 9.34538 96.3408 9.57422C96.7119 9.79688 97.0366 10.0659 97.3149 10.3813C97.5994 10.6968 97.8221 11.0493 97.9829 11.439L95.7378 12.5986C95.645 12.4069 95.5337 12.2306 95.4038 12.0698C95.2801 11.9028 95.1348 11.7606 94.9678 11.6431C94.807 11.5194 94.6214 11.4235 94.4111 11.3555C94.207 11.2812 93.9782 11.2441 93.7246 11.2441C93.335 11.2441 92.9979 11.3276 92.7134 11.4946C92.4351 11.6554 92.2062 11.8688 92.0269 12.1348C91.8475 12.3945 91.7145 12.6883 91.6279 13.0161C91.5413 13.3439 91.498 13.6717 91.498 13.9995V14.083ZM102.77 14.9644C102.455 15.0138 102.201 15.1252 102.009 15.2983C101.818 15.4653 101.722 15.6942 101.722 15.9849C101.722 16.3065 101.839 16.5848 102.074 16.8198C102.309 17.0487 102.656 17.1631 103.113 17.1631C103.596 17.1631 103.976 17.0239 104.254 16.7456C104.533 16.4673 104.672 16.0993 104.672 15.6416V14.6396L102.77 14.9644ZM105.089 18.063C104.984 18.1805 104.854 18.3073 104.7 18.4434C104.551 18.5732 104.372 18.6938 104.162 18.8052C103.958 18.9103 103.716 19 103.438 19.0742C103.16 19.1484 102.847 19.1855 102.501 19.1855C102.006 19.1855 101.549 19.1082 101.128 18.9536C100.714 18.7928 100.349 18.5701 100.033 18.2856C99.7178 18.0011 99.4704 17.6733 99.291 17.3022C99.1117 16.925 99.022 16.5168 99.022 16.0776C99.022 15.2798 99.2694 14.6273 99.7642 14.1201C100.259 13.613 100.942 13.2944 101.814 13.1646L104.672 12.7471V12.5615C104.672 12.1162 104.536 11.7637 104.264 11.5039C103.992 11.2441 103.549 11.1143 102.937 11.1143C102.683 11.1143 102.427 11.1452 102.167 11.207C101.907 11.2627 101.657 11.3276 101.416 11.4019C101.181 11.4761 100.961 11.5627 100.757 11.6616C100.553 11.7544 100.373 11.8379 100.219 11.9121L99.2168 9.95459C99.7858 9.63916 100.417 9.37939 101.109 9.17529C101.808 8.97119 102.532 8.86914 103.28 8.86914C103.738 8.86914 104.199 8.91862 104.663 9.01758C105.133 9.11035 105.556 9.28353 105.934 9.53711C106.317 9.79069 106.629 10.137 106.871 10.5762C107.112 11.0091 107.232 11.5627 107.232 12.2368V16.3188C107.232 16.6095 107.307 16.826 107.455 16.9683C107.61 17.1043 107.82 17.2311 108.086 17.3486L106.926 19.1855C106.456 19.1361 106.079 19.0155 105.794 18.8237C105.51 18.6258 105.275 18.3722 105.089 18.063ZM110.081 15.8271C110.445 16.1549 110.882 16.4364 111.389 16.6714C111.896 16.9064 112.409 17.0239 112.929 17.0239C113.306 17.0239 113.603 16.9528 113.819 16.8105C114.036 16.6621 114.144 16.4735 114.144 16.2446C114.144 15.855 113.727 15.5519 112.892 15.3354L112.168 15.1406C111.809 15.054 111.447 14.9365 111.083 14.7881C110.718 14.6335 110.381 14.4325 110.071 14.1851C109.768 13.9377 109.521 13.6377 109.329 13.2852C109.144 12.9264 109.051 12.4873 109.051 11.9678C109.051 11.5534 109.14 11.1606 109.32 10.7896C109.505 10.4123 109.765 10.0814 110.099 9.79688C110.439 9.51237 110.851 9.28662 111.333 9.11963C111.815 8.95264 112.354 8.86914 112.947 8.86914C113.795 8.86914 114.549 9.00212 115.211 9.26807C115.879 9.53402 116.405 9.83398 116.788 10.168L115.452 11.875C115.137 11.6462 114.763 11.4513 114.33 11.2905C113.903 11.1235 113.473 11.04 113.04 11.04C112.638 11.04 112.326 11.1143 112.103 11.2627C111.88 11.4049 111.769 11.5781 111.769 11.7822C111.769 11.9987 111.865 12.175 112.057 12.311C112.255 12.4409 112.539 12.5553 112.91 12.6543L113.986 12.9604C115.013 13.2511 115.749 13.6439 116.194 14.1387C116.64 14.6335 116.862 15.2581 116.862 16.0127C116.862 16.4333 116.776 16.8353 116.603 17.2188C116.429 17.596 116.176 17.9331 115.842 18.23C115.508 18.5269 115.093 18.7619 114.599 18.9351C114.104 19.1021 113.541 19.1855 112.91 19.1855C112.428 19.1855 111.973 19.1423 111.546 19.0557C111.126 18.9691 110.733 18.8516 110.368 18.7031C110.009 18.5485 109.685 18.3753 109.394 18.1836C109.103 17.9919 108.856 17.8001 108.652 17.6084L110.081 15.8271ZM120.666 14.918C120.709 15.2148 120.802 15.487 120.944 15.7344C121.093 15.9818 121.278 16.1951 121.501 16.3745C121.724 16.5477 121.98 16.6838 122.271 16.7827C122.562 16.8817 122.871 16.9312 123.199 16.9312C123.576 16.9312 123.984 16.86 124.423 16.7178C124.862 16.5693 125.264 16.356 125.629 16.0776L126.863 17.8774C126.399 18.2671 125.83 18.5825 125.156 18.8237C124.482 19.0649 123.765 19.1855 123.004 19.1855C122.317 19.1855 121.671 19.068 121.065 18.833C120.459 18.598 119.927 18.2578 119.469 17.8125C119.018 17.3672 118.659 16.826 118.393 16.189C118.133 15.5519 118.003 14.8345 118.003 14.0366C118.003 13.3068 118.118 12.6265 118.347 11.9956C118.582 11.3647 118.906 10.8174 119.321 10.3535C119.741 9.88965 120.242 9.52783 120.824 9.26807C121.405 9.00212 122.048 8.86914 122.753 8.86914C123.409 8.86914 124.018 8.98975 124.581 9.23096C125.144 9.46598 125.632 9.79997 126.047 10.2329C126.461 10.6597 126.786 11.173 127.021 11.7729C127.256 12.3729 127.374 13.0347 127.374 13.7583V14.918H120.666ZM122.744 11.0957C122.194 11.0957 121.727 11.2812 121.343 11.6523C120.966 12.0173 120.746 12.4595 120.685 12.979H124.692C124.68 12.4533 124.488 12.008 124.117 11.6431C123.746 11.2782 123.288 11.0957 122.744 11.0957Z" fill="white"/>
<rect width="116" height="27" transform="translate(145)" fill="#800080"/>
<path d="M153.392 5.69629H162.354V8.13623H156.082V10.9658H161.862V13.3965H156.082V19H153.392V5.69629ZM166.176 14.918C166.219 15.2148 166.312 15.487 166.454 15.7344C166.603 15.9818 166.788 16.1951 167.011 16.3745C167.233 16.5477 167.49 16.6838 167.781 16.7827C168.071 16.8817 168.381 16.9312 168.708 16.9312C169.086 16.9312 169.494 16.86 169.933 16.7178C170.372 16.5693 170.774 16.356 171.139 16.0776L172.373 17.8774C171.909 18.2671 171.34 18.5825 170.666 18.8237C169.992 19.0649 169.274 19.1855 168.514 19.1855C167.827 19.1855 167.181 19.068 166.575 18.833C165.969 18.598 165.437 18.2578 164.979 17.8125C164.528 17.3672 164.169 16.826 163.903 16.189C163.643 15.5519 163.513 14.8345 163.513 14.0366C163.513 13.3068 163.628 12.6265 163.856 11.9956C164.091 11.3647 164.416 10.8174 164.831 10.3535C165.251 9.88965 165.752 9.52783 166.333 9.26807C166.915 9.00212 167.558 8.86914 168.263 8.86914C168.919 8.86914 169.528 8.98975 170.091 9.23096C170.654 9.46598 171.142 9.79997 171.557 10.2329C171.971 10.6597 172.296 11.173 172.531 11.7729C172.766 12.3729 172.883 13.0347 172.883 13.7583V14.918H166.176ZM168.254 11.0957C167.703 11.0957 167.236 11.2812 166.853 11.6523C166.476 12.0173 166.256 12.4595 166.194 12.979H170.202C170.19 12.4533 169.998 12.008 169.627 11.6431C169.256 11.2782 168.798 11.0957 168.254 11.0957ZM176.659 14.918C176.702 15.2148 176.795 15.487 176.938 15.7344C177.086 15.9818 177.271 16.1951 177.494 16.3745C177.717 16.5477 177.973 16.6838 178.264 16.7827C178.555 16.8817 178.864 16.9312 179.192 16.9312C179.569 16.9312 179.977 16.86 180.417 16.7178C180.856 16.5693 181.258 16.356 181.623 16.0776L182.856 17.8774C182.393 18.2671 181.824 18.5825 181.149 18.8237C180.475 19.0649 179.758 19.1855 178.997 19.1855C178.311 19.1855 177.664 19.068 177.058 18.833C176.452 18.598 175.92 18.2578 175.462 17.8125C175.011 17.3672 174.652 16.826 174.386 16.189C174.126 15.5519 173.997 14.8345 173.997 14.0366C173.997 13.3068 174.111 12.6265 174.34 11.9956C174.575 11.3647 174.9 10.8174 175.314 10.3535C175.735 9.88965 176.236 9.52783 176.817 9.26807C177.398 9.00212 178.042 8.86914 178.747 8.86914C179.402 8.86914 180.011 8.98975 180.574 9.23096C181.137 9.46598 181.626 9.79997 182.04 10.2329C182.454 10.6597 182.779 11.173 183.014 11.7729C183.249 12.3729 183.367 13.0347 183.367 13.7583V14.918H176.659ZM178.737 11.0957C178.187 11.0957 177.72 11.2812 177.336 11.6523C176.959 12.0173 176.74 12.4595 176.678 12.979H180.686C180.673 12.4533 180.481 12.008 180.11 11.6431C179.739 11.2782 179.282 11.0957 178.737 11.0957ZM190.575 14.918C190.618 15.2148 190.711 15.487 190.854 15.7344C191.002 15.9818 191.188 16.1951 191.41 16.3745C191.633 16.5477 191.889 16.6838 192.18 16.7827C192.471 16.8817 192.78 16.9312 193.108 16.9312C193.485 16.9312 193.893 16.86 194.333 16.7178C194.772 16.5693 195.174 16.356 195.539 16.0776L196.772 17.8774C196.309 18.2671 195.74 18.5825 195.065 18.8237C194.391 19.0649 193.674 19.1855 192.913 19.1855C192.227 19.1855 191.58 19.068 190.974 18.833C190.368 18.598 189.836 18.2578 189.378 17.8125C188.927 17.3672 188.568 16.826 188.302 16.189C188.042 15.5519 187.913 14.8345 187.913 14.0366C187.913 13.3068 188.027 12.6265 188.256 11.9956C188.491 11.3647 188.816 10.8174 189.23 10.3535C189.651 9.88965 190.152 9.52783 190.733 9.26807C191.314 9.00212 191.958 8.86914 192.663 8.86914C193.318 8.86914 193.927 8.98975 194.49 9.23096C195.053 9.46598 195.542 9.79997 195.956 10.2329C196.37 10.6597 196.695 11.173 196.93 11.7729C197.165 12.3729 197.283 13.0347 197.283 13.7583V14.918H190.575ZM192.653 11.0957C192.103 11.0957 191.636 11.2812 191.252 11.6523C190.875 12.0173 190.656 12.4595 190.594 12.979H194.602C194.589 12.4533 194.397 12.008 194.026 11.6431C193.655 11.2782 193.198 11.0957 192.653 11.0957ZM201.216 13.7954L198.192 9.06396H201.151L202.673 11.7451L204.269 9.06396H207.256L204.176 13.814L207.599 19H204.575L202.617 15.957L200.836 19H197.849L201.216 13.7954ZM210.447 14.918C210.491 15.2148 210.583 15.487 210.726 15.7344C210.874 15.9818 211.06 16.1951 211.282 16.3745C211.505 16.5477 211.762 16.6838 212.052 16.7827C212.343 16.8817 212.652 16.9312 212.98 16.9312C213.357 16.9312 213.765 16.86 214.205 16.7178C214.644 16.5693 215.046 16.356 215.411 16.0776L216.645 17.8774C216.181 18.2671 215.612 18.5825 214.938 18.8237C214.263 19.0649 213.546 19.1855 212.785 19.1855C212.099 19.1855 211.452 19.068 210.846 18.833C210.24 18.598 209.708 18.2578 209.25 17.8125C208.799 17.3672 208.44 16.826 208.174 16.189C207.915 15.5519 207.785 14.8345 207.785 14.0366C207.785 13.3068 207.899 12.6265 208.128 11.9956C208.363 11.3647 208.688 10.8174 209.102 10.3535C209.523 9.88965 210.024 9.52783 210.605 9.26807C211.186 9.00212 211.83 8.86914 212.535 8.86914C213.19 8.86914 213.799 8.98975 214.362 9.23096C214.925 9.46598 215.414 9.79997 215.828 10.2329C216.243 10.6597 216.567 11.173 216.802 11.7729C217.037 12.3729 217.155 13.0347 217.155 13.7583V14.918H210.447ZM212.525 11.0957C211.975 11.0957 211.508 11.2812 211.125 11.6523C210.747 12.0173 210.528 12.4595 210.466 12.979H214.474C214.461 12.4533 214.27 12.008 213.898 11.6431C213.527 11.2782 213.07 11.0957 212.525 11.0957ZM227.165 19H224.595V13.2202C224.595 12.8677 224.555 12.5708 224.475 12.3296C224.4 12.0822 224.295 11.8843 224.159 11.7358C224.023 11.5812 223.865 11.473 223.686 11.4111C223.507 11.3431 223.312 11.3091 223.102 11.3091C222.854 11.3091 222.622 11.3524 222.406 11.439C222.195 11.5256 222.01 11.6616 221.849 11.8472C221.694 12.0327 221.571 12.2708 221.478 12.5615C221.391 12.846 221.348 13.1862 221.348 13.582V19H218.788V9.06396H221.348V9.93604C221.676 9.57113 222.056 9.30208 222.489 9.12891C222.928 8.95573 223.398 8.86914 223.899 8.86914C224.413 8.86914 224.892 8.97428 225.337 9.18457C225.789 9.39486 226.163 9.74121 226.46 10.2236C226.633 9.97624 226.831 9.76595 227.054 9.59277C227.283 9.4196 227.527 9.28044 227.787 9.17529C228.046 9.07015 228.315 8.99284 228.594 8.94336C228.878 8.89388 229.169 8.86914 229.466 8.86914C230.022 8.86914 230.517 8.96191 230.95 9.14746C231.389 9.32682 231.76 9.57113 232.063 9.88037C232.367 10.1896 232.598 10.5452 232.759 10.9473C232.92 11.3493 233 11.7729 233 12.2183V19H230.412V13.2202C230.412 12.8677 230.372 12.5708 230.292 12.3296C230.217 12.0822 230.112 11.8843 229.976 11.7358C229.84 11.5812 229.679 11.473 229.494 11.4111C229.314 11.3431 229.119 11.3091 228.909 11.3091C228.662 11.3091 228.433 11.3524 228.223 11.439C228.012 11.5256 227.827 11.6616 227.666 11.8472C227.511 12.0327 227.388 12.2708 227.295 12.5615C227.208 12.846 227.165 13.1862 227.165 13.582V19ZM237.695 22.1357H235.134V9.06396H237.695V9.91748C237.973 9.62679 238.316 9.37939 238.725 9.17529C239.133 8.97119 239.628 8.86914 240.209 8.86914C240.865 8.86914 241.458 9.00212 241.99 9.26807C242.528 9.52783 242.989 9.88965 243.373 10.3535C243.756 10.8112 244.053 11.3555 244.263 11.9863C244.473 12.6172 244.579 13.3006 244.579 14.0366C244.579 14.7726 244.47 15.4561 244.254 16.0869C244.037 16.7178 243.734 17.262 243.345 17.7197C242.955 18.1774 242.488 18.5361 241.944 18.7959C241.4 19.0557 240.8 19.1855 240.144 19.1855C239.853 19.1855 239.587 19.1577 239.346 19.1021C239.111 19.0526 238.895 18.9814 238.697 18.8887C238.499 18.7959 238.316 18.6877 238.149 18.564C237.982 18.4341 237.831 18.2949 237.695 18.1465V22.1357ZM237.621 14.9551C237.621 15.221 237.667 15.4684 237.76 15.6973C237.859 15.9199 237.998 16.1147 238.177 16.2817C238.357 16.4487 238.57 16.5786 238.817 16.6714C239.071 16.7642 239.355 16.8105 239.671 16.8105C240.036 16.8105 240.357 16.7456 240.636 16.6157C240.92 16.4797 241.158 16.291 241.35 16.0498C241.542 15.8086 241.687 15.5241 241.786 15.1963C241.885 14.8623 241.935 14.4974 241.935 14.1016V13.981C241.935 13.5851 241.885 13.2202 241.786 12.8862C241.687 12.5522 241.542 12.2646 241.35 12.0234C241.158 11.776 240.92 11.5843 240.636 11.4482C240.357 11.3122 240.036 11.2441 239.671 11.2441C239.355 11.2441 239.071 11.2905 238.817 11.3833C238.57 11.4761 238.357 11.606 238.177 11.7729C237.998 11.9399 237.859 12.1379 237.76 12.3667C237.667 12.5955 237.621 12.8429 237.621 13.1089V14.9551ZM249.95 16.0405C249.95 16.158 249.966 16.2694 249.997 16.3745C250.028 16.4797 250.08 16.5724 250.154 16.6528C250.235 16.7271 250.346 16.7858 250.488 16.8291C250.631 16.8724 250.813 16.894 251.036 16.894C251.128 16.894 251.234 16.891 251.351 16.8848C251.469 16.8724 251.586 16.86 251.704 16.8477C251.821 16.8353 251.929 16.8198 252.028 16.8013C252.133 16.7827 252.22 16.7673 252.288 16.7549L252.52 19.0186C252.279 19.0495 252.028 19.0773 251.769 19.1021C251.546 19.1268 251.299 19.1453 251.026 19.1577C250.754 19.1763 250.479 19.1855 250.201 19.1855C249.316 19.1855 248.627 18.9845 248.132 18.5825C247.637 18.1805 247.39 17.5404 247.39 16.6621V11.2905H245.599V9.06396H247.39V6.25293L249.95 5.56641V9.06396H252.557V11.2905H249.95V16.0405Z" fill="white"/>
<rect width="256" height="27" transform="translate(271)" fill="#1D70B8"/>
<path d="M286.721 16.5322H281.794L281.043 19H278.186L282.537 5.69629H286.071L290.487 19H287.481L286.721 16.5322ZM282.518 14.1572H285.997L284.271 8.53516H284.234L282.518 14.1572ZM294.319 22.1357H291.758V9.06396H294.319V9.91748C294.597 9.62679 294.94 9.37939 295.349 9.17529C295.757 8.97119 296.252 8.86914 296.833 8.86914C297.489 8.86914 298.082 9.00212 298.614 9.26807C299.152 9.52783 299.613 9.88965 299.997 10.3535C300.38 10.8112 300.677 11.3555 300.887 11.9863C301.097 12.6172 301.203 13.3006 301.203 14.0366C301.203 14.7726 301.094 15.4561 300.878 16.0869C300.661 16.7178 300.358 17.262 299.969 17.7197C299.579 18.1774 299.112 18.5361 298.568 18.7959C298.024 19.0557 297.424 19.1855 296.768 19.1855C296.477 19.1855 296.211 19.1577 295.97 19.1021C295.735 19.0526 295.519 18.9814 295.321 18.8887C295.123 18.7959 294.94 18.6877 294.773 18.564C294.606 18.4341 294.455 18.2949 294.319 18.1465V22.1357ZM294.245 14.9551C294.245 15.221 294.291 15.4684 294.384 15.6973C294.483 15.9199 294.622 16.1147 294.801 16.2817C294.981 16.4487 295.194 16.5786 295.441 16.6714C295.695 16.7642 295.979 16.8105 296.295 16.8105C296.66 16.8105 296.981 16.7456 297.26 16.6157C297.544 16.4797 297.782 16.291 297.974 16.0498C298.166 15.8086 298.311 15.5241 298.41 15.1963C298.509 14.8623 298.559 14.4974 298.559 14.1016V13.981C298.559 13.5851 298.509 13.2202 298.41 12.8862C298.311 12.5522 298.166 12.2646 297.974 12.0234C297.782 11.776 297.544 11.5843 297.26 11.4482C296.981 11.3122 296.66 11.2441 296.295 11.2441C295.979 11.2441 295.695 11.2905 295.441 11.3833C295.194 11.4761 294.981 11.606 294.801 11.7729C294.622 11.9399 294.483 12.1379 294.384 12.3667C294.291 12.5955 294.245 12.8429 294.245 13.1089V14.9551ZM305.47 22.1357H302.91V9.06396H305.47V9.91748C305.749 9.62679 306.092 9.37939 306.5 9.17529C306.908 8.97119 307.403 8.86914 307.984 8.86914C308.64 8.86914 309.234 9.00212 309.766 9.26807C310.304 9.52783 310.764 9.88965 311.148 10.3535C311.531 10.8112 311.828 11.3555 312.039 11.9863C312.249 12.6172 312.354 13.3006 312.354 14.0366C312.354 14.7726 312.246 15.4561 312.029 16.0869C311.813 16.7178 311.51 17.262 311.12 17.7197C310.73 18.1774 310.264 18.5361 309.719 18.7959C309.175 19.0557 308.575 19.1855 307.919 19.1855C307.629 19.1855 307.363 19.1577 307.122 19.1021C306.887 19.0526 306.67 18.9814 306.472 18.8887C306.274 18.7959 306.092 18.6877 305.925 18.564C305.758 18.4341 305.606 18.2949 305.47 18.1465V22.1357ZM305.396 14.9551C305.396 15.221 305.442 15.4684 305.535 15.6973C305.634 15.9199 305.773 16.1147 305.953 16.2817C306.132 16.4487 306.345 16.5786 306.593 16.6714C306.846 16.7642 307.131 16.8105 307.446 16.8105C307.811 16.8105 308.133 16.7456 308.411 16.6157C308.696 16.4797 308.934 16.291 309.125 16.0498C309.317 15.8086 309.463 15.5241 309.562 15.1963C309.66 14.8623 309.71 14.4974 309.71 14.1016V13.981C309.71 13.5851 309.66 13.2202 309.562 12.8862C309.463 12.5522 309.317 12.2646 309.125 12.0234C308.934 11.776 308.696 11.5843 308.411 11.4482C308.133 11.3122 307.811 11.2441 307.446 11.2441C307.131 11.2441 306.846 11.2905 306.593 11.3833C306.345 11.4761 306.132 11.606 305.953 11.7729C305.773 11.9399 305.634 12.1379 305.535 12.3667C305.442 12.5955 305.396 12.8429 305.396 13.1089V14.9551ZM316.204 14.918C316.247 15.2148 316.34 15.487 316.482 15.7344C316.631 15.9818 316.816 16.1951 317.039 16.3745C317.262 16.5477 317.518 16.6838 317.809 16.7827C318.1 16.8817 318.409 16.9312 318.737 16.9312C319.114 16.9312 319.522 16.86 319.961 16.7178C320.401 16.5693 320.803 16.356 321.167 16.0776L322.401 17.8774C321.938 18.2671 321.368 18.5825 320.694 18.8237C320.02 19.0649 319.303 19.1855 318.542 19.1855C317.855 19.1855 317.209 19.068 316.603 18.833C315.997 18.598 315.465 18.2578 315.007 17.8125C314.556 17.3672 314.197 16.826 313.931 16.189C313.671 15.5519 313.542 14.8345 313.542 14.0366C313.542 13.3068 313.656 12.6265 313.885 11.9956C314.12 11.3647 314.444 10.8174 314.859 10.3535C315.279 9.88965 315.78 9.52783 316.362 9.26807C316.943 9.00212 317.586 8.86914 318.292 8.86914C318.947 8.86914 319.556 8.98975 320.119 9.23096C320.682 9.46598 321.171 9.79997 321.585 10.2329C321.999 10.6597 322.324 11.173 322.559 11.7729C322.794 12.3729 322.912 13.0347 322.912 13.7583V14.918H316.204ZM318.282 11.0957C317.732 11.0957 317.265 11.2812 316.881 11.6523C316.504 12.0173 316.285 12.4595 316.223 12.979H320.23C320.218 12.4533 320.026 12.008 319.655 11.6431C319.284 11.2782 318.826 11.0957 318.282 11.0957ZM324.507 5.69629H327.068V16.3003C327.068 16.5106 327.127 16.6714 327.244 16.7827C327.368 16.894 327.563 16.9497 327.829 16.9497C327.952 16.9497 328.057 16.9435 328.144 16.9312C328.237 16.9126 328.354 16.8879 328.497 16.8569L328.701 19.0371C328.528 19.0618 328.342 19.0866 328.144 19.1113C327.977 19.1299 327.782 19.1453 327.56 19.1577C327.343 19.1763 327.117 19.1855 326.882 19.1855C326.517 19.1855 326.19 19.1392 325.899 19.0464C325.608 18.9536 325.358 18.8175 325.147 18.6382C324.943 18.4526 324.786 18.2238 324.674 17.9517C324.563 17.6795 324.507 17.3641 324.507 17.0054V5.69629ZM330.074 5.69629H332.634V16.3003C332.634 16.5106 332.693 16.6714 332.811 16.7827C332.934 16.894 333.129 16.9497 333.395 16.9497C333.519 16.9497 333.624 16.9435 333.71 16.9312C333.803 16.9126 333.921 16.8879 334.063 16.8569L334.267 19.0371C334.094 19.0618 333.908 19.0866 333.71 19.1113C333.543 19.1299 333.349 19.1453 333.126 19.1577C332.91 19.1763 332.684 19.1855 332.449 19.1855C332.084 19.1855 331.756 19.1392 331.465 19.0464C331.175 18.9536 330.924 18.8175 330.714 18.6382C330.51 18.4526 330.352 18.2238 330.241 17.9517C330.129 17.6795 330.074 17.3641 330.074 17.0054V5.69629ZM338.887 14.9644C338.572 15.0138 338.318 15.1252 338.126 15.2983C337.935 15.4653 337.839 15.6942 337.839 15.9849C337.839 16.3065 337.956 16.5848 338.191 16.8198C338.426 17.0487 338.773 17.1631 339.23 17.1631C339.713 17.1631 340.093 17.0239 340.372 16.7456C340.65 16.4673 340.789 16.0993 340.789 15.6416V14.6396L338.887 14.9644ZM341.207 18.063C341.101 18.1805 340.972 18.3073 340.817 18.4434C340.668 18.5732 340.489 18.6938 340.279 18.8052C340.075 18.9103 339.833 19 339.555 19.0742C339.277 19.1484 338.965 19.1855 338.618 19.1855C338.123 19.1855 337.666 19.1082 337.245 18.9536C336.831 18.7928 336.466 18.5701 336.15 18.2856C335.835 18.0011 335.588 17.6733 335.408 17.3022C335.229 16.925 335.139 16.5168 335.139 16.0776C335.139 15.2798 335.387 14.6273 335.881 14.1201C336.376 13.613 337.06 13.2944 337.932 13.1646L340.789 12.7471V12.5615C340.789 12.1162 340.653 11.7637 340.381 11.5039C340.109 11.2441 339.667 11.1143 339.054 11.1143C338.801 11.1143 338.544 11.1452 338.284 11.207C338.024 11.2627 337.774 11.3276 337.533 11.4019C337.298 11.4761 337.078 11.5627 336.874 11.6616C336.67 11.7544 336.491 11.8379 336.336 11.9121L335.334 9.95459C335.903 9.63916 336.534 9.37939 337.227 9.17529C337.925 8.97119 338.649 8.86914 339.397 8.86914C339.855 8.86914 340.316 8.91862 340.78 9.01758C341.25 9.11035 341.674 9.28353 342.051 9.53711C342.434 9.79069 342.747 10.137 342.988 10.5762C343.229 11.0091 343.35 11.5627 343.35 12.2368V16.3188C343.35 16.6095 343.424 16.826 343.572 16.9683C343.727 17.1043 343.937 17.2311 344.203 17.3486L343.043 19.1855C342.573 19.1361 342.196 19.0155 341.912 18.8237C341.627 18.6258 341.392 18.3722 341.207 18.063ZM345.493 9.06396H348.053V9.91748C348.189 9.78141 348.341 9.65153 348.508 9.52783C348.681 9.39795 348.87 9.28662 349.074 9.19385C349.278 9.09489 349.504 9.01758 349.751 8.96191C350.005 8.90007 350.283 8.86914 350.586 8.86914C351.124 8.86914 351.606 8.95882 352.033 9.13818C352.46 9.31136 352.819 9.55257 353.109 9.86182C353.406 10.1711 353.632 10.5329 353.787 10.9473C353.941 11.3617 354.019 11.8101 354.019 12.2925V19H351.458V13.2202C351.458 12.8677 351.418 12.5708 351.337 12.3296C351.257 12.0822 351.146 11.8843 351.003 11.7358C350.867 11.5812 350.703 11.4699 350.512 11.4019C350.326 11.3276 350.122 11.2905 349.899 11.2905C349.64 11.2905 349.395 11.3369 349.167 11.4297C348.944 11.5225 348.749 11.6647 348.582 11.8564C348.415 12.042 348.285 12.277 348.192 12.5615C348.1 12.846 348.053 13.18 348.053 13.5635V19H345.493V9.06396ZM359.826 16.0405C359.826 16.158 359.842 16.2694 359.873 16.3745C359.903 16.4797 359.956 16.5724 360.03 16.6528C360.111 16.7271 360.222 16.7858 360.364 16.8291C360.507 16.8724 360.689 16.894 360.912 16.894C361.004 16.894 361.11 16.891 361.227 16.8848C361.345 16.8724 361.462 16.86 361.58 16.8477C361.697 16.8353 361.805 16.8198 361.904 16.8013C362.009 16.7827 362.096 16.7673 362.164 16.7549L362.396 19.0186C362.155 19.0495 361.904 19.0773 361.645 19.1021C361.422 19.1268 361.174 19.1453 360.902 19.1577C360.63 19.1763 360.355 19.1855 360.077 19.1855C359.192 19.1855 358.503 18.9845 358.008 18.5825C357.513 18.1805 357.266 17.5404 357.266 16.6621V11.2905H355.475V9.06396H357.266V6.25293L359.826 5.56641V9.06396H362.433V11.2905H359.826V16.0405ZM370.041 19H367.48V9.06396H370.041V19ZM367.211 6.45703C367.211 6.24674 367.251 6.04883 367.332 5.86328C367.412 5.67155 367.52 5.50765 367.656 5.37158C367.799 5.22933 367.962 5.118 368.148 5.0376C368.333 4.95719 368.535 4.91699 368.751 4.91699C368.961 4.91699 369.159 4.95719 369.345 5.0376C369.536 5.118 369.7 5.22933 369.836 5.37158C369.979 5.50765 370.09 5.67155 370.17 5.86328C370.251 6.04883 370.291 6.24674 370.291 6.45703C370.291 6.6735 370.251 6.87451 370.17 7.06006C370.09 7.24561 369.979 7.40951 369.836 7.55176C369.7 7.68783 369.536 7.79606 369.345 7.87646C369.159 7.95687 368.961 7.99707 368.751 7.99707C368.535 7.99707 368.333 7.95687 368.148 7.87646C367.962 7.79606 367.799 7.68783 367.656 7.55176C367.52 7.40951 367.412 7.24561 367.332 7.06006C367.251 6.87451 367.211 6.6735 367.211 6.45703ZM372.249 9.06396H374.809V9.91748C374.945 9.78141 375.097 9.65153 375.264 9.52783C375.437 9.39795 375.625 9.28662 375.83 9.19385C376.034 9.09489 376.259 9.01758 376.507 8.96191C376.76 8.90007 377.039 8.86914 377.342 8.86914C377.88 8.86914 378.362 8.95882 378.789 9.13818C379.216 9.31136 379.575 9.55257 379.865 9.86182C380.162 10.1711 380.388 10.5329 380.542 10.9473C380.697 11.3617 380.774 11.8101 380.774 12.2925V19H378.214V13.2202C378.214 12.8677 378.174 12.5708 378.093 12.3296C378.013 12.0822 377.902 11.8843 377.759 11.7358C377.623 11.5812 377.459 11.4699 377.268 11.4019C377.082 11.3276 376.878 11.2905 376.655 11.2905C376.396 11.2905 376.151 11.3369 375.922 11.4297C375.7 11.5225 375.505 11.6647 375.338 11.8564C375.171 12.042 375.041 12.277 374.948 12.5615C374.855 12.846 374.809 13.18 374.809 13.5635V19H372.249V9.06396ZM388.911 22.1357H386.35V9.06396H388.911V9.91748C389.189 9.62679 389.532 9.37939 389.94 9.17529C390.349 8.97119 390.843 8.86914 391.425 8.86914C392.08 8.86914 392.674 9.00212 393.206 9.26807C393.744 9.52783 394.205 9.88965 394.588 10.3535C394.972 10.8112 395.269 11.3555 395.479 11.9863C395.689 12.6172 395.794 13.3006 395.794 14.0366C395.794 14.7726 395.686 15.4561 395.47 16.0869C395.253 16.7178 394.95 17.262 394.561 17.7197C394.171 18.1774 393.704 18.5361 393.16 18.7959C392.615 19.0557 392.015 19.1855 391.36 19.1855C391.069 19.1855 390.803 19.1577 390.562 19.1021C390.327 19.0526 390.111 18.9814 389.913 18.8887C389.715 18.7959 389.532 18.6877 389.365 18.564C389.198 18.4341 389.047 18.2949 388.911 18.1465V22.1357ZM388.836 14.9551C388.836 15.221 388.883 15.4684 388.976 15.6973C389.075 15.9199 389.214 16.1147 389.393 16.2817C389.572 16.4487 389.786 16.5786 390.033 16.6714C390.287 16.7642 390.571 16.8105 390.887 16.8105C391.252 16.8105 391.573 16.7456 391.852 16.6157C392.136 16.4797 392.374 16.291 392.566 16.0498C392.758 15.8086 392.903 15.5241 393.002 15.1963C393.101 14.8623 393.15 14.4974 393.15 14.1016V13.981C393.15 13.5851 393.101 13.2202 393.002 12.8862C392.903 12.5522 392.758 12.2646 392.566 12.0234C392.374 11.776 392.136 11.5843 391.852 11.4482C391.573 11.3122 391.252 11.2441 390.887 11.2441C390.571 11.2441 390.287 11.2905 390.033 11.3833C389.786 11.4761 389.572 11.606 389.393 11.7729C389.214 11.9399 389.075 12.1379 388.976 12.3667C388.883 12.5955 388.836 12.8429 388.836 13.1089V14.9551ZM399.645 14.918C399.688 15.2148 399.781 15.487 399.923 15.7344C400.071 15.9818 400.257 16.1951 400.479 16.3745C400.702 16.5477 400.959 16.6838 401.25 16.7827C401.54 16.8817 401.849 16.9312 402.177 16.9312C402.555 16.9312 402.963 16.86 403.402 16.7178C403.841 16.5693 404.243 16.356 404.608 16.0776L405.842 17.8774C405.378 18.2671 404.809 18.5825 404.135 18.8237C403.461 19.0649 402.743 19.1855 401.982 19.1855C401.296 19.1855 400.65 19.068 400.043 18.833C399.437 18.598 398.905 18.2578 398.448 17.8125C397.996 17.3672 397.638 16.826 397.372 16.189C397.112 15.5519 396.982 14.8345 396.982 14.0366C396.982 13.3068 397.096 12.6265 397.325 11.9956C397.56 11.3647 397.885 10.8174 398.299 10.3535C398.72 9.88965 399.221 9.52783 399.802 9.26807C400.384 9.00212 401.027 8.86914 401.732 8.86914C402.388 8.86914 402.997 8.98975 403.56 9.23096C404.122 9.46598 404.611 9.79997 405.025 10.2329C405.44 10.6597 405.764 11.173 406 11.7729C406.235 12.3729 406.352 13.0347 406.352 13.7583V14.918H399.645ZM401.723 11.0957C401.172 11.0957 400.705 11.2812 400.322 11.6523C399.944 12.0173 399.725 12.4595 399.663 12.979H403.671C403.659 12.4533 403.467 12.008 403.096 11.6431C402.725 11.2782 402.267 11.0957 401.723 11.0957ZM413.57 11.5503H413.301C412.936 11.5503 412.586 11.5874 412.252 11.6616C411.925 11.7358 411.634 11.8719 411.38 12.0698C411.127 12.2616 410.923 12.5275 410.768 12.8677C410.62 13.2078 410.545 13.6439 410.545 14.1758V19H407.985V9.06396H410.545V10.1865C410.651 10.0195 410.787 9.85872 410.954 9.7041C411.121 9.54948 411.315 9.41341 411.538 9.2959C411.761 9.1722 412.011 9.07324 412.29 8.99902C412.568 8.9248 412.868 8.8877 413.189 8.8877H413.57V11.5503ZM415.871 15.8271C416.236 16.1549 416.672 16.4364 417.179 16.6714C417.686 16.9064 418.199 17.0239 418.719 17.0239C419.096 17.0239 419.393 16.9528 419.609 16.8105C419.826 16.6621 419.934 16.4735 419.934 16.2446C419.934 15.855 419.517 15.5519 418.682 15.3354L417.958 15.1406C417.599 15.054 417.237 14.9365 416.873 14.7881C416.508 14.6335 416.171 14.4325 415.861 14.1851C415.558 13.9377 415.311 13.6377 415.119 13.2852C414.934 12.9264 414.841 12.4873 414.841 11.9678C414.841 11.5534 414.931 11.1606 415.11 10.7896C415.295 10.4123 415.555 10.0814 415.889 9.79688C416.229 9.51237 416.641 9.28662 417.123 9.11963C417.605 8.95264 418.144 8.86914 418.737 8.86914C419.585 8.86914 420.339 9.00212 421.001 9.26807C421.669 9.53402 422.195 9.83398 422.578 10.168L421.242 11.875C420.927 11.6462 420.553 11.4513 420.12 11.2905C419.693 11.1235 419.263 11.04 418.83 11.04C418.428 11.04 418.116 11.1143 417.893 11.2627C417.67 11.4049 417.559 11.5781 417.559 11.7822C417.559 11.9987 417.655 12.175 417.847 12.311C418.045 12.4409 418.329 12.5553 418.7 12.6543L419.776 12.9604C420.803 13.2511 421.539 13.6439 421.984 14.1387C422.43 14.6335 422.652 15.2581 422.652 16.0127C422.652 16.4333 422.566 16.8353 422.393 17.2188C422.219 17.596 421.966 17.9331 421.632 18.23C421.298 18.5269 420.883 18.7619 420.389 18.9351C419.894 19.1021 419.331 19.1855 418.7 19.1855C418.218 19.1855 417.763 19.1423 417.336 19.0557C416.916 18.9691 416.523 18.8516 416.158 18.7031C415.799 18.5485 415.475 18.3753 415.184 18.1836C414.893 17.9919 414.646 17.8001 414.442 17.6084L415.871 15.8271ZM428.683 8.86914C429.419 8.86914 430.087 9.00212 430.687 9.26807C431.286 9.52783 431.8 9.88965 432.227 10.3535C432.653 10.8174 432.981 11.3647 433.21 11.9956C433.445 12.6265 433.562 13.3068 433.562 14.0366C433.562 14.7726 433.445 15.4561 433.21 16.0869C432.975 16.7116 432.644 17.2528 432.217 17.7104C431.791 18.1681 431.277 18.5299 430.677 18.7959C430.077 19.0557 429.412 19.1855 428.683 19.1855C427.947 19.1855 427.279 19.0557 426.679 18.7959C426.079 18.5299 425.565 18.1681 425.139 17.7104C424.712 17.2528 424.381 16.7116 424.146 16.0869C423.911 15.4561 423.793 14.7726 423.793 14.0366C423.793 13.3068 423.908 12.6265 424.137 11.9956C424.372 11.3647 424.703 10.8174 425.129 10.3535C425.556 9.88965 426.069 9.52783 426.669 9.26807C427.276 9.00212 427.947 8.86914 428.683 8.86914ZM428.683 16.8105C429.048 16.8105 429.369 16.7425 429.647 16.6064C429.932 16.4704 430.17 16.2817 430.362 16.0405C430.554 15.7993 430.699 15.5117 430.798 15.1777C430.897 14.8376 430.946 14.4665 430.946 14.0645V13.9995C430.946 13.5975 430.897 13.2295 430.798 12.8955C430.699 12.5553 430.554 12.2646 430.362 12.0234C430.17 11.776 429.932 11.5843 429.647 11.4482C429.369 11.3122 429.048 11.2441 428.683 11.2441C428.318 11.2441 427.993 11.3122 427.708 11.4482C427.43 11.5843 427.195 11.776 427.003 12.0234C426.812 12.2646 426.666 12.5553 426.567 12.8955C426.468 13.2295 426.419 13.5975 426.419 13.9995V14.0645C426.419 14.4665 426.468 14.8376 426.567 15.1777C426.666 15.5117 426.812 15.7993 427.003 16.0405C427.195 16.2817 427.43 16.4704 427.708 16.6064C427.993 16.7425 428.318 16.8105 428.683 16.8105ZM435.26 9.06396H437.821V9.91748C437.957 9.78141 438.108 9.65153 438.275 9.52783C438.449 9.39795 438.637 9.28662 438.841 9.19385C439.045 9.09489 439.271 9.01758 439.519 8.96191C439.772 8.90007 440.05 8.86914 440.354 8.86914C440.892 8.86914 441.374 8.95882 441.801 9.13818C442.228 9.31136 442.586 9.55257 442.877 9.86182C443.174 10.1711 443.4 10.5329 443.554 10.9473C443.709 11.3617 443.786 11.8101 443.786 12.2925V19H441.226V13.2202C441.226 12.8677 441.185 12.5708 441.105 12.3296C441.025 12.0822 440.913 11.8843 440.771 11.7358C440.635 11.5812 440.471 11.4699 440.279 11.4019C440.094 11.3276 439.89 11.2905 439.667 11.2905C439.407 11.2905 439.163 11.3369 438.934 11.4297C438.711 11.5225 438.517 11.6647 438.35 11.8564C438.183 12.042 438.053 12.277 437.96 12.5615C437.867 12.846 437.821 13.18 437.821 13.5635V19H435.26V9.06396ZM448.638 11.9121H452.627V14.2129H448.638V11.9121ZM465.922 19H463.352V13.2202C463.352 12.8677 463.312 12.5708 463.231 12.3296C463.157 12.0822 463.052 11.8843 462.916 11.7358C462.78 11.5812 462.622 11.473 462.443 11.4111C462.264 11.3431 462.069 11.3091 461.858 11.3091C461.611 11.3091 461.379 11.3524 461.163 11.439C460.952 11.5256 460.767 11.6616 460.606 11.8472C460.451 12.0327 460.328 12.2708 460.235 12.5615C460.148 12.846 460.105 13.1862 460.105 13.582V19H457.544V9.06396H460.105V9.93604C460.433 9.57113 460.813 9.30208 461.246 9.12891C461.685 8.95573 462.155 8.86914 462.656 8.86914C463.17 8.86914 463.649 8.97428 464.094 9.18457C464.546 9.39486 464.92 9.74121 465.217 10.2236C465.39 9.97624 465.588 9.76595 465.811 9.59277C466.039 9.4196 466.284 9.28044 466.543 9.17529C466.803 9.07015 467.072 8.99284 467.351 8.94336C467.635 8.89388 467.926 8.86914 468.223 8.86914C468.779 8.86914 469.274 8.96191 469.707 9.14746C470.146 9.32682 470.517 9.57113 470.82 9.88037C471.123 10.1896 471.355 10.5452 471.516 10.9473C471.677 11.3493 471.757 11.7729 471.757 12.2183V19H469.169V13.2202C469.169 12.8677 469.129 12.5708 469.048 12.3296C468.974 12.0822 468.869 11.8843 468.733 11.7358C468.597 11.5812 468.436 11.473 468.25 11.4111C468.071 11.3431 467.876 11.3091 467.666 11.3091C467.419 11.3091 467.19 11.3524 466.979 11.439C466.769 11.5256 466.584 11.6616 466.423 11.8472C466.268 12.0327 466.145 12.2708 466.052 12.5615C465.965 12.846 465.922 13.1862 465.922 13.582V19ZM477.101 14.9644C476.786 15.0138 476.532 15.1252 476.34 15.2983C476.149 15.4653 476.053 15.6942 476.053 15.9849C476.053 16.3065 476.17 16.5848 476.405 16.8198C476.64 17.0487 476.987 17.1631 477.444 17.1631C477.927 17.1631 478.307 17.0239 478.585 16.7456C478.864 16.4673 479.003 16.0993 479.003 15.6416V14.6396L477.101 14.9644ZM479.42 18.063C479.315 18.1805 479.185 18.3073 479.031 18.4434C478.882 18.5732 478.703 18.6938 478.493 18.8052C478.289 18.9103 478.047 19 477.769 19.0742C477.491 19.1484 477.178 19.1855 476.832 19.1855C476.337 19.1855 475.88 19.1082 475.459 18.9536C475.045 18.7928 474.68 18.5701 474.364 18.2856C474.049 18.0011 473.801 17.6733 473.622 17.3022C473.443 16.925 473.353 16.5168 473.353 16.0776C473.353 15.2798 473.6 14.6273 474.095 14.1201C474.59 13.613 475.273 13.2944 476.146 13.1646L479.003 12.7471V12.5615C479.003 12.1162 478.867 11.7637 478.595 11.5039C478.323 11.2441 477.88 11.1143 477.268 11.1143C477.014 11.1143 476.758 11.1452 476.498 11.207C476.238 11.2627 475.988 11.3276 475.747 11.4019C475.512 11.4761 475.292 11.5627 475.088 11.6616C474.884 11.7544 474.704 11.8379 474.55 11.9121L473.548 9.95459C474.117 9.63916 474.748 9.37939 475.44 9.17529C476.139 8.97119 476.863 8.86914 477.611 8.86914C478.069 8.86914 478.53 8.91862 478.994 9.01758C479.464 9.11035 479.887 9.28353 480.265 9.53711C480.648 9.79069 480.96 10.137 481.202 10.5762C481.443 11.0091 481.563 11.5627 481.563 12.2368V16.3188C481.563 16.6095 481.638 16.826 481.786 16.9683C481.941 17.1043 482.151 17.2311 482.417 17.3486L481.257 19.1855C480.787 19.1361 480.41 19.0155 480.125 18.8237C479.841 18.6258 479.606 18.3722 479.42 18.063ZM483.707 9.06396H486.267V9.91748C486.403 9.78141 486.555 9.65153 486.722 9.52783C486.895 9.39795 487.083 9.28662 487.288 9.19385C487.492 9.09489 487.717 9.01758 487.965 8.96191C488.218 8.90007 488.497 8.86914 488.8 8.86914C489.338 8.86914 489.82 8.95882 490.247 9.13818C490.674 9.31136 491.033 9.55257 491.323 9.86182C491.62 10.1711 491.846 10.5329 492 10.9473C492.155 11.3617 492.232 11.8101 492.232 12.2925V19H489.672V13.2202C489.672 12.8677 489.632 12.5708 489.551 12.3296C489.471 12.0822 489.36 11.8843 489.217 11.7358C489.081 11.5812 488.917 11.4699 488.726 11.4019C488.54 11.3276 488.336 11.2905 488.113 11.2905C487.854 11.2905 487.609 11.3369 487.38 11.4297C487.158 11.5225 486.963 11.6647 486.796 11.8564C486.629 12.042 486.499 12.277 486.406 12.5615C486.313 12.846 486.267 13.18 486.267 13.5635V19H483.707V9.06396ZM502.827 19H500.267V18.1465C500.124 18.2826 499.97 18.4155 499.803 18.5454C499.636 18.6691 499.45 18.7804 499.246 18.8794C499.042 18.9722 498.813 19.0464 498.56 19.1021C498.312 19.1577 498.037 19.1855 497.734 19.1855C497.196 19.1855 496.713 19.099 496.287 18.9258C495.86 18.7464 495.498 18.5052 495.201 18.2021C494.91 17.8929 494.688 17.5311 494.533 17.1167C494.379 16.7023 494.301 16.2539 494.301 15.7715V9.06396H496.862V14.8345C496.862 15.187 496.899 15.487 496.973 15.7344C497.054 15.9818 497.162 16.1828 497.298 16.3374C497.44 16.4858 497.607 16.5972 497.799 16.6714C497.991 16.7394 498.198 16.7734 498.42 16.7734C498.68 16.7734 498.921 16.7271 499.144 16.6343C499.373 16.5415 499.571 16.4023 499.738 16.2168C499.905 16.0251 500.035 15.7869 500.127 15.5024C500.22 15.2179 500.267 14.884 500.267 14.5005V9.06396H502.827V19ZM508.254 14.9644C507.939 15.0138 507.685 15.1252 507.494 15.2983C507.302 15.4653 507.206 15.6942 507.206 15.9849C507.206 16.3065 507.324 16.5848 507.559 16.8198C507.794 17.0487 508.14 17.1631 508.598 17.1631C509.08 17.1631 509.46 17.0239 509.739 16.7456C510.017 16.4673 510.156 16.0993 510.156 15.6416V14.6396L508.254 14.9644ZM510.574 18.063C510.469 18.1805 510.339 18.3073 510.184 18.4434C510.036 18.5732 509.856 18.6938 509.646 18.8052C509.442 18.9103 509.201 19 508.922 19.0742C508.644 19.1484 508.332 19.1855 507.985 19.1855C507.491 19.1855 507.033 19.1082 506.612 18.9536C506.198 18.7928 505.833 18.5701 505.518 18.2856C505.202 18.0011 504.955 17.6733 504.775 17.3022C504.596 16.925 504.506 16.5168 504.506 16.0776C504.506 15.2798 504.754 14.6273 505.249 14.1201C505.743 13.613 506.427 13.2944 507.299 13.1646L510.156 12.7471V12.5615C510.156 12.1162 510.02 11.7637 509.748 11.5039C509.476 11.2441 509.034 11.1143 508.421 11.1143C508.168 11.1143 507.911 11.1452 507.651 11.207C507.392 11.2627 507.141 11.3276 506.9 11.4019C506.665 11.4761 506.445 11.5627 506.241 11.6616C506.037 11.7544 505.858 11.8379 505.703 11.9121L504.701 9.95459C505.27 9.63916 505.901 9.37939 506.594 9.17529C507.293 8.97119 508.016 8.86914 508.765 8.86914C509.222 8.86914 509.683 8.91862 510.147 9.01758C510.617 9.11035 511.041 9.28353 511.418 9.53711C511.801 9.79069 512.114 10.137 512.355 10.5762C512.596 11.0091 512.717 11.5627 512.717 12.2368V16.3188C512.717 16.6095 512.791 16.826 512.939 16.9683C513.094 17.1043 513.304 17.2311 513.57 17.3486L512.411 19.1855C511.941 19.1361 511.563 19.0155 511.279 18.8237C510.994 18.6258 510.759 18.3722 510.574 18.063ZM514.823 5.69629H517.383V16.3003C517.383 16.5106 517.442 16.6714 517.56 16.7827C517.683 16.894 517.878 16.9497 518.144 16.9497C518.268 16.9497 518.373 16.9435 518.459 16.9312C518.552 16.9126 518.67 16.8879 518.812 16.8569L519.016 19.0371C518.843 19.0618 518.657 19.0866 518.459 19.1113C518.292 19.1299 518.098 19.1453 517.875 19.1577C517.659 19.1763 517.433 19.1855 517.198 19.1855C516.833 19.1855 516.505 19.1392 516.214 19.0464C515.924 18.9536 515.673 18.8175 515.463 18.6382C515.259 18.4526 515.101 18.2238 514.99 17.9517C514.878 17.6795 514.823 17.3641 514.823 17.0054V5.69629Z" fill="white"/>
<rect width="155" height="27" transform="translate(537)" fill="#4C2C92"/>
<path d="M556.729 12.3481C556.729 13.3439 556.592 14.2531 556.32 15.0757C556.054 15.8921 555.652 16.591 555.114 17.1724C554.582 17.7537 553.914 18.2052 553.11 18.5269C552.306 18.8423 551.366 19 550.29 19H545.392V5.69629H550.29C551.366 5.69629 552.306 5.8571 553.11 6.17871C553.914 6.49414 554.582 6.94255 555.114 7.52393C555.652 8.10531 556.054 8.80729 556.32 9.62988C556.592 10.4463 556.729 11.3524 556.729 12.3481ZM553.936 12.0884C553.936 11.5256 553.865 11.0029 553.723 10.5205C553.587 10.0319 553.364 9.60824 553.055 9.24951C552.752 8.89079 552.356 8.60938 551.867 8.40527C551.379 8.19499 550.788 8.08984 550.095 8.08984H548.082V16.6064H550.095C550.782 16.6064 551.369 16.5044 551.858 16.3003C552.347 16.09 552.742 15.8055 553.045 15.4468C553.355 15.0819 553.58 14.6551 553.723 14.1665C553.865 13.6779 553.936 13.1553 553.936 12.5986V12.0884ZM560.755 14.918C560.798 15.2148 560.891 15.487 561.033 15.7344C561.182 15.9818 561.367 16.1951 561.59 16.3745C561.812 16.5477 562.069 16.6838 562.36 16.7827C562.651 16.8817 562.96 16.9312 563.288 16.9312C563.665 16.9312 564.073 16.86 564.512 16.7178C564.951 16.5693 565.353 16.356 565.718 16.0776L566.952 17.8774C566.488 18.2671 565.919 18.5825 565.245 18.8237C564.571 19.0649 563.854 19.1855 563.093 19.1855C562.406 19.1855 561.76 19.068 561.154 18.833C560.548 18.598 560.016 18.2578 559.558 17.8125C559.107 17.3672 558.748 16.826 558.482 16.189C558.222 15.5519 558.092 14.8345 558.092 14.0366C558.092 13.3068 558.207 12.6265 558.436 11.9956C558.671 11.3647 558.995 10.8174 559.41 10.3535C559.83 9.88965 560.331 9.52783 560.913 9.26807C561.494 9.00212 562.137 8.86914 562.842 8.86914C563.498 8.86914 564.107 8.98975 564.67 9.23096C565.233 9.46598 565.721 9.79997 566.136 10.2329C566.55 10.6597 566.875 11.173 567.11 11.7729C567.345 12.3729 567.462 13.0347 567.462 13.7583V14.918H560.755ZM562.833 11.0957C562.283 11.0957 561.816 11.2812 561.432 11.6523C561.055 12.0173 560.835 12.4595 560.773 12.979H564.781C564.769 12.4533 564.577 12.008 564.206 11.6431C563.835 11.2782 563.377 11.0957 562.833 11.0957ZM572.76 16.0405C572.76 16.158 572.775 16.2694 572.806 16.3745C572.837 16.4797 572.89 16.5724 572.964 16.6528C573.044 16.7271 573.156 16.7858 573.298 16.8291C573.44 16.8724 573.623 16.894 573.845 16.894C573.938 16.894 574.043 16.891 574.161 16.8848C574.278 16.8724 574.396 16.86 574.513 16.8477C574.631 16.8353 574.739 16.8198 574.838 16.8013C574.943 16.7827 575.03 16.7673 575.098 16.7549L575.33 19.0186C575.088 19.0495 574.838 19.0773 574.578 19.1021C574.355 19.1268 574.108 19.1453 573.836 19.1577C573.564 19.1763 573.289 19.1855 573.01 19.1855C572.126 19.1855 571.436 18.9845 570.941 18.5825C570.447 18.1805 570.199 17.5404 570.199 16.6621V11.2905H568.409V9.06396H570.199V6.25293L572.76 5.56641V9.06396H575.367V11.2905H572.76V16.0405ZM580.191 14.9644C579.875 15.0138 579.622 15.1252 579.43 15.2983C579.238 15.4653 579.143 15.6942 579.143 15.9849C579.143 16.3065 579.26 16.5848 579.495 16.8198C579.73 17.0487 580.076 17.1631 580.534 17.1631C581.017 17.1631 581.397 17.0239 581.675 16.7456C581.954 16.4673 582.093 16.0993 582.093 15.6416V14.6396L580.191 14.9644ZM582.51 18.063C582.405 18.1805 582.275 18.3073 582.121 18.4434C581.972 18.5732 581.793 18.6938 581.583 18.8052C581.378 18.9103 581.137 19 580.859 19.0742C580.581 19.1484 580.268 19.1855 579.922 19.1855C579.427 19.1855 578.969 19.1082 578.549 18.9536C578.134 18.7928 577.77 18.5701 577.454 18.2856C577.139 18.0011 576.891 17.6733 576.712 17.3022C576.533 16.925 576.443 16.5168 576.443 16.0776C576.443 15.2798 576.69 14.6273 577.185 14.1201C577.68 13.613 578.363 13.2944 579.235 13.1646L582.093 12.7471V12.5615C582.093 12.1162 581.957 11.7637 581.685 11.5039C581.412 11.2441 580.97 11.1143 580.358 11.1143C580.104 11.1143 579.848 11.1452 579.588 11.207C579.328 11.2627 579.078 11.3276 578.836 11.4019C578.601 11.4761 578.382 11.5627 578.178 11.6616C577.974 11.7544 577.794 11.8379 577.64 11.9121L576.638 9.95459C577.207 9.63916 577.838 9.37939 578.53 9.17529C579.229 8.97119 579.953 8.86914 580.701 8.86914C581.159 8.86914 581.62 8.91862 582.083 9.01758C582.554 9.11035 582.977 9.28353 583.354 9.53711C583.738 9.79069 584.05 10.137 584.292 10.5762C584.533 11.0091 584.653 11.5627 584.653 12.2368V16.3188C584.653 16.6095 584.728 16.826 584.876 16.9683C585.031 17.1043 585.241 17.2311 585.507 17.3486L584.347 19.1855C583.877 19.1361 583.5 19.0155 583.215 18.8237C582.931 18.6258 582.696 18.3722 582.51 18.063ZM589.357 19H586.796V9.06396H589.357V19ZM586.527 6.45703C586.527 6.24674 586.568 6.04883 586.648 5.86328C586.728 5.67155 586.837 5.50765 586.973 5.37158C587.115 5.22933 587.279 5.118 587.464 5.0376C587.65 4.95719 587.851 4.91699 588.067 4.91699C588.278 4.91699 588.476 4.95719 588.661 5.0376C588.853 5.118 589.017 5.22933 589.153 5.37158C589.295 5.50765 589.406 5.67155 589.487 5.86328C589.567 6.04883 589.607 6.24674 589.607 6.45703C589.607 6.6735 589.567 6.87451 589.487 7.06006C589.406 7.24561 589.295 7.40951 589.153 7.55176C589.017 7.68783 588.853 7.79606 588.661 7.87646C588.476 7.95687 588.278 7.99707 588.067 7.99707C587.851 7.99707 587.65 7.95687 587.464 7.87646C587.279 7.79606 587.115 7.68783 586.973 7.55176C586.837 7.40951 586.728 7.24561 586.648 7.06006C586.568 6.87451 586.527 6.6735 586.527 6.45703ZM591.565 9.06396H594.125V9.91748C594.262 9.78141 594.413 9.65153 594.58 9.52783C594.753 9.39795 594.942 9.28662 595.146 9.19385C595.35 9.09489 595.576 9.01758 595.823 8.96191C596.077 8.90007 596.355 8.86914 596.658 8.86914C597.196 8.86914 597.679 8.95882 598.105 9.13818C598.532 9.31136 598.891 9.55257 599.182 9.86182C599.479 10.1711 599.704 10.5329 599.859 10.9473C600.014 11.3617 600.091 11.8101 600.091 12.2925V19H597.53V13.2202C597.53 12.8677 597.49 12.5708 597.41 12.3296C597.329 12.0822 597.218 11.8843 597.076 11.7358C596.94 11.5812 596.776 11.4699 596.584 11.4019C596.398 11.3276 596.194 11.2905 595.972 11.2905C595.712 11.2905 595.468 11.3369 595.239 11.4297C595.016 11.5225 594.821 11.6647 594.654 11.8564C594.487 12.042 594.357 12.277 594.265 12.5615C594.172 12.846 594.125 13.18 594.125 13.5635V19H591.565V9.06396ZM604.377 14.918C604.42 15.2148 604.513 15.487 604.655 15.7344C604.804 15.9818 604.989 16.1951 605.212 16.3745C605.435 16.5477 605.691 16.6838 605.982 16.7827C606.273 16.8817 606.582 16.9312 606.91 16.9312C607.287 16.9312 607.695 16.86 608.134 16.7178C608.573 16.5693 608.975 16.356 609.34 16.0776L610.574 17.8774C610.11 18.2671 609.541 18.5825 608.867 18.8237C608.193 19.0649 607.476 19.1855 606.715 19.1855C606.028 19.1855 605.382 19.068 604.776 18.833C604.17 18.598 603.638 18.2578 603.18 17.8125C602.729 17.3672 602.37 16.826 602.104 16.189C601.844 15.5519 601.714 14.8345 601.714 14.0366C601.714 13.3068 601.829 12.6265 602.058 11.9956C602.293 11.3647 602.617 10.8174 603.032 10.3535C603.452 9.88965 603.953 9.52783 604.535 9.26807C605.116 9.00212 605.759 8.86914 606.464 8.86914C607.12 8.86914 607.729 8.98975 608.292 9.23096C608.855 9.46598 609.343 9.79997 609.758 10.2329C610.172 10.6597 610.497 11.173 610.732 11.7729C610.967 12.3729 611.084 13.0347 611.084 13.7583V14.918H604.377ZM606.455 11.0957C605.905 11.0957 605.438 11.2812 605.054 11.6523C604.677 12.0173 604.457 12.4595 604.396 12.979H608.403C608.391 12.4533 608.199 12.008 607.828 11.6431C607.457 11.2782 606.999 11.0957 606.455 11.0957ZM619.1 19V18.1465C618.964 18.2949 618.812 18.4341 618.646 18.564C618.485 18.6877 618.302 18.7959 618.098 18.8887C617.9 18.9814 617.681 19.0526 617.439 19.1021C617.204 19.1577 616.942 19.1855 616.651 19.1855C615.995 19.1855 615.395 19.0557 614.851 18.7959C614.307 18.5361 613.84 18.1774 613.45 17.7197C613.061 17.262 612.757 16.7178 612.541 16.0869C612.331 15.4561 612.226 14.7726 612.226 14.0366C612.226 13.3006 612.331 12.6172 612.541 11.9863C612.751 11.3555 613.045 10.8112 613.422 10.3535C613.806 9.88965 614.267 9.52783 614.805 9.26807C615.343 9.00212 615.94 8.86914 616.595 8.86914C617.177 8.86914 617.668 8.97119 618.07 9.17529C618.479 9.37321 618.822 9.62061 619.1 9.91748V5.69629H621.661V19H619.1ZM619.174 13.1089C619.174 12.8429 619.125 12.5955 619.026 12.3667C618.933 12.1379 618.797 11.9399 618.618 11.7729C618.438 11.606 618.222 11.4761 617.968 11.3833C617.721 11.2905 617.439 11.2441 617.124 11.2441C616.759 11.2441 616.434 11.3122 616.15 11.4482C615.872 11.5843 615.637 11.776 615.445 12.0234C615.253 12.2646 615.108 12.5522 615.009 12.8862C614.91 13.2202 614.86 13.5851 614.86 13.981V14.1016C614.86 14.4974 614.91 14.8623 615.009 15.1963C615.108 15.5241 615.253 15.8086 615.445 16.0498C615.637 16.291 615.872 16.4797 616.15 16.6157C616.434 16.7456 616.759 16.8105 617.124 16.8105C617.439 16.8105 617.721 16.7642 617.968 16.6714C618.222 16.5786 618.438 16.4487 618.618 16.2817C618.797 16.1147 618.933 15.9199 619.026 15.6973C619.125 15.4684 619.174 15.221 619.174 14.9551V13.1089ZM630.511 14.9644C630.196 15.0138 629.942 15.1252 629.75 15.2983C629.559 15.4653 629.463 15.6942 629.463 15.9849C629.463 16.3065 629.58 16.5848 629.815 16.8198C630.05 17.0487 630.397 17.1631 630.854 17.1631C631.337 17.1631 631.717 17.0239 631.996 16.7456C632.274 16.4673 632.413 16.0993 632.413 15.6416V14.6396L630.511 14.9644ZM632.831 18.063C632.725 18.1805 632.596 18.3073 632.441 18.4434C632.292 18.5732 632.113 18.6938 631.903 18.8052C631.699 18.9103 631.458 19 631.179 19.0742C630.901 19.1484 630.589 19.1855 630.242 19.1855C629.747 19.1855 629.29 19.1082 628.869 18.9536C628.455 18.7928 628.09 18.5701 627.774 18.2856C627.459 18.0011 627.212 17.6733 627.032 17.3022C626.853 16.925 626.763 16.5168 626.763 16.0776C626.763 15.2798 627.011 14.6273 627.505 14.1201C628 13.613 628.684 13.2944 629.556 13.1646L632.413 12.7471V12.5615C632.413 12.1162 632.277 11.7637 632.005 11.5039C631.733 11.2441 631.291 11.1143 630.678 11.1143C630.425 11.1143 630.168 11.1452 629.908 11.207C629.648 11.2627 629.398 11.3276 629.157 11.4019C628.922 11.4761 628.702 11.5627 628.498 11.6616C628.294 11.7544 628.115 11.8379 627.96 11.9121L626.958 9.95459C627.527 9.63916 628.158 9.37939 628.851 9.17529C629.549 8.97119 630.273 8.86914 631.021 8.86914C631.479 8.86914 631.94 8.91862 632.404 9.01758C632.874 9.11035 633.298 9.28353 633.675 9.53711C634.058 9.79069 634.371 10.137 634.612 10.5762C634.853 11.0091 634.974 11.5627 634.974 12.2368V16.3188C634.974 16.6095 635.048 16.826 635.196 16.9683C635.351 17.1043 635.561 17.2311 635.827 17.3486L634.667 19.1855C634.197 19.1361 633.82 19.0155 633.536 18.8237C633.251 18.6258 633.016 18.3722 632.831 18.063ZM639.677 22.1357H637.117V9.06396H639.677V9.91748C639.956 9.62679 640.299 9.37939 640.707 9.17529C641.115 8.97119 641.61 8.86914 642.191 8.86914C642.847 8.86914 643.441 9.00212 643.973 9.26807C644.511 9.52783 644.972 9.88965 645.355 10.3535C645.738 10.8112 646.035 11.3555 646.246 11.9863C646.456 12.6172 646.561 13.3006 646.561 14.0366C646.561 14.7726 646.453 15.4561 646.236 16.0869C646.02 16.7178 645.717 17.262 645.327 17.7197C644.938 18.1774 644.471 18.5361 643.926 18.7959C643.382 19.0557 642.782 19.1855 642.126 19.1855C641.836 19.1855 641.57 19.1577 641.329 19.1021C641.094 19.0526 640.877 18.9814 640.679 18.8887C640.481 18.7959 640.299 18.6877 640.132 18.564C639.965 18.4341 639.813 18.2949 639.677 18.1465V22.1357ZM639.603 14.9551C639.603 15.221 639.649 15.4684 639.742 15.6973C639.841 15.9199 639.98 16.1147 640.16 16.2817C640.339 16.4487 640.552 16.5786 640.8 16.6714C641.053 16.7642 641.338 16.8105 641.653 16.8105C642.018 16.8105 642.34 16.7456 642.618 16.6157C642.903 16.4797 643.141 16.291 643.333 16.0498C643.524 15.8086 643.67 15.5241 643.769 15.1963C643.868 14.8623 643.917 14.4974 643.917 14.1016V13.981C643.917 13.5851 643.868 13.2202 643.769 12.8862C643.67 12.5522 643.524 12.2646 643.333 12.0234C643.141 11.776 642.903 11.5843 642.618 11.4482C642.34 11.3122 642.018 11.2441 641.653 11.2441C641.338 11.2441 641.053 11.2905 640.8 11.3833C640.552 11.4761 640.339 11.606 640.16 11.7729C639.98 11.9399 639.841 12.1379 639.742 12.3667C639.649 12.5955 639.603 12.8429 639.603 13.1089V14.9551ZM650.829 22.1357H648.268V9.06396H650.829V9.91748C651.107 9.62679 651.45 9.37939 651.858 9.17529C652.267 8.97119 652.761 8.86914 653.343 8.86914C653.998 8.86914 654.592 9.00212 655.124 9.26807C655.662 9.52783 656.123 9.88965 656.506 10.3535C656.89 10.8112 657.187 11.3555 657.397 11.9863C657.607 12.6172 657.712 13.3006 657.712 14.0366C657.712 14.7726 657.604 15.4561 657.388 16.0869C657.171 16.7178 656.868 17.262 656.479 17.7197C656.089 18.1774 655.622 18.5361 655.078 18.7959C654.533 19.0557 653.933 19.1855 653.278 19.1855C652.987 19.1855 652.721 19.1577 652.48 19.1021C652.245 19.0526 652.028 18.9814 651.831 18.8887C651.633 18.7959 651.45 18.6877 651.283 18.564C651.116 18.4341 650.965 18.2949 650.829 18.1465V22.1357ZM650.754 14.9551C650.754 15.221 650.801 15.4684 650.894 15.6973C650.993 15.9199 651.132 16.1147 651.311 16.2817C651.49 16.4487 651.704 16.5786 651.951 16.6714C652.205 16.7642 652.489 16.8105 652.805 16.8105C653.17 16.8105 653.491 16.7456 653.77 16.6157C654.054 16.4797 654.292 16.291 654.484 16.0498C654.676 15.8086 654.821 15.5241 654.92 15.1963C655.019 14.8623 655.068 14.4974 655.068 14.1016V13.981C655.068 13.5851 655.019 13.2202 654.92 12.8862C654.821 12.5522 654.676 12.2646 654.484 12.0234C654.292 11.776 654.054 11.5843 653.77 11.4482C653.491 11.3122 653.17 11.2441 652.805 11.2441C652.489 11.2441 652.205 11.2905 651.951 11.3833C651.704 11.4761 651.49 11.606 651.311 11.7729C651.132 11.9399 650.993 12.1379 650.894 12.3667C650.801 12.5955 650.754 12.8429 650.754 13.1089V14.9551ZM661.562 14.918C661.606 15.2148 661.699 15.487 661.841 15.7344C661.989 15.9818 662.175 16.1951 662.397 16.3745C662.62 16.5477 662.877 16.6838 663.167 16.7827C663.458 16.8817 663.767 16.9312 664.095 16.9312C664.472 16.9312 664.881 16.86 665.32 16.7178C665.759 16.5693 666.161 16.356 666.526 16.0776L667.76 17.8774C667.296 18.2671 666.727 18.5825 666.053 18.8237C665.379 19.0649 664.661 19.1855 663.9 19.1855C663.214 19.1855 662.568 19.068 661.961 18.833C661.355 18.598 660.823 18.2578 660.366 17.8125C659.914 17.3672 659.556 16.826 659.29 16.189C659.03 15.5519 658.9 14.8345 658.9 14.0366C658.9 13.3068 659.014 12.6265 659.243 11.9956C659.478 11.3647 659.803 10.8174 660.217 10.3535C660.638 9.88965 661.139 9.52783 661.72 9.26807C662.302 9.00212 662.945 8.86914 663.65 8.86914C664.306 8.86914 664.915 8.98975 665.478 9.23096C666.04 9.46598 666.529 9.79997 666.943 10.2329C667.358 10.6597 667.682 11.173 667.917 11.7729C668.153 12.3729 668.27 13.0347 668.27 13.7583V14.918H661.562ZM663.641 11.0957C663.09 11.0957 662.623 11.2812 662.24 11.6523C661.862 12.0173 661.643 12.4595 661.581 12.979H665.589C665.576 12.4533 665.385 12.008 665.014 11.6431C664.643 11.2782 664.185 11.0957 663.641 11.0957ZM673.113 14.9644C672.797 15.0138 672.544 15.1252 672.352 15.2983C672.16 15.4653 672.064 15.6942 672.064 15.9849C672.064 16.3065 672.182 16.5848 672.417 16.8198C672.652 17.0487 672.998 17.1631 673.456 17.1631C673.938 17.1631 674.319 17.0239 674.597 16.7456C674.875 16.4673 675.015 16.0993 675.015 15.6416V14.6396L673.113 14.9644ZM675.432 18.063C675.327 18.1805 675.197 18.3073 675.042 18.4434C674.894 18.5732 674.715 18.6938 674.504 18.8052C674.3 18.9103 674.059 19 673.781 19.0742C673.502 19.1484 673.19 19.1855 672.844 19.1855C672.349 19.1855 671.891 19.1082 671.471 18.9536C671.056 18.7928 670.691 18.5701 670.376 18.2856C670.061 18.0011 669.813 17.6733 669.634 17.3022C669.454 16.925 669.365 16.5168 669.365 16.0776C669.365 15.2798 669.612 14.6273 670.107 14.1201C670.602 13.613 671.285 13.2944 672.157 13.1646L675.015 12.7471V12.5615C675.015 12.1162 674.879 11.7637 674.606 11.5039C674.334 11.2441 673.892 11.1143 673.28 11.1143C673.026 11.1143 672.77 11.1452 672.51 11.207C672.25 11.2627 672 11.3276 671.758 11.4019C671.523 11.4761 671.304 11.5627 671.1 11.6616C670.896 11.7544 670.716 11.8379 670.562 11.9121L669.56 9.95459C670.129 9.63916 670.759 9.37939 671.452 9.17529C672.151 8.97119 672.875 8.86914 673.623 8.86914C674.081 8.86914 674.542 8.91862 675.005 9.01758C675.475 9.11035 675.899 9.28353 676.276 9.53711C676.66 9.79069 676.972 10.137 677.213 10.5762C677.455 11.0091 677.575 11.5627 677.575 12.2368V16.3188C677.575 16.6095 677.649 16.826 677.798 16.9683C677.952 17.1043 678.163 17.2311 678.429 17.3486L677.269 19.1855C676.799 19.1361 676.422 19.0155 676.137 18.8237C675.853 18.6258 675.618 18.3722 675.432 18.063ZM679.681 5.69629H682.242V16.3003C682.242 16.5106 682.3 16.6714 682.418 16.7827C682.542 16.894 682.736 16.9497 683.002 16.9497C683.126 16.9497 683.231 16.9435 683.318 16.9312C683.411 16.9126 683.528 16.8879 683.67 16.8569L683.875 19.0371C683.701 19.0618 683.516 19.0866 683.318 19.1113C683.151 19.1299 682.956 19.1453 682.733 19.1577C682.517 19.1763 682.291 19.1855 682.056 19.1855C681.691 19.1855 681.363 19.1392 681.073 19.0464C680.782 18.9536 680.532 18.8175 680.321 18.6382C680.117 18.4526 679.959 18.2238 679.848 17.9517C679.737 17.6795 679.681 17.3641 679.681 17.0054V5.69629Z" fill="white"/>
<rect width="125" height="27" transform="translate(702)" fill="#EB3223"/>
<path d="M711.282 15.2612C711.455 15.4591 711.666 15.654 711.913 15.8457C712.16 16.0374 712.433 16.2106 712.729 16.3652C713.033 16.5137 713.36 16.6343 713.713 16.7271C714.065 16.8136 714.446 16.8569 714.854 16.8569C715.615 16.8569 716.196 16.6992 716.598 16.3838C717.006 16.0622 717.21 15.6725 717.21 15.2148C717.21 14.7386 717.031 14.3768 716.672 14.1294C716.32 13.882 715.757 13.6872 714.984 13.5449L714.566 13.4707C714.01 13.3717 713.456 13.2419 712.906 13.0811C712.355 12.9202 711.857 12.6883 711.412 12.3853C710.967 12.0822 710.605 11.6956 710.327 11.2256C710.048 10.7493 709.909 10.1494 709.909 9.42578C709.909 9.00521 710.002 8.56608 710.188 8.1084C710.373 7.64453 710.667 7.22087 711.069 6.8374C711.477 6.44775 712 6.12923 712.637 5.88184C713.28 5.63444 714.056 5.51074 714.965 5.51074C716.042 5.51074 717 5.6901 717.841 6.04883C718.689 6.40137 719.372 6.86833 719.892 7.44971L718.101 9.11963C717.736 8.71761 717.266 8.40218 716.691 8.17334C716.122 7.9445 715.534 7.83008 714.928 7.83008C714.229 7.83008 713.682 7.96305 713.286 8.229C712.896 8.49495 712.702 8.84131 712.702 9.26807C712.702 9.54639 712.764 9.77832 712.887 9.96387C713.017 10.1494 713.196 10.304 713.425 10.4277C713.654 10.5452 713.929 10.6442 714.251 10.7246C714.573 10.805 714.931 10.8854 715.327 10.9658L715.541 11.0029C716.072 11.1019 716.601 11.2287 717.127 11.3833C717.653 11.5317 718.129 11.7544 718.556 12.0513C718.989 12.342 719.338 12.7254 719.604 13.2017C719.87 13.6717 720.003 14.2747 720.003 15.0107C720.003 15.6787 719.864 16.2694 719.585 16.7827C719.307 17.2961 718.939 17.7352 718.481 18.1001C718.024 18.4588 717.495 18.731 716.895 18.9165C716.295 19.0959 715.67 19.1855 715.021 19.1855C714.365 19.1855 713.756 19.1299 713.193 19.0186C712.637 18.9072 712.13 18.7495 711.672 18.5454C711.22 18.3413 710.815 18.1125 710.457 17.8589C710.104 17.6053 709.795 17.3332 709.529 17.0425L711.282 15.2612ZM732.063 12.2183C732.063 12.8182 732.017 13.4058 731.924 13.981C731.832 14.5562 731.686 15.1035 731.488 15.623C731.297 16.1364 731.049 16.6126 730.746 17.0518C730.443 17.4847 730.078 17.8589 729.651 18.1743C729.225 18.4897 728.733 18.7371 728.176 18.9165C727.626 19.0959 727.004 19.1855 726.312 19.1855C725.743 19.1855 725.217 19.1175 724.734 18.9814C724.252 18.8392 723.816 18.6475 723.426 18.4062C723.037 18.165 722.7 17.8805 722.415 17.5527C722.131 17.2188 721.908 16.86 721.747 16.4766L724.233 15.5024C724.456 15.923 724.753 16.2415 725.124 16.458C725.501 16.6683 725.928 16.7734 726.404 16.7734C726.868 16.7734 727.276 16.6838 727.629 16.5044C727.981 16.3188 728.272 16.0684 728.501 15.7529C728.736 15.4375 728.912 15.0726 729.03 14.6582C729.147 14.2376 729.203 13.7923 729.197 13.3223C729.042 13.4769 728.86 13.6253 728.649 13.7676C728.439 13.9098 728.204 14.0366 727.944 14.1479C727.691 14.2531 727.412 14.3397 727.109 14.4077C726.812 14.4696 726.5 14.5005 726.172 14.5005C725.523 14.5005 724.917 14.3953 724.354 14.1851C723.797 13.9686 723.312 13.6717 722.897 13.2944C722.489 12.911 722.168 12.4564 721.933 11.9307C721.698 11.4049 721.58 10.8298 721.58 10.2051C721.58 9.53711 721.698 8.91553 721.933 8.34033C722.174 7.76514 722.511 7.27035 722.944 6.85596C723.383 6.43538 723.909 6.10758 724.521 5.87256C725.133 5.63135 725.817 5.51074 726.571 5.51074C727.4 5.51074 728.152 5.65918 728.826 5.95605C729.5 6.24674 730.075 6.66732 730.551 7.21777C731.034 7.76823 731.405 8.43929 731.665 9.23096C731.931 10.0226 732.063 10.9163 732.063 11.9121V12.2183ZM729.067 10.0474C729.067 9.73193 729.011 9.43815 728.9 9.16602C728.789 8.89388 728.628 8.65885 728.417 8.46094C728.213 8.25684 727.966 8.09912 727.675 7.98779C727.385 7.87028 727.063 7.81152 726.71 7.81152C726.346 7.81152 726.018 7.87028 725.727 7.98779C725.436 8.09912 725.189 8.25684 724.985 8.46094C724.781 8.65885 724.623 8.89388 724.512 9.16602C724.407 9.43815 724.354 9.73193 724.354 10.0474C724.354 10.3566 724.407 10.6473 724.512 10.9194C724.623 11.1916 724.781 11.4297 724.985 11.6338C725.189 11.8317 725.436 11.9894 725.727 12.1069C726.018 12.2183 726.346 12.2739 726.71 12.2739C727.063 12.2739 727.385 12.2183 727.675 12.1069C727.966 11.9894 728.213 11.8317 728.417 11.6338C728.628 11.4297 728.789 11.1916 728.9 10.9194C729.011 10.6473 729.067 10.3566 729.067 10.0474ZM739.894 19V15.9941H733.26V13.1274L739.151 5.69629H742.593V13.5635H744.532V15.9941H742.593V19H739.894ZM739.894 13.5635V8.34033L735.756 13.5635H739.894ZM752.362 5.69629C752.919 5.69629 753.435 5.77979 753.912 5.94678C754.388 6.10758 754.802 6.33952 755.155 6.64258C755.507 6.94564 755.783 7.31364 755.98 7.74658C756.178 8.17334 756.277 8.64958 756.277 9.17529C756.277 9.44743 756.237 9.71647 756.157 9.98242C756.083 10.2484 755.971 10.4989 755.823 10.7339C755.674 10.9627 755.495 11.173 755.285 11.3647C755.074 11.5565 754.836 11.7142 754.57 11.8379C754.787 11.9121 755.037 12.0234 755.322 12.1719C755.612 12.3203 755.888 12.5244 756.147 12.7842C756.407 13.0439 756.627 13.3656 756.806 13.749C756.986 14.1263 757.075 14.584 757.075 15.1221C757.075 15.7962 756.945 16.3776 756.686 16.8662C756.432 17.3548 756.086 17.7568 755.646 18.0723C755.214 18.3877 754.703 18.6227 754.116 18.7773C753.534 18.9258 752.919 19 752.27 19H746.443V5.69629H752.362ZM754.32 15.0293C754.32 14.6706 754.255 14.3768 754.125 14.1479C753.995 13.9191 753.822 13.7367 753.605 13.6006C753.395 13.4645 753.154 13.3717 752.882 13.3223C752.61 13.2666 752.331 13.2388 752.047 13.2388H749.134V16.8755H752.047C752.331 16.8755 752.61 16.8477 752.882 16.792C753.154 16.7363 753.395 16.6374 753.605 16.4951C753.822 16.3529 753.995 16.1642 754.125 15.9292C754.255 15.6942 754.32 15.3942 754.32 15.0293ZM753.568 9.44434C753.568 8.93717 753.408 8.54134 753.086 8.25684C752.764 7.97233 752.245 7.83008 751.527 7.83008H749.134V10.9658H751.527C752.232 10.9658 752.749 10.8328 753.077 10.5669C753.404 10.2948 753.568 9.92057 753.568 9.44434ZM765.453 14.9644C765.137 15.0138 764.884 15.1252 764.692 15.2983C764.5 15.4653 764.404 15.6942 764.404 15.9849C764.404 16.3065 764.522 16.5848 764.757 16.8198C764.992 17.0487 765.338 17.1631 765.796 17.1631C766.278 17.1631 766.659 17.0239 766.937 16.7456C767.215 16.4673 767.354 16.0993 767.354 15.6416V14.6396L765.453 14.9644ZM767.772 18.063C767.667 18.1805 767.537 18.3073 767.382 18.4434C767.234 18.5732 767.055 18.6938 766.844 18.8052C766.64 18.9103 766.399 19 766.121 19.0742C765.842 19.1484 765.53 19.1855 765.184 19.1855C764.689 19.1855 764.231 19.1082 763.811 18.9536C763.396 18.7928 763.031 18.5701 762.716 18.2856C762.4 18.0011 762.153 17.6733 761.974 17.3022C761.794 16.925 761.705 16.5168 761.705 16.0776C761.705 15.2798 761.952 14.6273 762.447 14.1201C762.942 13.613 763.625 13.2944 764.497 13.1646L767.354 12.7471V12.5615C767.354 12.1162 767.218 11.7637 766.946 11.5039C766.674 11.2441 766.232 11.1143 765.62 11.1143C765.366 11.1143 765.109 11.1452 764.85 11.207C764.59 11.2627 764.339 11.3276 764.098 11.4019C763.863 11.4761 763.644 11.5627 763.439 11.6616C763.235 11.7544 763.056 11.8379 762.901 11.9121L761.899 9.95459C762.468 9.63916 763.099 9.37939 763.792 9.17529C764.491 8.97119 765.215 8.86914 765.963 8.86914C766.421 8.86914 766.881 8.91862 767.345 9.01758C767.815 9.11035 768.239 9.28353 768.616 9.53711C769 9.79069 769.312 10.137 769.553 10.5762C769.794 11.0091 769.915 11.5627 769.915 12.2368V16.3188C769.915 16.6095 769.989 16.826 770.138 16.9683C770.292 17.1043 770.503 17.2311 770.769 17.3486L769.609 19.1855C769.139 19.1361 768.762 19.0155 768.477 18.8237C768.193 18.6258 767.958 18.3722 767.772 18.063ZM774.619 22.1357H772.058V9.06396H774.619V9.91748C774.897 9.62679 775.24 9.37939 775.648 9.17529C776.057 8.97119 776.551 8.86914 777.133 8.86914C777.788 8.86914 778.382 9.00212 778.914 9.26807C779.452 9.52783 779.913 9.88965 780.296 10.3535C780.68 10.8112 780.977 11.3555 781.187 11.9863C781.397 12.6172 781.502 13.3006 781.502 14.0366C781.502 14.7726 781.394 15.4561 781.178 16.0869C780.961 16.7178 780.658 17.262 780.269 17.7197C779.879 18.1774 779.412 18.5361 778.868 18.7959C778.323 19.0557 777.723 19.1855 777.068 19.1855C776.777 19.1855 776.511 19.1577 776.27 19.1021C776.035 19.0526 775.819 18.9814 775.621 18.8887C775.423 18.7959 775.24 18.6877 775.073 18.564C774.906 18.4341 774.755 18.2949 774.619 18.1465V22.1357ZM774.544 14.9551C774.544 15.221 774.591 15.4684 774.684 15.6973C774.783 15.9199 774.922 16.1147 775.101 16.2817C775.28 16.4487 775.494 16.5786 775.741 16.6714C775.995 16.7642 776.279 16.8105 776.595 16.8105C776.96 16.8105 777.281 16.7456 777.56 16.6157C777.844 16.4797 778.082 16.291 778.274 16.0498C778.466 15.8086 778.611 15.5241 778.71 15.1963C778.809 14.8623 778.858 14.4974 778.858 14.1016V13.981C778.858 13.5851 778.809 13.2202 778.71 12.8862C778.611 12.5522 778.466 12.2646 778.274 12.0234C778.082 11.776 777.844 11.5843 777.56 11.4482C777.281 11.3122 776.96 11.2441 776.595 11.2441C776.279 11.2441 775.995 11.2905 775.741 11.3833C775.494 11.4761 775.28 11.606 775.101 11.7729C774.922 11.9399 774.783 12.1379 774.684 12.3667C774.591 12.5955 774.544 12.8429 774.544 13.1089V14.9551ZM785.77 22.1357H783.209V9.06396H785.77V9.91748C786.048 9.62679 786.392 9.37939 786.8 9.17529C787.208 8.97119 787.703 8.86914 788.284 8.86914C788.94 8.86914 789.534 9.00212 790.065 9.26807C790.604 9.52783 791.064 9.88965 791.448 10.3535C791.831 10.8112 792.128 11.3555 792.338 11.9863C792.549 12.6172 792.654 13.3006 792.654 14.0366C792.654 14.7726 792.546 15.4561 792.329 16.0869C792.113 16.7178 791.81 17.262 791.42 17.7197C791.03 18.1774 790.563 18.5361 790.019 18.7959C789.475 19.0557 788.875 19.1855 788.219 19.1855C787.929 19.1855 787.663 19.1577 787.421 19.1021C787.186 19.0526 786.97 18.9814 786.772 18.8887C786.574 18.7959 786.392 18.6877 786.225 18.564C786.058 18.4341 785.906 18.2949 785.77 18.1465V22.1357ZM785.696 14.9551C785.696 15.221 785.742 15.4684 785.835 15.6973C785.934 15.9199 786.073 16.1147 786.252 16.2817C786.432 16.4487 786.645 16.5786 786.893 16.6714C787.146 16.7642 787.431 16.8105 787.746 16.8105C788.111 16.8105 788.433 16.7456 788.711 16.6157C788.995 16.4797 789.234 16.291 789.425 16.0498C789.617 15.8086 789.762 15.5241 789.861 15.1963C789.96 14.8623 790.01 14.4974 790.01 14.1016V13.981C790.01 13.5851 789.96 13.2202 789.861 12.8862C789.762 12.5522 789.617 12.2646 789.425 12.0234C789.234 11.776 788.995 11.5843 788.711 11.4482C788.433 11.3122 788.111 11.2441 787.746 11.2441C787.431 11.2441 787.146 11.2905 786.893 11.3833C786.645 11.4761 786.432 11.606 786.252 11.7729C786.073 11.9399 785.934 12.1379 785.835 12.3667C785.742 12.5955 785.696 12.8429 785.696 13.1089V14.9551ZM796.504 14.918C796.547 15.2148 796.64 15.487 796.782 15.7344C796.931 15.9818 797.116 16.1951 797.339 16.3745C797.562 16.5477 797.818 16.6838 798.109 16.7827C798.4 16.8817 798.709 16.9312 799.037 16.9312C799.414 16.9312 799.822 16.86 800.261 16.7178C800.7 16.5693 801.102 16.356 801.467 16.0776L802.701 17.8774C802.237 18.2671 801.668 18.5825 800.994 18.8237C800.32 19.0649 799.603 19.1855 798.842 19.1855C798.155 19.1855 797.509 19.068 796.903 18.833C796.297 18.598 795.765 18.2578 795.307 17.8125C794.856 17.3672 794.497 16.826 794.231 16.189C793.971 15.5519 793.841 14.8345 793.841 14.0366C793.841 13.3068 793.956 12.6265 794.185 11.9956C794.42 11.3647 794.744 10.8174 795.159 10.3535C795.579 9.88965 796.08 9.52783 796.662 9.26807C797.243 9.00212 797.886 8.86914 798.591 8.86914C799.247 8.86914 799.856 8.98975 800.419 9.23096C800.982 9.46598 801.47 9.79997 801.885 10.2329C802.299 10.6597 802.624 11.173 802.859 11.7729C803.094 12.3729 803.211 13.0347 803.211 13.7583V14.918H796.504ZM798.582 11.0957C798.032 11.0957 797.565 11.2812 797.181 11.6523C796.804 12.0173 796.584 12.4595 796.522 12.979H800.53C800.518 12.4533 800.326 12.008 799.955 11.6431C799.584 11.2782 799.126 11.0957 798.582 11.0957ZM808.054 14.9644C807.739 15.0138 807.485 15.1252 807.293 15.2983C807.102 15.4653 807.006 15.6942 807.006 15.9849C807.006 16.3065 807.123 16.5848 807.358 16.8198C807.593 17.0487 807.94 17.1631 808.397 17.1631C808.88 17.1631 809.26 17.0239 809.539 16.7456C809.817 16.4673 809.956 16.0993 809.956 15.6416V14.6396L808.054 14.9644ZM810.374 18.063C810.268 18.1805 810.139 18.3073 809.984 18.4434C809.835 18.5732 809.656 18.6938 809.446 18.8052C809.242 18.9103 809 19 808.722 19.0742C808.444 19.1484 808.132 19.1855 807.785 19.1855C807.29 19.1855 806.833 19.1082 806.412 18.9536C805.998 18.7928 805.633 18.5701 805.317 18.2856C805.002 18.0011 804.755 17.6733 804.575 17.3022C804.396 16.925 804.306 16.5168 804.306 16.0776C804.306 15.2798 804.554 14.6273 805.048 14.1201C805.543 13.613 806.227 13.2944 807.099 13.1646L809.956 12.7471V12.5615C809.956 12.1162 809.82 11.7637 809.548 11.5039C809.276 11.2441 808.833 11.1143 808.221 11.1143C807.968 11.1143 807.711 11.1452 807.451 11.207C807.191 11.2627 806.941 11.3276 806.7 11.4019C806.465 11.4761 806.245 11.5627 806.041 11.6616C805.837 11.7544 805.658 11.8379 805.503 11.9121L804.501 9.95459C805.07 9.63916 805.701 9.37939 806.394 9.17529C807.092 8.97119 807.816 8.86914 808.564 8.86914C809.022 8.86914 809.483 8.91862 809.947 9.01758C810.417 9.11035 810.84 9.28353 811.218 9.53711C811.601 9.79069 811.914 10.137 812.155 10.5762C812.396 11.0091 812.517 11.5627 812.517 12.2368V16.3188C812.517 16.6095 812.591 16.826 812.739 16.9683C812.894 17.1043 813.104 17.2311 813.37 17.3486L812.21 19.1855C811.74 19.1361 811.363 19.0155 811.079 18.8237C810.794 18.6258 810.559 18.3722 810.374 18.063ZM814.623 5.69629H817.183V16.3003C817.183 16.5106 817.242 16.6714 817.359 16.7827C817.483 16.894 817.678 16.9497 817.944 16.9497C818.068 16.9497 818.173 16.9435 818.259 16.9312C818.352 16.9126 818.47 16.8879 818.612 16.8569L818.816 19.0371C818.643 19.0618 818.457 19.0866 818.259 19.1113C818.092 19.1299 817.897 19.1453 817.675 19.1577C817.458 19.1763 817.233 19.1855 816.998 19.1855C816.633 19.1855 816.305 19.1392 816.014 19.0464C815.723 18.9536 815.473 18.8175 815.263 18.6382C815.059 18.4526 814.901 18.2238 814.79 17.9517C814.678 17.6795 814.623 17.3641 814.623 17.0054V5.69629Z" fill="white"/>
</svg>
