<svg width="539" height="27" viewBox="0 0 539 27" fill="none" xmlns="http://www.w3.org/2000/svg">
<rect width="135" height="27" fill="#001CB8"/>
<path d="M15.0156 14.7046L11.082 9.7876V19H8.3916V5.69629H11.1191L15.0527 10.8916L19.1069 5.69629H21.7231V19H19.0234V9.7876L15.1084 14.7046H15.0156ZM26.7886 19H24.228V9.06396H26.7886V19ZM23.959 6.45703C23.959 6.24674 23.9992 6.04883 24.0796 5.86328C24.16 5.67155 24.2682 5.50765 24.4043 5.37158C24.5465 5.22933 24.7104 5.118 24.896 5.0376C25.0815 4.95719 25.2826 4.91699 25.499 4.91699C25.7093 4.91699 25.9072 4.95719 26.0928 5.0376C26.2845 5.118 26.4484 5.22933 26.5845 5.37158C26.7267 5.50765 26.8381 5.67155 26.9185 5.86328C26.9989 6.04883 27.0391 6.24674 27.0391 6.45703C27.0391 6.6735 26.9989 6.87451 26.9185 7.06006C26.8381 7.24561 26.7267 7.40951 26.5845 7.55176C26.4484 7.68783 26.2845 7.79606 26.0928 7.87646C25.9072 7.95687 25.7093 7.99707 25.499 7.99707C25.2826 7.99707 25.0815 7.95687 24.896 7.87646C24.7104 7.79606 24.5465 7.68783 24.4043 7.55176C24.2682 7.40951 24.16 7.24561 24.0796 7.06006C23.9992 6.87451 23.959 6.6735 23.959 6.45703ZM35.0361 17.2373C34.8073 17.5156 34.4857 17.7383 34.0713 17.9053C33.6631 18.0661 33.2178 18.1465 32.7354 18.1465C32.0674 18.1465 31.4736 18.029 30.9541 17.7939C30.4346 17.5589 29.9954 17.2373 29.6367 16.8291C29.2842 16.4147 29.012 15.9261 28.8203 15.3633C28.6348 14.8005 28.542 14.182 28.542 13.5078C28.542 12.8522 28.6348 12.2399 28.8203 11.6709C29.012 11.0957 29.2842 10.604 29.6367 10.1958C29.9954 9.78141 30.4346 9.45671 30.9541 9.22168C31.4736 8.98665 32.0674 8.86914 32.7354 8.86914C33.2178 8.86914 33.6631 8.95264 34.0713 9.11963C34.4857 9.28662 34.8073 9.50928 35.0361 9.7876V9.06396H37.606V18.9072C37.606 19.5133 37.4915 20.0329 37.2627 20.4658C37.0339 20.9049 36.7184 21.2637 36.3164 21.542C35.9206 21.8203 35.4598 22.0213 34.9341 22.145C34.4084 22.2749 33.8486 22.3398 33.2549 22.3398C32.5312 22.3398 31.7767 22.2533 30.9912 22.0801C30.2057 21.9131 29.5285 21.7028 28.9595 21.4492L29.6831 19.3804C29.8563 19.4546 30.0697 19.535 30.3232 19.6216C30.5768 19.7144 30.849 19.7948 31.1396 19.8628C31.4303 19.9308 31.7334 19.9865 32.0488 20.0298C32.3704 20.0793 32.6828 20.104 32.9858 20.104C33.2518 20.104 33.5085 20.0762 33.7559 20.0205C34.0033 19.971 34.2197 19.8844 34.4053 19.7607C34.597 19.6432 34.7485 19.4855 34.8599 19.2876C34.9774 19.0959 35.0361 18.8485 35.0361 18.5454V17.2373ZM31.1768 13.5449C31.1768 13.8727 31.2108 14.182 31.2788 14.4727C31.353 14.7572 31.4674 15.0015 31.6221 15.2056C31.7829 15.4035 31.987 15.5612 32.2344 15.6787C32.4818 15.79 32.7817 15.8457 33.1343 15.8457C33.8332 15.8457 34.3311 15.6261 34.6279 15.187C34.9248 14.7417 35.0732 14.1943 35.0732 13.5449V13.4707C35.0732 13.1429 35.0392 12.8368 34.9712 12.5522C34.9032 12.2677 34.7918 12.0234 34.6372 11.8193C34.4826 11.6152 34.2816 11.4575 34.0342 11.3462C33.793 11.2287 33.493 11.1699 33.1343 11.1699C32.4416 11.1699 31.9406 11.3895 31.6313 11.8286C31.3283 12.2677 31.1768 12.8151 31.1768 13.4707V13.5449ZM45.3989 11.5503H45.1299C44.765 11.5503 44.4155 11.5874 44.0815 11.6616C43.7537 11.7358 43.4631 11.8719 43.2095 12.0698C42.9559 12.2616 42.7518 12.5275 42.5972 12.8677C42.4487 13.2078 42.3745 13.6439 42.3745 14.1758V19H39.814V9.06396H42.3745V10.1865C42.4797 10.0195 42.6157 9.85872 42.7827 9.7041C42.9497 9.54948 43.1445 9.41341 43.3672 9.2959C43.5898 9.1722 43.8403 9.07324 44.1187 8.99902C44.397 8.9248 44.6969 8.8877 45.0186 8.8877H45.3989V11.5503ZM50.2046 14.9644C49.8892 15.0138 49.6356 15.1252 49.4438 15.2983C49.2521 15.4653 49.1562 15.6942 49.1562 15.9849C49.1562 16.3065 49.2738 16.5848 49.5088 16.8198C49.7438 17.0487 50.0902 17.1631 50.5479 17.1631C51.0303 17.1631 51.4106 17.0239 51.689 16.7456C51.9673 16.4673 52.1064 16.0993 52.1064 15.6416V14.6396L50.2046 14.9644ZM52.5239 18.063C52.4188 18.1805 52.2889 18.3073 52.1343 18.4434C51.9858 18.5732 51.8065 18.6938 51.5962 18.8052C51.3921 18.9103 51.1509 19 50.8726 19.0742C50.5942 19.1484 50.2819 19.1855 49.9355 19.1855C49.4408 19.1855 48.9831 19.1082 48.5625 18.9536C48.1481 18.7928 47.7832 18.5701 47.4678 18.2856C47.1523 18.0011 46.9049 17.6733 46.7256 17.3022C46.5462 16.925 46.4565 16.5168 46.4565 16.0776C46.4565 15.2798 46.7039 14.6273 47.1987 14.1201C47.6935 13.613 48.377 13.2944 49.249 13.1646L52.1064 12.7471V12.5615C52.1064 12.1162 51.9704 11.7637 51.6982 11.5039C51.4261 11.2441 50.9839 11.1143 50.3716 11.1143C50.118 11.1143 49.8613 11.1452 49.6016 11.207C49.3418 11.2627 49.0913 11.3276 48.8501 11.4019C48.6151 11.4761 48.3955 11.5627 48.1914 11.6616C47.9873 11.7544 47.8079 11.8379 47.6533 11.9121L46.6514 9.95459C47.2204 9.63916 47.8512 9.37939 48.5439 9.17529C49.2428 8.97119 49.9665 8.86914 50.7148 8.86914C51.1725 8.86914 51.6333 8.91862 52.0972 9.01758C52.5672 9.11035 52.9909 9.28353 53.3682 9.53711C53.7516 9.79069 54.064 10.137 54.3052 10.5762C54.5464 11.0091 54.667 11.5627 54.667 12.2368V16.3188C54.667 16.6095 54.7412 16.826 54.8896 16.9683C55.0443 17.1043 55.2546 17.2311 55.5205 17.3486L54.3608 19.1855C53.8908 19.1361 53.5135 19.0155 53.229 18.8237C52.9445 18.6258 52.7095 18.3722 52.5239 18.063ZM60.085 16.0405C60.085 16.158 60.1004 16.2694 60.1313 16.3745C60.1623 16.4797 60.2148 16.5724 60.2891 16.6528C60.3695 16.7271 60.4808 16.7858 60.623 16.8291C60.7653 16.8724 60.9478 16.894 61.1704 16.894C61.2632 16.894 61.3683 16.891 61.4858 16.8848C61.6034 16.8724 61.7209 16.86 61.8384 16.8477C61.9559 16.8353 62.0641 16.8198 62.1631 16.8013C62.2682 16.7827 62.3548 16.7673 62.4229 16.7549L62.6548 19.0186C62.4136 19.0495 62.1631 19.0773 61.9033 19.1021C61.6807 19.1268 61.4333 19.1453 61.1611 19.1577C60.889 19.1763 60.6138 19.1855 60.3354 19.1855C59.451 19.1855 58.7614 18.9845 58.2666 18.5825C57.7718 18.1805 57.5244 17.5404 57.5244 16.6621V11.2905H55.7339V9.06396H57.5244V6.25293L60.085 5.56641V9.06396H62.6919V11.2905H60.085V16.0405ZM66.4492 14.918C66.4925 15.2148 66.5853 15.487 66.7275 15.7344C66.876 15.9818 67.0615 16.1951 67.2842 16.3745C67.5068 16.5477 67.7635 16.6838 68.0542 16.7827C68.3449 16.8817 68.6541 16.9312 68.9819 16.9312C69.3592 16.9312 69.7674 16.86 70.2065 16.7178C70.6457 16.5693 71.0477 16.356 71.4126 16.0776L72.6465 17.8774C72.1826 18.2671 71.6136 18.5825 70.9395 18.8237C70.2653 19.0649 69.5479 19.1855 68.7871 19.1855C68.1006 19.1855 67.4543 19.068 66.8481 18.833C66.242 18.598 65.7101 18.2578 65.2524 17.8125C64.8009 17.3672 64.4422 16.826 64.1763 16.189C63.9165 15.5519 63.7866 14.8345 63.7866 14.0366C63.7866 13.3068 63.901 12.6265 64.1299 11.9956C64.3649 11.3647 64.6896 10.8174 65.104 10.3535C65.5246 9.88965 66.0256 9.52783 66.6069 9.26807C67.1883 9.00212 67.8315 8.86914 68.5366 8.86914C69.1922 8.86914 69.8014 8.98975 70.3643 9.23096C70.9271 9.46598 71.4157 9.79997 71.8301 10.2329C72.2445 10.6597 72.5692 11.173 72.8042 11.7729C73.0392 12.3729 73.1567 13.0347 73.1567 13.7583V14.918H66.4492ZM68.5273 11.0957C67.9769 11.0957 67.5099 11.2812 67.1265 11.6523C66.7492 12.0173 66.5296 12.4595 66.4678 12.979H70.4756C70.4632 12.4533 70.2715 12.008 69.9004 11.6431C69.5293 11.2782 69.0716 11.0957 68.5273 11.0957ZM81.1724 19V18.1465C81.0363 18.2949 80.8848 18.4341 80.7178 18.564C80.557 18.6877 80.3745 18.7959 80.1704 18.8887C79.9725 18.9814 79.7529 19.0526 79.5117 19.1021C79.2767 19.1577 79.0138 19.1855 78.7231 19.1855C78.0675 19.1855 77.4676 19.0557 76.9233 18.7959C76.3791 18.5361 75.9121 18.1774 75.5225 17.7197C75.1328 17.262 74.8298 16.7178 74.6133 16.0869C74.403 15.4561 74.2979 14.7726 74.2979 14.0366C74.2979 13.3006 74.403 12.6172 74.6133 11.9863C74.8236 11.3555 75.1174 10.8112 75.4946 10.3535C75.8781 9.88965 76.3389 9.52783 76.877 9.26807C77.415 9.00212 78.0119 8.86914 78.6675 8.86914C79.2489 8.86914 79.7406 8.97119 80.1426 9.17529C80.5508 9.37321 80.894 9.62061 81.1724 9.91748V5.69629H83.7329V19H81.1724ZM81.2466 13.1089C81.2466 12.8429 81.1971 12.5955 81.0981 12.3667C81.0054 12.1379 80.8693 11.9399 80.6899 11.7729C80.5106 11.606 80.2941 11.4761 80.0405 11.3833C79.7931 11.2905 79.5117 11.2441 79.1963 11.2441C78.8314 11.2441 78.5067 11.3122 78.2222 11.4482C77.9438 11.5843 77.7088 11.776 77.5171 12.0234C77.3254 12.2646 77.18 12.5522 77.0811 12.8862C76.9821 13.2202 76.9326 13.5851 76.9326 13.981V14.1016C76.9326 14.4974 76.9821 14.8623 77.0811 15.1963C77.18 15.5241 77.3254 15.8086 77.5171 16.0498C77.7088 16.291 77.9438 16.4797 78.2222 16.6157C78.5067 16.7456 78.8314 16.8105 79.1963 16.8105C79.5117 16.8105 79.7931 16.7642 80.0405 16.6714C80.2941 16.5786 80.5106 16.4487 80.6899 16.2817C80.8693 16.1147 81.0054 15.9199 81.0981 15.6973C81.1971 15.4684 81.2466 15.221 81.2466 14.9551V13.1089ZM91.498 14.083C91.498 14.4046 91.5413 14.7293 91.6279 15.0571C91.7145 15.3787 91.8475 15.6694 92.0269 15.9292C92.2062 16.189 92.4351 16.4023 92.7134 16.5693C92.9979 16.7301 93.335 16.8105 93.7246 16.8105C93.9782 16.8105 94.207 16.7765 94.4111 16.7085C94.6214 16.6405 94.807 16.5477 94.9678 16.4302C95.1348 16.3065 95.2801 16.1642 95.4038 16.0034C95.5337 15.8364 95.645 15.6571 95.7378 15.4653L97.9829 16.625C97.8221 17.0146 97.5994 17.3672 97.3149 17.6826C97.0366 17.998 96.7119 18.2671 96.3408 18.4897C95.9697 18.7124 95.5584 18.8825 95.1069 19C94.6554 19.1237 94.1761 19.1855 93.6689 19.1855C92.9701 19.1855 92.3268 19.0557 91.7393 18.7959C91.1517 18.5299 90.6445 18.1681 90.2178 17.7104C89.791 17.2528 89.457 16.7116 89.2158 16.0869C88.9746 15.4561 88.854 14.7726 88.854 14.0366C88.854 13.3068 88.9746 12.6265 89.2158 11.9956C89.457 11.3647 89.791 10.8174 90.2178 10.3535C90.6445 9.88965 91.1517 9.52783 91.7393 9.26807C92.3268 9.00212 92.9701 8.86914 93.6689 8.86914C94.1761 8.86914 94.6554 8.93099 95.1069 9.05469C95.5584 9.1722 95.9697 9.34538 96.3408 9.57422C96.7119 9.79688 97.0366 10.0659 97.3149 10.3813C97.5994 10.6968 97.8221 11.0493 97.9829 11.439L95.7378 12.5986C95.645 12.4069 95.5337 12.2306 95.4038 12.0698C95.2801 11.9028 95.1348 11.7606 94.9678 11.6431C94.807 11.5194 94.6214 11.4235 94.4111 11.3555C94.207 11.2812 93.9782 11.2441 93.7246 11.2441C93.335 11.2441 92.9979 11.3276 92.7134 11.4946C92.4351 11.6554 92.2062 11.8688 92.0269 12.1348C91.8475 12.3945 91.7145 12.6883 91.6279 13.0161C91.5413 13.3439 91.498 13.6717 91.498 13.9995V14.083ZM102.77 14.9644C102.455 15.0138 102.201 15.1252 102.009 15.2983C101.818 15.4653 101.722 15.6942 101.722 15.9849C101.722 16.3065 101.839 16.5848 102.074 16.8198C102.309 17.0487 102.656 17.1631 103.113 17.1631C103.596 17.1631 103.976 17.0239 104.254 16.7456C104.533 16.4673 104.672 16.0993 104.672 15.6416V14.6396L102.77 14.9644ZM105.089 18.063C104.984 18.1805 104.854 18.3073 104.7 18.4434C104.551 18.5732 104.372 18.6938 104.162 18.8052C103.958 18.9103 103.716 19 103.438 19.0742C103.16 19.1484 102.847 19.1855 102.501 19.1855C102.006 19.1855 101.549 19.1082 101.128 18.9536C100.714 18.7928 100.349 18.5701 100.033 18.2856C99.7178 18.0011 99.4704 17.6733 99.291 17.3022C99.1117 16.925 99.022 16.5168 99.022 16.0776C99.022 15.2798 99.2694 14.6273 99.7642 14.1201C100.259 13.613 100.942 13.2944 101.814 13.1646L104.672 12.7471V12.5615C104.672 12.1162 104.536 11.7637 104.264 11.5039C103.992 11.2441 103.549 11.1143 102.937 11.1143C102.683 11.1143 102.427 11.1452 102.167 11.207C101.907 11.2627 101.657 11.3276 101.416 11.4019C101.181 11.4761 100.961 11.5627 100.757 11.6616C100.553 11.7544 100.373 11.8379 100.219 11.9121L99.2168 9.95459C99.7858 9.63916 100.417 9.37939 101.109 9.17529C101.808 8.97119 102.532 8.86914 103.28 8.86914C103.738 8.86914 104.199 8.91862 104.663 9.01758C105.133 9.11035 105.556 9.28353 105.934 9.53711C106.317 9.79069 106.629 10.137 106.871 10.5762C107.112 11.0091 107.232 11.5627 107.232 12.2368V16.3188C107.232 16.6095 107.307 16.826 107.455 16.9683C107.61 17.1043 107.82 17.2311 108.086 17.3486L106.926 19.1855C106.456 19.1361 106.079 19.0155 105.794 18.8237C105.51 18.6258 105.275 18.3722 105.089 18.063ZM110.081 15.8271C110.445 16.1549 110.882 16.4364 111.389 16.6714C111.896 16.9064 112.409 17.0239 112.929 17.0239C113.306 17.0239 113.603 16.9528 113.819 16.8105C114.036 16.6621 114.144 16.4735 114.144 16.2446C114.144 15.855 113.727 15.5519 112.892 15.3354L112.168 15.1406C111.809 15.054 111.447 14.9365 111.083 14.7881C110.718 14.6335 110.381 14.4325 110.071 14.1851C109.768 13.9377 109.521 13.6377 109.329 13.2852C109.144 12.9264 109.051 12.4873 109.051 11.9678C109.051 11.5534 109.14 11.1606 109.32 10.7896C109.505 10.4123 109.765 10.0814 110.099 9.79688C110.439 9.51237 110.851 9.28662 111.333 9.11963C111.815 8.95264 112.354 8.86914 112.947 8.86914C113.795 8.86914 114.549 9.00212 115.211 9.26807C115.879 9.53402 116.405 9.83398 116.788 10.168L115.452 11.875C115.137 11.6462 114.763 11.4513 114.33 11.2905C113.903 11.1235 113.473 11.04 113.04 11.04C112.638 11.04 112.326 11.1143 112.103 11.2627C111.88 11.4049 111.769 11.5781 111.769 11.7822C111.769 11.9987 111.865 12.175 112.057 12.311C112.255 12.4409 112.539 12.5553 112.91 12.6543L113.986 12.9604C115.013 13.2511 115.749 13.6439 116.194 14.1387C116.64 14.6335 116.862 15.2581 116.862 16.0127C116.862 16.4333 116.776 16.8353 116.603 17.2188C116.429 17.596 116.176 17.9331 115.842 18.23C115.508 18.5269 115.093 18.7619 114.599 18.9351C114.104 19.1021 113.541 19.1855 112.91 19.1855C112.428 19.1855 111.973 19.1423 111.546 19.0557C111.126 18.9691 110.733 18.8516 110.368 18.7031C110.009 18.5485 109.685 18.3753 109.394 18.1836C109.103 17.9919 108.856 17.8001 108.652 17.6084L110.081 15.8271ZM120.666 14.918C120.709 15.2148 120.802 15.487 120.944 15.7344C121.093 15.9818 121.278 16.1951 121.501 16.3745C121.724 16.5477 121.98 16.6838 122.271 16.7827C122.562 16.8817 122.871 16.9312 123.199 16.9312C123.576 16.9312 123.984 16.86 124.423 16.7178C124.862 16.5693 125.264 16.356 125.629 16.0776L126.863 17.8774C126.399 18.2671 125.83 18.5825 125.156 18.8237C124.482 19.0649 123.765 19.1855 123.004 19.1855C122.317 19.1855 121.671 19.068 121.065 18.833C120.459 18.598 119.927 18.2578 119.469 17.8125C119.018 17.3672 118.659 16.826 118.393 16.189C118.133 15.5519 118.003 14.8345 118.003 14.0366C118.003 13.3068 118.118 12.6265 118.347 11.9956C118.582 11.3647 118.906 10.8174 119.321 10.3535C119.741 9.88965 120.242 9.52783 120.824 9.26807C121.405 9.00212 122.048 8.86914 122.753 8.86914C123.409 8.86914 124.018 8.98975 124.581 9.23096C125.144 9.46598 125.632 9.79997 126.047 10.2329C126.461 10.6597 126.786 11.173 127.021 11.7729C127.256 12.3729 127.374 13.0347 127.374 13.7583V14.918H120.666ZM122.744 11.0957C122.194 11.0957 121.727 11.2812 121.343 11.6523C120.966 12.0173 120.746 12.4595 120.685 12.979H124.692C124.68 12.4533 124.488 12.008 124.117 11.6431C123.746 11.2782 123.288 11.0957 122.744 11.0957Z" fill="white"/>
<rect width="259" height="27" transform="translate(145)" fill="#0B0C0C"/>
<path d="M153.392 5.69629H156.082V16.5137H161.352V19H153.392V5.69629ZM164.877 14.918C164.92 15.2148 165.013 15.487 165.155 15.7344C165.304 15.9818 165.489 16.1951 165.712 16.3745C165.935 16.5477 166.191 16.6838 166.482 16.7827C166.773 16.8817 167.082 16.9312 167.41 16.9312C167.787 16.9312 168.195 16.86 168.634 16.7178C169.073 16.5693 169.475 16.356 169.84 16.0776L171.074 17.8774C170.61 18.2671 170.041 18.5825 169.367 18.8237C168.693 19.0649 167.976 19.1855 167.215 19.1855C166.528 19.1855 165.882 19.068 165.276 18.833C164.67 18.598 164.138 18.2578 163.68 17.8125C163.229 17.3672 162.87 16.826 162.604 16.189C162.344 15.5519 162.214 14.8345 162.214 14.0366C162.214 13.3068 162.329 12.6265 162.558 11.9956C162.793 11.3647 163.117 10.8174 163.532 10.3535C163.952 9.88965 164.453 9.52783 165.035 9.26807C165.616 9.00212 166.259 8.86914 166.964 8.86914C167.62 8.86914 168.229 8.98975 168.792 9.23096C169.355 9.46598 169.843 9.79997 170.258 10.2329C170.672 10.6597 170.997 11.173 171.232 11.7729C171.467 12.3729 171.584 13.0347 171.584 13.7583V14.918H164.877ZM166.955 11.0957C166.405 11.0957 165.938 11.2812 165.554 11.6523C165.177 12.0173 164.957 12.4595 164.896 12.979H168.903C168.891 12.4533 168.699 12.008 168.328 11.6431C167.957 11.2782 167.499 11.0957 166.955 11.0957ZM179.257 17.2373C179.028 17.5156 178.706 17.7383 178.292 17.9053C177.884 18.0661 177.438 18.1465 176.956 18.1465C176.288 18.1465 175.694 18.029 175.175 17.7939C174.655 17.5589 174.216 17.2373 173.857 16.8291C173.505 16.4147 173.233 15.9261 173.041 15.3633C172.855 14.8005 172.763 14.182 172.763 13.5078C172.763 12.8522 172.855 12.2399 173.041 11.6709C173.233 11.0957 173.505 10.604 173.857 10.1958C174.216 9.78141 174.655 9.45671 175.175 9.22168C175.694 8.98665 176.288 8.86914 176.956 8.86914C177.438 8.86914 177.884 8.95264 178.292 9.11963C178.706 9.28662 179.028 9.50928 179.257 9.7876V9.06396H181.827V18.9072C181.827 19.5133 181.712 20.0329 181.483 20.4658C181.255 20.9049 180.939 21.2637 180.537 21.542C180.141 21.8203 179.681 22.0213 179.155 22.145C178.629 22.2749 178.069 22.3398 177.476 22.3398C176.752 22.3398 175.997 22.2533 175.212 22.0801C174.426 21.9131 173.749 21.7028 173.18 21.4492L173.904 19.3804C174.077 19.4546 174.29 19.535 174.544 19.6216C174.798 19.7144 175.07 19.7948 175.36 19.8628C175.651 19.9308 175.954 19.9865 176.27 20.0298C176.591 20.0793 176.903 20.104 177.207 20.104C177.472 20.104 177.729 20.0762 177.977 20.0205C178.224 19.971 178.44 19.8844 178.626 19.7607C178.818 19.6432 178.969 19.4855 179.081 19.2876C179.198 19.0959 179.257 18.8485 179.257 18.5454V17.2373ZM175.397 13.5449C175.397 13.8727 175.431 14.182 175.5 14.4727C175.574 14.7572 175.688 15.0015 175.843 15.2056C176.004 15.4035 176.208 15.5612 176.455 15.6787C176.702 15.79 177.002 15.8457 177.355 15.8457C178.054 15.8457 178.552 15.6261 178.849 15.187C179.146 14.7417 179.294 14.1943 179.294 13.5449V13.4707C179.294 13.1429 179.26 12.8368 179.192 12.5522C179.124 12.2677 179.013 12.0234 178.858 11.8193C178.703 11.6152 178.502 11.4575 178.255 11.3462C178.014 11.2287 177.714 11.1699 177.355 11.1699C176.662 11.1699 176.161 11.3895 175.852 11.8286C175.549 12.2677 175.397 12.8151 175.397 13.4707V13.5449ZM187.245 14.9644C186.929 15.0138 186.676 15.1252 186.484 15.2983C186.292 15.4653 186.196 15.6942 186.196 15.9849C186.196 16.3065 186.314 16.5848 186.549 16.8198C186.784 17.0487 187.13 17.1631 187.588 17.1631C188.07 17.1631 188.451 17.0239 188.729 16.7456C189.007 16.4673 189.146 16.0993 189.146 15.6416V14.6396L187.245 14.9644ZM189.564 18.063C189.459 18.1805 189.329 18.3073 189.174 18.4434C189.026 18.5732 188.847 18.6938 188.636 18.8052C188.432 18.9103 188.191 19 187.913 19.0742C187.634 19.1484 187.322 19.1855 186.976 19.1855C186.481 19.1855 186.023 19.1082 185.603 18.9536C185.188 18.7928 184.823 18.5701 184.508 18.2856C184.192 18.0011 183.945 17.6733 183.766 17.3022C183.586 16.925 183.497 16.5168 183.497 16.0776C183.497 15.2798 183.744 14.6273 184.239 14.1201C184.734 13.613 185.417 13.2944 186.289 13.1646L189.146 12.7471V12.5615C189.146 12.1162 189.01 11.7637 188.738 11.5039C188.466 11.2441 188.024 11.1143 187.412 11.1143C187.158 11.1143 186.901 11.1452 186.642 11.207C186.382 11.2627 186.131 11.3276 185.89 11.4019C185.655 11.4761 185.436 11.5627 185.231 11.6616C185.027 11.7544 184.848 11.8379 184.693 11.9121L183.691 9.95459C184.26 9.63916 184.891 9.37939 185.584 9.17529C186.283 8.97119 187.007 8.86914 187.755 8.86914C188.213 8.86914 188.673 8.91862 189.137 9.01758C189.607 9.11035 190.031 9.28353 190.408 9.53711C190.792 9.79069 191.104 10.137 191.345 10.5762C191.586 11.0091 191.707 11.5627 191.707 12.2368V16.3188C191.707 16.6095 191.781 16.826 191.93 16.9683C192.084 17.1043 192.295 17.2311 192.561 17.3486L191.401 19.1855C190.931 19.1361 190.554 19.0155 190.269 18.8237C189.985 18.6258 189.75 18.3722 189.564 18.063ZM193.813 5.69629H196.374V16.3003C196.374 16.5106 196.432 16.6714 196.55 16.7827C196.674 16.894 196.868 16.9497 197.134 16.9497C197.258 16.9497 197.363 16.9435 197.45 16.9312C197.542 16.9126 197.66 16.8879 197.802 16.8569L198.006 19.0371C197.833 19.0618 197.648 19.0866 197.45 19.1113C197.283 19.1299 197.088 19.1453 196.865 19.1577C196.649 19.1763 196.423 19.1855 196.188 19.1855C195.823 19.1855 195.495 19.1392 195.205 19.0464C194.914 18.9536 194.663 18.8175 194.453 18.6382C194.249 18.4526 194.091 18.2238 193.98 17.9517C193.869 17.6795 193.813 17.3641 193.813 17.0054V5.69629ZM199.379 5.69629H201.94V16.3003C201.94 16.5106 201.999 16.6714 202.116 16.7827C202.24 16.894 202.435 16.9497 202.701 16.9497C202.824 16.9497 202.93 16.9435 203.016 16.9312C203.109 16.9126 203.226 16.8879 203.369 16.8569L203.573 19.0371C203.4 19.0618 203.214 19.0866 203.016 19.1113C202.849 19.1299 202.654 19.1453 202.432 19.1577C202.215 19.1763 201.989 19.1855 201.754 19.1855C201.389 19.1855 201.062 19.1392 200.771 19.0464C200.48 18.9536 200.23 18.8175 200.02 18.6382C199.815 18.4526 199.658 18.2238 199.546 17.9517C199.435 17.6795 199.379 17.3641 199.379 17.0054V5.69629ZM206.013 20.1597C206.303 20.1597 206.517 20.1071 206.653 20.002C206.795 19.8968 206.906 19.7267 206.987 19.4917L207.08 19.1855L203.638 9.06396H206.486L208.462 15.9199L210.104 9.06396H212.915L209.566 20.2339C209.455 20.605 209.3 20.9235 209.102 21.1895C208.904 21.4554 208.669 21.6719 208.397 21.8389C208.125 22.012 207.822 22.1388 207.488 22.2192C207.16 22.2996 206.807 22.3398 206.43 22.3398C206.276 22.3398 206.096 22.3337 205.892 22.3213C205.694 22.3089 205.487 22.2904 205.271 22.2656C205.06 22.2471 204.85 22.2223 204.64 22.1914C204.436 22.1605 204.247 22.1234 204.074 22.0801L204.556 19.9834C204.705 20.0205 204.859 20.0514 205.02 20.0762C205.162 20.1009 205.317 20.1195 205.484 20.1318C205.657 20.1504 205.833 20.1597 206.013 20.1597ZM222.721 11.5503H222.452C222.087 11.5503 221.738 11.5874 221.404 11.6616C221.076 11.7358 220.785 11.8719 220.532 12.0698C220.278 12.2616 220.074 12.5275 219.919 12.8677C219.771 13.2078 219.697 13.6439 219.697 14.1758V19H217.136V9.06396H219.697V10.1865C219.802 10.0195 219.938 9.85872 220.105 9.7041C220.272 9.54948 220.467 9.41341 220.689 9.2959C220.912 9.1722 221.163 9.07324 221.441 8.99902C221.719 8.9248 222.019 8.8877 222.341 8.8877H222.721V11.5503ZM226.46 14.918C226.503 15.2148 226.596 15.487 226.738 15.7344C226.887 15.9818 227.072 16.1951 227.295 16.3745C227.518 16.5477 227.774 16.6838 228.065 16.7827C228.356 16.8817 228.665 16.9312 228.993 16.9312C229.37 16.9312 229.778 16.86 230.217 16.7178C230.656 16.5693 231.058 16.356 231.423 16.0776L232.657 17.8774C232.193 18.2671 231.624 18.5825 230.95 18.8237C230.276 19.0649 229.559 19.1855 228.798 19.1855C228.111 19.1855 227.465 19.068 226.859 18.833C226.253 18.598 225.721 18.2578 225.263 17.8125C224.812 17.3672 224.453 16.826 224.187 16.189C223.927 15.5519 223.797 14.8345 223.797 14.0366C223.797 13.3068 223.912 12.6265 224.141 11.9956C224.376 11.3647 224.7 10.8174 225.115 10.3535C225.535 9.88965 226.036 9.52783 226.618 9.26807C227.199 9.00212 227.842 8.86914 228.547 8.86914C229.203 8.86914 229.812 8.98975 230.375 9.23096C230.938 9.46598 231.426 9.79997 231.841 10.2329C232.255 10.6597 232.58 11.173 232.815 11.7729C233.05 12.3729 233.167 13.0347 233.167 13.7583V14.918H226.46ZM228.538 11.0957C227.988 11.0957 227.521 11.2812 227.137 11.6523C226.76 12.0173 226.54 12.4595 226.479 12.979H230.486C230.474 12.4533 230.282 12.008 229.911 11.6431C229.54 11.2782 229.082 11.0957 228.538 11.0957ZM237.361 22.1357H234.8V9.06396H237.361V9.91748C237.639 9.62679 237.982 9.37939 238.391 9.17529C238.799 8.97119 239.294 8.86914 239.875 8.86914C240.531 8.86914 241.124 9.00212 241.656 9.26807C242.194 9.52783 242.655 9.88965 243.039 10.3535C243.422 10.8112 243.719 11.3555 243.929 11.9863C244.139 12.6172 244.245 13.3006 244.245 14.0366C244.245 14.7726 244.136 15.4561 243.92 16.0869C243.703 16.7178 243.4 17.262 243.011 17.7197C242.621 18.1774 242.154 18.5361 241.61 18.7959C241.066 19.0557 240.466 19.1855 239.81 19.1855C239.519 19.1855 239.253 19.1577 239.012 19.1021C238.777 19.0526 238.561 18.9814 238.363 18.8887C238.165 18.7959 237.982 18.6877 237.815 18.564C237.648 18.4341 237.497 18.2949 237.361 18.1465V22.1357ZM237.287 14.9551C237.287 15.221 237.333 15.4684 237.426 15.6973C237.525 15.9199 237.664 16.1147 237.843 16.2817C238.023 16.4487 238.236 16.5786 238.483 16.6714C238.737 16.7642 239.021 16.8105 239.337 16.8105C239.702 16.8105 240.023 16.7456 240.302 16.6157C240.586 16.4797 240.824 16.291 241.016 16.0498C241.208 15.8086 241.353 15.5241 241.452 15.1963C241.551 14.8623 241.601 14.4974 241.601 14.1016V13.981C241.601 13.5851 241.551 13.2202 241.452 12.8862C241.353 12.5522 241.208 12.2646 241.016 12.0234C240.824 11.776 240.586 11.5843 240.302 11.4482C240.023 11.3122 239.702 11.2441 239.337 11.2441C239.021 11.2441 238.737 11.2905 238.483 11.3833C238.236 11.4761 238.023 11.606 237.843 11.7729C237.664 11.9399 237.525 12.1379 237.426 12.3667C237.333 12.5955 237.287 12.8429 237.287 13.1089V14.9551ZM251.537 11.5503H251.268C250.903 11.5503 250.553 11.5874 250.219 11.6616C249.891 11.7358 249.601 11.8719 249.347 12.0698C249.094 12.2616 248.889 12.5275 248.735 12.8677C248.586 13.2078 248.512 13.6439 248.512 14.1758V19H245.952V9.06396H248.512V10.1865C248.617 10.0195 248.753 9.85872 248.92 9.7041C249.087 9.54948 249.282 9.41341 249.505 9.2959C249.728 9.1722 249.978 9.07324 250.256 8.99902C250.535 8.9248 250.835 8.8877 251.156 8.8877H251.537V11.5503ZM255.275 14.918C255.319 15.2148 255.411 15.487 255.554 15.7344C255.702 15.9818 255.888 16.1951 256.11 16.3745C256.333 16.5477 256.59 16.6838 256.88 16.7827C257.171 16.8817 257.48 16.9312 257.808 16.9312C258.185 16.9312 258.594 16.86 259.033 16.7178C259.472 16.5693 259.874 16.356 260.239 16.0776L261.473 17.8774C261.009 18.2671 260.44 18.5825 259.766 18.8237C259.091 19.0649 258.374 19.1855 257.613 19.1855C256.927 19.1855 256.28 19.068 255.674 18.833C255.068 18.598 254.536 18.2578 254.079 17.8125C253.627 17.3672 253.268 16.826 253.002 16.189C252.743 15.5519 252.613 14.8345 252.613 14.0366C252.613 13.3068 252.727 12.6265 252.956 11.9956C253.191 11.3647 253.516 10.8174 253.93 10.3535C254.351 9.88965 254.852 9.52783 255.433 9.26807C256.014 9.00212 256.658 8.86914 257.363 8.86914C258.018 8.86914 258.628 8.98975 259.19 9.23096C259.753 9.46598 260.242 9.79997 260.656 10.2329C261.071 10.6597 261.395 11.173 261.63 11.7729C261.865 12.3729 261.983 13.0347 261.983 13.7583V14.918H255.275ZM257.354 11.0957C256.803 11.0957 256.336 11.2812 255.953 11.6523C255.575 12.0173 255.356 12.4595 255.294 12.979H259.302C259.289 12.4533 259.098 12.008 258.727 11.6431C258.355 11.2782 257.898 11.0957 257.354 11.0957ZM264.321 15.8271C264.686 16.1549 265.122 16.4364 265.629 16.6714C266.136 16.9064 266.649 17.0239 267.169 17.0239C267.546 17.0239 267.843 16.9528 268.06 16.8105C268.276 16.6621 268.384 16.4735 268.384 16.2446C268.384 15.855 267.967 15.5519 267.132 15.3354L266.408 15.1406C266.049 15.054 265.688 14.9365 265.323 14.7881C264.958 14.6335 264.621 14.4325 264.312 14.1851C264.008 13.9377 263.761 13.6377 263.569 13.2852C263.384 12.9264 263.291 12.4873 263.291 11.9678C263.291 11.5534 263.381 11.1606 263.56 10.7896C263.746 10.4123 264.005 10.0814 264.339 9.79688C264.68 9.51237 265.091 9.28662 265.573 9.11963C266.056 8.95264 266.594 8.86914 267.188 8.86914C268.035 8.86914 268.789 9.00212 269.451 9.26807C270.119 9.53402 270.645 9.83398 271.028 10.168L269.692 11.875C269.377 11.6462 269.003 11.4513 268.57 11.2905C268.143 11.1235 267.713 11.04 267.28 11.04C266.878 11.04 266.566 11.1143 266.343 11.2627C266.121 11.4049 266.009 11.5781 266.009 11.7822C266.009 11.9987 266.105 12.175 266.297 12.311C266.495 12.4409 266.779 12.5553 267.15 12.6543L268.227 12.9604C269.253 13.2511 269.989 13.6439 270.435 14.1387C270.88 14.6335 271.103 15.2581 271.103 16.0127C271.103 16.4333 271.016 16.8353 270.843 17.2188C270.67 17.596 270.416 17.9331 270.082 18.23C269.748 18.5269 269.334 18.7619 268.839 18.9351C268.344 19.1021 267.781 19.1855 267.15 19.1855C266.668 19.1855 266.213 19.1423 265.787 19.0557C265.366 18.9691 264.973 18.8516 264.608 18.7031C264.25 18.5485 263.925 18.3753 263.634 18.1836C263.344 17.9919 263.096 17.8001 262.892 17.6084L264.321 15.8271ZM274.906 14.918C274.95 15.2148 275.042 15.487 275.185 15.7344C275.333 15.9818 275.519 16.1951 275.741 16.3745C275.964 16.5477 276.221 16.6838 276.511 16.7827C276.802 16.8817 277.111 16.9312 277.439 16.9312C277.816 16.9312 278.224 16.86 278.664 16.7178C279.103 16.5693 279.505 16.356 279.87 16.0776L281.104 17.8774C280.64 18.2671 280.071 18.5825 279.396 18.8237C278.722 19.0649 278.005 19.1855 277.244 19.1855C276.558 19.1855 275.911 19.068 275.305 18.833C274.699 18.598 274.167 18.2578 273.709 17.8125C273.258 17.3672 272.899 16.826 272.633 16.189C272.374 15.5519 272.244 14.8345 272.244 14.0366C272.244 13.3068 272.358 12.6265 272.587 11.9956C272.822 11.3647 273.147 10.8174 273.561 10.3535C273.982 9.88965 274.483 9.52783 275.064 9.26807C275.645 9.00212 276.289 8.86914 276.994 8.86914C277.649 8.86914 278.258 8.98975 278.821 9.23096C279.384 9.46598 279.873 9.79997 280.287 10.2329C280.701 10.6597 281.026 11.173 281.261 11.7729C281.496 12.3729 281.614 13.0347 281.614 13.7583V14.918H274.906ZM276.984 11.0957C276.434 11.0957 275.967 11.2812 275.583 11.6523C275.206 12.0173 274.987 12.4595 274.925 12.979H278.933C278.92 12.4533 278.729 12.008 278.357 11.6431C277.986 11.2782 277.529 11.0957 276.984 11.0957ZM283.247 9.06396H285.807V9.91748C285.943 9.78141 286.095 9.65153 286.262 9.52783C286.435 9.39795 286.624 9.28662 286.828 9.19385C287.032 9.09489 287.257 9.01758 287.505 8.96191C287.758 8.90007 288.037 8.86914 288.34 8.86914C288.878 8.86914 289.36 8.95882 289.787 9.13818C290.214 9.31136 290.573 9.55257 290.863 9.86182C291.16 10.1711 291.386 10.5329 291.541 10.9473C291.695 11.3617 291.772 11.8101 291.772 12.2925V19H289.212V13.2202C289.212 12.8677 289.172 12.5708 289.091 12.3296C289.011 12.0822 288.9 11.8843 288.757 11.7358C288.621 11.5812 288.457 11.4699 288.266 11.4019C288.08 11.3276 287.876 11.2905 287.653 11.2905C287.394 11.2905 287.149 11.3369 286.92 11.4297C286.698 11.5225 286.503 11.6647 286.336 11.8564C286.169 12.042 286.039 12.277 285.946 12.5615C285.854 12.846 285.807 13.18 285.807 13.5635V19H283.247V9.06396ZM297.58 16.0405C297.58 16.158 297.596 16.2694 297.626 16.3745C297.657 16.4797 297.71 16.5724 297.784 16.6528C297.865 16.7271 297.976 16.7858 298.118 16.8291C298.26 16.8724 298.443 16.894 298.666 16.894C298.758 16.894 298.863 16.891 298.981 16.8848C299.098 16.8724 299.216 16.86 299.333 16.8477C299.451 16.8353 299.559 16.8198 299.658 16.8013C299.763 16.7827 299.85 16.7673 299.918 16.7549L300.15 19.0186C299.909 19.0495 299.658 19.0773 299.398 19.1021C299.176 19.1268 298.928 19.1453 298.656 19.1577C298.384 19.1763 298.109 19.1855 297.831 19.1855C296.946 19.1855 296.257 18.9845 295.762 18.5825C295.267 18.1805 295.02 17.5404 295.02 16.6621V11.2905H293.229V9.06396H295.02V6.25293L297.58 5.56641V9.06396H300.187V11.2905H297.58V16.0405ZM303.944 14.918C303.988 15.2148 304.08 15.487 304.223 15.7344C304.371 15.9818 304.557 16.1951 304.779 16.3745C305.002 16.5477 305.259 16.6838 305.549 16.7827C305.84 16.8817 306.149 16.9312 306.477 16.9312C306.854 16.9312 307.263 16.86 307.702 16.7178C308.141 16.5693 308.543 16.356 308.908 16.0776L310.142 17.8774C309.678 18.2671 309.109 18.5825 308.435 18.8237C307.76 19.0649 307.043 19.1855 306.282 19.1855C305.596 19.1855 304.949 19.068 304.343 18.833C303.737 18.598 303.205 18.2578 302.748 17.8125C302.296 17.3672 301.937 16.826 301.671 16.189C301.412 15.5519 301.282 14.8345 301.282 14.0366C301.282 13.3068 301.396 12.6265 301.625 11.9956C301.86 11.3647 302.185 10.8174 302.599 10.3535C303.02 9.88965 303.521 9.52783 304.102 9.26807C304.683 9.00212 305.327 8.86914 306.032 8.86914C306.687 8.86914 307.297 8.98975 307.859 9.23096C308.422 9.46598 308.911 9.79997 309.325 10.2329C309.74 10.6597 310.064 11.173 310.299 11.7729C310.534 12.3729 310.652 13.0347 310.652 13.7583V14.918H303.944ZM306.022 11.0957C305.472 11.0957 305.005 11.2812 304.622 11.6523C304.244 12.0173 304.025 12.4595 303.963 12.979H307.971C307.958 12.4533 307.767 12.008 307.396 11.6431C307.024 11.2782 306.567 11.0957 306.022 11.0957ZM318.667 19V18.1465C318.531 18.2949 318.38 18.4341 318.213 18.564C318.052 18.6877 317.87 18.7959 317.666 18.8887C317.468 18.9814 317.248 19.0526 317.007 19.1021C316.772 19.1577 316.509 19.1855 316.218 19.1855C315.563 19.1855 314.963 19.0557 314.418 18.7959C313.874 18.5361 313.407 18.1774 313.018 17.7197C312.628 17.262 312.325 16.7178 312.108 16.0869C311.898 15.4561 311.793 14.7726 311.793 14.0366C311.793 13.3006 311.898 12.6172 312.108 11.9863C312.319 11.3555 312.612 10.8112 312.99 10.3535C313.373 9.88965 313.834 9.52783 314.372 9.26807C314.91 9.00212 315.507 8.86914 316.163 8.86914C316.744 8.86914 317.236 8.97119 317.638 9.17529C318.046 9.37321 318.389 9.62061 318.667 9.91748V5.69629H321.228V19H318.667ZM318.742 13.1089C318.742 12.8429 318.692 12.5955 318.593 12.3667C318.5 12.1379 318.364 11.9399 318.185 11.7729C318.006 11.606 317.789 11.4761 317.536 11.3833C317.288 11.2905 317.007 11.2441 316.691 11.2441C316.326 11.2441 316.002 11.3122 315.717 11.4482C315.439 11.5843 315.204 11.776 315.012 12.0234C314.82 12.2646 314.675 12.5522 314.576 12.8862C314.477 13.2202 314.428 13.5851 314.428 13.981V14.1016C314.428 14.4974 314.477 14.8623 314.576 15.1963C314.675 15.5241 314.82 15.8086 315.012 16.0498C315.204 16.291 315.439 16.4797 315.717 16.6157C316.002 16.7456 316.326 16.8105 316.691 16.8105C317.007 16.8105 317.288 16.7642 317.536 16.6714C317.789 16.5786 318.006 16.4487 318.185 16.2817C318.364 16.1147 318.5 15.9199 318.593 15.6973C318.692 15.4684 318.742 15.221 318.742 14.9551V13.1089ZM326.145 11.9121H330.134V14.2129H326.145V11.9121ZM343.429 19H340.859V13.2202C340.859 12.8677 340.819 12.5708 340.738 12.3296C340.664 12.0822 340.559 11.8843 340.423 11.7358C340.287 11.5812 340.129 11.473 339.95 11.4111C339.77 11.3431 339.576 11.3091 339.365 11.3091C339.118 11.3091 338.886 11.3524 338.669 11.439C338.459 11.5256 338.274 11.6616 338.113 11.8472C337.958 12.0327 337.834 12.2708 337.742 12.5615C337.655 12.846 337.612 13.1862 337.612 13.582V19H335.051V9.06396H337.612V9.93604C337.94 9.57113 338.32 9.30208 338.753 9.12891C339.192 8.95573 339.662 8.86914 340.163 8.86914C340.676 8.86914 341.156 8.97428 341.601 9.18457C342.053 9.39486 342.427 9.74121 342.724 10.2236C342.897 9.97624 343.095 9.76595 343.317 9.59277C343.546 9.4196 343.791 9.28044 344.05 9.17529C344.31 9.07015 344.579 8.99284 344.857 8.94336C345.142 8.89388 345.433 8.86914 345.729 8.86914C346.286 8.86914 346.781 8.96191 347.214 9.14746C347.653 9.32682 348.024 9.57113 348.327 9.88037C348.63 10.1896 348.862 10.5452 349.023 10.9473C349.184 11.3493 349.264 11.7729 349.264 12.2183V19H346.676V13.2202C346.676 12.8677 346.636 12.5708 346.555 12.3296C346.481 12.0822 346.376 11.8843 346.24 11.7358C346.104 11.5812 345.943 11.473 345.757 11.4111C345.578 11.3431 345.383 11.3091 345.173 11.3091C344.925 11.3091 344.697 11.3524 344.486 11.439C344.276 11.5256 344.09 11.6616 343.93 11.8472C343.775 12.0327 343.651 12.2708 343.559 12.5615C343.472 12.846 343.429 13.1862 343.429 13.582V19ZM354.608 14.9644C354.292 15.0138 354.039 15.1252 353.847 15.2983C353.655 15.4653 353.56 15.6942 353.56 15.9849C353.56 16.3065 353.677 16.5848 353.912 16.8198C354.147 17.0487 354.493 17.1631 354.951 17.1631C355.434 17.1631 355.814 17.0239 356.092 16.7456C356.371 16.4673 356.51 16.0993 356.51 15.6416V14.6396L354.608 14.9644ZM356.927 18.063C356.822 18.1805 356.692 18.3073 356.538 18.4434C356.389 18.5732 356.21 18.6938 356 18.8052C355.795 18.9103 355.554 19 355.276 19.0742C354.998 19.1484 354.685 19.1855 354.339 19.1855C353.844 19.1855 353.386 19.1082 352.966 18.9536C352.551 18.7928 352.187 18.5701 351.871 18.2856C351.556 18.0011 351.308 17.6733 351.129 17.3022C350.95 16.925 350.86 16.5168 350.86 16.0776C350.86 15.2798 351.107 14.6273 351.602 14.1201C352.097 13.613 352.78 13.2944 353.652 13.1646L356.51 12.7471V12.5615C356.51 12.1162 356.374 11.7637 356.102 11.5039C355.829 11.2441 355.387 11.1143 354.775 11.1143C354.521 11.1143 354.265 11.1452 354.005 11.207C353.745 11.2627 353.495 11.3276 353.253 11.4019C353.018 11.4761 352.799 11.5627 352.595 11.6616C352.391 11.7544 352.211 11.8379 352.057 11.9121L351.055 9.95459C351.624 9.63916 352.255 9.37939 352.947 9.17529C353.646 8.97119 354.37 8.86914 355.118 8.86914C355.576 8.86914 356.037 8.91862 356.5 9.01758C356.971 9.11035 357.394 9.28353 357.771 9.53711C358.155 9.79069 358.467 10.137 358.708 10.5762C358.95 11.0091 359.07 11.5627 359.07 12.2368V16.3188C359.07 16.6095 359.145 16.826 359.293 16.9683C359.448 17.1043 359.658 17.2311 359.924 17.3486L358.764 19.1855C358.294 19.1361 357.917 19.0155 357.632 18.8237C357.348 18.6258 357.113 18.3722 356.927 18.063ZM361.213 9.06396H363.774V9.91748C363.91 9.78141 364.062 9.65153 364.229 9.52783C364.402 9.39795 364.59 9.28662 364.794 9.19385C364.999 9.09489 365.224 9.01758 365.472 8.96191C365.725 8.90007 366.004 8.86914 366.307 8.86914C366.845 8.86914 367.327 8.95882 367.754 9.13818C368.181 9.31136 368.539 9.55257 368.83 9.86182C369.127 10.1711 369.353 10.5329 369.507 10.9473C369.662 11.3617 369.739 11.8101 369.739 12.2925V19H367.179V13.2202C367.179 12.8677 367.139 12.5708 367.058 12.3296C366.978 12.0822 366.866 11.8843 366.724 11.7358C366.588 11.5812 366.424 11.4699 366.232 11.4019C366.047 11.3276 365.843 11.2905 365.62 11.2905C365.36 11.2905 365.116 11.3369 364.887 11.4297C364.665 11.5225 364.47 11.6647 364.303 11.8564C364.136 12.042 364.006 12.277 363.913 12.5615C363.82 12.846 363.774 13.18 363.774 13.5635V19H361.213V9.06396ZM380.334 19H377.773V18.1465C377.631 18.2826 377.477 18.4155 377.31 18.5454C377.143 18.6691 376.957 18.7804 376.753 18.8794C376.549 18.9722 376.32 19.0464 376.066 19.1021C375.819 19.1577 375.544 19.1855 375.241 19.1855C374.703 19.1855 374.22 19.099 373.793 18.9258C373.367 18.7464 373.005 18.5052 372.708 18.2021C372.417 17.8929 372.195 17.5311 372.04 17.1167C371.885 16.7023 371.808 16.2539 371.808 15.7715V9.06396H374.369V14.8345C374.369 15.187 374.406 15.487 374.48 15.7344C374.56 15.9818 374.669 16.1828 374.805 16.3374C374.947 16.4858 375.114 16.5972 375.306 16.6714C375.497 16.7394 375.705 16.7734 375.927 16.7734C376.187 16.7734 376.428 16.7271 376.651 16.6343C376.88 16.5415 377.078 16.4023 377.245 16.2168C377.412 16.0251 377.542 15.7869 377.634 15.5024C377.727 15.2179 377.773 14.884 377.773 14.5005V9.06396H380.334V19ZM385.761 14.9644C385.446 15.0138 385.192 15.1252 385 15.2983C384.809 15.4653 384.713 15.6942 384.713 15.9849C384.713 16.3065 384.83 16.5848 385.065 16.8198C385.3 17.0487 385.647 17.1631 386.104 17.1631C386.587 17.1631 386.967 17.0239 387.246 16.7456C387.524 16.4673 387.663 16.0993 387.663 15.6416V14.6396L385.761 14.9644ZM388.081 18.063C387.975 18.1805 387.846 18.3073 387.691 18.4434C387.542 18.5732 387.363 18.6938 387.153 18.8052C386.949 18.9103 386.708 19 386.429 19.0742C386.151 19.1484 385.839 19.1855 385.492 19.1855C384.997 19.1855 384.54 19.1082 384.119 18.9536C383.705 18.7928 383.34 18.5701 383.024 18.2856C382.709 18.0011 382.462 17.6733 382.282 17.3022C382.103 16.925 382.013 16.5168 382.013 16.0776C382.013 15.2798 382.261 14.6273 382.755 14.1201C383.25 13.613 383.934 13.2944 384.806 13.1646L387.663 12.7471V12.5615C387.663 12.1162 387.527 11.7637 387.255 11.5039C386.983 11.2441 386.541 11.1143 385.928 11.1143C385.675 11.1143 385.418 11.1452 385.158 11.207C384.898 11.2627 384.648 11.3276 384.407 11.4019C384.172 11.4761 383.952 11.5627 383.748 11.6616C383.544 11.7544 383.365 11.8379 383.21 11.9121L382.208 9.95459C382.777 9.63916 383.408 9.37939 384.101 9.17529C384.799 8.97119 385.523 8.86914 386.271 8.86914C386.729 8.86914 387.19 8.91862 387.654 9.01758C388.124 9.11035 388.548 9.28353 388.925 9.53711C389.308 9.79069 389.621 10.137 389.862 10.5762C390.103 11.0091 390.224 11.5627 390.224 12.2368V16.3188C390.224 16.6095 390.298 16.826 390.446 16.9683C390.601 17.1043 390.811 17.2311 391.077 17.3486L389.917 19.1855C389.447 19.1361 389.07 19.0155 388.786 18.8237C388.501 18.6258 388.266 18.3722 388.081 18.063ZM392.33 5.69629H394.89V16.3003C394.89 16.5106 394.949 16.6714 395.066 16.7827C395.19 16.894 395.385 16.9497 395.651 16.9497C395.775 16.9497 395.88 16.9435 395.966 16.9312C396.059 16.9126 396.177 16.8879 396.319 16.8569L396.523 19.0371C396.35 19.0618 396.164 19.0866 395.966 19.1113C395.799 19.1299 395.604 19.1453 395.382 19.1577C395.165 19.1763 394.94 19.1855 394.705 19.1855C394.34 19.1855 394.012 19.1392 393.721 19.0464C393.431 18.9536 393.18 18.8175 392.97 18.6382C392.766 18.4526 392.608 18.2238 392.497 17.9517C392.385 17.6795 392.33 17.3641 392.33 17.0054V5.69629Z" fill="white"/>
<rect width="125" height="27" transform="translate(414)" fill="#EB3223"/>
<path d="M423.282 15.2612C423.455 15.4591 423.666 15.654 423.913 15.8457C424.16 16.0374 424.433 16.2106 424.729 16.3652C425.033 16.5137 425.36 16.6343 425.713 16.7271C426.065 16.8136 426.446 16.8569 426.854 16.8569C427.615 16.8569 428.196 16.6992 428.598 16.3838C429.006 16.0622 429.21 15.6725 429.21 15.2148C429.21 14.7386 429.031 14.3768 428.672 14.1294C428.32 13.882 427.757 13.6872 426.984 13.5449L426.566 13.4707C426.01 13.3717 425.456 13.2419 424.906 13.0811C424.355 12.9202 423.857 12.6883 423.412 12.3853C422.967 12.0822 422.605 11.6956 422.327 11.2256C422.048 10.7493 421.909 10.1494 421.909 9.42578C421.909 9.00521 422.002 8.56608 422.188 8.1084C422.373 7.64453 422.667 7.22087 423.069 6.8374C423.477 6.44775 424 6.12923 424.637 5.88184C425.28 5.63444 426.056 5.51074 426.965 5.51074C428.042 5.51074 429 5.6901 429.841 6.04883C430.689 6.40137 431.372 6.86833 431.892 7.44971L430.101 9.11963C429.736 8.71761 429.266 8.40218 428.691 8.17334C428.122 7.9445 427.534 7.83008 426.928 7.83008C426.229 7.83008 425.682 7.96305 425.286 8.229C424.896 8.49495 424.702 8.84131 424.702 9.26807C424.702 9.54639 424.764 9.77832 424.887 9.96387C425.017 10.1494 425.196 10.304 425.425 10.4277C425.654 10.5452 425.929 10.6442 426.251 10.7246C426.573 10.805 426.931 10.8854 427.327 10.9658L427.541 11.0029C428.072 11.1019 428.601 11.2287 429.127 11.3833C429.653 11.5317 430.129 11.7544 430.556 12.0513C430.989 12.342 431.338 12.7254 431.604 13.2017C431.87 13.6717 432.003 14.2747 432.003 15.0107C432.003 15.6787 431.864 16.2694 431.585 16.7827C431.307 17.2961 430.939 17.7352 430.481 18.1001C430.024 18.4588 429.495 18.731 428.895 18.9165C428.295 19.0959 427.67 19.1855 427.021 19.1855C426.365 19.1855 425.756 19.1299 425.193 19.0186C424.637 18.9072 424.13 18.7495 423.672 18.5454C423.22 18.3413 422.815 18.1125 422.457 17.8589C422.104 17.6053 421.795 17.3332 421.529 17.0425L423.282 15.2612ZM444.063 12.2183C444.063 12.8182 444.017 13.4058 443.924 13.981C443.832 14.5562 443.686 15.1035 443.488 15.623C443.297 16.1364 443.049 16.6126 442.746 17.0518C442.443 17.4847 442.078 17.8589 441.651 18.1743C441.225 18.4897 440.733 18.7371 440.176 18.9165C439.626 19.0959 439.004 19.1855 438.312 19.1855C437.743 19.1855 437.217 19.1175 436.734 18.9814C436.252 18.8392 435.816 18.6475 435.426 18.4062C435.037 18.165 434.7 17.8805 434.415 17.5527C434.131 17.2188 433.908 16.86 433.747 16.4766L436.233 15.5024C436.456 15.923 436.753 16.2415 437.124 16.458C437.501 16.6683 437.928 16.7734 438.404 16.7734C438.868 16.7734 439.276 16.6838 439.629 16.5044C439.981 16.3188 440.272 16.0684 440.501 15.7529C440.736 15.4375 440.912 15.0726 441.03 14.6582C441.147 14.2376 441.203 13.7923 441.197 13.3223C441.042 13.4769 440.86 13.6253 440.649 13.7676C440.439 13.9098 440.204 14.0366 439.944 14.1479C439.691 14.2531 439.412 14.3397 439.109 14.4077C438.812 14.4696 438.5 14.5005 438.172 14.5005C437.523 14.5005 436.917 14.3953 436.354 14.1851C435.797 13.9686 435.312 13.6717 434.897 13.2944C434.489 12.911 434.168 12.4564 433.933 11.9307C433.698 11.4049 433.58 10.8298 433.58 10.2051C433.58 9.53711 433.698 8.91553 433.933 8.34033C434.174 7.76514 434.511 7.27035 434.944 6.85596C435.383 6.43538 435.909 6.10758 436.521 5.87256C437.133 5.63135 437.817 5.51074 438.571 5.51074C439.4 5.51074 440.152 5.65918 440.826 5.95605C441.5 6.24674 442.075 6.66732 442.551 7.21777C443.034 7.76823 443.405 8.43929 443.665 9.23096C443.931 10.0226 444.063 10.9163 444.063 11.9121V12.2183ZM441.067 10.0474C441.067 9.73193 441.011 9.43815 440.9 9.16602C440.789 8.89388 440.628 8.65885 440.417 8.46094C440.213 8.25684 439.966 8.09912 439.675 7.98779C439.385 7.87028 439.063 7.81152 438.71 7.81152C438.346 7.81152 438.018 7.87028 437.727 7.98779C437.436 8.09912 437.189 8.25684 436.985 8.46094C436.781 8.65885 436.623 8.89388 436.512 9.16602C436.407 9.43815 436.354 9.73193 436.354 10.0474C436.354 10.3566 436.407 10.6473 436.512 10.9194C436.623 11.1916 436.781 11.4297 436.985 11.6338C437.189 11.8317 437.436 11.9894 437.727 12.1069C438.018 12.2183 438.346 12.2739 438.71 12.2739C439.063 12.2739 439.385 12.2183 439.675 12.1069C439.966 11.9894 440.213 11.8317 440.417 11.6338C440.628 11.4297 440.789 11.1916 440.9 10.9194C441.011 10.6473 441.067 10.3566 441.067 10.0474ZM451.894 19V15.9941H445.26V13.1274L451.151 5.69629H454.593V13.5635H456.532V15.9941H454.593V19H451.894ZM451.894 13.5635V8.34033L447.756 13.5635H451.894ZM464.362 5.69629C464.919 5.69629 465.435 5.77979 465.912 5.94678C466.388 6.10758 466.802 6.33952 467.155 6.64258C467.507 6.94564 467.783 7.31364 467.98 7.74658C468.178 8.17334 468.277 8.64958 468.277 9.17529C468.277 9.44743 468.237 9.71647 468.157 9.98242C468.083 10.2484 467.971 10.4989 467.823 10.7339C467.674 10.9627 467.495 11.173 467.285 11.3647C467.074 11.5565 466.836 11.7142 466.57 11.8379C466.787 11.9121 467.037 12.0234 467.322 12.1719C467.612 12.3203 467.888 12.5244 468.147 12.7842C468.407 13.0439 468.627 13.3656 468.806 13.749C468.986 14.1263 469.075 14.584 469.075 15.1221C469.075 15.7962 468.945 16.3776 468.686 16.8662C468.432 17.3548 468.086 17.7568 467.646 18.0723C467.214 18.3877 466.703 18.6227 466.116 18.7773C465.534 18.9258 464.919 19 464.27 19H458.443V5.69629H464.362ZM466.32 15.0293C466.32 14.6706 466.255 14.3768 466.125 14.1479C465.995 13.9191 465.822 13.7367 465.605 13.6006C465.395 13.4645 465.154 13.3717 464.882 13.3223C464.61 13.2666 464.331 13.2388 464.047 13.2388H461.134V16.8755H464.047C464.331 16.8755 464.61 16.8477 464.882 16.792C465.154 16.7363 465.395 16.6374 465.605 16.4951C465.822 16.3529 465.995 16.1642 466.125 15.9292C466.255 15.6942 466.32 15.3942 466.32 15.0293ZM465.568 9.44434C465.568 8.93717 465.408 8.54134 465.086 8.25684C464.764 7.97233 464.245 7.83008 463.527 7.83008H461.134V10.9658H463.527C464.232 10.9658 464.749 10.8328 465.077 10.5669C465.404 10.2948 465.568 9.92057 465.568 9.44434ZM477.453 14.9644C477.137 15.0138 476.884 15.1252 476.692 15.2983C476.5 15.4653 476.404 15.6942 476.404 15.9849C476.404 16.3065 476.522 16.5848 476.757 16.8198C476.992 17.0487 477.338 17.1631 477.796 17.1631C478.278 17.1631 478.659 17.0239 478.937 16.7456C479.215 16.4673 479.354 16.0993 479.354 15.6416V14.6396L477.453 14.9644ZM479.772 18.063C479.667 18.1805 479.537 18.3073 479.382 18.4434C479.234 18.5732 479.055 18.6938 478.844 18.8052C478.64 18.9103 478.399 19 478.121 19.0742C477.842 19.1484 477.53 19.1855 477.184 19.1855C476.689 19.1855 476.231 19.1082 475.811 18.9536C475.396 18.7928 475.031 18.5701 474.716 18.2856C474.4 18.0011 474.153 17.6733 473.974 17.3022C473.794 16.925 473.705 16.5168 473.705 16.0776C473.705 15.2798 473.952 14.6273 474.447 14.1201C474.942 13.613 475.625 13.2944 476.497 13.1646L479.354 12.7471V12.5615C479.354 12.1162 479.218 11.7637 478.946 11.5039C478.674 11.2441 478.232 11.1143 477.62 11.1143C477.366 11.1143 477.109 11.1452 476.85 11.207C476.59 11.2627 476.339 11.3276 476.098 11.4019C475.863 11.4761 475.644 11.5627 475.439 11.6616C475.235 11.7544 475.056 11.8379 474.901 11.9121L473.899 9.95459C474.468 9.63916 475.099 9.37939 475.792 9.17529C476.491 8.97119 477.215 8.86914 477.963 8.86914C478.421 8.86914 478.881 8.91862 479.345 9.01758C479.815 9.11035 480.239 9.28353 480.616 9.53711C481 9.79069 481.312 10.137 481.553 10.5762C481.794 11.0091 481.915 11.5627 481.915 12.2368V16.3188C481.915 16.6095 481.989 16.826 482.138 16.9683C482.292 17.1043 482.503 17.2311 482.769 17.3486L481.609 19.1855C481.139 19.1361 480.762 19.0155 480.477 18.8237C480.193 18.6258 479.958 18.3722 479.772 18.063ZM486.619 22.1357H484.058V9.06396H486.619V9.91748C486.897 9.62679 487.24 9.37939 487.648 9.17529C488.057 8.97119 488.551 8.86914 489.133 8.86914C489.788 8.86914 490.382 9.00212 490.914 9.26807C491.452 9.52783 491.913 9.88965 492.296 10.3535C492.68 10.8112 492.977 11.3555 493.187 11.9863C493.397 12.6172 493.502 13.3006 493.502 14.0366C493.502 14.7726 493.394 15.4561 493.178 16.0869C492.961 16.7178 492.658 17.262 492.269 17.7197C491.879 18.1774 491.412 18.5361 490.868 18.7959C490.323 19.0557 489.723 19.1855 489.068 19.1855C488.777 19.1855 488.511 19.1577 488.27 19.1021C488.035 19.0526 487.819 18.9814 487.621 18.8887C487.423 18.7959 487.24 18.6877 487.073 18.564C486.906 18.4341 486.755 18.2949 486.619 18.1465V22.1357ZM486.544 14.9551C486.544 15.221 486.591 15.4684 486.684 15.6973C486.783 15.9199 486.922 16.1147 487.101 16.2817C487.28 16.4487 487.494 16.5786 487.741 16.6714C487.995 16.7642 488.279 16.8105 488.595 16.8105C488.96 16.8105 489.281 16.7456 489.56 16.6157C489.844 16.4797 490.082 16.291 490.274 16.0498C490.466 15.8086 490.611 15.5241 490.71 15.1963C490.809 14.8623 490.858 14.4974 490.858 14.1016V13.981C490.858 13.5851 490.809 13.2202 490.71 12.8862C490.611 12.5522 490.466 12.2646 490.274 12.0234C490.082 11.776 489.844 11.5843 489.56 11.4482C489.281 11.3122 488.96 11.2441 488.595 11.2441C488.279 11.2441 487.995 11.2905 487.741 11.3833C487.494 11.4761 487.28 11.606 487.101 11.7729C486.922 11.9399 486.783 12.1379 486.684 12.3667C486.591 12.5955 486.544 12.8429 486.544 13.1089V14.9551ZM497.77 22.1357H495.209V9.06396H497.77V9.91748C498.048 9.62679 498.392 9.37939 498.8 9.17529C499.208 8.97119 499.703 8.86914 500.284 8.86914C500.94 8.86914 501.534 9.00212 502.065 9.26807C502.604 9.52783 503.064 9.88965 503.448 10.3535C503.831 10.8112 504.128 11.3555 504.338 11.9863C504.549 12.6172 504.654 13.3006 504.654 14.0366C504.654 14.7726 504.546 15.4561 504.329 16.0869C504.113 16.7178 503.81 17.262 503.42 17.7197C503.03 18.1774 502.563 18.5361 502.019 18.7959C501.475 19.0557 500.875 19.1855 500.219 19.1855C499.929 19.1855 499.663 19.1577 499.421 19.1021C499.186 19.0526 498.97 18.9814 498.772 18.8887C498.574 18.7959 498.392 18.6877 498.225 18.564C498.058 18.4341 497.906 18.2949 497.77 18.1465V22.1357ZM497.696 14.9551C497.696 15.221 497.742 15.4684 497.835 15.6973C497.934 15.9199 498.073 16.1147 498.252 16.2817C498.432 16.4487 498.645 16.5786 498.893 16.6714C499.146 16.7642 499.431 16.8105 499.746 16.8105C500.111 16.8105 500.433 16.7456 500.711 16.6157C500.995 16.4797 501.234 16.291 501.425 16.0498C501.617 15.8086 501.762 15.5241 501.861 15.1963C501.96 14.8623 502.01 14.4974 502.01 14.1016V13.981C502.01 13.5851 501.96 13.2202 501.861 12.8862C501.762 12.5522 501.617 12.2646 501.425 12.0234C501.234 11.776 500.995 11.5843 500.711 11.4482C500.433 11.3122 500.111 11.2441 499.746 11.2441C499.431 11.2441 499.146 11.2905 498.893 11.3833C498.645 11.4761 498.432 11.606 498.252 11.7729C498.073 11.9399 497.934 12.1379 497.835 12.3667C497.742 12.5955 497.696 12.8429 497.696 13.1089V14.9551ZM508.504 14.918C508.547 15.2148 508.64 15.487 508.782 15.7344C508.931 15.9818 509.116 16.1951 509.339 16.3745C509.562 16.5477 509.818 16.6838 510.109 16.7827C510.4 16.8817 510.709 16.9312 511.037 16.9312C511.414 16.9312 511.822 16.86 512.261 16.7178C512.7 16.5693 513.102 16.356 513.467 16.0776L514.701 17.8774C514.237 18.2671 513.668 18.5825 512.994 18.8237C512.32 19.0649 511.603 19.1855 510.842 19.1855C510.155 19.1855 509.509 19.068 508.903 18.833C508.297 18.598 507.765 18.2578 507.307 17.8125C506.856 17.3672 506.497 16.826 506.231 16.189C505.971 15.5519 505.841 14.8345 505.841 14.0366C505.841 13.3068 505.956 12.6265 506.185 11.9956C506.42 11.3647 506.744 10.8174 507.159 10.3535C507.579 9.88965 508.08 9.52783 508.662 9.26807C509.243 9.00212 509.886 8.86914 510.591 8.86914C511.247 8.86914 511.856 8.98975 512.419 9.23096C512.982 9.46598 513.47 9.79997 513.885 10.2329C514.299 10.6597 514.624 11.173 514.859 11.7729C515.094 12.3729 515.211 13.0347 515.211 13.7583V14.918H508.504ZM510.582 11.0957C510.032 11.0957 509.565 11.2812 509.181 11.6523C508.804 12.0173 508.584 12.4595 508.522 12.979H512.53C512.518 12.4533 512.326 12.008 511.955 11.6431C511.584 11.2782 511.126 11.0957 510.582 11.0957ZM520.054 14.9644C519.739 15.0138 519.485 15.1252 519.293 15.2983C519.102 15.4653 519.006 15.6942 519.006 15.9849C519.006 16.3065 519.123 16.5848 519.358 16.8198C519.593 17.0487 519.94 17.1631 520.397 17.1631C520.88 17.1631 521.26 17.0239 521.539 16.7456C521.817 16.4673 521.956 16.0993 521.956 15.6416V14.6396L520.054 14.9644ZM522.374 18.063C522.268 18.1805 522.139 18.3073 521.984 18.4434C521.835 18.5732 521.656 18.6938 521.446 18.8052C521.242 18.9103 521 19 520.722 19.0742C520.444 19.1484 520.132 19.1855 519.785 19.1855C519.29 19.1855 518.833 19.1082 518.412 18.9536C517.998 18.7928 517.633 18.5701 517.317 18.2856C517.002 18.0011 516.755 17.6733 516.575 17.3022C516.396 16.925 516.306 16.5168 516.306 16.0776C516.306 15.2798 516.554 14.6273 517.048 14.1201C517.543 13.613 518.227 13.2944 519.099 13.1646L521.956 12.7471V12.5615C521.956 12.1162 521.82 11.7637 521.548 11.5039C521.276 11.2441 520.833 11.1143 520.221 11.1143C519.968 11.1143 519.711 11.1452 519.451 11.207C519.191 11.2627 518.941 11.3276 518.7 11.4019C518.465 11.4761 518.245 11.5627 518.041 11.6616C517.837 11.7544 517.658 11.8379 517.503 11.9121L516.501 9.95459C517.07 9.63916 517.701 9.37939 518.394 9.17529C519.092 8.97119 519.816 8.86914 520.564 8.86914C521.022 8.86914 521.483 8.91862 521.947 9.01758C522.417 9.11035 522.84 9.28353 523.218 9.53711C523.601 9.79069 523.914 10.137 524.155 10.5762C524.396 11.0091 524.517 11.5627 524.517 12.2368V16.3188C524.517 16.6095 524.591 16.826 524.739 16.9683C524.894 17.1043 525.104 17.2311 525.37 17.3486L524.21 19.1855C523.74 19.1361 523.363 19.0155 523.079 18.8237C522.794 18.6258 522.559 18.3722 522.374 18.063ZM526.623 5.69629H529.183V16.3003C529.183 16.5106 529.242 16.6714 529.359 16.7827C529.483 16.894 529.678 16.9497 529.944 16.9497C530.068 16.9497 530.173 16.9435 530.259 16.9312C530.352 16.9126 530.47 16.8879 530.612 16.8569L530.816 19.0371C530.643 19.0618 530.457 19.0866 530.259 19.1113C530.092 19.1299 529.897 19.1453 529.675 19.1577C529.458 19.1763 529.233 19.1855 528.998 19.1855C528.633 19.1855 528.305 19.1392 528.014 19.0464C527.723 18.9536 527.473 18.8175 527.263 18.6382C527.059 18.4526 526.901 18.2238 526.79 17.9517C526.678 17.6795 526.623 17.3641 526.623 17.0054V5.69629Z" fill="white"/>
</svg>
