<svg width="696" height="120" viewBox="0 0 696 120" fill="none" xmlns="http://www.w3.org/2000/svg">
	<rect width="696" height="120" fill="#D4351C"/>
	<path d="M59.7188 24.793L64.834 34.5137H64.9043L70.125 24.793H75.8379L67.418 39.7344V50H62.2676V39.7344L53.8477 24.793H59.7188ZM83.4141 30.8047C84.8086 30.8047 86.0742 31.0566 87.2109 31.5605C88.3477 32.0527 89.3203 32.7383 90.1289 33.6172C90.9375 34.4961 91.5586 35.5332 91.9922 36.7285C92.4375 37.9238 92.6602 39.2129 92.6602 40.5957C92.6602 41.9902 92.4375 43.2852 91.9922 44.4805C91.5469 45.6641 90.9199 46.6895 90.1113 47.5566C89.3027 48.4238 88.3301 49.1094 87.1934 49.6133C86.0566 50.1055 84.7969 50.3516 83.4141 50.3516C82.0195 50.3516 80.7539 50.1055 79.6172 49.6133C78.4805 49.1094 77.5078 48.4238 76.6992 47.5566C75.8906 46.6895 75.2637 45.6641 74.8184 44.4805C74.373 43.2852 74.1504 41.9902 74.1504 40.5957C74.1504 39.2129 74.3672 37.9238 74.8008 36.7285C75.2461 35.5332 75.873 34.4961 76.6816 33.6172C77.4902 32.7383 78.4629 32.0527 79.5996 31.5605C80.748 31.0566 82.0195 30.8047 83.4141 30.8047ZM83.4141 45.8516C84.1055 45.8516 84.7148 45.7227 85.2422 45.4648C85.7812 45.207 86.2324 44.8496 86.5957 44.3926C86.959 43.9355 87.2344 43.3906 87.4219 42.7578C87.6094 42.1133 87.7031 41.4102 87.7031 40.6484V40.5254C87.7031 39.7637 87.6094 39.0664 87.4219 38.4336C87.2344 37.7891 86.959 37.2383 86.5957 36.7812C86.2324 36.3125 85.7812 35.9492 85.2422 35.6914C84.7148 35.4336 84.1055 35.3047 83.4141 35.3047C82.7227 35.3047 82.1074 35.4336 81.5684 35.6914C81.041 35.9492 80.5957 36.3125 80.2324 36.7812C79.8691 37.2383 79.5938 37.7891 79.4062 38.4336C79.2188 39.0664 79.125 39.7637 79.125 40.5254V40.6484C79.125 41.4102 79.2188 42.1133 79.4062 42.7578C79.5938 43.3906 79.8691 43.9355 80.2324 44.3926C80.5957 44.8496 81.041 45.207 81.5684 45.4648C82.1074 45.7227 82.7227 45.8516 83.4141 45.8516ZM111.891 50H107.039V48.3828C106.77 48.6406 106.477 48.8926 106.16 49.1387C105.844 49.373 105.492 49.584 105.105 49.7715C104.719 49.9473 104.285 50.0879 103.805 50.1934C103.336 50.2988 102.814 50.3516 102.24 50.3516C101.221 50.3516 100.307 50.1875 99.498 49.8594C98.6895 49.5195 98.0039 49.0625 97.4414 48.4883C96.8906 47.9023 96.4688 47.2168 96.1758 46.4316C95.8828 45.6465 95.7363 44.7969 95.7363 43.8828V31.1738H100.588V42.1074C100.588 42.7754 100.658 43.3438 100.799 43.8125C100.951 44.2812 101.156 44.6621 101.414 44.9551C101.684 45.2363 102 45.4473 102.363 45.5879C102.727 45.7168 103.119 45.7812 103.541 45.7812C104.033 45.7812 104.49 45.6934 104.912 45.5176C105.346 45.3418 105.721 45.0781 106.037 44.7266C106.354 44.3633 106.6 43.9121 106.775 43.373C106.951 42.834 107.039 42.2012 107.039 41.4746V31.1738H111.891V50ZM126.674 35.8848H126.164C125.473 35.8848 124.811 35.9551 124.178 36.0957C123.557 36.2363 123.006 36.4941 122.525 36.8691C122.045 37.2324 121.658 37.7363 121.365 38.3809C121.084 39.0254 120.943 39.8516 120.943 40.8594V50H116.092V31.1738H120.943V33.3008C121.143 32.9844 121.4 32.6797 121.717 32.3867C122.033 32.0938 122.402 31.8359 122.824 31.6133C123.246 31.3789 123.721 31.1914 124.248 31.0508C124.775 30.9102 125.344 30.8398 125.953 30.8398H126.674V35.8848ZM141.51 42.3535C140.912 42.4473 140.432 42.6582 140.068 42.9863C139.705 43.3027 139.523 43.7363 139.523 44.2871C139.523 44.8965 139.746 45.4238 140.191 45.8691C140.637 46.3027 141.293 46.5195 142.16 46.5195C143.074 46.5195 143.795 46.2559 144.322 45.7285C144.85 45.2012 145.113 44.5039 145.113 43.6367V41.7383L141.51 42.3535ZM145.904 48.2246C145.705 48.4473 145.459 48.6875 145.166 48.9453C144.885 49.1914 144.545 49.4199 144.146 49.6309C143.76 49.8301 143.303 50 142.775 50.1406C142.248 50.2812 141.656 50.3516 141 50.3516C140.062 50.3516 139.195 50.2051 138.398 49.9121C137.613 49.6074 136.922 49.1855 136.324 48.6465C135.727 48.1074 135.258 47.4863 134.918 46.7832C134.578 46.0684 134.408 45.2949 134.408 44.4629C134.408 42.9512 134.877 41.7148 135.814 40.7539C136.752 39.793 138.047 39.1895 139.699 38.9434L145.113 38.1523V37.8008C145.113 36.957 144.855 36.2891 144.34 35.7969C143.824 35.3047 142.986 35.0586 141.826 35.0586C141.346 35.0586 140.859 35.1172 140.367 35.2344C139.875 35.3398 139.4 35.4629 138.943 35.6035C138.498 35.7441 138.082 35.9082 137.695 36.0957C137.309 36.2715 136.969 36.4297 136.676 36.5703L134.777 32.8613C135.855 32.2637 137.051 31.7715 138.363 31.3848C139.688 30.998 141.059 30.8047 142.477 30.8047C143.344 30.8047 144.217 30.8984 145.096 31.0859C145.986 31.2617 146.789 31.5898 147.504 32.0703C148.23 32.5508 148.822 33.207 149.279 34.0391C149.736 34.8594 149.965 35.9082 149.965 37.1855V44.9199C149.965 45.4707 150.105 45.8809 150.387 46.1504C150.68 46.4082 151.078 46.6484 151.582 46.8711L149.385 50.3516C148.494 50.2578 147.779 50.0293 147.24 49.666C146.701 49.291 146.256 48.8105 145.904 48.2246ZM158.877 55.9414H154.025V31.1738H158.877V32.791C159.404 32.2402 160.055 31.7715 160.828 31.3848C161.602 30.998 162.539 30.8047 163.641 30.8047C164.883 30.8047 166.008 31.0566 167.016 31.5605C168.035 32.0527 168.908 32.7383 169.635 33.6172C170.361 34.4844 170.924 35.5156 171.322 36.7109C171.721 37.9062 171.92 39.2012 171.92 40.5957C171.92 41.9902 171.715 43.2852 171.305 44.4805C170.895 45.6758 170.32 46.707 169.582 47.5742C168.844 48.4414 167.959 49.1211 166.928 49.6133C165.896 50.1055 164.76 50.3516 163.518 50.3516C162.967 50.3516 162.463 50.2988 162.006 50.1934C161.561 50.0996 161.15 49.9648 160.775 49.7891C160.4 49.6133 160.055 49.4082 159.738 49.1738C159.422 48.9277 159.135 48.6641 158.877 48.3828V55.9414ZM158.736 42.3359C158.736 42.8398 158.824 43.3086 159 43.7422C159.188 44.1641 159.451 44.5332 159.791 44.8496C160.131 45.166 160.535 45.4121 161.004 45.5879C161.484 45.7637 162.023 45.8516 162.621 45.8516C163.312 45.8516 163.922 45.7285 164.449 45.4824C164.988 45.2246 165.439 44.8672 165.803 44.4102C166.166 43.9531 166.441 43.4141 166.629 42.793C166.816 42.1602 166.91 41.4688 166.91 40.7188V40.4902C166.91 39.7402 166.816 39.0488 166.629 38.416C166.441 37.7832 166.166 37.2383 165.803 36.7812C165.439 36.3125 164.988 35.9492 164.449 35.6914C163.922 35.4336 163.312 35.3047 162.621 35.3047C162.023 35.3047 161.484 35.3926 161.004 35.5684C160.535 35.7441 160.131 35.9902 159.791 36.3066C159.451 36.623 159.188 36.998 159 37.4316C158.824 37.8652 158.736 38.334 158.736 38.8379V42.3359ZM180.006 55.9414H175.154V31.1738H180.006V32.791C180.533 32.2402 181.184 31.7715 181.957 31.3848C182.73 30.998 183.668 30.8047 184.77 30.8047C186.012 30.8047 187.137 31.0566 188.145 31.5605C189.164 32.0527 190.037 32.7383 190.764 33.6172C191.49 34.4844 192.053 35.5156 192.451 36.7109C192.85 37.9062 193.049 39.2012 193.049 40.5957C193.049 41.9902 192.844 43.2852 192.434 44.4805C192.023 45.6758 191.449 46.707 190.711 47.5742C189.973 48.4414 189.088 49.1211 188.057 49.6133C187.025 50.1055 185.889 50.3516 184.646 50.3516C184.096 50.3516 183.592 50.2988 183.135 50.1934C182.689 50.0996 182.279 49.9648 181.904 49.7891C181.529 49.6133 181.184 49.4082 180.867 49.1738C180.551 48.9277 180.264 48.6641 180.006 48.3828V55.9414ZM179.865 42.3359C179.865 42.8398 179.953 43.3086 180.129 43.7422C180.316 44.1641 180.58 44.5332 180.92 44.8496C181.26 45.166 181.664 45.4121 182.133 45.5879C182.613 45.7637 183.152 45.8516 183.75 45.8516C184.441 45.8516 185.051 45.7285 185.578 45.4824C186.117 45.2246 186.568 44.8672 186.932 44.4102C187.295 43.9531 187.57 43.4141 187.758 42.793C187.945 42.1602 188.039 41.4688 188.039 40.7188V40.4902C188.039 39.7402 187.945 39.0488 187.758 38.416C187.57 37.7832 187.295 37.2383 186.932 36.7812C186.568 36.3125 186.117 35.9492 185.578 35.6914C185.051 35.4336 184.441 35.3047 183.75 35.3047C183.152 35.3047 182.613 35.3926 182.133 35.5684C181.664 35.7441 181.26 35.9902 180.92 36.3066C180.58 36.623 180.316 36.998 180.129 37.4316C179.953 37.8652 179.865 38.334 179.865 38.8379V42.3359ZM196.213 24.793H201.064V44.8848C201.064 45.2832 201.176 45.5879 201.398 45.7988C201.633 46.0098 202.002 46.1152 202.506 46.1152C202.74 46.1152 202.939 46.1035 203.104 46.0801C203.279 46.0449 203.502 45.998 203.771 45.9395L204.158 50.0703C203.83 50.1172 203.479 50.1641 203.104 50.2109C202.787 50.2461 202.418 50.2754 201.996 50.2988C201.586 50.334 201.158 50.3516 200.713 50.3516C200.021 50.3516 199.4 50.2637 198.85 50.0879C198.299 49.9121 197.824 49.6543 197.426 49.3145C197.039 48.9629 196.74 48.5293 196.529 48.0137C196.318 47.498 196.213 46.9004 196.213 46.2207V24.793ZM211.682 50H206.83V31.1738H211.682V50ZM206.32 26.2344C206.32 25.8359 206.396 25.4609 206.549 25.1094C206.701 24.7461 206.906 24.4355 207.164 24.1777C207.434 23.9082 207.744 23.6973 208.096 23.5449C208.447 23.3926 208.828 23.3164 209.238 23.3164C209.637 23.3164 210.012 23.3926 210.363 23.5449C210.727 23.6973 211.037 23.9082 211.295 24.1777C211.564 24.4355 211.775 24.7461 211.928 25.1094C212.08 25.4609 212.156 25.8359 212.156 26.2344C212.156 26.6445 212.08 27.0254 211.928 27.377C211.775 27.7285 211.564 28.0391 211.295 28.3086C211.037 28.5664 210.727 28.7715 210.363 28.9238C210.012 29.0762 209.637 29.1523 209.238 29.1523C208.828 29.1523 208.447 29.0762 208.096 28.9238C207.744 28.7715 207.434 28.5664 207.164 28.3086C206.906 28.0391 206.701 27.7285 206.549 27.377C206.396 27.0254 206.32 26.6445 206.32 26.2344ZM219.891 40.6836C219.891 41.293 219.973 41.9082 220.137 42.5293C220.301 43.1387 220.553 43.6895 220.893 44.1816C221.232 44.6738 221.666 45.0781 222.193 45.3945C222.732 45.6992 223.371 45.8516 224.109 45.8516C224.59 45.8516 225.023 45.7871 225.41 45.6582C225.809 45.5293 226.16 45.3535 226.465 45.1309C226.781 44.8965 227.057 44.627 227.291 44.3223C227.537 44.0059 227.748 43.666 227.924 43.3027L232.178 45.5C231.873 46.2383 231.451 46.9062 230.912 47.5039C230.385 48.1016 229.77 48.6113 229.066 49.0332C228.363 49.4551 227.584 49.7773 226.729 50C225.873 50.2344 224.965 50.3516 224.004 50.3516C222.68 50.3516 221.461 50.1055 220.348 49.6133C219.234 49.1094 218.273 48.4238 217.465 47.5566C216.656 46.6895 216.023 45.6641 215.566 44.4805C215.109 43.2852 214.881 41.9902 214.881 40.5957C214.881 39.2129 215.109 37.9238 215.566 36.7285C216.023 35.5332 216.656 34.4961 217.465 33.6172C218.273 32.7383 219.234 32.0527 220.348 31.5605C221.461 31.0566 222.68 30.8047 224.004 30.8047C224.965 30.8047 225.873 30.9219 226.729 31.1562C227.584 31.3789 228.363 31.707 229.066 32.1406C229.77 32.5625 230.385 33.0723 230.912 33.6699C231.451 34.2676 231.873 34.9355 232.178 35.6738L227.924 37.8711C227.748 37.5078 227.537 37.1738 227.291 36.8691C227.057 36.5527 226.781 36.2832 226.465 36.0605C226.16 35.8262 225.809 35.6445 225.41 35.5156C225.023 35.375 224.59 35.3047 224.109 35.3047C223.371 35.3047 222.732 35.4629 222.193 35.7793C221.666 36.084 221.232 36.4883 220.893 36.9922C220.553 37.4844 220.301 38.041 220.137 38.6621C219.973 39.2832 219.891 39.9043 219.891 40.5254V40.6836ZM241.248 42.3535C240.65 42.4473 240.17 42.6582 239.807 42.9863C239.443 43.3027 239.262 43.7363 239.262 44.2871C239.262 44.8965 239.484 45.4238 239.93 45.8691C240.375 46.3027 241.031 46.5195 241.898 46.5195C242.812 46.5195 243.533 46.2559 244.061 45.7285C244.588 45.2012 244.852 44.5039 244.852 43.6367V41.7383L241.248 42.3535ZM245.643 48.2246C245.443 48.4473 245.197 48.6875 244.904 48.9453C244.623 49.1914 244.283 49.4199 243.885 49.6309C243.498 49.8301 243.041 50 242.514 50.1406C241.986 50.2812 241.395 50.3516 240.738 50.3516C239.801 50.3516 238.934 50.2051 238.137 49.9121C237.352 49.6074 236.66 49.1855 236.062 48.6465C235.465 48.1074 234.996 47.4863 234.656 46.7832C234.316 46.0684 234.146 45.2949 234.146 44.4629C234.146 42.9512 234.615 41.7148 235.553 40.7539C236.49 39.793 237.785 39.1895 239.438 38.9434L244.852 38.1523V37.8008C244.852 36.957 244.594 36.2891 244.078 35.7969C243.562 35.3047 242.725 35.0586 241.564 35.0586C241.084 35.0586 240.598 35.1172 240.105 35.2344C239.613 35.3398 239.139 35.4629 238.682 35.6035C238.236 35.7441 237.82 35.9082 237.434 36.0957C237.047 36.2715 236.707 36.4297 236.414 36.5703L234.516 32.8613C235.594 32.2637 236.789 31.7715 238.102 31.3848C239.426 30.998 240.797 30.8047 242.215 30.8047C243.082 30.8047 243.955 30.8984 244.834 31.0859C245.725 31.2617 246.527 31.5898 247.242 32.0703C247.969 32.5508 248.561 33.207 249.018 34.0391C249.475 34.8594 249.703 35.9082 249.703 37.1855V44.9199C249.703 45.4707 249.844 45.8809 250.125 46.1504C250.418 46.4082 250.816 46.6484 251.32 46.8711L249.123 50.3516C248.232 50.2578 247.518 50.0293 246.979 49.666C246.439 49.291 245.994 48.8105 245.643 48.2246ZM259.969 44.3926C259.969 44.6152 259.998 44.8262 260.057 45.0254C260.115 45.2246 260.215 45.4004 260.355 45.5527C260.508 45.6934 260.719 45.8047 260.988 45.8867C261.258 45.9688 261.604 46.0098 262.025 46.0098C262.201 46.0098 262.4 46.0039 262.623 45.9922C262.846 45.9688 263.068 45.9453 263.291 45.9219C263.514 45.8984 263.719 45.8691 263.906 45.834C264.105 45.7988 264.27 45.7695 264.398 45.7461L264.838 50.0352C264.381 50.0938 263.906 50.1465 263.414 50.1934C262.992 50.2402 262.523 50.2754 262.008 50.2988C261.492 50.334 260.971 50.3516 260.443 50.3516C258.768 50.3516 257.461 49.9707 256.523 49.209C255.586 48.4473 255.117 47.2344 255.117 45.5703V35.3926H251.725V31.1738H255.117V25.8477L259.969 24.5469V31.1738H264.908V35.3926H259.969V44.3926ZM272.818 50H267.967V31.1738H272.818V50ZM267.457 26.2344C267.457 25.8359 267.533 25.4609 267.686 25.1094C267.838 24.7461 268.043 24.4355 268.301 24.1777C268.57 23.9082 268.881 23.6973 269.232 23.5449C269.584 23.3926 269.965 23.3164 270.375 23.3164C270.773 23.3164 271.148 23.3926 271.5 23.5449C271.863 23.6973 272.174 23.9082 272.432 24.1777C272.701 24.4355 272.912 24.7461 273.064 25.1094C273.217 25.4609 273.293 25.8359 273.293 26.2344C273.293 26.6445 273.217 27.0254 273.064 27.377C272.912 27.7285 272.701 28.0391 272.432 28.3086C272.174 28.5664 271.863 28.7715 271.5 28.9238C271.148 29.0762 270.773 29.1523 270.375 29.1523C269.965 29.1523 269.584 29.0762 269.232 28.9238C268.881 28.7715 268.57 28.5664 268.301 28.3086C268.043 28.0391 267.838 27.7285 267.686 27.377C267.533 27.0254 267.457 26.6445 267.457 26.2344ZM285.281 30.8047C286.676 30.8047 287.941 31.0566 289.078 31.5605C290.215 32.0527 291.188 32.7383 291.996 33.6172C292.805 34.4961 293.426 35.5332 293.859 36.7285C294.305 37.9238 294.527 39.2129 294.527 40.5957C294.527 41.9902 294.305 43.2852 293.859 44.4805C293.414 45.6641 292.787 46.6895 291.979 47.5566C291.17 48.4238 290.197 49.1094 289.061 49.6133C287.924 50.1055 286.664 50.3516 285.281 50.3516C283.887 50.3516 282.621 50.1055 281.484 49.6133C280.348 49.1094 279.375 48.4238 278.566 47.5566C277.758 46.6895 277.131 45.6641 276.686 44.4805C276.24 43.2852 276.018 41.9902 276.018 40.5957C276.018 39.2129 276.234 37.9238 276.668 36.7285C277.113 35.5332 277.74 34.4961 278.549 33.6172C279.357 32.7383 280.33 32.0527 281.467 31.5605C282.615 31.0566 283.887 30.8047 285.281 30.8047ZM285.281 45.8516C285.973 45.8516 286.582 45.7227 287.109 45.4648C287.648 45.207 288.1 44.8496 288.463 44.3926C288.826 43.9355 289.102 43.3906 289.289 42.7578C289.477 42.1133 289.57 41.4102 289.57 40.6484V40.5254C289.57 39.7637 289.477 39.0664 289.289 38.4336C289.102 37.7891 288.826 37.2383 288.463 36.7812C288.1 36.3125 287.648 35.9492 287.109 35.6914C286.582 35.4336 285.973 35.3047 285.281 35.3047C284.59 35.3047 283.975 35.4336 283.436 35.6914C282.908 35.9492 282.463 36.3125 282.1 36.7812C281.736 37.2383 281.461 37.7891 281.273 38.4336C281.086 39.0664 280.992 39.7637 280.992 40.5254V40.6484C280.992 41.4102 281.086 42.1133 281.273 42.7578C281.461 43.3906 281.736 43.9355 282.1 44.3926C282.463 44.8496 282.908 45.207 283.436 45.4648C283.975 45.7227 284.59 45.8516 285.281 45.8516ZM297.744 31.1738H302.596V32.791C302.854 32.5332 303.141 32.2871 303.457 32.0527C303.785 31.8066 304.143 31.5957 304.529 31.4199C304.916 31.2324 305.344 31.0859 305.812 30.9805C306.293 30.8633 306.82 30.8047 307.395 30.8047C308.414 30.8047 309.328 30.9746 310.137 31.3145C310.945 31.6426 311.625 32.0996 312.176 32.6855C312.738 33.2715 313.166 33.957 313.459 34.7422C313.752 35.5273 313.898 36.377 313.898 37.291V50H309.047V39.0488C309.047 38.3809 308.971 37.8184 308.818 37.3613C308.666 36.8926 308.455 36.5176 308.186 36.2363C307.928 35.9434 307.617 35.7324 307.254 35.6035C306.902 35.4629 306.516 35.3926 306.094 35.3926C305.602 35.3926 305.139 35.4805 304.705 35.6562C304.283 35.832 303.914 36.1016 303.598 36.4648C303.281 36.8164 303.035 37.2617 302.859 37.8008C302.684 38.3398 302.596 38.9727 302.596 39.6992V50H297.744V31.1738ZM324.463 24.793H329.314V32.791C329.572 32.5332 329.859 32.2871 330.176 32.0527C330.504 31.8066 330.861 31.5957 331.248 31.4199C331.635 31.2324 332.062 31.0859 332.531 30.9805C333.012 30.8633 333.539 30.8047 334.113 30.8047C335.133 30.8047 336.047 30.9746 336.855 31.3145C337.664 31.6426 338.344 32.0996 338.895 32.6855C339.457 33.2715 339.885 33.957 340.178 34.7422C340.471 35.5273 340.617 36.377 340.617 37.291V50H335.766V39.0488C335.766 38.3809 335.689 37.8184 335.537 37.3613C335.385 36.8926 335.174 36.5176 334.904 36.2363C334.646 35.9434 334.336 35.7324 333.973 35.6035C333.621 35.4629 333.234 35.3926 332.812 35.3926C332.32 35.3926 331.857 35.4805 331.424 35.6562C331.002 35.832 330.633 36.1016 330.316 36.4648C330 36.8164 329.754 37.2617 329.578 37.8008C329.402 38.3398 329.314 38.9727 329.314 39.6992V50H324.463V24.793ZM350.76 42.3535C350.162 42.4473 349.682 42.6582 349.318 42.9863C348.955 43.3027 348.773 43.7363 348.773 44.2871C348.773 44.8965 348.996 45.4238 349.441 45.8691C349.887 46.3027 350.543 46.5195 351.41 46.5195C352.324 46.5195 353.045 46.2559 353.572 45.7285C354.1 45.2012 354.363 44.5039 354.363 43.6367V41.7383L350.76 42.3535ZM355.154 48.2246C354.955 48.4473 354.709 48.6875 354.416 48.9453C354.135 49.1914 353.795 49.4199 353.396 49.6309C353.01 49.8301 352.553 50 352.025 50.1406C351.498 50.2812 350.906 50.3516 350.25 50.3516C349.312 50.3516 348.445 50.2051 347.648 49.9121C346.863 49.6074 346.172 49.1855 345.574 48.6465C344.977 48.1074 344.508 47.4863 344.168 46.7832C343.828 46.0684 343.658 45.2949 343.658 44.4629C343.658 42.9512 344.127 41.7148 345.064 40.7539C346.002 39.793 347.297 39.1895 348.949 38.9434L354.363 38.1523V37.8008C354.363 36.957 354.105 36.2891 353.59 35.7969C353.074 35.3047 352.236 35.0586 351.076 35.0586C350.596 35.0586 350.109 35.1172 349.617 35.2344C349.125 35.3398 348.65 35.4629 348.193 35.6035C347.748 35.7441 347.332 35.9082 346.945 36.0957C346.559 36.2715 346.219 36.4297 345.926 36.5703L344.027 32.8613C345.105 32.2637 346.301 31.7715 347.613 31.3848C348.938 30.998 350.309 30.8047 351.727 30.8047C352.594 30.8047 353.467 30.8984 354.346 31.0859C355.236 31.2617 356.039 31.5898 356.754 32.0703C357.48 32.5508 358.072 33.207 358.529 34.0391C358.986 34.8594 359.215 35.9082 359.215 37.1855V44.9199C359.215 45.4707 359.355 45.8809 359.637 46.1504C359.93 46.4082 360.328 46.6484 360.832 46.8711L358.635 50.3516C357.744 50.2578 357.029 50.0293 356.49 49.666C355.951 49.291 355.506 48.8105 355.154 48.2246ZM364.611 43.9883C365.303 44.6094 366.129 45.1426 367.09 45.5879C368.051 46.0332 369.023 46.2559 370.008 46.2559C370.723 46.2559 371.285 46.1211 371.695 45.8516C372.105 45.5703 372.311 45.2129 372.311 44.7793C372.311 44.041 371.52 43.4668 369.938 43.0566L368.566 42.6875C367.887 42.5234 367.201 42.3008 366.51 42.0195C365.818 41.7266 365.18 41.3457 364.594 40.877C364.02 40.4082 363.551 39.8398 363.188 39.1719C362.836 38.4922 362.66 37.6602 362.66 36.6758C362.66 35.8906 362.83 35.1465 363.17 34.4434C363.521 33.7285 364.014 33.1016 364.646 32.5625C365.291 32.0234 366.07 31.5957 366.984 31.2793C367.898 30.9629 368.918 30.8047 370.043 30.8047C371.648 30.8047 373.078 31.0566 374.332 31.5605C375.598 32.0645 376.594 32.6328 377.32 33.2656L374.789 36.5C374.191 36.0664 373.482 35.6973 372.662 35.3926C371.854 35.0762 371.039 34.918 370.219 34.918C369.457 34.918 368.865 35.0586 368.443 35.3398C368.021 35.6094 367.811 35.9375 367.811 36.3242C367.811 36.7344 367.992 37.0684 368.355 37.3262C368.73 37.5723 369.27 37.7891 369.973 37.9766L372.012 38.5566C373.957 39.1074 375.352 39.8516 376.195 40.7891C377.039 41.7266 377.461 42.9102 377.461 44.3398C377.461 45.1367 377.297 45.8984 376.969 46.625C376.641 47.3398 376.16 47.9785 375.527 48.541C374.895 49.1035 374.109 49.5488 373.172 49.877C372.234 50.1934 371.168 50.3516 369.973 50.3516C369.059 50.3516 368.197 50.2695 367.389 50.1055C366.592 49.9414 365.848 49.7188 365.156 49.4375C364.477 49.1445 363.861 48.8164 363.311 48.4531C362.76 48.0898 362.291 47.7266 361.904 47.3633L364.611 43.9883ZM405.006 40.5957C405.006 41.9902 404.801 43.2852 404.391 44.4805C403.98 45.6758 403.406 46.707 402.668 47.5742C401.93 48.4414 401.045 49.1211 400.014 49.6133C398.982 50.1055 397.846 50.3516 396.604 50.3516C396.053 50.3516 395.549 50.2988 395.092 50.1934C394.646 50.0996 394.236 49.9648 393.861 49.7891C393.486 49.6133 393.141 49.4082 392.824 49.1738C392.508 48.9277 392.221 48.6641 391.963 48.3828V50H387.111V24.793H391.963V32.791C392.49 32.2402 393.141 31.7715 393.914 31.3848C394.688 30.998 395.625 30.8047 396.727 30.8047C397.969 30.8047 399.094 31.0566 400.102 31.5605C401.121 32.0527 401.994 32.7383 402.721 33.6172C403.447 34.4844 404.01 35.5156 404.408 36.7109C404.807 37.9062 405.006 39.2012 405.006 40.5957ZM391.822 42.3359C391.822 42.8398 391.91 43.3086 392.086 43.7422C392.273 44.1641 392.537 44.5332 392.877 44.8496C393.217 45.166 393.621 45.4121 394.09 45.5879C394.57 45.7637 395.109 45.8516 395.707 45.8516C396.398 45.8516 397.008 45.7285 397.535 45.4824C398.074 45.2246 398.525 44.8672 398.889 44.4102C399.252 43.9531 399.527 43.4141 399.715 42.793C399.902 42.1602 399.996 41.4688 399.996 40.7188V40.4902C399.996 39.7402 399.902 39.0488 399.715 38.416C399.527 37.7832 399.252 37.2383 398.889 36.7812C398.525 36.3125 398.074 35.9492 397.535 35.6914C397.008 35.4336 396.398 35.3047 395.707 35.3047C395.109 35.3047 394.57 35.3926 394.09 35.5684C393.621 35.7441 393.217 35.9902 392.877 36.3066C392.537 36.623 392.273 36.998 392.086 37.4316C391.91 37.8652 391.822 38.334 391.822 38.8379V42.3359ZM412.301 42.2656C412.383 42.8281 412.559 43.3438 412.828 43.8125C413.109 44.2812 413.461 44.6855 413.883 45.0254C414.305 45.3535 414.791 45.6113 415.342 45.7988C415.893 45.9863 416.479 46.0801 417.1 46.0801C417.814 46.0801 418.588 45.9453 419.42 45.6758C420.252 45.3945 421.014 44.9902 421.705 44.4629L424.043 47.873C423.164 48.6113 422.086 49.209 420.809 49.666C419.531 50.123 418.172 50.3516 416.73 50.3516C415.43 50.3516 414.205 50.1289 413.057 49.6836C411.908 49.2383 410.9 48.5938 410.033 47.75C409.178 46.9062 408.498 45.8809 407.994 44.6738C407.502 43.4668 407.256 42.1074 407.256 40.5957C407.256 39.2129 407.473 37.9238 407.906 36.7285C408.352 35.5332 408.967 34.4961 409.752 33.6172C410.549 32.7383 411.498 32.0527 412.6 31.5605C413.701 31.0566 414.92 30.8047 416.256 30.8047C417.498 30.8047 418.652 31.0332 419.719 31.4902C420.785 31.9355 421.711 32.5684 422.496 33.3887C423.281 34.1973 423.896 35.1699 424.342 36.3066C424.787 37.4434 425.01 38.6973 425.01 40.0684V42.2656H412.301ZM416.238 35.0234C415.195 35.0234 414.311 35.375 413.584 36.0781C412.869 36.7695 412.453 37.6074 412.336 38.5918H419.93C419.906 37.5957 419.543 36.752 418.84 36.0605C418.137 35.3691 417.27 35.0234 416.238 35.0234ZM432.164 42.2656C432.246 42.8281 432.422 43.3438 432.691 43.8125C432.973 44.2812 433.324 44.6855 433.746 45.0254C434.168 45.3535 434.654 45.6113 435.205 45.7988C435.756 45.9863 436.342 46.0801 436.963 46.0801C437.678 46.0801 438.451 45.9453 439.283 45.6758C440.115 45.3945 440.877 44.9902 441.568 44.4629L443.906 47.873C443.027 48.6113 441.949 49.209 440.672 49.666C439.395 50.123 438.035 50.3516 436.594 50.3516C435.293 50.3516 434.068 50.1289 432.92 49.6836C431.771 49.2383 430.764 48.5938 429.896 47.75C429.041 46.9062 428.361 45.8809 427.857 44.6738C427.365 43.4668 427.119 42.1074 427.119 40.5957C427.119 39.2129 427.336 37.9238 427.77 36.7285C428.215 35.5332 428.83 34.4961 429.615 33.6172C430.412 32.7383 431.361 32.0527 432.463 31.5605C433.564 31.0566 434.783 30.8047 436.119 30.8047C437.361 30.8047 438.516 31.0332 439.582 31.4902C440.648 31.9355 441.574 32.5684 442.359 33.3887C443.145 34.1973 443.76 35.1699 444.205 36.3066C444.65 37.4434 444.873 38.6973 444.873 40.0684V42.2656H432.164ZM436.102 35.0234C435.059 35.0234 434.174 35.375 433.447 36.0781C432.732 36.7695 432.316 37.6074 432.199 38.5918H439.793C439.77 37.5957 439.406 36.752 438.703 36.0605C438 35.3691 437.133 35.0234 436.102 35.0234ZM447.967 31.1738H452.818V32.791C453.076 32.5332 453.363 32.2871 453.68 32.0527C454.008 31.8066 454.365 31.5957 454.752 31.4199C455.139 31.2324 455.566 31.0859 456.035 30.9805C456.516 30.8633 457.043 30.8047 457.617 30.8047C458.637 30.8047 459.551 30.9746 460.359 31.3145C461.168 31.6426 461.848 32.0996 462.398 32.6855C462.961 33.2715 463.389 33.957 463.682 34.7422C463.975 35.5273 464.121 36.377 464.121 37.291V50H459.27V39.0488C459.27 38.3809 459.193 37.8184 459.041 37.3613C458.889 36.8926 458.678 36.5176 458.408 36.2363C458.15 35.9434 457.84 35.7324 457.477 35.6035C457.125 35.4629 456.738 35.3926 456.316 35.3926C455.824 35.3926 455.361 35.4805 454.928 35.6562C454.506 35.832 454.137 36.1016 453.82 36.4648C453.504 36.8164 453.258 37.2617 453.082 37.8008C452.906 38.3398 452.818 38.9727 452.818 39.6992V50H447.967V31.1738ZM476.021 43.9883C476.713 44.6094 477.539 45.1426 478.5 45.5879C479.461 46.0332 480.434 46.2559 481.418 46.2559C482.133 46.2559 482.695 46.1211 483.105 45.8516C483.516 45.5703 483.721 45.2129 483.721 44.7793C483.721 44.041 482.93 43.4668 481.348 43.0566L479.977 42.6875C479.297 42.5234 478.611 42.3008 477.92 42.0195C477.229 41.7266 476.59 41.3457 476.004 40.877C475.43 40.4082 474.961 39.8398 474.598 39.1719C474.246 38.4922 474.07 37.6602 474.07 36.6758C474.07 35.8906 474.24 35.1465 474.58 34.4434C474.932 33.7285 475.424 33.1016 476.057 32.5625C476.701 32.0234 477.48 31.5957 478.395 31.2793C479.309 30.9629 480.328 30.8047 481.453 30.8047C483.059 30.8047 484.488 31.0566 485.742 31.5605C487.008 32.0645 488.004 32.6328 488.73 33.2656L486.199 36.5C485.602 36.0664 484.893 35.6973 484.072 35.3926C483.264 35.0762 482.449 34.918 481.629 34.918C480.867 34.918 480.275 35.0586 479.854 35.3398C479.432 35.6094 479.221 35.9375 479.221 36.3242C479.221 36.7344 479.402 37.0684 479.766 37.3262C480.141 37.5723 480.68 37.7891 481.383 37.9766L483.422 38.5566C485.367 39.1074 486.762 39.8516 487.605 40.7891C488.449 41.7266 488.871 42.9102 488.871 44.3398C488.871 45.1367 488.707 45.8984 488.379 46.625C488.051 47.3398 487.57 47.9785 486.938 48.541C486.305 49.1035 485.52 49.5488 484.582 49.877C483.645 50.1934 482.578 50.3516 481.383 50.3516C480.469 50.3516 479.607 50.2695 478.799 50.1055C478.002 49.9414 477.258 49.7188 476.566 49.4375C475.887 49.1445 475.271 48.8164 474.721 48.4531C474.17 48.0898 473.701 47.7266 473.314 47.3633L476.021 43.9883ZM508.031 50H503.18V48.3828C502.91 48.6406 502.617 48.8926 502.301 49.1387C501.984 49.373 501.633 49.584 501.246 49.7715C500.859 49.9473 500.426 50.0879 499.945 50.1934C499.477 50.2988 498.955 50.3516 498.381 50.3516C497.361 50.3516 496.447 50.1875 495.639 49.8594C494.83 49.5195 494.145 49.0625 493.582 48.4883C493.031 47.9023 492.609 47.2168 492.316 46.4316C492.023 45.6465 491.877 44.7969 491.877 43.8828V31.1738H496.729V42.1074C496.729 42.7754 496.799 43.3438 496.939 43.8125C497.092 44.2812 497.297 44.6621 497.555 44.9551C497.824 45.2363 498.141 45.4473 498.504 45.5879C498.867 45.7168 499.26 45.7812 499.682 45.7812C500.174 45.7812 500.631 45.6934 501.053 45.5176C501.486 45.3418 501.861 45.0781 502.178 44.7266C502.494 44.3633 502.74 43.9121 502.916 43.373C503.092 42.834 503.18 42.2012 503.18 41.4746V31.1738H508.031V50ZM530.127 40.5957C530.127 41.9902 529.922 43.2852 529.512 44.4805C529.102 45.6758 528.527 46.707 527.789 47.5742C527.051 48.4414 526.166 49.1211 525.135 49.6133C524.104 50.1055 522.967 50.3516 521.725 50.3516C521.174 50.3516 520.67 50.2988 520.213 50.1934C519.768 50.0996 519.357 49.9648 518.982 49.7891C518.607 49.6133 518.262 49.4082 517.945 49.1738C517.629 48.9277 517.342 48.6641 517.084 48.3828V50H512.232V24.793H517.084V32.791C517.611 32.2402 518.262 31.7715 519.035 31.3848C519.809 30.998 520.746 30.8047 521.848 30.8047C523.09 30.8047 524.215 31.0566 525.223 31.5605C526.242 32.0527 527.115 32.7383 527.842 33.6172C528.568 34.4844 529.131 35.5156 529.529 36.7109C529.928 37.9062 530.127 39.2012 530.127 40.5957ZM516.943 42.3359C516.943 42.8398 517.031 43.3086 517.207 43.7422C517.395 44.1641 517.658 44.5332 517.998 44.8496C518.338 45.166 518.742 45.4121 519.211 45.5879C519.691 45.7637 520.23 45.8516 520.828 45.8516C521.52 45.8516 522.129 45.7285 522.656 45.4824C523.195 45.2246 523.646 44.8672 524.01 44.4102C524.373 43.9531 524.648 43.4141 524.836 42.793C525.023 42.1602 525.117 41.4688 525.117 40.7188V40.4902C525.117 39.7402 525.023 39.0488 524.836 38.416C524.648 37.7832 524.373 37.2383 524.01 36.7812C523.646 36.3125 523.195 35.9492 522.656 35.6914C522.129 35.4336 521.52 35.3047 520.828 35.3047C520.23 35.3047 519.691 35.3926 519.211 35.5684C518.742 35.7441 518.338 35.9902 517.998 36.3066C517.658 36.623 517.395 36.998 517.207 37.4316C517.031 37.8652 516.943 38.334 516.943 38.8379V42.3359ZM549.234 50H544.365V39.0488C544.365 38.3809 544.289 37.8184 544.137 37.3613C543.996 36.8926 543.797 36.5176 543.539 36.2363C543.281 35.9434 542.982 35.7383 542.643 35.6211C542.303 35.4922 541.934 35.4277 541.535 35.4277C541.066 35.4277 540.627 35.5098 540.217 35.6738C539.818 35.8379 539.467 36.0957 539.162 36.4473C538.869 36.7988 538.635 37.25 538.459 37.8008C538.295 38.3398 538.213 38.9844 538.213 39.7344V50H533.361V31.1738H538.213V32.8262C538.834 32.1348 539.555 31.625 540.375 31.2969C541.207 30.9688 542.098 30.8047 543.047 30.8047C544.02 30.8047 544.928 31.0039 545.771 31.4023C546.627 31.8008 547.336 32.457 547.898 33.3711C548.227 32.9023 548.602 32.5039 549.023 32.1758C549.457 31.8477 549.92 31.584 550.412 31.3848C550.904 31.1855 551.414 31.0391 551.941 30.9453C552.48 30.8516 553.031 30.8047 553.594 30.8047C554.648 30.8047 555.586 30.9805 556.406 31.332C557.238 31.6719 557.941 32.1348 558.516 32.7207C559.09 33.3066 559.529 33.9805 559.834 34.7422C560.139 35.5039 560.291 36.3066 560.291 37.1504V50H555.387V39.0488C555.387 38.3809 555.311 37.8184 555.158 37.3613C555.018 36.8926 554.818 36.5176 554.561 36.2363C554.303 35.9434 553.998 35.7383 553.646 35.6211C553.307 35.4922 552.938 35.4277 552.539 35.4277C552.07 35.4277 551.637 35.5098 551.238 35.6738C550.84 35.8379 550.488 36.0957 550.184 36.4473C549.891 36.7988 549.656 37.25 549.48 37.8008C549.316 38.3398 549.234 38.9844 549.234 39.7344V50ZM569.186 50H564.334V31.1738H569.186V50ZM563.824 26.2344C563.824 25.8359 563.9 25.4609 564.053 25.1094C564.205 24.7461 564.41 24.4355 564.668 24.1777C564.938 23.9082 565.248 23.6973 565.6 23.5449C565.951 23.3926 566.332 23.3164 566.742 23.3164C567.141 23.3164 567.516 23.3926 567.867 23.5449C568.23 23.6973 568.541 23.9082 568.799 24.1777C569.068 24.4355 569.279 24.7461 569.432 25.1094C569.584 25.4609 569.66 25.8359 569.66 26.2344C569.66 26.6445 569.584 27.0254 569.432 27.377C569.279 27.7285 569.068 28.0391 568.799 28.3086C568.541 28.5664 568.23 28.7715 567.867 28.9238C567.516 29.0762 567.141 29.1523 566.742 29.1523C566.332 29.1523 565.951 29.0762 565.6 28.9238C565.248 28.7715 564.938 28.5664 564.668 28.3086C564.41 28.0391 564.205 27.7285 564.053 27.377C563.9 27.0254 563.824 26.6445 563.824 26.2344ZM580.312 44.3926C580.312 44.6152 580.342 44.8262 580.4 45.0254C580.459 45.2246 580.559 45.4004 580.699 45.5527C580.852 45.6934 581.062 45.8047 581.332 45.8867C581.602 45.9688 581.947 46.0098 582.369 46.0098C582.545 46.0098 582.744 46.0039 582.967 45.9922C583.189 45.9688 583.412 45.9453 583.635 45.9219C583.857 45.8984 584.062 45.8691 584.25 45.834C584.449 45.7988 584.613 45.7695 584.742 45.7461L585.182 50.0352C584.725 50.0938 584.25 50.1465 583.758 50.1934C583.336 50.2402 582.867 50.2754 582.352 50.2988C581.836 50.334 581.314 50.3516 580.787 50.3516C579.111 50.3516 577.805 49.9707 576.867 49.209C575.93 48.4473 575.461 47.2344 575.461 45.5703V35.3926H572.068V31.1738H575.461V25.8477L580.312 24.5469V31.1738H585.252V35.3926H580.312V44.3926ZM595.254 44.3926C595.254 44.6152 595.283 44.8262 595.342 45.0254C595.4 45.2246 595.5 45.4004 595.641 45.5527C595.793 45.6934 596.004 45.8047 596.273 45.8867C596.543 45.9688 596.889 46.0098 597.311 46.0098C597.486 46.0098 597.686 46.0039 597.908 45.9922C598.131 45.9688 598.354 45.9453 598.576 45.9219C598.799 45.8984 599.004 45.8691 599.191 45.834C599.391 45.7988 599.555 45.7695 599.684 45.7461L600.123 50.0352C599.666 50.0938 599.191 50.1465 598.699 50.1934C598.277 50.2402 597.809 50.2754 597.293 50.2988C596.777 50.334 596.256 50.3516 595.729 50.3516C594.053 50.3516 592.746 49.9707 591.809 49.209C590.871 48.4473 590.402 47.2344 590.402 45.5703V35.3926H587.01V31.1738H590.402V25.8477L595.254 24.5469V31.1738H600.193V35.3926H595.254V44.3926ZM607.312 42.2656C607.395 42.8281 607.57 43.3438 607.84 43.8125C608.121 44.2812 608.473 44.6855 608.895 45.0254C609.316 45.3535 609.803 45.6113 610.354 45.7988C610.904 45.9863 611.49 46.0801 612.111 46.0801C612.826 46.0801 613.6 45.9453 614.432 45.6758C615.264 45.3945 616.025 44.9902 616.717 44.4629L619.055 47.873C618.176 48.6113 617.098 49.209 615.82 49.666C614.543 50.123 613.184 50.3516 611.742 50.3516C610.441 50.3516 609.217 50.1289 608.068 49.6836C606.92 49.2383 605.912 48.5938 605.045 47.75C604.189 46.9062 603.51 45.8809 603.006 44.6738C602.514 43.4668 602.268 42.1074 602.268 40.5957C602.268 39.2129 602.484 37.9238 602.918 36.7285C603.363 35.5332 603.979 34.4961 604.764 33.6172C605.561 32.7383 606.51 32.0527 607.611 31.5605C608.713 31.0566 609.932 30.8047 611.268 30.8047C612.51 30.8047 613.664 31.0332 614.73 31.4902C615.797 31.9355 616.723 32.5684 617.508 33.3887C618.293 34.1973 618.908 35.1699 619.354 36.3066C619.799 37.4434 620.021 38.6973 620.021 40.0684V42.2656H607.312ZM611.25 35.0234C610.207 35.0234 609.322 35.375 608.596 36.0781C607.881 36.7695 607.465 37.6074 607.348 38.5918H614.941C614.918 37.5957 614.555 36.752 613.852 36.0605C613.148 35.3691 612.281 35.0234 611.25 35.0234ZM635.209 50V48.3828C634.951 48.6641 634.664 48.9277 634.348 49.1738C634.043 49.4082 633.697 49.6133 633.311 49.7891C632.936 49.9648 632.52 50.0996 632.062 50.1934C631.617 50.2988 631.119 50.3516 630.568 50.3516C629.326 50.3516 628.189 50.1055 627.158 49.6133C626.127 49.1211 625.242 48.4414 624.504 47.5742C623.766 46.707 623.191 45.6758 622.781 44.4805C622.383 43.2852 622.184 41.9902 622.184 40.5957C622.184 39.2012 622.383 37.9062 622.781 36.7109C623.18 35.5156 623.736 34.4844 624.451 33.6172C625.178 32.7383 626.051 32.0527 627.07 31.5605C628.09 31.0566 629.221 30.8047 630.463 30.8047C631.564 30.8047 632.496 30.998 633.258 31.3848C634.031 31.7598 634.682 32.2285 635.209 32.791V24.793H640.061V50H635.209ZM635.35 38.8379C635.35 38.334 635.256 37.8652 635.068 37.4316C634.893 36.998 634.635 36.623 634.295 36.3066C633.955 35.9902 633.545 35.7441 633.064 35.5684C632.596 35.3926 632.062 35.3047 631.465 35.3047C630.773 35.3047 630.158 35.4336 629.619 35.6914C629.092 35.9492 628.646 36.3125 628.283 36.7812C627.92 37.2383 627.645 37.7832 627.457 38.416C627.27 39.0488 627.176 39.7402 627.176 40.4902V40.7188C627.176 41.4688 627.27 42.1602 627.457 42.793C627.645 43.4141 627.92 43.9531 628.283 44.4102C628.646 44.8672 629.092 45.2246 629.619 45.4824C630.158 45.7285 630.773 45.8516 631.465 45.8516C632.062 45.8516 632.596 45.7637 633.064 45.5879C633.545 45.4121 633.955 45.166 634.295 44.8496C634.635 44.5332 634.893 44.1641 635.068 43.7422C635.256 43.3086 635.35 42.8398 635.35 42.3359V38.8379ZM270.059 70.8047C271.453 70.8047 272.719 71.0566 273.855 71.5605C274.992 72.0527 275.965 72.7383 276.773 73.6172C277.582 74.4961 278.203 75.5332 278.637 76.7285C279.082 77.9238 279.305 79.2129 279.305 80.5957C279.305 81.9902 279.082 83.2852 278.637 84.4805C278.191 85.6641 277.564 86.6895 276.756 87.5566C275.947 88.4238 274.975 89.1094 273.838 89.6133C272.701 90.1055 271.441 90.3516 270.059 90.3516C268.664 90.3516 267.398 90.1055 266.262 89.6133C265.125 89.1094 264.152 88.4238 263.344 87.5566C262.535 86.6895 261.908 85.6641 261.463 84.4805C261.018 83.2852 260.795 81.9902 260.795 80.5957C260.795 79.2129 261.012 77.9238 261.445 76.7285C261.891 75.5332 262.518 74.4961 263.326 73.6172C264.135 72.7383 265.107 72.0527 266.244 71.5605C267.393 71.0566 268.664 70.8047 270.059 70.8047ZM270.059 85.8516C270.75 85.8516 271.359 85.7227 271.887 85.4648C272.426 85.207 272.877 84.8496 273.24 84.3926C273.604 83.9355 273.879 83.3906 274.066 82.7578C274.254 82.1133 274.348 81.4102 274.348 80.6484V80.5254C274.348 79.7637 274.254 79.0664 274.066 78.4336C273.879 77.7891 273.604 77.2383 273.24 76.7812C272.877 76.3125 272.426 75.9492 271.887 75.6914C271.359 75.4336 270.75 75.3047 270.059 75.3047C269.367 75.3047 268.752 75.4336 268.213 75.6914C267.686 75.9492 267.24 76.3125 266.877 76.7812C266.514 77.2383 266.238 77.7891 266.051 78.4336C265.863 79.0664 265.77 79.7637 265.77 80.5254V80.6484C265.77 81.4102 265.863 82.1133 266.051 82.7578C266.238 83.3906 266.514 83.9355 266.877 84.3926C267.24 84.8496 267.686 85.207 268.213 85.4648C268.752 85.7227 269.367 85.8516 270.059 85.8516ZM298.535 90H293.684V88.3828C293.414 88.6406 293.121 88.8926 292.805 89.1387C292.488 89.373 292.137 89.584 291.75 89.7715C291.363 89.9473 290.93 90.0879 290.449 90.1934C289.98 90.2988 289.459 90.3516 288.885 90.3516C287.865 90.3516 286.951 90.1875 286.143 89.8594C285.334 89.5195 284.648 89.0625 284.086 88.4883C283.535 87.9023 283.113 87.2168 282.82 86.4316C282.527 85.6465 282.381 84.7969 282.381 83.8828V71.1738H287.232V82.1074C287.232 82.7754 287.303 83.3438 287.443 83.8125C287.596 84.2812 287.801 84.6621 288.059 84.9551C288.328 85.2363 288.645 85.4473 289.008 85.5879C289.371 85.7168 289.764 85.7812 290.186 85.7812C290.678 85.7812 291.135 85.6934 291.557 85.5176C291.99 85.3418 292.365 85.0781 292.682 84.7266C292.998 84.3633 293.244 83.9121 293.42 83.373C293.596 82.834 293.684 82.2012 293.684 81.4746V71.1738H298.535V90ZM309.68 84.3926C309.68 84.6152 309.709 84.8262 309.768 85.0254C309.826 85.2246 309.926 85.4004 310.066 85.5527C310.219 85.6934 310.43 85.8047 310.699 85.8867C310.969 85.9688 311.314 86.0098 311.736 86.0098C311.912 86.0098 312.111 86.0039 312.334 85.9922C312.557 85.9688 312.779 85.9453 313.002 85.9219C313.225 85.8984 313.43 85.8691 313.617 85.834C313.816 85.7988 313.98 85.7695 314.109 85.7461L314.549 90.0352C314.092 90.0938 313.617 90.1465 313.125 90.1934C312.703 90.2402 312.234 90.2754 311.719 90.2988C311.203 90.334 310.682 90.3516 310.154 90.3516C308.479 90.3516 307.172 89.9707 306.234 89.209C305.297 88.4473 304.828 87.2344 304.828 85.5703V75.3926H301.436V71.1738H304.828V65.8477L309.68 64.5469V71.1738H314.619V75.3926H309.68V84.3926ZM332.461 70.8047C333.855 70.8047 335.121 71.0566 336.258 71.5605C337.395 72.0527 338.367 72.7383 339.176 73.6172C339.984 74.4961 340.605 75.5332 341.039 76.7285C341.484 77.9238 341.707 79.2129 341.707 80.5957C341.707 81.9902 341.484 83.2852 341.039 84.4805C340.594 85.6641 339.967 86.6895 339.158 87.5566C338.35 88.4238 337.377 89.1094 336.24 89.6133C335.104 90.1055 333.844 90.3516 332.461 90.3516C331.066 90.3516 329.801 90.1055 328.664 89.6133C327.527 89.1094 326.555 88.4238 325.746 87.5566C324.938 86.6895 324.311 85.6641 323.865 84.4805C323.42 83.2852 323.197 81.9902 323.197 80.5957C323.197 79.2129 323.414 77.9238 323.848 76.7285C324.293 75.5332 324.92 74.4961 325.729 73.6172C326.537 72.7383 327.51 72.0527 328.646 71.5605C329.795 71.0566 331.066 70.8047 332.461 70.8047ZM332.461 85.8516C333.152 85.8516 333.762 85.7227 334.289 85.4648C334.828 85.207 335.279 84.8496 335.643 84.3926C336.006 83.9355 336.281 83.3906 336.469 82.7578C336.656 82.1133 336.75 81.4102 336.75 80.6484V80.5254C336.75 79.7637 336.656 79.0664 336.469 78.4336C336.281 77.7891 336.006 77.2383 335.643 76.7812C335.279 76.3125 334.828 75.9492 334.289 75.6914C333.762 75.4336 333.152 75.3047 332.461 75.3047C331.77 75.3047 331.154 75.4336 330.615 75.6914C330.088 75.9492 329.643 76.3125 329.279 76.7812C328.916 77.2383 328.641 77.7891 328.453 78.4336C328.266 79.0664 328.172 79.7637 328.172 80.5254V80.6484C328.172 81.4102 328.266 82.1133 328.453 82.7578C328.641 83.3906 328.916 83.9355 329.279 84.3926C329.643 84.8496 330.088 85.207 330.615 85.4648C331.154 85.7227 331.77 85.8516 332.461 85.8516ZM351.428 71.1738H355.031V75.3926H351.428V90H346.576V75.3926H343.588V71.1738H346.576V68.8711C346.576 68.0508 346.717 67.3418 346.998 66.7441C347.279 66.1348 347.666 65.6367 348.158 65.25C348.662 64.8516 349.26 64.5586 349.951 64.3711C350.654 64.1719 351.428 64.0723 352.271 64.0723C352.693 64.0723 353.104 64.084 353.502 64.1074C353.9 64.1309 354.27 64.1543 354.609 64.1777C354.949 64.2012 355.248 64.2305 355.506 64.2656C355.775 64.3008 355.98 64.3242 356.121 64.3359L355.717 68.4668C355.576 68.4434 355.4 68.4199 355.189 68.3965C354.99 68.373 354.779 68.3555 354.557 68.3438C354.334 68.3203 354.117 68.3086 353.906 68.3086C353.695 68.2969 353.508 68.291 353.344 68.291C352.652 68.291 352.16 68.4258 351.867 68.6953C351.574 68.9531 351.428 69.2871 351.428 69.6973V71.1738ZM370.535 84.3926C370.535 84.6152 370.564 84.8262 370.623 85.0254C370.682 85.2246 370.781 85.4004 370.922 85.5527C371.074 85.6934 371.285 85.8047 371.555 85.8867C371.824 85.9688 372.17 86.0098 372.592 86.0098C372.768 86.0098 372.967 86.0039 373.189 85.9922C373.412 85.9688 373.635 85.9453 373.857 85.9219C374.08 85.8984 374.285 85.8691 374.473 85.834C374.672 85.7988 374.836 85.7695 374.965 85.7461L375.404 90.0352C374.947 90.0938 374.473 90.1465 373.98 90.1934C373.559 90.2402 373.09 90.2754 372.574 90.2988C372.059 90.334 371.537 90.3516 371.01 90.3516C369.334 90.3516 368.027 89.9707 367.09 89.209C366.152 88.4473 365.684 87.2344 365.684 85.5703V75.3926H362.291V71.1738H365.684V65.8477L370.535 64.5469V71.1738H375.475V75.3926H370.535V84.3926ZM383.385 90H378.533V71.1738H383.385V90ZM378.023 66.2344C378.023 65.8359 378.1 65.4609 378.252 65.1094C378.404 64.7461 378.609 64.4355 378.867 64.1777C379.137 63.9082 379.447 63.6973 379.799 63.5449C380.15 63.3926 380.531 63.3164 380.941 63.3164C381.34 63.3164 381.715 63.3926 382.066 63.5449C382.43 63.6973 382.74 63.9082 382.998 64.1777C383.268 64.4355 383.479 64.7461 383.631 65.1094C383.783 65.4609 383.859 65.8359 383.859 66.2344C383.859 66.6445 383.783 67.0254 383.631 67.377C383.479 67.7285 383.268 68.0391 382.998 68.3086C382.74 68.5664 382.43 68.7715 382.066 68.9238C381.715 69.0762 381.34 69.1523 380.941 69.1523C380.531 69.1523 380.15 69.0762 379.799 68.9238C379.447 68.7715 379.137 68.5664 378.867 68.3086C378.609 68.0391 378.404 67.7285 378.252 67.377C378.1 67.0254 378.023 66.6445 378.023 66.2344ZM403.441 90H398.572V79.0488C398.572 78.3809 398.496 77.8184 398.344 77.3613C398.203 76.8926 398.004 76.5176 397.746 76.2363C397.488 75.9434 397.189 75.7383 396.85 75.6211C396.51 75.4922 396.141 75.4277 395.742 75.4277C395.273 75.4277 394.834 75.5098 394.424 75.6738C394.025 75.8379 393.674 76.0957 393.369 76.4473C393.076 76.7988 392.842 77.25 392.666 77.8008C392.502 78.3398 392.42 78.9844 392.42 79.7344V90H387.568V71.1738H392.42V72.8262C393.041 72.1348 393.762 71.625 394.582 71.2969C395.414 70.9688 396.305 70.8047 397.254 70.8047C398.227 70.8047 399.135 71.0039 399.979 71.4023C400.834 71.8008 401.543 72.457 402.105 73.3711C402.434 72.9023 402.809 72.5039 403.23 72.1758C403.664 71.8477 404.127 71.584 404.619 71.3848C405.111 71.1855 405.621 71.0391 406.148 70.9453C406.688 70.8516 407.238 70.8047 407.801 70.8047C408.855 70.8047 409.793 70.9805 410.613 71.332C411.445 71.6719 412.148 72.1348 412.723 72.7207C413.297 73.3066 413.736 73.9805 414.041 74.7422C414.346 75.5039 414.498 76.3066 414.498 77.1504V90H409.594V79.0488C409.594 78.3809 409.518 77.8184 409.365 77.3613C409.225 76.8926 409.025 76.5176 408.768 76.2363C408.51 75.9434 408.205 75.7383 407.854 75.6211C407.514 75.4922 407.145 75.4277 406.746 75.4277C406.277 75.4277 405.844 75.5098 405.445 75.6738C405.047 75.8379 404.695 76.0957 404.391 76.4473C404.098 76.7988 403.863 77.25 403.688 77.8008C403.523 78.3398 403.441 78.9844 403.441 79.7344V90ZM422.602 82.2656C422.684 82.8281 422.859 83.3438 423.129 83.8125C423.41 84.2812 423.762 84.6855 424.184 85.0254C424.605 85.3535 425.092 85.6113 425.643 85.7988C426.193 85.9863 426.779 86.0801 427.4 86.0801C428.115 86.0801 428.889 85.9453 429.721 85.6758C430.553 85.3945 431.314 84.9902 432.006 84.4629L434.344 87.873C433.465 88.6113 432.387 89.209 431.109 89.666C429.832 90.123 428.473 90.3516 427.031 90.3516C425.73 90.3516 424.506 90.1289 423.357 89.6836C422.209 89.2383 421.201 88.5938 420.334 87.75C419.479 86.9062 418.799 85.8809 418.295 84.6738C417.803 83.4668 417.557 82.1074 417.557 80.5957C417.557 79.2129 417.773 77.9238 418.207 76.7285C418.652 75.5332 419.268 74.4961 420.053 73.6172C420.85 72.7383 421.799 72.0527 422.9 71.5605C424.002 71.0566 425.221 70.8047 426.557 70.8047C427.799 70.8047 428.953 71.0332 430.02 71.4902C431.086 71.9355 432.012 72.5684 432.797 73.3887C433.582 74.1973 434.197 75.1699 434.643 76.3066C435.088 77.4434 435.311 78.6973 435.311 80.0684V82.2656H422.602ZM426.539 75.0234C425.496 75.0234 424.611 75.375 423.885 76.0781C423.17 76.7695 422.754 77.6074 422.637 78.5918H430.23C430.207 77.5957 429.844 76.752 429.141 76.0605C428.438 75.3691 427.57 75.0234 426.539 75.0234Z" fill="white"/>
</svg>