<?xml version="1.0" encoding="utf-8"?>
<!-- Generator: Adobe Illustrator 23.1.0, SVG Export Plug-In . SVG Version: 6.00 Build 0)  -->
<svg version="1.1" id="Layer_1" xmlns="http://www.w3.org/2000/svg" xmlns:xlink="http://www.w3.org/1999/xlink" x="0px" y="0px"
	 width="990px" height="108px" viewBox="0 0 990 108" style="enable-background:new 0 0 990 108;" xml:space="preserve">
<style type="text/css">
	.st2{fill:none;stroke:#008242;stroke-width:4;stroke-miterlimit:10;}
	.st3{fill:#008242;stroke:#008242;stroke-width:1;stroke-miterlimit:10;}
	.st4{fill:#FFFFFF;}
	.st5{fill:none;stroke:#FFFFFF;stroke-width:4;stroke-miterlimit:10;}
	.st6{fill:none;}
	.st7{font-family:'ArialMT';}
	.st8{font-size:14px;}
	.st9{font-family:'Arial-BoldMT';}
</style>
<line class="st2" x1="17.5" y1="15" x2="926.3" y2="15"/>
<circle class="st3" cx="15" cy="15" r="15"/>
<g>
	<circle class="st4" cx="107" cy="15" r="13.8"/>
	<path class="st3" d="M107,2.5c6.9,0,12.5,5.6,12.5,12.5s-5.6,12.5-12.5,12.5s-12.5-5.6-12.5-12.5S100.1,2.5,107,2.5 M107,0
		c-8.3,0-15,6.7-15,15c0,8.3,6.7,15,15,15c8.3,0,15-6.7,15-15C122,6.7,115.3,0,117.2,0L117.2,0z"/>
</g>
<g>
	<circle class="st4" cx="199" cy="15" r="13.8"/>
	<path class="st3" d="M199,2.5c6.9,0,12.5,5.6,12.5,12.5s-5.6,12.5-12.5,12.5s-12.5-5.6-12.5-12.5S192.1,2.5,199,2.5 M199,0
		c-8.3,0-15,6.7-15,15c0,8.3,6.7,15,15,15c8.3,0,15-6.7,15-15C214,6.7,207.3,0,209.2,0L209.2,0z"/>
</g>
<g>
	<circle class="st4" cx="291" cy="15" r="13.8"/>
	<path class="st3" d="M291,2.5c6.9,0,12.5,5.6,12.5,12.5s-5.6,12.5-12.5,12.5s-12.5-5.6-12.5-12.5S284.1,2.5,291,2.5 M291,0
		c-8.3,0-15,6.7-15,15c0,8.3,6.7,15,15,15c8.3,0,15-6.7,15-15C306,6.7,299.3,0,301.2,0L301.2,0z"/>
</g>
<g>
	<circle class="st4" cx="383" cy="15" r="13.8"/>
	<path class="st3" d="M383,2.5c6.9,0,12.5,5.6,12.5,12.5s-5.6,12.5-12.5,12.5s-12.5-5.6-12.5-12.5S376.1,2.5,383,2.5 M383,0
		c-8.3,0-15,6.7-15,15c0,8.3,6.7,15,15,15c8.3,0,15-6.7,15-15C398,6.7,391.3,0,393.2,0L393.2,0z"/>
</g>
<g>
	<circle class="st4" cx="475" cy="15" r="13.8"/>
	<path class="st3" d="M475,2.5c6.9,0,12.5,5.6,12.5,12.5s-5.6,12.5-12.5,12.5s-12.5-5.6-12.5-12.5S468.1,2.5,475,2.5 M475,0
		c-8.3,0-15,6.7-15,15c0,8.3,6.7,15,15,15c8.3,0,15-6.7,15-15C490,6.7,483.3,0,485.2,0L485.2,0z"/>
</g>
<g>
	<circle class="st4" cx="567" cy="15" r="13.8"/>
	<path class="st3" d="M567,2.5c6.9,0,12.5,5.6,12.5,12.5s-5.6,12.5-12.5,12.5s-12.5-5.6-12.5-12.5S560.1,2.5,567,2.5 M567,0
		c-8.3,0-15,6.7-15,15c0,8.3,6.7,15,15,15c8.3,0,15-6.7,15-15C582,6.7,575.3,0,577.2,0L577.2,0z"/>
</g>
<g>
	<circle class="st4" cx="659" cy="15" r="13.8"/>
	<path class="st3" d="M659,2.5c6.9,0,12.5,5.6,12.5,12.5s-5.6,12.5-12.5,12.5s-12.5-5.6-12.5-12.5S652.1,2.5,659,2.5 M659,0
		c-8.3,0-15,6.7-15,15c0,8.3,6.7,15,15,15c8.3,0,15-6.7,15-15C674,6.7,667.3,0,669.2,0L669.2,0z"/>
</g>
<g>
	<circle class="st4" cx="751" cy="15" r="13.8"/>
	<path class="st3" d="M751,2.5c6.9,0,12.5,5.6,12.5,12.5s-5.6,12.5-12.5,12.5s-12.5-5.6-12.5-12.5S744.1,2.5,751,2.5 M751,0
		c-8.3,0-15,6.7-15,15c0,8.3,6.7,15,15,15c8.3,0,15-6.7,15-15C766,6.7,759.3,0,761.2,0L761.2,0z"/>
</g>
<g>
	<circle class="st4" cx="843" cy="15" r="13.8"/>
	<path class="st3" d="M843,2.5c6.9,0,12.5,5.6,12.5,12.5s-5.6,12.5-12.5,12.5s-12.5-5.6-12.5-12.5S836.1,2.5,843,2.5 M843,0
		c-8.3,0-15,6.7-15,15c0,8.3,6.7,15,15,15c8.3,0,15-6.7,15-15C858,6.7,851.3,0,853.2,0L853.2,0z"/>
</g>
<g>
	<circle class="st4" cx="935" cy="15" r="13.8"/>
	<path class="st3" d="M935,2.5c6.9,0,12.5,5.6,12.5,12.5s-5.6,12.5-12.5,12.5s-12.5-5.6-12.5-12.5S928.1,2.5,935,2.5 M935,0
		c-8.3,0-15,6.7-15,15c0,8.3,6.7,15,15,15c8.3,0,15-6.7,15-15C950,6.7,943.3,0,945.2,0L945.2,0z"/>
</g>
<rect y="45.2" class="st6" width="69" height="51"/>
<text transform="matrix(1 0 0 1 0 55.1888)"><tspan x="0" y="0" class="st9 st8">Appeal</tspan><tspan x="0" y="16.8" class="st9 st8">submitted</tspan></text>
<rect x="92" y="45.2" class="st6" width="69" height="51"/>
<text transform="matrix(1 0 0 1 92 55.1888)" class="st7 st8">Listing</text>
<rect x="184" y="45.2" class="st6" width="78.4" height="51"/>
<text transform="matrix(1 0 0 1 184 55.1888)"><tspan x="0" y="0" class="st7 st8">Awaiting</tspan><tspan x="0" y="16.8" class="st7 st8">respondent</tspan><tspan x="0" y="33.6" class="st7 st8">evidence</tspan></text>
<rect x="276" y="45.2" class="st6" width="69" height="51"/>
<text transform="matrix(1 0 0 1 276 55.1888)"><tspan x="0" y="0" class="st7 st8">Case</tspan><tspan x="0" y="16.8" class="st7 st8">building</tspan></text>
<rect x="368" y="45.2" class="st6" width="69" height="51"/>
<text transform="matrix(1 0 0 1 368 55.1888)"><tspan x="0" y="0" class="st7 st8">Case</tspan><tspan x="0" y="16.8" class="st7 st8">under</tspan><tspan x="0" y="33.6" class="st7 st8">review</tspan></text>
<rect x="460" y="45.2" class="st6" width="76.1" height="51"/>
<text transform="matrix(1 0 0 1 460 55.1888)"><tspan x="0" y="0" class="st7 st8">Submit</tspan><tspan x="0" y="16.8" class="st7 st8">hearing</tspan><tspan x="0" y="33.6" class="st7 st8">requirements</tspan></text>
<rect x="552" y="45.2" class="st6" width="89" height="51"/>
<text transform="matrix(1 0 0 1 552 55.1888)"><tspan x="0" y="0" class="st7 st8">Respondent</tspan><tspan x="0" y="16.8" class="st7 st8">review</tspan></text>
<rect x="644" y="45.2" class="st6" width="69" height="51"/>
<text transform="matrix(1 0 0 1 644 55.1888)"><tspan x="0" y="0" class="st7 st8">Prepare</tspan><tspan x="0" y="16.8" class="st7 st8">for hearing</tspan></text>
<rect x="736" y="45.2" class="st6" width="69" height="51"/>
<text transform="matrix(1 0 0 1 736 55.1888)"><tspan x="0" y="0" class="st7 st8">Final</tspan><tspan x="0" y="16.8" class="st7 st8">bundling</tspan></text>
<rect x="828" y="45.2" class="st6" width="69" height="51"/>
<text transform="matrix(1 0 0 1 828 55.1888)"><tspan x="0" y="0" class="st7 st8">Pre</tspan><tspan x="0" y="16.8" class="st7 st8">hearing</tspan></text>
<rect x="920" y="45.2" class="st6" width="69" height="51"/>
<text transform="matrix(1 0 0 1 920 55.1888)" class="st7 st8">Decision</text>
</svg>
