<svg width="264" height="27" viewBox="0 0 264 27" fill="none" xmlns="http://www.w3.org/2000/svg">
<rect width="264" height="27" fill="#0B0C0C"/>
<path d="M8.3916 5.69629H11.082V16.5137H16.3516V19H8.3916V5.69629ZM19.877 14.918C19.9202 15.2148 20.013 15.487 20.1553 15.7344C20.3037 15.9818 20.4893 16.1951 20.7119 16.3745C20.9346 16.5477 21.1912 16.6838 21.4819 16.7827C21.7726 16.8817 22.0819 16.9312 22.4097 16.9312C22.7869 16.9312 23.1951 16.86 23.6343 16.7178C24.0734 16.5693 24.4754 16.356 24.8403 16.0776L26.0742 17.8774C25.6104 18.2671 25.0413 18.5825 24.3672 18.8237C23.693 19.0649 22.9756 19.1855 22.2148 19.1855C21.5283 19.1855 20.882 19.068 20.2759 18.833C19.6698 18.598 19.1379 18.2578 18.6802 17.8125C18.2287 17.3672 17.87 16.826 17.604 16.189C17.3442 15.5519 17.2144 14.8345 17.2144 14.0366C17.2144 13.3068 17.3288 12.6265 17.5576 11.9956C17.7926 11.3647 18.1174 10.8174 18.5317 10.3535C18.9523 9.88965 19.4533 9.52783 20.0347 9.26807C20.616 9.00212 21.2593 8.86914 21.9644 8.86914C22.62 8.86914 23.2292 8.98975 23.792 9.23096C24.3548 9.46598 24.8434 9.79997 25.2578 10.2329C25.6722 10.6597 25.9969 11.173 26.2319 11.7729C26.467 12.3729 26.5845 13.0347 26.5845 13.7583V14.918H19.877ZM21.9551 11.0957C21.4046 11.0957 20.9377 11.2812 20.5542 11.6523C20.1769 12.0173 19.9574 12.4595 19.8955 12.979H23.9033C23.891 12.4533 23.6992 12.008 23.3281 11.6431C22.957 11.2782 22.4993 11.0957 21.9551 11.0957ZM34.2568 17.2373C34.028 17.5156 33.7064 17.7383 33.292 17.9053C32.8838 18.0661 32.4385 18.1465 31.9561 18.1465C31.2881 18.1465 30.6943 18.029 30.1748 17.7939C29.6553 17.5589 29.2161 17.2373 28.8574 16.8291C28.5049 16.4147 28.2327 15.9261 28.041 15.3633C27.8555 14.8005 27.7627 14.182 27.7627 13.5078C27.7627 12.8522 27.8555 12.2399 28.041 11.6709C28.2327 11.0957 28.5049 10.604 28.8574 10.1958C29.2161 9.78141 29.6553 9.45671 30.1748 9.22168C30.6943 8.98665 31.2881 8.86914 31.9561 8.86914C32.4385 8.86914 32.8838 8.95264 33.292 9.11963C33.7064 9.28662 34.028 9.50928 34.2568 9.7876V9.06396H36.8267V18.9072C36.8267 19.5133 36.7122 20.0329 36.4834 20.4658C36.2546 20.9049 35.9391 21.2637 35.5371 21.542C35.1413 21.8203 34.6805 22.0213 34.1548 22.145C33.6291 22.2749 33.0693 22.3398 32.4756 22.3398C31.752 22.3398 30.9974 22.2533 30.2119 22.0801C29.4264 21.9131 28.7492 21.7028 28.1802 21.4492L28.9038 19.3804C29.077 19.4546 29.2904 19.535 29.5439 19.6216C29.7975 19.7144 30.0697 19.7948 30.3604 19.8628C30.651 19.9308 30.9541 19.9865 31.2695 20.0298C31.5911 20.0793 31.9035 20.104 32.2065 20.104C32.4725 20.104 32.7292 20.0762 32.9766 20.0205C33.224 19.971 33.4404 19.8844 33.626 19.7607C33.8177 19.6432 33.9692 19.4855 34.0806 19.2876C34.1981 19.0959 34.2568 18.8485 34.2568 18.5454V17.2373ZM30.3975 13.5449C30.3975 13.8727 30.4315 14.182 30.4995 14.4727C30.5737 14.7572 30.6882 15.0015 30.8428 15.2056C31.0036 15.4035 31.2077 15.5612 31.4551 15.6787C31.7025 15.79 32.0024 15.8457 32.355 15.8457C33.0539 15.8457 33.5518 15.6261 33.8486 15.187C34.1455 14.7417 34.2939 14.1943 34.2939 13.5449V13.4707C34.2939 13.1429 34.2599 12.8368 34.1919 12.5522C34.1239 12.2677 34.0125 12.0234 33.8579 11.8193C33.7033 11.6152 33.5023 11.4575 33.2549 11.3462C33.0137 11.2287 32.7137 11.1699 32.355 11.1699C31.6623 11.1699 31.1613 11.3895 30.8521 11.8286C30.549 12.2677 30.3975 12.8151 30.3975 13.4707V13.5449ZM42.2446 14.9644C41.9292 15.0138 41.6756 15.1252 41.4839 15.2983C41.2922 15.4653 41.1963 15.6942 41.1963 15.9849C41.1963 16.3065 41.3138 16.5848 41.5488 16.8198C41.7839 17.0487 42.1302 17.1631 42.5879 17.1631C43.0703 17.1631 43.4507 17.0239 43.729 16.7456C44.0073 16.4673 44.1465 16.0993 44.1465 15.6416V14.6396L42.2446 14.9644ZM44.564 18.063C44.4588 18.1805 44.3289 18.3073 44.1743 18.4434C44.0259 18.5732 43.8465 18.6938 43.6362 18.8052C43.4321 18.9103 43.1909 19 42.9126 19.0742C42.6343 19.1484 42.3219 19.1855 41.9756 19.1855C41.4808 19.1855 41.0231 19.1082 40.6025 18.9536C40.1882 18.7928 39.8232 18.5701 39.5078 18.2856C39.1924 18.0011 38.945 17.6733 38.7656 17.3022C38.5863 16.925 38.4966 16.5168 38.4966 16.0776C38.4966 15.2798 38.744 14.6273 39.2388 14.1201C39.7336 13.613 40.417 13.2944 41.2891 13.1646L44.1465 12.7471V12.5615C44.1465 12.1162 44.0104 11.7637 43.7383 11.5039C43.4661 11.2441 43.0239 11.1143 42.4116 11.1143C42.158 11.1143 41.9014 11.1452 41.6416 11.207C41.3818 11.2627 41.1313 11.3276 40.8901 11.4019C40.6551 11.4761 40.4355 11.5627 40.2314 11.6616C40.0273 11.7544 39.848 11.8379 39.6934 11.9121L38.6914 9.95459C39.2604 9.63916 39.8913 9.37939 40.584 9.17529C41.2829 8.97119 42.0065 8.86914 42.7549 8.86914C43.2126 8.86914 43.6733 8.91862 44.1372 9.01758C44.6073 9.11035 45.0309 9.28353 45.4082 9.53711C45.7917 9.79069 46.104 10.137 46.3452 10.5762C46.5864 11.0091 46.707 11.5627 46.707 12.2368V16.3188C46.707 16.6095 46.7812 16.826 46.9297 16.9683C47.0843 17.1043 47.2946 17.2311 47.5605 17.3486L46.4009 19.1855C45.9308 19.1361 45.5535 19.0155 45.269 18.8237C44.9845 18.6258 44.7495 18.3722 44.564 18.063ZM48.813 5.69629H51.3735V16.3003C51.3735 16.5106 51.4323 16.6714 51.5498 16.7827C51.6735 16.894 51.8683 16.9497 52.1343 16.9497C52.258 16.9497 52.3631 16.9435 52.4497 16.9312C52.5425 16.9126 52.66 16.8879 52.8022 16.8569L53.0063 19.0371C52.8332 19.0618 52.6476 19.0866 52.4497 19.1113C52.2827 19.1299 52.0879 19.1453 51.8652 19.1577C51.6488 19.1763 51.423 19.1855 51.188 19.1855C50.8231 19.1855 50.4953 19.1392 50.2046 19.0464C49.9139 18.9536 49.6634 18.8175 49.4531 18.6382C49.249 18.4526 49.0913 18.2238 48.98 17.9517C48.8687 17.6795 48.813 17.3641 48.813 17.0054V5.69629ZM54.3794 5.69629H56.9399V16.3003C56.9399 16.5106 56.9987 16.6714 57.1162 16.7827C57.2399 16.894 57.4347 16.9497 57.7007 16.9497C57.8244 16.9497 57.9295 16.9435 58.0161 16.9312C58.1089 16.9126 58.2264 16.8879 58.3687 16.8569L58.5728 19.0371C58.3996 19.0618 58.214 19.0866 58.0161 19.1113C57.8491 19.1299 57.6543 19.1453 57.4316 19.1577C57.2152 19.1763 56.9894 19.1855 56.7544 19.1855C56.3895 19.1855 56.0617 19.1392 55.771 19.0464C55.4803 18.9536 55.2298 18.8175 55.0195 18.6382C54.8154 18.4526 54.6577 18.2238 54.5464 17.9517C54.4351 17.6795 54.3794 17.3641 54.3794 17.0054V5.69629ZM61.0127 20.1597C61.3034 20.1597 61.5168 20.1071 61.6528 20.002C61.7951 19.8968 61.9064 19.7267 61.9868 19.4917L62.0796 19.1855L58.6377 9.06396H61.4858L63.4619 15.9199L65.104 9.06396H67.915L64.5659 20.2339C64.4546 20.605 64.3 20.9235 64.1021 21.1895C63.9041 21.4554 63.6691 21.6719 63.397 21.8389C63.1248 22.012 62.8218 22.1388 62.4878 22.2192C62.16 22.2996 61.8075 22.3398 61.4302 22.3398C61.2756 22.3398 61.0962 22.3337 60.8921 22.3213C60.6942 22.3089 60.487 22.2904 60.2705 22.2656C60.0602 22.2471 59.8499 22.2223 59.6396 22.1914C59.4355 22.1605 59.2469 22.1234 59.0737 22.0801L59.5562 19.9834C59.7046 20.0205 59.8592 20.0514 60.02 20.0762C60.1623 20.1009 60.3169 20.1195 60.4839 20.1318C60.6571 20.1504 60.8333 20.1597 61.0127 20.1597ZM72.4238 5.69629H77.5728C78.3644 5.69629 79.0633 5.81071 79.6694 6.03955C80.2756 6.26839 80.7827 6.57454 81.1909 6.95801C81.5991 7.34147 81.9084 7.78369 82.1187 8.28467C82.3289 8.77946 82.4341 9.29899 82.4341 9.84326C82.4341 10.2824 82.366 10.6999 82.23 11.0957C82.1001 11.4854 81.9176 11.841 81.6826 12.1626C81.4538 12.478 81.1816 12.7533 80.8662 12.9883C80.5508 13.2171 80.2106 13.3965 79.8457 13.5264L82.7588 19H79.6602L77.248 14.2129H75.1143V19H72.4238V5.69629ZM79.623 9.93604C79.623 9.67008 79.5736 9.42269 79.4746 9.19385C79.3818 8.96501 79.2365 8.76709 79.0386 8.6001C78.8468 8.43311 78.6056 8.30322 78.3149 8.21045C78.0243 8.11768 77.6872 8.07129 77.3037 8.07129H75.1143V11.8193H77.3037C77.6872 11.8193 78.0243 11.7729 78.3149 11.6802C78.6056 11.5812 78.8468 11.4482 79.0386 11.2812C79.2365 11.1081 79.3818 10.9071 79.4746 10.6782C79.5736 10.4494 79.623 10.202 79.623 9.93604ZM86.1172 14.918C86.1605 15.2148 86.2533 15.487 86.3955 15.7344C86.5439 15.9818 86.7295 16.1951 86.9521 16.3745C87.1748 16.5477 87.4315 16.6838 87.7222 16.7827C88.0129 16.8817 88.3221 16.9312 88.6499 16.9312C89.0272 16.9312 89.4354 16.86 89.8745 16.7178C90.3136 16.5693 90.7157 16.356 91.0806 16.0776L92.3145 17.8774C91.8506 18.2671 91.2816 18.5825 90.6074 18.8237C89.9333 19.0649 89.2158 19.1855 88.4551 19.1855C87.7686 19.1855 87.1222 19.068 86.5161 18.833C85.91 18.598 85.3781 18.2578 84.9204 17.8125C84.4689 17.3672 84.1102 16.826 83.8442 16.189C83.5845 15.5519 83.4546 14.8345 83.4546 14.0366C83.4546 13.3068 83.569 12.6265 83.7979 11.9956C84.0329 11.3647 84.3576 10.8174 84.772 10.3535C85.1925 9.88965 85.6935 9.52783 86.2749 9.26807C86.8563 9.00212 87.4995 8.86914 88.2046 8.86914C88.8602 8.86914 89.4694 8.98975 90.0322 9.23096C90.5951 9.46598 91.0837 9.79997 91.498 10.2329C91.9124 10.6597 92.2371 11.173 92.4722 11.7729C92.7072 12.3729 92.8247 13.0347 92.8247 13.7583V14.918H86.1172ZM88.1953 11.0957C87.6449 11.0957 87.1779 11.2812 86.7944 11.6523C86.4172 12.0173 86.1976 12.4595 86.1357 12.979H90.1436C90.1312 12.4533 89.9395 12.008 89.5684 11.6431C89.1973 11.2782 88.7396 11.0957 88.1953 11.0957ZM97.0181 22.1357H94.4575V9.06396H97.0181V9.91748C97.2964 9.62679 97.6396 9.37939 98.0479 9.17529C98.4561 8.97119 98.9508 8.86914 99.5322 8.86914C100.188 8.86914 100.782 9.00212 101.313 9.26807C101.852 9.52783 102.312 9.88965 102.696 10.3535C103.079 10.8112 103.376 11.3555 103.586 11.9863C103.797 12.6172 103.902 13.3006 103.902 14.0366C103.902 14.7726 103.794 15.4561 103.577 16.0869C103.361 16.7178 103.058 17.262 102.668 17.7197C102.278 18.1774 101.811 18.5361 101.267 18.7959C100.723 19.0557 100.123 19.1855 99.4673 19.1855C99.1766 19.1855 98.9106 19.1577 98.6694 19.1021C98.4344 19.0526 98.2179 18.9814 98.02 18.8887C97.8221 18.7959 97.6396 18.6877 97.4727 18.564C97.3057 18.4341 97.1541 18.2949 97.0181 18.1465V22.1357ZM96.9438 14.9551C96.9438 15.221 96.9902 15.4684 97.083 15.6973C97.182 15.9199 97.3211 16.1147 97.5005 16.2817C97.6799 16.4487 97.8932 16.5786 98.1406 16.6714C98.3942 16.7642 98.6787 16.8105 98.9941 16.8105C99.359 16.8105 99.6807 16.7456 99.959 16.6157C100.243 16.4797 100.482 16.291 100.673 16.0498C100.865 15.8086 101.01 15.5241 101.109 15.1963C101.208 14.8623 101.258 14.4974 101.258 14.1016V13.981C101.258 13.5851 101.208 13.2202 101.109 12.8862C101.01 12.5522 100.865 12.2646 100.673 12.0234C100.482 11.776 100.243 11.5843 99.959 11.4482C99.6807 11.3122 99.359 11.2441 98.9941 11.2441C98.6787 11.2441 98.3942 11.2905 98.1406 11.3833C97.8932 11.4761 97.6799 11.606 97.5005 11.7729C97.3211 11.9399 97.182 12.1379 97.083 12.3667C96.9902 12.5955 96.9438 12.8429 96.9438 13.1089V14.9551ZM111.194 11.5503H110.925C110.56 11.5503 110.21 11.5874 109.876 11.6616C109.549 11.7358 109.258 11.8719 109.004 12.0698C108.751 12.2616 108.547 12.5275 108.392 12.8677C108.244 13.2078 108.169 13.6439 108.169 14.1758V19H105.609V9.06396H108.169V10.1865C108.275 10.0195 108.411 9.85872 108.578 9.7041C108.745 9.54948 108.939 9.41341 109.162 9.2959C109.385 9.1722 109.635 9.07324 109.914 8.99902C110.192 8.9248 110.492 8.8877 110.813 8.8877H111.194V11.5503ZM114.933 14.918C114.976 15.2148 115.069 15.487 115.211 15.7344C115.359 15.9818 115.545 16.1951 115.768 16.3745C115.99 16.5477 116.247 16.6838 116.538 16.7827C116.828 16.8817 117.138 16.9312 117.465 16.9312C117.843 16.9312 118.251 16.86 118.69 16.7178C119.129 16.5693 119.531 16.356 119.896 16.0776L121.13 17.8774C120.666 18.2671 120.097 18.5825 119.423 18.8237C118.749 19.0649 118.031 19.1855 117.271 19.1855C116.584 19.1855 115.938 19.068 115.332 18.833C114.725 18.598 114.194 18.2578 113.736 17.8125C113.284 17.3672 112.926 16.826 112.66 16.189C112.4 15.5519 112.27 14.8345 112.27 14.0366C112.27 13.3068 112.384 12.6265 112.613 11.9956C112.848 11.3647 113.173 10.8174 113.587 10.3535C114.008 9.88965 114.509 9.52783 115.09 9.26807C115.672 9.00212 116.315 8.86914 117.02 8.86914C117.676 8.86914 118.285 8.98975 118.848 9.23096C119.41 9.46598 119.899 9.79997 120.313 10.2329C120.728 10.6597 121.053 11.173 121.288 11.7729C121.523 12.3729 121.64 13.0347 121.64 13.7583V14.918H114.933ZM117.011 11.0957C116.46 11.0957 115.993 11.2812 115.61 11.6523C115.233 12.0173 115.013 12.4595 114.951 12.979H118.959C118.947 12.4533 118.755 12.008 118.384 11.6431C118.013 11.2782 117.555 11.0957 117.011 11.0957ZM123.978 15.8271C124.343 16.1549 124.779 16.4364 125.286 16.6714C125.793 16.9064 126.307 17.0239 126.826 17.0239C127.203 17.0239 127.5 16.9528 127.717 16.8105C127.933 16.6621 128.042 16.4735 128.042 16.2446C128.042 15.855 127.624 15.5519 126.789 15.3354L126.065 15.1406C125.707 15.054 125.345 14.9365 124.98 14.7881C124.615 14.6335 124.278 14.4325 123.969 14.1851C123.666 13.9377 123.418 13.6377 123.227 13.2852C123.041 12.9264 122.948 12.4873 122.948 11.9678C122.948 11.5534 123.038 11.1606 123.217 10.7896C123.403 10.4123 123.663 10.0814 123.997 9.79688C124.337 9.51237 124.748 9.28662 125.23 9.11963C125.713 8.95264 126.251 8.86914 126.845 8.86914C127.692 8.86914 128.447 9.00212 129.108 9.26807C129.776 9.53402 130.302 9.83398 130.686 10.168L129.35 11.875C129.034 11.6462 128.66 11.4513 128.227 11.2905C127.8 11.1235 127.37 11.04 126.938 11.04C126.535 11.04 126.223 11.1143 126 11.2627C125.778 11.4049 125.667 11.5781 125.667 11.7822C125.667 11.9987 125.762 12.175 125.954 12.311C126.152 12.4409 126.437 12.5553 126.808 12.6543L127.884 12.9604C128.91 13.2511 129.646 13.6439 130.092 14.1387C130.537 14.6335 130.76 15.2581 130.76 16.0127C130.76 16.4333 130.673 16.8353 130.5 17.2188C130.327 17.596 130.073 17.9331 129.739 18.23C129.405 18.5269 128.991 18.7619 128.496 18.9351C128.001 19.1021 127.438 19.1855 126.808 19.1855C126.325 19.1855 125.871 19.1423 125.444 19.0557C125.023 18.9691 124.631 18.8516 124.266 18.7031C123.907 18.5485 123.582 18.3753 123.292 18.1836C123.001 17.9919 122.753 17.8001 122.549 17.6084L123.978 15.8271ZM134.563 14.918C134.607 15.2148 134.7 15.487 134.842 15.7344C134.99 15.9818 135.176 16.1951 135.398 16.3745C135.621 16.5477 135.878 16.6838 136.168 16.7827C136.459 16.8817 136.768 16.9312 137.096 16.9312C137.473 16.9312 137.882 16.86 138.321 16.7178C138.76 16.5693 139.162 16.356 139.527 16.0776L140.761 17.8774C140.297 18.2671 139.728 18.5825 139.054 18.8237C138.38 19.0649 137.662 19.1855 136.901 19.1855C136.215 19.1855 135.569 19.068 134.962 18.833C134.356 18.598 133.824 18.2578 133.367 17.8125C132.915 17.3672 132.556 16.826 132.291 16.189C132.031 15.5519 131.901 14.8345 131.901 14.0366C131.901 13.3068 132.015 12.6265 132.244 11.9956C132.479 11.3647 132.804 10.8174 133.218 10.3535C133.639 9.88965 134.14 9.52783 134.721 9.26807C135.303 9.00212 135.946 8.86914 136.651 8.86914C137.306 8.86914 137.916 8.98975 138.479 9.23096C139.041 9.46598 139.53 9.79997 139.944 10.2329C140.359 10.6597 140.683 11.173 140.918 11.7729C141.153 12.3729 141.271 13.0347 141.271 13.7583V14.918H134.563ZM136.642 11.0957C136.091 11.0957 135.624 11.2812 135.241 11.6523C134.863 12.0173 134.644 12.4595 134.582 12.979H138.59C138.577 12.4533 138.386 12.008 138.015 11.6431C137.644 11.2782 137.186 11.0957 136.642 11.0957ZM142.904 9.06396H145.464V9.91748C145.6 9.78141 145.752 9.65153 145.919 9.52783C146.092 9.39795 146.281 9.28662 146.485 9.19385C146.689 9.09489 146.915 9.01758 147.162 8.96191C147.416 8.90007 147.694 8.86914 147.997 8.86914C148.535 8.86914 149.018 8.95882 149.444 9.13818C149.871 9.31136 150.23 9.55257 150.521 9.86182C150.817 10.1711 151.043 10.5329 151.198 10.9473C151.352 11.3617 151.43 11.8101 151.43 12.2925V19H148.869V13.2202C148.869 12.8677 148.829 12.5708 148.749 12.3296C148.668 12.0822 148.557 11.8843 148.415 11.7358C148.278 11.5812 148.115 11.4699 147.923 11.4019C147.737 11.3276 147.533 11.2905 147.311 11.2905C147.051 11.2905 146.806 11.3369 146.578 11.4297C146.355 11.5225 146.16 11.6647 145.993 11.8564C145.826 12.042 145.696 12.277 145.604 12.5615C145.511 12.846 145.464 13.18 145.464 13.5635V19H142.904V9.06396ZM157.237 16.0405C157.237 16.158 157.253 16.2694 157.284 16.3745C157.315 16.4797 157.367 16.5724 157.441 16.6528C157.522 16.7271 157.633 16.7858 157.775 16.8291C157.918 16.8724 158.1 16.894 158.323 16.894C158.416 16.894 158.521 16.891 158.638 16.8848C158.756 16.8724 158.873 16.86 158.991 16.8477C159.108 16.8353 159.216 16.8198 159.315 16.8013C159.421 16.7827 159.507 16.7673 159.575 16.7549L159.807 19.0186C159.566 19.0495 159.315 19.0773 159.056 19.1021C158.833 19.1268 158.586 19.1453 158.313 19.1577C158.041 19.1763 157.766 19.1855 157.488 19.1855C156.603 19.1855 155.914 18.9845 155.419 18.5825C154.924 18.1805 154.677 17.5404 154.677 16.6621V11.2905H152.886V9.06396H154.677V6.25293L157.237 5.56641V9.06396H159.844V11.2905H157.237V16.0405ZM163.602 14.918C163.645 15.2148 163.738 15.487 163.88 15.7344C164.028 15.9818 164.214 16.1951 164.437 16.3745C164.659 16.5477 164.916 16.6838 165.207 16.7827C165.497 16.8817 165.806 16.9312 166.134 16.9312C166.512 16.9312 166.92 16.86 167.359 16.7178C167.798 16.5693 168.2 16.356 168.565 16.0776L169.799 17.8774C169.335 18.2671 168.766 18.5825 168.092 18.8237C167.418 19.0649 166.7 19.1855 165.939 19.1855C165.253 19.1855 164.607 19.068 164 18.833C163.394 18.598 162.862 18.2578 162.405 17.8125C161.953 17.3672 161.595 16.826 161.329 16.189C161.069 15.5519 160.939 14.8345 160.939 14.0366C160.939 13.3068 161.053 12.6265 161.282 11.9956C161.517 11.3647 161.842 10.8174 162.256 10.3535C162.677 9.88965 163.178 9.52783 163.759 9.26807C164.341 9.00212 164.984 8.86914 165.689 8.86914C166.345 8.86914 166.954 8.98975 167.517 9.23096C168.079 9.46598 168.568 9.79997 168.982 10.2329C169.397 10.6597 169.722 11.173 169.957 11.7729C170.192 12.3729 170.309 13.0347 170.309 13.7583V14.918H163.602ZM165.68 11.0957C165.129 11.0957 164.662 11.2812 164.279 11.6523C163.902 12.0173 163.682 12.4595 163.62 12.979H167.628C167.616 12.4533 167.424 12.008 167.053 11.6431C166.682 11.2782 166.224 11.0957 165.68 11.0957ZM178.325 19V18.1465C178.189 18.2949 178.037 18.4341 177.87 18.564C177.709 18.6877 177.527 18.7959 177.323 18.8887C177.125 18.9814 176.905 19.0526 176.664 19.1021C176.429 19.1577 176.166 19.1855 175.875 19.1855C175.22 19.1855 174.62 19.0557 174.076 18.7959C173.531 18.5361 173.064 18.1774 172.675 17.7197C172.285 17.262 171.982 16.7178 171.766 16.0869C171.555 15.4561 171.45 14.7726 171.45 14.0366C171.45 13.3006 171.555 12.6172 171.766 11.9863C171.976 11.3555 172.27 10.8112 172.647 10.3535C173.03 9.88965 173.491 9.52783 174.029 9.26807C174.567 9.00212 175.164 8.86914 175.82 8.86914C176.401 8.86914 176.893 8.97119 177.295 9.17529C177.703 9.37321 178.046 9.62061 178.325 9.91748V5.69629H180.885V19H178.325ZM178.399 13.1089C178.399 12.8429 178.349 12.5955 178.25 12.3667C178.158 12.1379 178.022 11.9399 177.842 11.7729C177.663 11.606 177.446 11.4761 177.193 11.3833C176.945 11.2905 176.664 11.2441 176.349 11.2441C175.984 11.2441 175.659 11.3122 175.375 11.4482C175.096 11.5843 174.861 11.776 174.669 12.0234C174.478 12.2646 174.332 12.5522 174.233 12.8862C174.134 13.2202 174.085 13.5851 174.085 13.981V14.1016C174.085 14.4974 174.134 14.8623 174.233 15.1963C174.332 15.5241 174.478 15.8086 174.669 16.0498C174.861 16.291 175.096 16.4797 175.375 16.6157C175.659 16.7456 175.984 16.8105 176.349 16.8105C176.664 16.8105 176.945 16.7642 177.193 16.6714C177.446 16.5786 177.663 16.4487 177.842 16.2817C178.022 16.1147 178.158 15.9199 178.25 15.6973C178.349 15.4684 178.399 15.221 178.399 14.9551V13.1089ZM185.802 11.9121H189.792V14.2129H185.802V11.9121ZM203.086 19H200.516V13.2202C200.516 12.8677 200.476 12.5708 200.396 12.3296C200.321 12.0822 200.216 11.8843 200.08 11.7358C199.944 11.5812 199.786 11.473 199.607 11.4111C199.428 11.3431 199.233 11.3091 199.022 11.3091C198.775 11.3091 198.543 11.3524 198.327 11.439C198.116 11.5256 197.931 11.6616 197.77 11.8472C197.615 12.0327 197.492 12.2708 197.399 12.5615C197.312 12.846 197.269 13.1862 197.269 13.582V19H194.708V9.06396H197.269V9.93604C197.597 9.57113 197.977 9.30208 198.41 9.12891C198.849 8.95573 199.319 8.86914 199.82 8.86914C200.334 8.86914 200.813 8.97428 201.258 9.18457C201.71 9.39486 202.084 9.74121 202.381 10.2236C202.554 9.97624 202.752 9.76595 202.975 9.59277C203.203 9.4196 203.448 9.28044 203.708 9.17529C203.967 9.07015 204.236 8.99284 204.515 8.94336C204.799 8.89388 205.09 8.86914 205.387 8.86914C205.943 8.86914 206.438 8.96191 206.871 9.14746C207.31 9.32682 207.681 9.57113 207.984 9.88037C208.287 10.1896 208.519 10.5452 208.68 10.9473C208.841 11.3493 208.921 11.7729 208.921 12.2183V19H206.333V13.2202C206.333 12.8677 206.293 12.5708 206.212 12.3296C206.138 12.0822 206.033 11.8843 205.897 11.7358C205.761 11.5812 205.6 11.473 205.415 11.4111C205.235 11.3431 205.04 11.3091 204.83 11.3091C204.583 11.3091 204.354 11.3524 204.144 11.439C203.933 11.5256 203.748 11.6616 203.587 11.8472C203.432 12.0327 203.309 12.2708 203.216 12.5615C203.129 12.846 203.086 13.1862 203.086 13.582V19ZM214.265 14.9644C213.95 15.0138 213.696 15.1252 213.504 15.2983C213.313 15.4653 213.217 15.6942 213.217 15.9849C213.217 16.3065 213.334 16.5848 213.569 16.8198C213.804 17.0487 214.151 17.1631 214.608 17.1631C215.091 17.1631 215.471 17.0239 215.75 16.7456C216.028 16.4673 216.167 16.0993 216.167 15.6416V14.6396L214.265 14.9644ZM216.584 18.063C216.479 18.1805 216.349 18.3073 216.195 18.4434C216.046 18.5732 215.867 18.6938 215.657 18.8052C215.453 18.9103 215.211 19 214.933 19.0742C214.655 19.1484 214.342 19.1855 213.996 19.1855C213.501 19.1855 213.044 19.1082 212.623 18.9536C212.209 18.7928 211.844 18.5701 211.528 18.2856C211.213 18.0011 210.965 17.6733 210.786 17.3022C210.607 16.925 210.517 16.5168 210.517 16.0776C210.517 15.2798 210.764 14.6273 211.259 14.1201C211.754 13.613 212.438 13.2944 213.31 13.1646L216.167 12.7471V12.5615C216.167 12.1162 216.031 11.7637 215.759 11.5039C215.487 11.2441 215.044 11.1143 214.432 11.1143C214.179 11.1143 213.922 11.1452 213.662 11.207C213.402 11.2627 213.152 11.3276 212.911 11.4019C212.676 11.4761 212.456 11.5627 212.252 11.6616C212.048 11.7544 211.868 11.8379 211.714 11.9121L210.712 9.95459C211.281 9.63916 211.912 9.37939 212.604 9.17529C213.303 8.97119 214.027 8.86914 214.775 8.86914C215.233 8.86914 215.694 8.91862 216.158 9.01758C216.628 9.11035 217.051 9.28353 217.429 9.53711C217.812 9.79069 218.125 10.137 218.366 10.5762C218.607 11.0091 218.728 11.5627 218.728 12.2368V16.3188C218.728 16.6095 218.802 16.826 218.95 16.9683C219.105 17.1043 219.315 17.2311 219.581 17.3486L218.421 19.1855C217.951 19.1361 217.574 19.0155 217.29 18.8237C217.005 18.6258 216.77 18.3722 216.584 18.063ZM220.871 9.06396H223.431V9.91748C223.567 9.78141 223.719 9.65153 223.886 9.52783C224.059 9.39795 224.248 9.28662 224.452 9.19385C224.656 9.09489 224.882 9.01758 225.129 8.96191C225.382 8.90007 225.661 8.86914 225.964 8.86914C226.502 8.86914 226.984 8.95882 227.411 9.13818C227.838 9.31136 228.197 9.55257 228.487 9.86182C228.784 10.1711 229.01 10.5329 229.165 10.9473C229.319 11.3617 229.396 11.8101 229.396 12.2925V19H226.836V13.2202C226.836 12.8677 226.796 12.5708 226.715 12.3296C226.635 12.0822 226.524 11.8843 226.381 11.7358C226.245 11.5812 226.081 11.4699 225.89 11.4019C225.704 11.3276 225.5 11.2905 225.277 11.2905C225.018 11.2905 224.773 11.3369 224.544 11.4297C224.322 11.5225 224.127 11.6647 223.96 11.8564C223.793 12.042 223.663 12.277 223.57 12.5615C223.478 12.846 223.431 13.18 223.431 13.5635V19H220.871V9.06396ZM239.991 19H237.431V18.1465C237.288 18.2826 237.134 18.4155 236.967 18.5454C236.8 18.6691 236.614 18.7804 236.41 18.8794C236.206 18.9722 235.977 19.0464 235.724 19.1021C235.476 19.1577 235.201 19.1855 234.898 19.1855C234.36 19.1855 233.877 19.099 233.451 18.9258C233.024 18.7464 232.662 18.5052 232.365 18.2021C232.075 17.8929 231.852 17.5311 231.697 17.1167C231.543 16.7023 231.465 16.2539 231.465 15.7715V9.06396H234.026V14.8345C234.026 15.187 234.063 15.487 234.137 15.7344C234.218 15.9818 234.326 16.1828 234.462 16.3374C234.604 16.4858 234.771 16.5972 234.963 16.6714C235.155 16.7394 235.362 16.7734 235.584 16.7734C235.844 16.7734 236.085 16.7271 236.308 16.6343C236.537 16.5415 236.735 16.4023 236.902 16.2168C237.069 16.0251 237.199 15.7869 237.292 15.5024C237.384 15.2179 237.431 14.884 237.431 14.5005V9.06396H239.991V19ZM245.418 14.9644C245.103 15.0138 244.849 15.1252 244.658 15.2983C244.466 15.4653 244.37 15.6942 244.37 15.9849C244.37 16.3065 244.488 16.5848 244.723 16.8198C244.958 17.0487 245.304 17.1631 245.762 17.1631C246.244 17.1631 246.625 17.0239 246.903 16.7456C247.181 16.4673 247.32 16.0993 247.32 15.6416V14.6396L245.418 14.9644ZM247.738 18.063C247.633 18.1805 247.503 18.3073 247.348 18.4434C247.2 18.5732 247.02 18.6938 246.81 18.8052C246.606 18.9103 246.365 19 246.086 19.0742C245.808 19.1484 245.496 19.1855 245.149 19.1855C244.655 19.1855 244.197 19.1082 243.776 18.9536C243.362 18.7928 242.997 18.5701 242.682 18.2856C242.366 18.0011 242.119 17.6733 241.939 17.3022C241.76 16.925 241.67 16.5168 241.67 16.0776C241.67 15.2798 241.918 14.6273 242.413 14.1201C242.907 13.613 243.591 13.2944 244.463 13.1646L247.32 12.7471V12.5615C247.32 12.1162 247.184 11.7637 246.912 11.5039C246.64 11.2441 246.198 11.1143 245.585 11.1143C245.332 11.1143 245.075 11.1452 244.815 11.207C244.556 11.2627 244.305 11.3276 244.064 11.4019C243.829 11.4761 243.609 11.5627 243.405 11.6616C243.201 11.7544 243.022 11.8379 242.867 11.9121L241.865 9.95459C242.434 9.63916 243.065 9.37939 243.758 9.17529C244.457 8.97119 245.18 8.86914 245.929 8.86914C246.386 8.86914 246.847 8.91862 247.311 9.01758C247.781 9.11035 248.205 9.28353 248.582 9.53711C248.965 9.79069 249.278 10.137 249.519 10.5762C249.76 11.0091 249.881 11.5627 249.881 12.2368V16.3188C249.881 16.6095 249.955 16.826 250.104 16.9683C250.258 17.1043 250.468 17.2311 250.734 17.3486L249.575 19.1855C249.105 19.1361 248.727 19.0155 248.443 18.8237C248.158 18.6258 247.923 18.3722 247.738 18.063ZM251.987 5.69629H254.547V16.3003C254.547 16.5106 254.606 16.6714 254.724 16.7827C254.847 16.894 255.042 16.9497 255.308 16.9497C255.432 16.9497 255.537 16.9435 255.624 16.9312C255.716 16.9126 255.834 16.8879 255.976 16.8569L256.18 19.0371C256.007 19.0618 255.821 19.0866 255.624 19.1113C255.457 19.1299 255.262 19.1453 255.039 19.1577C254.823 19.1763 254.597 19.1855 254.362 19.1855C253.997 19.1855 253.669 19.1392 253.378 19.0464C253.088 18.9536 252.837 18.8175 252.627 18.6382C252.423 18.4526 252.265 18.2238 252.154 17.9517C252.042 17.6795 251.987 17.3641 251.987 17.0054V5.69629Z" fill="white"/>
</svg>
