<?xml version="1.0" encoding="utf-8"?>
<!-- Generator: Adobe Illustrator 23.1.0, SVG Export Plug-In . SVG Version: 6.00 Build 0)  -->
<svg version="1.1" id="Layer_1" xmlns="http://www.w3.org/2000/svg" xmlns:xlink="http://www.w3.org/1999/xlink" x="0px" y="0px"
	 width="990px" height="108px" viewBox="0 0 990 108" style="enable-background:new 0 0 990 108;" xml:space="preserve">
<style type="text/css">
	.st2{fill:none;stroke:#008242;stroke-width:4;stroke-miterlimit:10;}
	.st3{fill:#008242;stroke:#008242;stroke-width:1;stroke-miterlimit:10;}
	.st4{fill:#FFFFFF;}
	.st5{fill:none;stroke:#FFFFFF;stroke-width:4;stroke-miterlimit:10;}
	.st6{fill:none;}
	.st7{font-family:'ArialMT';}
	.st8{font-size:14px;}
	.st9{font-family:'Arial-BoldMT';}
</style>
<line class="st2" x1="17.5" y1="15" x2="926.3" y2="15"/>
<circle class="st3" cx="15" cy="15" r="15"/>
<polyline class="st5" points="8,15.6 12.4,19.5 22,10.5 "/>
<circle class="st3" cx="117.2" cy="15" r="15"/>
<polyline class="st5" points="110.2,15.6 114.6,19.5 124.2,10.5 "/>
<g>
	<circle class="st4" cx="219.4" cy="15" r="13.8"/>
	<path class="st3" d="M219.4,2.5c6.9,0,12.5,5.6,12.5,12.5s-5.6,12.5-12.5,12.5s-12.5-5.6-12.5-12.5S212.5,2.5,219.4,2.5 M219.4,0
		c-8.3,0-15,6.7-15,15c0,8.3,6.7,15,15,15c8.3,0,15-6.7,15-15C234.4,6.7,227.7,0,219.4,0L219.4,0z"/>
</g>
<g>
	<circle class="st4" cx="321.6" cy="15" r="13.8"/>
	<path class="st3" d="M321.6,2.5c6.9,0,12.5,5.6,12.5,12.5s-5.6,12.5-12.5,12.5s-12.5-5.6-12.5-12.5S314.7,2.5,321.6,2.5 M321.6,0
		c-8.3,0-15,6.7-15,15c0,8.3,6.7,15,15,15c8.3,0,15-6.7,15-15C336.6,6.7,329.9,0,321.6,0L321.6,0z"/>
</g>
<g>
	<circle class="st4" cx="423.8" cy="15" r="13.8"/>
	<path class="st3" d="M423.8,2.5c6.9,0,12.5,5.6,12.5,12.5s-5.6,12.5-12.5,12.5s-12.5-5.6-12.5-12.5S416.9,2.5,423.8,2.5 M423.8,0
		c-8.3,0-15,6.7-15,15c0,8.3,6.7,15,15,15c8.3,0,15-6.7,15-15C438.8,6.7,432.1,0,423.8,0L423.8,0z"/>
</g>
<g>
	<circle class="st4" cx="526" cy="15" r="13.8"/>
	<path class="st3" d="M526,2.5c6.9,0,12.5,5.6,12.5,12.5s-5.6,12.5-12.5,12.5s-12.5-5.6-12.5-12.5S519.1,2.5,526,2.5 M526,0
		c-8.3,0-15,6.7-15,15c0,8.3,6.7,15,15,15c8.3,0,15-6.7,15-15C541,6.7,534.3,0,526,0L526,0z"/>
</g>
<g>
	<circle class="st4" cx="628.2" cy="15" r="13.8"/>
	<path class="st3" d="M628.2,2.5c6.9,0,12.5,5.6,12.5,12.5s-5.6,12.5-12.5,12.5s-12.5-5.6-12.5-12.5S621.3,2.5,628.2,2.5 M628.2,0
		c-8.3,0-15,6.7-15,15c0,8.3,6.7,15,15,15c8.3,0,15-6.7,15-15C643.2,6.7,636.5,0,628.2,0L628.2,0z"/>
</g>
<g>
	<circle class="st4" cx="730.4" cy="15" r="13.8"/>
	<path class="st3" d="M730.4,2.5c6.9,0,12.5,5.6,12.5,12.5s-5.6,12.5-12.5,12.5s-12.5-5.6-12.5-12.5S723.5,2.5,730.4,2.5 M730.4,0
		c-8.3,0-15,6.7-15,15c0,8.3,6.7,15,15,15c8.3,0,15-6.7,15-15C745.4,6.7,738.7,0,730.4,0L730.4,0z"/>
</g>
<g>
	<circle class="st4" cx="832.6" cy="15" r="13.8"/>
	<path class="st3" d="M832.6,2.5c6.9,0,12.5,5.6,12.5,12.5s-5.6,12.5-12.5,12.5s-12.5-5.6-12.5-12.5S825.7,2.5,832.6,2.5 M832.6,0
		c-8.3,0-15,6.7-15,15c0,8.3,6.7,15,15,15c8.3,0,15-6.7,15-15C847.6,6.7,840.9,0,832.6,0L832.6,0z"/>
</g>
<g>
	<circle class="st4" cx="934.8" cy="15" r="13.8"/>
	<path class="st3" d="M934.8,2.5c6.9,0,12.5,5.6,12.5,12.5s-5.6,12.5-12.5,12.5s-12.5-5.6-12.5-12.5S927.9,2.5,934.8,2.5 M934.8,0
		c-8.3,0-15,6.7-15,15c0,8.3,6.7,15,15,15c8.3,0,15-6.7,15-15C949.8,6.7,943.1,0,934.8,0L934.8,0z"/>
</g>
<rect y="45.2" class="st6" width="69" height="51"/>
<text transform="matrix(1 0 0 1 0 55.1888)"><tspan x="0" y="0" class="st7 st8">Appeal</tspan><tspan x="0" y="16.8" class="st7 st8">submitted</tspan></text>
<rect x="102.2" y="45.2" class="st6" width="69" height="51"/>
<text transform="matrix(1 0 0 1 102.2 55.1888)" class="st7 st8">Listing</text>
<rect x="204.4" y="45.2" class="st6" width="78.4" height="51"/>
<text transform="matrix(1 0 0 1 204.4 55.1888)"><tspan x="0" y="0" class="st9 st8">Awaiting</tspan><tspan x="0" y="16.8" class="st9 st8">respondent</tspan><tspan x="0" y="33.6" class="st9 st8">evidence</tspan></text>
<rect x="306.6" y="45.2" class="st6" width="69" height="51"/>
<text transform="matrix(1 0 0 1 306.6 55.1888)"><tspan x="0" y="0" class="st7 st8">Case building</tspan><tspan x="0" y="16.8" class="st7 st8">and submit</tspan><tspan x="0" y="33.6" class="st7 st8">hearing</tspan><tspan x="0" y="50.4" class="st7 st8">requirements</tspan></text>
<rect x="408.8" y="45.2" class="st6" width="69" height="51"/>
<text transform="matrix(1 0 0 1 408.8 55.1888)"><tspan x="0" y="0" class="st7 st8">Case</tspan><tspan x="0" y="16.8" class="st7 st8">under</tspan><tspan x="0" y="33.6" class="st7 st8">review</tspan></text>
<rect x="511" y="45.2" class="st6" width="76.1" height="51"/>
<text transform="matrix(1 0 0 1 511 55.1888)"><tspan x="0" y="0" class="st7 st8">Respondent</tspan><tspan x="0" y="16.8" class="st7 st8">review</tspan></text>
<rect x="613.2" y="45.2" class="st6" width="89" height="51"/>
<text transform="matrix(1 0 0 1 613.2 55.1888)"><tspan x="0" y="0" class="st7 st8">Prepare</tspan><tspan x="0" y="16.8" class="st7 st8">for hearing</tspan></text>
<rect x="715.4" y="45.2" class="st6" width="69" height="51"/>
<text transform="matrix(1 0 0 1 715.4 55.1888)"><tspan x="0" y="0" class="st7 st8">Final</tspan><tspan x="0" y="16.8" class="st7 st8">bundling</tspan></text>
<rect x="817.6" y="45.2" class="st6" width="69" height="51"/>
<text transform="matrix(1 0 0 1 817.6 55.1888)"><tspan x="0" y="0" class="st7 st8">Pre</tspan><tspan x="0" y="16.8" class="st7 st8">hearing</tspan></text>
<rect x="919.8" y="45.2" class="st6" width="69" height="51"/>
<text transform="matrix(1 0 0 1 919.8 55.1888)" class="st7 st8">Decision</text>
</svg>
