<svg width="515" height="27" viewBox="0 0 515 27" fill="none" xmlns="http://www.w3.org/2000/svg">
<rect width="114" height="27" fill="#453F86"/>
<path d="M8.3916 5.69629H13.5405C14.3322 5.69629 15.0311 5.81071 15.6372 6.03955C16.2433 6.26839 16.7505 6.57454 17.1587 6.95801C17.5669 7.34147 17.8761 7.78369 18.0864 8.28467C18.2967 8.77946 18.4019 9.29899 18.4019 9.84326C18.4019 10.2824 18.3338 10.6999 18.1978 11.0957C18.0679 11.4854 17.8854 11.841 17.6504 12.1626C17.4215 12.478 17.1494 12.7533 16.834 12.9883C16.5186 13.2171 16.1784 13.3965 15.8135 13.5264L18.7266 19H15.6279L13.2158 14.2129H11.082V19H8.3916V5.69629ZM15.5908 9.93604C15.5908 9.67008 15.5413 9.42269 15.4424 9.19385C15.3496 8.96501 15.2043 8.76709 15.0063 8.6001C14.8146 8.43311 14.5734 8.30322 14.2827 8.21045C13.992 8.11768 13.6549 8.07129 13.2715 8.07129H11.082V11.8193H13.2715C13.6549 11.8193 13.992 11.7729 14.2827 11.6802C14.5734 11.5812 14.8146 11.4482 15.0063 11.2812C15.2043 11.1081 15.3496 10.9071 15.4424 10.6782C15.5413 10.4494 15.5908 10.202 15.5908 9.93604ZM22.085 14.918C22.1283 15.2148 22.221 15.487 22.3633 15.7344C22.5117 15.9818 22.6973 16.1951 22.9199 16.3745C23.1426 16.5477 23.3993 16.6838 23.6899 16.7827C23.9806 16.8817 24.2899 16.9312 24.6177 16.9312C24.995 16.9312 25.4032 16.86 25.8423 16.7178C26.2814 16.5693 26.6834 16.356 27.0483 16.0776L28.2822 17.8774C27.8184 18.2671 27.2493 18.5825 26.5752 18.8237C25.901 19.0649 25.1836 19.1855 24.4229 19.1855C23.7363 19.1855 23.09 19.068 22.4839 18.833C21.8778 18.598 21.3459 18.2578 20.8882 17.8125C20.4367 17.3672 20.078 16.826 19.812 16.189C19.5522 15.5519 19.4224 14.8345 19.4224 14.0366C19.4224 13.3068 19.5368 12.6265 19.7656 11.9956C20.0007 11.3647 20.3254 10.8174 20.7397 10.3535C21.1603 9.88965 21.6613 9.52783 22.2427 9.26807C22.8241 9.00212 23.4673 8.86914 24.1724 8.86914C24.828 8.86914 25.4372 8.98975 26 9.23096C26.5628 9.46598 27.0514 9.79997 27.4658 10.2329C27.8802 10.6597 28.2049 11.173 28.4399 11.7729C28.675 12.3729 28.7925 13.0347 28.7925 13.7583V14.918H22.085ZM24.1631 11.0957C23.6126 11.0957 23.1457 11.2812 22.7622 11.6523C22.3849 12.0173 22.1654 12.4595 22.1035 12.979H26.1113C26.099 12.4533 25.9072 12.008 25.5361 11.6431C25.165 11.2782 24.7074 11.0957 24.1631 11.0957ZM30.4253 5.69629H32.9858V9.91748C33.1219 9.78141 33.2734 9.65153 33.4404 9.52783C33.6136 9.39795 33.8022 9.28662 34.0063 9.19385C34.2104 9.09489 34.4362 9.01758 34.6836 8.96191C34.9372 8.90007 35.2155 8.86914 35.5186 8.86914C36.0566 8.86914 36.5391 8.95882 36.9658 9.13818C37.3926 9.31136 37.7513 9.55257 38.042 9.86182C38.3389 10.1711 38.5646 10.5329 38.7192 10.9473C38.8739 11.3617 38.9512 11.8101 38.9512 12.2925V19H36.3906V13.2202C36.3906 12.8677 36.3504 12.5708 36.27 12.3296C36.1896 12.0822 36.0783 11.8843 35.936 11.7358C35.8 11.5812 35.6361 11.4699 35.4443 11.4019C35.2588 11.3276 35.0547 11.2905 34.832 11.2905C34.5723 11.2905 34.328 11.3369 34.0991 11.4297C33.8765 11.5225 33.6816 11.6647 33.5146 11.8564C33.3477 12.042 33.2178 12.277 33.125 12.5615C33.0322 12.846 32.9858 13.18 32.9858 13.5635V19H30.4253V5.69629ZM42.458 20.1597C42.7487 20.1597 42.9621 20.1071 43.0981 20.002C43.2404 19.8968 43.3517 19.7267 43.4321 19.4917L43.5249 19.1855L40.083 9.06396H42.9312L44.9072 15.9199L46.5493 9.06396H49.3604L46.0112 20.2339C45.8999 20.605 45.7453 20.9235 45.5474 21.1895C45.3494 21.4554 45.1144 21.6719 44.8423 21.8389C44.5701 22.012 44.2671 22.1388 43.9331 22.2192C43.6053 22.2996 43.2528 22.3398 42.8755 22.3398C42.7209 22.3398 42.5415 22.3337 42.3374 22.3213C42.1395 22.3089 41.9323 22.2904 41.7158 22.2656C41.5055 22.2471 41.2952 22.2223 41.085 22.1914C40.8809 22.1605 40.6922 22.1234 40.519 22.0801L41.0015 19.9834C41.1499 20.0205 41.3045 20.0514 41.4653 20.0762C41.6076 20.1009 41.7622 20.1195 41.9292 20.1318C42.1024 20.1504 42.2786 20.1597 42.458 20.1597ZM56.9585 19V18.1465C56.8224 18.2949 56.6709 18.4341 56.5039 18.564C56.3431 18.6877 56.1606 18.7959 55.9565 18.8887C55.7586 18.9814 55.5391 19.0526 55.2979 19.1021C55.0628 19.1577 54.8 19.1855 54.5093 19.1855C53.8537 19.1855 53.2537 19.0557 52.7095 18.7959C52.1652 18.5361 51.6982 18.1774 51.3086 17.7197C50.9189 17.262 50.6159 16.7178 50.3994 16.0869C50.1891 15.4561 50.084 14.7726 50.084 14.0366C50.084 13.3006 50.1891 12.6172 50.3994 11.9863C50.6097 11.3555 50.9035 10.8112 51.2808 10.3535C51.6642 9.88965 52.125 9.52783 52.6631 9.26807C53.2012 9.00212 53.798 8.86914 54.4536 8.86914C55.035 8.86914 55.5267 8.97119 55.9287 9.17529C56.3369 9.37321 56.6802 9.62061 56.9585 9.91748V5.69629H59.519V19H56.9585ZM57.0327 13.1089C57.0327 12.8429 56.9832 12.5955 56.8843 12.3667C56.7915 12.1379 56.6554 11.9399 56.4761 11.7729C56.2967 11.606 56.0802 11.4761 55.8267 11.3833C55.5793 11.2905 55.2979 11.2441 54.9824 11.2441C54.6175 11.2441 54.2928 11.3122 54.0083 11.4482C53.73 11.5843 53.495 11.776 53.3032 12.0234C53.1115 12.2646 52.9661 12.5522 52.8672 12.8862C52.7682 13.2202 52.7188 13.5851 52.7188 13.981V14.1016C52.7188 14.4974 52.7682 14.8623 52.8672 15.1963C52.9661 15.5241 53.1115 15.8086 53.3032 16.0498C53.495 16.291 53.73 16.4797 54.0083 16.6157C54.2928 16.7456 54.6175 16.8105 54.9824 16.8105C55.2979 16.8105 55.5793 16.7642 55.8267 16.6714C56.0802 16.5786 56.2967 16.4487 56.4761 16.2817C56.6554 16.1147 56.7915 15.9199 56.8843 15.6973C56.9832 15.4684 57.0327 15.221 57.0327 14.9551V13.1089ZM67.312 11.5503H67.043C66.6781 11.5503 66.3286 11.5874 65.9946 11.6616C65.6668 11.7358 65.3761 11.8719 65.1226 12.0698C64.869 12.2616 64.6649 12.5275 64.5103 12.8677C64.3618 13.2078 64.2876 13.6439 64.2876 14.1758V19H61.7271V9.06396H64.2876V10.1865C64.3927 10.0195 64.5288 9.85872 64.6958 9.7041C64.8628 9.54948 65.0576 9.41341 65.2803 9.2959C65.5029 9.1722 65.7534 9.07324 66.0317 8.99902C66.3101 8.9248 66.61 8.8877 66.9316 8.8877H67.312V11.5503ZM72.1177 14.9644C71.8022 15.0138 71.5487 15.1252 71.3569 15.2983C71.1652 15.4653 71.0693 15.6942 71.0693 15.9849C71.0693 16.3065 71.1868 16.5848 71.4219 16.8198C71.6569 17.0487 72.0033 17.1631 72.4609 17.1631C72.9434 17.1631 73.3237 17.0239 73.6021 16.7456C73.8804 16.4673 74.0195 16.0993 74.0195 15.6416V14.6396L72.1177 14.9644ZM74.437 18.063C74.3319 18.1805 74.202 18.3073 74.0474 18.4434C73.8989 18.5732 73.7196 18.6938 73.5093 18.8052C73.3052 18.9103 73.064 19 72.7856 19.0742C72.5073 19.1484 72.195 19.1855 71.8486 19.1855C71.3538 19.1855 70.8962 19.1082 70.4756 18.9536C70.0612 18.7928 69.6963 18.5701 69.3809 18.2856C69.0654 18.0011 68.818 17.6733 68.6387 17.3022C68.4593 16.925 68.3696 16.5168 68.3696 16.0776C68.3696 15.2798 68.617 14.6273 69.1118 14.1201C69.6066 13.613 70.29 13.2944 71.1621 13.1646L74.0195 12.7471V12.5615C74.0195 12.1162 73.8835 11.7637 73.6113 11.5039C73.3392 11.2441 72.897 11.1143 72.2847 11.1143C72.0311 11.1143 71.7744 11.1452 71.5146 11.207C71.2549 11.2627 71.0044 11.3276 70.7632 11.4019C70.5282 11.4761 70.3086 11.5627 70.1045 11.6616C69.9004 11.7544 69.721 11.8379 69.5664 11.9121L68.5645 9.95459C69.1335 9.63916 69.7643 9.37939 70.457 9.17529C71.1559 8.97119 71.8796 8.86914 72.6279 8.86914C73.0856 8.86914 73.5464 8.91862 74.0103 9.01758C74.4803 9.11035 74.904 9.28353 75.2812 9.53711C75.6647 9.79069 75.9771 10.137 76.2183 10.5762C76.4595 11.0091 76.5801 11.5627 76.5801 12.2368V16.3188C76.5801 16.6095 76.6543 16.826 76.8027 16.9683C76.9574 17.1043 77.1676 17.2311 77.4336 17.3486L76.2739 19.1855C75.8039 19.1361 75.4266 19.0155 75.1421 18.8237C74.8576 18.6258 74.6226 18.3722 74.437 18.063ZM81.998 16.0405C81.998 16.158 82.0135 16.2694 82.0444 16.3745C82.0754 16.4797 82.1279 16.5724 82.2021 16.6528C82.2826 16.7271 82.3939 16.7858 82.5361 16.8291C82.6784 16.8724 82.8608 16.894 83.0835 16.894C83.1763 16.894 83.2814 16.891 83.3989 16.8848C83.5164 16.8724 83.634 16.86 83.7515 16.8477C83.869 16.8353 83.9772 16.8198 84.0762 16.8013C84.1813 16.7827 84.2679 16.7673 84.3359 16.7549L84.5679 19.0186C84.3267 19.0495 84.0762 19.0773 83.8164 19.1021C83.5938 19.1268 83.3464 19.1453 83.0742 19.1577C82.8021 19.1763 82.5269 19.1855 82.2485 19.1855C81.3641 19.1855 80.6745 18.9845 80.1797 18.5825C79.6849 18.1805 79.4375 17.5404 79.4375 16.6621V11.2905H77.647V9.06396H79.4375V6.25293L81.998 5.56641V9.06396H84.605V11.2905H81.998V16.0405ZM88.3623 14.918C88.4056 15.2148 88.4984 15.487 88.6406 15.7344C88.7891 15.9818 88.9746 16.1951 89.1973 16.3745C89.4199 16.5477 89.6766 16.6838 89.9673 16.7827C90.258 16.8817 90.5672 16.9312 90.895 16.9312C91.2723 16.9312 91.6805 16.86 92.1196 16.7178C92.5588 16.5693 92.9608 16.356 93.3257 16.0776L94.5596 17.8774C94.0957 18.2671 93.5267 18.5825 92.8525 18.8237C92.1784 19.0649 91.4609 19.1855 90.7002 19.1855C90.0137 19.1855 89.3674 19.068 88.7612 18.833C88.1551 18.598 87.6232 18.2578 87.1655 17.8125C86.714 17.3672 86.3553 16.826 86.0894 16.189C85.8296 15.5519 85.6997 14.8345 85.6997 14.0366C85.6997 13.3068 85.8141 12.6265 86.043 11.9956C86.278 11.3647 86.6027 10.8174 87.0171 10.3535C87.4377 9.88965 87.9386 9.52783 88.52 9.26807C89.1014 9.00212 89.7446 8.86914 90.4497 8.86914C91.1053 8.86914 91.7145 8.98975 92.2773 9.23096C92.8402 9.46598 93.3288 9.79997 93.7432 10.2329C94.1576 10.6597 94.4823 11.173 94.7173 11.7729C94.9523 12.3729 95.0698 13.0347 95.0698 13.7583V14.918H88.3623ZM90.4404 11.0957C89.89 11.0957 89.423 11.2812 89.0396 11.6523C88.6623 12.0173 88.4427 12.4595 88.3809 12.979H92.3887C92.3763 12.4533 92.1846 12.008 91.8135 11.6431C91.4424 11.2782 90.9847 11.0957 90.4404 11.0957ZM103.085 19V18.1465C102.949 18.2949 102.798 18.4341 102.631 18.564C102.47 18.6877 102.288 18.7959 102.083 18.8887C101.886 18.9814 101.666 19.0526 101.425 19.1021C101.19 19.1577 100.927 19.1855 100.636 19.1855C99.9806 19.1855 99.3807 19.0557 98.8364 18.7959C98.2922 18.5361 97.8252 18.1774 97.4355 17.7197C97.0459 17.262 96.7428 16.7178 96.5264 16.0869C96.3161 15.4561 96.2109 14.7726 96.2109 14.0366C96.2109 13.3006 96.3161 12.6172 96.5264 11.9863C96.7367 11.3555 97.0304 10.8112 97.4077 10.3535C97.7912 9.88965 98.252 9.52783 98.79 9.26807C99.3281 9.00212 99.925 8.86914 100.581 8.86914C101.162 8.86914 101.654 8.97119 102.056 9.17529C102.464 9.37321 102.807 9.62061 103.085 9.91748V5.69629H105.646V19H103.085ZM103.16 13.1089C103.16 12.8429 103.11 12.5955 103.011 12.3667C102.918 12.1379 102.782 11.9399 102.603 11.7729C102.424 11.606 102.207 11.4761 101.954 11.3833C101.706 11.2905 101.425 11.2441 101.109 11.2441C100.744 11.2441 100.42 11.3122 100.135 11.4482C99.8569 11.5843 99.6219 11.776 99.4302 12.0234C99.2384 12.2646 99.0931 12.5522 98.9941 12.8862C98.8952 13.2202 98.8457 13.5851 98.8457 13.981V14.1016C98.8457 14.4974 98.8952 14.8623 98.9941 15.1963C99.0931 15.5241 99.2384 15.8086 99.4302 16.0498C99.6219 16.291 99.8569 16.4797 100.135 16.6157C100.42 16.7456 100.744 16.8105 101.109 16.8105C101.425 16.8105 101.706 16.7642 101.954 16.6714C102.207 16.5786 102.424 16.4487 102.603 16.2817C102.782 16.1147 102.918 15.9199 103.011 15.6973C103.11 15.4684 103.16 15.221 103.16 14.9551V13.1089Z" fill="white"/>
<rect width="256" height="27" transform="translate(124)" fill="#1D70B8"/>
<path d="M139.721 16.5322H134.794L134.043 19H131.186L135.537 5.69629H139.071L143.487 19H140.481L139.721 16.5322ZM135.518 14.1572H138.997L137.271 8.53516H137.234L135.518 14.1572ZM147.319 22.1357H144.758V9.06396H147.319V9.91748C147.597 9.62679 147.94 9.37939 148.349 9.17529C148.757 8.97119 149.252 8.86914 149.833 8.86914C150.489 8.86914 151.082 9.00212 151.614 9.26807C152.152 9.52783 152.613 9.88965 152.997 10.3535C153.38 10.8112 153.677 11.3555 153.887 11.9863C154.097 12.6172 154.203 13.3006 154.203 14.0366C154.203 14.7726 154.094 15.4561 153.878 16.0869C153.661 16.7178 153.358 17.262 152.969 17.7197C152.579 18.1774 152.112 18.5361 151.568 18.7959C151.024 19.0557 150.424 19.1855 149.768 19.1855C149.477 19.1855 149.211 19.1577 148.97 19.1021C148.735 19.0526 148.519 18.9814 148.321 18.8887C148.123 18.7959 147.94 18.6877 147.773 18.564C147.606 18.4341 147.455 18.2949 147.319 18.1465V22.1357ZM147.245 14.9551C147.245 15.221 147.291 15.4684 147.384 15.6973C147.483 15.9199 147.622 16.1147 147.801 16.2817C147.981 16.4487 148.194 16.5786 148.441 16.6714C148.695 16.7642 148.979 16.8105 149.295 16.8105C149.66 16.8105 149.981 16.7456 150.26 16.6157C150.544 16.4797 150.782 16.291 150.974 16.0498C151.166 15.8086 151.311 15.5241 151.41 15.1963C151.509 14.8623 151.559 14.4974 151.559 14.1016V13.981C151.559 13.5851 151.509 13.2202 151.41 12.8862C151.311 12.5522 151.166 12.2646 150.974 12.0234C150.782 11.776 150.544 11.5843 150.26 11.4482C149.981 11.3122 149.66 11.2441 149.295 11.2441C148.979 11.2441 148.695 11.2905 148.441 11.3833C148.194 11.4761 147.981 11.606 147.801 11.7729C147.622 11.9399 147.483 12.1379 147.384 12.3667C147.291 12.5955 147.245 12.8429 147.245 13.1089V14.9551ZM158.47 22.1357H155.91V9.06396H158.47V9.91748C158.749 9.62679 159.092 9.37939 159.5 9.17529C159.908 8.97119 160.403 8.86914 160.984 8.86914C161.64 8.86914 162.234 9.00212 162.766 9.26807C163.304 9.52783 163.764 9.88965 164.148 10.3535C164.531 10.8112 164.828 11.3555 165.039 11.9863C165.249 12.6172 165.354 13.3006 165.354 14.0366C165.354 14.7726 165.246 15.4561 165.029 16.0869C164.813 16.7178 164.51 17.262 164.12 17.7197C163.73 18.1774 163.264 18.5361 162.719 18.7959C162.175 19.0557 161.575 19.1855 160.919 19.1855C160.629 19.1855 160.363 19.1577 160.122 19.1021C159.887 19.0526 159.67 18.9814 159.472 18.8887C159.274 18.7959 159.092 18.6877 158.925 18.564C158.758 18.4341 158.606 18.2949 158.47 18.1465V22.1357ZM158.396 14.9551C158.396 15.221 158.442 15.4684 158.535 15.6973C158.634 15.9199 158.773 16.1147 158.953 16.2817C159.132 16.4487 159.345 16.5786 159.593 16.6714C159.846 16.7642 160.131 16.8105 160.446 16.8105C160.811 16.8105 161.133 16.7456 161.411 16.6157C161.696 16.4797 161.934 16.291 162.125 16.0498C162.317 15.8086 162.463 15.5241 162.562 15.1963C162.66 14.8623 162.71 14.4974 162.71 14.1016V13.981C162.71 13.5851 162.66 13.2202 162.562 12.8862C162.463 12.5522 162.317 12.2646 162.125 12.0234C161.934 11.776 161.696 11.5843 161.411 11.4482C161.133 11.3122 160.811 11.2441 160.446 11.2441C160.131 11.2441 159.846 11.2905 159.593 11.3833C159.345 11.4761 159.132 11.606 158.953 11.7729C158.773 11.9399 158.634 12.1379 158.535 12.3667C158.442 12.5955 158.396 12.8429 158.396 13.1089V14.9551ZM169.204 14.918C169.247 15.2148 169.34 15.487 169.482 15.7344C169.631 15.9818 169.816 16.1951 170.039 16.3745C170.262 16.5477 170.518 16.6838 170.809 16.7827C171.1 16.8817 171.409 16.9312 171.737 16.9312C172.114 16.9312 172.522 16.86 172.961 16.7178C173.401 16.5693 173.803 16.356 174.167 16.0776L175.401 17.8774C174.938 18.2671 174.368 18.5825 173.694 18.8237C173.02 19.0649 172.303 19.1855 171.542 19.1855C170.855 19.1855 170.209 19.068 169.603 18.833C168.997 18.598 168.465 18.2578 168.007 17.8125C167.556 17.3672 167.197 16.826 166.931 16.189C166.671 15.5519 166.542 14.8345 166.542 14.0366C166.542 13.3068 166.656 12.6265 166.885 11.9956C167.12 11.3647 167.444 10.8174 167.859 10.3535C168.279 9.88965 168.78 9.52783 169.362 9.26807C169.943 9.00212 170.586 8.86914 171.292 8.86914C171.947 8.86914 172.556 8.98975 173.119 9.23096C173.682 9.46598 174.171 9.79997 174.585 10.2329C174.999 10.6597 175.324 11.173 175.559 11.7729C175.794 12.3729 175.912 13.0347 175.912 13.7583V14.918H169.204ZM171.282 11.0957C170.732 11.0957 170.265 11.2812 169.881 11.6523C169.504 12.0173 169.285 12.4595 169.223 12.979H173.23C173.218 12.4533 173.026 12.008 172.655 11.6431C172.284 11.2782 171.826 11.0957 171.282 11.0957ZM177.507 5.69629H180.068V16.3003C180.068 16.5106 180.127 16.6714 180.244 16.7827C180.368 16.894 180.563 16.9497 180.829 16.9497C180.952 16.9497 181.057 16.9435 181.144 16.9312C181.237 16.9126 181.354 16.8879 181.497 16.8569L181.701 19.0371C181.528 19.0618 181.342 19.0866 181.144 19.1113C180.977 19.1299 180.782 19.1453 180.56 19.1577C180.343 19.1763 180.117 19.1855 179.882 19.1855C179.517 19.1855 179.19 19.1392 178.899 19.0464C178.608 18.9536 178.358 18.8175 178.147 18.6382C177.943 18.4526 177.786 18.2238 177.674 17.9517C177.563 17.6795 177.507 17.3641 177.507 17.0054V5.69629ZM183.074 5.69629H185.634V16.3003C185.634 16.5106 185.693 16.6714 185.811 16.7827C185.934 16.894 186.129 16.9497 186.395 16.9497C186.519 16.9497 186.624 16.9435 186.71 16.9312C186.803 16.9126 186.921 16.8879 187.063 16.8569L187.267 19.0371C187.094 19.0618 186.908 19.0866 186.71 19.1113C186.543 19.1299 186.349 19.1453 186.126 19.1577C185.91 19.1763 185.684 19.1855 185.449 19.1855C185.084 19.1855 184.756 19.1392 184.465 19.0464C184.175 18.9536 183.924 18.8175 183.714 18.6382C183.51 18.4526 183.352 18.2238 183.241 17.9517C183.129 17.6795 183.074 17.3641 183.074 17.0054V5.69629ZM191.887 14.9644C191.572 15.0138 191.318 15.1252 191.126 15.2983C190.935 15.4653 190.839 15.6942 190.839 15.9849C190.839 16.3065 190.956 16.5848 191.191 16.8198C191.426 17.0487 191.773 17.1631 192.23 17.1631C192.713 17.1631 193.093 17.0239 193.372 16.7456C193.65 16.4673 193.789 16.0993 193.789 15.6416V14.6396L191.887 14.9644ZM194.207 18.063C194.101 18.1805 193.972 18.3073 193.817 18.4434C193.668 18.5732 193.489 18.6938 193.279 18.8052C193.075 18.9103 192.833 19 192.555 19.0742C192.277 19.1484 191.965 19.1855 191.618 19.1855C191.123 19.1855 190.666 19.1082 190.245 18.9536C189.831 18.7928 189.466 18.5701 189.15 18.2856C188.835 18.0011 188.588 17.6733 188.408 17.3022C188.229 16.925 188.139 16.5168 188.139 16.0776C188.139 15.2798 188.387 14.6273 188.881 14.1201C189.376 13.613 190.06 13.2944 190.932 13.1646L193.789 12.7471V12.5615C193.789 12.1162 193.653 11.7637 193.381 11.5039C193.109 11.2441 192.667 11.1143 192.054 11.1143C191.801 11.1143 191.544 11.1452 191.284 11.207C191.024 11.2627 190.774 11.3276 190.533 11.4019C190.298 11.4761 190.078 11.5627 189.874 11.6616C189.67 11.7544 189.491 11.8379 189.336 11.9121L188.334 9.95459C188.903 9.63916 189.534 9.37939 190.227 9.17529C190.925 8.97119 191.649 8.86914 192.397 8.86914C192.855 8.86914 193.316 8.91862 193.78 9.01758C194.25 9.11035 194.674 9.28353 195.051 9.53711C195.434 9.79069 195.747 10.137 195.988 10.5762C196.229 11.0091 196.35 11.5627 196.35 12.2368V16.3188C196.35 16.6095 196.424 16.826 196.572 16.9683C196.727 17.1043 196.937 17.2311 197.203 17.3486L196.043 19.1855C195.573 19.1361 195.196 19.0155 194.912 18.8237C194.627 18.6258 194.392 18.3722 194.207 18.063ZM198.493 9.06396H201.053V9.91748C201.189 9.78141 201.341 9.65153 201.508 9.52783C201.681 9.39795 201.87 9.28662 202.074 9.19385C202.278 9.09489 202.504 9.01758 202.751 8.96191C203.005 8.90007 203.283 8.86914 203.586 8.86914C204.124 8.86914 204.606 8.95882 205.033 9.13818C205.46 9.31136 205.819 9.55257 206.109 9.86182C206.406 10.1711 206.632 10.5329 206.787 10.9473C206.941 11.3617 207.019 11.8101 207.019 12.2925V19H204.458V13.2202C204.458 12.8677 204.418 12.5708 204.337 12.3296C204.257 12.0822 204.146 11.8843 204.003 11.7358C203.867 11.5812 203.703 11.4699 203.512 11.4019C203.326 11.3276 203.122 11.2905 202.899 11.2905C202.64 11.2905 202.395 11.3369 202.167 11.4297C201.944 11.5225 201.749 11.6647 201.582 11.8564C201.415 12.042 201.285 12.277 201.192 12.5615C201.1 12.846 201.053 13.18 201.053 13.5635V19H198.493V9.06396ZM212.826 16.0405C212.826 16.158 212.842 16.2694 212.873 16.3745C212.903 16.4797 212.956 16.5724 213.03 16.6528C213.111 16.7271 213.222 16.7858 213.364 16.8291C213.507 16.8724 213.689 16.894 213.912 16.894C214.004 16.894 214.11 16.891 214.227 16.8848C214.345 16.8724 214.462 16.86 214.58 16.8477C214.697 16.8353 214.805 16.8198 214.904 16.8013C215.009 16.7827 215.096 16.7673 215.164 16.7549L215.396 19.0186C215.155 19.0495 214.904 19.0773 214.645 19.1021C214.422 19.1268 214.174 19.1453 213.902 19.1577C213.63 19.1763 213.355 19.1855 213.077 19.1855C212.192 19.1855 211.503 18.9845 211.008 18.5825C210.513 18.1805 210.266 17.5404 210.266 16.6621V11.2905H208.475V9.06396H210.266V6.25293L212.826 5.56641V9.06396H215.433V11.2905H212.826V16.0405ZM223.041 19H220.48V9.06396H223.041V19ZM220.211 6.45703C220.211 6.24674 220.251 6.04883 220.332 5.86328C220.412 5.67155 220.52 5.50765 220.656 5.37158C220.799 5.22933 220.962 5.118 221.148 5.0376C221.333 4.95719 221.535 4.91699 221.751 4.91699C221.961 4.91699 222.159 4.95719 222.345 5.0376C222.536 5.118 222.7 5.22933 222.836 5.37158C222.979 5.50765 223.09 5.67155 223.17 5.86328C223.251 6.04883 223.291 6.24674 223.291 6.45703C223.291 6.6735 223.251 6.87451 223.17 7.06006C223.09 7.24561 222.979 7.40951 222.836 7.55176C222.7 7.68783 222.536 7.79606 222.345 7.87646C222.159 7.95687 221.961 7.99707 221.751 7.99707C221.535 7.99707 221.333 7.95687 221.148 7.87646C220.962 7.79606 220.799 7.68783 220.656 7.55176C220.52 7.40951 220.412 7.24561 220.332 7.06006C220.251 6.87451 220.211 6.6735 220.211 6.45703ZM225.249 9.06396H227.809V9.91748C227.945 9.78141 228.097 9.65153 228.264 9.52783C228.437 9.39795 228.625 9.28662 228.83 9.19385C229.034 9.09489 229.259 9.01758 229.507 8.96191C229.76 8.90007 230.039 8.86914 230.342 8.86914C230.88 8.86914 231.362 8.95882 231.789 9.13818C232.216 9.31136 232.575 9.55257 232.865 9.86182C233.162 10.1711 233.388 10.5329 233.542 10.9473C233.697 11.3617 233.774 11.8101 233.774 12.2925V19H231.214V13.2202C231.214 12.8677 231.174 12.5708 231.093 12.3296C231.013 12.0822 230.902 11.8843 230.759 11.7358C230.623 11.5812 230.459 11.4699 230.268 11.4019C230.082 11.3276 229.878 11.2905 229.655 11.2905C229.396 11.2905 229.151 11.3369 228.922 11.4297C228.7 11.5225 228.505 11.6647 228.338 11.8564C228.171 12.042 228.041 12.277 227.948 12.5615C227.855 12.846 227.809 13.18 227.809 13.5635V19H225.249V9.06396ZM241.911 22.1357H239.35V9.06396H241.911V9.91748C242.189 9.62679 242.532 9.37939 242.94 9.17529C243.349 8.97119 243.843 8.86914 244.425 8.86914C245.08 8.86914 245.674 9.00212 246.206 9.26807C246.744 9.52783 247.205 9.88965 247.588 10.3535C247.972 10.8112 248.269 11.3555 248.479 11.9863C248.689 12.6172 248.794 13.3006 248.794 14.0366C248.794 14.7726 248.686 15.4561 248.47 16.0869C248.253 16.7178 247.95 17.262 247.561 17.7197C247.171 18.1774 246.704 18.5361 246.16 18.7959C245.615 19.0557 245.015 19.1855 244.36 19.1855C244.069 19.1855 243.803 19.1577 243.562 19.1021C243.327 19.0526 243.111 18.9814 242.913 18.8887C242.715 18.7959 242.532 18.6877 242.365 18.564C242.198 18.4341 242.047 18.2949 241.911 18.1465V22.1357ZM241.836 14.9551C241.836 15.221 241.883 15.4684 241.976 15.6973C242.075 15.9199 242.214 16.1147 242.393 16.2817C242.572 16.4487 242.786 16.5786 243.033 16.6714C243.287 16.7642 243.571 16.8105 243.887 16.8105C244.252 16.8105 244.573 16.7456 244.852 16.6157C245.136 16.4797 245.374 16.291 245.566 16.0498C245.758 15.8086 245.903 15.5241 246.002 15.1963C246.101 14.8623 246.15 14.4974 246.15 14.1016V13.981C246.15 13.5851 246.101 13.2202 246.002 12.8862C245.903 12.5522 245.758 12.2646 245.566 12.0234C245.374 11.776 245.136 11.5843 244.852 11.4482C244.573 11.3122 244.252 11.2441 243.887 11.2441C243.571 11.2441 243.287 11.2905 243.033 11.3833C242.786 11.4761 242.572 11.606 242.393 11.7729C242.214 11.9399 242.075 12.1379 241.976 12.3667C241.883 12.5955 241.836 12.8429 241.836 13.1089V14.9551ZM252.645 14.918C252.688 15.2148 252.781 15.487 252.923 15.7344C253.071 15.9818 253.257 16.1951 253.479 16.3745C253.702 16.5477 253.959 16.6838 254.25 16.7827C254.54 16.8817 254.849 16.9312 255.177 16.9312C255.555 16.9312 255.963 16.86 256.402 16.7178C256.841 16.5693 257.243 16.356 257.608 16.0776L258.842 17.8774C258.378 18.2671 257.809 18.5825 257.135 18.8237C256.461 19.0649 255.743 19.1855 254.982 19.1855C254.296 19.1855 253.65 19.068 253.043 18.833C252.437 18.598 251.905 18.2578 251.448 17.8125C250.996 17.3672 250.638 16.826 250.372 16.189C250.112 15.5519 249.982 14.8345 249.982 14.0366C249.982 13.3068 250.096 12.6265 250.325 11.9956C250.56 11.3647 250.885 10.8174 251.299 10.3535C251.72 9.88965 252.221 9.52783 252.802 9.26807C253.384 9.00212 254.027 8.86914 254.732 8.86914C255.388 8.86914 255.997 8.98975 256.56 9.23096C257.122 9.46598 257.611 9.79997 258.025 10.2329C258.44 10.6597 258.764 11.173 259 11.7729C259.235 12.3729 259.352 13.0347 259.352 13.7583V14.918H252.645ZM254.723 11.0957C254.172 11.0957 253.705 11.2812 253.322 11.6523C252.944 12.0173 252.725 12.4595 252.663 12.979H256.671C256.659 12.4533 256.467 12.008 256.096 11.6431C255.725 11.2782 255.267 11.0957 254.723 11.0957ZM266.57 11.5503H266.301C265.936 11.5503 265.586 11.5874 265.252 11.6616C264.925 11.7358 264.634 11.8719 264.38 12.0698C264.127 12.2616 263.923 12.5275 263.768 12.8677C263.62 13.2078 263.545 13.6439 263.545 14.1758V19H260.985V9.06396H263.545V10.1865C263.651 10.0195 263.787 9.85872 263.954 9.7041C264.121 9.54948 264.315 9.41341 264.538 9.2959C264.761 9.1722 265.011 9.07324 265.29 8.99902C265.568 8.9248 265.868 8.8877 266.189 8.8877H266.57V11.5503ZM268.871 15.8271C269.236 16.1549 269.672 16.4364 270.179 16.6714C270.686 16.9064 271.199 17.0239 271.719 17.0239C272.096 17.0239 272.393 16.9528 272.609 16.8105C272.826 16.6621 272.934 16.4735 272.934 16.2446C272.934 15.855 272.517 15.5519 271.682 15.3354L270.958 15.1406C270.599 15.054 270.237 14.9365 269.873 14.7881C269.508 14.6335 269.171 14.4325 268.861 14.1851C268.558 13.9377 268.311 13.6377 268.119 13.2852C267.934 12.9264 267.841 12.4873 267.841 11.9678C267.841 11.5534 267.931 11.1606 268.11 10.7896C268.295 10.4123 268.555 10.0814 268.889 9.79688C269.229 9.51237 269.641 9.28662 270.123 9.11963C270.605 8.95264 271.144 8.86914 271.737 8.86914C272.585 8.86914 273.339 9.00212 274.001 9.26807C274.669 9.53402 275.195 9.83398 275.578 10.168L274.242 11.875C273.927 11.6462 273.553 11.4513 273.12 11.2905C272.693 11.1235 272.263 11.04 271.83 11.04C271.428 11.04 271.116 11.1143 270.893 11.2627C270.67 11.4049 270.559 11.5781 270.559 11.7822C270.559 11.9987 270.655 12.175 270.847 12.311C271.045 12.4409 271.329 12.5553 271.7 12.6543L272.776 12.9604C273.803 13.2511 274.539 13.6439 274.984 14.1387C275.43 14.6335 275.652 15.2581 275.652 16.0127C275.652 16.4333 275.566 16.8353 275.393 17.2188C275.219 17.596 274.966 17.9331 274.632 18.23C274.298 18.5269 273.883 18.7619 273.389 18.9351C272.894 19.1021 272.331 19.1855 271.7 19.1855C271.218 19.1855 270.763 19.1423 270.336 19.0557C269.916 18.9691 269.523 18.8516 269.158 18.7031C268.799 18.5485 268.475 18.3753 268.184 18.1836C267.893 17.9919 267.646 17.8001 267.442 17.6084L268.871 15.8271ZM281.683 8.86914C282.419 8.86914 283.087 9.00212 283.687 9.26807C284.286 9.52783 284.8 9.88965 285.227 10.3535C285.653 10.8174 285.981 11.3647 286.21 11.9956C286.445 12.6265 286.562 13.3068 286.562 14.0366C286.562 14.7726 286.445 15.4561 286.21 16.0869C285.975 16.7116 285.644 17.2528 285.217 17.7104C284.791 18.1681 284.277 18.5299 283.677 18.7959C283.077 19.0557 282.412 19.1855 281.683 19.1855C280.947 19.1855 280.279 19.0557 279.679 18.7959C279.079 18.5299 278.565 18.1681 278.139 17.7104C277.712 17.2528 277.381 16.7116 277.146 16.0869C276.911 15.4561 276.793 14.7726 276.793 14.0366C276.793 13.3068 276.908 12.6265 277.137 11.9956C277.372 11.3647 277.703 10.8174 278.129 10.3535C278.556 9.88965 279.069 9.52783 279.669 9.26807C280.276 9.00212 280.947 8.86914 281.683 8.86914ZM281.683 16.8105C282.048 16.8105 282.369 16.7425 282.647 16.6064C282.932 16.4704 283.17 16.2817 283.362 16.0405C283.554 15.7993 283.699 15.5117 283.798 15.1777C283.897 14.8376 283.946 14.4665 283.946 14.0645V13.9995C283.946 13.5975 283.897 13.2295 283.798 12.8955C283.699 12.5553 283.554 12.2646 283.362 12.0234C283.17 11.776 282.932 11.5843 282.647 11.4482C282.369 11.3122 282.048 11.2441 281.683 11.2441C281.318 11.2441 280.993 11.3122 280.708 11.4482C280.43 11.5843 280.195 11.776 280.003 12.0234C279.812 12.2646 279.666 12.5553 279.567 12.8955C279.468 13.2295 279.419 13.5975 279.419 13.9995V14.0645C279.419 14.4665 279.468 14.8376 279.567 15.1777C279.666 15.5117 279.812 15.7993 280.003 16.0405C280.195 16.2817 280.43 16.4704 280.708 16.6064C280.993 16.7425 281.318 16.8105 281.683 16.8105ZM288.26 9.06396H290.821V9.91748C290.957 9.78141 291.108 9.65153 291.275 9.52783C291.449 9.39795 291.637 9.28662 291.841 9.19385C292.045 9.09489 292.271 9.01758 292.519 8.96191C292.772 8.90007 293.05 8.86914 293.354 8.86914C293.892 8.86914 294.374 8.95882 294.801 9.13818C295.228 9.31136 295.586 9.55257 295.877 9.86182C296.174 10.1711 296.4 10.5329 296.554 10.9473C296.709 11.3617 296.786 11.8101 296.786 12.2925V19H294.226V13.2202C294.226 12.8677 294.185 12.5708 294.105 12.3296C294.025 12.0822 293.913 11.8843 293.771 11.7358C293.635 11.5812 293.471 11.4699 293.279 11.4019C293.094 11.3276 292.89 11.2905 292.667 11.2905C292.407 11.2905 292.163 11.3369 291.934 11.4297C291.711 11.5225 291.517 11.6647 291.35 11.8564C291.183 12.042 291.053 12.277 290.96 12.5615C290.867 12.846 290.821 13.18 290.821 13.5635V19H288.26V9.06396ZM301.638 11.9121H305.627V14.2129H301.638V11.9121ZM318.922 19H316.352V13.2202C316.352 12.8677 316.312 12.5708 316.231 12.3296C316.157 12.0822 316.052 11.8843 315.916 11.7358C315.78 11.5812 315.622 11.473 315.443 11.4111C315.264 11.3431 315.069 11.3091 314.858 11.3091C314.611 11.3091 314.379 11.3524 314.163 11.439C313.952 11.5256 313.767 11.6616 313.606 11.8472C313.451 12.0327 313.328 12.2708 313.235 12.5615C313.148 12.846 313.105 13.1862 313.105 13.582V19H310.544V9.06396H313.105V9.93604C313.433 9.57113 313.813 9.30208 314.246 9.12891C314.685 8.95573 315.155 8.86914 315.656 8.86914C316.17 8.86914 316.649 8.97428 317.094 9.18457C317.546 9.39486 317.92 9.74121 318.217 10.2236C318.39 9.97624 318.588 9.76595 318.811 9.59277C319.039 9.4196 319.284 9.28044 319.543 9.17529C319.803 9.07015 320.072 8.99284 320.351 8.94336C320.635 8.89388 320.926 8.86914 321.223 8.86914C321.779 8.86914 322.274 8.96191 322.707 9.14746C323.146 9.32682 323.517 9.57113 323.82 9.88037C324.123 10.1896 324.355 10.5452 324.516 10.9473C324.677 11.3493 324.757 11.7729 324.757 12.2183V19H322.169V13.2202C322.169 12.8677 322.129 12.5708 322.048 12.3296C321.974 12.0822 321.869 11.8843 321.733 11.7358C321.597 11.5812 321.436 11.473 321.25 11.4111C321.071 11.3431 320.876 11.3091 320.666 11.3091C320.419 11.3091 320.19 11.3524 319.979 11.439C319.769 11.5256 319.584 11.6616 319.423 11.8472C319.268 12.0327 319.145 12.2708 319.052 12.5615C318.965 12.846 318.922 13.1862 318.922 13.582V19ZM330.101 14.9644C329.786 15.0138 329.532 15.1252 329.34 15.2983C329.149 15.4653 329.053 15.6942 329.053 15.9849C329.053 16.3065 329.17 16.5848 329.405 16.8198C329.64 17.0487 329.987 17.1631 330.444 17.1631C330.927 17.1631 331.307 17.0239 331.585 16.7456C331.864 16.4673 332.003 16.0993 332.003 15.6416V14.6396L330.101 14.9644ZM332.42 18.063C332.315 18.1805 332.185 18.3073 332.031 18.4434C331.882 18.5732 331.703 18.6938 331.493 18.8052C331.289 18.9103 331.047 19 330.769 19.0742C330.491 19.1484 330.178 19.1855 329.832 19.1855C329.337 19.1855 328.88 19.1082 328.459 18.9536C328.045 18.7928 327.68 18.5701 327.364 18.2856C327.049 18.0011 326.801 17.6733 326.622 17.3022C326.443 16.925 326.353 16.5168 326.353 16.0776C326.353 15.2798 326.6 14.6273 327.095 14.1201C327.59 13.613 328.273 13.2944 329.146 13.1646L332.003 12.7471V12.5615C332.003 12.1162 331.867 11.7637 331.595 11.5039C331.323 11.2441 330.88 11.1143 330.268 11.1143C330.014 11.1143 329.758 11.1452 329.498 11.207C329.238 11.2627 328.988 11.3276 328.747 11.4019C328.512 11.4761 328.292 11.5627 328.088 11.6616C327.884 11.7544 327.704 11.8379 327.55 11.9121L326.548 9.95459C327.117 9.63916 327.748 9.37939 328.44 9.17529C329.139 8.97119 329.863 8.86914 330.611 8.86914C331.069 8.86914 331.53 8.91862 331.994 9.01758C332.464 9.11035 332.887 9.28353 333.265 9.53711C333.648 9.79069 333.96 10.137 334.202 10.5762C334.443 11.0091 334.563 11.5627 334.563 12.2368V16.3188C334.563 16.6095 334.638 16.826 334.786 16.9683C334.941 17.1043 335.151 17.2311 335.417 17.3486L334.257 19.1855C333.787 19.1361 333.41 19.0155 333.125 18.8237C332.841 18.6258 332.606 18.3722 332.42 18.063ZM336.707 9.06396H339.267V9.91748C339.403 9.78141 339.555 9.65153 339.722 9.52783C339.895 9.39795 340.083 9.28662 340.288 9.19385C340.492 9.09489 340.717 9.01758 340.965 8.96191C341.218 8.90007 341.497 8.86914 341.8 8.86914C342.338 8.86914 342.82 8.95882 343.247 9.13818C343.674 9.31136 344.033 9.55257 344.323 9.86182C344.62 10.1711 344.846 10.5329 345 10.9473C345.155 11.3617 345.232 11.8101 345.232 12.2925V19H342.672V13.2202C342.672 12.8677 342.632 12.5708 342.551 12.3296C342.471 12.0822 342.36 11.8843 342.217 11.7358C342.081 11.5812 341.917 11.4699 341.726 11.4019C341.54 11.3276 341.336 11.2905 341.113 11.2905C340.854 11.2905 340.609 11.3369 340.38 11.4297C340.158 11.5225 339.963 11.6647 339.796 11.8564C339.629 12.042 339.499 12.277 339.406 12.5615C339.313 12.846 339.267 13.18 339.267 13.5635V19H336.707V9.06396ZM355.827 19H353.267V18.1465C353.124 18.2826 352.97 18.4155 352.803 18.5454C352.636 18.6691 352.45 18.7804 352.246 18.8794C352.042 18.9722 351.813 19.0464 351.56 19.1021C351.312 19.1577 351.037 19.1855 350.734 19.1855C350.196 19.1855 349.713 19.099 349.287 18.9258C348.86 18.7464 348.498 18.5052 348.201 18.2021C347.91 17.8929 347.688 17.5311 347.533 17.1167C347.379 16.7023 347.301 16.2539 347.301 15.7715V9.06396H349.862V14.8345C349.862 15.187 349.899 15.487 349.973 15.7344C350.054 15.9818 350.162 16.1828 350.298 16.3374C350.44 16.4858 350.607 16.5972 350.799 16.6714C350.991 16.7394 351.198 16.7734 351.42 16.7734C351.68 16.7734 351.921 16.7271 352.144 16.6343C352.373 16.5415 352.571 16.4023 352.738 16.2168C352.905 16.0251 353.035 15.7869 353.127 15.5024C353.22 15.2179 353.267 14.884 353.267 14.5005V9.06396H355.827V19ZM361.254 14.9644C360.939 15.0138 360.685 15.1252 360.494 15.2983C360.302 15.4653 360.206 15.6942 360.206 15.9849C360.206 16.3065 360.324 16.5848 360.559 16.8198C360.794 17.0487 361.14 17.1631 361.598 17.1631C362.08 17.1631 362.46 17.0239 362.739 16.7456C363.017 16.4673 363.156 16.0993 363.156 15.6416V14.6396L361.254 14.9644ZM363.574 18.063C363.469 18.1805 363.339 18.3073 363.184 18.4434C363.036 18.5732 362.856 18.6938 362.646 18.8052C362.442 18.9103 362.201 19 361.922 19.0742C361.644 19.1484 361.332 19.1855 360.985 19.1855C360.491 19.1855 360.033 19.1082 359.612 18.9536C359.198 18.7928 358.833 18.5701 358.518 18.2856C358.202 18.0011 357.955 17.6733 357.775 17.3022C357.596 16.925 357.506 16.5168 357.506 16.0776C357.506 15.2798 357.754 14.6273 358.249 14.1201C358.743 13.613 359.427 13.2944 360.299 13.1646L363.156 12.7471V12.5615C363.156 12.1162 363.02 11.7637 362.748 11.5039C362.476 11.2441 362.034 11.1143 361.421 11.1143C361.168 11.1143 360.911 11.1452 360.651 11.207C360.392 11.2627 360.141 11.3276 359.9 11.4019C359.665 11.4761 359.445 11.5627 359.241 11.6616C359.037 11.7544 358.858 11.8379 358.703 11.9121L357.701 9.95459C358.27 9.63916 358.901 9.37939 359.594 9.17529C360.293 8.97119 361.016 8.86914 361.765 8.86914C362.222 8.86914 362.683 8.91862 363.147 9.01758C363.617 9.11035 364.041 9.28353 364.418 9.53711C364.801 9.79069 365.114 10.137 365.355 10.5762C365.596 11.0091 365.717 11.5627 365.717 12.2368V16.3188C365.717 16.6095 365.791 16.826 365.939 16.9683C366.094 17.1043 366.304 17.2311 366.57 17.3486L365.411 19.1855C364.941 19.1361 364.563 19.0155 364.279 18.8237C363.994 18.6258 363.759 18.3722 363.574 18.063ZM367.823 5.69629H370.383V16.3003C370.383 16.5106 370.442 16.6714 370.56 16.7827C370.683 16.894 370.878 16.9497 371.144 16.9497C371.268 16.9497 371.373 16.9435 371.459 16.9312C371.552 16.9126 371.67 16.8879 371.812 16.8569L372.016 19.0371C371.843 19.0618 371.657 19.0866 371.459 19.1113C371.292 19.1299 371.098 19.1453 370.875 19.1577C370.659 19.1763 370.433 19.1855 370.198 19.1855C369.833 19.1855 369.505 19.1392 369.214 19.0464C368.924 18.9536 368.673 18.8175 368.463 18.6382C368.259 18.4526 368.101 18.2238 367.99 17.9517C367.878 17.6795 367.823 17.3641 367.823 17.0054V5.69629Z" fill="white"/>
<rect width="125" height="27" transform="translate(390)" fill="#EB3223"/>
<path d="M399.282 15.2612C399.455 15.4591 399.666 15.654 399.913 15.8457C400.16 16.0374 400.433 16.2106 400.729 16.3652C401.033 16.5137 401.36 16.6343 401.713 16.7271C402.065 16.8136 402.446 16.8569 402.854 16.8569C403.615 16.8569 404.196 16.6992 404.598 16.3838C405.006 16.0622 405.21 15.6725 405.21 15.2148C405.21 14.7386 405.031 14.3768 404.672 14.1294C404.32 13.882 403.757 13.6872 402.984 13.5449L402.566 13.4707C402.01 13.3717 401.456 13.2419 400.906 13.0811C400.355 12.9202 399.857 12.6883 399.412 12.3853C398.967 12.0822 398.605 11.6956 398.327 11.2256C398.048 10.7493 397.909 10.1494 397.909 9.42578C397.909 9.00521 398.002 8.56608 398.188 8.1084C398.373 7.64453 398.667 7.22087 399.069 6.8374C399.477 6.44775 400 6.12923 400.637 5.88184C401.28 5.63444 402.056 5.51074 402.965 5.51074C404.042 5.51074 405 5.6901 405.841 6.04883C406.689 6.40137 407.372 6.86833 407.892 7.44971L406.101 9.11963C405.736 8.71761 405.266 8.40218 404.691 8.17334C404.122 7.9445 403.534 7.83008 402.928 7.83008C402.229 7.83008 401.682 7.96305 401.286 8.229C400.896 8.49495 400.702 8.84131 400.702 9.26807C400.702 9.54639 400.764 9.77832 400.887 9.96387C401.017 10.1494 401.196 10.304 401.425 10.4277C401.654 10.5452 401.929 10.6442 402.251 10.7246C402.573 10.805 402.931 10.8854 403.327 10.9658L403.541 11.0029C404.072 11.1019 404.601 11.2287 405.127 11.3833C405.653 11.5317 406.129 11.7544 406.556 12.0513C406.989 12.342 407.338 12.7254 407.604 13.2017C407.87 13.6717 408.003 14.2747 408.003 15.0107C408.003 15.6787 407.864 16.2694 407.585 16.7827C407.307 17.2961 406.939 17.7352 406.481 18.1001C406.024 18.4588 405.495 18.731 404.895 18.9165C404.295 19.0959 403.67 19.1855 403.021 19.1855C402.365 19.1855 401.756 19.1299 401.193 19.0186C400.637 18.9072 400.13 18.7495 399.672 18.5454C399.22 18.3413 398.815 18.1125 398.457 17.8589C398.104 17.6053 397.795 17.3332 397.529 17.0425L399.282 15.2612ZM420.063 12.2183C420.063 12.8182 420.017 13.4058 419.924 13.981C419.832 14.5562 419.686 15.1035 419.488 15.623C419.297 16.1364 419.049 16.6126 418.746 17.0518C418.443 17.4847 418.078 17.8589 417.651 18.1743C417.225 18.4897 416.733 18.7371 416.176 18.9165C415.626 19.0959 415.004 19.1855 414.312 19.1855C413.743 19.1855 413.217 19.1175 412.734 18.9814C412.252 18.8392 411.816 18.6475 411.426 18.4062C411.037 18.165 410.7 17.8805 410.415 17.5527C410.131 17.2188 409.908 16.86 409.747 16.4766L412.233 15.5024C412.456 15.923 412.753 16.2415 413.124 16.458C413.501 16.6683 413.928 16.7734 414.404 16.7734C414.868 16.7734 415.276 16.6838 415.629 16.5044C415.981 16.3188 416.272 16.0684 416.501 15.7529C416.736 15.4375 416.912 15.0726 417.03 14.6582C417.147 14.2376 417.203 13.7923 417.197 13.3223C417.042 13.4769 416.86 13.6253 416.649 13.7676C416.439 13.9098 416.204 14.0366 415.944 14.1479C415.691 14.2531 415.412 14.3397 415.109 14.4077C414.812 14.4696 414.5 14.5005 414.172 14.5005C413.523 14.5005 412.917 14.3953 412.354 14.1851C411.797 13.9686 411.312 13.6717 410.897 13.2944C410.489 12.911 410.168 12.4564 409.933 11.9307C409.698 11.4049 409.58 10.8298 409.58 10.2051C409.58 9.53711 409.698 8.91553 409.933 8.34033C410.174 7.76514 410.511 7.27035 410.944 6.85596C411.383 6.43538 411.909 6.10758 412.521 5.87256C413.133 5.63135 413.817 5.51074 414.571 5.51074C415.4 5.51074 416.152 5.65918 416.826 5.95605C417.5 6.24674 418.075 6.66732 418.551 7.21777C419.034 7.76823 419.405 8.43929 419.665 9.23096C419.931 10.0226 420.063 10.9163 420.063 11.9121V12.2183ZM417.067 10.0474C417.067 9.73193 417.011 9.43815 416.9 9.16602C416.789 8.89388 416.628 8.65885 416.417 8.46094C416.213 8.25684 415.966 8.09912 415.675 7.98779C415.385 7.87028 415.063 7.81152 414.71 7.81152C414.346 7.81152 414.018 7.87028 413.727 7.98779C413.436 8.09912 413.189 8.25684 412.985 8.46094C412.781 8.65885 412.623 8.89388 412.512 9.16602C412.407 9.43815 412.354 9.73193 412.354 10.0474C412.354 10.3566 412.407 10.6473 412.512 10.9194C412.623 11.1916 412.781 11.4297 412.985 11.6338C413.189 11.8317 413.436 11.9894 413.727 12.1069C414.018 12.2183 414.346 12.2739 414.71 12.2739C415.063 12.2739 415.385 12.2183 415.675 12.1069C415.966 11.9894 416.213 11.8317 416.417 11.6338C416.628 11.4297 416.789 11.1916 416.9 10.9194C417.011 10.6473 417.067 10.3566 417.067 10.0474ZM427.894 19V15.9941H421.26V13.1274L427.151 5.69629H430.593V13.5635H432.532V15.9941H430.593V19H427.894ZM427.894 13.5635V8.34033L423.756 13.5635H427.894ZM440.362 5.69629C440.919 5.69629 441.435 5.77979 441.912 5.94678C442.388 6.10758 442.802 6.33952 443.155 6.64258C443.507 6.94564 443.783 7.31364 443.98 7.74658C444.178 8.17334 444.277 8.64958 444.277 9.17529C444.277 9.44743 444.237 9.71647 444.157 9.98242C444.083 10.2484 443.971 10.4989 443.823 10.7339C443.674 10.9627 443.495 11.173 443.285 11.3647C443.074 11.5565 442.836 11.7142 442.57 11.8379C442.787 11.9121 443.037 12.0234 443.322 12.1719C443.612 12.3203 443.888 12.5244 444.147 12.7842C444.407 13.0439 444.627 13.3656 444.806 13.749C444.986 14.1263 445.075 14.584 445.075 15.1221C445.075 15.7962 444.945 16.3776 444.686 16.8662C444.432 17.3548 444.086 17.7568 443.646 18.0723C443.214 18.3877 442.703 18.6227 442.116 18.7773C441.534 18.9258 440.919 19 440.27 19H434.443V5.69629H440.362ZM442.32 15.0293C442.32 14.6706 442.255 14.3768 442.125 14.1479C441.995 13.9191 441.822 13.7367 441.605 13.6006C441.395 13.4645 441.154 13.3717 440.882 13.3223C440.61 13.2666 440.331 13.2388 440.047 13.2388H437.134V16.8755H440.047C440.331 16.8755 440.61 16.8477 440.882 16.792C441.154 16.7363 441.395 16.6374 441.605 16.4951C441.822 16.3529 441.995 16.1642 442.125 15.9292C442.255 15.6942 442.32 15.3942 442.32 15.0293ZM441.568 9.44434C441.568 8.93717 441.408 8.54134 441.086 8.25684C440.764 7.97233 440.245 7.83008 439.527 7.83008H437.134V10.9658H439.527C440.232 10.9658 440.749 10.8328 441.077 10.5669C441.404 10.2948 441.568 9.92057 441.568 9.44434ZM453.453 14.9644C453.137 15.0138 452.884 15.1252 452.692 15.2983C452.5 15.4653 452.404 15.6942 452.404 15.9849C452.404 16.3065 452.522 16.5848 452.757 16.8198C452.992 17.0487 453.338 17.1631 453.796 17.1631C454.278 17.1631 454.659 17.0239 454.937 16.7456C455.215 16.4673 455.354 16.0993 455.354 15.6416V14.6396L453.453 14.9644ZM455.772 18.063C455.667 18.1805 455.537 18.3073 455.382 18.4434C455.234 18.5732 455.055 18.6938 454.844 18.8052C454.64 18.9103 454.399 19 454.121 19.0742C453.842 19.1484 453.53 19.1855 453.184 19.1855C452.689 19.1855 452.231 19.1082 451.811 18.9536C451.396 18.7928 451.031 18.5701 450.716 18.2856C450.4 18.0011 450.153 17.6733 449.974 17.3022C449.794 16.925 449.705 16.5168 449.705 16.0776C449.705 15.2798 449.952 14.6273 450.447 14.1201C450.942 13.613 451.625 13.2944 452.497 13.1646L455.354 12.7471V12.5615C455.354 12.1162 455.218 11.7637 454.946 11.5039C454.674 11.2441 454.232 11.1143 453.62 11.1143C453.366 11.1143 453.109 11.1452 452.85 11.207C452.59 11.2627 452.339 11.3276 452.098 11.4019C451.863 11.4761 451.644 11.5627 451.439 11.6616C451.235 11.7544 451.056 11.8379 450.901 11.9121L449.899 9.95459C450.468 9.63916 451.099 9.37939 451.792 9.17529C452.491 8.97119 453.215 8.86914 453.963 8.86914C454.421 8.86914 454.881 8.91862 455.345 9.01758C455.815 9.11035 456.239 9.28353 456.616 9.53711C457 9.79069 457.312 10.137 457.553 10.5762C457.794 11.0091 457.915 11.5627 457.915 12.2368V16.3188C457.915 16.6095 457.989 16.826 458.138 16.9683C458.292 17.1043 458.503 17.2311 458.769 17.3486L457.609 19.1855C457.139 19.1361 456.762 19.0155 456.477 18.8237C456.193 18.6258 455.958 18.3722 455.772 18.063ZM462.619 22.1357H460.058V9.06396H462.619V9.91748C462.897 9.62679 463.24 9.37939 463.648 9.17529C464.057 8.97119 464.551 8.86914 465.133 8.86914C465.788 8.86914 466.382 9.00212 466.914 9.26807C467.452 9.52783 467.913 9.88965 468.296 10.3535C468.68 10.8112 468.977 11.3555 469.187 11.9863C469.397 12.6172 469.502 13.3006 469.502 14.0366C469.502 14.7726 469.394 15.4561 469.178 16.0869C468.961 16.7178 468.658 17.262 468.269 17.7197C467.879 18.1774 467.412 18.5361 466.868 18.7959C466.323 19.0557 465.723 19.1855 465.068 19.1855C464.777 19.1855 464.511 19.1577 464.27 19.1021C464.035 19.0526 463.819 18.9814 463.621 18.8887C463.423 18.7959 463.24 18.6877 463.073 18.564C462.906 18.4341 462.755 18.2949 462.619 18.1465V22.1357ZM462.544 14.9551C462.544 15.221 462.591 15.4684 462.684 15.6973C462.783 15.9199 462.922 16.1147 463.101 16.2817C463.28 16.4487 463.494 16.5786 463.741 16.6714C463.995 16.7642 464.279 16.8105 464.595 16.8105C464.96 16.8105 465.281 16.7456 465.56 16.6157C465.844 16.4797 466.082 16.291 466.274 16.0498C466.466 15.8086 466.611 15.5241 466.71 15.1963C466.809 14.8623 466.858 14.4974 466.858 14.1016V13.981C466.858 13.5851 466.809 13.2202 466.71 12.8862C466.611 12.5522 466.466 12.2646 466.274 12.0234C466.082 11.776 465.844 11.5843 465.56 11.4482C465.281 11.3122 464.96 11.2441 464.595 11.2441C464.279 11.2441 463.995 11.2905 463.741 11.3833C463.494 11.4761 463.28 11.606 463.101 11.7729C462.922 11.9399 462.783 12.1379 462.684 12.3667C462.591 12.5955 462.544 12.8429 462.544 13.1089V14.9551ZM473.77 22.1357H471.209V9.06396H473.77V9.91748C474.048 9.62679 474.392 9.37939 474.8 9.17529C475.208 8.97119 475.703 8.86914 476.284 8.86914C476.94 8.86914 477.534 9.00212 478.065 9.26807C478.604 9.52783 479.064 9.88965 479.448 10.3535C479.831 10.8112 480.128 11.3555 480.338 11.9863C480.549 12.6172 480.654 13.3006 480.654 14.0366C480.654 14.7726 480.546 15.4561 480.329 16.0869C480.113 16.7178 479.81 17.262 479.42 17.7197C479.03 18.1774 478.563 18.5361 478.019 18.7959C477.475 19.0557 476.875 19.1855 476.219 19.1855C475.929 19.1855 475.663 19.1577 475.421 19.1021C475.186 19.0526 474.97 18.9814 474.772 18.8887C474.574 18.7959 474.392 18.6877 474.225 18.564C474.058 18.4341 473.906 18.2949 473.77 18.1465V22.1357ZM473.696 14.9551C473.696 15.221 473.742 15.4684 473.835 15.6973C473.934 15.9199 474.073 16.1147 474.252 16.2817C474.432 16.4487 474.645 16.5786 474.893 16.6714C475.146 16.7642 475.431 16.8105 475.746 16.8105C476.111 16.8105 476.433 16.7456 476.711 16.6157C476.995 16.4797 477.234 16.291 477.425 16.0498C477.617 15.8086 477.762 15.5241 477.861 15.1963C477.96 14.8623 478.01 14.4974 478.01 14.1016V13.981C478.01 13.5851 477.96 13.2202 477.861 12.8862C477.762 12.5522 477.617 12.2646 477.425 12.0234C477.234 11.776 476.995 11.5843 476.711 11.4482C476.433 11.3122 476.111 11.2441 475.746 11.2441C475.431 11.2441 475.146 11.2905 474.893 11.3833C474.645 11.4761 474.432 11.606 474.252 11.7729C474.073 11.9399 473.934 12.1379 473.835 12.3667C473.742 12.5955 473.696 12.8429 473.696 13.1089V14.9551ZM484.504 14.918C484.547 15.2148 484.64 15.487 484.782 15.7344C484.931 15.9818 485.116 16.1951 485.339 16.3745C485.562 16.5477 485.818 16.6838 486.109 16.7827C486.4 16.8817 486.709 16.9312 487.037 16.9312C487.414 16.9312 487.822 16.86 488.261 16.7178C488.7 16.5693 489.102 16.356 489.467 16.0776L490.701 17.8774C490.237 18.2671 489.668 18.5825 488.994 18.8237C488.32 19.0649 487.603 19.1855 486.842 19.1855C486.155 19.1855 485.509 19.068 484.903 18.833C484.297 18.598 483.765 18.2578 483.307 17.8125C482.856 17.3672 482.497 16.826 482.231 16.189C481.971 15.5519 481.841 14.8345 481.841 14.0366C481.841 13.3068 481.956 12.6265 482.185 11.9956C482.42 11.3647 482.744 10.8174 483.159 10.3535C483.579 9.88965 484.08 9.52783 484.662 9.26807C485.243 9.00212 485.886 8.86914 486.591 8.86914C487.247 8.86914 487.856 8.98975 488.419 9.23096C488.982 9.46598 489.47 9.79997 489.885 10.2329C490.299 10.6597 490.624 11.173 490.859 11.7729C491.094 12.3729 491.211 13.0347 491.211 13.7583V14.918H484.504ZM486.582 11.0957C486.032 11.0957 485.565 11.2812 485.181 11.6523C484.804 12.0173 484.584 12.4595 484.522 12.979H488.53C488.518 12.4533 488.326 12.008 487.955 11.6431C487.584 11.2782 487.126 11.0957 486.582 11.0957ZM496.054 14.9644C495.739 15.0138 495.485 15.1252 495.293 15.2983C495.102 15.4653 495.006 15.6942 495.006 15.9849C495.006 16.3065 495.123 16.5848 495.358 16.8198C495.593 17.0487 495.94 17.1631 496.397 17.1631C496.88 17.1631 497.26 17.0239 497.539 16.7456C497.817 16.4673 497.956 16.0993 497.956 15.6416V14.6396L496.054 14.9644ZM498.374 18.063C498.268 18.1805 498.139 18.3073 497.984 18.4434C497.835 18.5732 497.656 18.6938 497.446 18.8052C497.242 18.9103 497 19 496.722 19.0742C496.444 19.1484 496.132 19.1855 495.785 19.1855C495.29 19.1855 494.833 19.1082 494.412 18.9536C493.998 18.7928 493.633 18.5701 493.317 18.2856C493.002 18.0011 492.755 17.6733 492.575 17.3022C492.396 16.925 492.306 16.5168 492.306 16.0776C492.306 15.2798 492.554 14.6273 493.048 14.1201C493.543 13.613 494.227 13.2944 495.099 13.1646L497.956 12.7471V12.5615C497.956 12.1162 497.82 11.7637 497.548 11.5039C497.276 11.2441 496.833 11.1143 496.221 11.1143C495.968 11.1143 495.711 11.1452 495.451 11.207C495.191 11.2627 494.941 11.3276 494.7 11.4019C494.465 11.4761 494.245 11.5627 494.041 11.6616C493.837 11.7544 493.658 11.8379 493.503 11.9121L492.501 9.95459C493.07 9.63916 493.701 9.37939 494.394 9.17529C495.092 8.97119 495.816 8.86914 496.564 8.86914C497.022 8.86914 497.483 8.91862 497.947 9.01758C498.417 9.11035 498.84 9.28353 499.218 9.53711C499.601 9.79069 499.914 10.137 500.155 10.5762C500.396 11.0091 500.517 11.5627 500.517 12.2368V16.3188C500.517 16.6095 500.591 16.826 500.739 16.9683C500.894 17.1043 501.104 17.2311 501.37 17.3486L500.21 19.1855C499.74 19.1361 499.363 19.0155 499.079 18.8237C498.794 18.6258 498.559 18.3722 498.374 18.063ZM502.623 5.69629H505.183V16.3003C505.183 16.5106 505.242 16.6714 505.359 16.7827C505.483 16.894 505.678 16.9497 505.944 16.9497C506.068 16.9497 506.173 16.9435 506.259 16.9312C506.352 16.9126 506.47 16.8879 506.612 16.8569L506.816 19.0371C506.643 19.0618 506.457 19.0866 506.259 19.1113C506.092 19.1299 505.897 19.1453 505.675 19.1577C505.458 19.1763 505.233 19.1855 504.998 19.1855C504.633 19.1855 504.305 19.1392 504.014 19.0464C503.723 18.9536 503.473 18.8175 503.263 18.6382C503.059 18.4526 502.901 18.2238 502.79 17.9517C502.678 17.6795 502.623 17.3641 502.623 17.0054V5.69629Z" fill="white"/>
</svg>
