<svg width="545" height="27" viewBox="0 0 545 27" fill="none" xmlns="http://www.w3.org/2000/svg">
<rect width="114" height="27" fill="#453F86"/>
<path d="M8.3916 5.69629H13.5405C14.3322 5.69629 15.0311 5.81071 15.6372 6.03955C16.2433 6.26839 16.7505 6.57454 17.1587 6.95801C17.5669 7.34147 17.8761 7.78369 18.0864 8.28467C18.2967 8.77946 18.4019 9.29899 18.4019 9.84326C18.4019 10.2824 18.3338 10.6999 18.1978 11.0957C18.0679 11.4854 17.8854 11.841 17.6504 12.1626C17.4215 12.478 17.1494 12.7533 16.834 12.9883C16.5186 13.2171 16.1784 13.3965 15.8135 13.5264L18.7266 19H15.6279L13.2158 14.2129H11.082V19H8.3916V5.69629ZM15.5908 9.93604C15.5908 9.67008 15.5413 9.42269 15.4424 9.19385C15.3496 8.96501 15.2043 8.76709 15.0063 8.6001C14.8146 8.43311 14.5734 8.30322 14.2827 8.21045C13.992 8.11768 13.6549 8.07129 13.2715 8.07129H11.082V11.8193H13.2715C13.6549 11.8193 13.992 11.7729 14.2827 11.6802C14.5734 11.5812 14.8146 11.4482 15.0063 11.2812C15.2043 11.1081 15.3496 10.9071 15.4424 10.6782C15.5413 10.4494 15.5908 10.202 15.5908 9.93604ZM22.085 14.918C22.1283 15.2148 22.221 15.487 22.3633 15.7344C22.5117 15.9818 22.6973 16.1951 22.9199 16.3745C23.1426 16.5477 23.3993 16.6838 23.6899 16.7827C23.9806 16.8817 24.2899 16.9312 24.6177 16.9312C24.995 16.9312 25.4032 16.86 25.8423 16.7178C26.2814 16.5693 26.6834 16.356 27.0483 16.0776L28.2822 17.8774C27.8184 18.2671 27.2493 18.5825 26.5752 18.8237C25.901 19.0649 25.1836 19.1855 24.4229 19.1855C23.7363 19.1855 23.09 19.068 22.4839 18.833C21.8778 18.598 21.3459 18.2578 20.8882 17.8125C20.4367 17.3672 20.078 16.826 19.812 16.189C19.5522 15.5519 19.4224 14.8345 19.4224 14.0366C19.4224 13.3068 19.5368 12.6265 19.7656 11.9956C20.0007 11.3647 20.3254 10.8174 20.7397 10.3535C21.1603 9.88965 21.6613 9.52783 22.2427 9.26807C22.8241 9.00212 23.4673 8.86914 24.1724 8.86914C24.828 8.86914 25.4372 8.98975 26 9.23096C26.5628 9.46598 27.0514 9.79997 27.4658 10.2329C27.8802 10.6597 28.2049 11.173 28.4399 11.7729C28.675 12.3729 28.7925 13.0347 28.7925 13.7583V14.918H22.085ZM24.1631 11.0957C23.6126 11.0957 23.1457 11.2812 22.7622 11.6523C22.3849 12.0173 22.1654 12.4595 22.1035 12.979H26.1113C26.099 12.4533 25.9072 12.008 25.5361 11.6431C25.165 11.2782 24.7074 11.0957 24.1631 11.0957ZM30.4253 5.69629H32.9858V9.91748C33.1219 9.78141 33.2734 9.65153 33.4404 9.52783C33.6136 9.39795 33.8022 9.28662 34.0063 9.19385C34.2104 9.09489 34.4362 9.01758 34.6836 8.96191C34.9372 8.90007 35.2155 8.86914 35.5186 8.86914C36.0566 8.86914 36.5391 8.95882 36.9658 9.13818C37.3926 9.31136 37.7513 9.55257 38.042 9.86182C38.3389 10.1711 38.5646 10.5329 38.7192 10.9473C38.8739 11.3617 38.9512 11.8101 38.9512 12.2925V19H36.3906V13.2202C36.3906 12.8677 36.3504 12.5708 36.27 12.3296C36.1896 12.0822 36.0783 11.8843 35.936 11.7358C35.8 11.5812 35.6361 11.4699 35.4443 11.4019C35.2588 11.3276 35.0547 11.2905 34.832 11.2905C34.5723 11.2905 34.328 11.3369 34.0991 11.4297C33.8765 11.5225 33.6816 11.6647 33.5146 11.8564C33.3477 12.042 33.2178 12.277 33.125 12.5615C33.0322 12.846 32.9858 13.18 32.9858 13.5635V19H30.4253V5.69629ZM42.458 20.1597C42.7487 20.1597 42.9621 20.1071 43.0981 20.002C43.2404 19.8968 43.3517 19.7267 43.4321 19.4917L43.5249 19.1855L40.083 9.06396H42.9312L44.9072 15.9199L46.5493 9.06396H49.3604L46.0112 20.2339C45.8999 20.605 45.7453 20.9235 45.5474 21.1895C45.3494 21.4554 45.1144 21.6719 44.8423 21.8389C44.5701 22.012 44.2671 22.1388 43.9331 22.2192C43.6053 22.2996 43.2528 22.3398 42.8755 22.3398C42.7209 22.3398 42.5415 22.3337 42.3374 22.3213C42.1395 22.3089 41.9323 22.2904 41.7158 22.2656C41.5055 22.2471 41.2952 22.2223 41.085 22.1914C40.8809 22.1605 40.6922 22.1234 40.519 22.0801L41.0015 19.9834C41.1499 20.0205 41.3045 20.0514 41.4653 20.0762C41.6076 20.1009 41.7622 20.1195 41.9292 20.1318C42.1024 20.1504 42.2786 20.1597 42.458 20.1597ZM56.9585 19V18.1465C56.8224 18.2949 56.6709 18.4341 56.5039 18.564C56.3431 18.6877 56.1606 18.7959 55.9565 18.8887C55.7586 18.9814 55.5391 19.0526 55.2979 19.1021C55.0628 19.1577 54.8 19.1855 54.5093 19.1855C53.8537 19.1855 53.2537 19.0557 52.7095 18.7959C52.1652 18.5361 51.6982 18.1774 51.3086 17.7197C50.9189 17.262 50.6159 16.7178 50.3994 16.0869C50.1891 15.4561 50.084 14.7726 50.084 14.0366C50.084 13.3006 50.1891 12.6172 50.3994 11.9863C50.6097 11.3555 50.9035 10.8112 51.2808 10.3535C51.6642 9.88965 52.125 9.52783 52.6631 9.26807C53.2012 9.00212 53.798 8.86914 54.4536 8.86914C55.035 8.86914 55.5267 8.97119 55.9287 9.17529C56.3369 9.37321 56.6802 9.62061 56.9585 9.91748V5.69629H59.519V19H56.9585ZM57.0327 13.1089C57.0327 12.8429 56.9832 12.5955 56.8843 12.3667C56.7915 12.1379 56.6554 11.9399 56.4761 11.7729C56.2967 11.606 56.0802 11.4761 55.8267 11.3833C55.5793 11.2905 55.2979 11.2441 54.9824 11.2441C54.6175 11.2441 54.2928 11.3122 54.0083 11.4482C53.73 11.5843 53.495 11.776 53.3032 12.0234C53.1115 12.2646 52.9661 12.5522 52.8672 12.8862C52.7682 13.2202 52.7188 13.5851 52.7188 13.981V14.1016C52.7188 14.4974 52.7682 14.8623 52.8672 15.1963C52.9661 15.5241 53.1115 15.8086 53.3032 16.0498C53.495 16.291 53.73 16.4797 54.0083 16.6157C54.2928 16.7456 54.6175 16.8105 54.9824 16.8105C55.2979 16.8105 55.5793 16.7642 55.8267 16.6714C56.0802 16.5786 56.2967 16.4487 56.4761 16.2817C56.6554 16.1147 56.7915 15.9199 56.8843 15.6973C56.9832 15.4684 57.0327 15.221 57.0327 14.9551V13.1089ZM67.312 11.5503H67.043C66.6781 11.5503 66.3286 11.5874 65.9946 11.6616C65.6668 11.7358 65.3761 11.8719 65.1226 12.0698C64.869 12.2616 64.6649 12.5275 64.5103 12.8677C64.3618 13.2078 64.2876 13.6439 64.2876 14.1758V19H61.7271V9.06396H64.2876V10.1865C64.3927 10.0195 64.5288 9.85872 64.6958 9.7041C64.8628 9.54948 65.0576 9.41341 65.2803 9.2959C65.5029 9.1722 65.7534 9.07324 66.0317 8.99902C66.3101 8.9248 66.61 8.8877 66.9316 8.8877H67.312V11.5503ZM72.1177 14.9644C71.8022 15.0138 71.5487 15.1252 71.3569 15.2983C71.1652 15.4653 71.0693 15.6942 71.0693 15.9849C71.0693 16.3065 71.1868 16.5848 71.4219 16.8198C71.6569 17.0487 72.0033 17.1631 72.4609 17.1631C72.9434 17.1631 73.3237 17.0239 73.6021 16.7456C73.8804 16.4673 74.0195 16.0993 74.0195 15.6416V14.6396L72.1177 14.9644ZM74.437 18.063C74.3319 18.1805 74.202 18.3073 74.0474 18.4434C73.8989 18.5732 73.7196 18.6938 73.5093 18.8052C73.3052 18.9103 73.064 19 72.7856 19.0742C72.5073 19.1484 72.195 19.1855 71.8486 19.1855C71.3538 19.1855 70.8962 19.1082 70.4756 18.9536C70.0612 18.7928 69.6963 18.5701 69.3809 18.2856C69.0654 18.0011 68.818 17.6733 68.6387 17.3022C68.4593 16.925 68.3696 16.5168 68.3696 16.0776C68.3696 15.2798 68.617 14.6273 69.1118 14.1201C69.6066 13.613 70.29 13.2944 71.1621 13.1646L74.0195 12.7471V12.5615C74.0195 12.1162 73.8835 11.7637 73.6113 11.5039C73.3392 11.2441 72.897 11.1143 72.2847 11.1143C72.0311 11.1143 71.7744 11.1452 71.5146 11.207C71.2549 11.2627 71.0044 11.3276 70.7632 11.4019C70.5282 11.4761 70.3086 11.5627 70.1045 11.6616C69.9004 11.7544 69.721 11.8379 69.5664 11.9121L68.5645 9.95459C69.1335 9.63916 69.7643 9.37939 70.457 9.17529C71.1559 8.97119 71.8796 8.86914 72.6279 8.86914C73.0856 8.86914 73.5464 8.91862 74.0103 9.01758C74.4803 9.11035 74.904 9.28353 75.2812 9.53711C75.6647 9.79069 75.9771 10.137 76.2183 10.5762C76.4595 11.0091 76.5801 11.5627 76.5801 12.2368V16.3188C76.5801 16.6095 76.6543 16.826 76.8027 16.9683C76.9574 17.1043 77.1676 17.2311 77.4336 17.3486L76.2739 19.1855C75.8039 19.1361 75.4266 19.0155 75.1421 18.8237C74.8576 18.6258 74.6226 18.3722 74.437 18.063ZM81.998 16.0405C81.998 16.158 82.0135 16.2694 82.0444 16.3745C82.0754 16.4797 82.1279 16.5724 82.2021 16.6528C82.2826 16.7271 82.3939 16.7858 82.5361 16.8291C82.6784 16.8724 82.8608 16.894 83.0835 16.894C83.1763 16.894 83.2814 16.891 83.3989 16.8848C83.5164 16.8724 83.634 16.86 83.7515 16.8477C83.869 16.8353 83.9772 16.8198 84.0762 16.8013C84.1813 16.7827 84.2679 16.7673 84.3359 16.7549L84.5679 19.0186C84.3267 19.0495 84.0762 19.0773 83.8164 19.1021C83.5938 19.1268 83.3464 19.1453 83.0742 19.1577C82.8021 19.1763 82.5269 19.1855 82.2485 19.1855C81.3641 19.1855 80.6745 18.9845 80.1797 18.5825C79.6849 18.1805 79.4375 17.5404 79.4375 16.6621V11.2905H77.647V9.06396H79.4375V6.25293L81.998 5.56641V9.06396H84.605V11.2905H81.998V16.0405ZM88.3623 14.918C88.4056 15.2148 88.4984 15.487 88.6406 15.7344C88.7891 15.9818 88.9746 16.1951 89.1973 16.3745C89.4199 16.5477 89.6766 16.6838 89.9673 16.7827C90.258 16.8817 90.5672 16.9312 90.895 16.9312C91.2723 16.9312 91.6805 16.86 92.1196 16.7178C92.5588 16.5693 92.9608 16.356 93.3257 16.0776L94.5596 17.8774C94.0957 18.2671 93.5267 18.5825 92.8525 18.8237C92.1784 19.0649 91.4609 19.1855 90.7002 19.1855C90.0137 19.1855 89.3674 19.068 88.7612 18.833C88.1551 18.598 87.6232 18.2578 87.1655 17.8125C86.714 17.3672 86.3553 16.826 86.0894 16.189C85.8296 15.5519 85.6997 14.8345 85.6997 14.0366C85.6997 13.3068 85.8141 12.6265 86.043 11.9956C86.278 11.3647 86.6027 10.8174 87.0171 10.3535C87.4377 9.88965 87.9386 9.52783 88.52 9.26807C89.1014 9.00212 89.7446 8.86914 90.4497 8.86914C91.1053 8.86914 91.7145 8.98975 92.2773 9.23096C92.8402 9.46598 93.3288 9.79997 93.7432 10.2329C94.1576 10.6597 94.4823 11.173 94.7173 11.7729C94.9523 12.3729 95.0698 13.0347 95.0698 13.7583V14.918H88.3623ZM90.4404 11.0957C89.89 11.0957 89.423 11.2812 89.0396 11.6523C88.6623 12.0173 88.4427 12.4595 88.3809 12.979H92.3887C92.3763 12.4533 92.1846 12.008 91.8135 11.6431C91.4424 11.2782 90.9847 11.0957 90.4404 11.0957ZM103.085 19V18.1465C102.949 18.2949 102.798 18.4341 102.631 18.564C102.47 18.6877 102.288 18.7959 102.083 18.8887C101.886 18.9814 101.666 19.0526 101.425 19.1021C101.19 19.1577 100.927 19.1855 100.636 19.1855C99.9806 19.1855 99.3807 19.0557 98.8364 18.7959C98.2922 18.5361 97.8252 18.1774 97.4355 17.7197C97.0459 17.262 96.7428 16.7178 96.5264 16.0869C96.3161 15.4561 96.2109 14.7726 96.2109 14.0366C96.2109 13.3006 96.3161 12.6172 96.5264 11.9863C96.7367 11.3555 97.0304 10.8112 97.4077 10.3535C97.7912 9.88965 98.252 9.52783 98.79 9.26807C99.3281 9.00212 99.925 8.86914 100.581 8.86914C101.162 8.86914 101.654 8.97119 102.056 9.17529C102.464 9.37321 102.807 9.62061 103.085 9.91748V5.69629H105.646V19H103.085ZM103.16 13.1089C103.16 12.8429 103.11 12.5955 103.011 12.3667C102.918 12.1379 102.782 11.9399 102.603 11.7729C102.424 11.606 102.207 11.4761 101.954 11.3833C101.706 11.2905 101.425 11.2441 101.109 11.2441C100.744 11.2441 100.42 11.3122 100.135 11.4482C99.8569 11.5843 99.6219 11.776 99.4302 12.0234C99.2384 12.2646 99.0931 12.5522 98.9941 12.8862C98.8952 13.2202 98.8457 13.5851 98.8457 13.981V14.1016C98.8457 14.4974 98.8952 14.8623 98.9941 15.1963C99.0931 15.5241 99.2384 15.8086 99.4302 16.0498C99.6219 16.291 99.8569 16.4797 100.135 16.6157C100.42 16.7456 100.744 16.8105 101.109 16.8105C101.425 16.8105 101.706 16.7642 101.954 16.6714C102.207 16.5786 102.424 16.4487 102.603 16.2817C102.782 16.1147 102.918 15.9199 103.011 15.6973C103.11 15.4684 103.16 15.221 103.16 14.9551V13.1089Z" fill="white"/>
<rect width="256" height="27" transform="translate(124)" fill="#1D70B8"/>
<path d="M139.721 16.5322H134.794L134.043 19H131.186L135.537 5.69629H139.071L143.487 19H140.481L139.721 16.5322ZM135.518 14.1572H138.997L137.271 8.53516H137.234L135.518 14.1572ZM147.319 22.1357H144.758V9.06396H147.319V9.91748C147.597 9.62679 147.94 9.37939 148.349 9.17529C148.757 8.97119 149.252 8.86914 149.833 8.86914C150.489 8.86914 151.082 9.00212 151.614 9.26807C152.152 9.52783 152.613 9.88965 152.997 10.3535C153.38 10.8112 153.677 11.3555 153.887 11.9863C154.097 12.6172 154.203 13.3006 154.203 14.0366C154.203 14.7726 154.094 15.4561 153.878 16.0869C153.661 16.7178 153.358 17.262 152.969 17.7197C152.579 18.1774 152.112 18.5361 151.568 18.7959C151.024 19.0557 150.424 19.1855 149.768 19.1855C149.477 19.1855 149.211 19.1577 148.97 19.1021C148.735 19.0526 148.519 18.9814 148.321 18.8887C148.123 18.7959 147.94 18.6877 147.773 18.564C147.606 18.4341 147.455 18.2949 147.319 18.1465V22.1357ZM147.245 14.9551C147.245 15.221 147.291 15.4684 147.384 15.6973C147.483 15.9199 147.622 16.1147 147.801 16.2817C147.981 16.4487 148.194 16.5786 148.441 16.6714C148.695 16.7642 148.979 16.8105 149.295 16.8105C149.66 16.8105 149.981 16.7456 150.26 16.6157C150.544 16.4797 150.782 16.291 150.974 16.0498C151.166 15.8086 151.311 15.5241 151.41 15.1963C151.509 14.8623 151.559 14.4974 151.559 14.1016V13.981C151.559 13.5851 151.509 13.2202 151.41 12.8862C151.311 12.5522 151.166 12.2646 150.974 12.0234C150.782 11.776 150.544 11.5843 150.26 11.4482C149.981 11.3122 149.66 11.2441 149.295 11.2441C148.979 11.2441 148.695 11.2905 148.441 11.3833C148.194 11.4761 147.981 11.606 147.801 11.7729C147.622 11.9399 147.483 12.1379 147.384 12.3667C147.291 12.5955 147.245 12.8429 147.245 13.1089V14.9551ZM158.47 22.1357H155.91V9.06396H158.47V9.91748C158.749 9.62679 159.092 9.37939 159.5 9.17529C159.908 8.97119 160.403 8.86914 160.984 8.86914C161.64 8.86914 162.234 9.00212 162.766 9.26807C163.304 9.52783 163.764 9.88965 164.148 10.3535C164.531 10.8112 164.828 11.3555 165.039 11.9863C165.249 12.6172 165.354 13.3006 165.354 14.0366C165.354 14.7726 165.246 15.4561 165.029 16.0869C164.813 16.7178 164.51 17.262 164.12 17.7197C163.73 18.1774 163.264 18.5361 162.719 18.7959C162.175 19.0557 161.575 19.1855 160.919 19.1855C160.629 19.1855 160.363 19.1577 160.122 19.1021C159.887 19.0526 159.67 18.9814 159.472 18.8887C159.274 18.7959 159.092 18.6877 158.925 18.564C158.758 18.4341 158.606 18.2949 158.47 18.1465V22.1357ZM158.396 14.9551C158.396 15.221 158.442 15.4684 158.535 15.6973C158.634 15.9199 158.773 16.1147 158.953 16.2817C159.132 16.4487 159.345 16.5786 159.593 16.6714C159.846 16.7642 160.131 16.8105 160.446 16.8105C160.811 16.8105 161.133 16.7456 161.411 16.6157C161.696 16.4797 161.934 16.291 162.125 16.0498C162.317 15.8086 162.463 15.5241 162.562 15.1963C162.66 14.8623 162.71 14.4974 162.71 14.1016V13.981C162.71 13.5851 162.66 13.2202 162.562 12.8862C162.463 12.5522 162.317 12.2646 162.125 12.0234C161.934 11.776 161.696 11.5843 161.411 11.4482C161.133 11.3122 160.811 11.2441 160.446 11.2441C160.131 11.2441 159.846 11.2905 159.593 11.3833C159.345 11.4761 159.132 11.606 158.953 11.7729C158.773 11.9399 158.634 12.1379 158.535 12.3667C158.442 12.5955 158.396 12.8429 158.396 13.1089V14.9551ZM169.204 14.918C169.247 15.2148 169.34 15.487 169.482 15.7344C169.631 15.9818 169.816 16.1951 170.039 16.3745C170.262 16.5477 170.518 16.6838 170.809 16.7827C171.1 16.8817 171.409 16.9312 171.737 16.9312C172.114 16.9312 172.522 16.86 172.961 16.7178C173.401 16.5693 173.803 16.356 174.167 16.0776L175.401 17.8774C174.938 18.2671 174.368 18.5825 173.694 18.8237C173.02 19.0649 172.303 19.1855 171.542 19.1855C170.855 19.1855 170.209 19.068 169.603 18.833C168.997 18.598 168.465 18.2578 168.007 17.8125C167.556 17.3672 167.197 16.826 166.931 16.189C166.671 15.5519 166.542 14.8345 166.542 14.0366C166.542 13.3068 166.656 12.6265 166.885 11.9956C167.12 11.3647 167.444 10.8174 167.859 10.3535C168.279 9.88965 168.78 9.52783 169.362 9.26807C169.943 9.00212 170.586 8.86914 171.292 8.86914C171.947 8.86914 172.556 8.98975 173.119 9.23096C173.682 9.46598 174.171 9.79997 174.585 10.2329C174.999 10.6597 175.324 11.173 175.559 11.7729C175.794 12.3729 175.912 13.0347 175.912 13.7583V14.918H169.204ZM171.282 11.0957C170.732 11.0957 170.265 11.2812 169.881 11.6523C169.504 12.0173 169.285 12.4595 169.223 12.979H173.23C173.218 12.4533 173.026 12.008 172.655 11.6431C172.284 11.2782 171.826 11.0957 171.282 11.0957ZM177.507 5.69629H180.068V16.3003C180.068 16.5106 180.127 16.6714 180.244 16.7827C180.368 16.894 180.563 16.9497 180.829 16.9497C180.952 16.9497 181.057 16.9435 181.144 16.9312C181.237 16.9126 181.354 16.8879 181.497 16.8569L181.701 19.0371C181.528 19.0618 181.342 19.0866 181.144 19.1113C180.977 19.1299 180.782 19.1453 180.56 19.1577C180.343 19.1763 180.117 19.1855 179.882 19.1855C179.517 19.1855 179.19 19.1392 178.899 19.0464C178.608 18.9536 178.358 18.8175 178.147 18.6382C177.943 18.4526 177.786 18.2238 177.674 17.9517C177.563 17.6795 177.507 17.3641 177.507 17.0054V5.69629ZM183.074 5.69629H185.634V16.3003C185.634 16.5106 185.693 16.6714 185.811 16.7827C185.934 16.894 186.129 16.9497 186.395 16.9497C186.519 16.9497 186.624 16.9435 186.71 16.9312C186.803 16.9126 186.921 16.8879 187.063 16.8569L187.267 19.0371C187.094 19.0618 186.908 19.0866 186.71 19.1113C186.543 19.1299 186.349 19.1453 186.126 19.1577C185.91 19.1763 185.684 19.1855 185.449 19.1855C185.084 19.1855 184.756 19.1392 184.465 19.0464C184.175 18.9536 183.924 18.8175 183.714 18.6382C183.51 18.4526 183.352 18.2238 183.241 17.9517C183.129 17.6795 183.074 17.3641 183.074 17.0054V5.69629ZM191.887 14.9644C191.572 15.0138 191.318 15.1252 191.126 15.2983C190.935 15.4653 190.839 15.6942 190.839 15.9849C190.839 16.3065 190.956 16.5848 191.191 16.8198C191.426 17.0487 191.773 17.1631 192.23 17.1631C192.713 17.1631 193.093 17.0239 193.372 16.7456C193.65 16.4673 193.789 16.0993 193.789 15.6416V14.6396L191.887 14.9644ZM194.207 18.063C194.101 18.1805 193.972 18.3073 193.817 18.4434C193.668 18.5732 193.489 18.6938 193.279 18.8052C193.075 18.9103 192.833 19 192.555 19.0742C192.277 19.1484 191.965 19.1855 191.618 19.1855C191.123 19.1855 190.666 19.1082 190.245 18.9536C189.831 18.7928 189.466 18.5701 189.15 18.2856C188.835 18.0011 188.588 17.6733 188.408 17.3022C188.229 16.925 188.139 16.5168 188.139 16.0776C188.139 15.2798 188.387 14.6273 188.881 14.1201C189.376 13.613 190.06 13.2944 190.932 13.1646L193.789 12.7471V12.5615C193.789 12.1162 193.653 11.7637 193.381 11.5039C193.109 11.2441 192.667 11.1143 192.054 11.1143C191.801 11.1143 191.544 11.1452 191.284 11.207C191.024 11.2627 190.774 11.3276 190.533 11.4019C190.298 11.4761 190.078 11.5627 189.874 11.6616C189.67 11.7544 189.491 11.8379 189.336 11.9121L188.334 9.95459C188.903 9.63916 189.534 9.37939 190.227 9.17529C190.925 8.97119 191.649 8.86914 192.397 8.86914C192.855 8.86914 193.316 8.91862 193.78 9.01758C194.25 9.11035 194.674 9.28353 195.051 9.53711C195.434 9.79069 195.747 10.137 195.988 10.5762C196.229 11.0091 196.35 11.5627 196.35 12.2368V16.3188C196.35 16.6095 196.424 16.826 196.572 16.9683C196.727 17.1043 196.937 17.2311 197.203 17.3486L196.043 19.1855C195.573 19.1361 195.196 19.0155 194.912 18.8237C194.627 18.6258 194.392 18.3722 194.207 18.063ZM198.493 9.06396H201.053V9.91748C201.189 9.78141 201.341 9.65153 201.508 9.52783C201.681 9.39795 201.87 9.28662 202.074 9.19385C202.278 9.09489 202.504 9.01758 202.751 8.96191C203.005 8.90007 203.283 8.86914 203.586 8.86914C204.124 8.86914 204.606 8.95882 205.033 9.13818C205.46 9.31136 205.819 9.55257 206.109 9.86182C206.406 10.1711 206.632 10.5329 206.787 10.9473C206.941 11.3617 207.019 11.8101 207.019 12.2925V19H204.458V13.2202C204.458 12.8677 204.418 12.5708 204.337 12.3296C204.257 12.0822 204.146 11.8843 204.003 11.7358C203.867 11.5812 203.703 11.4699 203.512 11.4019C203.326 11.3276 203.122 11.2905 202.899 11.2905C202.64 11.2905 202.395 11.3369 202.167 11.4297C201.944 11.5225 201.749 11.6647 201.582 11.8564C201.415 12.042 201.285 12.277 201.192 12.5615C201.1 12.846 201.053 13.18 201.053 13.5635V19H198.493V9.06396ZM212.826 16.0405C212.826 16.158 212.842 16.2694 212.873 16.3745C212.903 16.4797 212.956 16.5724 213.03 16.6528C213.111 16.7271 213.222 16.7858 213.364 16.8291C213.507 16.8724 213.689 16.894 213.912 16.894C214.004 16.894 214.11 16.891 214.227 16.8848C214.345 16.8724 214.462 16.86 214.58 16.8477C214.697 16.8353 214.805 16.8198 214.904 16.8013C215.009 16.7827 215.096 16.7673 215.164 16.7549L215.396 19.0186C215.155 19.0495 214.904 19.0773 214.645 19.1021C214.422 19.1268 214.174 19.1453 213.902 19.1577C213.63 19.1763 213.355 19.1855 213.077 19.1855C212.192 19.1855 211.503 18.9845 211.008 18.5825C210.513 18.1805 210.266 17.5404 210.266 16.6621V11.2905H208.475V9.06396H210.266V6.25293L212.826 5.56641V9.06396H215.433V11.2905H212.826V16.0405ZM223.041 19H220.48V9.06396H223.041V19ZM220.211 6.45703C220.211 6.24674 220.251 6.04883 220.332 5.86328C220.412 5.67155 220.52 5.50765 220.656 5.37158C220.799 5.22933 220.962 5.118 221.148 5.0376C221.333 4.95719 221.535 4.91699 221.751 4.91699C221.961 4.91699 222.159 4.95719 222.345 5.0376C222.536 5.118 222.7 5.22933 222.836 5.37158C222.979 5.50765 223.09 5.67155 223.17 5.86328C223.251 6.04883 223.291 6.24674 223.291 6.45703C223.291 6.6735 223.251 6.87451 223.17 7.06006C223.09 7.24561 222.979 7.40951 222.836 7.55176C222.7 7.68783 222.536 7.79606 222.345 7.87646C222.159 7.95687 221.961 7.99707 221.751 7.99707C221.535 7.99707 221.333 7.95687 221.148 7.87646C220.962 7.79606 220.799 7.68783 220.656 7.55176C220.52 7.40951 220.412 7.24561 220.332 7.06006C220.251 6.87451 220.211 6.6735 220.211 6.45703ZM225.249 9.06396H227.809V9.91748C227.945 9.78141 228.097 9.65153 228.264 9.52783C228.437 9.39795 228.625 9.28662 228.83 9.19385C229.034 9.09489 229.259 9.01758 229.507 8.96191C229.76 8.90007 230.039 8.86914 230.342 8.86914C230.88 8.86914 231.362 8.95882 231.789 9.13818C232.216 9.31136 232.575 9.55257 232.865 9.86182C233.162 10.1711 233.388 10.5329 233.542 10.9473C233.697 11.3617 233.774 11.8101 233.774 12.2925V19H231.214V13.2202C231.214 12.8677 231.174 12.5708 231.093 12.3296C231.013 12.0822 230.902 11.8843 230.759 11.7358C230.623 11.5812 230.459 11.4699 230.268 11.4019C230.082 11.3276 229.878 11.2905 229.655 11.2905C229.396 11.2905 229.151 11.3369 228.922 11.4297C228.7 11.5225 228.505 11.6647 228.338 11.8564C228.171 12.042 228.041 12.277 227.948 12.5615C227.855 12.846 227.809 13.18 227.809 13.5635V19H225.249V9.06396ZM241.911 22.1357H239.35V9.06396H241.911V9.91748C242.189 9.62679 242.532 9.37939 242.94 9.17529C243.349 8.97119 243.843 8.86914 244.425 8.86914C245.08 8.86914 245.674 9.00212 246.206 9.26807C246.744 9.52783 247.205 9.88965 247.588 10.3535C247.972 10.8112 248.269 11.3555 248.479 11.9863C248.689 12.6172 248.794 13.3006 248.794 14.0366C248.794 14.7726 248.686 15.4561 248.47 16.0869C248.253 16.7178 247.95 17.262 247.561 17.7197C247.171 18.1774 246.704 18.5361 246.16 18.7959C245.615 19.0557 245.015 19.1855 244.36 19.1855C244.069 19.1855 243.803 19.1577 243.562 19.1021C243.327 19.0526 243.111 18.9814 242.913 18.8887C242.715 18.7959 242.532 18.6877 242.365 18.564C242.198 18.4341 242.047 18.2949 241.911 18.1465V22.1357ZM241.836 14.9551C241.836 15.221 241.883 15.4684 241.976 15.6973C242.075 15.9199 242.214 16.1147 242.393 16.2817C242.572 16.4487 242.786 16.5786 243.033 16.6714C243.287 16.7642 243.571 16.8105 243.887 16.8105C244.252 16.8105 244.573 16.7456 244.852 16.6157C245.136 16.4797 245.374 16.291 245.566 16.0498C245.758 15.8086 245.903 15.5241 246.002 15.1963C246.101 14.8623 246.15 14.4974 246.15 14.1016V13.981C246.15 13.5851 246.101 13.2202 246.002 12.8862C245.903 12.5522 245.758 12.2646 245.566 12.0234C245.374 11.776 245.136 11.5843 244.852 11.4482C244.573 11.3122 244.252 11.2441 243.887 11.2441C243.571 11.2441 243.287 11.2905 243.033 11.3833C242.786 11.4761 242.572 11.606 242.393 11.7729C242.214 11.9399 242.075 12.1379 241.976 12.3667C241.883 12.5955 241.836 12.8429 241.836 13.1089V14.9551ZM252.645 14.918C252.688 15.2148 252.781 15.487 252.923 15.7344C253.071 15.9818 253.257 16.1951 253.479 16.3745C253.702 16.5477 253.959 16.6838 254.25 16.7827C254.54 16.8817 254.849 16.9312 255.177 16.9312C255.555 16.9312 255.963 16.86 256.402 16.7178C256.841 16.5693 257.243 16.356 257.608 16.0776L258.842 17.8774C258.378 18.2671 257.809 18.5825 257.135 18.8237C256.461 19.0649 255.743 19.1855 254.982 19.1855C254.296 19.1855 253.65 19.068 253.043 18.833C252.437 18.598 251.905 18.2578 251.448 17.8125C250.996 17.3672 250.638 16.826 250.372 16.189C250.112 15.5519 249.982 14.8345 249.982 14.0366C249.982 13.3068 250.096 12.6265 250.325 11.9956C250.56 11.3647 250.885 10.8174 251.299 10.3535C251.72 9.88965 252.221 9.52783 252.802 9.26807C253.384 9.00212 254.027 8.86914 254.732 8.86914C255.388 8.86914 255.997 8.98975 256.56 9.23096C257.122 9.46598 257.611 9.79997 258.025 10.2329C258.44 10.6597 258.764 11.173 259 11.7729C259.235 12.3729 259.352 13.0347 259.352 13.7583V14.918H252.645ZM254.723 11.0957C254.172 11.0957 253.705 11.2812 253.322 11.6523C252.944 12.0173 252.725 12.4595 252.663 12.979H256.671C256.659 12.4533 256.467 12.008 256.096 11.6431C255.725 11.2782 255.267 11.0957 254.723 11.0957ZM266.57 11.5503H266.301C265.936 11.5503 265.586 11.5874 265.252 11.6616C264.925 11.7358 264.634 11.8719 264.38 12.0698C264.127 12.2616 263.923 12.5275 263.768 12.8677C263.62 13.2078 263.545 13.6439 263.545 14.1758V19H260.985V9.06396H263.545V10.1865C263.651 10.0195 263.787 9.85872 263.954 9.7041C264.121 9.54948 264.315 9.41341 264.538 9.2959C264.761 9.1722 265.011 9.07324 265.29 8.99902C265.568 8.9248 265.868 8.8877 266.189 8.8877H266.57V11.5503ZM268.871 15.8271C269.236 16.1549 269.672 16.4364 270.179 16.6714C270.686 16.9064 271.199 17.0239 271.719 17.0239C272.096 17.0239 272.393 16.9528 272.609 16.8105C272.826 16.6621 272.934 16.4735 272.934 16.2446C272.934 15.855 272.517 15.5519 271.682 15.3354L270.958 15.1406C270.599 15.054 270.237 14.9365 269.873 14.7881C269.508 14.6335 269.171 14.4325 268.861 14.1851C268.558 13.9377 268.311 13.6377 268.119 13.2852C267.934 12.9264 267.841 12.4873 267.841 11.9678C267.841 11.5534 267.931 11.1606 268.11 10.7896C268.295 10.4123 268.555 10.0814 268.889 9.79688C269.229 9.51237 269.641 9.28662 270.123 9.11963C270.605 8.95264 271.144 8.86914 271.737 8.86914C272.585 8.86914 273.339 9.00212 274.001 9.26807C274.669 9.53402 275.195 9.83398 275.578 10.168L274.242 11.875C273.927 11.6462 273.553 11.4513 273.12 11.2905C272.693 11.1235 272.263 11.04 271.83 11.04C271.428 11.04 271.116 11.1143 270.893 11.2627C270.67 11.4049 270.559 11.5781 270.559 11.7822C270.559 11.9987 270.655 12.175 270.847 12.311C271.045 12.4409 271.329 12.5553 271.7 12.6543L272.776 12.9604C273.803 13.2511 274.539 13.6439 274.984 14.1387C275.43 14.6335 275.652 15.2581 275.652 16.0127C275.652 16.4333 275.566 16.8353 275.393 17.2188C275.219 17.596 274.966 17.9331 274.632 18.23C274.298 18.5269 273.883 18.7619 273.389 18.9351C272.894 19.1021 272.331 19.1855 271.7 19.1855C271.218 19.1855 270.763 19.1423 270.336 19.0557C269.916 18.9691 269.523 18.8516 269.158 18.7031C268.799 18.5485 268.475 18.3753 268.184 18.1836C267.893 17.9919 267.646 17.8001 267.442 17.6084L268.871 15.8271ZM281.683 8.86914C282.419 8.86914 283.087 9.00212 283.687 9.26807C284.286 9.52783 284.8 9.88965 285.227 10.3535C285.653 10.8174 285.981 11.3647 286.21 11.9956C286.445 12.6265 286.562 13.3068 286.562 14.0366C286.562 14.7726 286.445 15.4561 286.21 16.0869C285.975 16.7116 285.644 17.2528 285.217 17.7104C284.791 18.1681 284.277 18.5299 283.677 18.7959C283.077 19.0557 282.412 19.1855 281.683 19.1855C280.947 19.1855 280.279 19.0557 279.679 18.7959C279.079 18.5299 278.565 18.1681 278.139 17.7104C277.712 17.2528 277.381 16.7116 277.146 16.0869C276.911 15.4561 276.793 14.7726 276.793 14.0366C276.793 13.3068 276.908 12.6265 277.137 11.9956C277.372 11.3647 277.703 10.8174 278.129 10.3535C278.556 9.88965 279.069 9.52783 279.669 9.26807C280.276 9.00212 280.947 8.86914 281.683 8.86914ZM281.683 16.8105C282.048 16.8105 282.369 16.7425 282.647 16.6064C282.932 16.4704 283.17 16.2817 283.362 16.0405C283.554 15.7993 283.699 15.5117 283.798 15.1777C283.897 14.8376 283.946 14.4665 283.946 14.0645V13.9995C283.946 13.5975 283.897 13.2295 283.798 12.8955C283.699 12.5553 283.554 12.2646 283.362 12.0234C283.17 11.776 282.932 11.5843 282.647 11.4482C282.369 11.3122 282.048 11.2441 281.683 11.2441C281.318 11.2441 280.993 11.3122 280.708 11.4482C280.43 11.5843 280.195 11.776 280.003 12.0234C279.812 12.2646 279.666 12.5553 279.567 12.8955C279.468 13.2295 279.419 13.5975 279.419 13.9995V14.0645C279.419 14.4665 279.468 14.8376 279.567 15.1777C279.666 15.5117 279.812 15.7993 280.003 16.0405C280.195 16.2817 280.43 16.4704 280.708 16.6064C280.993 16.7425 281.318 16.8105 281.683 16.8105ZM288.26 9.06396H290.821V9.91748C290.957 9.78141 291.108 9.65153 291.275 9.52783C291.449 9.39795 291.637 9.28662 291.841 9.19385C292.045 9.09489 292.271 9.01758 292.519 8.96191C292.772 8.90007 293.05 8.86914 293.354 8.86914C293.892 8.86914 294.374 8.95882 294.801 9.13818C295.228 9.31136 295.586 9.55257 295.877 9.86182C296.174 10.1711 296.4 10.5329 296.554 10.9473C296.709 11.3617 296.786 11.8101 296.786 12.2925V19H294.226V13.2202C294.226 12.8677 294.185 12.5708 294.105 12.3296C294.025 12.0822 293.913 11.8843 293.771 11.7358C293.635 11.5812 293.471 11.4699 293.279 11.4019C293.094 11.3276 292.89 11.2905 292.667 11.2905C292.407 11.2905 292.163 11.3369 291.934 11.4297C291.711 11.5225 291.517 11.6647 291.35 11.8564C291.183 12.042 291.053 12.277 290.96 12.5615C290.867 12.846 290.821 13.18 290.821 13.5635V19H288.26V9.06396ZM301.638 11.9121H305.627V14.2129H301.638V11.9121ZM318.922 19H316.352V13.2202C316.352 12.8677 316.312 12.5708 316.231 12.3296C316.157 12.0822 316.052 11.8843 315.916 11.7358C315.78 11.5812 315.622 11.473 315.443 11.4111C315.264 11.3431 315.069 11.3091 314.858 11.3091C314.611 11.3091 314.379 11.3524 314.163 11.439C313.952 11.5256 313.767 11.6616 313.606 11.8472C313.451 12.0327 313.328 12.2708 313.235 12.5615C313.148 12.846 313.105 13.1862 313.105 13.582V19H310.544V9.06396H313.105V9.93604C313.433 9.57113 313.813 9.30208 314.246 9.12891C314.685 8.95573 315.155 8.86914 315.656 8.86914C316.17 8.86914 316.649 8.97428 317.094 9.18457C317.546 9.39486 317.92 9.74121 318.217 10.2236C318.39 9.97624 318.588 9.76595 318.811 9.59277C319.039 9.4196 319.284 9.28044 319.543 9.17529C319.803 9.07015 320.072 8.99284 320.351 8.94336C320.635 8.89388 320.926 8.86914 321.223 8.86914C321.779 8.86914 322.274 8.96191 322.707 9.14746C323.146 9.32682 323.517 9.57113 323.82 9.88037C324.123 10.1896 324.355 10.5452 324.516 10.9473C324.677 11.3493 324.757 11.7729 324.757 12.2183V19H322.169V13.2202C322.169 12.8677 322.129 12.5708 322.048 12.3296C321.974 12.0822 321.869 11.8843 321.733 11.7358C321.597 11.5812 321.436 11.473 321.25 11.4111C321.071 11.3431 320.876 11.3091 320.666 11.3091C320.419 11.3091 320.19 11.3524 319.979 11.439C319.769 11.5256 319.584 11.6616 319.423 11.8472C319.268 12.0327 319.145 12.2708 319.052 12.5615C318.965 12.846 318.922 13.1862 318.922 13.582V19ZM330.101 14.9644C329.786 15.0138 329.532 15.1252 329.34 15.2983C329.149 15.4653 329.053 15.6942 329.053 15.9849C329.053 16.3065 329.17 16.5848 329.405 16.8198C329.64 17.0487 329.987 17.1631 330.444 17.1631C330.927 17.1631 331.307 17.0239 331.585 16.7456C331.864 16.4673 332.003 16.0993 332.003 15.6416V14.6396L330.101 14.9644ZM332.42 18.063C332.315 18.1805 332.185 18.3073 332.031 18.4434C331.882 18.5732 331.703 18.6938 331.493 18.8052C331.289 18.9103 331.047 19 330.769 19.0742C330.491 19.1484 330.178 19.1855 329.832 19.1855C329.337 19.1855 328.88 19.1082 328.459 18.9536C328.045 18.7928 327.68 18.5701 327.364 18.2856C327.049 18.0011 326.801 17.6733 326.622 17.3022C326.443 16.925 326.353 16.5168 326.353 16.0776C326.353 15.2798 326.6 14.6273 327.095 14.1201C327.59 13.613 328.273 13.2944 329.146 13.1646L332.003 12.7471V12.5615C332.003 12.1162 331.867 11.7637 331.595 11.5039C331.323 11.2441 330.88 11.1143 330.268 11.1143C330.014 11.1143 329.758 11.1452 329.498 11.207C329.238 11.2627 328.988 11.3276 328.747 11.4019C328.512 11.4761 328.292 11.5627 328.088 11.6616C327.884 11.7544 327.704 11.8379 327.55 11.9121L326.548 9.95459C327.117 9.63916 327.748 9.37939 328.44 9.17529C329.139 8.97119 329.863 8.86914 330.611 8.86914C331.069 8.86914 331.53 8.91862 331.994 9.01758C332.464 9.11035 332.887 9.28353 333.265 9.53711C333.648 9.79069 333.96 10.137 334.202 10.5762C334.443 11.0091 334.563 11.5627 334.563 12.2368V16.3188C334.563 16.6095 334.638 16.826 334.786 16.9683C334.941 17.1043 335.151 17.2311 335.417 17.3486L334.257 19.1855C333.787 19.1361 333.41 19.0155 333.125 18.8237C332.841 18.6258 332.606 18.3722 332.42 18.063ZM336.707 9.06396H339.267V9.91748C339.403 9.78141 339.555 9.65153 339.722 9.52783C339.895 9.39795 340.083 9.28662 340.288 9.19385C340.492 9.09489 340.717 9.01758 340.965 8.96191C341.218 8.90007 341.497 8.86914 341.8 8.86914C342.338 8.86914 342.82 8.95882 343.247 9.13818C343.674 9.31136 344.033 9.55257 344.323 9.86182C344.62 10.1711 344.846 10.5329 345 10.9473C345.155 11.3617 345.232 11.8101 345.232 12.2925V19H342.672V13.2202C342.672 12.8677 342.632 12.5708 342.551 12.3296C342.471 12.0822 342.36 11.8843 342.217 11.7358C342.081 11.5812 341.917 11.4699 341.726 11.4019C341.54 11.3276 341.336 11.2905 341.113 11.2905C340.854 11.2905 340.609 11.3369 340.38 11.4297C340.158 11.5225 339.963 11.6647 339.796 11.8564C339.629 12.042 339.499 12.277 339.406 12.5615C339.313 12.846 339.267 13.18 339.267 13.5635V19H336.707V9.06396ZM355.827 19H353.267V18.1465C353.124 18.2826 352.97 18.4155 352.803 18.5454C352.636 18.6691 352.45 18.7804 352.246 18.8794C352.042 18.9722 351.813 19.0464 351.56 19.1021C351.312 19.1577 351.037 19.1855 350.734 19.1855C350.196 19.1855 349.713 19.099 349.287 18.9258C348.86 18.7464 348.498 18.5052 348.201 18.2021C347.91 17.8929 347.688 17.5311 347.533 17.1167C347.379 16.7023 347.301 16.2539 347.301 15.7715V9.06396H349.862V14.8345C349.862 15.187 349.899 15.487 349.973 15.7344C350.054 15.9818 350.162 16.1828 350.298 16.3374C350.44 16.4858 350.607 16.5972 350.799 16.6714C350.991 16.7394 351.198 16.7734 351.42 16.7734C351.68 16.7734 351.921 16.7271 352.144 16.6343C352.373 16.5415 352.571 16.4023 352.738 16.2168C352.905 16.0251 353.035 15.7869 353.127 15.5024C353.22 15.2179 353.267 14.884 353.267 14.5005V9.06396H355.827V19ZM361.254 14.9644C360.939 15.0138 360.685 15.1252 360.494 15.2983C360.302 15.4653 360.206 15.6942 360.206 15.9849C360.206 16.3065 360.324 16.5848 360.559 16.8198C360.794 17.0487 361.14 17.1631 361.598 17.1631C362.08 17.1631 362.46 17.0239 362.739 16.7456C363.017 16.4673 363.156 16.0993 363.156 15.6416V14.6396L361.254 14.9644ZM363.574 18.063C363.469 18.1805 363.339 18.3073 363.184 18.4434C363.036 18.5732 362.856 18.6938 362.646 18.8052C362.442 18.9103 362.201 19 361.922 19.0742C361.644 19.1484 361.332 19.1855 360.985 19.1855C360.491 19.1855 360.033 19.1082 359.612 18.9536C359.198 18.7928 358.833 18.5701 358.518 18.2856C358.202 18.0011 357.955 17.6733 357.775 17.3022C357.596 16.925 357.506 16.5168 357.506 16.0776C357.506 15.2798 357.754 14.6273 358.249 14.1201C358.743 13.613 359.427 13.2944 360.299 13.1646L363.156 12.7471V12.5615C363.156 12.1162 363.02 11.7637 362.748 11.5039C362.476 11.2441 362.034 11.1143 361.421 11.1143C361.168 11.1143 360.911 11.1452 360.651 11.207C360.392 11.2627 360.141 11.3276 359.9 11.4019C359.665 11.4761 359.445 11.5627 359.241 11.6616C359.037 11.7544 358.858 11.8379 358.703 11.9121L357.701 9.95459C358.27 9.63916 358.901 9.37939 359.594 9.17529C360.293 8.97119 361.016 8.86914 361.765 8.86914C362.222 8.86914 362.683 8.91862 363.147 9.01758C363.617 9.11035 364.041 9.28353 364.418 9.53711C364.801 9.79069 365.114 10.137 365.355 10.5762C365.596 11.0091 365.717 11.5627 365.717 12.2368V16.3188C365.717 16.6095 365.791 16.826 365.939 16.9683C366.094 17.1043 366.304 17.2311 366.57 17.3486L365.411 19.1855C364.941 19.1361 364.563 19.0155 364.279 18.8237C363.994 18.6258 363.759 18.3722 363.574 18.063ZM367.823 5.69629H370.383V16.3003C370.383 16.5106 370.442 16.6714 370.56 16.7827C370.683 16.894 370.878 16.9497 371.144 16.9497C371.268 16.9497 371.373 16.9435 371.459 16.9312C371.552 16.9126 371.67 16.8879 371.812 16.8569L372.016 19.0371C371.843 19.0618 371.657 19.0866 371.459 19.1113C371.292 19.1299 371.098 19.1453 370.875 19.1577C370.659 19.1763 370.433 19.1855 370.198 19.1855C369.833 19.1855 369.505 19.1392 369.214 19.0464C368.924 18.9536 368.673 18.8175 368.463 18.6382C368.259 18.4526 368.101 18.2238 367.99 17.9517C367.878 17.6795 367.823 17.3641 367.823 17.0054V5.69629Z" fill="white"/>
<rect width="155" height="27" transform="translate(390)" fill="#4C2C92"/>
<path d="M409.729 12.3481C409.729 13.3439 409.592 14.2531 409.32 15.0757C409.054 15.8921 408.652 16.591 408.114 17.1724C407.582 17.7537 406.914 18.2052 406.11 18.5269C405.306 18.8423 404.366 19 403.29 19H398.392V5.69629H403.29C404.366 5.69629 405.306 5.8571 406.11 6.17871C406.914 6.49414 407.582 6.94255 408.114 7.52393C408.652 8.10531 409.054 8.80729 409.32 9.62988C409.592 10.4463 409.729 11.3524 409.729 12.3481ZM406.936 12.0884C406.936 11.5256 406.865 11.0029 406.723 10.5205C406.587 10.0319 406.364 9.60824 406.055 9.24951C405.752 8.89079 405.356 8.60938 404.867 8.40527C404.379 8.19499 403.788 8.08984 403.095 8.08984H401.082V16.6064H403.095C403.782 16.6064 404.369 16.5044 404.858 16.3003C405.347 16.09 405.742 15.8055 406.045 15.4468C406.355 15.0819 406.58 14.6551 406.723 14.1665C406.865 13.6779 406.936 13.1553 406.936 12.5986V12.0884ZM413.755 14.918C413.798 15.2148 413.891 15.487 414.033 15.7344C414.182 15.9818 414.367 16.1951 414.59 16.3745C414.812 16.5477 415.069 16.6838 415.36 16.7827C415.651 16.8817 415.96 16.9312 416.288 16.9312C416.665 16.9312 417.073 16.86 417.512 16.7178C417.951 16.5693 418.353 16.356 418.718 16.0776L419.952 17.8774C419.488 18.2671 418.919 18.5825 418.245 18.8237C417.571 19.0649 416.854 19.1855 416.093 19.1855C415.406 19.1855 414.76 19.068 414.154 18.833C413.548 18.598 413.016 18.2578 412.558 17.8125C412.107 17.3672 411.748 16.826 411.482 16.189C411.222 15.5519 411.092 14.8345 411.092 14.0366C411.092 13.3068 411.207 12.6265 411.436 11.9956C411.671 11.3647 411.995 10.8174 412.41 10.3535C412.83 9.88965 413.331 9.52783 413.913 9.26807C414.494 9.00212 415.137 8.86914 415.842 8.86914C416.498 8.86914 417.107 8.98975 417.67 9.23096C418.233 9.46598 418.721 9.79997 419.136 10.2329C419.55 10.6597 419.875 11.173 420.11 11.7729C420.345 12.3729 420.462 13.0347 420.462 13.7583V14.918H413.755ZM415.833 11.0957C415.283 11.0957 414.816 11.2812 414.432 11.6523C414.055 12.0173 413.835 12.4595 413.773 12.979H417.781C417.769 12.4533 417.577 12.008 417.206 11.6431C416.835 11.2782 416.377 11.0957 415.833 11.0957ZM425.76 16.0405C425.76 16.158 425.775 16.2694 425.806 16.3745C425.837 16.4797 425.89 16.5724 425.964 16.6528C426.044 16.7271 426.156 16.7858 426.298 16.8291C426.44 16.8724 426.623 16.894 426.845 16.894C426.938 16.894 427.043 16.891 427.161 16.8848C427.278 16.8724 427.396 16.86 427.513 16.8477C427.631 16.8353 427.739 16.8198 427.838 16.8013C427.943 16.7827 428.03 16.7673 428.098 16.7549L428.33 19.0186C428.088 19.0495 427.838 19.0773 427.578 19.1021C427.355 19.1268 427.108 19.1453 426.836 19.1577C426.564 19.1763 426.289 19.1855 426.01 19.1855C425.126 19.1855 424.436 18.9845 423.941 18.5825C423.447 18.1805 423.199 17.5404 423.199 16.6621V11.2905H421.409V9.06396H423.199V6.25293L425.76 5.56641V9.06396H428.367V11.2905H425.76V16.0405ZM433.191 14.9644C432.875 15.0138 432.622 15.1252 432.43 15.2983C432.238 15.4653 432.143 15.6942 432.143 15.9849C432.143 16.3065 432.26 16.5848 432.495 16.8198C432.73 17.0487 433.076 17.1631 433.534 17.1631C434.017 17.1631 434.397 17.0239 434.675 16.7456C434.954 16.4673 435.093 16.0993 435.093 15.6416V14.6396L433.191 14.9644ZM435.51 18.063C435.405 18.1805 435.275 18.3073 435.121 18.4434C434.972 18.5732 434.793 18.6938 434.583 18.8052C434.378 18.9103 434.137 19 433.859 19.0742C433.581 19.1484 433.268 19.1855 432.922 19.1855C432.427 19.1855 431.969 19.1082 431.549 18.9536C431.134 18.7928 430.77 18.5701 430.454 18.2856C430.139 18.0011 429.891 17.6733 429.712 17.3022C429.533 16.925 429.443 16.5168 429.443 16.0776C429.443 15.2798 429.69 14.6273 430.185 14.1201C430.68 13.613 431.363 13.2944 432.235 13.1646L435.093 12.7471V12.5615C435.093 12.1162 434.957 11.7637 434.685 11.5039C434.412 11.2441 433.97 11.1143 433.358 11.1143C433.104 11.1143 432.848 11.1452 432.588 11.207C432.328 11.2627 432.078 11.3276 431.836 11.4019C431.601 11.4761 431.382 11.5627 431.178 11.6616C430.974 11.7544 430.794 11.8379 430.64 11.9121L429.638 9.95459C430.207 9.63916 430.838 9.37939 431.53 9.17529C432.229 8.97119 432.953 8.86914 433.701 8.86914C434.159 8.86914 434.62 8.91862 435.083 9.01758C435.554 9.11035 435.977 9.28353 436.354 9.53711C436.738 9.79069 437.05 10.137 437.292 10.5762C437.533 11.0091 437.653 11.5627 437.653 12.2368V16.3188C437.653 16.6095 437.728 16.826 437.876 16.9683C438.031 17.1043 438.241 17.2311 438.507 17.3486L437.347 19.1855C436.877 19.1361 436.5 19.0155 436.215 18.8237C435.931 18.6258 435.696 18.3722 435.51 18.063ZM442.357 19H439.796V9.06396H442.357V19ZM439.527 6.45703C439.527 6.24674 439.568 6.04883 439.648 5.86328C439.728 5.67155 439.837 5.50765 439.973 5.37158C440.115 5.22933 440.279 5.118 440.464 5.0376C440.65 4.95719 440.851 4.91699 441.067 4.91699C441.278 4.91699 441.476 4.95719 441.661 5.0376C441.853 5.118 442.017 5.22933 442.153 5.37158C442.295 5.50765 442.406 5.67155 442.487 5.86328C442.567 6.04883 442.607 6.24674 442.607 6.45703C442.607 6.6735 442.567 6.87451 442.487 7.06006C442.406 7.24561 442.295 7.40951 442.153 7.55176C442.017 7.68783 441.853 7.79606 441.661 7.87646C441.476 7.95687 441.278 7.99707 441.067 7.99707C440.851 7.99707 440.65 7.95687 440.464 7.87646C440.279 7.79606 440.115 7.68783 439.973 7.55176C439.837 7.40951 439.728 7.24561 439.648 7.06006C439.568 6.87451 439.527 6.6735 439.527 6.45703ZM444.565 9.06396H447.125V9.91748C447.262 9.78141 447.413 9.65153 447.58 9.52783C447.753 9.39795 447.942 9.28662 448.146 9.19385C448.35 9.09489 448.576 9.01758 448.823 8.96191C449.077 8.90007 449.355 8.86914 449.658 8.86914C450.196 8.86914 450.679 8.95882 451.105 9.13818C451.532 9.31136 451.891 9.55257 452.182 9.86182C452.479 10.1711 452.704 10.5329 452.859 10.9473C453.014 11.3617 453.091 11.8101 453.091 12.2925V19H450.53V13.2202C450.53 12.8677 450.49 12.5708 450.41 12.3296C450.329 12.0822 450.218 11.8843 450.076 11.7358C449.94 11.5812 449.776 11.4699 449.584 11.4019C449.398 11.3276 449.194 11.2905 448.972 11.2905C448.712 11.2905 448.468 11.3369 448.239 11.4297C448.016 11.5225 447.821 11.6647 447.654 11.8564C447.487 12.042 447.357 12.277 447.265 12.5615C447.172 12.846 447.125 13.18 447.125 13.5635V19H444.565V9.06396ZM457.377 14.918C457.42 15.2148 457.513 15.487 457.655 15.7344C457.804 15.9818 457.989 16.1951 458.212 16.3745C458.435 16.5477 458.691 16.6838 458.982 16.7827C459.273 16.8817 459.582 16.9312 459.91 16.9312C460.287 16.9312 460.695 16.86 461.134 16.7178C461.573 16.5693 461.975 16.356 462.34 16.0776L463.574 17.8774C463.11 18.2671 462.541 18.5825 461.867 18.8237C461.193 19.0649 460.476 19.1855 459.715 19.1855C459.028 19.1855 458.382 19.068 457.776 18.833C457.17 18.598 456.638 18.2578 456.18 17.8125C455.729 17.3672 455.37 16.826 455.104 16.189C454.844 15.5519 454.714 14.8345 454.714 14.0366C454.714 13.3068 454.829 12.6265 455.058 11.9956C455.293 11.3647 455.617 10.8174 456.032 10.3535C456.452 9.88965 456.953 9.52783 457.535 9.26807C458.116 9.00212 458.759 8.86914 459.464 8.86914C460.12 8.86914 460.729 8.98975 461.292 9.23096C461.855 9.46598 462.343 9.79997 462.758 10.2329C463.172 10.6597 463.497 11.173 463.732 11.7729C463.967 12.3729 464.084 13.0347 464.084 13.7583V14.918H457.377ZM459.455 11.0957C458.905 11.0957 458.438 11.2812 458.054 11.6523C457.677 12.0173 457.457 12.4595 457.396 12.979H461.403C461.391 12.4533 461.199 12.008 460.828 11.6431C460.457 11.2782 459.999 11.0957 459.455 11.0957ZM472.1 19V18.1465C471.964 18.2949 471.812 18.4341 471.646 18.564C471.485 18.6877 471.302 18.7959 471.098 18.8887C470.9 18.9814 470.681 19.0526 470.439 19.1021C470.204 19.1577 469.942 19.1855 469.651 19.1855C468.995 19.1855 468.395 19.0557 467.851 18.7959C467.307 18.5361 466.84 18.1774 466.45 17.7197C466.061 17.262 465.757 16.7178 465.541 16.0869C465.331 15.4561 465.226 14.7726 465.226 14.0366C465.226 13.3006 465.331 12.6172 465.541 11.9863C465.751 11.3555 466.045 10.8112 466.422 10.3535C466.806 9.88965 467.267 9.52783 467.805 9.26807C468.343 9.00212 468.94 8.86914 469.595 8.86914C470.177 8.86914 470.668 8.97119 471.07 9.17529C471.479 9.37321 471.822 9.62061 472.1 9.91748V5.69629H474.661V19H472.1ZM472.174 13.1089C472.174 12.8429 472.125 12.5955 472.026 12.3667C471.933 12.1379 471.797 11.9399 471.618 11.7729C471.438 11.606 471.222 11.4761 470.968 11.3833C470.721 11.2905 470.439 11.2441 470.124 11.2441C469.759 11.2441 469.434 11.3122 469.15 11.4482C468.872 11.5843 468.637 11.776 468.445 12.0234C468.253 12.2646 468.108 12.5522 468.009 12.8862C467.91 13.2202 467.86 13.5851 467.86 13.981V14.1016C467.86 14.4974 467.91 14.8623 468.009 15.1963C468.108 15.5241 468.253 15.8086 468.445 16.0498C468.637 16.291 468.872 16.4797 469.15 16.6157C469.434 16.7456 469.759 16.8105 470.124 16.8105C470.439 16.8105 470.721 16.7642 470.968 16.6714C471.222 16.5786 471.438 16.4487 471.618 16.2817C471.797 16.1147 471.933 15.9199 472.026 15.6973C472.125 15.4684 472.174 15.221 472.174 14.9551V13.1089ZM483.511 14.9644C483.196 15.0138 482.942 15.1252 482.75 15.2983C482.559 15.4653 482.463 15.6942 482.463 15.9849C482.463 16.3065 482.58 16.5848 482.815 16.8198C483.05 17.0487 483.397 17.1631 483.854 17.1631C484.337 17.1631 484.717 17.0239 484.996 16.7456C485.274 16.4673 485.413 16.0993 485.413 15.6416V14.6396L483.511 14.9644ZM485.831 18.063C485.725 18.1805 485.596 18.3073 485.441 18.4434C485.292 18.5732 485.113 18.6938 484.903 18.8052C484.699 18.9103 484.458 19 484.179 19.0742C483.901 19.1484 483.589 19.1855 483.242 19.1855C482.747 19.1855 482.29 19.1082 481.869 18.9536C481.455 18.7928 481.09 18.5701 480.774 18.2856C480.459 18.0011 480.212 17.6733 480.032 17.3022C479.853 16.925 479.763 16.5168 479.763 16.0776C479.763 15.2798 480.011 14.6273 480.505 14.1201C481 13.613 481.684 13.2944 482.556 13.1646L485.413 12.7471V12.5615C485.413 12.1162 485.277 11.7637 485.005 11.5039C484.733 11.2441 484.291 11.1143 483.678 11.1143C483.425 11.1143 483.168 11.1452 482.908 11.207C482.648 11.2627 482.398 11.3276 482.157 11.4019C481.922 11.4761 481.702 11.5627 481.498 11.6616C481.294 11.7544 481.115 11.8379 480.96 11.9121L479.958 9.95459C480.527 9.63916 481.158 9.37939 481.851 9.17529C482.549 8.97119 483.273 8.86914 484.021 8.86914C484.479 8.86914 484.94 8.91862 485.404 9.01758C485.874 9.11035 486.298 9.28353 486.675 9.53711C487.058 9.79069 487.371 10.137 487.612 10.5762C487.853 11.0091 487.974 11.5627 487.974 12.2368V16.3188C487.974 16.6095 488.048 16.826 488.196 16.9683C488.351 17.1043 488.561 17.2311 488.827 17.3486L487.667 19.1855C487.197 19.1361 486.82 19.0155 486.536 18.8237C486.251 18.6258 486.016 18.3722 485.831 18.063ZM492.677 22.1357H490.117V9.06396H492.677V9.91748C492.956 9.62679 493.299 9.37939 493.707 9.17529C494.115 8.97119 494.61 8.86914 495.191 8.86914C495.847 8.86914 496.441 9.00212 496.973 9.26807C497.511 9.52783 497.972 9.88965 498.355 10.3535C498.738 10.8112 499.035 11.3555 499.246 11.9863C499.456 12.6172 499.561 13.3006 499.561 14.0366C499.561 14.7726 499.453 15.4561 499.236 16.0869C499.02 16.7178 498.717 17.262 498.327 17.7197C497.938 18.1774 497.471 18.5361 496.926 18.7959C496.382 19.0557 495.782 19.1855 495.126 19.1855C494.836 19.1855 494.57 19.1577 494.329 19.1021C494.094 19.0526 493.877 18.9814 493.679 18.8887C493.481 18.7959 493.299 18.6877 493.132 18.564C492.965 18.4341 492.813 18.2949 492.677 18.1465V22.1357ZM492.603 14.9551C492.603 15.221 492.649 15.4684 492.742 15.6973C492.841 15.9199 492.98 16.1147 493.16 16.2817C493.339 16.4487 493.552 16.5786 493.8 16.6714C494.053 16.7642 494.338 16.8105 494.653 16.8105C495.018 16.8105 495.34 16.7456 495.618 16.6157C495.903 16.4797 496.141 16.291 496.333 16.0498C496.524 15.8086 496.67 15.5241 496.769 15.1963C496.868 14.8623 496.917 14.4974 496.917 14.1016V13.981C496.917 13.5851 496.868 13.2202 496.769 12.8862C496.67 12.5522 496.524 12.2646 496.333 12.0234C496.141 11.776 495.903 11.5843 495.618 11.4482C495.34 11.3122 495.018 11.2441 494.653 11.2441C494.338 11.2441 494.053 11.2905 493.8 11.3833C493.552 11.4761 493.339 11.606 493.16 11.7729C492.98 11.9399 492.841 12.1379 492.742 12.3667C492.649 12.5955 492.603 12.8429 492.603 13.1089V14.9551ZM503.829 22.1357H501.268V9.06396H503.829V9.91748C504.107 9.62679 504.45 9.37939 504.858 9.17529C505.267 8.97119 505.761 8.86914 506.343 8.86914C506.998 8.86914 507.592 9.00212 508.124 9.26807C508.662 9.52783 509.123 9.88965 509.506 10.3535C509.89 10.8112 510.187 11.3555 510.397 11.9863C510.607 12.6172 510.712 13.3006 510.712 14.0366C510.712 14.7726 510.604 15.4561 510.388 16.0869C510.171 16.7178 509.868 17.262 509.479 17.7197C509.089 18.1774 508.622 18.5361 508.078 18.7959C507.533 19.0557 506.933 19.1855 506.278 19.1855C505.987 19.1855 505.721 19.1577 505.48 19.1021C505.245 19.0526 505.028 18.9814 504.831 18.8887C504.633 18.7959 504.45 18.6877 504.283 18.564C504.116 18.4341 503.965 18.2949 503.829 18.1465V22.1357ZM503.754 14.9551C503.754 15.221 503.801 15.4684 503.894 15.6973C503.993 15.9199 504.132 16.1147 504.311 16.2817C504.49 16.4487 504.704 16.5786 504.951 16.6714C505.205 16.7642 505.489 16.8105 505.805 16.8105C506.17 16.8105 506.491 16.7456 506.77 16.6157C507.054 16.4797 507.292 16.291 507.484 16.0498C507.676 15.8086 507.821 15.5241 507.92 15.1963C508.019 14.8623 508.068 14.4974 508.068 14.1016V13.981C508.068 13.5851 508.019 13.2202 507.92 12.8862C507.821 12.5522 507.676 12.2646 507.484 12.0234C507.292 11.776 507.054 11.5843 506.77 11.4482C506.491 11.3122 506.17 11.2441 505.805 11.2441C505.489 11.2441 505.205 11.2905 504.951 11.3833C504.704 11.4761 504.49 11.606 504.311 11.7729C504.132 11.9399 503.993 12.1379 503.894 12.3667C503.801 12.5955 503.754 12.8429 503.754 13.1089V14.9551ZM514.562 14.918C514.606 15.2148 514.699 15.487 514.841 15.7344C514.989 15.9818 515.175 16.1951 515.397 16.3745C515.62 16.5477 515.877 16.6838 516.167 16.7827C516.458 16.8817 516.767 16.9312 517.095 16.9312C517.472 16.9312 517.881 16.86 518.32 16.7178C518.759 16.5693 519.161 16.356 519.526 16.0776L520.76 17.8774C520.296 18.2671 519.727 18.5825 519.053 18.8237C518.379 19.0649 517.661 19.1855 516.9 19.1855C516.214 19.1855 515.568 19.068 514.961 18.833C514.355 18.598 513.823 18.2578 513.366 17.8125C512.914 17.3672 512.556 16.826 512.29 16.189C512.03 15.5519 511.9 14.8345 511.9 14.0366C511.9 13.3068 512.014 12.6265 512.243 11.9956C512.478 11.3647 512.803 10.8174 513.217 10.3535C513.638 9.88965 514.139 9.52783 514.72 9.26807C515.302 9.00212 515.945 8.86914 516.65 8.86914C517.306 8.86914 517.915 8.98975 518.478 9.23096C519.04 9.46598 519.529 9.79997 519.943 10.2329C520.358 10.6597 520.682 11.173 520.917 11.7729C521.153 12.3729 521.27 13.0347 521.27 13.7583V14.918H514.562ZM516.641 11.0957C516.09 11.0957 515.623 11.2812 515.24 11.6523C514.862 12.0173 514.643 12.4595 514.581 12.979H518.589C518.576 12.4533 518.385 12.008 518.014 11.6431C517.643 11.2782 517.185 11.0957 516.641 11.0957ZM526.113 14.9644C525.797 15.0138 525.544 15.1252 525.352 15.2983C525.16 15.4653 525.064 15.6942 525.064 15.9849C525.064 16.3065 525.182 16.5848 525.417 16.8198C525.652 17.0487 525.998 17.1631 526.456 17.1631C526.938 17.1631 527.319 17.0239 527.597 16.7456C527.875 16.4673 528.015 16.0993 528.015 15.6416V14.6396L526.113 14.9644ZM528.432 18.063C528.327 18.1805 528.197 18.3073 528.042 18.4434C527.894 18.5732 527.715 18.6938 527.504 18.8052C527.3 18.9103 527.059 19 526.781 19.0742C526.502 19.1484 526.19 19.1855 525.844 19.1855C525.349 19.1855 524.891 19.1082 524.471 18.9536C524.056 18.7928 523.691 18.5701 523.376 18.2856C523.061 18.0011 522.813 17.6733 522.634 17.3022C522.454 16.925 522.365 16.5168 522.365 16.0776C522.365 15.2798 522.612 14.6273 523.107 14.1201C523.602 13.613 524.285 13.2944 525.157 13.1646L528.015 12.7471V12.5615C528.015 12.1162 527.879 11.7637 527.606 11.5039C527.334 11.2441 526.892 11.1143 526.28 11.1143C526.026 11.1143 525.77 11.1452 525.51 11.207C525.25 11.2627 525 11.3276 524.758 11.4019C524.523 11.4761 524.304 11.5627 524.1 11.6616C523.896 11.7544 523.716 11.8379 523.562 11.9121L522.56 9.95459C523.129 9.63916 523.759 9.37939 524.452 9.17529C525.151 8.97119 525.875 8.86914 526.623 8.86914C527.081 8.86914 527.542 8.91862 528.005 9.01758C528.475 9.11035 528.899 9.28353 529.276 9.53711C529.66 9.79069 529.972 10.137 530.213 10.5762C530.455 11.0091 530.575 11.5627 530.575 12.2368V16.3188C530.575 16.6095 530.649 16.826 530.798 16.9683C530.952 17.1043 531.163 17.2311 531.429 17.3486L530.269 19.1855C529.799 19.1361 529.422 19.0155 529.137 18.8237C528.853 18.6258 528.618 18.3722 528.432 18.063ZM532.681 5.69629H535.242V16.3003C535.242 16.5106 535.3 16.6714 535.418 16.7827C535.542 16.894 535.736 16.9497 536.002 16.9497C536.126 16.9497 536.231 16.9435 536.318 16.9312C536.411 16.9126 536.528 16.8879 536.67 16.8569L536.875 19.0371C536.701 19.0618 536.516 19.0866 536.318 19.1113C536.151 19.1299 535.956 19.1453 535.733 19.1577C535.517 19.1763 535.291 19.1855 535.056 19.1855C534.691 19.1855 534.363 19.1392 534.073 19.0464C533.782 18.9536 533.532 18.8175 533.321 18.6382C533.117 18.4526 532.959 18.2238 532.848 17.9517C532.737 17.6795 532.681 17.3641 532.681 17.0054V5.69629Z" fill="white"/>
</svg>
