<svg width="394" height="27" viewBox="0 0 394 27" fill="none" xmlns="http://www.w3.org/2000/svg">
<rect width="259" height="27" fill="#0B0C0C"/>
<path d="M8.3916 5.69629H11.082V16.5137H16.3516V19H8.3916V5.69629ZM19.877 14.918C19.9202 15.2148 20.013 15.487 20.1553 15.7344C20.3037 15.9818 20.4893 16.1951 20.7119 16.3745C20.9346 16.5477 21.1912 16.6838 21.4819 16.7827C21.7726 16.8817 22.0819 16.9312 22.4097 16.9312C22.7869 16.9312 23.1951 16.86 23.6343 16.7178C24.0734 16.5693 24.4754 16.356 24.8403 16.0776L26.0742 17.8774C25.6104 18.2671 25.0413 18.5825 24.3672 18.8237C23.693 19.0649 22.9756 19.1855 22.2148 19.1855C21.5283 19.1855 20.882 19.068 20.2759 18.833C19.6698 18.598 19.1379 18.2578 18.6802 17.8125C18.2287 17.3672 17.87 16.826 17.604 16.189C17.3442 15.5519 17.2144 14.8345 17.2144 14.0366C17.2144 13.3068 17.3288 12.6265 17.5576 11.9956C17.7926 11.3647 18.1174 10.8174 18.5317 10.3535C18.9523 9.88965 19.4533 9.52783 20.0347 9.26807C20.616 9.00212 21.2593 8.86914 21.9644 8.86914C22.62 8.86914 23.2292 8.98975 23.792 9.23096C24.3548 9.46598 24.8434 9.79997 25.2578 10.2329C25.6722 10.6597 25.9969 11.173 26.2319 11.7729C26.467 12.3729 26.5845 13.0347 26.5845 13.7583V14.918H19.877ZM21.9551 11.0957C21.4046 11.0957 20.9377 11.2812 20.5542 11.6523C20.1769 12.0173 19.9574 12.4595 19.8955 12.979H23.9033C23.891 12.4533 23.6992 12.008 23.3281 11.6431C22.957 11.2782 22.4993 11.0957 21.9551 11.0957ZM34.2568 17.2373C34.028 17.5156 33.7064 17.7383 33.292 17.9053C32.8838 18.0661 32.4385 18.1465 31.9561 18.1465C31.2881 18.1465 30.6943 18.029 30.1748 17.7939C29.6553 17.5589 29.2161 17.2373 28.8574 16.8291C28.5049 16.4147 28.2327 15.9261 28.041 15.3633C27.8555 14.8005 27.7627 14.182 27.7627 13.5078C27.7627 12.8522 27.8555 12.2399 28.041 11.6709C28.2327 11.0957 28.5049 10.604 28.8574 10.1958C29.2161 9.78141 29.6553 9.45671 30.1748 9.22168C30.6943 8.98665 31.2881 8.86914 31.9561 8.86914C32.4385 8.86914 32.8838 8.95264 33.292 9.11963C33.7064 9.28662 34.028 9.50928 34.2568 9.7876V9.06396H36.8267V18.9072C36.8267 19.5133 36.7122 20.0329 36.4834 20.4658C36.2546 20.9049 35.9391 21.2637 35.5371 21.542C35.1413 21.8203 34.6805 22.0213 34.1548 22.145C33.6291 22.2749 33.0693 22.3398 32.4756 22.3398C31.752 22.3398 30.9974 22.2533 30.2119 22.0801C29.4264 21.9131 28.7492 21.7028 28.1802 21.4492L28.9038 19.3804C29.077 19.4546 29.2904 19.535 29.5439 19.6216C29.7975 19.7144 30.0697 19.7948 30.3604 19.8628C30.651 19.9308 30.9541 19.9865 31.2695 20.0298C31.5911 20.0793 31.9035 20.104 32.2065 20.104C32.4725 20.104 32.7292 20.0762 32.9766 20.0205C33.224 19.971 33.4404 19.8844 33.626 19.7607C33.8177 19.6432 33.9692 19.4855 34.0806 19.2876C34.1981 19.0959 34.2568 18.8485 34.2568 18.5454V17.2373ZM30.3975 13.5449C30.3975 13.8727 30.4315 14.182 30.4995 14.4727C30.5737 14.7572 30.6882 15.0015 30.8428 15.2056C31.0036 15.4035 31.2077 15.5612 31.4551 15.6787C31.7025 15.79 32.0024 15.8457 32.355 15.8457C33.0539 15.8457 33.5518 15.6261 33.8486 15.187C34.1455 14.7417 34.2939 14.1943 34.2939 13.5449V13.4707C34.2939 13.1429 34.2599 12.8368 34.1919 12.5522C34.1239 12.2677 34.0125 12.0234 33.8579 11.8193C33.7033 11.6152 33.5023 11.4575 33.2549 11.3462C33.0137 11.2287 32.7137 11.1699 32.355 11.1699C31.6623 11.1699 31.1613 11.3895 30.8521 11.8286C30.549 12.2677 30.3975 12.8151 30.3975 13.4707V13.5449ZM42.2446 14.9644C41.9292 15.0138 41.6756 15.1252 41.4839 15.2983C41.2922 15.4653 41.1963 15.6942 41.1963 15.9849C41.1963 16.3065 41.3138 16.5848 41.5488 16.8198C41.7839 17.0487 42.1302 17.1631 42.5879 17.1631C43.0703 17.1631 43.4507 17.0239 43.729 16.7456C44.0073 16.4673 44.1465 16.0993 44.1465 15.6416V14.6396L42.2446 14.9644ZM44.564 18.063C44.4588 18.1805 44.3289 18.3073 44.1743 18.4434C44.0259 18.5732 43.8465 18.6938 43.6362 18.8052C43.4321 18.9103 43.1909 19 42.9126 19.0742C42.6343 19.1484 42.3219 19.1855 41.9756 19.1855C41.4808 19.1855 41.0231 19.1082 40.6025 18.9536C40.1882 18.7928 39.8232 18.5701 39.5078 18.2856C39.1924 18.0011 38.945 17.6733 38.7656 17.3022C38.5863 16.925 38.4966 16.5168 38.4966 16.0776C38.4966 15.2798 38.744 14.6273 39.2388 14.1201C39.7336 13.613 40.417 13.2944 41.2891 13.1646L44.1465 12.7471V12.5615C44.1465 12.1162 44.0104 11.7637 43.7383 11.5039C43.4661 11.2441 43.0239 11.1143 42.4116 11.1143C42.158 11.1143 41.9014 11.1452 41.6416 11.207C41.3818 11.2627 41.1313 11.3276 40.8901 11.4019C40.6551 11.4761 40.4355 11.5627 40.2314 11.6616C40.0273 11.7544 39.848 11.8379 39.6934 11.9121L38.6914 9.95459C39.2604 9.63916 39.8913 9.37939 40.584 9.17529C41.2829 8.97119 42.0065 8.86914 42.7549 8.86914C43.2126 8.86914 43.6733 8.91862 44.1372 9.01758C44.6073 9.11035 45.0309 9.28353 45.4082 9.53711C45.7917 9.79069 46.104 10.137 46.3452 10.5762C46.5864 11.0091 46.707 11.5627 46.707 12.2368V16.3188C46.707 16.6095 46.7812 16.826 46.9297 16.9683C47.0843 17.1043 47.2946 17.2311 47.5605 17.3486L46.4009 19.1855C45.9308 19.1361 45.5535 19.0155 45.269 18.8237C44.9845 18.6258 44.7495 18.3722 44.564 18.063ZM48.813 5.69629H51.3735V16.3003C51.3735 16.5106 51.4323 16.6714 51.5498 16.7827C51.6735 16.894 51.8683 16.9497 52.1343 16.9497C52.258 16.9497 52.3631 16.9435 52.4497 16.9312C52.5425 16.9126 52.66 16.8879 52.8022 16.8569L53.0063 19.0371C52.8332 19.0618 52.6476 19.0866 52.4497 19.1113C52.2827 19.1299 52.0879 19.1453 51.8652 19.1577C51.6488 19.1763 51.423 19.1855 51.188 19.1855C50.8231 19.1855 50.4953 19.1392 50.2046 19.0464C49.9139 18.9536 49.6634 18.8175 49.4531 18.6382C49.249 18.4526 49.0913 18.2238 48.98 17.9517C48.8687 17.6795 48.813 17.3641 48.813 17.0054V5.69629ZM54.3794 5.69629H56.9399V16.3003C56.9399 16.5106 56.9987 16.6714 57.1162 16.7827C57.2399 16.894 57.4347 16.9497 57.7007 16.9497C57.8244 16.9497 57.9295 16.9435 58.0161 16.9312C58.1089 16.9126 58.2264 16.8879 58.3687 16.8569L58.5728 19.0371C58.3996 19.0618 58.214 19.0866 58.0161 19.1113C57.8491 19.1299 57.6543 19.1453 57.4316 19.1577C57.2152 19.1763 56.9894 19.1855 56.7544 19.1855C56.3895 19.1855 56.0617 19.1392 55.771 19.0464C55.4803 18.9536 55.2298 18.8175 55.0195 18.6382C54.8154 18.4526 54.6577 18.2238 54.5464 17.9517C54.4351 17.6795 54.3794 17.3641 54.3794 17.0054V5.69629ZM61.0127 20.1597C61.3034 20.1597 61.5168 20.1071 61.6528 20.002C61.7951 19.8968 61.9064 19.7267 61.9868 19.4917L62.0796 19.1855L58.6377 9.06396H61.4858L63.4619 15.9199L65.104 9.06396H67.915L64.5659 20.2339C64.4546 20.605 64.3 20.9235 64.1021 21.1895C63.9041 21.4554 63.6691 21.6719 63.397 21.8389C63.1248 22.012 62.8218 22.1388 62.4878 22.2192C62.16 22.2996 61.8075 22.3398 61.4302 22.3398C61.2756 22.3398 61.0962 22.3337 60.8921 22.3213C60.6942 22.3089 60.487 22.2904 60.2705 22.2656C60.0602 22.2471 59.8499 22.2223 59.6396 22.1914C59.4355 22.1605 59.2469 22.1234 59.0737 22.0801L59.5562 19.9834C59.7046 20.0205 59.8592 20.0514 60.02 20.0762C60.1623 20.1009 60.3169 20.1195 60.4839 20.1318C60.6571 20.1504 60.8333 20.1597 61.0127 20.1597ZM77.7212 11.5503H77.4521C77.0872 11.5503 76.7378 11.5874 76.4038 11.6616C76.076 11.7358 75.7853 11.8719 75.5317 12.0698C75.2782 12.2616 75.0741 12.5275 74.9194 12.8677C74.771 13.2078 74.6968 13.6439 74.6968 14.1758V19H72.1362V9.06396H74.6968V10.1865C74.8019 10.0195 74.938 9.85872 75.105 9.7041C75.272 9.54948 75.4668 9.41341 75.6895 9.2959C75.9121 9.1722 76.1626 9.07324 76.4409 8.99902C76.7192 8.9248 77.0192 8.8877 77.3408 8.8877H77.7212V11.5503ZM81.46 14.918C81.5033 15.2148 81.596 15.487 81.7383 15.7344C81.8867 15.9818 82.0723 16.1951 82.2949 16.3745C82.5176 16.5477 82.7743 16.6838 83.0649 16.7827C83.3556 16.8817 83.6649 16.9312 83.9927 16.9312C84.37 16.9312 84.7782 16.86 85.2173 16.7178C85.6564 16.5693 86.0584 16.356 86.4233 16.0776L87.6572 17.8774C87.1934 18.2671 86.6243 18.5825 85.9502 18.8237C85.276 19.0649 84.5586 19.1855 83.7979 19.1855C83.1113 19.1855 82.465 19.068 81.8589 18.833C81.2528 18.598 80.7209 18.2578 80.2632 17.8125C79.8117 17.3672 79.453 16.826 79.187 16.189C78.9272 15.5519 78.7974 14.8345 78.7974 14.0366C78.7974 13.3068 78.9118 12.6265 79.1406 11.9956C79.3757 11.3647 79.7004 10.8174 80.1147 10.3535C80.5353 9.88965 81.0363 9.52783 81.6177 9.26807C82.1991 9.00212 82.8423 8.86914 83.5474 8.86914C84.203 8.86914 84.8122 8.98975 85.375 9.23096C85.9378 9.46598 86.4264 9.79997 86.8408 10.2329C87.2552 10.6597 87.5799 11.173 87.8149 11.7729C88.05 12.3729 88.1675 13.0347 88.1675 13.7583V14.918H81.46ZM83.5381 11.0957C82.9876 11.0957 82.5207 11.2812 82.1372 11.6523C81.7599 12.0173 81.5404 12.4595 81.4785 12.979H85.4863C85.474 12.4533 85.2822 12.008 84.9111 11.6431C84.54 11.2782 84.0824 11.0957 83.5381 11.0957ZM92.3608 22.1357H89.8003V9.06396H92.3608V9.91748C92.6392 9.62679 92.9824 9.37939 93.3906 9.17529C93.7988 8.97119 94.2936 8.86914 94.875 8.86914C95.5306 8.86914 96.1243 9.00212 96.6562 9.26807C97.1943 9.52783 97.6551 9.88965 98.0386 10.3535C98.422 10.8112 98.7189 11.3555 98.9292 11.9863C99.1395 12.6172 99.2446 13.3006 99.2446 14.0366C99.2446 14.7726 99.1364 15.4561 98.9199 16.0869C98.7035 16.7178 98.4004 17.262 98.0107 17.7197C97.6211 18.1774 97.1541 18.5361 96.6099 18.7959C96.0656 19.0557 95.4657 19.1855 94.8101 19.1855C94.5194 19.1855 94.2534 19.1577 94.0122 19.1021C93.7772 19.0526 93.5607 18.9814 93.3628 18.8887C93.1649 18.7959 92.9824 18.6877 92.8154 18.564C92.6484 18.4341 92.4969 18.2949 92.3608 18.1465V22.1357ZM92.2866 14.9551C92.2866 15.221 92.333 15.4684 92.4258 15.6973C92.5247 15.9199 92.6639 16.1147 92.8433 16.2817C93.0226 16.4487 93.236 16.5786 93.4834 16.6714C93.737 16.7642 94.0215 16.8105 94.3369 16.8105C94.7018 16.8105 95.0234 16.7456 95.3018 16.6157C95.5863 16.4797 95.8244 16.291 96.0161 16.0498C96.2078 15.8086 96.3532 15.5241 96.4521 15.1963C96.5511 14.8623 96.6006 14.4974 96.6006 14.1016V13.981C96.6006 13.5851 96.5511 13.2202 96.4521 12.8862C96.3532 12.5522 96.2078 12.2646 96.0161 12.0234C95.8244 11.776 95.5863 11.5843 95.3018 11.4482C95.0234 11.3122 94.7018 11.2441 94.3369 11.2441C94.0215 11.2441 93.737 11.2905 93.4834 11.3833C93.236 11.4761 93.0226 11.606 92.8433 11.7729C92.6639 11.9399 92.5247 12.1379 92.4258 12.3667C92.333 12.5955 92.2866 12.8429 92.2866 13.1089V14.9551ZM106.537 11.5503H106.268C105.903 11.5503 105.553 11.5874 105.219 11.6616C104.891 11.7358 104.601 11.8719 104.347 12.0698C104.094 12.2616 103.889 12.5275 103.735 12.8677C103.586 13.2078 103.512 13.6439 103.512 14.1758V19H100.952V9.06396H103.512V10.1865C103.617 10.0195 103.753 9.85872 103.92 9.7041C104.087 9.54948 104.282 9.41341 104.505 9.2959C104.728 9.1722 104.978 9.07324 105.256 8.99902C105.535 8.9248 105.835 8.8877 106.156 8.8877H106.537V11.5503ZM110.275 14.918C110.319 15.2148 110.411 15.487 110.554 15.7344C110.702 15.9818 110.888 16.1951 111.11 16.3745C111.333 16.5477 111.59 16.6838 111.88 16.7827C112.171 16.8817 112.48 16.9312 112.808 16.9312C113.185 16.9312 113.594 16.86 114.033 16.7178C114.472 16.5693 114.874 16.356 115.239 16.0776L116.473 17.8774C116.009 18.2671 115.44 18.5825 114.766 18.8237C114.091 19.0649 113.374 19.1855 112.613 19.1855C111.927 19.1855 111.28 19.068 110.674 18.833C110.068 18.598 109.536 18.2578 109.079 17.8125C108.627 17.3672 108.268 16.826 108.002 16.189C107.743 15.5519 107.613 14.8345 107.613 14.0366C107.613 13.3068 107.727 12.6265 107.956 11.9956C108.191 11.3647 108.516 10.8174 108.93 10.3535C109.351 9.88965 109.852 9.52783 110.433 9.26807C111.014 9.00212 111.658 8.86914 112.363 8.86914C113.018 8.86914 113.628 8.98975 114.19 9.23096C114.753 9.46598 115.242 9.79997 115.656 10.2329C116.071 10.6597 116.395 11.173 116.63 11.7729C116.865 12.3729 116.983 13.0347 116.983 13.7583V14.918H110.275ZM112.354 11.0957C111.803 11.0957 111.336 11.2812 110.953 11.6523C110.575 12.0173 110.356 12.4595 110.294 12.979H114.302C114.289 12.4533 114.098 12.008 113.727 11.6431C113.355 11.2782 112.898 11.0957 112.354 11.0957ZM119.321 15.8271C119.686 16.1549 120.122 16.4364 120.629 16.6714C121.136 16.9064 121.649 17.0239 122.169 17.0239C122.546 17.0239 122.843 16.9528 123.06 16.8105C123.276 16.6621 123.384 16.4735 123.384 16.2446C123.384 15.855 122.967 15.5519 122.132 15.3354L121.408 15.1406C121.049 15.054 120.688 14.9365 120.323 14.7881C119.958 14.6335 119.621 14.4325 119.312 14.1851C119.008 13.9377 118.761 13.6377 118.569 13.2852C118.384 12.9264 118.291 12.4873 118.291 11.9678C118.291 11.5534 118.381 11.1606 118.56 10.7896C118.746 10.4123 119.005 10.0814 119.339 9.79688C119.68 9.51237 120.091 9.28662 120.573 9.11963C121.056 8.95264 121.594 8.86914 122.188 8.86914C123.035 8.86914 123.789 9.00212 124.451 9.26807C125.119 9.53402 125.645 9.83398 126.028 10.168L124.692 11.875C124.377 11.6462 124.003 11.4513 123.57 11.2905C123.143 11.1235 122.713 11.04 122.28 11.04C121.878 11.04 121.566 11.1143 121.343 11.2627C121.121 11.4049 121.009 11.5781 121.009 11.7822C121.009 11.9987 121.105 12.175 121.297 12.311C121.495 12.4409 121.779 12.5553 122.15 12.6543L123.227 12.9604C124.253 13.2511 124.989 13.6439 125.435 14.1387C125.88 14.6335 126.103 15.2581 126.103 16.0127C126.103 16.4333 126.016 16.8353 125.843 17.2188C125.67 17.596 125.416 17.9331 125.082 18.23C124.748 18.5269 124.334 18.7619 123.839 18.9351C123.344 19.1021 122.781 19.1855 122.15 19.1855C121.668 19.1855 121.213 19.1423 120.787 19.0557C120.366 18.9691 119.973 18.8516 119.608 18.7031C119.25 18.5485 118.925 18.3753 118.634 18.1836C118.344 17.9919 118.096 17.8001 117.892 17.6084L119.321 15.8271ZM129.906 14.918C129.95 15.2148 130.042 15.487 130.185 15.7344C130.333 15.9818 130.519 16.1951 130.741 16.3745C130.964 16.5477 131.221 16.6838 131.511 16.7827C131.802 16.8817 132.111 16.9312 132.439 16.9312C132.816 16.9312 133.224 16.86 133.664 16.7178C134.103 16.5693 134.505 16.356 134.87 16.0776L136.104 17.8774C135.64 18.2671 135.071 18.5825 134.396 18.8237C133.722 19.0649 133.005 19.1855 132.244 19.1855C131.558 19.1855 130.911 19.068 130.305 18.833C129.699 18.598 129.167 18.2578 128.709 17.8125C128.258 17.3672 127.899 16.826 127.633 16.189C127.374 15.5519 127.244 14.8345 127.244 14.0366C127.244 13.3068 127.358 12.6265 127.587 11.9956C127.822 11.3647 128.147 10.8174 128.561 10.3535C128.982 9.88965 129.483 9.52783 130.064 9.26807C130.645 9.00212 131.289 8.86914 131.994 8.86914C132.649 8.86914 133.258 8.98975 133.821 9.23096C134.384 9.46598 134.873 9.79997 135.287 10.2329C135.701 10.6597 136.026 11.173 136.261 11.7729C136.496 12.3729 136.614 13.0347 136.614 13.7583V14.918H129.906ZM131.984 11.0957C131.434 11.0957 130.967 11.2812 130.583 11.6523C130.206 12.0173 129.987 12.4595 129.925 12.979H133.933C133.92 12.4533 133.729 12.008 133.357 11.6431C132.986 11.2782 132.529 11.0957 131.984 11.0957ZM138.247 9.06396H140.807V9.91748C140.943 9.78141 141.095 9.65153 141.262 9.52783C141.435 9.39795 141.624 9.28662 141.828 9.19385C142.032 9.09489 142.257 9.01758 142.505 8.96191C142.758 8.90007 143.037 8.86914 143.34 8.86914C143.878 8.86914 144.36 8.95882 144.787 9.13818C145.214 9.31136 145.573 9.55257 145.863 9.86182C146.16 10.1711 146.386 10.5329 146.541 10.9473C146.695 11.3617 146.772 11.8101 146.772 12.2925V19H144.212V13.2202C144.212 12.8677 144.172 12.5708 144.091 12.3296C144.011 12.0822 143.9 11.8843 143.757 11.7358C143.621 11.5812 143.457 11.4699 143.266 11.4019C143.08 11.3276 142.876 11.2905 142.653 11.2905C142.394 11.2905 142.149 11.3369 141.92 11.4297C141.698 11.5225 141.503 11.6647 141.336 11.8564C141.169 12.042 141.039 12.277 140.946 12.5615C140.854 12.846 140.807 13.18 140.807 13.5635V19H138.247V9.06396ZM152.58 16.0405C152.58 16.158 152.596 16.2694 152.626 16.3745C152.657 16.4797 152.71 16.5724 152.784 16.6528C152.865 16.7271 152.976 16.7858 153.118 16.8291C153.26 16.8724 153.443 16.894 153.666 16.894C153.758 16.894 153.863 16.891 153.981 16.8848C154.098 16.8724 154.216 16.86 154.333 16.8477C154.451 16.8353 154.559 16.8198 154.658 16.8013C154.763 16.7827 154.85 16.7673 154.918 16.7549L155.15 19.0186C154.909 19.0495 154.658 19.0773 154.398 19.1021C154.176 19.1268 153.928 19.1453 153.656 19.1577C153.384 19.1763 153.109 19.1855 152.831 19.1855C151.946 19.1855 151.257 18.9845 150.762 18.5825C150.267 18.1805 150.02 17.5404 150.02 16.6621V11.2905H148.229V9.06396H150.02V6.25293L152.58 5.56641V9.06396H155.187V11.2905H152.58V16.0405ZM158.944 14.918C158.988 15.2148 159.08 15.487 159.223 15.7344C159.371 15.9818 159.557 16.1951 159.779 16.3745C160.002 16.5477 160.259 16.6838 160.549 16.7827C160.84 16.8817 161.149 16.9312 161.477 16.9312C161.854 16.9312 162.263 16.86 162.702 16.7178C163.141 16.5693 163.543 16.356 163.908 16.0776L165.142 17.8774C164.678 18.2671 164.109 18.5825 163.435 18.8237C162.76 19.0649 162.043 19.1855 161.282 19.1855C160.596 19.1855 159.949 19.068 159.343 18.833C158.737 18.598 158.205 18.2578 157.748 17.8125C157.296 17.3672 156.937 16.826 156.671 16.189C156.412 15.5519 156.282 14.8345 156.282 14.0366C156.282 13.3068 156.396 12.6265 156.625 11.9956C156.86 11.3647 157.185 10.8174 157.599 10.3535C158.02 9.88965 158.521 9.52783 159.102 9.26807C159.683 9.00212 160.327 8.86914 161.032 8.86914C161.687 8.86914 162.297 8.98975 162.859 9.23096C163.422 9.46598 163.911 9.79997 164.325 10.2329C164.74 10.6597 165.064 11.173 165.299 11.7729C165.534 12.3729 165.652 13.0347 165.652 13.7583V14.918H158.944ZM161.022 11.0957C160.472 11.0957 160.005 11.2812 159.622 11.6523C159.244 12.0173 159.025 12.4595 158.963 12.979H162.971C162.958 12.4533 162.767 12.008 162.396 11.6431C162.024 11.2782 161.567 11.0957 161.022 11.0957ZM173.667 19V18.1465C173.531 18.2949 173.38 18.4341 173.213 18.564C173.052 18.6877 172.87 18.7959 172.666 18.8887C172.468 18.9814 172.248 19.0526 172.007 19.1021C171.772 19.1577 171.509 19.1855 171.218 19.1855C170.563 19.1855 169.963 19.0557 169.418 18.7959C168.874 18.5361 168.407 18.1774 168.018 17.7197C167.628 17.262 167.325 16.7178 167.108 16.0869C166.898 15.4561 166.793 14.7726 166.793 14.0366C166.793 13.3006 166.898 12.6172 167.108 11.9863C167.319 11.3555 167.612 10.8112 167.99 10.3535C168.373 9.88965 168.834 9.52783 169.372 9.26807C169.91 9.00212 170.507 8.86914 171.163 8.86914C171.744 8.86914 172.236 8.97119 172.638 9.17529C173.046 9.37321 173.389 9.62061 173.667 9.91748V5.69629H176.228V19H173.667ZM173.742 13.1089C173.742 12.8429 173.692 12.5955 173.593 12.3667C173.5 12.1379 173.364 11.9399 173.185 11.7729C173.006 11.606 172.789 11.4761 172.536 11.3833C172.288 11.2905 172.007 11.2441 171.691 11.2441C171.326 11.2441 171.002 11.3122 170.717 11.4482C170.439 11.5843 170.204 11.776 170.012 12.0234C169.82 12.2646 169.675 12.5522 169.576 12.8862C169.477 13.2202 169.428 13.5851 169.428 13.981V14.1016C169.428 14.4974 169.477 14.8623 169.576 15.1963C169.675 15.5241 169.82 15.8086 170.012 16.0498C170.204 16.291 170.439 16.4797 170.717 16.6157C171.002 16.7456 171.326 16.8105 171.691 16.8105C172.007 16.8105 172.288 16.7642 172.536 16.6714C172.789 16.5786 173.006 16.4487 173.185 16.2817C173.364 16.1147 173.5 15.9199 173.593 15.6973C173.692 15.4684 173.742 15.221 173.742 14.9551V13.1089ZM181.145 11.9121H185.134V14.2129H181.145V11.9121ZM198.429 19H195.859V13.2202C195.859 12.8677 195.819 12.5708 195.738 12.3296C195.664 12.0822 195.559 11.8843 195.423 11.7358C195.287 11.5812 195.129 11.473 194.95 11.4111C194.77 11.3431 194.576 11.3091 194.365 11.3091C194.118 11.3091 193.886 11.3524 193.669 11.439C193.459 11.5256 193.274 11.6616 193.113 11.8472C192.958 12.0327 192.834 12.2708 192.742 12.5615C192.655 12.846 192.612 13.1862 192.612 13.582V19H190.051V9.06396H192.612V9.93604C192.94 9.57113 193.32 9.30208 193.753 9.12891C194.192 8.95573 194.662 8.86914 195.163 8.86914C195.676 8.86914 196.156 8.97428 196.601 9.18457C197.053 9.39486 197.427 9.74121 197.724 10.2236C197.897 9.97624 198.095 9.76595 198.317 9.59277C198.546 9.4196 198.791 9.28044 199.05 9.17529C199.31 9.07015 199.579 8.99284 199.857 8.94336C200.142 8.89388 200.433 8.86914 200.729 8.86914C201.286 8.86914 201.781 8.96191 202.214 9.14746C202.653 9.32682 203.024 9.57113 203.327 9.88037C203.63 10.1896 203.862 10.5452 204.023 10.9473C204.184 11.3493 204.264 11.7729 204.264 12.2183V19H201.676V13.2202C201.676 12.8677 201.636 12.5708 201.555 12.3296C201.481 12.0822 201.376 11.8843 201.24 11.7358C201.104 11.5812 200.943 11.473 200.757 11.4111C200.578 11.3431 200.383 11.3091 200.173 11.3091C199.925 11.3091 199.697 11.3524 199.486 11.439C199.276 11.5256 199.09 11.6616 198.93 11.8472C198.775 12.0327 198.651 12.2708 198.559 12.5615C198.472 12.846 198.429 13.1862 198.429 13.582V19ZM209.608 14.9644C209.292 15.0138 209.039 15.1252 208.847 15.2983C208.655 15.4653 208.56 15.6942 208.56 15.9849C208.56 16.3065 208.677 16.5848 208.912 16.8198C209.147 17.0487 209.493 17.1631 209.951 17.1631C210.434 17.1631 210.814 17.0239 211.092 16.7456C211.371 16.4673 211.51 16.0993 211.51 15.6416V14.6396L209.608 14.9644ZM211.927 18.063C211.822 18.1805 211.692 18.3073 211.538 18.4434C211.389 18.5732 211.21 18.6938 211 18.8052C210.795 18.9103 210.554 19 210.276 19.0742C209.998 19.1484 209.685 19.1855 209.339 19.1855C208.844 19.1855 208.386 19.1082 207.966 18.9536C207.551 18.7928 207.187 18.5701 206.871 18.2856C206.556 18.0011 206.308 17.6733 206.129 17.3022C205.95 16.925 205.86 16.5168 205.86 16.0776C205.86 15.2798 206.107 14.6273 206.602 14.1201C207.097 13.613 207.78 13.2944 208.652 13.1646L211.51 12.7471V12.5615C211.51 12.1162 211.374 11.7637 211.102 11.5039C210.829 11.2441 210.387 11.1143 209.775 11.1143C209.521 11.1143 209.265 11.1452 209.005 11.207C208.745 11.2627 208.495 11.3276 208.253 11.4019C208.018 11.4761 207.799 11.5627 207.595 11.6616C207.391 11.7544 207.211 11.8379 207.057 11.9121L206.055 9.95459C206.624 9.63916 207.255 9.37939 207.947 9.17529C208.646 8.97119 209.37 8.86914 210.118 8.86914C210.576 8.86914 211.037 8.91862 211.5 9.01758C211.971 9.11035 212.394 9.28353 212.771 9.53711C213.155 9.79069 213.467 10.137 213.708 10.5762C213.95 11.0091 214.07 11.5627 214.07 12.2368V16.3188C214.07 16.6095 214.145 16.826 214.293 16.9683C214.448 17.1043 214.658 17.2311 214.924 17.3486L213.764 19.1855C213.294 19.1361 212.917 19.0155 212.632 18.8237C212.348 18.6258 212.113 18.3722 211.927 18.063ZM216.213 9.06396H218.774V9.91748C218.91 9.78141 219.062 9.65153 219.229 9.52783C219.402 9.39795 219.59 9.28662 219.794 9.19385C219.999 9.09489 220.224 9.01758 220.472 8.96191C220.725 8.90007 221.004 8.86914 221.307 8.86914C221.845 8.86914 222.327 8.95882 222.754 9.13818C223.181 9.31136 223.539 9.55257 223.83 9.86182C224.127 10.1711 224.353 10.5329 224.507 10.9473C224.662 11.3617 224.739 11.8101 224.739 12.2925V19H222.179V13.2202C222.179 12.8677 222.139 12.5708 222.058 12.3296C221.978 12.0822 221.866 11.8843 221.724 11.7358C221.588 11.5812 221.424 11.4699 221.232 11.4019C221.047 11.3276 220.843 11.2905 220.62 11.2905C220.36 11.2905 220.116 11.3369 219.887 11.4297C219.665 11.5225 219.47 11.6647 219.303 11.8564C219.136 12.042 219.006 12.277 218.913 12.5615C218.82 12.846 218.774 13.18 218.774 13.5635V19H216.213V9.06396ZM235.334 19H232.773V18.1465C232.631 18.2826 232.477 18.4155 232.31 18.5454C232.143 18.6691 231.957 18.7804 231.753 18.8794C231.549 18.9722 231.32 19.0464 231.066 19.1021C230.819 19.1577 230.544 19.1855 230.241 19.1855C229.703 19.1855 229.22 19.099 228.793 18.9258C228.367 18.7464 228.005 18.5052 227.708 18.2021C227.417 17.8929 227.195 17.5311 227.04 17.1167C226.885 16.7023 226.808 16.2539 226.808 15.7715V9.06396H229.369V14.8345C229.369 15.187 229.406 15.487 229.48 15.7344C229.56 15.9818 229.669 16.1828 229.805 16.3374C229.947 16.4858 230.114 16.5972 230.306 16.6714C230.497 16.7394 230.705 16.7734 230.927 16.7734C231.187 16.7734 231.428 16.7271 231.651 16.6343C231.88 16.5415 232.078 16.4023 232.245 16.2168C232.412 16.0251 232.542 15.7869 232.634 15.5024C232.727 15.2179 232.773 14.884 232.773 14.5005V9.06396H235.334V19ZM240.761 14.9644C240.446 15.0138 240.192 15.1252 240 15.2983C239.809 15.4653 239.713 15.6942 239.713 15.9849C239.713 16.3065 239.83 16.5848 240.065 16.8198C240.3 17.0487 240.647 17.1631 241.104 17.1631C241.587 17.1631 241.967 17.0239 242.246 16.7456C242.524 16.4673 242.663 16.0993 242.663 15.6416V14.6396L240.761 14.9644ZM243.081 18.063C242.975 18.1805 242.846 18.3073 242.691 18.4434C242.542 18.5732 242.363 18.6938 242.153 18.8052C241.949 18.9103 241.708 19 241.429 19.0742C241.151 19.1484 240.839 19.1855 240.492 19.1855C239.997 19.1855 239.54 19.1082 239.119 18.9536C238.705 18.7928 238.34 18.5701 238.024 18.2856C237.709 18.0011 237.462 17.6733 237.282 17.3022C237.103 16.925 237.013 16.5168 237.013 16.0776C237.013 15.2798 237.261 14.6273 237.755 14.1201C238.25 13.613 238.934 13.2944 239.806 13.1646L242.663 12.7471V12.5615C242.663 12.1162 242.527 11.7637 242.255 11.5039C241.983 11.2441 241.541 11.1143 240.928 11.1143C240.675 11.1143 240.418 11.1452 240.158 11.207C239.898 11.2627 239.648 11.3276 239.407 11.4019C239.172 11.4761 238.952 11.5627 238.748 11.6616C238.544 11.7544 238.365 11.8379 238.21 11.9121L237.208 9.95459C237.777 9.63916 238.408 9.37939 239.101 9.17529C239.799 8.97119 240.523 8.86914 241.271 8.86914C241.729 8.86914 242.19 8.91862 242.654 9.01758C243.124 9.11035 243.548 9.28353 243.925 9.53711C244.308 9.79069 244.621 10.137 244.862 10.5762C245.103 11.0091 245.224 11.5627 245.224 12.2368V16.3188C245.224 16.6095 245.298 16.826 245.446 16.9683C245.601 17.1043 245.811 17.2311 246.077 17.3486L244.917 19.1855C244.447 19.1361 244.07 19.0155 243.786 18.8237C243.501 18.6258 243.266 18.3722 243.081 18.063ZM247.33 5.69629H249.89V16.3003C249.89 16.5106 249.949 16.6714 250.066 16.7827C250.19 16.894 250.385 16.9497 250.651 16.9497C250.775 16.9497 250.88 16.9435 250.966 16.9312C251.059 16.9126 251.177 16.8879 251.319 16.8569L251.523 19.0371C251.35 19.0618 251.164 19.0866 250.966 19.1113C250.799 19.1299 250.604 19.1453 250.382 19.1577C250.165 19.1763 249.94 19.1855 249.705 19.1855C249.34 19.1855 249.012 19.1392 248.721 19.0464C248.431 18.9536 248.18 18.8175 247.97 18.6382C247.766 18.4526 247.608 18.2238 247.497 17.9517C247.385 17.6795 247.33 17.3641 247.33 17.0054V5.69629Z" fill="white"/>
<rect width="125" height="27" transform="translate(269)" fill="#EB3223"/>
<path d="M278.282 15.2612C278.455 15.4591 278.666 15.654 278.913 15.8457C279.16 16.0374 279.433 16.2106 279.729 16.3652C280.033 16.5137 280.36 16.6343 280.713 16.7271C281.065 16.8136 281.446 16.8569 281.854 16.8569C282.615 16.8569 283.196 16.6992 283.598 16.3838C284.006 16.0622 284.21 15.6725 284.21 15.2148C284.21 14.7386 284.031 14.3768 283.672 14.1294C283.32 13.882 282.757 13.6872 281.984 13.5449L281.566 13.4707C281.01 13.3717 280.456 13.2419 279.906 13.0811C279.355 12.9202 278.857 12.6883 278.412 12.3853C277.967 12.0822 277.605 11.6956 277.327 11.2256C277.048 10.7493 276.909 10.1494 276.909 9.42578C276.909 9.00521 277.002 8.56608 277.188 8.1084C277.373 7.64453 277.667 7.22087 278.069 6.8374C278.477 6.44775 279 6.12923 279.637 5.88184C280.28 5.63444 281.056 5.51074 281.965 5.51074C283.042 5.51074 284 5.6901 284.841 6.04883C285.689 6.40137 286.372 6.86833 286.892 7.44971L285.101 9.11963C284.736 8.71761 284.266 8.40218 283.691 8.17334C283.122 7.9445 282.534 7.83008 281.928 7.83008C281.229 7.83008 280.682 7.96305 280.286 8.229C279.896 8.49495 279.702 8.84131 279.702 9.26807C279.702 9.54639 279.764 9.77832 279.887 9.96387C280.017 10.1494 280.196 10.304 280.425 10.4277C280.654 10.5452 280.929 10.6442 281.251 10.7246C281.573 10.805 281.931 10.8854 282.327 10.9658L282.541 11.0029C283.072 11.1019 283.601 11.2287 284.127 11.3833C284.653 11.5317 285.129 11.7544 285.556 12.0513C285.989 12.342 286.338 12.7254 286.604 13.2017C286.87 13.6717 287.003 14.2747 287.003 15.0107C287.003 15.6787 286.864 16.2694 286.585 16.7827C286.307 17.2961 285.939 17.7352 285.481 18.1001C285.024 18.4588 284.495 18.731 283.895 18.9165C283.295 19.0959 282.67 19.1855 282.021 19.1855C281.365 19.1855 280.756 19.1299 280.193 19.0186C279.637 18.9072 279.13 18.7495 278.672 18.5454C278.22 18.3413 277.815 18.1125 277.457 17.8589C277.104 17.6053 276.795 17.3332 276.529 17.0425L278.282 15.2612ZM299.063 12.2183C299.063 12.8182 299.017 13.4058 298.924 13.981C298.832 14.5562 298.686 15.1035 298.488 15.623C298.297 16.1364 298.049 16.6126 297.746 17.0518C297.443 17.4847 297.078 17.8589 296.651 18.1743C296.225 18.4897 295.733 18.7371 295.176 18.9165C294.626 19.0959 294.004 19.1855 293.312 19.1855C292.743 19.1855 292.217 19.1175 291.734 18.9814C291.252 18.8392 290.816 18.6475 290.426 18.4062C290.037 18.165 289.7 17.8805 289.415 17.5527C289.131 17.2188 288.908 16.86 288.747 16.4766L291.233 15.5024C291.456 15.923 291.753 16.2415 292.124 16.458C292.501 16.6683 292.928 16.7734 293.404 16.7734C293.868 16.7734 294.276 16.6838 294.629 16.5044C294.981 16.3188 295.272 16.0684 295.501 15.7529C295.736 15.4375 295.912 15.0726 296.03 14.6582C296.147 14.2376 296.203 13.7923 296.197 13.3223C296.042 13.4769 295.86 13.6253 295.649 13.7676C295.439 13.9098 295.204 14.0366 294.944 14.1479C294.691 14.2531 294.412 14.3397 294.109 14.4077C293.812 14.4696 293.5 14.5005 293.172 14.5005C292.523 14.5005 291.917 14.3953 291.354 14.1851C290.797 13.9686 290.312 13.6717 289.897 13.2944C289.489 12.911 289.168 12.4564 288.933 11.9307C288.698 11.4049 288.58 10.8298 288.58 10.2051C288.58 9.53711 288.698 8.91553 288.933 8.34033C289.174 7.76514 289.511 7.27035 289.944 6.85596C290.383 6.43538 290.909 6.10758 291.521 5.87256C292.133 5.63135 292.817 5.51074 293.571 5.51074C294.4 5.51074 295.152 5.65918 295.826 5.95605C296.5 6.24674 297.075 6.66732 297.551 7.21777C298.034 7.76823 298.405 8.43929 298.665 9.23096C298.931 10.0226 299.063 10.9163 299.063 11.9121V12.2183ZM296.067 10.0474C296.067 9.73193 296.011 9.43815 295.9 9.16602C295.789 8.89388 295.628 8.65885 295.417 8.46094C295.213 8.25684 294.966 8.09912 294.675 7.98779C294.385 7.87028 294.063 7.81152 293.71 7.81152C293.346 7.81152 293.018 7.87028 292.727 7.98779C292.436 8.09912 292.189 8.25684 291.985 8.46094C291.781 8.65885 291.623 8.89388 291.512 9.16602C291.407 9.43815 291.354 9.73193 291.354 10.0474C291.354 10.3566 291.407 10.6473 291.512 10.9194C291.623 11.1916 291.781 11.4297 291.985 11.6338C292.189 11.8317 292.436 11.9894 292.727 12.1069C293.018 12.2183 293.346 12.2739 293.71 12.2739C294.063 12.2739 294.385 12.2183 294.675 12.1069C294.966 11.9894 295.213 11.8317 295.417 11.6338C295.628 11.4297 295.789 11.1916 295.9 10.9194C296.011 10.6473 296.067 10.3566 296.067 10.0474ZM306.894 19V15.9941H300.26V13.1274L306.151 5.69629H309.593V13.5635H311.532V15.9941H309.593V19H306.894ZM306.894 13.5635V8.34033L302.756 13.5635H306.894ZM319.362 5.69629C319.919 5.69629 320.435 5.77979 320.912 5.94678C321.388 6.10758 321.802 6.33952 322.155 6.64258C322.507 6.94564 322.783 7.31364 322.98 7.74658C323.178 8.17334 323.277 8.64958 323.277 9.17529C323.277 9.44743 323.237 9.71647 323.157 9.98242C323.083 10.2484 322.971 10.4989 322.823 10.7339C322.674 10.9627 322.495 11.173 322.285 11.3647C322.074 11.5565 321.836 11.7142 321.57 11.8379C321.787 11.9121 322.037 12.0234 322.322 12.1719C322.612 12.3203 322.888 12.5244 323.147 12.7842C323.407 13.0439 323.627 13.3656 323.806 13.749C323.986 14.1263 324.075 14.584 324.075 15.1221C324.075 15.7962 323.945 16.3776 323.686 16.8662C323.432 17.3548 323.086 17.7568 322.646 18.0723C322.214 18.3877 321.703 18.6227 321.116 18.7773C320.534 18.9258 319.919 19 319.27 19H313.443V5.69629H319.362ZM321.32 15.0293C321.32 14.6706 321.255 14.3768 321.125 14.1479C320.995 13.9191 320.822 13.7367 320.605 13.6006C320.395 13.4645 320.154 13.3717 319.882 13.3223C319.61 13.2666 319.331 13.2388 319.047 13.2388H316.134V16.8755H319.047C319.331 16.8755 319.61 16.8477 319.882 16.792C320.154 16.7363 320.395 16.6374 320.605 16.4951C320.822 16.3529 320.995 16.1642 321.125 15.9292C321.255 15.6942 321.32 15.3942 321.32 15.0293ZM320.568 9.44434C320.568 8.93717 320.408 8.54134 320.086 8.25684C319.764 7.97233 319.245 7.83008 318.527 7.83008H316.134V10.9658H318.527C319.232 10.9658 319.749 10.8328 320.077 10.5669C320.404 10.2948 320.568 9.92057 320.568 9.44434ZM332.453 14.9644C332.137 15.0138 331.884 15.1252 331.692 15.2983C331.5 15.4653 331.404 15.6942 331.404 15.9849C331.404 16.3065 331.522 16.5848 331.757 16.8198C331.992 17.0487 332.338 17.1631 332.796 17.1631C333.278 17.1631 333.659 17.0239 333.937 16.7456C334.215 16.4673 334.354 16.0993 334.354 15.6416V14.6396L332.453 14.9644ZM334.772 18.063C334.667 18.1805 334.537 18.3073 334.382 18.4434C334.234 18.5732 334.055 18.6938 333.844 18.8052C333.64 18.9103 333.399 19 333.121 19.0742C332.842 19.1484 332.53 19.1855 332.184 19.1855C331.689 19.1855 331.231 19.1082 330.811 18.9536C330.396 18.7928 330.031 18.5701 329.716 18.2856C329.4 18.0011 329.153 17.6733 328.974 17.3022C328.794 16.925 328.705 16.5168 328.705 16.0776C328.705 15.2798 328.952 14.6273 329.447 14.1201C329.942 13.613 330.625 13.2944 331.497 13.1646L334.354 12.7471V12.5615C334.354 12.1162 334.218 11.7637 333.946 11.5039C333.674 11.2441 333.232 11.1143 332.62 11.1143C332.366 11.1143 332.109 11.1452 331.85 11.207C331.59 11.2627 331.339 11.3276 331.098 11.4019C330.863 11.4761 330.644 11.5627 330.439 11.6616C330.235 11.7544 330.056 11.8379 329.901 11.9121L328.899 9.95459C329.468 9.63916 330.099 9.37939 330.792 9.17529C331.491 8.97119 332.215 8.86914 332.963 8.86914C333.421 8.86914 333.881 8.91862 334.345 9.01758C334.815 9.11035 335.239 9.28353 335.616 9.53711C336 9.79069 336.312 10.137 336.553 10.5762C336.794 11.0091 336.915 11.5627 336.915 12.2368V16.3188C336.915 16.6095 336.989 16.826 337.138 16.9683C337.292 17.1043 337.503 17.2311 337.769 17.3486L336.609 19.1855C336.139 19.1361 335.762 19.0155 335.477 18.8237C335.193 18.6258 334.958 18.3722 334.772 18.063ZM341.619 22.1357H339.058V9.06396H341.619V9.91748C341.897 9.62679 342.24 9.37939 342.648 9.17529C343.057 8.97119 343.551 8.86914 344.133 8.86914C344.788 8.86914 345.382 9.00212 345.914 9.26807C346.452 9.52783 346.913 9.88965 347.296 10.3535C347.68 10.8112 347.977 11.3555 348.187 11.9863C348.397 12.6172 348.502 13.3006 348.502 14.0366C348.502 14.7726 348.394 15.4561 348.178 16.0869C347.961 16.7178 347.658 17.262 347.269 17.7197C346.879 18.1774 346.412 18.5361 345.868 18.7959C345.323 19.0557 344.723 19.1855 344.068 19.1855C343.777 19.1855 343.511 19.1577 343.27 19.1021C343.035 19.0526 342.819 18.9814 342.621 18.8887C342.423 18.7959 342.24 18.6877 342.073 18.564C341.906 18.4341 341.755 18.2949 341.619 18.1465V22.1357ZM341.544 14.9551C341.544 15.221 341.591 15.4684 341.684 15.6973C341.783 15.9199 341.922 16.1147 342.101 16.2817C342.28 16.4487 342.494 16.5786 342.741 16.6714C342.995 16.7642 343.279 16.8105 343.595 16.8105C343.96 16.8105 344.281 16.7456 344.56 16.6157C344.844 16.4797 345.082 16.291 345.274 16.0498C345.466 15.8086 345.611 15.5241 345.71 15.1963C345.809 14.8623 345.858 14.4974 345.858 14.1016V13.981C345.858 13.5851 345.809 13.2202 345.71 12.8862C345.611 12.5522 345.466 12.2646 345.274 12.0234C345.082 11.776 344.844 11.5843 344.56 11.4482C344.281 11.3122 343.96 11.2441 343.595 11.2441C343.279 11.2441 342.995 11.2905 342.741 11.3833C342.494 11.4761 342.28 11.606 342.101 11.7729C341.922 11.9399 341.783 12.1379 341.684 12.3667C341.591 12.5955 341.544 12.8429 341.544 13.1089V14.9551ZM352.77 22.1357H350.209V9.06396H352.77V9.91748C353.048 9.62679 353.392 9.37939 353.8 9.17529C354.208 8.97119 354.703 8.86914 355.284 8.86914C355.94 8.86914 356.534 9.00212 357.065 9.26807C357.604 9.52783 358.064 9.88965 358.448 10.3535C358.831 10.8112 359.128 11.3555 359.338 11.9863C359.549 12.6172 359.654 13.3006 359.654 14.0366C359.654 14.7726 359.546 15.4561 359.329 16.0869C359.113 16.7178 358.81 17.262 358.42 17.7197C358.03 18.1774 357.563 18.5361 357.019 18.7959C356.475 19.0557 355.875 19.1855 355.219 19.1855C354.929 19.1855 354.663 19.1577 354.421 19.1021C354.186 19.0526 353.97 18.9814 353.772 18.8887C353.574 18.7959 353.392 18.6877 353.225 18.564C353.058 18.4341 352.906 18.2949 352.77 18.1465V22.1357ZM352.696 14.9551C352.696 15.221 352.742 15.4684 352.835 15.6973C352.934 15.9199 353.073 16.1147 353.252 16.2817C353.432 16.4487 353.645 16.5786 353.893 16.6714C354.146 16.7642 354.431 16.8105 354.746 16.8105C355.111 16.8105 355.433 16.7456 355.711 16.6157C355.995 16.4797 356.234 16.291 356.425 16.0498C356.617 15.8086 356.762 15.5241 356.861 15.1963C356.96 14.8623 357.01 14.4974 357.01 14.1016V13.981C357.01 13.5851 356.96 13.2202 356.861 12.8862C356.762 12.5522 356.617 12.2646 356.425 12.0234C356.234 11.776 355.995 11.5843 355.711 11.4482C355.433 11.3122 355.111 11.2441 354.746 11.2441C354.431 11.2441 354.146 11.2905 353.893 11.3833C353.645 11.4761 353.432 11.606 353.252 11.7729C353.073 11.9399 352.934 12.1379 352.835 12.3667C352.742 12.5955 352.696 12.8429 352.696 13.1089V14.9551ZM363.504 14.918C363.547 15.2148 363.64 15.487 363.782 15.7344C363.931 15.9818 364.116 16.1951 364.339 16.3745C364.562 16.5477 364.818 16.6838 365.109 16.7827C365.4 16.8817 365.709 16.9312 366.037 16.9312C366.414 16.9312 366.822 16.86 367.261 16.7178C367.7 16.5693 368.102 16.356 368.467 16.0776L369.701 17.8774C369.237 18.2671 368.668 18.5825 367.994 18.8237C367.32 19.0649 366.603 19.1855 365.842 19.1855C365.155 19.1855 364.509 19.068 363.903 18.833C363.297 18.598 362.765 18.2578 362.307 17.8125C361.856 17.3672 361.497 16.826 361.231 16.189C360.971 15.5519 360.841 14.8345 360.841 14.0366C360.841 13.3068 360.956 12.6265 361.185 11.9956C361.42 11.3647 361.744 10.8174 362.159 10.3535C362.579 9.88965 363.08 9.52783 363.662 9.26807C364.243 9.00212 364.886 8.86914 365.591 8.86914C366.247 8.86914 366.856 8.98975 367.419 9.23096C367.982 9.46598 368.47 9.79997 368.885 10.2329C369.299 10.6597 369.624 11.173 369.859 11.7729C370.094 12.3729 370.211 13.0347 370.211 13.7583V14.918H363.504ZM365.582 11.0957C365.032 11.0957 364.565 11.2812 364.181 11.6523C363.804 12.0173 363.584 12.4595 363.522 12.979H367.53C367.518 12.4533 367.326 12.008 366.955 11.6431C366.584 11.2782 366.126 11.0957 365.582 11.0957ZM375.054 14.9644C374.739 15.0138 374.485 15.1252 374.293 15.2983C374.102 15.4653 374.006 15.6942 374.006 15.9849C374.006 16.3065 374.123 16.5848 374.358 16.8198C374.593 17.0487 374.94 17.1631 375.397 17.1631C375.88 17.1631 376.26 17.0239 376.539 16.7456C376.817 16.4673 376.956 16.0993 376.956 15.6416V14.6396L375.054 14.9644ZM377.374 18.063C377.268 18.1805 377.139 18.3073 376.984 18.4434C376.835 18.5732 376.656 18.6938 376.446 18.8052C376.242 18.9103 376 19 375.722 19.0742C375.444 19.1484 375.132 19.1855 374.785 19.1855C374.29 19.1855 373.833 19.1082 373.412 18.9536C372.998 18.7928 372.633 18.5701 372.317 18.2856C372.002 18.0011 371.755 17.6733 371.575 17.3022C371.396 16.925 371.306 16.5168 371.306 16.0776C371.306 15.2798 371.554 14.6273 372.048 14.1201C372.543 13.613 373.227 13.2944 374.099 13.1646L376.956 12.7471V12.5615C376.956 12.1162 376.82 11.7637 376.548 11.5039C376.276 11.2441 375.833 11.1143 375.221 11.1143C374.968 11.1143 374.711 11.1452 374.451 11.207C374.191 11.2627 373.941 11.3276 373.7 11.4019C373.465 11.4761 373.245 11.5627 373.041 11.6616C372.837 11.7544 372.658 11.8379 372.503 11.9121L371.501 9.95459C372.07 9.63916 372.701 9.37939 373.394 9.17529C374.092 8.97119 374.816 8.86914 375.564 8.86914C376.022 8.86914 376.483 8.91862 376.947 9.01758C377.417 9.11035 377.84 9.28353 378.218 9.53711C378.601 9.79069 378.914 10.137 379.155 10.5762C379.396 11.0091 379.517 11.5627 379.517 12.2368V16.3188C379.517 16.6095 379.591 16.826 379.739 16.9683C379.894 17.1043 380.104 17.2311 380.37 17.3486L379.21 19.1855C378.74 19.1361 378.363 19.0155 378.079 18.8237C377.794 18.6258 377.559 18.3722 377.374 18.063ZM381.623 5.69629H384.183V16.3003C384.183 16.5106 384.242 16.6714 384.359 16.7827C384.483 16.894 384.678 16.9497 384.944 16.9497C385.068 16.9497 385.173 16.9435 385.259 16.9312C385.352 16.9126 385.47 16.8879 385.612 16.8569L385.816 19.0371C385.643 19.0618 385.457 19.0866 385.259 19.1113C385.092 19.1299 384.897 19.1453 384.675 19.1577C384.458 19.1763 384.233 19.1855 383.998 19.1855C383.633 19.1855 383.305 19.1392 383.014 19.0464C382.723 18.9536 382.473 18.8175 382.263 18.6382C382.059 18.4526 381.901 18.2238 381.79 17.9517C381.678 17.6795 381.623 17.3641 381.623 17.0054V5.69629Z" fill="white"/>
</svg>
