<svg width="548" height="27" viewBox="0 0 548 27" fill="none" xmlns="http://www.w3.org/2000/svg">
<rect width="114" height="27" fill="#453F86"/>
<path d="M8.3916 5.69629H13.5405C14.3322 5.69629 15.0311 5.81071 15.6372 6.03955C16.2433 6.26839 16.7505 6.57454 17.1587 6.95801C17.5669 7.34147 17.8761 7.78369 18.0864 8.28467C18.2967 8.77946 18.4019 9.29899 18.4019 9.84326C18.4019 10.2824 18.3338 10.6999 18.1978 11.0957C18.0679 11.4854 17.8854 11.841 17.6504 12.1626C17.4215 12.478 17.1494 12.7533 16.834 12.9883C16.5186 13.2171 16.1784 13.3965 15.8135 13.5264L18.7266 19H15.6279L13.2158 14.2129H11.082V19H8.3916V5.69629ZM15.5908 9.93604C15.5908 9.67008 15.5413 9.42269 15.4424 9.19385C15.3496 8.96501 15.2043 8.76709 15.0063 8.6001C14.8146 8.43311 14.5734 8.30322 14.2827 8.21045C13.992 8.11768 13.6549 8.07129 13.2715 8.07129H11.082V11.8193H13.2715C13.6549 11.8193 13.992 11.7729 14.2827 11.6802C14.5734 11.5812 14.8146 11.4482 15.0063 11.2812C15.2043 11.1081 15.3496 10.9071 15.4424 10.6782C15.5413 10.4494 15.5908 10.202 15.5908 9.93604ZM22.085 14.918C22.1283 15.2148 22.221 15.487 22.3633 15.7344C22.5117 15.9818 22.6973 16.1951 22.9199 16.3745C23.1426 16.5477 23.3993 16.6838 23.6899 16.7827C23.9806 16.8817 24.2899 16.9312 24.6177 16.9312C24.995 16.9312 25.4032 16.86 25.8423 16.7178C26.2814 16.5693 26.6834 16.356 27.0483 16.0776L28.2822 17.8774C27.8184 18.2671 27.2493 18.5825 26.5752 18.8237C25.901 19.0649 25.1836 19.1855 24.4229 19.1855C23.7363 19.1855 23.09 19.068 22.4839 18.833C21.8778 18.598 21.3459 18.2578 20.8882 17.8125C20.4367 17.3672 20.078 16.826 19.812 16.189C19.5522 15.5519 19.4224 14.8345 19.4224 14.0366C19.4224 13.3068 19.5368 12.6265 19.7656 11.9956C20.0007 11.3647 20.3254 10.8174 20.7397 10.3535C21.1603 9.88965 21.6613 9.52783 22.2427 9.26807C22.8241 9.00212 23.4673 8.86914 24.1724 8.86914C24.828 8.86914 25.4372 8.98975 26 9.23096C26.5628 9.46598 27.0514 9.79997 27.4658 10.2329C27.8802 10.6597 28.2049 11.173 28.4399 11.7729C28.675 12.3729 28.7925 13.0347 28.7925 13.7583V14.918H22.085ZM24.1631 11.0957C23.6126 11.0957 23.1457 11.2812 22.7622 11.6523C22.3849 12.0173 22.1654 12.4595 22.1035 12.979H26.1113C26.099 12.4533 25.9072 12.008 25.5361 11.6431C25.165 11.2782 24.7074 11.0957 24.1631 11.0957ZM30.4253 5.69629H32.9858V9.91748C33.1219 9.78141 33.2734 9.65153 33.4404 9.52783C33.6136 9.39795 33.8022 9.28662 34.0063 9.19385C34.2104 9.09489 34.4362 9.01758 34.6836 8.96191C34.9372 8.90007 35.2155 8.86914 35.5186 8.86914C36.0566 8.86914 36.5391 8.95882 36.9658 9.13818C37.3926 9.31136 37.7513 9.55257 38.042 9.86182C38.3389 10.1711 38.5646 10.5329 38.7192 10.9473C38.8739 11.3617 38.9512 11.8101 38.9512 12.2925V19H36.3906V13.2202C36.3906 12.8677 36.3504 12.5708 36.27 12.3296C36.1896 12.0822 36.0783 11.8843 35.936 11.7358C35.8 11.5812 35.6361 11.4699 35.4443 11.4019C35.2588 11.3276 35.0547 11.2905 34.832 11.2905C34.5723 11.2905 34.328 11.3369 34.0991 11.4297C33.8765 11.5225 33.6816 11.6647 33.5146 11.8564C33.3477 12.042 33.2178 12.277 33.125 12.5615C33.0322 12.846 32.9858 13.18 32.9858 13.5635V19H30.4253V5.69629ZM42.458 20.1597C42.7487 20.1597 42.9621 20.1071 43.0981 20.002C43.2404 19.8968 43.3517 19.7267 43.4321 19.4917L43.5249 19.1855L40.083 9.06396H42.9312L44.9072 15.9199L46.5493 9.06396H49.3604L46.0112 20.2339C45.8999 20.605 45.7453 20.9235 45.5474 21.1895C45.3494 21.4554 45.1144 21.6719 44.8423 21.8389C44.5701 22.012 44.2671 22.1388 43.9331 22.2192C43.6053 22.2996 43.2528 22.3398 42.8755 22.3398C42.7209 22.3398 42.5415 22.3337 42.3374 22.3213C42.1395 22.3089 41.9323 22.2904 41.7158 22.2656C41.5055 22.2471 41.2952 22.2223 41.085 22.1914C40.8809 22.1605 40.6922 22.1234 40.519 22.0801L41.0015 19.9834C41.1499 20.0205 41.3045 20.0514 41.4653 20.0762C41.6076 20.1009 41.7622 20.1195 41.9292 20.1318C42.1024 20.1504 42.2786 20.1597 42.458 20.1597ZM56.9585 19V18.1465C56.8224 18.2949 56.6709 18.4341 56.5039 18.564C56.3431 18.6877 56.1606 18.7959 55.9565 18.8887C55.7586 18.9814 55.5391 19.0526 55.2979 19.1021C55.0628 19.1577 54.8 19.1855 54.5093 19.1855C53.8537 19.1855 53.2537 19.0557 52.7095 18.7959C52.1652 18.5361 51.6982 18.1774 51.3086 17.7197C50.9189 17.262 50.6159 16.7178 50.3994 16.0869C50.1891 15.4561 50.084 14.7726 50.084 14.0366C50.084 13.3006 50.1891 12.6172 50.3994 11.9863C50.6097 11.3555 50.9035 10.8112 51.2808 10.3535C51.6642 9.88965 52.125 9.52783 52.6631 9.26807C53.2012 9.00212 53.798 8.86914 54.4536 8.86914C55.035 8.86914 55.5267 8.97119 55.9287 9.17529C56.3369 9.37321 56.6802 9.62061 56.9585 9.91748V5.69629H59.519V19H56.9585ZM57.0327 13.1089C57.0327 12.8429 56.9832 12.5955 56.8843 12.3667C56.7915 12.1379 56.6554 11.9399 56.4761 11.7729C56.2967 11.606 56.0802 11.4761 55.8267 11.3833C55.5793 11.2905 55.2979 11.2441 54.9824 11.2441C54.6175 11.2441 54.2928 11.3122 54.0083 11.4482C53.73 11.5843 53.495 11.776 53.3032 12.0234C53.1115 12.2646 52.9661 12.5522 52.8672 12.8862C52.7682 13.2202 52.7188 13.5851 52.7188 13.981V14.1016C52.7188 14.4974 52.7682 14.8623 52.8672 15.1963C52.9661 15.5241 53.1115 15.8086 53.3032 16.0498C53.495 16.291 53.73 16.4797 54.0083 16.6157C54.2928 16.7456 54.6175 16.8105 54.9824 16.8105C55.2979 16.8105 55.5793 16.7642 55.8267 16.6714C56.0802 16.5786 56.2967 16.4487 56.4761 16.2817C56.6554 16.1147 56.7915 15.9199 56.8843 15.6973C56.9832 15.4684 57.0327 15.221 57.0327 14.9551V13.1089ZM67.312 11.5503H67.043C66.6781 11.5503 66.3286 11.5874 65.9946 11.6616C65.6668 11.7358 65.3761 11.8719 65.1226 12.0698C64.869 12.2616 64.6649 12.5275 64.5103 12.8677C64.3618 13.2078 64.2876 13.6439 64.2876 14.1758V19H61.7271V9.06396H64.2876V10.1865C64.3927 10.0195 64.5288 9.85872 64.6958 9.7041C64.8628 9.54948 65.0576 9.41341 65.2803 9.2959C65.5029 9.1722 65.7534 9.07324 66.0317 8.99902C66.3101 8.9248 66.61 8.8877 66.9316 8.8877H67.312V11.5503ZM72.1177 14.9644C71.8022 15.0138 71.5487 15.1252 71.3569 15.2983C71.1652 15.4653 71.0693 15.6942 71.0693 15.9849C71.0693 16.3065 71.1868 16.5848 71.4219 16.8198C71.6569 17.0487 72.0033 17.1631 72.4609 17.1631C72.9434 17.1631 73.3237 17.0239 73.6021 16.7456C73.8804 16.4673 74.0195 16.0993 74.0195 15.6416V14.6396L72.1177 14.9644ZM74.437 18.063C74.3319 18.1805 74.202 18.3073 74.0474 18.4434C73.8989 18.5732 73.7196 18.6938 73.5093 18.8052C73.3052 18.9103 73.064 19 72.7856 19.0742C72.5073 19.1484 72.195 19.1855 71.8486 19.1855C71.3538 19.1855 70.8962 19.1082 70.4756 18.9536C70.0612 18.7928 69.6963 18.5701 69.3809 18.2856C69.0654 18.0011 68.818 17.6733 68.6387 17.3022C68.4593 16.925 68.3696 16.5168 68.3696 16.0776C68.3696 15.2798 68.617 14.6273 69.1118 14.1201C69.6066 13.613 70.29 13.2944 71.1621 13.1646L74.0195 12.7471V12.5615C74.0195 12.1162 73.8835 11.7637 73.6113 11.5039C73.3392 11.2441 72.897 11.1143 72.2847 11.1143C72.0311 11.1143 71.7744 11.1452 71.5146 11.207C71.2549 11.2627 71.0044 11.3276 70.7632 11.4019C70.5282 11.4761 70.3086 11.5627 70.1045 11.6616C69.9004 11.7544 69.721 11.8379 69.5664 11.9121L68.5645 9.95459C69.1335 9.63916 69.7643 9.37939 70.457 9.17529C71.1559 8.97119 71.8796 8.86914 72.6279 8.86914C73.0856 8.86914 73.5464 8.91862 74.0103 9.01758C74.4803 9.11035 74.904 9.28353 75.2812 9.53711C75.6647 9.79069 75.9771 10.137 76.2183 10.5762C76.4595 11.0091 76.5801 11.5627 76.5801 12.2368V16.3188C76.5801 16.6095 76.6543 16.826 76.8027 16.9683C76.9574 17.1043 77.1676 17.2311 77.4336 17.3486L76.2739 19.1855C75.8039 19.1361 75.4266 19.0155 75.1421 18.8237C74.8576 18.6258 74.6226 18.3722 74.437 18.063ZM81.998 16.0405C81.998 16.158 82.0135 16.2694 82.0444 16.3745C82.0754 16.4797 82.1279 16.5724 82.2021 16.6528C82.2826 16.7271 82.3939 16.7858 82.5361 16.8291C82.6784 16.8724 82.8608 16.894 83.0835 16.894C83.1763 16.894 83.2814 16.891 83.3989 16.8848C83.5164 16.8724 83.634 16.86 83.7515 16.8477C83.869 16.8353 83.9772 16.8198 84.0762 16.8013C84.1813 16.7827 84.2679 16.7673 84.3359 16.7549L84.5679 19.0186C84.3267 19.0495 84.0762 19.0773 83.8164 19.1021C83.5938 19.1268 83.3464 19.1453 83.0742 19.1577C82.8021 19.1763 82.5269 19.1855 82.2485 19.1855C81.3641 19.1855 80.6745 18.9845 80.1797 18.5825C79.6849 18.1805 79.4375 17.5404 79.4375 16.6621V11.2905H77.647V9.06396H79.4375V6.25293L81.998 5.56641V9.06396H84.605V11.2905H81.998V16.0405ZM88.3623 14.918C88.4056 15.2148 88.4984 15.487 88.6406 15.7344C88.7891 15.9818 88.9746 16.1951 89.1973 16.3745C89.4199 16.5477 89.6766 16.6838 89.9673 16.7827C90.258 16.8817 90.5672 16.9312 90.895 16.9312C91.2723 16.9312 91.6805 16.86 92.1196 16.7178C92.5588 16.5693 92.9608 16.356 93.3257 16.0776L94.5596 17.8774C94.0957 18.2671 93.5267 18.5825 92.8525 18.8237C92.1784 19.0649 91.4609 19.1855 90.7002 19.1855C90.0137 19.1855 89.3674 19.068 88.7612 18.833C88.1551 18.598 87.6232 18.2578 87.1655 17.8125C86.714 17.3672 86.3553 16.826 86.0894 16.189C85.8296 15.5519 85.6997 14.8345 85.6997 14.0366C85.6997 13.3068 85.8141 12.6265 86.043 11.9956C86.278 11.3647 86.6027 10.8174 87.0171 10.3535C87.4377 9.88965 87.9386 9.52783 88.52 9.26807C89.1014 9.00212 89.7446 8.86914 90.4497 8.86914C91.1053 8.86914 91.7145 8.98975 92.2773 9.23096C92.8402 9.46598 93.3288 9.79997 93.7432 10.2329C94.1576 10.6597 94.4823 11.173 94.7173 11.7729C94.9523 12.3729 95.0698 13.0347 95.0698 13.7583V14.918H88.3623ZM90.4404 11.0957C89.89 11.0957 89.423 11.2812 89.0396 11.6523C88.6623 12.0173 88.4427 12.4595 88.3809 12.979H92.3887C92.3763 12.4533 92.1846 12.008 91.8135 11.6431C91.4424 11.2782 90.9847 11.0957 90.4404 11.0957ZM103.085 19V18.1465C102.949 18.2949 102.798 18.4341 102.631 18.564C102.47 18.6877 102.288 18.7959 102.083 18.8887C101.886 18.9814 101.666 19.0526 101.425 19.1021C101.19 19.1577 100.927 19.1855 100.636 19.1855C99.9806 19.1855 99.3807 19.0557 98.8364 18.7959C98.2922 18.5361 97.8252 18.1774 97.4355 17.7197C97.0459 17.262 96.7428 16.7178 96.5264 16.0869C96.3161 15.4561 96.2109 14.7726 96.2109 14.0366C96.2109 13.3006 96.3161 12.6172 96.5264 11.9863C96.7367 11.3555 97.0304 10.8112 97.4077 10.3535C97.7912 9.88965 98.252 9.52783 98.79 9.26807C99.3281 9.00212 99.925 8.86914 100.581 8.86914C101.162 8.86914 101.654 8.97119 102.056 9.17529C102.464 9.37321 102.807 9.62061 103.085 9.91748V5.69629H105.646V19H103.085ZM103.16 13.1089C103.16 12.8429 103.11 12.5955 103.011 12.3667C102.918 12.1379 102.782 11.9399 102.603 11.7729C102.424 11.606 102.207 11.4761 101.954 11.3833C101.706 11.2905 101.425 11.2441 101.109 11.2441C100.744 11.2441 100.42 11.3122 100.135 11.4482C99.8569 11.5843 99.6219 11.776 99.4302 12.0234C99.2384 12.2646 99.0931 12.5522 98.9941 12.8862C98.8952 13.2202 98.8457 13.5851 98.8457 13.981V14.1016C98.8457 14.4974 98.8952 14.8623 98.9941 15.1963C99.0931 15.5241 99.2384 15.8086 99.4302 16.0498C99.6219 16.291 99.8569 16.4797 100.135 16.6157C100.42 16.7456 100.744 16.8105 101.109 16.8105C101.425 16.8105 101.706 16.7642 101.954 16.6714C102.207 16.5786 102.424 16.4487 102.603 16.2817C102.782 16.1147 102.918 15.9199 103.011 15.6973C103.11 15.4684 103.16 15.221 103.16 14.9551V13.1089Z" fill="white"/>
<rect width="259" height="27" transform="translate(124)" fill="#0B0C0C"/>
<path d="M132.392 5.69629H135.082V16.5137H140.352V19H132.392V5.69629ZM143.877 14.918C143.92 15.2148 144.013 15.487 144.155 15.7344C144.304 15.9818 144.489 16.1951 144.712 16.3745C144.935 16.5477 145.191 16.6838 145.482 16.7827C145.773 16.8817 146.082 16.9312 146.41 16.9312C146.787 16.9312 147.195 16.86 147.634 16.7178C148.073 16.5693 148.475 16.356 148.84 16.0776L150.074 17.8774C149.61 18.2671 149.041 18.5825 148.367 18.8237C147.693 19.0649 146.976 19.1855 146.215 19.1855C145.528 19.1855 144.882 19.068 144.276 18.833C143.67 18.598 143.138 18.2578 142.68 17.8125C142.229 17.3672 141.87 16.826 141.604 16.189C141.344 15.5519 141.214 14.8345 141.214 14.0366C141.214 13.3068 141.329 12.6265 141.558 11.9956C141.793 11.3647 142.117 10.8174 142.532 10.3535C142.952 9.88965 143.453 9.52783 144.035 9.26807C144.616 9.00212 145.259 8.86914 145.964 8.86914C146.62 8.86914 147.229 8.98975 147.792 9.23096C148.355 9.46598 148.843 9.79997 149.258 10.2329C149.672 10.6597 149.997 11.173 150.232 11.7729C150.467 12.3729 150.584 13.0347 150.584 13.7583V14.918H143.877ZM145.955 11.0957C145.405 11.0957 144.938 11.2812 144.554 11.6523C144.177 12.0173 143.957 12.4595 143.896 12.979H147.903C147.891 12.4533 147.699 12.008 147.328 11.6431C146.957 11.2782 146.499 11.0957 145.955 11.0957ZM158.257 17.2373C158.028 17.5156 157.706 17.7383 157.292 17.9053C156.884 18.0661 156.438 18.1465 155.956 18.1465C155.288 18.1465 154.694 18.029 154.175 17.7939C153.655 17.5589 153.216 17.2373 152.857 16.8291C152.505 16.4147 152.233 15.9261 152.041 15.3633C151.855 14.8005 151.763 14.182 151.763 13.5078C151.763 12.8522 151.855 12.2399 152.041 11.6709C152.233 11.0957 152.505 10.604 152.857 10.1958C153.216 9.78141 153.655 9.45671 154.175 9.22168C154.694 8.98665 155.288 8.86914 155.956 8.86914C156.438 8.86914 156.884 8.95264 157.292 9.11963C157.706 9.28662 158.028 9.50928 158.257 9.7876V9.06396H160.827V18.9072C160.827 19.5133 160.712 20.0329 160.483 20.4658C160.255 20.9049 159.939 21.2637 159.537 21.542C159.141 21.8203 158.681 22.0213 158.155 22.145C157.629 22.2749 157.069 22.3398 156.476 22.3398C155.752 22.3398 154.997 22.2533 154.212 22.0801C153.426 21.9131 152.749 21.7028 152.18 21.4492L152.904 19.3804C153.077 19.4546 153.29 19.535 153.544 19.6216C153.798 19.7144 154.07 19.7948 154.36 19.8628C154.651 19.9308 154.954 19.9865 155.27 20.0298C155.591 20.0793 155.903 20.104 156.207 20.104C156.472 20.104 156.729 20.0762 156.977 20.0205C157.224 19.971 157.44 19.8844 157.626 19.7607C157.818 19.6432 157.969 19.4855 158.081 19.2876C158.198 19.0959 158.257 18.8485 158.257 18.5454V17.2373ZM154.397 13.5449C154.397 13.8727 154.431 14.182 154.5 14.4727C154.574 14.7572 154.688 15.0015 154.843 15.2056C155.004 15.4035 155.208 15.5612 155.455 15.6787C155.702 15.79 156.002 15.8457 156.355 15.8457C157.054 15.8457 157.552 15.6261 157.849 15.187C158.146 14.7417 158.294 14.1943 158.294 13.5449V13.4707C158.294 13.1429 158.26 12.8368 158.192 12.5522C158.124 12.2677 158.013 12.0234 157.858 11.8193C157.703 11.6152 157.502 11.4575 157.255 11.3462C157.014 11.2287 156.714 11.1699 156.355 11.1699C155.662 11.1699 155.161 11.3895 154.852 11.8286C154.549 12.2677 154.397 12.8151 154.397 13.4707V13.5449ZM166.245 14.9644C165.929 15.0138 165.676 15.1252 165.484 15.2983C165.292 15.4653 165.196 15.6942 165.196 15.9849C165.196 16.3065 165.314 16.5848 165.549 16.8198C165.784 17.0487 166.13 17.1631 166.588 17.1631C167.07 17.1631 167.451 17.0239 167.729 16.7456C168.007 16.4673 168.146 16.0993 168.146 15.6416V14.6396L166.245 14.9644ZM168.564 18.063C168.459 18.1805 168.329 18.3073 168.174 18.4434C168.026 18.5732 167.847 18.6938 167.636 18.8052C167.432 18.9103 167.191 19 166.913 19.0742C166.634 19.1484 166.322 19.1855 165.976 19.1855C165.481 19.1855 165.023 19.1082 164.603 18.9536C164.188 18.7928 163.823 18.5701 163.508 18.2856C163.192 18.0011 162.945 17.6733 162.766 17.3022C162.586 16.925 162.497 16.5168 162.497 16.0776C162.497 15.2798 162.744 14.6273 163.239 14.1201C163.734 13.613 164.417 13.2944 165.289 13.1646L168.146 12.7471V12.5615C168.146 12.1162 168.01 11.7637 167.738 11.5039C167.466 11.2441 167.024 11.1143 166.412 11.1143C166.158 11.1143 165.901 11.1452 165.642 11.207C165.382 11.2627 165.131 11.3276 164.89 11.4019C164.655 11.4761 164.436 11.5627 164.231 11.6616C164.027 11.7544 163.848 11.8379 163.693 11.9121L162.691 9.95459C163.26 9.63916 163.891 9.37939 164.584 9.17529C165.283 8.97119 166.007 8.86914 166.755 8.86914C167.213 8.86914 167.673 8.91862 168.137 9.01758C168.607 9.11035 169.031 9.28353 169.408 9.53711C169.792 9.79069 170.104 10.137 170.345 10.5762C170.586 11.0091 170.707 11.5627 170.707 12.2368V16.3188C170.707 16.6095 170.781 16.826 170.93 16.9683C171.084 17.1043 171.295 17.2311 171.561 17.3486L170.401 19.1855C169.931 19.1361 169.554 19.0155 169.269 18.8237C168.985 18.6258 168.75 18.3722 168.564 18.063ZM172.813 5.69629H175.374V16.3003C175.374 16.5106 175.432 16.6714 175.55 16.7827C175.674 16.894 175.868 16.9497 176.134 16.9497C176.258 16.9497 176.363 16.9435 176.45 16.9312C176.542 16.9126 176.66 16.8879 176.802 16.8569L177.006 19.0371C176.833 19.0618 176.648 19.0866 176.45 19.1113C176.283 19.1299 176.088 19.1453 175.865 19.1577C175.649 19.1763 175.423 19.1855 175.188 19.1855C174.823 19.1855 174.495 19.1392 174.205 19.0464C173.914 18.9536 173.663 18.8175 173.453 18.6382C173.249 18.4526 173.091 18.2238 172.98 17.9517C172.869 17.6795 172.813 17.3641 172.813 17.0054V5.69629ZM178.379 5.69629H180.94V16.3003C180.94 16.5106 180.999 16.6714 181.116 16.7827C181.24 16.894 181.435 16.9497 181.701 16.9497C181.824 16.9497 181.93 16.9435 182.016 16.9312C182.109 16.9126 182.226 16.8879 182.369 16.8569L182.573 19.0371C182.4 19.0618 182.214 19.0866 182.016 19.1113C181.849 19.1299 181.654 19.1453 181.432 19.1577C181.215 19.1763 180.989 19.1855 180.754 19.1855C180.389 19.1855 180.062 19.1392 179.771 19.0464C179.48 18.9536 179.23 18.8175 179.02 18.6382C178.815 18.4526 178.658 18.2238 178.546 17.9517C178.435 17.6795 178.379 17.3641 178.379 17.0054V5.69629ZM185.013 20.1597C185.303 20.1597 185.517 20.1071 185.653 20.002C185.795 19.8968 185.906 19.7267 185.987 19.4917L186.08 19.1855L182.638 9.06396H185.486L187.462 15.9199L189.104 9.06396H191.915L188.566 20.2339C188.455 20.605 188.3 20.9235 188.102 21.1895C187.904 21.4554 187.669 21.6719 187.397 21.8389C187.125 22.012 186.822 22.1388 186.488 22.2192C186.16 22.2996 185.807 22.3398 185.43 22.3398C185.276 22.3398 185.096 22.3337 184.892 22.3213C184.694 22.3089 184.487 22.2904 184.271 22.2656C184.06 22.2471 183.85 22.2223 183.64 22.1914C183.436 22.1605 183.247 22.1234 183.074 22.0801L183.556 19.9834C183.705 20.0205 183.859 20.0514 184.02 20.0762C184.162 20.1009 184.317 20.1195 184.484 20.1318C184.657 20.1504 184.833 20.1597 185.013 20.1597ZM201.721 11.5503H201.452C201.087 11.5503 200.738 11.5874 200.404 11.6616C200.076 11.7358 199.785 11.8719 199.532 12.0698C199.278 12.2616 199.074 12.5275 198.919 12.8677C198.771 13.2078 198.697 13.6439 198.697 14.1758V19H196.136V9.06396H198.697V10.1865C198.802 10.0195 198.938 9.85872 199.105 9.7041C199.272 9.54948 199.467 9.41341 199.689 9.2959C199.912 9.1722 200.163 9.07324 200.441 8.99902C200.719 8.9248 201.019 8.8877 201.341 8.8877H201.721V11.5503ZM205.46 14.918C205.503 15.2148 205.596 15.487 205.738 15.7344C205.887 15.9818 206.072 16.1951 206.295 16.3745C206.518 16.5477 206.774 16.6838 207.065 16.7827C207.356 16.8817 207.665 16.9312 207.993 16.9312C208.37 16.9312 208.778 16.86 209.217 16.7178C209.656 16.5693 210.058 16.356 210.423 16.0776L211.657 17.8774C211.193 18.2671 210.624 18.5825 209.95 18.8237C209.276 19.0649 208.559 19.1855 207.798 19.1855C207.111 19.1855 206.465 19.068 205.859 18.833C205.253 18.598 204.721 18.2578 204.263 17.8125C203.812 17.3672 203.453 16.826 203.187 16.189C202.927 15.5519 202.797 14.8345 202.797 14.0366C202.797 13.3068 202.912 12.6265 203.141 11.9956C203.376 11.3647 203.7 10.8174 204.115 10.3535C204.535 9.88965 205.036 9.52783 205.618 9.26807C206.199 9.00212 206.842 8.86914 207.547 8.86914C208.203 8.86914 208.812 8.98975 209.375 9.23096C209.938 9.46598 210.426 9.79997 210.841 10.2329C211.255 10.6597 211.58 11.173 211.815 11.7729C212.05 12.3729 212.167 13.0347 212.167 13.7583V14.918H205.46ZM207.538 11.0957C206.988 11.0957 206.521 11.2812 206.137 11.6523C205.76 12.0173 205.54 12.4595 205.479 12.979H209.486C209.474 12.4533 209.282 12.008 208.911 11.6431C208.54 11.2782 208.082 11.0957 207.538 11.0957ZM216.361 22.1357H213.8V9.06396H216.361V9.91748C216.639 9.62679 216.982 9.37939 217.391 9.17529C217.799 8.97119 218.294 8.86914 218.875 8.86914C219.531 8.86914 220.124 9.00212 220.656 9.26807C221.194 9.52783 221.655 9.88965 222.039 10.3535C222.422 10.8112 222.719 11.3555 222.929 11.9863C223.139 12.6172 223.245 13.3006 223.245 14.0366C223.245 14.7726 223.136 15.4561 222.92 16.0869C222.703 16.7178 222.4 17.262 222.011 17.7197C221.621 18.1774 221.154 18.5361 220.61 18.7959C220.066 19.0557 219.466 19.1855 218.81 19.1855C218.519 19.1855 218.253 19.1577 218.012 19.1021C217.777 19.0526 217.561 18.9814 217.363 18.8887C217.165 18.7959 216.982 18.6877 216.815 18.564C216.648 18.4341 216.497 18.2949 216.361 18.1465V22.1357ZM216.287 14.9551C216.287 15.221 216.333 15.4684 216.426 15.6973C216.525 15.9199 216.664 16.1147 216.843 16.2817C217.023 16.4487 217.236 16.5786 217.483 16.6714C217.737 16.7642 218.021 16.8105 218.337 16.8105C218.702 16.8105 219.023 16.7456 219.302 16.6157C219.586 16.4797 219.824 16.291 220.016 16.0498C220.208 15.8086 220.353 15.5241 220.452 15.1963C220.551 14.8623 220.601 14.4974 220.601 14.1016V13.981C220.601 13.5851 220.551 13.2202 220.452 12.8862C220.353 12.5522 220.208 12.2646 220.016 12.0234C219.824 11.776 219.586 11.5843 219.302 11.4482C219.023 11.3122 218.702 11.2441 218.337 11.2441C218.021 11.2441 217.737 11.2905 217.483 11.3833C217.236 11.4761 217.023 11.606 216.843 11.7729C216.664 11.9399 216.525 12.1379 216.426 12.3667C216.333 12.5955 216.287 12.8429 216.287 13.1089V14.9551ZM230.537 11.5503H230.268C229.903 11.5503 229.553 11.5874 229.219 11.6616C228.891 11.7358 228.601 11.8719 228.347 12.0698C228.094 12.2616 227.889 12.5275 227.735 12.8677C227.586 13.2078 227.512 13.6439 227.512 14.1758V19H224.952V9.06396H227.512V10.1865C227.617 10.0195 227.753 9.85872 227.92 9.7041C228.087 9.54948 228.282 9.41341 228.505 9.2959C228.728 9.1722 228.978 9.07324 229.256 8.99902C229.535 8.9248 229.835 8.8877 230.156 8.8877H230.537V11.5503ZM234.275 14.918C234.319 15.2148 234.411 15.487 234.554 15.7344C234.702 15.9818 234.888 16.1951 235.11 16.3745C235.333 16.5477 235.59 16.6838 235.88 16.7827C236.171 16.8817 236.48 16.9312 236.808 16.9312C237.185 16.9312 237.594 16.86 238.033 16.7178C238.472 16.5693 238.874 16.356 239.239 16.0776L240.473 17.8774C240.009 18.2671 239.44 18.5825 238.766 18.8237C238.091 19.0649 237.374 19.1855 236.613 19.1855C235.927 19.1855 235.28 19.068 234.674 18.833C234.068 18.598 233.536 18.2578 233.079 17.8125C232.627 17.3672 232.268 16.826 232.002 16.189C231.743 15.5519 231.613 14.8345 231.613 14.0366C231.613 13.3068 231.727 12.6265 231.956 11.9956C232.191 11.3647 232.516 10.8174 232.93 10.3535C233.351 9.88965 233.852 9.52783 234.433 9.26807C235.014 9.00212 235.658 8.86914 236.363 8.86914C237.018 8.86914 237.628 8.98975 238.19 9.23096C238.753 9.46598 239.242 9.79997 239.656 10.2329C240.071 10.6597 240.395 11.173 240.63 11.7729C240.865 12.3729 240.983 13.0347 240.983 13.7583V14.918H234.275ZM236.354 11.0957C235.803 11.0957 235.336 11.2812 234.953 11.6523C234.575 12.0173 234.356 12.4595 234.294 12.979H238.302C238.289 12.4533 238.098 12.008 237.727 11.6431C237.355 11.2782 236.898 11.0957 236.354 11.0957ZM243.321 15.8271C243.686 16.1549 244.122 16.4364 244.629 16.6714C245.136 16.9064 245.649 17.0239 246.169 17.0239C246.546 17.0239 246.843 16.9528 247.06 16.8105C247.276 16.6621 247.384 16.4735 247.384 16.2446C247.384 15.855 246.967 15.5519 246.132 15.3354L245.408 15.1406C245.049 15.054 244.688 14.9365 244.323 14.7881C243.958 14.6335 243.621 14.4325 243.312 14.1851C243.008 13.9377 242.761 13.6377 242.569 13.2852C242.384 12.9264 242.291 12.4873 242.291 11.9678C242.291 11.5534 242.381 11.1606 242.56 10.7896C242.746 10.4123 243.005 10.0814 243.339 9.79688C243.68 9.51237 244.091 9.28662 244.573 9.11963C245.056 8.95264 245.594 8.86914 246.188 8.86914C247.035 8.86914 247.789 9.00212 248.451 9.26807C249.119 9.53402 249.645 9.83398 250.028 10.168L248.692 11.875C248.377 11.6462 248.003 11.4513 247.57 11.2905C247.143 11.1235 246.713 11.04 246.28 11.04C245.878 11.04 245.566 11.1143 245.343 11.2627C245.121 11.4049 245.009 11.5781 245.009 11.7822C245.009 11.9987 245.105 12.175 245.297 12.311C245.495 12.4409 245.779 12.5553 246.15 12.6543L247.227 12.9604C248.253 13.2511 248.989 13.6439 249.435 14.1387C249.88 14.6335 250.103 15.2581 250.103 16.0127C250.103 16.4333 250.016 16.8353 249.843 17.2188C249.67 17.596 249.416 17.9331 249.082 18.23C248.748 18.5269 248.334 18.7619 247.839 18.9351C247.344 19.1021 246.781 19.1855 246.15 19.1855C245.668 19.1855 245.213 19.1423 244.787 19.0557C244.366 18.9691 243.973 18.8516 243.608 18.7031C243.25 18.5485 242.925 18.3753 242.634 18.1836C242.344 17.9919 242.096 17.8001 241.892 17.6084L243.321 15.8271ZM253.906 14.918C253.95 15.2148 254.042 15.487 254.185 15.7344C254.333 15.9818 254.519 16.1951 254.741 16.3745C254.964 16.5477 255.221 16.6838 255.511 16.7827C255.802 16.8817 256.111 16.9312 256.439 16.9312C256.816 16.9312 257.224 16.86 257.664 16.7178C258.103 16.5693 258.505 16.356 258.87 16.0776L260.104 17.8774C259.64 18.2671 259.071 18.5825 258.396 18.8237C257.722 19.0649 257.005 19.1855 256.244 19.1855C255.558 19.1855 254.911 19.068 254.305 18.833C253.699 18.598 253.167 18.2578 252.709 17.8125C252.258 17.3672 251.899 16.826 251.633 16.189C251.374 15.5519 251.244 14.8345 251.244 14.0366C251.244 13.3068 251.358 12.6265 251.587 11.9956C251.822 11.3647 252.147 10.8174 252.561 10.3535C252.982 9.88965 253.483 9.52783 254.064 9.26807C254.645 9.00212 255.289 8.86914 255.994 8.86914C256.649 8.86914 257.258 8.98975 257.821 9.23096C258.384 9.46598 258.873 9.79997 259.287 10.2329C259.701 10.6597 260.026 11.173 260.261 11.7729C260.496 12.3729 260.614 13.0347 260.614 13.7583V14.918H253.906ZM255.984 11.0957C255.434 11.0957 254.967 11.2812 254.583 11.6523C254.206 12.0173 253.987 12.4595 253.925 12.979H257.933C257.92 12.4533 257.729 12.008 257.357 11.6431C256.986 11.2782 256.529 11.0957 255.984 11.0957ZM262.247 9.06396H264.807V9.91748C264.943 9.78141 265.095 9.65153 265.262 9.52783C265.435 9.39795 265.624 9.28662 265.828 9.19385C266.032 9.09489 266.257 9.01758 266.505 8.96191C266.758 8.90007 267.037 8.86914 267.34 8.86914C267.878 8.86914 268.36 8.95882 268.787 9.13818C269.214 9.31136 269.573 9.55257 269.863 9.86182C270.16 10.1711 270.386 10.5329 270.541 10.9473C270.695 11.3617 270.772 11.8101 270.772 12.2925V19H268.212V13.2202C268.212 12.8677 268.172 12.5708 268.091 12.3296C268.011 12.0822 267.9 11.8843 267.757 11.7358C267.621 11.5812 267.457 11.4699 267.266 11.4019C267.08 11.3276 266.876 11.2905 266.653 11.2905C266.394 11.2905 266.149 11.3369 265.92 11.4297C265.698 11.5225 265.503 11.6647 265.336 11.8564C265.169 12.042 265.039 12.277 264.946 12.5615C264.854 12.846 264.807 13.18 264.807 13.5635V19H262.247V9.06396ZM276.58 16.0405C276.58 16.158 276.596 16.2694 276.626 16.3745C276.657 16.4797 276.71 16.5724 276.784 16.6528C276.865 16.7271 276.976 16.7858 277.118 16.8291C277.26 16.8724 277.443 16.894 277.666 16.894C277.758 16.894 277.863 16.891 277.981 16.8848C278.098 16.8724 278.216 16.86 278.333 16.8477C278.451 16.8353 278.559 16.8198 278.658 16.8013C278.763 16.7827 278.85 16.7673 278.918 16.7549L279.15 19.0186C278.909 19.0495 278.658 19.0773 278.398 19.1021C278.176 19.1268 277.928 19.1453 277.656 19.1577C277.384 19.1763 277.109 19.1855 276.831 19.1855C275.946 19.1855 275.257 18.9845 274.762 18.5825C274.267 18.1805 274.02 17.5404 274.02 16.6621V11.2905H272.229V9.06396H274.02V6.25293L276.58 5.56641V9.06396H279.187V11.2905H276.58V16.0405ZM282.944 14.918C282.988 15.2148 283.08 15.487 283.223 15.7344C283.371 15.9818 283.557 16.1951 283.779 16.3745C284.002 16.5477 284.259 16.6838 284.549 16.7827C284.84 16.8817 285.149 16.9312 285.477 16.9312C285.854 16.9312 286.263 16.86 286.702 16.7178C287.141 16.5693 287.543 16.356 287.908 16.0776L289.142 17.8774C288.678 18.2671 288.109 18.5825 287.435 18.8237C286.76 19.0649 286.043 19.1855 285.282 19.1855C284.596 19.1855 283.949 19.068 283.343 18.833C282.737 18.598 282.205 18.2578 281.748 17.8125C281.296 17.3672 280.937 16.826 280.671 16.189C280.412 15.5519 280.282 14.8345 280.282 14.0366C280.282 13.3068 280.396 12.6265 280.625 11.9956C280.86 11.3647 281.185 10.8174 281.599 10.3535C282.02 9.88965 282.521 9.52783 283.102 9.26807C283.683 9.00212 284.327 8.86914 285.032 8.86914C285.687 8.86914 286.297 8.98975 286.859 9.23096C287.422 9.46598 287.911 9.79997 288.325 10.2329C288.74 10.6597 289.064 11.173 289.299 11.7729C289.534 12.3729 289.652 13.0347 289.652 13.7583V14.918H282.944ZM285.022 11.0957C284.472 11.0957 284.005 11.2812 283.622 11.6523C283.244 12.0173 283.025 12.4595 282.963 12.979H286.971C286.958 12.4533 286.767 12.008 286.396 11.6431C286.024 11.2782 285.567 11.0957 285.022 11.0957ZM297.667 19V18.1465C297.531 18.2949 297.38 18.4341 297.213 18.564C297.052 18.6877 296.87 18.7959 296.666 18.8887C296.468 18.9814 296.248 19.0526 296.007 19.1021C295.772 19.1577 295.509 19.1855 295.218 19.1855C294.563 19.1855 293.963 19.0557 293.418 18.7959C292.874 18.5361 292.407 18.1774 292.018 17.7197C291.628 17.262 291.325 16.7178 291.108 16.0869C290.898 15.4561 290.793 14.7726 290.793 14.0366C290.793 13.3006 290.898 12.6172 291.108 11.9863C291.319 11.3555 291.612 10.8112 291.99 10.3535C292.373 9.88965 292.834 9.52783 293.372 9.26807C293.91 9.00212 294.507 8.86914 295.163 8.86914C295.744 8.86914 296.236 8.97119 296.638 9.17529C297.046 9.37321 297.389 9.62061 297.667 9.91748V5.69629H300.228V19H297.667ZM297.742 13.1089C297.742 12.8429 297.692 12.5955 297.593 12.3667C297.5 12.1379 297.364 11.9399 297.185 11.7729C297.006 11.606 296.789 11.4761 296.536 11.3833C296.288 11.2905 296.007 11.2441 295.691 11.2441C295.326 11.2441 295.002 11.3122 294.717 11.4482C294.439 11.5843 294.204 11.776 294.012 12.0234C293.82 12.2646 293.675 12.5522 293.576 12.8862C293.477 13.2202 293.428 13.5851 293.428 13.981V14.1016C293.428 14.4974 293.477 14.8623 293.576 15.1963C293.675 15.5241 293.82 15.8086 294.012 16.0498C294.204 16.291 294.439 16.4797 294.717 16.6157C295.002 16.7456 295.326 16.8105 295.691 16.8105C296.007 16.8105 296.288 16.7642 296.536 16.6714C296.789 16.5786 297.006 16.4487 297.185 16.2817C297.364 16.1147 297.5 15.9199 297.593 15.6973C297.692 15.4684 297.742 15.221 297.742 14.9551V13.1089ZM305.145 11.9121H309.134V14.2129H305.145V11.9121ZM322.429 19H319.859V13.2202C319.859 12.8677 319.819 12.5708 319.738 12.3296C319.664 12.0822 319.559 11.8843 319.423 11.7358C319.287 11.5812 319.129 11.473 318.95 11.4111C318.77 11.3431 318.576 11.3091 318.365 11.3091C318.118 11.3091 317.886 11.3524 317.669 11.439C317.459 11.5256 317.274 11.6616 317.113 11.8472C316.958 12.0327 316.834 12.2708 316.742 12.5615C316.655 12.846 316.612 13.1862 316.612 13.582V19H314.051V9.06396H316.612V9.93604C316.94 9.57113 317.32 9.30208 317.753 9.12891C318.192 8.95573 318.662 8.86914 319.163 8.86914C319.676 8.86914 320.156 8.97428 320.601 9.18457C321.053 9.39486 321.427 9.74121 321.724 10.2236C321.897 9.97624 322.095 9.76595 322.317 9.59277C322.546 9.4196 322.791 9.28044 323.05 9.17529C323.31 9.07015 323.579 8.99284 323.857 8.94336C324.142 8.89388 324.433 8.86914 324.729 8.86914C325.286 8.86914 325.781 8.96191 326.214 9.14746C326.653 9.32682 327.024 9.57113 327.327 9.88037C327.63 10.1896 327.862 10.5452 328.023 10.9473C328.184 11.3493 328.264 11.7729 328.264 12.2183V19H325.676V13.2202C325.676 12.8677 325.636 12.5708 325.555 12.3296C325.481 12.0822 325.376 11.8843 325.24 11.7358C325.104 11.5812 324.943 11.473 324.757 11.4111C324.578 11.3431 324.383 11.3091 324.173 11.3091C323.925 11.3091 323.697 11.3524 323.486 11.439C323.276 11.5256 323.09 11.6616 322.93 11.8472C322.775 12.0327 322.651 12.2708 322.559 12.5615C322.472 12.846 322.429 13.1862 322.429 13.582V19ZM333.608 14.9644C333.292 15.0138 333.039 15.1252 332.847 15.2983C332.655 15.4653 332.56 15.6942 332.56 15.9849C332.56 16.3065 332.677 16.5848 332.912 16.8198C333.147 17.0487 333.493 17.1631 333.951 17.1631C334.434 17.1631 334.814 17.0239 335.092 16.7456C335.371 16.4673 335.51 16.0993 335.51 15.6416V14.6396L333.608 14.9644ZM335.927 18.063C335.822 18.1805 335.692 18.3073 335.538 18.4434C335.389 18.5732 335.21 18.6938 335 18.8052C334.795 18.9103 334.554 19 334.276 19.0742C333.998 19.1484 333.685 19.1855 333.339 19.1855C332.844 19.1855 332.386 19.1082 331.966 18.9536C331.551 18.7928 331.187 18.5701 330.871 18.2856C330.556 18.0011 330.308 17.6733 330.129 17.3022C329.95 16.925 329.86 16.5168 329.86 16.0776C329.86 15.2798 330.107 14.6273 330.602 14.1201C331.097 13.613 331.78 13.2944 332.652 13.1646L335.51 12.7471V12.5615C335.51 12.1162 335.374 11.7637 335.102 11.5039C334.829 11.2441 334.387 11.1143 333.775 11.1143C333.521 11.1143 333.265 11.1452 333.005 11.207C332.745 11.2627 332.495 11.3276 332.253 11.4019C332.018 11.4761 331.799 11.5627 331.595 11.6616C331.391 11.7544 331.211 11.8379 331.057 11.9121L330.055 9.95459C330.624 9.63916 331.255 9.37939 331.947 9.17529C332.646 8.97119 333.37 8.86914 334.118 8.86914C334.576 8.86914 335.037 8.91862 335.5 9.01758C335.971 9.11035 336.394 9.28353 336.771 9.53711C337.155 9.79069 337.467 10.137 337.708 10.5762C337.95 11.0091 338.07 11.5627 338.07 12.2368V16.3188C338.07 16.6095 338.145 16.826 338.293 16.9683C338.448 17.1043 338.658 17.2311 338.924 17.3486L337.764 19.1855C337.294 19.1361 336.917 19.0155 336.632 18.8237C336.348 18.6258 336.113 18.3722 335.927 18.063ZM340.213 9.06396H342.774V9.91748C342.91 9.78141 343.062 9.65153 343.229 9.52783C343.402 9.39795 343.59 9.28662 343.794 9.19385C343.999 9.09489 344.224 9.01758 344.472 8.96191C344.725 8.90007 345.004 8.86914 345.307 8.86914C345.845 8.86914 346.327 8.95882 346.754 9.13818C347.181 9.31136 347.539 9.55257 347.83 9.86182C348.127 10.1711 348.353 10.5329 348.507 10.9473C348.662 11.3617 348.739 11.8101 348.739 12.2925V19H346.179V13.2202C346.179 12.8677 346.139 12.5708 346.058 12.3296C345.978 12.0822 345.866 11.8843 345.724 11.7358C345.588 11.5812 345.424 11.4699 345.232 11.4019C345.047 11.3276 344.843 11.2905 344.62 11.2905C344.36 11.2905 344.116 11.3369 343.887 11.4297C343.665 11.5225 343.47 11.6647 343.303 11.8564C343.136 12.042 343.006 12.277 342.913 12.5615C342.82 12.846 342.774 13.18 342.774 13.5635V19H340.213V9.06396ZM359.334 19H356.773V18.1465C356.631 18.2826 356.477 18.4155 356.31 18.5454C356.143 18.6691 355.957 18.7804 355.753 18.8794C355.549 18.9722 355.32 19.0464 355.066 19.1021C354.819 19.1577 354.544 19.1855 354.241 19.1855C353.703 19.1855 353.22 19.099 352.793 18.9258C352.367 18.7464 352.005 18.5052 351.708 18.2021C351.417 17.8929 351.195 17.5311 351.04 17.1167C350.885 16.7023 350.808 16.2539 350.808 15.7715V9.06396H353.369V14.8345C353.369 15.187 353.406 15.487 353.48 15.7344C353.56 15.9818 353.669 16.1828 353.805 16.3374C353.947 16.4858 354.114 16.5972 354.306 16.6714C354.497 16.7394 354.705 16.7734 354.927 16.7734C355.187 16.7734 355.428 16.7271 355.651 16.6343C355.88 16.5415 356.078 16.4023 356.245 16.2168C356.412 16.0251 356.542 15.7869 356.634 15.5024C356.727 15.2179 356.773 14.884 356.773 14.5005V9.06396H359.334V19ZM364.761 14.9644C364.446 15.0138 364.192 15.1252 364 15.2983C363.809 15.4653 363.713 15.6942 363.713 15.9849C363.713 16.3065 363.83 16.5848 364.065 16.8198C364.3 17.0487 364.647 17.1631 365.104 17.1631C365.587 17.1631 365.967 17.0239 366.246 16.7456C366.524 16.4673 366.663 16.0993 366.663 15.6416V14.6396L364.761 14.9644ZM367.081 18.063C366.975 18.1805 366.846 18.3073 366.691 18.4434C366.542 18.5732 366.363 18.6938 366.153 18.8052C365.949 18.9103 365.708 19 365.429 19.0742C365.151 19.1484 364.839 19.1855 364.492 19.1855C363.997 19.1855 363.54 19.1082 363.119 18.9536C362.705 18.7928 362.34 18.5701 362.024 18.2856C361.709 18.0011 361.462 17.6733 361.282 17.3022C361.103 16.925 361.013 16.5168 361.013 16.0776C361.013 15.2798 361.261 14.6273 361.755 14.1201C362.25 13.613 362.934 13.2944 363.806 13.1646L366.663 12.7471V12.5615C366.663 12.1162 366.527 11.7637 366.255 11.5039C365.983 11.2441 365.541 11.1143 364.928 11.1143C364.675 11.1143 364.418 11.1452 364.158 11.207C363.898 11.2627 363.648 11.3276 363.407 11.4019C363.172 11.4761 362.952 11.5627 362.748 11.6616C362.544 11.7544 362.365 11.8379 362.21 11.9121L361.208 9.95459C361.777 9.63916 362.408 9.37939 363.101 9.17529C363.799 8.97119 364.523 8.86914 365.271 8.86914C365.729 8.86914 366.19 8.91862 366.654 9.01758C367.124 9.11035 367.548 9.28353 367.925 9.53711C368.308 9.79069 368.621 10.137 368.862 10.5762C369.103 11.0091 369.224 11.5627 369.224 12.2368V16.3188C369.224 16.6095 369.298 16.826 369.446 16.9683C369.601 17.1043 369.811 17.2311 370.077 17.3486L368.917 19.1855C368.447 19.1361 368.07 19.0155 367.786 18.8237C367.501 18.6258 367.266 18.3722 367.081 18.063ZM371.33 5.69629H373.89V16.3003C373.89 16.5106 373.949 16.6714 374.066 16.7827C374.19 16.894 374.385 16.9497 374.651 16.9497C374.775 16.9497 374.88 16.9435 374.966 16.9312C375.059 16.9126 375.177 16.8879 375.319 16.8569L375.523 19.0371C375.35 19.0618 375.164 19.0866 374.966 19.1113C374.799 19.1299 374.604 19.1453 374.382 19.1577C374.165 19.1763 373.94 19.1855 373.705 19.1855C373.34 19.1855 373.012 19.1392 372.721 19.0464C372.431 18.9536 372.18 18.8175 371.97 18.6382C371.766 18.4526 371.608 18.2238 371.497 17.9517C371.385 17.6795 371.33 17.3641 371.33 17.0054V5.69629Z" fill="white"/>
<rect width="155" height="27" transform="translate(393)" fill="#4C2C92"/>
<path d="M412.729 12.3481C412.729 13.3439 412.592 14.2531 412.32 15.0757C412.054 15.8921 411.652 16.591 411.114 17.1724C410.582 17.7537 409.914 18.2052 409.11 18.5269C408.306 18.8423 407.366 19 406.29 19H401.392V5.69629H406.29C407.366 5.69629 408.306 5.8571 409.11 6.17871C409.914 6.49414 410.582 6.94255 411.114 7.52393C411.652 8.10531 412.054 8.80729 412.32 9.62988C412.592 10.4463 412.729 11.3524 412.729 12.3481ZM409.936 12.0884C409.936 11.5256 409.865 11.0029 409.723 10.5205C409.587 10.0319 409.364 9.60824 409.055 9.24951C408.752 8.89079 408.356 8.60938 407.867 8.40527C407.379 8.19499 406.788 8.08984 406.095 8.08984H404.082V16.6064H406.095C406.782 16.6064 407.369 16.5044 407.858 16.3003C408.347 16.09 408.742 15.8055 409.045 15.4468C409.355 15.0819 409.58 14.6551 409.723 14.1665C409.865 13.6779 409.936 13.1553 409.936 12.5986V12.0884ZM416.755 14.918C416.798 15.2148 416.891 15.487 417.033 15.7344C417.182 15.9818 417.367 16.1951 417.59 16.3745C417.812 16.5477 418.069 16.6838 418.36 16.7827C418.651 16.8817 418.96 16.9312 419.288 16.9312C419.665 16.9312 420.073 16.86 420.512 16.7178C420.951 16.5693 421.353 16.356 421.718 16.0776L422.952 17.8774C422.488 18.2671 421.919 18.5825 421.245 18.8237C420.571 19.0649 419.854 19.1855 419.093 19.1855C418.406 19.1855 417.76 19.068 417.154 18.833C416.548 18.598 416.016 18.2578 415.558 17.8125C415.107 17.3672 414.748 16.826 414.482 16.189C414.222 15.5519 414.092 14.8345 414.092 14.0366C414.092 13.3068 414.207 12.6265 414.436 11.9956C414.671 11.3647 414.995 10.8174 415.41 10.3535C415.83 9.88965 416.331 9.52783 416.913 9.26807C417.494 9.00212 418.137 8.86914 418.842 8.86914C419.498 8.86914 420.107 8.98975 420.67 9.23096C421.233 9.46598 421.721 9.79997 422.136 10.2329C422.55 10.6597 422.875 11.173 423.11 11.7729C423.345 12.3729 423.462 13.0347 423.462 13.7583V14.918H416.755ZM418.833 11.0957C418.283 11.0957 417.816 11.2812 417.432 11.6523C417.055 12.0173 416.835 12.4595 416.773 12.979H420.781C420.769 12.4533 420.577 12.008 420.206 11.6431C419.835 11.2782 419.377 11.0957 418.833 11.0957ZM428.76 16.0405C428.76 16.158 428.775 16.2694 428.806 16.3745C428.837 16.4797 428.89 16.5724 428.964 16.6528C429.044 16.7271 429.156 16.7858 429.298 16.8291C429.44 16.8724 429.623 16.894 429.845 16.894C429.938 16.894 430.043 16.891 430.161 16.8848C430.278 16.8724 430.396 16.86 430.513 16.8477C430.631 16.8353 430.739 16.8198 430.838 16.8013C430.943 16.7827 431.03 16.7673 431.098 16.7549L431.33 19.0186C431.088 19.0495 430.838 19.0773 430.578 19.1021C430.355 19.1268 430.108 19.1453 429.836 19.1577C429.564 19.1763 429.289 19.1855 429.01 19.1855C428.126 19.1855 427.436 18.9845 426.941 18.5825C426.447 18.1805 426.199 17.5404 426.199 16.6621V11.2905H424.409V9.06396H426.199V6.25293L428.76 5.56641V9.06396H431.367V11.2905H428.76V16.0405ZM436.191 14.9644C435.875 15.0138 435.622 15.1252 435.43 15.2983C435.238 15.4653 435.143 15.6942 435.143 15.9849C435.143 16.3065 435.26 16.5848 435.495 16.8198C435.73 17.0487 436.076 17.1631 436.534 17.1631C437.017 17.1631 437.397 17.0239 437.675 16.7456C437.954 16.4673 438.093 16.0993 438.093 15.6416V14.6396L436.191 14.9644ZM438.51 18.063C438.405 18.1805 438.275 18.3073 438.121 18.4434C437.972 18.5732 437.793 18.6938 437.583 18.8052C437.378 18.9103 437.137 19 436.859 19.0742C436.581 19.1484 436.268 19.1855 435.922 19.1855C435.427 19.1855 434.969 19.1082 434.549 18.9536C434.134 18.7928 433.77 18.5701 433.454 18.2856C433.139 18.0011 432.891 17.6733 432.712 17.3022C432.533 16.925 432.443 16.5168 432.443 16.0776C432.443 15.2798 432.69 14.6273 433.185 14.1201C433.68 13.613 434.363 13.2944 435.235 13.1646L438.093 12.7471V12.5615C438.093 12.1162 437.957 11.7637 437.685 11.5039C437.412 11.2441 436.97 11.1143 436.358 11.1143C436.104 11.1143 435.848 11.1452 435.588 11.207C435.328 11.2627 435.078 11.3276 434.836 11.4019C434.601 11.4761 434.382 11.5627 434.178 11.6616C433.974 11.7544 433.794 11.8379 433.64 11.9121L432.638 9.95459C433.207 9.63916 433.838 9.37939 434.53 9.17529C435.229 8.97119 435.953 8.86914 436.701 8.86914C437.159 8.86914 437.62 8.91862 438.083 9.01758C438.554 9.11035 438.977 9.28353 439.354 9.53711C439.738 9.79069 440.05 10.137 440.292 10.5762C440.533 11.0091 440.653 11.5627 440.653 12.2368V16.3188C440.653 16.6095 440.728 16.826 440.876 16.9683C441.031 17.1043 441.241 17.2311 441.507 17.3486L440.347 19.1855C439.877 19.1361 439.5 19.0155 439.215 18.8237C438.931 18.6258 438.696 18.3722 438.51 18.063ZM445.357 19H442.796V9.06396H445.357V19ZM442.527 6.45703C442.527 6.24674 442.568 6.04883 442.648 5.86328C442.728 5.67155 442.837 5.50765 442.973 5.37158C443.115 5.22933 443.279 5.118 443.464 5.0376C443.65 4.95719 443.851 4.91699 444.067 4.91699C444.278 4.91699 444.476 4.95719 444.661 5.0376C444.853 5.118 445.017 5.22933 445.153 5.37158C445.295 5.50765 445.406 5.67155 445.487 5.86328C445.567 6.04883 445.607 6.24674 445.607 6.45703C445.607 6.6735 445.567 6.87451 445.487 7.06006C445.406 7.24561 445.295 7.40951 445.153 7.55176C445.017 7.68783 444.853 7.79606 444.661 7.87646C444.476 7.95687 444.278 7.99707 444.067 7.99707C443.851 7.99707 443.65 7.95687 443.464 7.87646C443.279 7.79606 443.115 7.68783 442.973 7.55176C442.837 7.40951 442.728 7.24561 442.648 7.06006C442.568 6.87451 442.527 6.6735 442.527 6.45703ZM447.565 9.06396H450.125V9.91748C450.262 9.78141 450.413 9.65153 450.58 9.52783C450.753 9.39795 450.942 9.28662 451.146 9.19385C451.35 9.09489 451.576 9.01758 451.823 8.96191C452.077 8.90007 452.355 8.86914 452.658 8.86914C453.196 8.86914 453.679 8.95882 454.105 9.13818C454.532 9.31136 454.891 9.55257 455.182 9.86182C455.479 10.1711 455.704 10.5329 455.859 10.9473C456.014 11.3617 456.091 11.8101 456.091 12.2925V19H453.53V13.2202C453.53 12.8677 453.49 12.5708 453.41 12.3296C453.329 12.0822 453.218 11.8843 453.076 11.7358C452.94 11.5812 452.776 11.4699 452.584 11.4019C452.398 11.3276 452.194 11.2905 451.972 11.2905C451.712 11.2905 451.468 11.3369 451.239 11.4297C451.016 11.5225 450.821 11.6647 450.654 11.8564C450.487 12.042 450.357 12.277 450.265 12.5615C450.172 12.846 450.125 13.18 450.125 13.5635V19H447.565V9.06396ZM460.377 14.918C460.42 15.2148 460.513 15.487 460.655 15.7344C460.804 15.9818 460.989 16.1951 461.212 16.3745C461.435 16.5477 461.691 16.6838 461.982 16.7827C462.273 16.8817 462.582 16.9312 462.91 16.9312C463.287 16.9312 463.695 16.86 464.134 16.7178C464.573 16.5693 464.975 16.356 465.34 16.0776L466.574 17.8774C466.11 18.2671 465.541 18.5825 464.867 18.8237C464.193 19.0649 463.476 19.1855 462.715 19.1855C462.028 19.1855 461.382 19.068 460.776 18.833C460.17 18.598 459.638 18.2578 459.18 17.8125C458.729 17.3672 458.37 16.826 458.104 16.189C457.844 15.5519 457.714 14.8345 457.714 14.0366C457.714 13.3068 457.829 12.6265 458.058 11.9956C458.293 11.3647 458.617 10.8174 459.032 10.3535C459.452 9.88965 459.953 9.52783 460.535 9.26807C461.116 9.00212 461.759 8.86914 462.464 8.86914C463.12 8.86914 463.729 8.98975 464.292 9.23096C464.855 9.46598 465.343 9.79997 465.758 10.2329C466.172 10.6597 466.497 11.173 466.732 11.7729C466.967 12.3729 467.084 13.0347 467.084 13.7583V14.918H460.377ZM462.455 11.0957C461.905 11.0957 461.438 11.2812 461.054 11.6523C460.677 12.0173 460.457 12.4595 460.396 12.979H464.403C464.391 12.4533 464.199 12.008 463.828 11.6431C463.457 11.2782 462.999 11.0957 462.455 11.0957ZM475.1 19V18.1465C474.964 18.2949 474.812 18.4341 474.646 18.564C474.485 18.6877 474.302 18.7959 474.098 18.8887C473.9 18.9814 473.681 19.0526 473.439 19.1021C473.204 19.1577 472.942 19.1855 472.651 19.1855C471.995 19.1855 471.395 19.0557 470.851 18.7959C470.307 18.5361 469.84 18.1774 469.45 17.7197C469.061 17.262 468.757 16.7178 468.541 16.0869C468.331 15.4561 468.226 14.7726 468.226 14.0366C468.226 13.3006 468.331 12.6172 468.541 11.9863C468.751 11.3555 469.045 10.8112 469.422 10.3535C469.806 9.88965 470.267 9.52783 470.805 9.26807C471.343 9.00212 471.94 8.86914 472.595 8.86914C473.177 8.86914 473.668 8.97119 474.07 9.17529C474.479 9.37321 474.822 9.62061 475.1 9.91748V5.69629H477.661V19H475.1ZM475.174 13.1089C475.174 12.8429 475.125 12.5955 475.026 12.3667C474.933 12.1379 474.797 11.9399 474.618 11.7729C474.438 11.606 474.222 11.4761 473.968 11.3833C473.721 11.2905 473.439 11.2441 473.124 11.2441C472.759 11.2441 472.434 11.3122 472.15 11.4482C471.872 11.5843 471.637 11.776 471.445 12.0234C471.253 12.2646 471.108 12.5522 471.009 12.8862C470.91 13.2202 470.86 13.5851 470.86 13.981V14.1016C470.86 14.4974 470.91 14.8623 471.009 15.1963C471.108 15.5241 471.253 15.8086 471.445 16.0498C471.637 16.291 471.872 16.4797 472.15 16.6157C472.434 16.7456 472.759 16.8105 473.124 16.8105C473.439 16.8105 473.721 16.7642 473.968 16.6714C474.222 16.5786 474.438 16.4487 474.618 16.2817C474.797 16.1147 474.933 15.9199 475.026 15.6973C475.125 15.4684 475.174 15.221 475.174 14.9551V13.1089ZM486.511 14.9644C486.196 15.0138 485.942 15.1252 485.75 15.2983C485.559 15.4653 485.463 15.6942 485.463 15.9849C485.463 16.3065 485.58 16.5848 485.815 16.8198C486.05 17.0487 486.397 17.1631 486.854 17.1631C487.337 17.1631 487.717 17.0239 487.996 16.7456C488.274 16.4673 488.413 16.0993 488.413 15.6416V14.6396L486.511 14.9644ZM488.831 18.063C488.725 18.1805 488.596 18.3073 488.441 18.4434C488.292 18.5732 488.113 18.6938 487.903 18.8052C487.699 18.9103 487.458 19 487.179 19.0742C486.901 19.1484 486.589 19.1855 486.242 19.1855C485.747 19.1855 485.29 19.1082 484.869 18.9536C484.455 18.7928 484.09 18.5701 483.774 18.2856C483.459 18.0011 483.212 17.6733 483.032 17.3022C482.853 16.925 482.763 16.5168 482.763 16.0776C482.763 15.2798 483.011 14.6273 483.505 14.1201C484 13.613 484.684 13.2944 485.556 13.1646L488.413 12.7471V12.5615C488.413 12.1162 488.277 11.7637 488.005 11.5039C487.733 11.2441 487.291 11.1143 486.678 11.1143C486.425 11.1143 486.168 11.1452 485.908 11.207C485.648 11.2627 485.398 11.3276 485.157 11.4019C484.922 11.4761 484.702 11.5627 484.498 11.6616C484.294 11.7544 484.115 11.8379 483.96 11.9121L482.958 9.95459C483.527 9.63916 484.158 9.37939 484.851 9.17529C485.549 8.97119 486.273 8.86914 487.021 8.86914C487.479 8.86914 487.94 8.91862 488.404 9.01758C488.874 9.11035 489.298 9.28353 489.675 9.53711C490.058 9.79069 490.371 10.137 490.612 10.5762C490.853 11.0091 490.974 11.5627 490.974 12.2368V16.3188C490.974 16.6095 491.048 16.826 491.196 16.9683C491.351 17.1043 491.561 17.2311 491.827 17.3486L490.667 19.1855C490.197 19.1361 489.82 19.0155 489.536 18.8237C489.251 18.6258 489.016 18.3722 488.831 18.063ZM495.677 22.1357H493.117V9.06396H495.677V9.91748C495.956 9.62679 496.299 9.37939 496.707 9.17529C497.115 8.97119 497.61 8.86914 498.191 8.86914C498.847 8.86914 499.441 9.00212 499.973 9.26807C500.511 9.52783 500.972 9.88965 501.355 10.3535C501.738 10.8112 502.035 11.3555 502.246 11.9863C502.456 12.6172 502.561 13.3006 502.561 14.0366C502.561 14.7726 502.453 15.4561 502.236 16.0869C502.02 16.7178 501.717 17.262 501.327 17.7197C500.938 18.1774 500.471 18.5361 499.926 18.7959C499.382 19.0557 498.782 19.1855 498.126 19.1855C497.836 19.1855 497.57 19.1577 497.329 19.1021C497.094 19.0526 496.877 18.9814 496.679 18.8887C496.481 18.7959 496.299 18.6877 496.132 18.564C495.965 18.4341 495.813 18.2949 495.677 18.1465V22.1357ZM495.603 14.9551C495.603 15.221 495.649 15.4684 495.742 15.6973C495.841 15.9199 495.98 16.1147 496.16 16.2817C496.339 16.4487 496.552 16.5786 496.8 16.6714C497.053 16.7642 497.338 16.8105 497.653 16.8105C498.018 16.8105 498.34 16.7456 498.618 16.6157C498.903 16.4797 499.141 16.291 499.333 16.0498C499.524 15.8086 499.67 15.5241 499.769 15.1963C499.868 14.8623 499.917 14.4974 499.917 14.1016V13.981C499.917 13.5851 499.868 13.2202 499.769 12.8862C499.67 12.5522 499.524 12.2646 499.333 12.0234C499.141 11.776 498.903 11.5843 498.618 11.4482C498.34 11.3122 498.018 11.2441 497.653 11.2441C497.338 11.2441 497.053 11.2905 496.8 11.3833C496.552 11.4761 496.339 11.606 496.16 11.7729C495.98 11.9399 495.841 12.1379 495.742 12.3667C495.649 12.5955 495.603 12.8429 495.603 13.1089V14.9551ZM506.829 22.1357H504.268V9.06396H506.829V9.91748C507.107 9.62679 507.45 9.37939 507.858 9.17529C508.267 8.97119 508.761 8.86914 509.343 8.86914C509.998 8.86914 510.592 9.00212 511.124 9.26807C511.662 9.52783 512.123 9.88965 512.506 10.3535C512.89 10.8112 513.187 11.3555 513.397 11.9863C513.607 12.6172 513.712 13.3006 513.712 14.0366C513.712 14.7726 513.604 15.4561 513.388 16.0869C513.171 16.7178 512.868 17.262 512.479 17.7197C512.089 18.1774 511.622 18.5361 511.078 18.7959C510.533 19.0557 509.933 19.1855 509.278 19.1855C508.987 19.1855 508.721 19.1577 508.48 19.1021C508.245 19.0526 508.028 18.9814 507.831 18.8887C507.633 18.7959 507.45 18.6877 507.283 18.564C507.116 18.4341 506.965 18.2949 506.829 18.1465V22.1357ZM506.754 14.9551C506.754 15.221 506.801 15.4684 506.894 15.6973C506.993 15.9199 507.132 16.1147 507.311 16.2817C507.49 16.4487 507.704 16.5786 507.951 16.6714C508.205 16.7642 508.489 16.8105 508.805 16.8105C509.17 16.8105 509.491 16.7456 509.77 16.6157C510.054 16.4797 510.292 16.291 510.484 16.0498C510.676 15.8086 510.821 15.5241 510.92 15.1963C511.019 14.8623 511.068 14.4974 511.068 14.1016V13.981C511.068 13.5851 511.019 13.2202 510.92 12.8862C510.821 12.5522 510.676 12.2646 510.484 12.0234C510.292 11.776 510.054 11.5843 509.77 11.4482C509.491 11.3122 509.17 11.2441 508.805 11.2441C508.489 11.2441 508.205 11.2905 507.951 11.3833C507.704 11.4761 507.49 11.606 507.311 11.7729C507.132 11.9399 506.993 12.1379 506.894 12.3667C506.801 12.5955 506.754 12.8429 506.754 13.1089V14.9551ZM517.562 14.918C517.606 15.2148 517.699 15.487 517.841 15.7344C517.989 15.9818 518.175 16.1951 518.397 16.3745C518.62 16.5477 518.877 16.6838 519.167 16.7827C519.458 16.8817 519.767 16.9312 520.095 16.9312C520.472 16.9312 520.881 16.86 521.32 16.7178C521.759 16.5693 522.161 16.356 522.526 16.0776L523.76 17.8774C523.296 18.2671 522.727 18.5825 522.053 18.8237C521.379 19.0649 520.661 19.1855 519.9 19.1855C519.214 19.1855 518.568 19.068 517.961 18.833C517.355 18.598 516.823 18.2578 516.366 17.8125C515.914 17.3672 515.556 16.826 515.29 16.189C515.03 15.5519 514.9 14.8345 514.9 14.0366C514.9 13.3068 515.014 12.6265 515.243 11.9956C515.478 11.3647 515.803 10.8174 516.217 10.3535C516.638 9.88965 517.139 9.52783 517.72 9.26807C518.302 9.00212 518.945 8.86914 519.65 8.86914C520.306 8.86914 520.915 8.98975 521.478 9.23096C522.04 9.46598 522.529 9.79997 522.943 10.2329C523.358 10.6597 523.682 11.173 523.917 11.7729C524.153 12.3729 524.27 13.0347 524.27 13.7583V14.918H517.562ZM519.641 11.0957C519.09 11.0957 518.623 11.2812 518.24 11.6523C517.862 12.0173 517.643 12.4595 517.581 12.979H521.589C521.576 12.4533 521.385 12.008 521.014 11.6431C520.643 11.2782 520.185 11.0957 519.641 11.0957ZM529.113 14.9644C528.797 15.0138 528.544 15.1252 528.352 15.2983C528.16 15.4653 528.064 15.6942 528.064 15.9849C528.064 16.3065 528.182 16.5848 528.417 16.8198C528.652 17.0487 528.998 17.1631 529.456 17.1631C529.938 17.1631 530.319 17.0239 530.597 16.7456C530.875 16.4673 531.015 16.0993 531.015 15.6416V14.6396L529.113 14.9644ZM531.432 18.063C531.327 18.1805 531.197 18.3073 531.042 18.4434C530.894 18.5732 530.715 18.6938 530.504 18.8052C530.3 18.9103 530.059 19 529.781 19.0742C529.502 19.1484 529.19 19.1855 528.844 19.1855C528.349 19.1855 527.891 19.1082 527.471 18.9536C527.056 18.7928 526.691 18.5701 526.376 18.2856C526.061 18.0011 525.813 17.6733 525.634 17.3022C525.454 16.925 525.365 16.5168 525.365 16.0776C525.365 15.2798 525.612 14.6273 526.107 14.1201C526.602 13.613 527.285 13.2944 528.157 13.1646L531.015 12.7471V12.5615C531.015 12.1162 530.879 11.7637 530.606 11.5039C530.334 11.2441 529.892 11.1143 529.28 11.1143C529.026 11.1143 528.77 11.1452 528.51 11.207C528.25 11.2627 528 11.3276 527.758 11.4019C527.523 11.4761 527.304 11.5627 527.1 11.6616C526.896 11.7544 526.716 11.8379 526.562 11.9121L525.56 9.95459C526.129 9.63916 526.759 9.37939 527.452 9.17529C528.151 8.97119 528.875 8.86914 529.623 8.86914C530.081 8.86914 530.542 8.91862 531.005 9.01758C531.475 9.11035 531.899 9.28353 532.276 9.53711C532.66 9.79069 532.972 10.137 533.213 10.5762C533.455 11.0091 533.575 11.5627 533.575 12.2368V16.3188C533.575 16.6095 533.649 16.826 533.798 16.9683C533.952 17.1043 534.163 17.2311 534.429 17.3486L533.269 19.1855C532.799 19.1361 532.422 19.0155 532.137 18.8237C531.853 18.6258 531.618 18.3722 531.432 18.063ZM535.681 5.69629H538.242V16.3003C538.242 16.5106 538.3 16.6714 538.418 16.7827C538.542 16.894 538.736 16.9497 539.002 16.9497C539.126 16.9497 539.231 16.9435 539.318 16.9312C539.411 16.9126 539.528 16.8879 539.67 16.8569L539.875 19.0371C539.701 19.0618 539.516 19.0866 539.318 19.1113C539.151 19.1299 538.956 19.1453 538.733 19.1577C538.517 19.1763 538.291 19.1855 538.056 19.1855C537.691 19.1855 537.363 19.1392 537.073 19.0464C536.782 18.9536 536.532 18.8175 536.321 18.6382C536.117 18.4526 535.959 18.2238 535.848 17.9517C535.737 17.6795 535.681 17.3641 535.681 17.0054V5.69629Z" fill="white"/>
</svg>
