<svg width="114" height="27" viewBox="0 0 114 27" fill="none" xmlns="http://www.w3.org/2000/svg">
<rect width="114" height="27" fill="#453F86"/>
<path d="M8.3916 5.69629H13.5405C14.3322 5.69629 15.0311 5.81071 15.6372 6.03955C16.2433 6.26839 16.7505 6.57454 17.1587 6.95801C17.5669 7.34147 17.8761 7.78369 18.0864 8.28467C18.2967 8.77946 18.4019 9.29899 18.4019 9.84326C18.4019 10.2824 18.3338 10.6999 18.1978 11.0957C18.0679 11.4854 17.8854 11.841 17.6504 12.1626C17.4215 12.478 17.1494 12.7533 16.834 12.9883C16.5186 13.2171 16.1784 13.3965 15.8135 13.5264L18.7266 19H15.6279L13.2158 14.2129H11.082V19H8.3916V5.69629ZM15.5908 9.93604C15.5908 9.67008 15.5413 9.42269 15.4424 9.19385C15.3496 8.96501 15.2043 8.76709 15.0063 8.6001C14.8146 8.43311 14.5734 8.30322 14.2827 8.21045C13.992 8.11768 13.6549 8.07129 13.2715 8.07129H11.082V11.8193H13.2715C13.6549 11.8193 13.992 11.7729 14.2827 11.6802C14.5734 11.5812 14.8146 11.4482 15.0063 11.2812C15.2043 11.1081 15.3496 10.9071 15.4424 10.6782C15.5413 10.4494 15.5908 10.202 15.5908 9.93604ZM22.085 14.918C22.1283 15.2148 22.221 15.487 22.3633 15.7344C22.5117 15.9818 22.6973 16.1951 22.9199 16.3745C23.1426 16.5477 23.3993 16.6838 23.6899 16.7827C23.9806 16.8817 24.2899 16.9312 24.6177 16.9312C24.995 16.9312 25.4032 16.86 25.8423 16.7178C26.2814 16.5693 26.6834 16.356 27.0483 16.0776L28.2822 17.8774C27.8184 18.2671 27.2493 18.5825 26.5752 18.8237C25.901 19.0649 25.1836 19.1855 24.4229 19.1855C23.7363 19.1855 23.09 19.068 22.4839 18.833C21.8778 18.598 21.3459 18.2578 20.8882 17.8125C20.4367 17.3672 20.078 16.826 19.812 16.189C19.5522 15.5519 19.4224 14.8345 19.4224 14.0366C19.4224 13.3068 19.5368 12.6265 19.7656 11.9956C20.0007 11.3647 20.3254 10.8174 20.7397 10.3535C21.1603 9.88965 21.6613 9.52783 22.2427 9.26807C22.8241 9.00212 23.4673 8.86914 24.1724 8.86914C24.828 8.86914 25.4372 8.98975 26 9.23096C26.5628 9.46598 27.0514 9.79997 27.4658 10.2329C27.8802 10.6597 28.2049 11.173 28.4399 11.7729C28.675 12.3729 28.7925 13.0347 28.7925 13.7583V14.918H22.085ZM24.1631 11.0957C23.6126 11.0957 23.1457 11.2812 22.7622 11.6523C22.3849 12.0173 22.1654 12.4595 22.1035 12.979H26.1113C26.099 12.4533 25.9072 12.008 25.5361 11.6431C25.165 11.2782 24.7074 11.0957 24.1631 11.0957ZM30.4253 5.69629H32.9858V9.91748C33.1219 9.78141 33.2734 9.65153 33.4404 9.52783C33.6136 9.39795 33.8022 9.28662 34.0063 9.19385C34.2104 9.09489 34.4362 9.01758 34.6836 8.96191C34.9372 8.90007 35.2155 8.86914 35.5186 8.86914C36.0566 8.86914 36.5391 8.95882 36.9658 9.13818C37.3926 9.31136 37.7513 9.55257 38.042 9.86182C38.3389 10.1711 38.5646 10.5329 38.7192 10.9473C38.8739 11.3617 38.9512 11.8101 38.9512 12.2925V19H36.3906V13.2202C36.3906 12.8677 36.3504 12.5708 36.27 12.3296C36.1896 12.0822 36.0783 11.8843 35.936 11.7358C35.8 11.5812 35.6361 11.4699 35.4443 11.4019C35.2588 11.3276 35.0547 11.2905 34.832 11.2905C34.5723 11.2905 34.328 11.3369 34.0991 11.4297C33.8765 11.5225 33.6816 11.6647 33.5146 11.8564C33.3477 12.042 33.2178 12.277 33.125 12.5615C33.0322 12.846 32.9858 13.18 32.9858 13.5635V19H30.4253V5.69629ZM42.458 20.1597C42.7487 20.1597 42.9621 20.1071 43.0981 20.002C43.2404 19.8968 43.3517 19.7267 43.4321 19.4917L43.5249 19.1855L40.083 9.06396H42.9312L44.9072 15.9199L46.5493 9.06396H49.3604L46.0112 20.2339C45.8999 20.605 45.7453 20.9235 45.5474 21.1895C45.3494 21.4554 45.1144 21.6719 44.8423 21.8389C44.5701 22.012 44.2671 22.1388 43.9331 22.2192C43.6053 22.2996 43.2528 22.3398 42.8755 22.3398C42.7209 22.3398 42.5415 22.3337 42.3374 22.3213C42.1395 22.3089 41.9323 22.2904 41.7158 22.2656C41.5055 22.2471 41.2952 22.2223 41.085 22.1914C40.8809 22.1605 40.6922 22.1234 40.519 22.0801L41.0015 19.9834C41.1499 20.0205 41.3045 20.0514 41.4653 20.0762C41.6076 20.1009 41.7622 20.1195 41.9292 20.1318C42.1024 20.1504 42.2786 20.1597 42.458 20.1597ZM56.9585 19V18.1465C56.8224 18.2949 56.6709 18.4341 56.5039 18.564C56.3431 18.6877 56.1606 18.7959 55.9565 18.8887C55.7586 18.9814 55.5391 19.0526 55.2979 19.1021C55.0628 19.1577 54.8 19.1855 54.5093 19.1855C53.8537 19.1855 53.2537 19.0557 52.7095 18.7959C52.1652 18.5361 51.6982 18.1774 51.3086 17.7197C50.9189 17.262 50.6159 16.7178 50.3994 16.0869C50.1891 15.4561 50.084 14.7726 50.084 14.0366C50.084 13.3006 50.1891 12.6172 50.3994 11.9863C50.6097 11.3555 50.9035 10.8112 51.2808 10.3535C51.6642 9.88965 52.125 9.52783 52.6631 9.26807C53.2012 9.00212 53.798 8.86914 54.4536 8.86914C55.035 8.86914 55.5267 8.97119 55.9287 9.17529C56.3369 9.37321 56.6802 9.62061 56.9585 9.91748V5.69629H59.519V19H56.9585ZM57.0327 13.1089C57.0327 12.8429 56.9832 12.5955 56.8843 12.3667C56.7915 12.1379 56.6554 11.9399 56.4761 11.7729C56.2967 11.606 56.0802 11.4761 55.8267 11.3833C55.5793 11.2905 55.2979 11.2441 54.9824 11.2441C54.6175 11.2441 54.2928 11.3122 54.0083 11.4482C53.73 11.5843 53.495 11.776 53.3032 12.0234C53.1115 12.2646 52.9661 12.5522 52.8672 12.8862C52.7682 13.2202 52.7188 13.5851 52.7188 13.981V14.1016C52.7188 14.4974 52.7682 14.8623 52.8672 15.1963C52.9661 15.5241 53.1115 15.8086 53.3032 16.0498C53.495 16.291 53.73 16.4797 54.0083 16.6157C54.2928 16.7456 54.6175 16.8105 54.9824 16.8105C55.2979 16.8105 55.5793 16.7642 55.8267 16.6714C56.0802 16.5786 56.2967 16.4487 56.4761 16.2817C56.6554 16.1147 56.7915 15.9199 56.8843 15.6973C56.9832 15.4684 57.0327 15.221 57.0327 14.9551V13.1089ZM67.312 11.5503H67.043C66.6781 11.5503 66.3286 11.5874 65.9946 11.6616C65.6668 11.7358 65.3761 11.8719 65.1226 12.0698C64.869 12.2616 64.6649 12.5275 64.5103 12.8677C64.3618 13.2078 64.2876 13.6439 64.2876 14.1758V19H61.7271V9.06396H64.2876V10.1865C64.3927 10.0195 64.5288 9.85872 64.6958 9.7041C64.8628 9.54948 65.0576 9.41341 65.2803 9.2959C65.5029 9.1722 65.7534 9.07324 66.0317 8.99902C66.3101 8.9248 66.61 8.8877 66.9316 8.8877H67.312V11.5503ZM72.1177 14.9644C71.8022 15.0138 71.5487 15.1252 71.3569 15.2983C71.1652 15.4653 71.0693 15.6942 71.0693 15.9849C71.0693 16.3065 71.1868 16.5848 71.4219 16.8198C71.6569 17.0487 72.0033 17.1631 72.4609 17.1631C72.9434 17.1631 73.3237 17.0239 73.6021 16.7456C73.8804 16.4673 74.0195 16.0993 74.0195 15.6416V14.6396L72.1177 14.9644ZM74.437 18.063C74.3319 18.1805 74.202 18.3073 74.0474 18.4434C73.8989 18.5732 73.7196 18.6938 73.5093 18.8052C73.3052 18.9103 73.064 19 72.7856 19.0742C72.5073 19.1484 72.195 19.1855 71.8486 19.1855C71.3538 19.1855 70.8962 19.1082 70.4756 18.9536C70.0612 18.7928 69.6963 18.5701 69.3809 18.2856C69.0654 18.0011 68.818 17.6733 68.6387 17.3022C68.4593 16.925 68.3696 16.5168 68.3696 16.0776C68.3696 15.2798 68.617 14.6273 69.1118 14.1201C69.6066 13.613 70.29 13.2944 71.1621 13.1646L74.0195 12.7471V12.5615C74.0195 12.1162 73.8835 11.7637 73.6113 11.5039C73.3392 11.2441 72.897 11.1143 72.2847 11.1143C72.0311 11.1143 71.7744 11.1452 71.5146 11.207C71.2549 11.2627 71.0044 11.3276 70.7632 11.4019C70.5282 11.4761 70.3086 11.5627 70.1045 11.6616C69.9004 11.7544 69.721 11.8379 69.5664 11.9121L68.5645 9.95459C69.1335 9.63916 69.7643 9.37939 70.457 9.17529C71.1559 8.97119 71.8796 8.86914 72.6279 8.86914C73.0856 8.86914 73.5464 8.91862 74.0103 9.01758C74.4803 9.11035 74.904 9.28353 75.2812 9.53711C75.6647 9.79069 75.9771 10.137 76.2183 10.5762C76.4595 11.0091 76.5801 11.5627 76.5801 12.2368V16.3188C76.5801 16.6095 76.6543 16.826 76.8027 16.9683C76.9574 17.1043 77.1676 17.2311 77.4336 17.3486L76.2739 19.1855C75.8039 19.1361 75.4266 19.0155 75.1421 18.8237C74.8576 18.6258 74.6226 18.3722 74.437 18.063ZM81.998 16.0405C81.998 16.158 82.0135 16.2694 82.0444 16.3745C82.0754 16.4797 82.1279 16.5724 82.2021 16.6528C82.2826 16.7271 82.3939 16.7858 82.5361 16.8291C82.6784 16.8724 82.8608 16.894 83.0835 16.894C83.1763 16.894 83.2814 16.891 83.3989 16.8848C83.5164 16.8724 83.634 16.86 83.7515 16.8477C83.869 16.8353 83.9772 16.8198 84.0762 16.8013C84.1813 16.7827 84.2679 16.7673 84.3359 16.7549L84.5679 19.0186C84.3267 19.0495 84.0762 19.0773 83.8164 19.1021C83.5938 19.1268 83.3464 19.1453 83.0742 19.1577C82.8021 19.1763 82.5269 19.1855 82.2485 19.1855C81.3641 19.1855 80.6745 18.9845 80.1797 18.5825C79.6849 18.1805 79.4375 17.5404 79.4375 16.6621V11.2905H77.647V9.06396H79.4375V6.25293L81.998 5.56641V9.06396H84.605V11.2905H81.998V16.0405ZM88.3623 14.918C88.4056 15.2148 88.4984 15.487 88.6406 15.7344C88.7891 15.9818 88.9746 16.1951 89.1973 16.3745C89.4199 16.5477 89.6766 16.6838 89.9673 16.7827C90.258 16.8817 90.5672 16.9312 90.895 16.9312C91.2723 16.9312 91.6805 16.86 92.1196 16.7178C92.5588 16.5693 92.9608 16.356 93.3257 16.0776L94.5596 17.8774C94.0957 18.2671 93.5267 18.5825 92.8525 18.8237C92.1784 19.0649 91.4609 19.1855 90.7002 19.1855C90.0137 19.1855 89.3674 19.068 88.7612 18.833C88.1551 18.598 87.6232 18.2578 87.1655 17.8125C86.714 17.3672 86.3553 16.826 86.0894 16.189C85.8296 15.5519 85.6997 14.8345 85.6997 14.0366C85.6997 13.3068 85.8141 12.6265 86.043 11.9956C86.278 11.3647 86.6027 10.8174 87.0171 10.3535C87.4377 9.88965 87.9386 9.52783 88.52 9.26807C89.1014 9.00212 89.7446 8.86914 90.4497 8.86914C91.1053 8.86914 91.7145 8.98975 92.2773 9.23096C92.8402 9.46598 93.3288 9.79997 93.7432 10.2329C94.1576 10.6597 94.4823 11.173 94.7173 11.7729C94.9523 12.3729 95.0698 13.0347 95.0698 13.7583V14.918H88.3623ZM90.4404 11.0957C89.89 11.0957 89.423 11.2812 89.0396 11.6523C88.6623 12.0173 88.4427 12.4595 88.3809 12.979H92.3887C92.3763 12.4533 92.1846 12.008 91.8135 11.6431C91.4424 11.2782 90.9847 11.0957 90.4404 11.0957ZM103.085 19V18.1465C102.949 18.2949 102.798 18.4341 102.631 18.564C102.47 18.6877 102.288 18.7959 102.083 18.8887C101.886 18.9814 101.666 19.0526 101.425 19.1021C101.19 19.1577 100.927 19.1855 100.636 19.1855C99.9806 19.1855 99.3807 19.0557 98.8364 18.7959C98.2922 18.5361 97.8252 18.1774 97.4355 17.7197C97.0459 17.262 96.7428 16.7178 96.5264 16.0869C96.3161 15.4561 96.2109 14.7726 96.2109 14.0366C96.2109 13.3006 96.3161 12.6172 96.5264 11.9863C96.7367 11.3555 97.0304 10.8112 97.4077 10.3535C97.7912 9.88965 98.252 9.52783 98.79 9.26807C99.3281 9.00212 99.925 8.86914 100.581 8.86914C101.162 8.86914 101.654 8.97119 102.056 9.17529C102.464 9.37321 102.807 9.62061 103.085 9.91748V5.69629H105.646V19H103.085ZM103.16 13.1089C103.16 12.8429 103.11 12.5955 103.011 12.3667C102.918 12.1379 102.782 11.9399 102.603 11.7729C102.424 11.606 102.207 11.4761 101.954 11.3833C101.706 11.2905 101.425 11.2441 101.109 11.2441C100.744 11.2441 100.42 11.3122 100.135 11.4482C99.8569 11.5843 99.6219 11.776 99.4302 12.0234C99.2384 12.2646 99.0931 12.5522 98.9941 12.8862C98.8952 13.2202 98.8457 13.5851 98.8457 13.981V14.1016C98.8457 14.4974 98.8952 14.8623 98.9941 15.1963C99.0931 15.5241 99.2384 15.8086 99.4302 16.0498C99.6219 16.291 99.8569 16.4797 100.135 16.6157C100.42 16.7456 100.744 16.8105 101.109 16.8105C101.425 16.8105 101.706 16.7642 101.954 16.6714C102.207 16.5786 102.424 16.4487 102.603 16.2817C102.782 16.1147 102.918 15.9199 103.011 15.6973C103.11 15.4684 103.16 15.221 103.16 14.9551V13.1089Z" fill="white"/>
</svg>
