<svg width="680" height="39" viewBox="0 0 680 39" fill="none" xmlns="http://www.w3.org/2000/svg">
<rect width="114" height="27" transform="translate(0 6)" fill="#453F86"/>
<path d="M8.3916 11.6963H13.5405C14.3322 11.6963 15.0311 11.8107 15.6372 12.0396C16.2433 12.2684 16.7505 12.5745 17.1587 12.958C17.5669 13.3415 17.8761 13.7837 18.0864 14.2847C18.2967 14.7795 18.4019 15.299 18.4019 15.8433C18.4019 16.2824 18.3338 16.6999 18.1978 17.0957C18.0679 17.4854 17.8854 17.841 17.6504 18.1626C17.4215 18.478 17.1494 18.7533 16.834 18.9883C16.5186 19.2171 16.1784 19.3965 15.8135 19.5264L18.7266 25H15.6279L13.2158 20.2129H11.082V25H8.3916V11.6963ZM15.5908 15.936C15.5908 15.6701 15.5413 15.4227 15.4424 15.1938C15.3496 14.965 15.2043 14.7671 15.0063 14.6001C14.8146 14.4331 14.5734 14.3032 14.2827 14.2104C13.992 14.1177 13.6549 14.0713 13.2715 14.0713H11.082V17.8193H13.2715C13.6549 17.8193 13.992 17.7729 14.2827 17.6802C14.5734 17.5812 14.8146 17.4482 15.0063 17.2812C15.2043 17.1081 15.3496 16.9071 15.4424 16.6782C15.5413 16.4494 15.5908 16.202 15.5908 15.936ZM22.085 20.918C22.1283 21.2148 22.221 21.487 22.3633 21.7344C22.5117 21.9818 22.6973 22.1951 22.9199 22.3745C23.1426 22.5477 23.3993 22.6838 23.6899 22.7827C23.9806 22.8817 24.2899 22.9312 24.6177 22.9312C24.995 22.9312 25.4032 22.86 25.8423 22.7178C26.2814 22.5693 26.6834 22.356 27.0483 22.0776L28.2822 23.8774C27.8184 24.2671 27.2493 24.5825 26.5752 24.8237C25.901 25.0649 25.1836 25.1855 24.4229 25.1855C23.7363 25.1855 23.09 25.068 22.4839 24.833C21.8778 24.598 21.3459 24.2578 20.8882 23.8125C20.4367 23.3672 20.078 22.826 19.812 22.189C19.5522 21.5519 19.4224 20.8345 19.4224 20.0366C19.4224 19.3068 19.5368 18.6265 19.7656 17.9956C20.0007 17.3647 20.3254 16.8174 20.7397 16.3535C21.1603 15.8896 21.6613 15.5278 22.2427 15.2681C22.8241 15.0021 23.4673 14.8691 24.1724 14.8691C24.828 14.8691 25.4372 14.9897 26 15.231C26.5628 15.466 27.0514 15.8 27.4658 16.2329C27.8802 16.6597 28.2049 17.173 28.4399 17.7729C28.675 18.3729 28.7925 19.0347 28.7925 19.7583V20.918H22.085ZM24.1631 17.0957C23.6126 17.0957 23.1457 17.2812 22.7622 17.6523C22.3849 18.0173 22.1654 18.4595 22.1035 18.979H26.1113C26.099 18.4533 25.9072 18.008 25.5361 17.6431C25.165 17.2782 24.7074 17.0957 24.1631 17.0957ZM30.4253 11.6963H32.9858V15.9175C33.1219 15.7814 33.2734 15.6515 33.4404 15.5278C33.6136 15.3979 33.8022 15.2866 34.0063 15.1938C34.2104 15.0949 34.4362 15.0176 34.6836 14.9619C34.9372 14.9001 35.2155 14.8691 35.5186 14.8691C36.0566 14.8691 36.5391 14.9588 36.9658 15.1382C37.3926 15.3114 37.7513 15.5526 38.042 15.8618C38.3389 16.1711 38.5646 16.5329 38.7192 16.9473C38.8739 17.3617 38.9512 17.8101 38.9512 18.2925V25H36.3906V19.2202C36.3906 18.8677 36.3504 18.5708 36.27 18.3296C36.1896 18.0822 36.0783 17.8843 35.936 17.7358C35.8 17.5812 35.6361 17.4699 35.4443 17.4019C35.2588 17.3276 35.0547 17.2905 34.832 17.2905C34.5723 17.2905 34.328 17.3369 34.0991 17.4297C33.8765 17.5225 33.6816 17.6647 33.5146 17.8564C33.3477 18.042 33.2178 18.277 33.125 18.5615C33.0322 18.846 32.9858 19.18 32.9858 19.5635V25H30.4253V11.6963ZM42.458 26.1597C42.7487 26.1597 42.9621 26.1071 43.0981 26.002C43.2404 25.8968 43.3517 25.7267 43.4321 25.4917L43.5249 25.1855L40.083 15.064H42.9312L44.9072 21.9199L46.5493 15.064H49.3604L46.0112 26.2339C45.8999 26.605 45.7453 26.9235 45.5474 27.1895C45.3494 27.4554 45.1144 27.6719 44.8423 27.8389C44.5701 28.012 44.2671 28.1388 43.9331 28.2192C43.6053 28.2996 43.2528 28.3398 42.8755 28.3398C42.7209 28.3398 42.5415 28.3337 42.3374 28.3213C42.1395 28.3089 41.9323 28.2904 41.7158 28.2656C41.5055 28.2471 41.2952 28.2223 41.085 28.1914C40.8809 28.1605 40.6922 28.1234 40.519 28.0801L41.0015 25.9834C41.1499 26.0205 41.3045 26.0514 41.4653 26.0762C41.6076 26.1009 41.7622 26.1195 41.9292 26.1318C42.1024 26.1504 42.2786 26.1597 42.458 26.1597ZM56.9585 25V24.1465C56.8224 24.2949 56.6709 24.4341 56.5039 24.564C56.3431 24.6877 56.1606 24.7959 55.9565 24.8887C55.7586 24.9814 55.5391 25.0526 55.2979 25.1021C55.0628 25.1577 54.8 25.1855 54.5093 25.1855C53.8537 25.1855 53.2537 25.0557 52.7095 24.7959C52.1652 24.5361 51.6982 24.1774 51.3086 23.7197C50.9189 23.262 50.6159 22.7178 50.3994 22.0869C50.1891 21.4561 50.084 20.7726 50.084 20.0366C50.084 19.3006 50.1891 18.6172 50.3994 17.9863C50.6097 17.3555 50.9035 16.8112 51.2808 16.3535C51.6642 15.8896 52.125 15.5278 52.6631 15.2681C53.2012 15.0021 53.798 14.8691 54.4536 14.8691C55.035 14.8691 55.5267 14.9712 55.9287 15.1753C56.3369 15.3732 56.6802 15.6206 56.9585 15.9175V11.6963H59.519V25H56.9585ZM57.0327 19.1089C57.0327 18.8429 56.9832 18.5955 56.8843 18.3667C56.7915 18.1379 56.6554 17.9399 56.4761 17.7729C56.2967 17.606 56.0802 17.4761 55.8267 17.3833C55.5793 17.2905 55.2979 17.2441 54.9824 17.2441C54.6175 17.2441 54.2928 17.3122 54.0083 17.4482C53.73 17.5843 53.495 17.776 53.3032 18.0234C53.1115 18.2646 52.9661 18.5522 52.8672 18.8862C52.7682 19.2202 52.7188 19.5851 52.7188 19.981V20.1016C52.7188 20.4974 52.7682 20.8623 52.8672 21.1963C52.9661 21.5241 53.1115 21.8086 53.3032 22.0498C53.495 22.291 53.73 22.4797 54.0083 22.6157C54.2928 22.7456 54.6175 22.8105 54.9824 22.8105C55.2979 22.8105 55.5793 22.7642 55.8267 22.6714C56.0802 22.5786 56.2967 22.4487 56.4761 22.2817C56.6554 22.1147 56.7915 21.9199 56.8843 21.6973C56.9832 21.4684 57.0327 21.221 57.0327 20.9551V19.1089ZM67.312 17.5503H67.043C66.6781 17.5503 66.3286 17.5874 65.9946 17.6616C65.6668 17.7358 65.3761 17.8719 65.1226 18.0698C64.869 18.2616 64.6649 18.5275 64.5103 18.8677C64.3618 19.2078 64.2876 19.6439 64.2876 20.1758V25H61.7271V15.064H64.2876V16.1865C64.3927 16.0195 64.5288 15.8587 64.6958 15.7041C64.8628 15.5495 65.0576 15.4134 65.2803 15.2959C65.5029 15.1722 65.7534 15.0732 66.0317 14.999C66.3101 14.9248 66.61 14.8877 66.9316 14.8877H67.312V17.5503ZM72.1177 20.9644C71.8022 21.0138 71.5487 21.1252 71.3569 21.2983C71.1652 21.4653 71.0693 21.6942 71.0693 21.9849C71.0693 22.3065 71.1868 22.5848 71.4219 22.8198C71.6569 23.0487 72.0033 23.1631 72.4609 23.1631C72.9434 23.1631 73.3237 23.0239 73.6021 22.7456C73.8804 22.4673 74.0195 22.0993 74.0195 21.6416V20.6396L72.1177 20.9644ZM74.437 24.063C74.3319 24.1805 74.202 24.3073 74.0474 24.4434C73.8989 24.5732 73.7196 24.6938 73.5093 24.8052C73.3052 24.9103 73.064 25 72.7856 25.0742C72.5073 25.1484 72.195 25.1855 71.8486 25.1855C71.3538 25.1855 70.8962 25.1082 70.4756 24.9536C70.0612 24.7928 69.6963 24.5701 69.3809 24.2856C69.0654 24.0011 68.818 23.6733 68.6387 23.3022C68.4593 22.925 68.3696 22.5168 68.3696 22.0776C68.3696 21.2798 68.617 20.6273 69.1118 20.1201C69.6066 19.613 70.29 19.2944 71.1621 19.1646L74.0195 18.7471V18.5615C74.0195 18.1162 73.8835 17.7637 73.6113 17.5039C73.3392 17.2441 72.897 17.1143 72.2847 17.1143C72.0311 17.1143 71.7744 17.1452 71.5146 17.207C71.2549 17.2627 71.0044 17.3276 70.7632 17.4019C70.5282 17.4761 70.3086 17.5627 70.1045 17.6616C69.9004 17.7544 69.721 17.8379 69.5664 17.9121L68.5645 15.9546C69.1335 15.6392 69.7643 15.3794 70.457 15.1753C71.1559 14.9712 71.8796 14.8691 72.6279 14.8691C73.0856 14.8691 73.5464 14.9186 74.0103 15.0176C74.4803 15.1104 74.904 15.2835 75.2812 15.5371C75.6647 15.7907 75.9771 16.137 76.2183 16.5762C76.4595 17.0091 76.5801 17.5627 76.5801 18.2368V22.3188C76.5801 22.6095 76.6543 22.826 76.8027 22.9683C76.9574 23.1043 77.1676 23.2311 77.4336 23.3486L76.2739 25.1855C75.8039 25.1361 75.4266 25.0155 75.1421 24.8237C74.8576 24.6258 74.6226 24.3722 74.437 24.063ZM81.998 22.0405C81.998 22.158 82.0135 22.2694 82.0444 22.3745C82.0754 22.4797 82.1279 22.5724 82.2021 22.6528C82.2826 22.7271 82.3939 22.7858 82.5361 22.8291C82.6784 22.8724 82.8608 22.894 83.0835 22.894C83.1763 22.894 83.2814 22.891 83.3989 22.8848C83.5164 22.8724 83.634 22.86 83.7515 22.8477C83.869 22.8353 83.9772 22.8198 84.0762 22.8013C84.1813 22.7827 84.2679 22.7673 84.3359 22.7549L84.5679 25.0186C84.3267 25.0495 84.0762 25.0773 83.8164 25.1021C83.5938 25.1268 83.3464 25.1453 83.0742 25.1577C82.8021 25.1763 82.5269 25.1855 82.2485 25.1855C81.3641 25.1855 80.6745 24.9845 80.1797 24.5825C79.6849 24.1805 79.4375 23.5404 79.4375 22.6621V17.2905H77.647V15.064H79.4375V12.2529L81.998 11.5664V15.064H84.605V17.2905H81.998V22.0405ZM88.3623 20.918C88.4056 21.2148 88.4984 21.487 88.6406 21.7344C88.7891 21.9818 88.9746 22.1951 89.1973 22.3745C89.4199 22.5477 89.6766 22.6838 89.9673 22.7827C90.258 22.8817 90.5672 22.9312 90.895 22.9312C91.2723 22.9312 91.6805 22.86 92.1196 22.7178C92.5588 22.5693 92.9608 22.356 93.3257 22.0776L94.5596 23.8774C94.0957 24.2671 93.5267 24.5825 92.8525 24.8237C92.1784 25.0649 91.4609 25.1855 90.7002 25.1855C90.0137 25.1855 89.3674 25.068 88.7612 24.833C88.1551 24.598 87.6232 24.2578 87.1655 23.8125C86.714 23.3672 86.3553 22.826 86.0894 22.189C85.8296 21.5519 85.6997 20.8345 85.6997 20.0366C85.6997 19.3068 85.8141 18.6265 86.043 17.9956C86.278 17.3647 86.6027 16.8174 87.0171 16.3535C87.4377 15.8896 87.9386 15.5278 88.52 15.2681C89.1014 15.0021 89.7446 14.8691 90.4497 14.8691C91.1053 14.8691 91.7145 14.9897 92.2773 15.231C92.8402 15.466 93.3288 15.8 93.7432 16.2329C94.1576 16.6597 94.4823 17.173 94.7173 17.7729C94.9523 18.3729 95.0698 19.0347 95.0698 19.7583V20.918H88.3623ZM90.4404 17.0957C89.89 17.0957 89.423 17.2812 89.0396 17.6523C88.6623 18.0173 88.4427 18.4595 88.3809 18.979H92.3887C92.3763 18.4533 92.1846 18.008 91.8135 17.6431C91.4424 17.2782 90.9847 17.0957 90.4404 17.0957ZM103.085 25V24.1465C102.949 24.2949 102.798 24.4341 102.631 24.564C102.47 24.6877 102.288 24.7959 102.083 24.8887C101.886 24.9814 101.666 25.0526 101.425 25.1021C101.19 25.1577 100.927 25.1855 100.636 25.1855C99.9806 25.1855 99.3807 25.0557 98.8364 24.7959C98.2922 24.5361 97.8252 24.1774 97.4355 23.7197C97.0459 23.262 96.7428 22.7178 96.5264 22.0869C96.3161 21.4561 96.2109 20.7726 96.2109 20.0366C96.2109 19.3006 96.3161 18.6172 96.5264 17.9863C96.7367 17.3555 97.0304 16.8112 97.4077 16.3535C97.7912 15.8896 98.252 15.5278 98.79 15.2681C99.3281 15.0021 99.925 14.8691 100.581 14.8691C101.162 14.8691 101.654 14.9712 102.056 15.1753C102.464 15.3732 102.807 15.6206 103.085 15.9175V11.6963H105.646V25H103.085ZM103.16 19.1089C103.16 18.8429 103.11 18.5955 103.011 18.3667C102.918 18.1379 102.782 17.9399 102.603 17.7729C102.424 17.606 102.207 17.4761 101.954 17.3833C101.706 17.2905 101.425 17.2441 101.109 17.2441C100.744 17.2441 100.42 17.3122 100.135 17.4482C99.8569 17.5843 99.6219 17.776 99.4302 18.0234C99.2384 18.2646 99.0931 18.5522 98.9941 18.8862C98.8952 19.2202 98.8457 19.5851 98.8457 19.981V20.1016C98.8457 20.4974 98.8952 20.8623 98.9941 21.1963C99.0931 21.5241 99.2384 21.8086 99.4302 22.0498C99.6219 22.291 99.8569 22.4797 100.135 22.6157C100.42 22.7456 100.744 22.8105 101.109 22.8105C101.425 22.8105 101.706 22.7642 101.954 22.6714C102.207 22.5786 102.424 22.4487 102.603 22.2817C102.782 22.1147 102.918 21.9199 103.011 21.6973C103.11 21.4684 103.16 21.221 103.16 20.9551V19.1089Z" fill="white"/>
<rect width="256" height="27" transform="translate(124 6)" fill="#1D70B8"/>
<path d="M139.721 22.5322H134.794L134.043 25H131.186L135.537 11.6963H139.071L143.487 25H140.481L139.721 22.5322ZM135.518 20.1572H138.997L137.271 14.5352H137.234L135.518 20.1572ZM147.319 28.1357H144.758V15.064H147.319V15.9175C147.597 15.6268 147.94 15.3794 148.349 15.1753C148.757 14.9712 149.252 14.8691 149.833 14.8691C150.489 14.8691 151.082 15.0021 151.614 15.2681C152.152 15.5278 152.613 15.8896 152.997 16.3535C153.38 16.8112 153.677 17.3555 153.887 17.9863C154.097 18.6172 154.203 19.3006 154.203 20.0366C154.203 20.7726 154.094 21.4561 153.878 22.0869C153.661 22.7178 153.358 23.262 152.969 23.7197C152.579 24.1774 152.112 24.5361 151.568 24.7959C151.024 25.0557 150.424 25.1855 149.768 25.1855C149.477 25.1855 149.211 25.1577 148.97 25.1021C148.735 25.0526 148.519 24.9814 148.321 24.8887C148.123 24.7959 147.94 24.6877 147.773 24.564C147.606 24.4341 147.455 24.2949 147.319 24.1465V28.1357ZM147.245 20.9551C147.245 21.221 147.291 21.4684 147.384 21.6973C147.483 21.9199 147.622 22.1147 147.801 22.2817C147.981 22.4487 148.194 22.5786 148.441 22.6714C148.695 22.7642 148.979 22.8105 149.295 22.8105C149.66 22.8105 149.981 22.7456 150.26 22.6157C150.544 22.4797 150.782 22.291 150.974 22.0498C151.166 21.8086 151.311 21.5241 151.41 21.1963C151.509 20.8623 151.559 20.4974 151.559 20.1016V19.981C151.559 19.5851 151.509 19.2202 151.41 18.8862C151.311 18.5522 151.166 18.2646 150.974 18.0234C150.782 17.776 150.544 17.5843 150.26 17.4482C149.981 17.3122 149.66 17.2441 149.295 17.2441C148.979 17.2441 148.695 17.2905 148.441 17.3833C148.194 17.4761 147.981 17.606 147.801 17.7729C147.622 17.9399 147.483 18.1379 147.384 18.3667C147.291 18.5955 147.245 18.8429 147.245 19.1089V20.9551ZM158.47 28.1357H155.91V15.064H158.47V15.9175C158.749 15.6268 159.092 15.3794 159.5 15.1753C159.908 14.9712 160.403 14.8691 160.984 14.8691C161.64 14.8691 162.234 15.0021 162.766 15.2681C163.304 15.5278 163.764 15.8896 164.148 16.3535C164.531 16.8112 164.828 17.3555 165.039 17.9863C165.249 18.6172 165.354 19.3006 165.354 20.0366C165.354 20.7726 165.246 21.4561 165.029 22.0869C164.813 22.7178 164.51 23.262 164.12 23.7197C163.73 24.1774 163.264 24.5361 162.719 24.7959C162.175 25.0557 161.575 25.1855 160.919 25.1855C160.629 25.1855 160.363 25.1577 160.122 25.1021C159.887 25.0526 159.67 24.9814 159.472 24.8887C159.274 24.7959 159.092 24.6877 158.925 24.564C158.758 24.4341 158.606 24.2949 158.47 24.1465V28.1357ZM158.396 20.9551C158.396 21.221 158.442 21.4684 158.535 21.6973C158.634 21.9199 158.773 22.1147 158.953 22.2817C159.132 22.4487 159.345 22.5786 159.593 22.6714C159.846 22.7642 160.131 22.8105 160.446 22.8105C160.811 22.8105 161.133 22.7456 161.411 22.6157C161.696 22.4797 161.934 22.291 162.125 22.0498C162.317 21.8086 162.463 21.5241 162.562 21.1963C162.66 20.8623 162.71 20.4974 162.71 20.1016V19.981C162.71 19.5851 162.66 19.2202 162.562 18.8862C162.463 18.5522 162.317 18.2646 162.125 18.0234C161.934 17.776 161.696 17.5843 161.411 17.4482C161.133 17.3122 160.811 17.2441 160.446 17.2441C160.131 17.2441 159.846 17.2905 159.593 17.3833C159.345 17.4761 159.132 17.606 158.953 17.7729C158.773 17.9399 158.634 18.1379 158.535 18.3667C158.442 18.5955 158.396 18.8429 158.396 19.1089V20.9551ZM169.204 20.918C169.247 21.2148 169.34 21.487 169.482 21.7344C169.631 21.9818 169.816 22.1951 170.039 22.3745C170.262 22.5477 170.518 22.6838 170.809 22.7827C171.1 22.8817 171.409 22.9312 171.737 22.9312C172.114 22.9312 172.522 22.86 172.961 22.7178C173.401 22.5693 173.803 22.356 174.167 22.0776L175.401 23.8774C174.938 24.2671 174.368 24.5825 173.694 24.8237C173.02 25.0649 172.303 25.1855 171.542 25.1855C170.855 25.1855 170.209 25.068 169.603 24.833C168.997 24.598 168.465 24.2578 168.007 23.8125C167.556 23.3672 167.197 22.826 166.931 22.189C166.671 21.5519 166.542 20.8345 166.542 20.0366C166.542 19.3068 166.656 18.6265 166.885 17.9956C167.12 17.3647 167.444 16.8174 167.859 16.3535C168.279 15.8896 168.78 15.5278 169.362 15.2681C169.943 15.0021 170.586 14.8691 171.292 14.8691C171.947 14.8691 172.556 14.9897 173.119 15.231C173.682 15.466 174.171 15.8 174.585 16.2329C174.999 16.6597 175.324 17.173 175.559 17.7729C175.794 18.3729 175.912 19.0347 175.912 19.7583V20.918H169.204ZM171.282 17.0957C170.732 17.0957 170.265 17.2812 169.881 17.6523C169.504 18.0173 169.285 18.4595 169.223 18.979H173.23C173.218 18.4533 173.026 18.008 172.655 17.6431C172.284 17.2782 171.826 17.0957 171.282 17.0957ZM177.507 11.6963H180.068V22.3003C180.068 22.5106 180.127 22.6714 180.244 22.7827C180.368 22.894 180.563 22.9497 180.829 22.9497C180.952 22.9497 181.057 22.9435 181.144 22.9312C181.237 22.9126 181.354 22.8879 181.497 22.8569L181.701 25.0371C181.528 25.0618 181.342 25.0866 181.144 25.1113C180.977 25.1299 180.782 25.1453 180.56 25.1577C180.343 25.1763 180.117 25.1855 179.882 25.1855C179.517 25.1855 179.19 25.1392 178.899 25.0464C178.608 24.9536 178.358 24.8175 178.147 24.6382C177.943 24.4526 177.786 24.2238 177.674 23.9517C177.563 23.6795 177.507 23.3641 177.507 23.0054V11.6963ZM183.074 11.6963H185.634V22.3003C185.634 22.5106 185.693 22.6714 185.811 22.7827C185.934 22.894 186.129 22.9497 186.395 22.9497C186.519 22.9497 186.624 22.9435 186.71 22.9312C186.803 22.9126 186.921 22.8879 187.063 22.8569L187.267 25.0371C187.094 25.0618 186.908 25.0866 186.71 25.1113C186.543 25.1299 186.349 25.1453 186.126 25.1577C185.91 25.1763 185.684 25.1855 185.449 25.1855C185.084 25.1855 184.756 25.1392 184.465 25.0464C184.175 24.9536 183.924 24.8175 183.714 24.6382C183.51 24.4526 183.352 24.2238 183.241 23.9517C183.129 23.6795 183.074 23.3641 183.074 23.0054V11.6963ZM191.887 20.9644C191.572 21.0138 191.318 21.1252 191.126 21.2983C190.935 21.4653 190.839 21.6942 190.839 21.9849C190.839 22.3065 190.956 22.5848 191.191 22.8198C191.426 23.0487 191.773 23.1631 192.23 23.1631C192.713 23.1631 193.093 23.0239 193.372 22.7456C193.65 22.4673 193.789 22.0993 193.789 21.6416V20.6396L191.887 20.9644ZM194.207 24.063C194.101 24.1805 193.972 24.3073 193.817 24.4434C193.668 24.5732 193.489 24.6938 193.279 24.8052C193.075 24.9103 192.833 25 192.555 25.0742C192.277 25.1484 191.965 25.1855 191.618 25.1855C191.123 25.1855 190.666 25.1082 190.245 24.9536C189.831 24.7928 189.466 24.5701 189.15 24.2856C188.835 24.0011 188.588 23.6733 188.408 23.3022C188.229 22.925 188.139 22.5168 188.139 22.0776C188.139 21.2798 188.387 20.6273 188.881 20.1201C189.376 19.613 190.06 19.2944 190.932 19.1646L193.789 18.7471V18.5615C193.789 18.1162 193.653 17.7637 193.381 17.5039C193.109 17.2441 192.667 17.1143 192.054 17.1143C191.801 17.1143 191.544 17.1452 191.284 17.207C191.024 17.2627 190.774 17.3276 190.533 17.4019C190.298 17.4761 190.078 17.5627 189.874 17.6616C189.67 17.7544 189.491 17.8379 189.336 17.9121L188.334 15.9546C188.903 15.6392 189.534 15.3794 190.227 15.1753C190.925 14.9712 191.649 14.8691 192.397 14.8691C192.855 14.8691 193.316 14.9186 193.78 15.0176C194.25 15.1104 194.674 15.2835 195.051 15.5371C195.434 15.7907 195.747 16.137 195.988 16.5762C196.229 17.0091 196.35 17.5627 196.35 18.2368V22.3188C196.35 22.6095 196.424 22.826 196.572 22.9683C196.727 23.1043 196.937 23.2311 197.203 23.3486L196.043 25.1855C195.573 25.1361 195.196 25.0155 194.912 24.8237C194.627 24.6258 194.392 24.3722 194.207 24.063ZM198.493 15.064H201.053V15.9175C201.189 15.7814 201.341 15.6515 201.508 15.5278C201.681 15.3979 201.87 15.2866 202.074 15.1938C202.278 15.0949 202.504 15.0176 202.751 14.9619C203.005 14.9001 203.283 14.8691 203.586 14.8691C204.124 14.8691 204.606 14.9588 205.033 15.1382C205.46 15.3114 205.819 15.5526 206.109 15.8618C206.406 16.1711 206.632 16.5329 206.787 16.9473C206.941 17.3617 207.019 17.8101 207.019 18.2925V25H204.458V19.2202C204.458 18.8677 204.418 18.5708 204.337 18.3296C204.257 18.0822 204.146 17.8843 204.003 17.7358C203.867 17.5812 203.703 17.4699 203.512 17.4019C203.326 17.3276 203.122 17.2905 202.899 17.2905C202.64 17.2905 202.395 17.3369 202.167 17.4297C201.944 17.5225 201.749 17.6647 201.582 17.8564C201.415 18.042 201.285 18.277 201.192 18.5615C201.1 18.846 201.053 19.18 201.053 19.5635V25H198.493V15.064ZM212.826 22.0405C212.826 22.158 212.842 22.2694 212.873 22.3745C212.903 22.4797 212.956 22.5724 213.03 22.6528C213.111 22.7271 213.222 22.7858 213.364 22.8291C213.507 22.8724 213.689 22.894 213.912 22.894C214.004 22.894 214.11 22.891 214.227 22.8848C214.345 22.8724 214.462 22.86 214.58 22.8477C214.697 22.8353 214.805 22.8198 214.904 22.8013C215.009 22.7827 215.096 22.7673 215.164 22.7549L215.396 25.0186C215.155 25.0495 214.904 25.0773 214.645 25.1021C214.422 25.1268 214.174 25.1453 213.902 25.1577C213.63 25.1763 213.355 25.1855 213.077 25.1855C212.192 25.1855 211.503 24.9845 211.008 24.5825C210.513 24.1805 210.266 23.5404 210.266 22.6621V17.2905H208.475V15.064H210.266V12.2529L212.826 11.5664V15.064H215.433V17.2905H212.826V22.0405ZM223.041 25H220.48V15.064H223.041V25ZM220.211 12.457C220.211 12.2467 220.251 12.0488 220.332 11.8633C220.412 11.6715 220.52 11.5076 220.656 11.3716C220.799 11.2293 220.962 11.118 221.148 11.0376C221.333 10.9572 221.535 10.917 221.751 10.917C221.961 10.917 222.159 10.9572 222.345 11.0376C222.536 11.118 222.7 11.2293 222.836 11.3716C222.979 11.5076 223.09 11.6715 223.17 11.8633C223.251 12.0488 223.291 12.2467 223.291 12.457C223.291 12.6735 223.251 12.8745 223.17 13.0601C223.09 13.2456 222.979 13.4095 222.836 13.5518C222.7 13.6878 222.536 13.7961 222.345 13.8765C222.159 13.9569 221.961 13.9971 221.751 13.9971C221.535 13.9971 221.333 13.9569 221.148 13.8765C220.962 13.7961 220.799 13.6878 220.656 13.5518C220.52 13.4095 220.412 13.2456 220.332 13.0601C220.251 12.8745 220.211 12.6735 220.211 12.457ZM225.249 15.064H227.809V15.9175C227.945 15.7814 228.097 15.6515 228.264 15.5278C228.437 15.3979 228.625 15.2866 228.83 15.1938C229.034 15.0949 229.259 15.0176 229.507 14.9619C229.76 14.9001 230.039 14.8691 230.342 14.8691C230.88 14.8691 231.362 14.9588 231.789 15.1382C232.216 15.3114 232.575 15.5526 232.865 15.8618C233.162 16.1711 233.388 16.5329 233.542 16.9473C233.697 17.3617 233.774 17.8101 233.774 18.2925V25H231.214V19.2202C231.214 18.8677 231.174 18.5708 231.093 18.3296C231.013 18.0822 230.902 17.8843 230.759 17.7358C230.623 17.5812 230.459 17.4699 230.268 17.4019C230.082 17.3276 229.878 17.2905 229.655 17.2905C229.396 17.2905 229.151 17.3369 228.922 17.4297C228.7 17.5225 228.505 17.6647 228.338 17.8564C228.171 18.042 228.041 18.277 227.948 18.5615C227.855 18.846 227.809 19.18 227.809 19.5635V25H225.249V15.064ZM241.911 28.1357H239.35V15.064H241.911V15.9175C242.189 15.6268 242.532 15.3794 242.94 15.1753C243.349 14.9712 243.843 14.8691 244.425 14.8691C245.08 14.8691 245.674 15.0021 246.206 15.2681C246.744 15.5278 247.205 15.8896 247.588 16.3535C247.972 16.8112 248.269 17.3555 248.479 17.9863C248.689 18.6172 248.794 19.3006 248.794 20.0366C248.794 20.7726 248.686 21.4561 248.47 22.0869C248.253 22.7178 247.95 23.262 247.561 23.7197C247.171 24.1774 246.704 24.5361 246.16 24.7959C245.615 25.0557 245.015 25.1855 244.36 25.1855C244.069 25.1855 243.803 25.1577 243.562 25.1021C243.327 25.0526 243.111 24.9814 242.913 24.8887C242.715 24.7959 242.532 24.6877 242.365 24.564C242.198 24.4341 242.047 24.2949 241.911 24.1465V28.1357ZM241.836 20.9551C241.836 21.221 241.883 21.4684 241.976 21.6973C242.075 21.9199 242.214 22.1147 242.393 22.2817C242.572 22.4487 242.786 22.5786 243.033 22.6714C243.287 22.7642 243.571 22.8105 243.887 22.8105C244.252 22.8105 244.573 22.7456 244.852 22.6157C245.136 22.4797 245.374 22.291 245.566 22.0498C245.758 21.8086 245.903 21.5241 246.002 21.1963C246.101 20.8623 246.15 20.4974 246.15 20.1016V19.981C246.15 19.5851 246.101 19.2202 246.002 18.8862C245.903 18.5522 245.758 18.2646 245.566 18.0234C245.374 17.776 245.136 17.5843 244.852 17.4482C244.573 17.3122 244.252 17.2441 243.887 17.2441C243.571 17.2441 243.287 17.2905 243.033 17.3833C242.786 17.4761 242.572 17.606 242.393 17.7729C242.214 17.9399 242.075 18.1379 241.976 18.3667C241.883 18.5955 241.836 18.8429 241.836 19.1089V20.9551ZM252.645 20.918C252.688 21.2148 252.781 21.487 252.923 21.7344C253.071 21.9818 253.257 22.1951 253.479 22.3745C253.702 22.5477 253.959 22.6838 254.25 22.7827C254.54 22.8817 254.849 22.9312 255.177 22.9312C255.555 22.9312 255.963 22.86 256.402 22.7178C256.841 22.5693 257.243 22.356 257.608 22.0776L258.842 23.8774C258.378 24.2671 257.809 24.5825 257.135 24.8237C256.461 25.0649 255.743 25.1855 254.982 25.1855C254.296 25.1855 253.65 25.068 253.043 24.833C252.437 24.598 251.905 24.2578 251.448 23.8125C250.996 23.3672 250.638 22.826 250.372 22.189C250.112 21.5519 249.982 20.8345 249.982 20.0366C249.982 19.3068 250.096 18.6265 250.325 17.9956C250.56 17.3647 250.885 16.8174 251.299 16.3535C251.72 15.8896 252.221 15.5278 252.802 15.2681C253.384 15.0021 254.027 14.8691 254.732 14.8691C255.388 14.8691 255.997 14.9897 256.56 15.231C257.122 15.466 257.611 15.8 258.025 16.2329C258.44 16.6597 258.764 17.173 259 17.7729C259.235 18.3729 259.352 19.0347 259.352 19.7583V20.918H252.645ZM254.723 17.0957C254.172 17.0957 253.705 17.2812 253.322 17.6523C252.944 18.0173 252.725 18.4595 252.663 18.979H256.671C256.659 18.4533 256.467 18.008 256.096 17.6431C255.725 17.2782 255.267 17.0957 254.723 17.0957ZM266.57 17.5503H266.301C265.936 17.5503 265.586 17.5874 265.252 17.6616C264.925 17.7358 264.634 17.8719 264.38 18.0698C264.127 18.2616 263.923 18.5275 263.768 18.8677C263.62 19.2078 263.545 19.6439 263.545 20.1758V25H260.985V15.064H263.545V16.1865C263.651 16.0195 263.787 15.8587 263.954 15.7041C264.121 15.5495 264.315 15.4134 264.538 15.2959C264.761 15.1722 265.011 15.0732 265.29 14.999C265.568 14.9248 265.868 14.8877 266.189 14.8877H266.57V17.5503ZM268.871 21.8271C269.236 22.1549 269.672 22.4364 270.179 22.6714C270.686 22.9064 271.199 23.0239 271.719 23.0239C272.096 23.0239 272.393 22.9528 272.609 22.8105C272.826 22.6621 272.934 22.4735 272.934 22.2446C272.934 21.855 272.517 21.5519 271.682 21.3354L270.958 21.1406C270.599 21.054 270.237 20.9365 269.873 20.7881C269.508 20.6335 269.171 20.4325 268.861 20.1851C268.558 19.9377 268.311 19.6377 268.119 19.2852C267.934 18.9264 267.841 18.4873 267.841 17.9678C267.841 17.5534 267.931 17.1606 268.11 16.7896C268.295 16.4123 268.555 16.0814 268.889 15.7969C269.229 15.5124 269.641 15.2866 270.123 15.1196C270.605 14.9526 271.144 14.8691 271.737 14.8691C272.585 14.8691 273.339 15.0021 274.001 15.2681C274.669 15.534 275.195 15.834 275.578 16.168L274.242 17.875C273.927 17.6462 273.553 17.4513 273.12 17.2905C272.693 17.1235 272.263 17.04 271.83 17.04C271.428 17.04 271.116 17.1143 270.893 17.2627C270.67 17.4049 270.559 17.5781 270.559 17.7822C270.559 17.9987 270.655 18.175 270.847 18.311C271.045 18.4409 271.329 18.5553 271.7 18.6543L272.776 18.9604C273.803 19.2511 274.539 19.6439 274.984 20.1387C275.43 20.6335 275.652 21.2581 275.652 22.0127C275.652 22.4333 275.566 22.8353 275.393 23.2188C275.219 23.596 274.966 23.9331 274.632 24.23C274.298 24.5269 273.883 24.7619 273.389 24.9351C272.894 25.1021 272.331 25.1855 271.7 25.1855C271.218 25.1855 270.763 25.1423 270.336 25.0557C269.916 24.9691 269.523 24.8516 269.158 24.7031C268.799 24.5485 268.475 24.3753 268.184 24.1836C267.893 23.9919 267.646 23.8001 267.442 23.6084L268.871 21.8271ZM281.683 14.8691C282.419 14.8691 283.087 15.0021 283.687 15.2681C284.286 15.5278 284.8 15.8896 285.227 16.3535C285.653 16.8174 285.981 17.3647 286.21 17.9956C286.445 18.6265 286.562 19.3068 286.562 20.0366C286.562 20.7726 286.445 21.4561 286.21 22.0869C285.975 22.7116 285.644 23.2528 285.217 23.7104C284.791 24.1681 284.277 24.5299 283.677 24.7959C283.077 25.0557 282.412 25.1855 281.683 25.1855C280.947 25.1855 280.279 25.0557 279.679 24.7959C279.079 24.5299 278.565 24.1681 278.139 23.7104C277.712 23.2528 277.381 22.7116 277.146 22.0869C276.911 21.4561 276.793 20.7726 276.793 20.0366C276.793 19.3068 276.908 18.6265 277.137 17.9956C277.372 17.3647 277.703 16.8174 278.129 16.3535C278.556 15.8896 279.069 15.5278 279.669 15.2681C280.276 15.0021 280.947 14.8691 281.683 14.8691ZM281.683 22.8105C282.048 22.8105 282.369 22.7425 282.647 22.6064C282.932 22.4704 283.17 22.2817 283.362 22.0405C283.554 21.7993 283.699 21.5117 283.798 21.1777C283.897 20.8376 283.946 20.4665 283.946 20.0645V19.9995C283.946 19.5975 283.897 19.2295 283.798 18.8955C283.699 18.5553 283.554 18.2646 283.362 18.0234C283.17 17.776 282.932 17.5843 282.647 17.4482C282.369 17.3122 282.048 17.2441 281.683 17.2441C281.318 17.2441 280.993 17.3122 280.708 17.4482C280.43 17.5843 280.195 17.776 280.003 18.0234C279.812 18.2646 279.666 18.5553 279.567 18.8955C279.468 19.2295 279.419 19.5975 279.419 19.9995V20.0645C279.419 20.4665 279.468 20.8376 279.567 21.1777C279.666 21.5117 279.812 21.7993 280.003 22.0405C280.195 22.2817 280.43 22.4704 280.708 22.6064C280.993 22.7425 281.318 22.8105 281.683 22.8105ZM288.26 15.064H290.821V15.9175C290.957 15.7814 291.108 15.6515 291.275 15.5278C291.449 15.3979 291.637 15.2866 291.841 15.1938C292.045 15.0949 292.271 15.0176 292.519 14.9619C292.772 14.9001 293.05 14.8691 293.354 14.8691C293.892 14.8691 294.374 14.9588 294.801 15.1382C295.228 15.3114 295.586 15.5526 295.877 15.8618C296.174 16.1711 296.4 16.5329 296.554 16.9473C296.709 17.3617 296.786 17.8101 296.786 18.2925V25H294.226V19.2202C294.226 18.8677 294.185 18.5708 294.105 18.3296C294.025 18.0822 293.913 17.8843 293.771 17.7358C293.635 17.5812 293.471 17.4699 293.279 17.4019C293.094 17.3276 292.89 17.2905 292.667 17.2905C292.407 17.2905 292.163 17.3369 291.934 17.4297C291.711 17.5225 291.517 17.6647 291.35 17.8564C291.183 18.042 291.053 18.277 290.96 18.5615C290.867 18.846 290.821 19.18 290.821 19.5635V25H288.26V15.064ZM301.638 17.9121H305.627V20.2129H301.638V17.9121ZM318.922 25H316.352V19.2202C316.352 18.8677 316.312 18.5708 316.231 18.3296C316.157 18.0822 316.052 17.8843 315.916 17.7358C315.78 17.5812 315.622 17.473 315.443 17.4111C315.264 17.3431 315.069 17.3091 314.858 17.3091C314.611 17.3091 314.379 17.3524 314.163 17.439C313.952 17.5256 313.767 17.6616 313.606 17.8472C313.451 18.0327 313.328 18.2708 313.235 18.5615C313.148 18.846 313.105 19.1862 313.105 19.582V25H310.544V15.064H313.105V15.936C313.433 15.5711 313.813 15.3021 314.246 15.1289C314.685 14.9557 315.155 14.8691 315.656 14.8691C316.17 14.8691 316.649 14.9743 317.094 15.1846C317.546 15.3949 317.92 15.7412 318.217 16.2236C318.39 15.9762 318.588 15.766 318.811 15.5928C319.039 15.4196 319.284 15.2804 319.543 15.1753C319.803 15.0701 320.072 14.9928 320.351 14.9434C320.635 14.8939 320.926 14.8691 321.223 14.8691C321.779 14.8691 322.274 14.9619 322.707 15.1475C323.146 15.3268 323.517 15.5711 323.82 15.8804C324.123 16.1896 324.355 16.5452 324.516 16.9473C324.677 17.3493 324.757 17.7729 324.757 18.2183V25H322.169V19.2202C322.169 18.8677 322.129 18.5708 322.048 18.3296C321.974 18.0822 321.869 17.8843 321.733 17.7358C321.597 17.5812 321.436 17.473 321.25 17.4111C321.071 17.3431 320.876 17.3091 320.666 17.3091C320.419 17.3091 320.19 17.3524 319.979 17.439C319.769 17.5256 319.584 17.6616 319.423 17.8472C319.268 18.0327 319.145 18.2708 319.052 18.5615C318.965 18.846 318.922 19.1862 318.922 19.582V25ZM330.101 20.9644C329.786 21.0138 329.532 21.1252 329.34 21.2983C329.149 21.4653 329.053 21.6942 329.053 21.9849C329.053 22.3065 329.17 22.5848 329.405 22.8198C329.64 23.0487 329.987 23.1631 330.444 23.1631C330.927 23.1631 331.307 23.0239 331.585 22.7456C331.864 22.4673 332.003 22.0993 332.003 21.6416V20.6396L330.101 20.9644ZM332.42 24.063C332.315 24.1805 332.185 24.3073 332.031 24.4434C331.882 24.5732 331.703 24.6938 331.493 24.8052C331.289 24.9103 331.047 25 330.769 25.0742C330.491 25.1484 330.178 25.1855 329.832 25.1855C329.337 25.1855 328.88 25.1082 328.459 24.9536C328.045 24.7928 327.68 24.5701 327.364 24.2856C327.049 24.0011 326.801 23.6733 326.622 23.3022C326.443 22.925 326.353 22.5168 326.353 22.0776C326.353 21.2798 326.6 20.6273 327.095 20.1201C327.59 19.613 328.273 19.2944 329.146 19.1646L332.003 18.7471V18.5615C332.003 18.1162 331.867 17.7637 331.595 17.5039C331.323 17.2441 330.88 17.1143 330.268 17.1143C330.014 17.1143 329.758 17.1452 329.498 17.207C329.238 17.2627 328.988 17.3276 328.747 17.4019C328.512 17.4761 328.292 17.5627 328.088 17.6616C327.884 17.7544 327.704 17.8379 327.55 17.9121L326.548 15.9546C327.117 15.6392 327.748 15.3794 328.44 15.1753C329.139 14.9712 329.863 14.8691 330.611 14.8691C331.069 14.8691 331.53 14.9186 331.994 15.0176C332.464 15.1104 332.887 15.2835 333.265 15.5371C333.648 15.7907 333.96 16.137 334.202 16.5762C334.443 17.0091 334.563 17.5627 334.563 18.2368V22.3188C334.563 22.6095 334.638 22.826 334.786 22.9683C334.941 23.1043 335.151 23.2311 335.417 23.3486L334.257 25.1855C333.787 25.1361 333.41 25.0155 333.125 24.8237C332.841 24.6258 332.606 24.3722 332.42 24.063ZM336.707 15.064H339.267V15.9175C339.403 15.7814 339.555 15.6515 339.722 15.5278C339.895 15.3979 340.083 15.2866 340.288 15.1938C340.492 15.0949 340.717 15.0176 340.965 14.9619C341.218 14.9001 341.497 14.8691 341.8 14.8691C342.338 14.8691 342.82 14.9588 343.247 15.1382C343.674 15.3114 344.033 15.5526 344.323 15.8618C344.62 16.1711 344.846 16.5329 345 16.9473C345.155 17.3617 345.232 17.8101 345.232 18.2925V25H342.672V19.2202C342.672 18.8677 342.632 18.5708 342.551 18.3296C342.471 18.0822 342.36 17.8843 342.217 17.7358C342.081 17.5812 341.917 17.4699 341.726 17.4019C341.54 17.3276 341.336 17.2905 341.113 17.2905C340.854 17.2905 340.609 17.3369 340.38 17.4297C340.158 17.5225 339.963 17.6647 339.796 17.8564C339.629 18.042 339.499 18.277 339.406 18.5615C339.313 18.846 339.267 19.18 339.267 19.5635V25H336.707V15.064ZM355.827 25H353.267V24.1465C353.124 24.2826 352.97 24.4155 352.803 24.5454C352.636 24.6691 352.45 24.7804 352.246 24.8794C352.042 24.9722 351.813 25.0464 351.56 25.1021C351.312 25.1577 351.037 25.1855 350.734 25.1855C350.196 25.1855 349.713 25.099 349.287 24.9258C348.86 24.7464 348.498 24.5052 348.201 24.2021C347.91 23.8929 347.688 23.5311 347.533 23.1167C347.379 22.7023 347.301 22.2539 347.301 21.7715V15.064H349.862V20.8345C349.862 21.187 349.899 21.487 349.973 21.7344C350.054 21.9818 350.162 22.1828 350.298 22.3374C350.44 22.4858 350.607 22.5972 350.799 22.6714C350.991 22.7394 351.198 22.7734 351.42 22.7734C351.68 22.7734 351.921 22.7271 352.144 22.6343C352.373 22.5415 352.571 22.4023 352.738 22.2168C352.905 22.0251 353.035 21.7869 353.127 21.5024C353.22 21.2179 353.267 20.884 353.267 20.5005V15.064H355.827V25ZM361.254 20.9644C360.939 21.0138 360.685 21.1252 360.494 21.2983C360.302 21.4653 360.206 21.6942 360.206 21.9849C360.206 22.3065 360.324 22.5848 360.559 22.8198C360.794 23.0487 361.14 23.1631 361.598 23.1631C362.08 23.1631 362.46 23.0239 362.739 22.7456C363.017 22.4673 363.156 22.0993 363.156 21.6416V20.6396L361.254 20.9644ZM363.574 24.063C363.469 24.1805 363.339 24.3073 363.184 24.4434C363.036 24.5732 362.856 24.6938 362.646 24.8052C362.442 24.9103 362.201 25 361.922 25.0742C361.644 25.1484 361.332 25.1855 360.985 25.1855C360.491 25.1855 360.033 25.1082 359.612 24.9536C359.198 24.7928 358.833 24.5701 358.518 24.2856C358.202 24.0011 357.955 23.6733 357.775 23.3022C357.596 22.925 357.506 22.5168 357.506 22.0776C357.506 21.2798 357.754 20.6273 358.249 20.1201C358.743 19.613 359.427 19.2944 360.299 19.1646L363.156 18.7471V18.5615C363.156 18.1162 363.02 17.7637 362.748 17.5039C362.476 17.2441 362.034 17.1143 361.421 17.1143C361.168 17.1143 360.911 17.1452 360.651 17.207C360.392 17.2627 360.141 17.3276 359.9 17.4019C359.665 17.4761 359.445 17.5627 359.241 17.6616C359.037 17.7544 358.858 17.8379 358.703 17.9121L357.701 15.9546C358.27 15.6392 358.901 15.3794 359.594 15.1753C360.293 14.9712 361.016 14.8691 361.765 14.8691C362.222 14.8691 362.683 14.9186 363.147 15.0176C363.617 15.1104 364.041 15.2835 364.418 15.5371C364.801 15.7907 365.114 16.137 365.355 16.5762C365.596 17.0091 365.717 17.5627 365.717 18.2368V22.3188C365.717 22.6095 365.791 22.826 365.939 22.9683C366.094 23.1043 366.304 23.2311 366.57 23.3486L365.411 25.1855C364.941 25.1361 364.563 25.0155 364.279 24.8237C363.994 24.6258 363.759 24.3722 363.574 24.063ZM367.823 11.6963H370.383V22.3003C370.383 22.5106 370.442 22.6714 370.56 22.7827C370.683 22.894 370.878 22.9497 371.144 22.9497C371.268 22.9497 371.373 22.9435 371.459 22.9312C371.552 22.9126 371.67 22.8879 371.812 22.8569L372.016 25.0371C371.843 25.0618 371.657 25.0866 371.459 25.1113C371.292 25.1299 371.098 25.1453 370.875 25.1577C370.659 25.1763 370.433 25.1855 370.198 25.1855C369.833 25.1855 369.505 25.1392 369.214 25.0464C368.924 24.9536 368.673 24.8175 368.463 24.6382C368.259 24.4526 368.101 24.2238 367.99 23.9517C367.878 23.6795 367.823 23.3641 367.823 23.0054V11.6963Z" fill="white"/>
<rect width="155" height="27" transform="translate(390 6)" fill="#4C2C92"/>
<path d="M409.729 18.3481C409.729 19.3439 409.592 20.2531 409.32 21.0757C409.054 21.8921 408.652 22.591 408.114 23.1724C407.582 23.7537 406.914 24.2052 406.11 24.5269C405.306 24.8423 404.366 25 403.29 25H398.392V11.6963H403.29C404.366 11.6963 405.306 11.8571 406.11 12.1787C406.914 12.4941 407.582 12.9425 408.114 13.5239C408.652 14.1053 409.054 14.8073 409.32 15.6299C409.592 16.4463 409.729 17.3524 409.729 18.3481ZM406.936 18.0884C406.936 17.5256 406.865 17.0029 406.723 16.5205C406.587 16.0319 406.364 15.6082 406.055 15.2495C405.752 14.8908 405.356 14.6094 404.867 14.4053C404.379 14.195 403.788 14.0898 403.095 14.0898H401.082V22.6064H403.095C403.782 22.6064 404.369 22.5044 404.858 22.3003C405.347 22.09 405.742 21.8055 406.045 21.4468C406.355 21.0819 406.58 20.6551 406.723 20.1665C406.865 19.6779 406.936 19.1553 406.936 18.5986V18.0884ZM413.755 20.918C413.798 21.2148 413.891 21.487 414.033 21.7344C414.182 21.9818 414.367 22.1951 414.59 22.3745C414.812 22.5477 415.069 22.6838 415.36 22.7827C415.651 22.8817 415.96 22.9312 416.288 22.9312C416.665 22.9312 417.073 22.86 417.512 22.7178C417.951 22.5693 418.353 22.356 418.718 22.0776L419.952 23.8774C419.488 24.2671 418.919 24.5825 418.245 24.8237C417.571 25.0649 416.854 25.1855 416.093 25.1855C415.406 25.1855 414.76 25.068 414.154 24.833C413.548 24.598 413.016 24.2578 412.558 23.8125C412.107 23.3672 411.748 22.826 411.482 22.189C411.222 21.5519 411.092 20.8345 411.092 20.0366C411.092 19.3068 411.207 18.6265 411.436 17.9956C411.671 17.3647 411.995 16.8174 412.41 16.3535C412.83 15.8896 413.331 15.5278 413.913 15.2681C414.494 15.0021 415.137 14.8691 415.842 14.8691C416.498 14.8691 417.107 14.9897 417.67 15.231C418.233 15.466 418.721 15.8 419.136 16.2329C419.55 16.6597 419.875 17.173 420.11 17.7729C420.345 18.3729 420.462 19.0347 420.462 19.7583V20.918H413.755ZM415.833 17.0957C415.283 17.0957 414.816 17.2812 414.432 17.6523C414.055 18.0173 413.835 18.4595 413.773 18.979H417.781C417.769 18.4533 417.577 18.008 417.206 17.6431C416.835 17.2782 416.377 17.0957 415.833 17.0957ZM425.76 22.0405C425.76 22.158 425.775 22.2694 425.806 22.3745C425.837 22.4797 425.89 22.5724 425.964 22.6528C426.044 22.7271 426.156 22.7858 426.298 22.8291C426.44 22.8724 426.623 22.894 426.845 22.894C426.938 22.894 427.043 22.891 427.161 22.8848C427.278 22.8724 427.396 22.86 427.513 22.8477C427.631 22.8353 427.739 22.8198 427.838 22.8013C427.943 22.7827 428.03 22.7673 428.098 22.7549L428.33 25.0186C428.088 25.0495 427.838 25.0773 427.578 25.1021C427.355 25.1268 427.108 25.1453 426.836 25.1577C426.564 25.1763 426.289 25.1855 426.01 25.1855C425.126 25.1855 424.436 24.9845 423.941 24.5825C423.447 24.1805 423.199 23.5404 423.199 22.6621V17.2905H421.409V15.064H423.199V12.2529L425.76 11.5664V15.064H428.367V17.2905H425.76V22.0405ZM433.191 20.9644C432.875 21.0138 432.622 21.1252 432.43 21.2983C432.238 21.4653 432.143 21.6942 432.143 21.9849C432.143 22.3065 432.26 22.5848 432.495 22.8198C432.73 23.0487 433.076 23.1631 433.534 23.1631C434.017 23.1631 434.397 23.0239 434.675 22.7456C434.954 22.4673 435.093 22.0993 435.093 21.6416V20.6396L433.191 20.9644ZM435.51 24.063C435.405 24.1805 435.275 24.3073 435.121 24.4434C434.972 24.5732 434.793 24.6938 434.583 24.8052C434.378 24.9103 434.137 25 433.859 25.0742C433.581 25.1484 433.268 25.1855 432.922 25.1855C432.427 25.1855 431.969 25.1082 431.549 24.9536C431.134 24.7928 430.77 24.5701 430.454 24.2856C430.139 24.0011 429.891 23.6733 429.712 23.3022C429.533 22.925 429.443 22.5168 429.443 22.0776C429.443 21.2798 429.69 20.6273 430.185 20.1201C430.68 19.613 431.363 19.2944 432.235 19.1646L435.093 18.7471V18.5615C435.093 18.1162 434.957 17.7637 434.685 17.5039C434.412 17.2441 433.97 17.1143 433.358 17.1143C433.104 17.1143 432.848 17.1452 432.588 17.207C432.328 17.2627 432.078 17.3276 431.836 17.4019C431.601 17.4761 431.382 17.5627 431.178 17.6616C430.974 17.7544 430.794 17.8379 430.64 17.9121L429.638 15.9546C430.207 15.6392 430.838 15.3794 431.53 15.1753C432.229 14.9712 432.953 14.8691 433.701 14.8691C434.159 14.8691 434.62 14.9186 435.083 15.0176C435.554 15.1104 435.977 15.2835 436.354 15.5371C436.738 15.7907 437.05 16.137 437.292 16.5762C437.533 17.0091 437.653 17.5627 437.653 18.2368V22.3188C437.653 22.6095 437.728 22.826 437.876 22.9683C438.031 23.1043 438.241 23.2311 438.507 23.3486L437.347 25.1855C436.877 25.1361 436.5 25.0155 436.215 24.8237C435.931 24.6258 435.696 24.3722 435.51 24.063ZM442.357 25H439.796V15.064H442.357V25ZM439.527 12.457C439.527 12.2467 439.568 12.0488 439.648 11.8633C439.728 11.6715 439.837 11.5076 439.973 11.3716C440.115 11.2293 440.279 11.118 440.464 11.0376C440.65 10.9572 440.851 10.917 441.067 10.917C441.278 10.917 441.476 10.9572 441.661 11.0376C441.853 11.118 442.017 11.2293 442.153 11.3716C442.295 11.5076 442.406 11.6715 442.487 11.8633C442.567 12.0488 442.607 12.2467 442.607 12.457C442.607 12.6735 442.567 12.8745 442.487 13.0601C442.406 13.2456 442.295 13.4095 442.153 13.5518C442.017 13.6878 441.853 13.7961 441.661 13.8765C441.476 13.9569 441.278 13.9971 441.067 13.9971C440.851 13.9971 440.65 13.9569 440.464 13.8765C440.279 13.7961 440.115 13.6878 439.973 13.5518C439.837 13.4095 439.728 13.2456 439.648 13.0601C439.568 12.8745 439.527 12.6735 439.527 12.457ZM444.565 15.064H447.125V15.9175C447.262 15.7814 447.413 15.6515 447.58 15.5278C447.753 15.3979 447.942 15.2866 448.146 15.1938C448.35 15.0949 448.576 15.0176 448.823 14.9619C449.077 14.9001 449.355 14.8691 449.658 14.8691C450.196 14.8691 450.679 14.9588 451.105 15.1382C451.532 15.3114 451.891 15.5526 452.182 15.8618C452.479 16.1711 452.704 16.5329 452.859 16.9473C453.014 17.3617 453.091 17.8101 453.091 18.2925V25H450.53V19.2202C450.53 18.8677 450.49 18.5708 450.41 18.3296C450.329 18.0822 450.218 17.8843 450.076 17.7358C449.94 17.5812 449.776 17.4699 449.584 17.4019C449.398 17.3276 449.194 17.2905 448.972 17.2905C448.712 17.2905 448.468 17.3369 448.239 17.4297C448.016 17.5225 447.821 17.6647 447.654 17.8564C447.487 18.042 447.357 18.277 447.265 18.5615C447.172 18.846 447.125 19.18 447.125 19.5635V25H444.565V15.064ZM457.377 20.918C457.42 21.2148 457.513 21.487 457.655 21.7344C457.804 21.9818 457.989 22.1951 458.212 22.3745C458.435 22.5477 458.691 22.6838 458.982 22.7827C459.273 22.8817 459.582 22.9312 459.91 22.9312C460.287 22.9312 460.695 22.86 461.134 22.7178C461.573 22.5693 461.975 22.356 462.34 22.0776L463.574 23.8774C463.11 24.2671 462.541 24.5825 461.867 24.8237C461.193 25.0649 460.476 25.1855 459.715 25.1855C459.028 25.1855 458.382 25.068 457.776 24.833C457.17 24.598 456.638 24.2578 456.18 23.8125C455.729 23.3672 455.37 22.826 455.104 22.189C454.844 21.5519 454.714 20.8345 454.714 20.0366C454.714 19.3068 454.829 18.6265 455.058 17.9956C455.293 17.3647 455.617 16.8174 456.032 16.3535C456.452 15.8896 456.953 15.5278 457.535 15.2681C458.116 15.0021 458.759 14.8691 459.464 14.8691C460.12 14.8691 460.729 14.9897 461.292 15.231C461.855 15.466 462.343 15.8 462.758 16.2329C463.172 16.6597 463.497 17.173 463.732 17.7729C463.967 18.3729 464.084 19.0347 464.084 19.7583V20.918H457.377ZM459.455 17.0957C458.905 17.0957 458.438 17.2812 458.054 17.6523C457.677 18.0173 457.457 18.4595 457.396 18.979H461.403C461.391 18.4533 461.199 18.008 460.828 17.6431C460.457 17.2782 459.999 17.0957 459.455 17.0957ZM472.1 25V24.1465C471.964 24.2949 471.812 24.4341 471.646 24.564C471.485 24.6877 471.302 24.7959 471.098 24.8887C470.9 24.9814 470.681 25.0526 470.439 25.1021C470.204 25.1577 469.942 25.1855 469.651 25.1855C468.995 25.1855 468.395 25.0557 467.851 24.7959C467.307 24.5361 466.84 24.1774 466.45 23.7197C466.061 23.262 465.757 22.7178 465.541 22.0869C465.331 21.4561 465.226 20.7726 465.226 20.0366C465.226 19.3006 465.331 18.6172 465.541 17.9863C465.751 17.3555 466.045 16.8112 466.422 16.3535C466.806 15.8896 467.267 15.5278 467.805 15.2681C468.343 15.0021 468.94 14.8691 469.595 14.8691C470.177 14.8691 470.668 14.9712 471.07 15.1753C471.479 15.3732 471.822 15.6206 472.1 15.9175V11.6963H474.661V25H472.1ZM472.174 19.1089C472.174 18.8429 472.125 18.5955 472.026 18.3667C471.933 18.1379 471.797 17.9399 471.618 17.7729C471.438 17.606 471.222 17.4761 470.968 17.3833C470.721 17.2905 470.439 17.2441 470.124 17.2441C469.759 17.2441 469.434 17.3122 469.15 17.4482C468.872 17.5843 468.637 17.776 468.445 18.0234C468.253 18.2646 468.108 18.5522 468.009 18.8862C467.91 19.2202 467.86 19.5851 467.86 19.981V20.1016C467.86 20.4974 467.91 20.8623 468.009 21.1963C468.108 21.5241 468.253 21.8086 468.445 22.0498C468.637 22.291 468.872 22.4797 469.15 22.6157C469.434 22.7456 469.759 22.8105 470.124 22.8105C470.439 22.8105 470.721 22.7642 470.968 22.6714C471.222 22.5786 471.438 22.4487 471.618 22.2817C471.797 22.1147 471.933 21.9199 472.026 21.6973C472.125 21.4684 472.174 21.221 472.174 20.9551V19.1089ZM483.511 20.9644C483.196 21.0138 482.942 21.1252 482.75 21.2983C482.559 21.4653 482.463 21.6942 482.463 21.9849C482.463 22.3065 482.58 22.5848 482.815 22.8198C483.05 23.0487 483.397 23.1631 483.854 23.1631C484.337 23.1631 484.717 23.0239 484.996 22.7456C485.274 22.4673 485.413 22.0993 485.413 21.6416V20.6396L483.511 20.9644ZM485.831 24.063C485.725 24.1805 485.596 24.3073 485.441 24.4434C485.292 24.5732 485.113 24.6938 484.903 24.8052C484.699 24.9103 484.458 25 484.179 25.0742C483.901 25.1484 483.589 25.1855 483.242 25.1855C482.747 25.1855 482.29 25.1082 481.869 24.9536C481.455 24.7928 481.09 24.5701 480.774 24.2856C480.459 24.0011 480.212 23.6733 480.032 23.3022C479.853 22.925 479.763 22.5168 479.763 22.0776C479.763 21.2798 480.011 20.6273 480.505 20.1201C481 19.613 481.684 19.2944 482.556 19.1646L485.413 18.7471V18.5615C485.413 18.1162 485.277 17.7637 485.005 17.5039C484.733 17.2441 484.291 17.1143 483.678 17.1143C483.425 17.1143 483.168 17.1452 482.908 17.207C482.648 17.2627 482.398 17.3276 482.157 17.4019C481.922 17.4761 481.702 17.5627 481.498 17.6616C481.294 17.7544 481.115 17.8379 480.96 17.9121L479.958 15.9546C480.527 15.6392 481.158 15.3794 481.851 15.1753C482.549 14.9712 483.273 14.8691 484.021 14.8691C484.479 14.8691 484.94 14.9186 485.404 15.0176C485.874 15.1104 486.298 15.2835 486.675 15.5371C487.058 15.7907 487.371 16.137 487.612 16.5762C487.853 17.0091 487.974 17.5627 487.974 18.2368V22.3188C487.974 22.6095 488.048 22.826 488.196 22.9683C488.351 23.1043 488.561 23.2311 488.827 23.3486L487.667 25.1855C487.197 25.1361 486.82 25.0155 486.536 24.8237C486.251 24.6258 486.016 24.3722 485.831 24.063ZM492.677 28.1357H490.117V15.064H492.677V15.9175C492.956 15.6268 493.299 15.3794 493.707 15.1753C494.115 14.9712 494.61 14.8691 495.191 14.8691C495.847 14.8691 496.441 15.0021 496.973 15.2681C497.511 15.5278 497.972 15.8896 498.355 16.3535C498.738 16.8112 499.035 17.3555 499.246 17.9863C499.456 18.6172 499.561 19.3006 499.561 20.0366C499.561 20.7726 499.453 21.4561 499.236 22.0869C499.02 22.7178 498.717 23.262 498.327 23.7197C497.938 24.1774 497.471 24.5361 496.926 24.7959C496.382 25.0557 495.782 25.1855 495.126 25.1855C494.836 25.1855 494.57 25.1577 494.329 25.1021C494.094 25.0526 493.877 24.9814 493.679 24.8887C493.481 24.7959 493.299 24.6877 493.132 24.564C492.965 24.4341 492.813 24.2949 492.677 24.1465V28.1357ZM492.603 20.9551C492.603 21.221 492.649 21.4684 492.742 21.6973C492.841 21.9199 492.98 22.1147 493.16 22.2817C493.339 22.4487 493.552 22.5786 493.8 22.6714C494.053 22.7642 494.338 22.8105 494.653 22.8105C495.018 22.8105 495.34 22.7456 495.618 22.6157C495.903 22.4797 496.141 22.291 496.333 22.0498C496.524 21.8086 496.67 21.5241 496.769 21.1963C496.868 20.8623 496.917 20.4974 496.917 20.1016V19.981C496.917 19.5851 496.868 19.2202 496.769 18.8862C496.67 18.5522 496.524 18.2646 496.333 18.0234C496.141 17.776 495.903 17.5843 495.618 17.4482C495.34 17.3122 495.018 17.2441 494.653 17.2441C494.338 17.2441 494.053 17.2905 493.8 17.3833C493.552 17.4761 493.339 17.606 493.16 17.7729C492.98 17.9399 492.841 18.1379 492.742 18.3667C492.649 18.5955 492.603 18.8429 492.603 19.1089V20.9551ZM503.829 28.1357H501.268V15.064H503.829V15.9175C504.107 15.6268 504.45 15.3794 504.858 15.1753C505.267 14.9712 505.761 14.8691 506.343 14.8691C506.998 14.8691 507.592 15.0021 508.124 15.2681C508.662 15.5278 509.123 15.8896 509.506 16.3535C509.89 16.8112 510.187 17.3555 510.397 17.9863C510.607 18.6172 510.712 19.3006 510.712 20.0366C510.712 20.7726 510.604 21.4561 510.388 22.0869C510.171 22.7178 509.868 23.262 509.479 23.7197C509.089 24.1774 508.622 24.5361 508.078 24.7959C507.533 25.0557 506.933 25.1855 506.278 25.1855C505.987 25.1855 505.721 25.1577 505.48 25.1021C505.245 25.0526 505.028 24.9814 504.831 24.8887C504.633 24.7959 504.45 24.6877 504.283 24.564C504.116 24.4341 503.965 24.2949 503.829 24.1465V28.1357ZM503.754 20.9551C503.754 21.221 503.801 21.4684 503.894 21.6973C503.993 21.9199 504.132 22.1147 504.311 22.2817C504.49 22.4487 504.704 22.5786 504.951 22.6714C505.205 22.7642 505.489 22.8105 505.805 22.8105C506.17 22.8105 506.491 22.7456 506.77 22.6157C507.054 22.4797 507.292 22.291 507.484 22.0498C507.676 21.8086 507.821 21.5241 507.92 21.1963C508.019 20.8623 508.068 20.4974 508.068 20.1016V19.981C508.068 19.5851 508.019 19.2202 507.92 18.8862C507.821 18.5522 507.676 18.2646 507.484 18.0234C507.292 17.776 507.054 17.5843 506.77 17.4482C506.491 17.3122 506.17 17.2441 505.805 17.2441C505.489 17.2441 505.205 17.2905 504.951 17.3833C504.704 17.4761 504.49 17.606 504.311 17.7729C504.132 17.9399 503.993 18.1379 503.894 18.3667C503.801 18.5955 503.754 18.8429 503.754 19.1089V20.9551ZM514.562 20.918C514.606 21.2148 514.699 21.487 514.841 21.7344C514.989 21.9818 515.175 22.1951 515.397 22.3745C515.62 22.5477 515.877 22.6838 516.167 22.7827C516.458 22.8817 516.767 22.9312 517.095 22.9312C517.472 22.9312 517.881 22.86 518.32 22.7178C518.759 22.5693 519.161 22.356 519.526 22.0776L520.76 23.8774C520.296 24.2671 519.727 24.5825 519.053 24.8237C518.379 25.0649 517.661 25.1855 516.9 25.1855C516.214 25.1855 515.568 25.068 514.961 24.833C514.355 24.598 513.823 24.2578 513.366 23.8125C512.914 23.3672 512.556 22.826 512.29 22.189C512.03 21.5519 511.9 20.8345 511.9 20.0366C511.9 19.3068 512.014 18.6265 512.243 17.9956C512.478 17.3647 512.803 16.8174 513.217 16.3535C513.638 15.8896 514.139 15.5278 514.72 15.2681C515.302 15.0021 515.945 14.8691 516.65 14.8691C517.306 14.8691 517.915 14.9897 518.478 15.231C519.04 15.466 519.529 15.8 519.943 16.2329C520.358 16.6597 520.682 17.173 520.917 17.7729C521.153 18.3729 521.27 19.0347 521.27 19.7583V20.918H514.562ZM516.641 17.0957C516.09 17.0957 515.623 17.2812 515.24 17.6523C514.862 18.0173 514.643 18.4595 514.581 18.979H518.589C518.576 18.4533 518.385 18.008 518.014 17.6431C517.643 17.2782 517.185 17.0957 516.641 17.0957ZM526.113 20.9644C525.797 21.0138 525.544 21.1252 525.352 21.2983C525.16 21.4653 525.064 21.6942 525.064 21.9849C525.064 22.3065 525.182 22.5848 525.417 22.8198C525.652 23.0487 525.998 23.1631 526.456 23.1631C526.938 23.1631 527.319 23.0239 527.597 22.7456C527.875 22.4673 528.015 22.0993 528.015 21.6416V20.6396L526.113 20.9644ZM528.432 24.063C528.327 24.1805 528.197 24.3073 528.042 24.4434C527.894 24.5732 527.715 24.6938 527.504 24.8052C527.3 24.9103 527.059 25 526.781 25.0742C526.502 25.1484 526.19 25.1855 525.844 25.1855C525.349 25.1855 524.891 25.1082 524.471 24.9536C524.056 24.7928 523.691 24.5701 523.376 24.2856C523.061 24.0011 522.813 23.6733 522.634 23.3022C522.454 22.925 522.365 22.5168 522.365 22.0776C522.365 21.2798 522.612 20.6273 523.107 20.1201C523.602 19.613 524.285 19.2944 525.157 19.1646L528.015 18.7471V18.5615C528.015 18.1162 527.879 17.7637 527.606 17.5039C527.334 17.2441 526.892 17.1143 526.28 17.1143C526.026 17.1143 525.77 17.1452 525.51 17.207C525.25 17.2627 525 17.3276 524.758 17.4019C524.523 17.4761 524.304 17.5627 524.1 17.6616C523.896 17.7544 523.716 17.8379 523.562 17.9121L522.56 15.9546C523.129 15.6392 523.759 15.3794 524.452 15.1753C525.151 14.9712 525.875 14.8691 526.623 14.8691C527.081 14.8691 527.542 14.9186 528.005 15.0176C528.475 15.1104 528.899 15.2835 529.276 15.5371C529.66 15.7907 529.972 16.137 530.213 16.5762C530.455 17.0091 530.575 17.5627 530.575 18.2368V22.3188C530.575 22.6095 530.649 22.826 530.798 22.9683C530.952 23.1043 531.163 23.2311 531.429 23.3486L530.269 25.1855C529.799 25.1361 529.422 25.0155 529.137 24.8237C528.853 24.6258 528.618 24.3722 528.432 24.063ZM532.681 11.6963H535.242V22.3003C535.242 22.5106 535.3 22.6714 535.418 22.7827C535.542 22.894 535.736 22.9497 536.002 22.9497C536.126 22.9497 536.231 22.9435 536.318 22.9312C536.411 22.9126 536.528 22.8879 536.67 22.8569L536.875 25.0371C536.701 25.0618 536.516 25.0866 536.318 25.1113C536.151 25.1299 535.956 25.1453 535.733 25.1577C535.517 25.1763 535.291 25.1855 535.056 25.1855C534.691 25.1855 534.363 25.1392 534.073 25.0464C533.782 24.9536 533.532 24.8175 533.321 24.6382C533.117 24.4526 532.959 24.2238 532.848 23.9517C532.737 23.6795 532.681 23.3641 532.681 23.0054V11.6963Z" fill="white"/>
<rect width="125" height="27" transform="translate(555 6)" fill="#EB3223"/>
<path d="M564.282 21.2612C564.455 21.4591 564.666 21.654 564.913 21.8457C565.16 22.0374 565.433 22.2106 565.729 22.3652C566.033 22.5137 566.36 22.6343 566.713 22.7271C567.065 22.8136 567.446 22.8569 567.854 22.8569C568.615 22.8569 569.196 22.6992 569.598 22.3838C570.006 22.0622 570.21 21.6725 570.21 21.2148C570.21 20.7386 570.031 20.3768 569.672 20.1294C569.32 19.882 568.757 19.6872 567.984 19.5449L567.566 19.4707C567.01 19.3717 566.456 19.2419 565.906 19.0811C565.355 18.9202 564.857 18.6883 564.412 18.3853C563.967 18.0822 563.605 17.6956 563.327 17.2256C563.048 16.7493 562.909 16.1494 562.909 15.4258C562.909 15.0052 563.002 14.5661 563.188 14.1084C563.373 13.6445 563.667 13.2209 564.069 12.8374C564.477 12.4478 565 12.1292 565.637 11.8818C566.28 11.6344 567.056 11.5107 567.965 11.5107C569.042 11.5107 570 11.6901 570.841 12.0488C571.689 12.4014 572.372 12.8683 572.892 13.4497L571.101 15.1196C570.736 14.7176 570.266 14.4022 569.691 14.1733C569.122 13.9445 568.534 13.8301 567.928 13.8301C567.229 13.8301 566.682 13.9631 566.286 14.229C565.896 14.495 565.702 14.8413 565.702 15.2681C565.702 15.5464 565.764 15.7783 565.887 15.9639C566.017 16.1494 566.196 16.304 566.425 16.4277C566.654 16.5452 566.929 16.6442 567.251 16.7246C567.573 16.805 567.931 16.8854 568.327 16.9658L568.541 17.0029C569.072 17.1019 569.601 17.2287 570.127 17.3833C570.653 17.5317 571.129 17.7544 571.556 18.0513C571.989 18.342 572.338 18.7254 572.604 19.2017C572.87 19.6717 573.003 20.2747 573.003 21.0107C573.003 21.6787 572.864 22.2694 572.585 22.7827C572.307 23.2961 571.939 23.7352 571.481 24.1001C571.024 24.4588 570.495 24.731 569.895 24.9165C569.295 25.0959 568.67 25.1855 568.021 25.1855C567.365 25.1855 566.756 25.1299 566.193 25.0186C565.637 24.9072 565.13 24.7495 564.672 24.5454C564.22 24.3413 563.815 24.1125 563.457 23.8589C563.104 23.6053 562.795 23.3332 562.529 23.0425L564.282 21.2612ZM585.063 18.2183C585.063 18.8182 585.017 19.4058 584.924 19.981C584.832 20.5562 584.686 21.1035 584.488 21.623C584.297 22.1364 584.049 22.6126 583.746 23.0518C583.443 23.4847 583.078 23.8589 582.651 24.1743C582.225 24.4897 581.733 24.7371 581.176 24.9165C580.626 25.0959 580.004 25.1855 579.312 25.1855C578.743 25.1855 578.217 25.1175 577.734 24.9814C577.252 24.8392 576.816 24.6475 576.426 24.4062C576.037 24.165 575.7 23.8805 575.415 23.5527C575.131 23.2188 574.908 22.86 574.747 22.4766L577.233 21.5024C577.456 21.923 577.753 22.2415 578.124 22.458C578.501 22.6683 578.928 22.7734 579.404 22.7734C579.868 22.7734 580.276 22.6838 580.629 22.5044C580.981 22.3188 581.272 22.0684 581.501 21.7529C581.736 21.4375 581.912 21.0726 582.03 20.6582C582.147 20.2376 582.203 19.7923 582.197 19.3223C582.042 19.4769 581.86 19.6253 581.649 19.7676C581.439 19.9098 581.204 20.0366 580.944 20.1479C580.691 20.2531 580.412 20.3397 580.109 20.4077C579.812 20.4696 579.5 20.5005 579.172 20.5005C578.523 20.5005 577.917 20.3953 577.354 20.1851C576.797 19.9686 576.312 19.6717 575.897 19.2944C575.489 18.911 575.168 18.4564 574.933 17.9307C574.698 17.4049 574.58 16.8298 574.58 16.2051C574.58 15.5371 574.698 14.9155 574.933 14.3403C575.174 13.7651 575.511 13.2703 575.944 12.856C576.383 12.4354 576.909 12.1076 577.521 11.8726C578.133 11.6313 578.817 11.5107 579.571 11.5107C580.4 11.5107 581.152 11.6592 581.826 11.9561C582.5 12.2467 583.075 12.6673 583.551 13.2178C584.034 13.7682 584.405 14.4393 584.665 15.231C584.931 16.0226 585.063 16.9163 585.063 17.9121V18.2183ZM582.067 16.0474C582.067 15.7319 582.011 15.4382 581.9 15.166C581.789 14.8939 581.628 14.6589 581.417 14.4609C581.213 14.2568 580.966 14.0991 580.675 13.9878C580.385 13.8703 580.063 13.8115 579.71 13.8115C579.346 13.8115 579.018 13.8703 578.727 13.9878C578.436 14.0991 578.189 14.2568 577.985 14.4609C577.781 14.6589 577.623 14.8939 577.512 15.166C577.407 15.4382 577.354 15.7319 577.354 16.0474C577.354 16.3566 577.407 16.6473 577.512 16.9194C577.623 17.1916 577.781 17.4297 577.985 17.6338C578.189 17.8317 578.436 17.9894 578.727 18.1069C579.018 18.2183 579.346 18.2739 579.71 18.2739C580.063 18.2739 580.385 18.2183 580.675 18.1069C580.966 17.9894 581.213 17.8317 581.417 17.6338C581.628 17.4297 581.789 17.1916 581.9 16.9194C582.011 16.6473 582.067 16.3566 582.067 16.0474ZM592.894 25V21.9941H586.26V19.1274L592.151 11.6963H595.593V19.5635H597.532V21.9941H595.593V25H592.894ZM592.894 19.5635V14.3403L588.756 19.5635H592.894ZM605.362 11.6963C605.919 11.6963 606.435 11.7798 606.912 11.9468C607.388 12.1076 607.802 12.3395 608.155 12.6426C608.507 12.9456 608.783 13.3136 608.98 13.7466C609.178 14.1733 609.277 14.6496 609.277 15.1753C609.277 15.4474 609.237 15.7165 609.157 15.9824C609.083 16.2484 608.971 16.4989 608.823 16.7339C608.674 16.9627 608.495 17.173 608.285 17.3647C608.074 17.5565 607.836 17.7142 607.57 17.8379C607.787 17.9121 608.037 18.0234 608.322 18.1719C608.612 18.3203 608.888 18.5244 609.147 18.7842C609.407 19.0439 609.627 19.3656 609.806 19.749C609.986 20.1263 610.075 20.584 610.075 21.1221C610.075 21.7962 609.945 22.3776 609.686 22.8662C609.432 23.3548 609.086 23.7568 608.646 24.0723C608.214 24.3877 607.703 24.6227 607.116 24.7773C606.534 24.9258 605.919 25 605.27 25H599.443V11.6963H605.362ZM607.32 21.0293C607.32 20.6706 607.255 20.3768 607.125 20.1479C606.995 19.9191 606.822 19.7367 606.605 19.6006C606.395 19.4645 606.154 19.3717 605.882 19.3223C605.61 19.2666 605.331 19.2388 605.047 19.2388H602.134V22.8755H605.047C605.331 22.8755 605.61 22.8477 605.882 22.792C606.154 22.7363 606.395 22.6374 606.605 22.4951C606.822 22.3529 606.995 22.1642 607.125 21.9292C607.255 21.6942 607.32 21.3942 607.32 21.0293ZM606.568 15.4443C606.568 14.9372 606.408 14.5413 606.086 14.2568C605.764 13.9723 605.245 13.8301 604.527 13.8301H602.134V16.9658H604.527C605.232 16.9658 605.749 16.8328 606.077 16.5669C606.404 16.2948 606.568 15.9206 606.568 15.4443ZM618.453 20.9644C618.137 21.0138 617.884 21.1252 617.692 21.2983C617.5 21.4653 617.404 21.6942 617.404 21.9849C617.404 22.3065 617.522 22.5848 617.757 22.8198C617.992 23.0487 618.338 23.1631 618.796 23.1631C619.278 23.1631 619.659 23.0239 619.937 22.7456C620.215 22.4673 620.354 22.0993 620.354 21.6416V20.6396L618.453 20.9644ZM620.772 24.063C620.667 24.1805 620.537 24.3073 620.382 24.4434C620.234 24.5732 620.055 24.6938 619.844 24.8052C619.64 24.9103 619.399 25 619.121 25.0742C618.842 25.1484 618.53 25.1855 618.184 25.1855C617.689 25.1855 617.231 25.1082 616.811 24.9536C616.396 24.7928 616.031 24.5701 615.716 24.2856C615.4 24.0011 615.153 23.6733 614.974 23.3022C614.794 22.925 614.705 22.5168 614.705 22.0776C614.705 21.2798 614.952 20.6273 615.447 20.1201C615.942 19.613 616.625 19.2944 617.497 19.1646L620.354 18.7471V18.5615C620.354 18.1162 620.218 17.7637 619.946 17.5039C619.674 17.2441 619.232 17.1143 618.62 17.1143C618.366 17.1143 618.109 17.1452 617.85 17.207C617.59 17.2627 617.339 17.3276 617.098 17.4019C616.863 17.4761 616.644 17.5627 616.439 17.6616C616.235 17.7544 616.056 17.8379 615.901 17.9121L614.899 15.9546C615.468 15.6392 616.099 15.3794 616.792 15.1753C617.491 14.9712 618.215 14.8691 618.963 14.8691C619.421 14.8691 619.881 14.9186 620.345 15.0176C620.815 15.1104 621.239 15.2835 621.616 15.5371C622 15.7907 622.312 16.137 622.553 16.5762C622.794 17.0091 622.915 17.5627 622.915 18.2368V22.3188C622.915 22.6095 622.989 22.826 623.138 22.9683C623.292 23.1043 623.503 23.2311 623.769 23.3486L622.609 25.1855C622.139 25.1361 621.762 25.0155 621.477 24.8237C621.193 24.6258 620.958 24.3722 620.772 24.063ZM627.619 28.1357H625.058V15.064H627.619V15.9175C627.897 15.6268 628.24 15.3794 628.648 15.1753C629.057 14.9712 629.551 14.8691 630.133 14.8691C630.788 14.8691 631.382 15.0021 631.914 15.2681C632.452 15.5278 632.913 15.8896 633.296 16.3535C633.68 16.8112 633.977 17.3555 634.187 17.9863C634.397 18.6172 634.502 19.3006 634.502 20.0366C634.502 20.7726 634.394 21.4561 634.178 22.0869C633.961 22.7178 633.658 23.262 633.269 23.7197C632.879 24.1774 632.412 24.5361 631.868 24.7959C631.323 25.0557 630.723 25.1855 630.068 25.1855C629.777 25.1855 629.511 25.1577 629.27 25.1021C629.035 25.0526 628.819 24.9814 628.621 24.8887C628.423 24.7959 628.24 24.6877 628.073 24.564C627.906 24.4341 627.755 24.2949 627.619 24.1465V28.1357ZM627.544 20.9551C627.544 21.221 627.591 21.4684 627.684 21.6973C627.783 21.9199 627.922 22.1147 628.101 22.2817C628.28 22.4487 628.494 22.5786 628.741 22.6714C628.995 22.7642 629.279 22.8105 629.595 22.8105C629.96 22.8105 630.281 22.7456 630.56 22.6157C630.844 22.4797 631.082 22.291 631.274 22.0498C631.466 21.8086 631.611 21.5241 631.71 21.1963C631.809 20.8623 631.858 20.4974 631.858 20.1016V19.981C631.858 19.5851 631.809 19.2202 631.71 18.8862C631.611 18.5522 631.466 18.2646 631.274 18.0234C631.082 17.776 630.844 17.5843 630.56 17.4482C630.281 17.3122 629.96 17.2441 629.595 17.2441C629.279 17.2441 628.995 17.2905 628.741 17.3833C628.494 17.4761 628.28 17.606 628.101 17.7729C627.922 17.9399 627.783 18.1379 627.684 18.3667C627.591 18.5955 627.544 18.8429 627.544 19.1089V20.9551ZM638.77 28.1357H636.209V15.064H638.77V15.9175C639.048 15.6268 639.392 15.3794 639.8 15.1753C640.208 14.9712 640.703 14.8691 641.284 14.8691C641.94 14.8691 642.534 15.0021 643.065 15.2681C643.604 15.5278 644.064 15.8896 644.448 16.3535C644.831 16.8112 645.128 17.3555 645.338 17.9863C645.549 18.6172 645.654 19.3006 645.654 20.0366C645.654 20.7726 645.546 21.4561 645.329 22.0869C645.113 22.7178 644.81 23.262 644.42 23.7197C644.03 24.1774 643.563 24.5361 643.019 24.7959C642.475 25.0557 641.875 25.1855 641.219 25.1855C640.929 25.1855 640.663 25.1577 640.421 25.1021C640.186 25.0526 639.97 24.9814 639.772 24.8887C639.574 24.7959 639.392 24.6877 639.225 24.564C639.058 24.4341 638.906 24.2949 638.77 24.1465V28.1357ZM638.696 20.9551C638.696 21.221 638.742 21.4684 638.835 21.6973C638.934 21.9199 639.073 22.1147 639.252 22.2817C639.432 22.4487 639.645 22.5786 639.893 22.6714C640.146 22.7642 640.431 22.8105 640.746 22.8105C641.111 22.8105 641.433 22.7456 641.711 22.6157C641.995 22.4797 642.234 22.291 642.425 22.0498C642.617 21.8086 642.762 21.5241 642.861 21.1963C642.96 20.8623 643.01 20.4974 643.01 20.1016V19.981C643.01 19.5851 642.96 19.2202 642.861 18.8862C642.762 18.5522 642.617 18.2646 642.425 18.0234C642.234 17.776 641.995 17.5843 641.711 17.4482C641.433 17.3122 641.111 17.2441 640.746 17.2441C640.431 17.2441 640.146 17.2905 639.893 17.3833C639.645 17.4761 639.432 17.606 639.252 17.7729C639.073 17.9399 638.934 18.1379 638.835 18.3667C638.742 18.5955 638.696 18.8429 638.696 19.1089V20.9551ZM649.504 20.918C649.547 21.2148 649.64 21.487 649.782 21.7344C649.931 21.9818 650.116 22.1951 650.339 22.3745C650.562 22.5477 650.818 22.6838 651.109 22.7827C651.4 22.8817 651.709 22.9312 652.037 22.9312C652.414 22.9312 652.822 22.86 653.261 22.7178C653.7 22.5693 654.102 22.356 654.467 22.0776L655.701 23.8774C655.237 24.2671 654.668 24.5825 653.994 24.8237C653.32 25.0649 652.603 25.1855 651.842 25.1855C651.155 25.1855 650.509 25.068 649.903 24.833C649.297 24.598 648.765 24.2578 648.307 23.8125C647.856 23.3672 647.497 22.826 647.231 22.189C646.971 21.5519 646.841 20.8345 646.841 20.0366C646.841 19.3068 646.956 18.6265 647.185 17.9956C647.42 17.3647 647.744 16.8174 648.159 16.3535C648.579 15.8896 649.08 15.5278 649.662 15.2681C650.243 15.0021 650.886 14.8691 651.591 14.8691C652.247 14.8691 652.856 14.9897 653.419 15.231C653.982 15.466 654.47 15.8 654.885 16.2329C655.299 16.6597 655.624 17.173 655.859 17.7729C656.094 18.3729 656.211 19.0347 656.211 19.7583V20.918H649.504ZM651.582 17.0957C651.032 17.0957 650.565 17.2812 650.181 17.6523C649.804 18.0173 649.584 18.4595 649.522 18.979H653.53C653.518 18.4533 653.326 18.008 652.955 17.6431C652.584 17.2782 652.126 17.0957 651.582 17.0957ZM661.054 20.9644C660.739 21.0138 660.485 21.1252 660.293 21.2983C660.102 21.4653 660.006 21.6942 660.006 21.9849C660.006 22.3065 660.123 22.5848 660.358 22.8198C660.593 23.0487 660.94 23.1631 661.397 23.1631C661.88 23.1631 662.26 23.0239 662.539 22.7456C662.817 22.4673 662.956 22.0993 662.956 21.6416V20.6396L661.054 20.9644ZM663.374 24.063C663.268 24.1805 663.139 24.3073 662.984 24.4434C662.835 24.5732 662.656 24.6938 662.446 24.8052C662.242 24.9103 662 25 661.722 25.0742C661.444 25.1484 661.132 25.1855 660.785 25.1855C660.29 25.1855 659.833 25.1082 659.412 24.9536C658.998 24.7928 658.633 24.5701 658.317 24.2856C658.002 24.0011 657.755 23.6733 657.575 23.3022C657.396 22.925 657.306 22.5168 657.306 22.0776C657.306 21.2798 657.554 20.6273 658.048 20.1201C658.543 19.613 659.227 19.2944 660.099 19.1646L662.956 18.7471V18.5615C662.956 18.1162 662.82 17.7637 662.548 17.5039C662.276 17.2441 661.833 17.1143 661.221 17.1143C660.968 17.1143 660.711 17.1452 660.451 17.207C660.191 17.2627 659.941 17.3276 659.7 17.4019C659.465 17.4761 659.245 17.5627 659.041 17.6616C658.837 17.7544 658.658 17.8379 658.503 17.9121L657.501 15.9546C658.07 15.6392 658.701 15.3794 659.394 15.1753C660.092 14.9712 660.816 14.8691 661.564 14.8691C662.022 14.8691 662.483 14.9186 662.947 15.0176C663.417 15.1104 663.84 15.2835 664.218 15.5371C664.601 15.7907 664.914 16.137 665.155 16.5762C665.396 17.0091 665.517 17.5627 665.517 18.2368V22.3188C665.517 22.6095 665.591 22.826 665.739 22.9683C665.894 23.1043 666.104 23.2311 666.37 23.3486L665.21 25.1855C664.74 25.1361 664.363 25.0155 664.079 24.8237C663.794 24.6258 663.559 24.3722 663.374 24.063ZM667.623 11.6963H670.183V22.3003C670.183 22.5106 670.242 22.6714 670.359 22.7827C670.483 22.894 670.678 22.9497 670.944 22.9497C671.068 22.9497 671.173 22.9435 671.259 22.9312C671.352 22.9126 671.47 22.8879 671.612 22.8569L671.816 25.0371C671.643 25.0618 671.457 25.0866 671.259 25.1113C671.092 25.1299 670.897 25.1453 670.675 25.1577C670.458 25.1763 670.233 25.1855 669.998 25.1855C669.633 25.1855 669.305 25.1392 669.014 25.0464C668.723 24.9536 668.473 24.8175 668.263 24.6382C668.059 24.4526 667.901 24.2238 667.79 23.9517C667.678 23.6795 667.623 23.3641 667.623 23.0054V11.6963Z" fill="white"/>
</svg>
